<svg id="sprotty_1" class="sprotty-graph sprotty" tabindex="1002" xmlns="http://www.w3.org/2000/svg" viewBox="0 0 2885 1519.5"><style>
.elknode {
    stroke: #448;
    stroke-width: 2;
    fill: #ddf;
    fill-opacity: 0.5;
}

.elkport {
    stroke: #448;
    stroke-width: 1;
    fill: #66c;
}

.elkedge {
    fill: none;
    stroke: #88f;
    stroke-width: 8;
    stroke-opacity: 0.3;
    pointer-events: stroke;
    stroke-linejoin: round;
}

.elkedge:hover {
    stroke: #448;
    stroke-width: 8;
    stroke-opacity: 1;
    stroke-dasharray: 16px;
    stroke-dashoffset: 32px;
    animation: stroke 0.5s linear infinite;
}

@keyframes stroke {
    to {
        stroke-dashoffset: 0;
    }
}

.elkedge.arrow {
    fill: #336;
}

.elklabel {
    stroke-width: 0;
    stroke: #000;
    fill: #000;
    font-family: sans-serif;
    font-size: 10pt;
    dominant-baseline: hanging;
}

.elklabel:hover {
    font-size: 24pt;
}

.elkjunction {
    stroke: none;
    fill: #224;
}

.selected &gt; rect {
    stroke-width: 3;
}

.mouseover {
    stroke: #88f;
}
/*
 * Copyright (C) 2017 TypeFox and others.
 *
 * Licensed under the Apache License, Version 2.0 (the &quot;License&quot;); you may not use this file except in compliance with the License.
 * You may obtain a copy of the License at http://www.apache.org/licenses/LICENSE-2.0
 */

.sprotty {
    padding: 0px;
    font-family: &quot;Helvetica Neue&quot;, Helvetica, Arial, sans-serif;
}

.sprotty-hidden {
    display: block;
    position: absolute;
    width: 0px;
    height: 0px;
}

.sprotty-popup {
    font-family: &quot;Helvetica Neue&quot;, Helvetica, Arial, sans-serif;
    position: absolute;
    background: white;
    border-radius: 5px;
    border: 1px solid;
    max-width: 400px;
    min-width: 100px;
}

.sprotty-popup &gt; div {
    margin: 10px;
}

.sprotty-popup-closed {
    display: none;
}
</style><g transform="scale(1) translate(0,0)"><g id="sprotty_3" transform="translate(117, 71)" opacity="1"><rect class="elknode" x="0" y="0" rx="10" width="2651" height="1398.5" /><g id="sprotty_5" transform="translate(300, 767.5)" opacity="1"><rect class="elknode" x="0" y="0" rx="10" width="200" height="60" /><text id="sprotty_6" class="elklabel" transform="translate(5, 22) translate(0, 0)" opacity="1">local.cluster-name</text></g><g id="sprotty_13" transform="translate(300, 957.5)" opacity="1"><rect class="elknode" x="0" y="0" rx="10" width="200" height="60" /><text id="sprotty_14" class="elklabel" transform="translate(5, 22) translate(0, 0)" opacity="1">local.host</text></g><g id="sprotty_17" transform="translate(1283.6363636363637, 180.04545454545456)" opacity="1"><rect class="elknode" x="0" y="0" rx="10" width="200" height="60" /><text id="sprotty_18" class="elklabel" transform="translate(5, 22) translate(0, 0)" opacity="1">local.parameters</text></g><g id="sprotty_20" transform="translate(300, 607.5)" opacity="1"><rect class="elknode" x="0" y="0" rx="10" width="200" height="60" /><text id="sprotty_21" class="elklabel" transform="translate(5, 22) translate(0, 0)" opacity="1">local.servers</text></g><g id="sprotty_52" transform="translate(1267, 693)" opacity="1"><rect class="elknode" x="0" y="0" rx="10" width="400" height="410" /><g id="sprotty_54" transform="translate(100, 50)" opacity="1"><rect class="elknode" x="0" y="0" rx="10" width="200" height="60" /><text id="sprotty_55" class="elklabel" transform="translate(5, 22) translate(0, 0)" opacity="1">k8s_batch_v1_job.this</text></g><g id="sprotty_56" transform="translate(-16, 50)" opacity="1"><rect class="elkport" x="0" y="0" width="16" height="9" /><text id="sprotty_57" class="elklabel" transform="translate(-1, 10) translate(0, 0)" opacity="1">backoff_limit</text></g><g id="sprotty_59" transform="translate(-16, 110)" opacity="1"><rect class="elkport" x="0" y="0" width="16" height="9" /><text id="sprotty_60" class="elklabel" transform="translate(-1, 10) translate(0, 0)" opacity="1">command</text></g><g id="sprotty_62" transform="translate(-16, 170)" opacity="1"><rect class="elkport" x="0" y="0" width="16" height="9" /><text id="sprotty_63" class="elklabel" transform="translate(-1, 10) translate(0, 0)" opacity="1">image</text></g><g id="sprotty_65" transform="translate(-16, 230)" opacity="1"><rect class="elkport" x="0" y="0" width="16" height="9" /><text id="sprotty_66" class="elklabel" transform="translate(-1, 10) translate(0, 0)" opacity="1">name</text></g><g id="sprotty_68" transform="translate(-16, 290)" opacity="1"><rect class="elkport" x="0" y="0" width="16" height="9" /><text id="sprotty_69" class="elklabel" transform="translate(-1, 10) translate(0, 0)" opacity="1">namespace</text></g><g id="sprotty_71" transform="translate(-16, 350)" opacity="1"><rect class="elkport" x="0" y="0" width="16" height="9" /><text id="sprotty_72" class="elklabel" transform="translate(-1, 10) translate(0, 0)" opacity="1">restart_policy</text></g><text id="sprotty_53" class="elklabel" transform="translate(0, -21) translate(0, 0)" opacity="1">init-job</text></g><g id="sprotty_74" transform="translate(300, 1117.5)" opacity="1"><rect class="elknode" x="0" y="0" rx="10" width="200" height="60" /><text id="sprotty_75" class="elklabel" transform="translate(5, 22) translate(0, 0)" opacity="1">module.init-job</text></g><g id="sprotty_86" transform="translate(1884, 71)" opacity="1"><rect class="elknode" x="0" y="0" rx="10" width="650" height="490" /><g id="sprotty_88" transform="translate(100, 50)" opacity="1"><rect class="elknode" x="0" y="0" rx="10" width="200" height="60" /><text id="sprotty_89" class="elklabel" transform="translate(5, 22) translate(0, 0)" opacity="1">k8s_apps_v1_stateful_set.this</text></g><g id="sprotty_90" transform="translate(350, 50)" opacity="1"><rect class="elknode" x="0" y="0" rx="10" width="200" height="60" /><text id="sprotty_91" class="elklabel" transform="translate(5, 22) translate(0, 0)" opacity="1">local.k8s_apps_v1_stateful_set_parameters</text></g><g id="sprotty_93" transform="translate(100, 160)" opacity="1"><rect class="elknode" x="0" y="0" rx="10" width="200" height="60" /><text id="sprotty_94" class="elklabel" transform="translate(5, 22) translate(0, 0)" opacity="1">k8s_core_v1_service.this</text></g><g id="sprotty_95" transform="translate(350, 160)" opacity="1"><rect class="elknode" x="0" y="0" rx="10" width="200" height="60" /><text id="sprotty_96" class="elklabel" transform="translate(5, 22) translate(0, 0)" opacity="1">local.enable_service</text></g><g id="sprotty_98" transform="translate(100, 270)" opacity="1"><rect class="elknode" x="0" y="0" rx="10" width="200" height="60" /><text id="sprotty_99" class="elklabel" transform="translate(5, 22) translate(0, 0)" opacity="1">local.k8s_core_v1_service_parameters</text></g><g id="sprotty_104" transform="translate(350, 270)" opacity="1"><rect class="elknode" x="0" y="0" rx="10" width="200" height="60" /><text id="sprotty_105" class="elklabel" transform="translate(5, 22) translate(0, 0)" opacity="1">local.podAnnotations</text></g><g id="sprotty_107" transform="translate(100, 380)" opacity="1"><rect class="elknode" x="0" y="0" rx="10" width="200" height="60" /><text id="sprotty_108" class="elklabel" transform="translate(5, 22) translate(0, 0)" opacity="1">local.selector</text></g><g id="sprotty_110" transform="translate(350, 380)" opacity="1"><rect class="elknode" x="0" y="0" rx="10" width="200" height="60" /><text id="sprotty_111" class="elklabel" transform="translate(5, 22) translate(0, 0)" opacity="1">local.labels</text></g><g id="sprotty_101" transform="translate(-16, 50)" opacity="1"><rect class="elkport" x="0" y="0" width="16" height="9" /><text id="sprotty_102" class="elklabel" transform="translate(-1, -1) translate(0, 0)" opacity="1">parameters</text></g><g id="sprotty_115" transform="translate(-16, 110)" opacity="1"><rect class="elkport" x="0" y="0" width="16" height="9" /><text id="sprotty_116" class="elklabel" transform="translate(-1, 10) translate(0, 0)" opacity="1">podAnnotations</text></g><g id="sprotty_119" transform="translate(650, 50)" opacity="1"><rect class="elkport" x="0" y="0" width="16" height="9" /><text id="sprotty_120" class="elklabel" transform="translate(17, 10) translate(0, 0)" opacity="1">labels</text></g><g id="sprotty_122" transform="translate(650, 110)" opacity="1"><rect class="elkport" x="0" y="0" width="16" height="9" /><text id="sprotty_123" class="elklabel" transform="translate(17, 10) translate(0, 0)" opacity="1">name</text></g><g id="sprotty_125" transform="translate(650, 170)" opacity="1"><rect class="elkport" x="0" y="0" width="16" height="9" /><text id="sprotty_126" class="elklabel" transform="translate(17, 10) translate(0, 0)" opacity="1">service</text></g><g id="sprotty_128" transform="translate(650, 230)" opacity="1"><rect class="elkport" x="0" y="0" width="16" height="9" /><text id="sprotty_129" class="elklabel" transform="translate(17, 10) translate(0, 0)" opacity="1">statefulset</text></g><text id="sprotty_87" class="elklabel" transform="translate(0, -21) translate(0, 0)" opacity="1">statefulset-service</text></g><g id="sprotty_132" transform="translate(1467, 340.04545454545456)" opacity="1"><rect class="elknode" x="0" y="0" rx="10" width="200" height="60" /><text id="sprotty_133" class="elklabel" transform="translate(5, 22) translate(0, 0)" opacity="1">module.statefulset-service</text></g><g id="sprotty_7" transform="translate(-16, 933)" opacity="1"><rect class="elkport" x="0" y="0" width="16" height="9" /><text id="sprotty_8" class="elklabel" transform="translate(-1, 10) translate(0, 0)" opacity="1">name</text></g><g id="sprotty_10" transform="translate(-16, 993)" opacity="1"><rect class="elkport" x="0" y="0" width="16" height="9" /><text id="sprotty_11" class="elklabel" transform="translate(-1, 10) translate(0, 0)" opacity="1">namespace</text></g><g id="sprotty_23" transform="translate(-16, 421)" opacity="1"><rect class="elkport" x="0" y="0" width="16" height="9" /><text id="sprotty_24" class="elklabel" transform="translate(-1, 10) translate(0, 0)" opacity="1">annotations</text></g><g id="sprotty_26" transform="translate(-16, 481)" opacity="1"><rect class="elkport" x="0" y="0" width="16" height="9" /><text id="sprotty_27" class="elklabel" transform="translate(-1, 10) translate(0, 0)" opacity="1">env</text></g><g id="sprotty_29" transform="translate(-16, 873)" opacity="1"><rect class="elkport" x="0" y="0" width="16" height="9" /><text id="sprotty_30" class="elklabel" transform="translate(-1, 10) translate(0, 0)" opacity="1">image</text></g><g id="sprotty_32" transform="translate(-16, 541)" opacity="1"><rect class="elkport" x="0" y="0" width="16" height="9" /><text id="sprotty_33" class="elklabel" transform="translate(-1, 10) translate(0, 0)" opacity="1">ports</text></g><g id="sprotty_35" transform="translate(-16, 181)" opacity="1"><rect class="elkport" x="0" y="0" width="16" height="9" /><text id="sprotty_36" class="elklabel" transform="translate(-1, 10) translate(0, 0)" opacity="1">resources</text></g><g id="sprotty_38" transform="translate(-16, 241)" opacity="1"><rect class="elkport" x="0" y="0" width="16" height="9" /><text id="sprotty_39" class="elklabel" transform="translate(-1, 10) translate(0, 0)" opacity="1">storage</text></g><g id="sprotty_41" transform="translate(-16, 301)" opacity="1"><rect class="elkport" x="0" y="0" width="16" height="9" /><text id="sprotty_42" class="elklabel" transform="translate(-1, 10) translate(0, 0)" opacity="1">storage_class</text></g><g id="sprotty_44" transform="translate(-16, 361)" opacity="1"><rect class="elkport" x="0" y="0" width="16" height="9" /><text id="sprotty_45" class="elklabel" transform="translate(-1, 10) translate(0, 0)" opacity="1">volume_claim_template_name</text></g><g id="sprotty_49" transform="translate(-16, 618)" opacity="1"><rect class="elkport" x="0" y="0" width="16" height="9" /><text id="sprotty_50" class="elklabel" transform="translate(-1, 10) translate(0, 0)" opacity="1">replicas</text></g><g id="sprotty_135" transform="translate(-16, 121)" opacity="1"><rect class="elkport" x="0" y="0" width="16" height="9" /><text id="sprotty_136" class="elklabel" transform="translate(-1, 10) translate(0, 0)" opacity="1">overrides</text></g><g id="sprotty_139" transform="translate(2651, 1278.5)" opacity="1"><rect class="elkport" x="0" y="0" width="16" height="9" /><text id="sprotty_140" class="elklabel" transform="translate(17, 10) translate(0, 0)" opacity="1">name</text></g><g id="sprotty_142" transform="translate(2651, 1338.5)" opacity="1"><rect class="elkport" x="0" y="0" width="16" height="9" /><text id="sprotty_143" class="elklabel" transform="translate(17, 10) translate(0, 0)" opacity="1">ports</text></g><g id="sprotty_145" transform="translate(2651, 241)" opacity="1"><rect class="elkport" x="0" y="0" width="16" height="9" /><text id="sprotty_146" class="elklabel" transform="translate(17, 10) translate(0, 0)" opacity="1">service</text></g><g id="sprotty_148" transform="translate(2651, 301)" opacity="1"><rect class="elkport" x="0" y="0" width="16" height="9" /><text id="sprotty_149" class="elklabel" transform="translate(17, 10) translate(0, 0)" opacity="1">statefulset</text></g><text id="sprotty_4" class="elklabel" transform="translate(0, -21) translate(0, 0)" opacity="1">modules/cockroachdb</text><g id="sprotty_9" class="sprotty-edge" opacity="1"><path class="elkedge" d="M 0,937.5 L 200,937.5 L 200,787.5 L 300,787.5" /><path class="edge arrow" d="M 0,0 L 8,-3 L 8,3 Z" transform="rotate(180 300 787.5) translate(300 787.5)" /><g id="sprotty_9_j0" transform="translate(200, 937.5)" opacity="1"><circle class="elkjunction" r="2" /></g><g id="sprotty_9_j1" transform="translate(200, 787.5)" opacity="1"><circle class="elkjunction" r="2" /></g></g><g id="sprotty_12" class="sprotty-edge" opacity="1"><path class="elkedge" d="M 0,997.5 L 250,997.5 L 250,807.5 L 300,807.5" /><path class="edge arrow" d="M 0,0 L 8,-3 L 8,3 Z" transform="rotate(180 300 807.5) translate(300 807.5)" /><g id="sprotty_12_j0" transform="translate(250, 997.5)" opacity="1"><circle class="elkjunction" r="2" /></g><g id="sprotty_12_j1" transform="translate(250, 807.5)" opacity="1"><circle class="elkjunction" r="2" /></g></g><g id="sprotty_15" class="sprotty-edge" opacity="1"><path class="elkedge" d="M 0,937.5 L 200,937.5 L 200,977.5 L 300,977.5" /><path class="edge arrow" d="M 0,0 L 8,-3 L 8,3 Z" transform="rotate(180 300 977.5) translate(300 977.5)" /></g><g id="sprotty_16" class="sprotty-edge" opacity="1"><path class="elkedge" d="M 0,997.5 L 300,997.5" /><path class="edge arrow" d="M 0,0 L 8,-3 L 8,3 Z" transform="rotate(180 300 997.5) translate(300 997.5)" /></g><g id="sprotty_19" class="sprotty-edge" opacity="1"><path class="elkedge" d="M 500,787.5 L 950,787.5 L 950,234.5909090909091 L 1283.6363636363637,234.5909090909091" /><path class="edge arrow" d="M 0,0 L 8,-3 L 8,3 Z" transform="rotate(180 1283.6363636363637 234.5909090909091) translate(1283.6363636363637 234.5909090909091)" /></g><g id="sprotty_22" class="sprotty-edge" opacity="1"><path class="elkedge" d="M 500,637.5 L 900,637.5 L 900,229.13636363636363 L 1283.6363636363637,229.13636363636363" /><path class="edge arrow" d="M 0,0 L 8,-3 L 8,3 Z" transform="rotate(180 1283.6363636363637 229.13636363636363) translate(1283.6363636363637 229.13636363636363)" /></g><g id="sprotty_25" class="sprotty-edge" opacity="1"><path class="elkedge" d="M 0,425.5 L 700,425.5 L 700,207.3181818181818 L 1283.6363636363637,207.3181818181818" /><path class="edge arrow" d="M 0,0 L 8,-3 L 8,3 Z" transform="rotate(180 1283.6363636363637 207.3181818181818) translate(1283.6363636363637 207.3181818181818)" /></g><g id="sprotty_28" class="sprotty-edge" opacity="1"><path class="elkedge" d="M 0,485.5 L 750,485.5 L 750,212.77272727272728 L 1283.6363636363637,212.77272727272728" /><path class="edge arrow" d="M 0,0 L 8,-3 L 8,3 Z" transform="rotate(180 1283.6363636363637 212.77272727272728) translate(1283.6363636363637 212.77272727272728)" /></g><g id="sprotty_31" class="sprotty-edge" opacity="1"><path class="elkedge" d="M 0,877.5 L 150,877.5 L 150,556.5 L 850,556.5 L 850,223.6818181818182 L 1283.6363636363637,223.6818181818182" /><path class="edge arrow" d="M 0,0 L 8,-3 L 8,3 Z" transform="rotate(180 1283.6363636363637 223.6818181818182) translate(1283.6363636363637 223.6818181818182)" /><g id="sprotty_31_j0" transform="translate(150, 877.5)" opacity="1"><circle class="elkjunction" r="2" /></g></g><g id="sprotty_34" class="sprotty-edge" opacity="1"><path class="elkedge" d="M 0,545.5 L 800,545.5 L 800,218.22727272727275 L 1283.6363636363637,218.22727272727275" /><path class="edge arrow" d="M 0,0 L 8,-3 L 8,3 Z" transform="rotate(180 1283.6363636363637 218.22727272727275) translate(1283.6363636363637 218.22727272727275)" /></g><g id="sprotty_37" class="sprotty-edge" opacity="1"><path class="elkedge" d="M 0,185.5 L 1283.6363636363637,185.5" /><path class="edge arrow" d="M 0,0 L 8,-3 L 8,3 Z" transform="rotate(180 1283.6363636363637 185.5) translate(1283.6363636363637 185.5)" /></g><g id="sprotty_40" class="sprotty-edge" opacity="1"><path class="elkedge" d="M 0,245.5 L 550,245.5 L 550,190.95454545454547 L 1283.6363636363637,190.95454545454547" /><path class="edge arrow" d="M 0,0 L 8,-3 L 8,3 Z" transform="rotate(180 1283.6363636363637 190.95454545454547) translate(1283.6363636363637 190.95454545454547)" /></g><g id="sprotty_43" class="sprotty-edge" opacity="1"><path class="elkedge" d="M 0,305.5 L 600,305.5 L 600,196.40909090909093 L 1283.6363636363637,196.40909090909093" /><path class="edge arrow" d="M 0,0 L 8,-3 L 8,3 Z" transform="rotate(180 1283.6363636363637 196.40909090909093) translate(1283.6363636363637 196.40909090909093)" /></g><g id="sprotty_46" class="sprotty-edge" opacity="1"><path class="elkedge" d="M 0,365.5 L 650,365.5 L 650,201.86363636363637 L 1283.6363636363637,201.86363636363637" /><path class="edge arrow" d="M 0,0 L 8,-3 L 8,3 Z" transform="rotate(180 1283.6363636363637 201.86363636363637) translate(1283.6363636363637 201.86363636363637)" /></g><g id="sprotty_47" class="sprotty-edge" opacity="1"><path class="elkedge" d="M 0,937.5 L 200,937.5 L 200,637.5 L 300,637.5" /><path class="edge arrow" d="M 0,0 L 8,-3 L 8,3 Z" transform="rotate(180 300 637.5) translate(300 637.5)" /></g><g id="sprotty_48" class="sprotty-edge" opacity="1"><path class="elkedge" d="M 0,997.5 L 250,997.5 L 250,652.5 L 300,652.5" /><path class="edge arrow" d="M 0,0 L 8,-3 L 8,3 Z" transform="rotate(180 300 652.5) translate(300 652.5)" /></g><g id="sprotty_51" class="sprotty-edge" opacity="1"><path class="elkedge" d="M 0,622.5 L 300,622.5" /><path class="edge arrow" d="M 0,0 L 8,-3 L 8,3 Z" transform="rotate(180 300 622.5) translate(300 622.5)" /></g><g id="sprotty_58" class="sprotty-edge" opacity="1"><path class="elkedge" d="M 1267,748.4807692307693 L 1367,760.7403846153846" /><path class="edge arrow" d="M 0,0 L 8,-3 L 8,3 Z" transform="rotate(-173.01063484366153 1367 760.7403846153846) translate(1367 760.7403846153846)" /></g><g id="sprotty_61" class="sprotty-edge" opacity="1"><path class="elkedge" d="M 1267,806.1730769230769 L 1367,789.5865384615385" /><path class="edge arrow" d="M 0,0 L 8,-3 L 8,3 Z" transform="rotate(170.58235285466571 1367 789.5865384615385) translate(1367 789.5865384615385)" /></g><g id="sprotty_64" class="sprotty-edge" opacity="1"><path class="elkedge" d="M 1267,863.8653846153846 L 1400.968253968254,803" /><path class="edge arrow" d="M 0,0 L 8,-3 L 8,3 Z" transform="rotate(155.5664230096372 1400.968253968254 803) translate(1400.968253968254 803)" /></g><g id="sprotty_67" class="sprotty-edge" opacity="1"><path class="elkedge" d="M 1265.0582524271845,923 L 1426.611650485437,803" /><path class="edge arrow" d="M 0,0 L 8,-3 L 8,3 Z" transform="rotate(143.39546107211748 1426.611650485437 803) translate(1426.611650485437 803)" /></g><g id="sprotty_70" class="sprotty-edge" opacity="1"><path class="elkedge" d="M 1263.3636363636363,983 L 1437.909090909091,803" /><path class="edge arrow" d="M 0,0 L 8,-3 L 8,3 Z" transform="rotate(134.1185960034179 1437.909090909091 803) translate(1437.909090909091 803)" /></g><g id="sprotty_73" class="sprotty-edge" opacity="1"><path class="elkedge" d="M 1262.4098360655737,1043 L 1444.2677595628415,803" /><path class="edge arrow" d="M 0,0 L 8,-3 L 8,3 Z" transform="rotate(127.15271423731083 1444.2677595628415 803) translate(1444.2677595628415 803)" /></g><g id="sprotty_76" class="sprotty-edge" opacity="1"><path class="elkedge" d="M 500,1126.0714285714287 L 1000,1126.0714285714287 L 1000,747.5 L 1251,747.5" /><path class="edge arrow" d="M 0,0 L 8,-3 L 8,3 Z" transform="rotate(180 1251 747.5) translate(1251 747.5)" /></g><g id="sprotty_77" class="sprotty-edge" opacity="1"><path class="elkedge" d="M 500,807.5 L 1251,807.5" /><path class="edge arrow" d="M 0,0 L 8,-3 L 8,3 Z" transform="rotate(180 1251 807.5) translate(1251 807.5)" /></g><g id="sprotty_78" class="sprotty-edge" opacity="1"><path class="elkedge" d="M 500,987.5 L 550,987.5 L 550,807.5 L 1251,807.5" /><path class="edge arrow" d="M 0,0 L 8,-3 L 8,3 Z" transform="rotate(180 1251 807.5) translate(1251 807.5)" /><g id="sprotty_78_j0" transform="translate(550, 987.5)" opacity="1"><circle class="elkjunction" r="2" /></g><g id="sprotty_78_j1" transform="translate(550, 807.5)" opacity="1"><circle class="elkjunction" r="2" /></g></g><g id="sprotty_79" class="sprotty-edge" opacity="1"><path class="elkedge" d="M 500,1134.642857142857 L 550,1134.642857142857 L 550,807.5 L 1251,807.5" /><path class="edge arrow" d="M 0,0 L 8,-3 L 8,3 Z" transform="rotate(180 1251 807.5) translate(1251 807.5)" /></g><g id="sprotty_80" class="sprotty-edge" opacity="1"><path class="elkedge" d="M 500,1143.2142857142858 L 1050,1143.2142857142858 L 1050,867.5 L 1251,867.5" /><path class="edge arrow" d="M 0,0 L 8,-3 L 8,3 Z" transform="rotate(180 1251 867.5) translate(1251 867.5)" /></g><g id="sprotty_81" class="sprotty-edge" opacity="1"><path class="elkedge" d="M 0,877.5 L 1050,877.5 L 1050,867.5 L 1251,867.5" /><path class="edge arrow" d="M 0,0 L 8,-3 L 8,3 Z" transform="rotate(180 1251 867.5) translate(1251 867.5)" /><g id="sprotty_81_j0" transform="translate(1050, 877.5)" opacity="1"><circle class="elkjunction" r="2" /></g></g><g id="sprotty_82" class="sprotty-edge" opacity="1"><path class="elkedge" d="M 500,1151.7857142857142 L 1100,1151.7857142857142 L 1100,927.5 L 1251,927.5" /><path class="edge arrow" d="M 0,0 L 8,-3 L 8,3 Z" transform="rotate(180 1251 927.5) translate(1251 927.5)" /></g><g id="sprotty_83" class="sprotty-edge" opacity="1"><path class="elkedge" d="M 500,1160.357142857143 L 1150,1160.357142857143 L 1150,987.5 L 1251,987.5" /><path class="edge arrow" d="M 0,0 L 8,-3 L 8,3 Z" transform="rotate(180 1251 987.5) translate(1251 987.5)" /><g id="sprotty_83_j0" transform="translate(1150, 1160.357142857143)" opacity="1"><circle class="elkjunction" r="2" /></g></g><g id="sprotty_84" class="sprotty-edge" opacity="1"><path class="elkedge" d="M 0,997.5 L 250,997.5 L 250,1227.5 L 1150,1227.5 L 1150,987.5 L 1251,987.5" /><path class="edge arrow" d="M 0,0 L 8,-3 L 8,3 Z" transform="rotate(180 1251 987.5) translate(1251 987.5)" /></g><g id="sprotty_85" class="sprotty-edge" opacity="1"><path class="elkedge" d="M 500,1168.9285714285713 L 1200,1168.9285714285713 L 1200,1047.5 L 1251,1047.5" /><path class="edge arrow" d="M 0,0 L 8,-3 L 8,3 Z" transform="rotate(180 1251 1047.5) translate(1251 1047.5)" /></g><g id="sprotty_92" class="sprotty-edge" opacity="1"><path class="elkedge" d="M 2234,151 L 2184,151" /><path class="edge arrow" d="M 0,0 L 8,-3 L 8,3 Z" transform="rotate(0 2184 151) translate(2184 151)" /></g><g id="sprotty_97" class="sprotty-edge" opacity="1"><path class="elkedge" d="M 2234,261 L 2184,261" /><path class="edge arrow" d="M 0,0 L 8,-3 L 8,3 Z" transform="rotate(0 2184 261) translate(2184 261)" /></g><g id="sprotty_100" class="sprotty-edge" opacity="1"><path class="elkedge" d="M 2084,341 L 2084,291" /><path class="edge arrow" d="M 0,0 L 8,-3 L 8,3 Z" transform="rotate(90 2084 291) translate(2084 291)" /></g><g id="sprotty_103" class="sprotty-edge" opacity="1"><path class="elkedge" d="M 1884,127.86681222707423 L 2234,231.41484716157206" /><path class="edge arrow" d="M 0,0 L 8,-3 L 8,3 Z" transform="rotate(-163.5190681178552 2234 231.41484716157206) translate(2234 231.41484716157206)" /></g><g id="sprotty_106" class="sprotty-edge" opacity="1"><path class="elkedge" d="M 2334,341 L 2334,181" /><path class="edge arrow" d="M 0,0 L 8,-3 L 8,3 Z" transform="rotate(90 2334 181) translate(2334 181)" /></g><g id="sprotty_109" class="sprotty-edge" opacity="1"><path class="elkedge" d="M 2106.7272727272725,451 L 2311.272727272727,181" /><path class="edge arrow" d="M 0,0 L 8,-3 L 8,3 Z" transform="rotate(127.14668669802178 2311.272727272727 181) translate(2311.272727272727 181)" /></g><g id="sprotty_112" class="sprotty-edge" opacity="1"><path class="elkedge" d="M 2265.818181818182,451 L 2152.181818181818,401" /><path class="edge arrow" d="M 0,0 L 8,-3 L 8,3 Z" transform="rotate(23.749494492866702 2152.181818181818 401) translate(2152.181818181818 401)" /></g><g id="sprotty_113" class="sprotty-edge" opacity="1"><path class="elkedge" d="M 1881.7974683544303,130 L 2295.350210970464,451" /><path class="edge arrow" d="M 0,0 L 8,-3 L 8,3 Z" transform="rotate(-142.18135436369792 2295.350210970464 451) translate(2295.350210970464 451)" /></g><g id="sprotty_114" class="sprotty-edge" opacity="1"><path class="elkedge" d="M 1884,129.7882096069869 L 2278.032586558045,341" /><path class="edge arrow" d="M 0,0 L 8,-3 L 8,3 Z" transform="rotate(-151.80752547398862 2278.032586558045 341) translate(2278.032586558045 341)" /></g><g id="sprotty_117" class="sprotty-edge" opacity="1"><path class="elkedge" d="M 1884,188.74017467248908 L 2259.929919137466,341" /><path class="edge arrow" d="M 0,0 L 8,-3 L 8,3 Z" transform="rotate(-157.95097782580274 2259.929919137466 341) translate(2259.929919137466 341)" /></g><g id="sprotty_118" class="sprotty-edge" opacity="1"><path class="elkedge" d="M 2234,481 L 2184,481" /><path class="edge arrow" d="M 0,0 L 8,-3 L 8,3 Z" transform="rotate(0 2184 481) translate(2184 481)" /></g><g id="sprotty_121" class="sprotty-edge" opacity="1"><path class="elkedge" d="M 2351.552742616034,451 L 2539.367088607595,130" /><path class="edge arrow" d="M 0,0 L 8,-3 L 8,3 Z" transform="rotate(120.33153644704221 2539.367088607595 130) translate(2539.367088607595 130)" /></g><g id="sprotty_124" class="sprotty-edge" opacity="1"><path class="elkedge" d="M 2184,158.53275109170306 L 2534,184.89737991266375" /><path class="edge arrow" d="M 0,0 L 8,-3 L 8,3 Z" transform="rotate(-175.69218709699993 2534 184.89737991266375) translate(2534 184.89737991266375)" /></g><g id="sprotty_127" class="sprotty-edge" opacity="1"><path class="elkedge" d="M 2184,257.61572052401743 L 2534,245.7707423580786" /><path class="edge arrow" d="M 0,0 L 8,-3 L 8,3 Z" transform="rotate(178.0616904718802 2534 245.7707423580786) translate(2534 245.7707423580786)" /></g><g id="sprotty_130" class="sprotty-edge" opacity="1"><path class="elkedge" d="M 2172.9320388349515,181 L 2534,302.8013100436681" /><path class="edge arrow" d="M 0,0 L 8,-3 L 8,3 Z" transform="rotate(-161.35888472155233 2534 302.8013100436681) translate(2534 302.8013100436681)" /></g><g id="sprotty_131" class="sprotty-edge" opacity="1"><path class="elkedge" d="M 1483.6363636363637,210.04545454545456 L 1717,210.04545454545456 L 1717,125.5 L 1868,125.5" /><path class="edge arrow" d="M 0,0 L 8,-3 L 8,3 Z" transform="rotate(180 1868 125.5) translate(1868 125.5)" /><g id="sprotty_131_j0" transform="translate(1717, 210.04545454545456)" opacity="1"><circle class="elkjunction" r="2" /></g><g id="sprotty_131_j1" transform="translate(1717, 125.5)" opacity="1"><circle class="elkjunction" r="2" /></g></g><g id="sprotty_134" class="sprotty-edge" opacity="1"><path class="elkedge" d="M 1667,360.04545454545456 L 1717,360.04545454545456 L 1717,125.5 L 1868,125.5" /><path class="edge arrow" d="M 0,0 L 8,-3 L 8,3 Z" transform="rotate(180 1868 125.5) translate(1868 125.5)" /></g><g id="sprotty_137" class="sprotty-edge" opacity="1"><path class="elkedge" d="M 0,125.5 L 1868,125.5" /><path class="edge arrow" d="M 0,0 L 8,-3 L 8,3 Z" transform="rotate(180 1868 125.5) translate(1868 125.5)" /></g><g id="sprotty_138" class="sprotty-edge" opacity="1"><path class="elkedge" d="M 1667,380.04545454545456 L 1767,380.04545454545456 L 1767,185.5 L 1868,185.5" /><path class="edge arrow" d="M 0,0 L 8,-3 L 8,3 Z" transform="rotate(180 1868 185.5) translate(1868 185.5)" /></g><g id="sprotty_141" class="sprotty-edge" opacity="1"><path class="elkedge" d="M 0,938.5363704536933 L 2651,1281.9636295463067" /><path class="edge arrow" d="M 0,0 L 8,-3 L 8,3 Z" transform="rotate(-172.61865205349807 2651 1281.9636295463067) translate(2651 1281.9636295463067)" /></g><g id="sprotty_144" class="sprotty-edge" opacity="1"><path class="elkedge" d="M 0,547.8922009748782 L 2651,1340.607799025122" /><path class="edge arrow" d="M 0,0 L 8,-3 L 8,3 Z" transform="rotate(-163.35201391206797 2651 1340.607799025122) translate(2651 1340.607799025122)" /></g><g id="sprotty_147" class="sprotty-edge" opacity="1"><path class="elkedge" d="M 2550,245.5 L 2651,245.5" /><path class="edge arrow" d="M 0,0 L 8,-3 L 8,3 Z" transform="rotate(180 2651 245.5) translate(2651 245.5)" /></g><g id="sprotty_150" class="sprotty-edge" opacity="1"><path class="elkedge" d="M 2550,305.5 L 2651,305.5" /><path class="edge arrow" d="M 0,0 L 8,-3 L 8,3 Z" transform="rotate(180 2651 305.5) translate(2651 305.5)" /></g></g></g></svg>
