<svg id="sprotty_1" class="sprotty-graph sprotty" tabindex="1002" xmlns="http://www.w3.org/2000/svg" viewBox="0 0 2218 1216.75"><style>
.elknode {
    stroke: #448;
    stroke-width: 2;
    fill: #ddf;
    fill-opacity: 0.5;
}

.elkport {
    stroke: #448;
    stroke-width: 1;
    fill: #66c;
}

.elkedge {
    fill: none;
    stroke: #88f;
    stroke-width: 8;
    stroke-opacity: 0.3;
    pointer-events: stroke;
    stroke-linejoin: round;
}

.elkedge:hover {
    stroke: #448;
    stroke-width: 8;
    stroke-opacity: 1;
    stroke-dasharray: 16px;
    stroke-dashoffset: 32px;
    animation: stroke 0.5s linear infinite;
}

@keyframes stroke {
    to {
        stroke-dashoffset: 0;
    }
}

.elkedge.arrow {
    fill: #336;
}

.elklabel {
    stroke-width: 0;
    stroke: #000;
    fill: #000;
    font-family: sans-serif;
    font-size: 10pt;
    dominant-baseline: hanging;
}

.elklabel:hover {
    font-size: 24pt;
}

.elkjunction {
    stroke: none;
    fill: #224;
}

.selected &gt; rect {
    stroke-width: 3;
}

.mouseover {
    stroke: #88f;
}
/*
 * Copyright (C) 2017 TypeFox and others.
 *
 * Licensed under the Apache License, Version 2.0 (the &quot;License&quot;); you may not use this file except in compliance with the License.
 * You may obtain a copy of the License at http://www.apache.org/licenses/LICENSE-2.0
 */

.sprotty {
    padding: 0px;
    font-family: &quot;Helvetica Neue&quot;, Helvetica, Arial, sans-serif;
}

.sprotty-hidden {
    display: block;
    position: absolute;
    width: 0px;
    height: 0px;
}

.sprotty-popup {
    font-family: &quot;Helvetica Neue&quot;, Helvetica, Arial, sans-serif;
    position: absolute;
    background: white;
    border-radius: 5px;
    border: 1px solid;
    max-width: 400px;
    min-width: 100px;
}

.sprotty-popup &gt; div {
    margin: 10px;
}

.sprotty-popup-closed {
    display: none;
}
</style><g transform="scale(1) translate(0,0)"><g id="sprotty_3" transform="translate(117, 71)" opacity="1"><rect class="elknode" x="0" y="0" rx="10" width="1984" height="1095.75" /><g id="sprotty_5" transform="translate(100, 150.25)" opacity="1"><rect class="elknode" x="0" y="0" rx="10" width="200" height="60" /><text id="sprotty_6" class="elklabel" transform="translate(5, 22) translate(0, 0)" opacity="1">local.labels</text></g><g id="sprotty_10" transform="translate(1050, 95.5)" opacity="1"><rect class="elknode" x="0" y="0" rx="10" width="200" height="60" /><text id="sprotty_11" class="elklabel" transform="translate(5, 22) translate(0, 0)" opacity="1">local.parameters</text></g><g id="sprotty_55" transform="translate(1467, 71)" opacity="1"><rect class="elknode" x="0" y="0" rx="10" width="400" height="710" /><g id="sprotty_57" transform="translate(100, 50)" opacity="1"><rect class="elknode" x="0" y="0" rx="10" width="200" height="60" /><text id="sprotty_58" class="elklabel" transform="translate(5, 22) translate(0, 0)" opacity="1">k8s_apps_v1_stateful_set.this</text></g><g id="sprotty_59" transform="translate(100, 160)" opacity="1"><rect class="elknode" x="0" y="0" rx="10" width="200" height="60" /><text id="sprotty_60" class="elklabel" transform="translate(5, 22) translate(0, 0)" opacity="1">local.k8s_apps_v1_stateful_set_parameters</text></g><g id="sprotty_62" transform="translate(100, 270)" opacity="1"><rect class="elknode" x="0" y="0" rx="10" width="200" height="60" /><text id="sprotty_63" class="elklabel" transform="translate(5, 22) translate(0, 0)" opacity="1">k8s_core_v1_service.this</text></g><g id="sprotty_64" transform="translate(100, 380)" opacity="1"><rect class="elknode" x="0" y="0" rx="10" width="200" height="60" /><text id="sprotty_65" class="elklabel" transform="translate(5, 22) translate(0, 0)" opacity="1">local.k8s_core_v1_service_parameters</text></g><g id="sprotty_67" transform="translate(100, 490)" opacity="1"><rect class="elknode" x="0" y="0" rx="10" width="200" height="60" /><text id="sprotty_68" class="elklabel" transform="translate(5, 22) translate(0, 0)" opacity="1">local.selector</text></g><g id="sprotty_70" transform="translate(100, 600)" opacity="1"><rect class="elknode" x="0" y="0" rx="10" width="200" height="60" /><text id="sprotty_71" class="elklabel" transform="translate(5, 22) translate(0, 0)" opacity="1">local.labels</text></g><g id="sprotty_73" transform="translate(-16, 50)" opacity="1"><rect class="elkport" x="0" y="0" width="16" height="9" /><text id="sprotty_74" class="elklabel" transform="translate(-1, 10) translate(0, 0)" opacity="1">parameters</text></g><g id="sprotty_77" transform="translate(400, 50)" opacity="1"><rect class="elkport" x="0" y="0" width="16" height="9" /><text id="sprotty_78" class="elklabel" transform="translate(17, 10) translate(0, 0)" opacity="1">labels</text></g><g id="sprotty_80" transform="translate(400, 110)" opacity="1"><rect class="elkport" x="0" y="0" width="16" height="9" /><text id="sprotty_81" class="elklabel" transform="translate(17, 10) translate(0, 0)" opacity="1">name</text></g><g id="sprotty_83" transform="translate(400, 170)" opacity="1"><rect class="elkport" x="0" y="0" width="16" height="9" /><text id="sprotty_84" class="elklabel" transform="translate(17, 10) translate(0, 0)" opacity="1">service</text></g><g id="sprotty_86" transform="translate(400, 230)" opacity="1"><rect class="elkport" x="0" y="0" width="16" height="9" /><text id="sprotty_87" class="elklabel" transform="translate(17, 10) translate(0, 0)" opacity="1">statefulset</text></g><text id="sprotty_56" class="elklabel" transform="translate(0, -21) translate(0, 0)" opacity="1">statefulset-service</text></g><g id="sprotty_7" transform="translate(-16, 175.75)" opacity="1"><rect class="elkport" x="0" y="0" width="16" height="9" /><text id="sprotty_8" class="elklabel" transform="translate(-1, 10) translate(0, 0)" opacity="1">name</text></g><g id="sprotty_13" transform="translate(-16, 255.75)" opacity="1"><rect class="elkport" x="0" y="0" width="16" height="9" /><text id="sprotty_14" class="elklabel" transform="translate(-1, 10) translate(0, 0)" opacity="1">EXTRA_OPTS</text></g><g id="sprotty_16" transform="translate(-16, 315.75)" opacity="1"><rect class="elkport" x="0" y="0" width="16" height="9" /><text id="sprotty_17" class="elklabel" transform="translate(-1, 10) translate(0, 0)" opacity="1">PF_pulsarFunctionsCluster</text></g><g id="sprotty_19" transform="translate(-16, 375.75)" opacity="1"><rect class="elkport" x="0" y="0" width="16" height="9" /><text id="sprotty_20" class="elklabel" transform="translate(-1, 10) translate(0, 0)" opacity="1">PULSAR_MEM</text></g><g id="sprotty_22" transform="translate(-16, 435.75)" opacity="1"><rect class="elkport" x="0" y="0" width="16" height="9" /><text id="sprotty_23" class="elklabel" transform="translate(-1, 10) translate(0, 0)" opacity="1">clusterName</text></g><g id="sprotty_25" transform="translate(-16, 495.75)" opacity="1"><rect class="elkport" x="0" y="0" width="16" height="9" /><text id="sprotty_26" class="elklabel" transform="translate(-1, 10) translate(0, 0)" opacity="1">configurationStoreServers</text></g><g id="sprotty_28" transform="translate(-16, 555.75)" opacity="1"><rect class="elkport" x="0" y="0" width="16" height="9" /><text id="sprotty_29" class="elklabel" transform="translate(-1, 10) translate(0, 0)" opacity="1">functionsWorkerEnabled</text></g><g id="sprotty_31" transform="translate(-16, 615.75)" opacity="1"><rect class="elkport" x="0" y="0" width="16" height="9" /><text id="sprotty_32" class="elklabel" transform="translate(-1, 10) translate(0, 0)" opacity="1">image</text></g><g id="sprotty_34" transform="translate(-16, 675.75)" opacity="1"><rect class="elkport" x="0" y="0" width="16" height="9" /><text id="sprotty_35" class="elklabel" transform="translate(-1, 10) translate(0, 0)" opacity="1">managedLedgerDefaultAckQuorum</text></g><g id="sprotty_37" transform="translate(-16, 735.75)" opacity="1"><rect class="elkport" x="0" y="0" width="16" height="9" /><text id="sprotty_38" class="elklabel" transform="translate(-1, 10) translate(0, 0)" opacity="1">managedLedgerDefaultEnsembleSize</text></g><g id="sprotty_40" transform="translate(-16, 795.75)" opacity="1"><rect class="elkport" x="0" y="0" width="16" height="9" /><text id="sprotty_41" class="elklabel" transform="translate(-1, 10) translate(0, 0)" opacity="1">managedLedgerDefaultWriteQuorum</text></g><g id="sprotty_43" transform="translate(-16, 855.75)" opacity="1"><rect class="elkport" x="0" y="0" width="16" height="9" /><text id="sprotty_44" class="elklabel" transform="translate(-1, 10) translate(0, 0)" opacity="1">namespace</text></g><g id="sprotty_46" transform="translate(-16, 915.75)" opacity="1"><rect class="elkport" x="0" y="0" width="16" height="9" /><text id="sprotty_47" class="elklabel" transform="translate(-1, 10) translate(0, 0)" opacity="1">ports</text></g><g id="sprotty_49" transform="translate(-16, 975.75)" opacity="1"><rect class="elkport" x="0" y="0" width="16" height="9" /><text id="sprotty_50" class="elklabel" transform="translate(-1, 10) translate(0, 0)" opacity="1">replicas</text></g><g id="sprotty_52" transform="translate(-16, 94.75)" opacity="1"><rect class="elkport" x="0" y="0" width="16" height="9" /><text id="sprotty_53" class="elklabel" transform="translate(-1, 10) translate(0, 0)" opacity="1">zookeeper</text></g><g id="sprotty_90" transform="translate(-16, 1035.75)" opacity="1"><rect class="elkport" x="0" y="0" width="16" height="9" /><text id="sprotty_91" class="elklabel" transform="translate(-1, 10) translate(0, 0)" opacity="1">overrides</text></g><g id="sprotty_93" transform="translate(1984, 181)" opacity="1"><rect class="elkport" x="0" y="0" width="16" height="9" /><text id="sprotty_94" class="elklabel" transform="translate(17, 10) translate(0, 0)" opacity="1">name</text></g><g id="sprotty_96" transform="translate(1984, 241)" opacity="1"><rect class="elkport" x="0" y="0" width="16" height="9" /><text id="sprotty_97" class="elklabel" transform="translate(17, 10) translate(0, 0)" opacity="1">service</text></g><g id="sprotty_99" transform="translate(1984, 301)" opacity="1"><rect class="elkport" x="0" y="0" width="16" height="9" /><text id="sprotty_100" class="elklabel" transform="translate(17, 10) translate(0, 0)" opacity="1">statefulset</text></g><text id="sprotty_4" class="elklabel" transform="translate(0, -21) translate(0, 0)" opacity="1">modules/pulsar/broker</text><g id="sprotty_9" class="sprotty-edge" opacity="1"><path class="elkedge" d="M 0,180.25 L 100,180.25" /><path class="edge arrow" d="M 0,0 L 8,-3 L 8,3 Z" transform="rotate(180 100 180.25) translate(100 180.25)" /></g><g id="sprotty_12" class="sprotty-edge" opacity="1"><path class="elkedge" d="M 300,180.25 L 350,180.25 L 350,103 L 1050,103" /><path class="edge arrow" d="M 0,0 L 8,-3 L 8,3 Z" transform="rotate(180 1050 103) translate(1050 103)" /></g><g id="sprotty_15" class="sprotty-edge" opacity="1"><path class="elkedge" d="M 0,260.25 L 400,260.25 L 400,106.75 L 1050,106.75" /><path class="edge arrow" d="M 0,0 L 8,-3 L 8,3 Z" transform="rotate(180 1050 106.75) translate(1050 106.75)" /></g><g id="sprotty_18" class="sprotty-edge" opacity="1"><path class="elkedge" d="M 0,320.25 L 450,320.25 L 450,110.5 L 1050,110.5" /><path class="edge arrow" d="M 0,0 L 8,-3 L 8,3 Z" transform="rotate(180 1050 110.5) translate(1050 110.5)" /></g><g id="sprotty_21" class="sprotty-edge" opacity="1"><path class="elkedge" d="M 0,380.25 L 500,380.25 L 500,114.25 L 1050,114.25" /><path class="edge arrow" d="M 0,0 L 8,-3 L 8,3 Z" transform="rotate(180 1050 114.25) translate(1050 114.25)" /></g><g id="sprotty_24" class="sprotty-edge" opacity="1"><path class="elkedge" d="M 0,440.25 L 550,440.25 L 550,118 L 1050,118" /><path class="edge arrow" d="M 0,0 L 8,-3 L 8,3 Z" transform="rotate(180 1050 118) translate(1050 118)" /></g><g id="sprotty_27" class="sprotty-edge" opacity="1"><path class="elkedge" d="M 0,500.25 L 600,500.25 L 600,121.75 L 1050,121.75" /><path class="edge arrow" d="M 0,0 L 8,-3 L 8,3 Z" transform="rotate(180 1050 121.75) translate(1050 121.75)" /></g><g id="sprotty_30" class="sprotty-edge" opacity="1"><path class="elkedge" d="M 0,560.25 L 650,560.25 L 650,125.5 L 1050,125.5" /><path class="edge arrow" d="M 0,0 L 8,-3 L 8,3 Z" transform="rotate(180 1050 125.5) translate(1050 125.5)" /></g><g id="sprotty_33" class="sprotty-edge" opacity="1"><path class="elkedge" d="M 0,620.25 L 700,620.25 L 700,129.25 L 1050,129.25" /><path class="edge arrow" d="M 0,0 L 8,-3 L 8,3 Z" transform="rotate(180 1050 129.25) translate(1050 129.25)" /></g><g id="sprotty_36" class="sprotty-edge" opacity="1"><path class="elkedge" d="M 0,680.25 L 750,680.25 L 750,133 L 1050,133" /><path class="edge arrow" d="M 0,0 L 8,-3 L 8,3 Z" transform="rotate(180 1050 133) translate(1050 133)" /></g><g id="sprotty_39" class="sprotty-edge" opacity="1"><path class="elkedge" d="M 0,740.25 L 800,740.25 L 800,136.75 L 1050,136.75" /><path class="edge arrow" d="M 0,0 L 8,-3 L 8,3 Z" transform="rotate(180 1050 136.75) translate(1050 136.75)" /></g><g id="sprotty_42" class="sprotty-edge" opacity="1"><path class="elkedge" d="M 0,800.25 L 850,800.25 L 850,140.5 L 1050,140.5" /><path class="edge arrow" d="M 0,0 L 8,-3 L 8,3 Z" transform="rotate(180 1050 140.5) translate(1050 140.5)" /></g><g id="sprotty_45" class="sprotty-edge" opacity="1"><path class="elkedge" d="M 0,860.25 L 900,860.25 L 900,144.25 L 1050,144.25" /><path class="edge arrow" d="M 0,0 L 8,-3 L 8,3 Z" transform="rotate(180 1050 144.25) translate(1050 144.25)" /></g><g id="sprotty_48" class="sprotty-edge" opacity="1"><path class="elkedge" d="M 0,920.25 L 950,920.25 L 950,148 L 1050,148" /><path class="edge arrow" d="M 0,0 L 8,-3 L 8,3 Z" transform="rotate(180 1050 148) translate(1050 148)" /></g><g id="sprotty_51" class="sprotty-edge" opacity="1"><path class="elkedge" d="M 0,980.25 L 1000,980.25 L 1000,151.75 L 1050,151.75" /><path class="edge arrow" d="M 0,0 L 8,-3 L 8,3 Z" transform="rotate(180 1050 151.75) translate(1050 151.75)" /></g><g id="sprotty_54" class="sprotty-edge" opacity="1"><path class="elkedge" d="M 0,99.25 L 1050,99.25" /><path class="edge arrow" d="M 0,0 L 8,-3 L 8,3 Z" transform="rotate(180 1050 99.25) translate(1050 99.25)" /></g><g id="sprotty_61" class="sprotty-edge" opacity="1"><path class="elkedge" d="M 1667,231 L 1667,181" /><path class="edge arrow" d="M 0,0 L 8,-3 L 8,3 Z" transform="rotate(90 1667 181) translate(1667 181)" /></g><g id="sprotty_66" class="sprotty-edge" opacity="1"><path class="elkedge" d="M 1667,451 L 1667,401" /><path class="edge arrow" d="M 0,0 L 8,-3 L 8,3 Z" transform="rotate(90 1667 401) translate(1667 401)" /></g><g id="sprotty_69" class="sprotty-edge" opacity="1"><path class="elkedge" d="M 1667,561 L 1667,291" /><path class="edge arrow" d="M 0,0 L 8,-3 L 8,3 Z" transform="rotate(90 1667 291) translate(1667 291)" /></g><g id="sprotty_72" class="sprotty-edge" opacity="1"><path class="elkedge" d="M 1667,671 L 1667,511" /><path class="edge arrow" d="M 0,0 L 8,-3 L 8,3 Z" transform="rotate(90 1667 511) translate(1667 511)" /></g><g id="sprotty_75" class="sprotty-edge" opacity="1"><path class="elkedge" d="M 1460.6264118158124,130 L 1656.1572545612512,671" /><path class="edge arrow" d="M 0,0 L 8,-3 L 8,3 Z" transform="rotate(-109.87111491399165 1656.1572545612512 671) translate(1656.1572545612512 671)" /></g><g id="sprotty_76" class="sprotty-edge" opacity="1"><path class="elkedge" d="M 1667,671 L 1667,621" /><path class="edge arrow" d="M 0,0 L 8,-3 L 8,3 Z" transform="rotate(90 1667 621) translate(1667 621)" /></g><g id="sprotty_79" class="sprotty-edge" opacity="1"><path class="elkedge" d="M 1677.8427454387488,671 L 1873.3735881841876,130" /><path class="edge arrow" d="M 0,0 L 8,-3 L 8,3 Z" transform="rotate(109.87111491399165 1873.3735881841876 130) translate(1873.3735881841876 130)" /></g><g id="sprotty_82" class="sprotty-edge" opacity="1"><path class="elkedge" d="M 1700.6388140161725,341 L 1869.954177897574,190" /><path class="edge arrow" d="M 0,0 L 8,-3 L 8,3 Z" transform="rotate(138.27256122803203 1869.954177897574 190) translate(1869.954177897574 190)" /></g><g id="sprotty_85" class="sprotty-edge" opacity="1"><path class="elkedge" d="M 1716.7211155378486,341 L 1867.5418326693227,250" /><path class="edge arrow" d="M 0,0 L 8,-3 L 8,3 Z" transform="rotate(148.89467282183267 1867.5418326693227 250) translate(1867.5418326693227 250)" /></g><g id="sprotty_88" class="sprotty-edge" opacity="1"><path class="elkedge" d="M 1707.388349514563,181 L 1868.9417475728155,301" /><path class="edge arrow" d="M 0,0 L 8,-3 L 8,3 Z" transform="rotate(-143.39546107211748 1868.9417475728155 301) translate(1868.9417475728155 301)" /></g><g id="sprotty_89" class="sprotty-edge" opacity="1"><path class="elkedge" d="M 1250,125.5 L 1451,125.5" /><path class="edge arrow" d="M 0,0 L 8,-3 L 8,3 Z" transform="rotate(180 1451 125.5) translate(1451 125.5)" /></g><g id="sprotty_92" class="sprotty-edge" opacity="1"><path class="elkedge" d="M 0,1040.25 L 1300,1040.25 L 1300,125.5 L 1451,125.5" /><path class="edge arrow" d="M 0,0 L 8,-3 L 8,3 Z" transform="rotate(180 1451 125.5) translate(1451 125.5)" /><g id="sprotty_92_j0" transform="translate(1300, 125.5)" opacity="1"><circle class="elkjunction" r="2" /></g></g><g id="sprotty_95" class="sprotty-edge" opacity="1"><path class="elkedge" d="M 1883,185.5 L 1984,185.5" /><path class="edge arrow" d="M 0,0 L 8,-3 L 8,3 Z" transform="rotate(180 1984 185.5) translate(1984 185.5)" /></g><g id="sprotty_98" class="sprotty-edge" opacity="1"><path class="elkedge" d="M 1883,245.5 L 1984,245.5" /><path class="edge arrow" d="M 0,0 L 8,-3 L 8,3 Z" transform="rotate(180 1984 245.5) translate(1984 245.5)" /></g><g id="sprotty_101" class="sprotty-edge" opacity="1"><path class="elkedge" d="M 1883,305.5 L 1984,305.5" /><path class="edge arrow" d="M 0,0 L 8,-3 L 8,3 Z" transform="rotate(180 1984 305.5) translate(1984 305.5)" /></g></g></g></svg>
