<svg id="sprotty_1" class="sprotty-graph sprotty" tabindex="1002" xmlns="http://www.w3.org/2000/svg" viewBox="0 0 3102 1749.4545454545455"><style>
.elknode {
    stroke: #448;
    stroke-width: 2;
    fill: #ddf;
    fill-opacity: 0.5;
}

.elkport {
    stroke: #448;
    stroke-width: 1;
    fill: #66c;
}

.elkedge {
    fill: none;
    stroke: #88f;
    stroke-width: 8;
    stroke-opacity: 0.3;
    pointer-events: stroke;
    stroke-linejoin: round;
}

.elkedge:hover {
    stroke: #448;
    stroke-width: 8;
    stroke-opacity: 1;
    stroke-dasharray: 16px;
    stroke-dashoffset: 32px;
    animation: stroke 0.5s linear infinite;
}

@keyframes stroke {
    to {
        stroke-dashoffset: 0;
    }
}

.elkedge.arrow {
    fill: #336;
}

.elklabel {
    stroke-width: 0;
    stroke: #000;
    fill: #000;
    font-family: sans-serif;
    font-size: 10pt;
    dominant-baseline: hanging;
}

.elklabel:hover {
    font-size: 24pt;
}

.elkjunction {
    stroke: none;
    fill: #224;
}

.selected &gt; rect {
    stroke-width: 3;
}

.mouseover {
    stroke: #88f;
}
/*
 * Copyright (C) 2017 TypeFox and others.
 *
 * Licensed under the Apache License, Version 2.0 (the &quot;License&quot;); you may not use this file except in compliance with the License.
 * You may obtain a copy of the License at http://www.apache.org/licenses/LICENSE-2.0
 */

.sprotty {
    padding: 0px;
    font-family: &quot;Helvetica Neue&quot;, Helvetica, Arial, sans-serif;
}

.sprotty-hidden {
    display: block;
    position: absolute;
    width: 0px;
    height: 0px;
}

.sprotty-popup {
    font-family: &quot;Helvetica Neue&quot;, Helvetica, Arial, sans-serif;
    position: absolute;
    background: white;
    border-radius: 5px;
    border: 1px solid;
    max-width: 400px;
    min-width: 100px;
}

.sprotty-popup &gt; div {
    margin: 10px;
}

.sprotty-popup-closed {
    display: none;
}
</style><g transform="scale(1) translate(0,0)"><g id="sprotty_3" transform="translate(117, 71)" opacity="1"><rect class="elknode" x="0" y="0" rx="10" width="2868" height="1628.4545454545455" /><g id="sprotty_5" transform="translate(267, 982.9545454545455)" opacity="1"><rect class="elknode" x="0" y="0" rx="10" width="200" height="60" /><text id="sprotty_6" class="elklabel" transform="translate(5, 22) translate(0, 0)" opacity="1">k8s_admissionregistration_k8s_io_v1_mutating_webhook_configuration.this</text></g><g id="sprotty_16" transform="translate(1684, 95.5)" opacity="1"><rect class="elknode" x="0" y="0" rx="10" width="200" height="60" /><text id="sprotty_17" class="elklabel" transform="translate(5, 22) translate(0, 0)" opacity="1">local.parameters</text></g><g id="sprotty_18" transform="translate(267, 172.95454545454544)" opacity="1"><rect class="elknode" x="0" y="0" rx="10" width="900" height="710" /><g id="sprotty_97" transform="translate(100, 50)" opacity="1"><rect class="elknode" x="0" y="0" rx="10" width="200" height="60" /><text id="sprotty_98" class="elklabel" transform="translate(5, 22) translate(0, 0)" opacity="1">k8s_core_v1_service_account.this</text></g><g id="sprotty_99" transform="translate(350, 50)" opacity="1"><rect class="elknode" x="0" y="0" rx="10" width="200" height="60" /><text id="sprotty_100" class="elklabel" transform="translate(5, 22) translate(0, 0)" opacity="1">local.k8s_core_v1_service_account_parameters</text></g><g id="sprotty_102" transform="translate(600, 50)" opacity="1"><rect class="elknode" x="0" y="0" rx="10" width="200" height="60" /><text id="sprotty_103" class="elklabel" transform="translate(5, 22) translate(0, 0)" opacity="1">k8s_rbac_authorization_k8s_io_v1_cluster_role.this</text></g><g id="sprotty_104" transform="translate(100, 160)" opacity="1"><rect class="elknode" x="0" y="0" rx="10" width="200" height="60" /><text id="sprotty_105" class="elklabel" transform="translate(5, 22) translate(0, 0)" opacity="1">local.k8s_rbac_authorization_k8s_io_v1_cluster_role_parameters</text></g><g id="sprotty_107" transform="translate(350, 160)" opacity="1"><rect class="elknode" x="0" y="0" rx="10" width="200" height="60" /><text id="sprotty_108" class="elklabel" transform="translate(5, 22) translate(0, 0)" opacity="1">k8s_rbac_authorization_k8s_io_v1_cluster_role_binding.this</text></g><g id="sprotty_109" transform="translate(600, 160)" opacity="1"><rect class="elknode" x="0" y="0" rx="10" width="200" height="60" /><text id="sprotty_110" class="elklabel" transform="translate(5, 22) translate(0, 0)" opacity="1">local.k8s_rbac_authorization_k8s_io_v1_cluster_role_binding_parameters</text></g><g id="sprotty_115" transform="translate(100, 270)" opacity="1"><rect class="elknode" x="0" y="0" rx="10" width="200" height="60" /><text id="sprotty_116" class="elklabel" transform="translate(5, 22) translate(0, 0)" opacity="1">k8s_rbac_authorization_k8s_io_v1_role.this</text></g><g id="sprotty_117" transform="translate(350, 270)" opacity="1"><rect class="elknode" x="0" y="0" rx="10" width="200" height="60" /><text id="sprotty_118" class="elklabel" transform="translate(5, 22) translate(0, 0)" opacity="1">local.k8s_rbac_authorization_k8s_io_v1_role_parameters</text></g><g id="sprotty_120" transform="translate(600, 270)" opacity="1"><rect class="elknode" x="0" y="0" rx="10" width="200" height="60" /><text id="sprotty_121" class="elklabel" transform="translate(5, 22) translate(0, 0)" opacity="1">k8s_rbac_authorization_k8s_io_v1_role_binding.this</text></g><g id="sprotty_122" transform="translate(100, 380)" opacity="1"><rect class="elknode" x="0" y="0" rx="10" width="200" height="60" /><text id="sprotty_123" class="elklabel" transform="translate(5, 22) translate(0, 0)" opacity="1">local.k8s_rbac_authorization_k8s_io_v1_role_binding_parameters</text></g><g id="sprotty_128" transform="translate(350, 380)" opacity="1"><rect class="elknode" x="0" y="0" rx="10" width="200" height="60" /><text id="sprotty_129" class="elklabel" transform="translate(5, 22) translate(0, 0)" opacity="1">local.cluster_role_parameters</text></g><g id="sprotty_136" transform="translate(600, 380)" opacity="1"><rect class="elknode" x="0" y="0" rx="10" width="200" height="60" /><text id="sprotty_137" class="elklabel" transform="translate(5, 22) translate(0, 0)" opacity="1">local.cluster_role_ref</text></g><g id="sprotty_139" transform="translate(100, 490)" opacity="1"><rect class="elknode" x="0" y="0" rx="10" width="200" height="60" /><text id="sprotty_140" class="elklabel" transform="translate(5, 22) translate(0, 0)" opacity="1">local.cluster_role_rules</text></g><g id="sprotty_142" transform="translate(350, 490)" opacity="1"><rect class="elknode" x="0" y="0" rx="10" width="200" height="60" /><text id="sprotty_143" class="elklabel" transform="translate(5, 22) translate(0, 0)" opacity="1">local.parameters</text></g><g id="sprotty_149" transform="translate(600, 490)" opacity="1"><rect class="elknode" x="0" y="0" rx="10" width="200" height="60" /><text id="sprotty_150" class="elklabel" transform="translate(5, 22) translate(0, 0)" opacity="1">local.subjects</text></g><g id="sprotty_155" transform="translate(100, 600)" opacity="1"><rect class="elknode" x="0" y="0" rx="10" width="200" height="60" /><text id="sprotty_156" class="elklabel" transform="translate(5, 22) translate(0, 0)" opacity="1">local.role_ref</text></g><g id="sprotty_160" transform="translate(350, 600)" opacity="1"><rect class="elknode" x="0" y="0" rx="10" width="200" height="60" /><text id="sprotty_161" class="elklabel" transform="translate(5, 22) translate(0, 0)" opacity="1">local.role_rules</text></g><g id="sprotty_164" transform="translate(600, 600)" opacity="1"><rect class="elknode" x="0" y="0" rx="10" width="200" height="60" /><text id="sprotty_165" class="elklabel" transform="translate(5, 22) translate(0, 0)" opacity="1">local.labels</text></g><g id="sprotty_20" transform="translate(900, 50)" opacity="1"><rect class="elkport" x="0" y="0" width="16" height="9" /><text id="sprotty_21" class="elklabel" transform="translate(17, -1) translate(0, 0)" opacity="1">name</text></g><g id="sprotty_112" transform="translate(-16, 50)" opacity="1"><rect class="elkport" x="0" y="0" width="16" height="9" /><text id="sprotty_113" class="elklabel" transform="translate(-1, 10) translate(0, 0)" opacity="1">cluster_role_rules</text></g><g id="sprotty_125" transform="translate(-16, 110)" opacity="1"><rect class="elkport" x="0" y="0" width="16" height="9" /><text id="sprotty_126" class="elklabel" transform="translate(-1, 10) translate(0, 0)" opacity="1">role_rules</text></g><g id="sprotty_130" transform="translate(-16, 170)" opacity="1"><rect class="elkport" x="0" y="0" width="16" height="9" /><text id="sprotty_131" class="elklabel" transform="translate(-1, 10) translate(0, 0)" opacity="1">name</text></g><g id="sprotty_133" transform="translate(-16, 230)" opacity="1"><rect class="elkport" x="0" y="0" width="16" height="9" /><text id="sprotty_134" class="elklabel" transform="translate(-1, 10) translate(0, 0)" opacity="1">namespace</text></g><g id="sprotty_145" transform="translate(-16, 290)" opacity="1"><rect class="elkport" x="0" y="0" width="16" height="9" /><text id="sprotty_146" class="elklabel" transform="translate(-1, 10) translate(0, 0)" opacity="1">overrides</text></g><g id="sprotty_173" transform="translate(900, 110)" opacity="1"><rect class="elkport" x="0" y="0" width="16" height="9" /><text id="sprotty_174" class="elklabel" transform="translate(17, 10) translate(0, 0)" opacity="1">service_account</text></g><text id="sprotty_19" class="elklabel" transform="translate(0, -21) translate(0, 0)" opacity="1">rbac</text></g><g id="sprotty_48" transform="translate(2101, 71)" opacity="1"><rect class="elknode" x="0" y="0" rx="10" width="650" height="490" /><g id="sprotty_50" transform="translate(100, 50)" opacity="1"><rect class="elknode" x="0" y="0" rx="10" width="200" height="60" /><text id="sprotty_51" class="elklabel" transform="translate(5, 22) translate(0, 0)" opacity="1">k8s_apps_v1_deployment.this</text></g><g id="sprotty_52" transform="translate(350, 50)" opacity="1"><rect class="elknode" x="0" y="0" rx="10" width="200" height="60" /><text id="sprotty_53" class="elklabel" transform="translate(5, 22) translate(0, 0)" opacity="1">local.k8s_apps_v1_deployment_parameters</text></g><g id="sprotty_55" transform="translate(100, 160)" opacity="1"><rect class="elknode" x="0" y="0" rx="10" width="200" height="60" /><text id="sprotty_56" class="elklabel" transform="translate(5, 22) translate(0, 0)" opacity="1">k8s_core_v1_service.this</text></g><g id="sprotty_57" transform="translate(350, 160)" opacity="1"><rect class="elknode" x="0" y="0" rx="10" width="200" height="60" /><text id="sprotty_58" class="elklabel" transform="translate(5, 22) translate(0, 0)" opacity="1">local.enable_service</text></g><g id="sprotty_60" transform="translate(100, 270)" opacity="1"><rect class="elknode" x="0" y="0" rx="10" width="200" height="60" /><text id="sprotty_61" class="elklabel" transform="translate(5, 22) translate(0, 0)" opacity="1">local.k8s_core_v1_service_parameters</text></g><g id="sprotty_66" transform="translate(350, 270)" opacity="1"><rect class="elknode" x="0" y="0" rx="10" width="200" height="60" /><text id="sprotty_67" class="elklabel" transform="translate(5, 22) translate(0, 0)" opacity="1">local.podAnnotations</text></g><g id="sprotty_69" transform="translate(100, 380)" opacity="1"><rect class="elknode" x="0" y="0" rx="10" width="200" height="60" /><text id="sprotty_70" class="elklabel" transform="translate(5, 22) translate(0, 0)" opacity="1">local.selector</text></g><g id="sprotty_72" transform="translate(350, 380)" opacity="1"><rect class="elknode" x="0" y="0" rx="10" width="200" height="60" /><text id="sprotty_73" class="elklabel" transform="translate(5, 22) translate(0, 0)" opacity="1">local.labels</text></g><g id="sprotty_63" transform="translate(-16, 50)" opacity="1"><rect class="elkport" x="0" y="0" width="16" height="9" /><text id="sprotty_64" class="elklabel" transform="translate(-1, -1) translate(0, 0)" opacity="1">parameters</text></g><g id="sprotty_77" transform="translate(-16, 110)" opacity="1"><rect class="elkport" x="0" y="0" width="16" height="9" /><text id="sprotty_78" class="elklabel" transform="translate(-1, 10) translate(0, 0)" opacity="1">podAnnotations</text></g><g id="sprotty_81" transform="translate(650, 50)" opacity="1"><rect class="elkport" x="0" y="0" width="16" height="9" /><text id="sprotty_82" class="elklabel" transform="translate(17, 10) translate(0, 0)" opacity="1">deployment</text></g><g id="sprotty_84" transform="translate(650, 110)" opacity="1"><rect class="elkport" x="0" y="0" width="16" height="9" /><text id="sprotty_85" class="elklabel" transform="translate(17, 10) translate(0, 0)" opacity="1">labels</text></g><g id="sprotty_87" transform="translate(650, 170)" opacity="1"><rect class="elkport" x="0" y="0" width="16" height="9" /><text id="sprotty_88" class="elklabel" transform="translate(17, 10) translate(0, 0)" opacity="1">name</text></g><g id="sprotty_90" transform="translate(650, 230)" opacity="1"><rect class="elkport" x="0" y="0" width="16" height="9" /><text id="sprotty_91" class="elklabel" transform="translate(17, 10) translate(0, 0)" opacity="1">service</text></g><text id="sprotty_49" class="elklabel" transform="translate(0, -21) translate(0, 0)" opacity="1">deployment-service</text></g><g id="sprotty_7" transform="translate(-16, 342.95454545454544)" opacity="1"><rect class="elkport" x="0" y="0" width="16" height="9" /><text id="sprotty_8" class="elklabel" transform="translate(-1, 10) translate(0, 0)" opacity="1">name</text></g><g id="sprotty_10" transform="translate(-16, 1008.4545454545455)" opacity="1"><rect class="elkport" x="0" y="0" width="16" height="9" /><text id="sprotty_11" class="elklabel" transform="translate(-1, 10) translate(0, 0)" opacity="1">namespace</text></g><g id="sprotty_13" transform="translate(-16, 1088.4545454545455)" opacity="1"><rect class="elkport" x="0" y="0" width="16" height="9" /><text id="sprotty_14" class="elklabel" transform="translate(-1, 10) translate(0, 0)" opacity="1">ports</text></g><g id="sprotty_23" transform="translate(-16, 1148.4545454545455)" opacity="1"><rect class="elkport" x="0" y="0" width="16" height="9" /><text id="sprotty_24" class="elklabel" transform="translate(-1, 10) translate(0, 0)" opacity="1">AGENT_INJECT_LOG_LEVEL</text></g><g id="sprotty_26" transform="translate(-16, 1208.4545454545455)" opacity="1"><rect class="elkport" x="0" y="0" width="16" height="9" /><text id="sprotty_27" class="elklabel" transform="translate(-1, 10) translate(0, 0)" opacity="1">AGENT_INJECT_VAULT_ADDR</text></g><g id="sprotty_29" transform="translate(-16, 1268.4545454545455)" opacity="1"><rect class="elkport" x="0" y="0" width="16" height="9" /><text id="sprotty_30" class="elklabel" transform="translate(-1, 10) translate(0, 0)" opacity="1">AGENT_INJECT_VAULT_IMAGE</text></g><g id="sprotty_32" transform="translate(-16, 1328.4545454545455)" opacity="1"><rect class="elkport" x="0" y="0" width="16" height="9" /><text id="sprotty_33" class="elklabel" transform="translate(-1, 10) translate(0, 0)" opacity="1">annotations</text></g><g id="sprotty_35" transform="translate(-16, 1388.4545454545455)" opacity="1"><rect class="elkport" x="0" y="0" width="16" height="9" /><text id="sprotty_36" class="elklabel" transform="translate(-1, 10) translate(0, 0)" opacity="1">env</text></g><g id="sprotty_38" transform="translate(-16, 1448.4545454545455)" opacity="1"><rect class="elkport" x="0" y="0" width="16" height="9" /><text id="sprotty_39" class="elklabel" transform="translate(-1, 10) translate(0, 0)" opacity="1">image</text></g><g id="sprotty_41" transform="translate(-16, 1508.4545454545455)" opacity="1"><rect class="elkport" x="0" y="0" width="16" height="9" /><text id="sprotty_42" class="elklabel" transform="translate(-1, 10) translate(0, 0)" opacity="1">image_leader_election</text></g><g id="sprotty_45" transform="translate(-16, 96.45454545454544)" opacity="1"><rect class="elkport" x="0" y="0" width="16" height="9" /><text id="sprotty_46" class="elklabel" transform="translate(-1, 10) translate(0, 0)" opacity="1">replicas</text></g><g id="sprotty_94" transform="translate(-16, 1568.4545454545455)" opacity="1"><rect class="elkport" x="0" y="0" width="16" height="9" /><text id="sprotty_95" class="elklabel" transform="translate(-1, 10) translate(0, 0)" opacity="1">overrides</text></g><g id="sprotty_178" transform="translate(2868, 121)" opacity="1"><rect class="elkport" x="0" y="0" width="16" height="9" /><text id="sprotty_179" class="elklabel" transform="translate(17, 10) translate(0, 0)" opacity="1">deployment</text></g><g id="sprotty_181" transform="translate(2868, 241)" opacity="1"><rect class="elkport" x="0" y="0" width="16" height="9" /><text id="sprotty_182" class="elklabel" transform="translate(17, 10) translate(0, 0)" opacity="1">name</text></g><g id="sprotty_184" transform="translate(2868, 301)" opacity="1"><rect class="elkport" x="0" y="0" width="16" height="9" /><text id="sprotty_185" class="elklabel" transform="translate(17, 10) translate(0, 0)" opacity="1">service</text></g><text id="sprotty_4" class="elklabel" transform="translate(0, -21) translate(0, 0)" opacity="1">modules/vault-k8s</text><g id="sprotty_9" class="sprotty-edge" opacity="1"><path class="elkedge" d="M 0,347.45454545454544 L 200,347.45454545454544 L 200,997.9545454545455 L 267,997.9545454545455" /><path class="edge arrow" d="M 0,0 L 8,-3 L 8,3 Z" transform="rotate(180 267 997.9545454545455) translate(267 997.9545454545455)" /><g id="sprotty_9_j0" transform="translate(200, 347.45454545454544)" opacity="1"><circle class="elkjunction" r="2" /></g></g><g id="sprotty_12" class="sprotty-edge" opacity="1"><path class="elkedge" d="M 0,1012.9545454545455 L 267,1012.9545454545455" /><path class="edge arrow" d="M 0,0 L 8,-3 L 8,3 Z" transform="rotate(180 267 1012.9545454545455) translate(267 1012.9545454545455)" /></g><g id="sprotty_15" class="sprotty-edge" opacity="1"><path class="elkedge" d="M 0,1092.9545454545455 L 150,1092.9545454545455 L 150,1027.9545454545455 L 267,1027.9545454545455" /><path class="edge arrow" d="M 0,0 L 8,-3 L 8,3 Z" transform="rotate(180 267 1027.9545454545455) translate(267 1027.9545454545455)" /><g id="sprotty_15_j0" transform="translate(150, 1092.9545454545455)" opacity="1"><circle class="elkjunction" r="2" /></g></g><g id="sprotty_22" class="sprotty-edge" opacity="1"><path class="elkedge" d="M 1183,227.45454545454544 L 1234,227.45454545454544 L 1234,106.4090909090909 L 1684,106.4090909090909" /><path class="edge arrow" d="M 0,0 L 8,-3 L 8,3 Z" transform="rotate(180 1684 106.4090909090909) translate(1684 106.4090909090909)" /></g><g id="sprotty_25" class="sprotty-edge" opacity="1"><path class="elkedge" d="M 0,1152.9545454545455 L 1334,1152.9545454545455 L 1334,117.31818181818181 L 1684,117.31818181818181" /><path class="edge arrow" d="M 0,0 L 8,-3 L 8,3 Z" transform="rotate(180 1684 117.31818181818181) translate(1684 117.31818181818181)" /></g><g id="sprotty_28" class="sprotty-edge" opacity="1"><path class="elkedge" d="M 0,1212.9545454545455 L 1384,1212.9545454545455 L 1384,122.77272727272727 L 1684,122.77272727272727" /><path class="edge arrow" d="M 0,0 L 8,-3 L 8,3 Z" transform="rotate(180 1684 122.77272727272727) translate(1684 122.77272727272727)" /></g><g id="sprotty_31" class="sprotty-edge" opacity="1"><path class="elkedge" d="M 0,1272.9545454545455 L 1434,1272.9545454545455 L 1434,128.22727272727272 L 1684,128.22727272727272" /><path class="edge arrow" d="M 0,0 L 8,-3 L 8,3 Z" transform="rotate(180 1684 128.22727272727272) translate(1684 128.22727272727272)" /></g><g id="sprotty_34" class="sprotty-edge" opacity="1"><path class="elkedge" d="M 0,1332.9545454545455 L 1484,1332.9545454545455 L 1484,133.6818181818182 L 1684,133.6818181818182" /><path class="edge arrow" d="M 0,0 L 8,-3 L 8,3 Z" transform="rotate(180 1684 133.6818181818182) translate(1684 133.6818181818182)" /></g><g id="sprotty_37" class="sprotty-edge" opacity="1"><path class="elkedge" d="M 0,1392.9545454545455 L 1534,1392.9545454545455 L 1534,139.13636363636363 L 1684,139.13636363636363" /><path class="edge arrow" d="M 0,0 L 8,-3 L 8,3 Z" transform="rotate(180 1684 139.13636363636363) translate(1684 139.13636363636363)" /></g><g id="sprotty_40" class="sprotty-edge" opacity="1"><path class="elkedge" d="M 0,1452.9545454545455 L 1584,1452.9545454545455 L 1584,144.59090909090907 L 1684,144.59090909090907" /><path class="edge arrow" d="M 0,0 L 8,-3 L 8,3 Z" transform="rotate(180 1684 144.59090909090907) translate(1684 144.59090909090907)" /></g><g id="sprotty_43" class="sprotty-edge" opacity="1"><path class="elkedge" d="M 0,1512.9545454545455 L 1634,1512.9545454545455 L 1634,150.04545454545453 L 1684,150.04545454545453" /><path class="edge arrow" d="M 0,0 L 8,-3 L 8,3 Z" transform="rotate(180 1684 150.04545454545453) translate(1684 150.04545454545453)" /></g><g id="sprotty_44" class="sprotty-edge" opacity="1"><path class="elkedge" d="M 0,1092.9545454545455 L 1284,1092.9545454545455 L 1284,111.86363636363636 L 1684,111.86363636363636" /><path class="edge arrow" d="M 0,0 L 8,-3 L 8,3 Z" transform="rotate(180 1684 111.86363636363636) translate(1684 111.86363636363636)" /></g><g id="sprotty_47" class="sprotty-edge" opacity="1"><path class="elkedge" d="M 0,100.95454545454544 L 1684,100.95454545454545" /><path class="edge arrow" d="M 0,0 L 8,-3 L 8,3 Z" transform="rotate(-180 1684 100.95454545454545) translate(1684 100.95454545454545)" /></g><g id="sprotty_54" class="sprotty-edge" opacity="1"><path class="elkedge" d="M 2451,151 L 2401,151" /><path class="edge arrow" d="M 0,0 L 8,-3 L 8,3 Z" transform="rotate(0 2401 151) translate(2401 151)" /></g><g id="sprotty_59" class="sprotty-edge" opacity="1"><path class="elkedge" d="M 2451,261 L 2401,261" /><path class="edge arrow" d="M 0,0 L 8,-3 L 8,3 Z" transform="rotate(0 2401 261) translate(2401 261)" /></g><g id="sprotty_62" class="sprotty-edge" opacity="1"><path class="elkedge" d="M 2301,341 L 2301,291" /><path class="edge arrow" d="M 0,0 L 8,-3 L 8,3 Z" transform="rotate(90 2301 291) translate(2301 291)" /></g><g id="sprotty_65" class="sprotty-edge" opacity="1"><path class="elkedge" d="M 2101,127.86681222707423 L 2451,231.41484716157206" /><path class="edge arrow" d="M 0,0 L 8,-3 L 8,3 Z" transform="rotate(-163.5190681178552 2451 231.41484716157206) translate(2451 231.41484716157206)" /></g><g id="sprotty_68" class="sprotty-edge" opacity="1"><path class="elkedge" d="M 2551,341 L 2551,181" /><path class="edge arrow" d="M 0,0 L 8,-3 L 8,3 Z" transform="rotate(90 2551 181) translate(2551 181)" /></g><g id="sprotty_71" class="sprotty-edge" opacity="1"><path class="elkedge" d="M 2323.7272727272725,451 L 2528.272727272727,181" /><path class="edge arrow" d="M 0,0 L 8,-3 L 8,3 Z" transform="rotate(127.14668669802178 2528.272727272727 181) translate(2528.272727272727 181)" /></g><g id="sprotty_74" class="sprotty-edge" opacity="1"><path class="elkedge" d="M 2482.818181818182,451 L 2369.181818181818,401" /><path class="edge arrow" d="M 0,0 L 8,-3 L 8,3 Z" transform="rotate(23.749494492866702 2369.181818181818 401) translate(2369.181818181818 401)" /></g><g id="sprotty_75" class="sprotty-edge" opacity="1"><path class="elkedge" d="M 2098.7974683544303,130 L 2512.350210970464,451" /><path class="edge arrow" d="M 0,0 L 8,-3 L 8,3 Z" transform="rotate(-142.18135436369792 2512.350210970464 451) translate(2512.350210970464 451)" /></g><g id="sprotty_76" class="sprotty-edge" opacity="1"><path class="elkedge" d="M 2101,129.7882096069869 L 2495.032586558045,341" /><path class="edge arrow" d="M 0,0 L 8,-3 L 8,3 Z" transform="rotate(-151.80752547398862 2495.032586558045 341) translate(2495.032586558045 341)" /></g><g id="sprotty_79" class="sprotty-edge" opacity="1"><path class="elkedge" d="M 2101,188.74017467248908 L 2476.929919137466,341" /><path class="edge arrow" d="M 0,0 L 8,-3 L 8,3 Z" transform="rotate(-157.95097782580274 2476.929919137466 341) translate(2476.929919137466 341)" /></g><g id="sprotty_80" class="sprotty-edge" opacity="1"><path class="elkedge" d="M 2451,481 L 2401,481" /><path class="edge arrow" d="M 0,0 L 8,-3 L 8,3 Z" transform="rotate(0 2401 481) translate(2401 481)" /></g><g id="sprotty_83" class="sprotty-edge" opacity="1"><path class="elkedge" d="M 2401,145.43231441048033 L 2751,125.94541484716157" /><path class="edge arrow" d="M 0,0 L 8,-3 L 8,3 Z" transform="rotate(176.81324131380964 2751 125.94541484716157) translate(2751 125.94541484716157)" /></g><g id="sprotty_86" class="sprotty-edge" opacity="1"><path class="elkedge" d="M 2572.1167512690354,451 L 2755.8324873096444,190" /><path class="edge arrow" d="M 0,0 L 8,-3 L 8,3 Z" transform="rotate(125.14139675071024 2755.8324873096444 190) translate(2755.8324873096444 190)" /></g><g id="sprotty_89" class="sprotty-edge" opacity="1"><path class="elkedge" d="M 2401,171.63318777292577 L 2751,243.84934497816593" /><path class="edge arrow" d="M 0,0 L 8,-3 L 8,3 Z" transform="rotate(-168.34165965728076 2751 243.84934497816593) translate(2751 243.84934497816593)" /></g><g id="sprotty_92" class="sprotty-edge" opacity="1"><path class="elkedge" d="M 2401,270.71615720524017 L 2751,304.7227074235808" /><path class="edge arrow" d="M 0,0 L 8,-3 L 8,3 Z" transform="rotate(-174.45047144714007 2751 304.7227074235808) translate(2751 304.7227074235808)" /></g><g id="sprotty_93" class="sprotty-edge" opacity="1"><path class="elkedge" d="M 1884,125.5 L 2085,125.5" /><path class="edge arrow" d="M 0,0 L 8,-3 L 8,3 Z" transform="rotate(180 2085 125.5) translate(2085 125.5)" /></g><g id="sprotty_96" class="sprotty-edge" opacity="1"><path class="elkedge" d="M 0,1572.9545454545455 L 1934,1572.9545454545455 L 1934,125.5 L 2085,125.5" /><path class="edge arrow" d="M 0,0 L 8,-3 L 8,3 Z" transform="rotate(180 2085 125.5) translate(2085 125.5)" /><g id="sprotty_96_j0" transform="translate(1934, 125.5)" opacity="1"><circle class="elkjunction" r="2" /></g></g><g id="sprotty_101" class="sprotty-edge" opacity="1"><path class="elkedge" d="M 617,252.95454545454544 L 567,252.95454545454544" /><path class="edge arrow" d="M 0,0 L 8,-3 L 8,3 Z" transform="rotate(0 567 252.95454545454544) translate(567 252.95454545454544)" /></g><g id="sprotty_106" class="sprotty-edge" opacity="1"><path class="elkedge" d="M 567,340.95454545454544 L 867,274.95454545454544" /><path class="edge arrow" d="M 0,0 L 8,-3 L 8,3 Z" transform="rotate(167.59258147259925 867 274.95454545454544) translate(867 274.95454545454544)" /></g><g id="sprotty_111" class="sprotty-edge" opacity="1"><path class="elkedge" d="M 867,362.95454545454544 L 817,362.95454545454544" /><path class="edge arrow" d="M 0,0 L 8,-3 L 8,3 Z" transform="rotate(0 817 362.95454545454544) translate(817 362.95454545454544)" /></g><g id="sprotty_114" class="sprotty-edge" opacity="1"><path class="elkedge" d="M 267,229.82135768161967 L 617,333.36939261611747" /><path class="edge arrow" d="M 0,0 L 8,-3 L 8,3 Z" transform="rotate(-163.5190681178552 617 333.36939261611747) translate(617 333.36939261611747)" /></g><g id="sprotty_119" class="sprotty-edge" opacity="1"><path class="elkedge" d="M 617,472.95454545454544 L 567,472.95454545454544" /><path class="edge arrow" d="M 0,0 L 8,-3 L 8,3 Z" transform="rotate(0 567 472.95454545454544) translate(567 472.95454545454544)" /></g><g id="sprotty_124" class="sprotty-edge" opacity="1"><path class="elkedge" d="M 567,560.9545454545455 L 867,494.95454545454544" /><path class="edge arrow" d="M 0,0 L 8,-3 L 8,3 Z" transform="rotate(167.59258147259925 867 494.95454545454544) translate(867 494.95454545454544)" /></g><g id="sprotty_127" class="sprotty-edge" opacity="1"><path class="elkedge" d="M 267,289.55059065228556 L 867,446.753980482794" /><path class="edge arrow" d="M 0,0 L 8,-3 L 8,3 Z" transform="rotate(-165.31819760293897 867 446.753980482794) translate(867 446.753980482794)" /></g><g id="sprotty_132" class="sprotty-edge" opacity="1"><path class="elkedge" d="M 267,351.5680825724494 L 658.656050955414,552.9545454545455" /><path class="edge arrow" d="M 0,0 L 8,-3 L 8,3 Z" transform="rotate(-152.78812859608504 658.656050955414 552.9545454545455) translate(658.656050955414 552.9545454545455)" /></g><g id="sprotty_135" class="sprotty-edge" opacity="1"><path class="elkedge" d="M 267,410.52004763795156 L 638.7094017094017,552.9545454545455" /><path class="edge arrow" d="M 0,0 L 8,-3 L 8,3 Z" transform="rotate(-159.03377842411956 638.7094017094017 552.9545454545455) translate(638.7094017094017 552.9545454545455)" /></g><g id="sprotty_138" class="sprotty-edge" opacity="1"><path class="elkedge" d="M 817,582.9545454545455 L 867,582.9545454545455" /><path class="edge arrow" d="M 0,0 L 8,-3 L 8,3 Z" transform="rotate(180 867 582.9545454545455) translate(867 582.9545454545455)" /></g><g id="sprotty_141" class="sprotty-edge" opacity="1"><path class="elkedge" d="M 261.01074113856066,231.95454545454544 L 453.5950590762621,662.9545454545455" /><path class="edge arrow" d="M 0,0 L 8,-3 L 8,3 Z" transform="rotate(-114.0765897487924 453.5950590762621 662.9545454545455) translate(453.5950590762621 662.9545454545455)" /></g><g id="sprotty_144" class="sprotty-edge" opacity="1"><path class="elkedge" d="M 717,662.9545454545455 L 717,282.95454545454544" /><path class="edge arrow" d="M 0,0 L 8,-3 L 8,3 Z" transform="rotate(90 717 282.95454545454544) translate(717 282.95454545454544)" /></g><g id="sprotty_147" class="sprotty-edge" opacity="1"><path class="elkedge" d="M 267,463.70782056371576 L 652.9440559440559,282.95454545454544" /><path class="edge arrow" d="M 0,0 L 8,-3 L 8,3 Z" transform="rotate(154.90439887692173 652.9440559440559 282.95454545454544) translate(652.9440559440559 282.95454545454544)" /></g><g id="sprotty_148" class="sprotty-edge" opacity="1"><path class="elkedge" d="M 967,552.9545454545455 L 967,392.95454545454544" /><path class="edge arrow" d="M 0,0 L 8,-3 L 8,3 Z" transform="rotate(90 967 392.95454545454544) translate(967 392.95454545454544)" /></g><g id="sprotty_151" class="sprotty-edge" opacity="1"><path class="elkedge" d="M 967,662.9545454545455 L 967,392.95454545454544" /><path class="edge arrow" d="M 0,0 L 8,-3 L 8,3 Z" transform="rotate(90 967 392.95454545454544) translate(967 392.95454545454544)" /></g><g id="sprotty_152" class="sprotty-edge" opacity="1"><path class="elkedge" d="M 682.909090909091,552.9545454545455 L 501.0909090909091,392.95454545454544" /><path class="edge arrow" d="M 0,0 L 8,-3 L 8,3 Z" transform="rotate(41.34777721969367 501.0909090909091 392.95454545454544) translate(501.0909090909091 392.95454545454544)" /></g><g id="sprotty_153" class="sprotty-edge" opacity="1"><path class="elkedge" d="M 467,662.9545454545455 L 467,392.95454545454544" /><path class="edge arrow" d="M 0,0 L 8,-3 L 8,3 Z" transform="rotate(90 467 392.95454545454544) translate(467 392.95454545454544)" /></g><g id="sprotty_154" class="sprotty-edge" opacity="1"><path class="elkedge" d="M 267,463.43531468531467 L 407.2870813397129,392.95454545454544" /><path class="edge arrow" d="M 0,0 L 8,-3 L 8,3 Z" transform="rotate(153.32487061155223 407.2870813397129 392.95454545454544) translate(407.2870813397129 392.95454545454544)" /></g><g id="sprotty_157" class="sprotty-edge" opacity="1"><path class="elkedge" d="M 467,772.9545454545455 L 467,612.9545454545455" /><path class="edge arrow" d="M 0,0 L 8,-3 L 8,3 Z" transform="rotate(90 467 612.9545454545455) translate(467 612.9545454545455)" /></g><g id="sprotty_158" class="sprotty-edge" opacity="1"><path class="elkedge" d="M 867,670.9545454545455 L 567,604.9545454545455" /><path class="edge arrow" d="M 0,0 L 8,-3 L 8,3 Z" transform="rotate(12.407418527400743 567 604.9545454545455) translate(567 604.9545454545455)" /></g><g id="sprotty_159" class="sprotty-edge" opacity="1"><path class="elkedge" d="M 717,662.9545454545455 L 717,502.95454545454544" /><path class="edge arrow" d="M 0,0 L 8,-3 L 8,3 Z" transform="rotate(90 717 502.95454545454544) translate(717 502.95454545454544)" /></g><g id="sprotty_162" class="sprotty-edge" opacity="1"><path class="elkedge" d="M 717,772.9545454545455 L 717,502.95454545454544" /><path class="edge arrow" d="M 0,0 L 8,-3 L 8,3 Z" transform="rotate(90 717 502.95454545454544) translate(717 502.95454545454544)" /></g><g id="sprotty_163" class="sprotty-edge" opacity="1"><path class="elkedge" d="M 267,467.5506153235411 L 617,471.75367209210003" /><path class="edge arrow" d="M 0,0 L 8,-3 L 8,3 Z" transform="rotate(-179.3119833176395 617 471.75367209210003) translate(617 471.75367209210003)" /></g><g id="sprotty_166" class="sprotty-edge" opacity="1"><path class="elkedge" d="M 265.9945115257958,351.95454545454544 L 920.3699231613612,772.9545454545455" /><path class="edge arrow" d="M 0,0 L 8,-3 L 8,3 Z" transform="rotate(-147.24432774527776 920.3699231613612 772.9545454545455) translate(920.3699231613612 772.9545454545455)" /></g><g id="sprotty_167" class="sprotty-edge" opacity="1"><path class="elkedge" d="M 898.8181818181819,772.9545454545455 L 785.1818181818181,722.9545454545455" /><path class="edge arrow" d="M 0,0 L 8,-3 L 8,3 Z" transform="rotate(23.74949449286674 785.1818181818181 722.9545454545455) translate(785.1818181818181 722.9545454545455)" /></g><g id="sprotty_168" class="sprotty-edge" opacity="1"><path class="elkedge" d="M 266.2189141856392,411.95454545454544 L 668.8739054290718,662.9545454545455" /><path class="edge arrow" d="M 0,0 L 8,-3 L 8,3 Z" transform="rotate(-148.0621360923082 668.8739054290718 662.9545454545455) translate(668.8739054290718 662.9545454545455)" /></g><g id="sprotty_169" class="sprotty-edge" opacity="1"><path class="elkedge" d="M 261.05488474204174,351.95454545454544 L 453.3007683863886,772.9545454545455" /><path class="edge arrow" d="M 0,0 L 8,-3 L 8,3 Z" transform="rotate(-114.54338541936511 453.3007683863886 772.9545454545455) translate(453.3007683863886 772.9545454545455)" /></g><g id="sprotty_170" class="sprotty-edge" opacity="1"><path class="elkedge" d="M 262.99806013579047,291.95454545454544 L 690.3462657613967,772.9545454545455" /><path class="edge arrow" d="M 0,0 L 8,-3 L 8,3 Z" transform="rotate(-131.61973894434882 690.3462657613967 772.9545454545455) translate(690.3462657613967 772.9545454545455)" /></g><g id="sprotty_171" class="sprotty-edge" opacity="1"><path class="elkedge" d="M 501.0909090909091,282.95454545454544 L 932.9090909090909,662.9545454545455" /><path class="edge arrow" d="M 0,0 L 8,-3 L 8,3 Z" transform="rotate(-138.65222278030632 932.9090909090909 662.9545454545455) translate(932.9090909090909 662.9545454545455)" /></g><g id="sprotty_172" class="sprotty-edge" opacity="1"><path class="elkedge" d="M 567,249.35285053929118 L 1167,227.74268104776579" /><path class="edge arrow" d="M 0,0 L 8,-3 L 8,3 Z" transform="rotate(177.9372724518615 1167 227.74268104776579) translate(1167 227.74268104776579)" /></g><g id="sprotty_175" class="sprotty-edge" opacity="1"><path class="elkedge" d="M 567,257.8274268104776 L 1167,287.06471494607086" /><path class="edge arrow" d="M 0,0 L 8,-3 L 8,3 Z" transform="rotate(-177.21025132948532 1167 287.06471494607086) translate(1167 287.06471494607086)" /></g><g id="sprotty_176" class="sprotty-edge" opacity="1"><path class="elkedge" d="M 0,347.45454545454544 L 251,347.45454545454544" /><path class="edge arrow" d="M 0,0 L 8,-3 L 8,3 Z" transform="rotate(180 251 347.45454545454544) translate(251 347.45454545454544)" /></g><g id="sprotty_177" class="sprotty-edge" opacity="1"><path class="elkedge" d="M 0,1012.9545454545455 L 150,1012.9545454545455 L 150,407.45454545454544 L 251,407.45454545454544" /><path class="edge arrow" d="M 0,0 L 8,-3 L 8,3 Z" transform="rotate(180 251 407.45454545454544) translate(251 407.45454545454544)" /><g id="sprotty_177_j0" transform="translate(150, 1012.9545454545455)" opacity="1"><circle class="elkjunction" r="2" /></g></g><g id="sprotty_180" class="sprotty-edge" opacity="1"><path class="elkedge" d="M 2767,125.5 L 2868,125.5" /><path class="edge arrow" d="M 0,0 L 8,-3 L 8,3 Z" transform="rotate(180 2868 125.5) translate(2868 125.5)" /></g><g id="sprotty_183" class="sprotty-edge" opacity="1"><path class="elkedge" d="M 2767,245.5 L 2868,245.5" /><path class="edge arrow" d="M 0,0 L 8,-3 L 8,3 Z" transform="rotate(180 2868 245.5) translate(2868 245.5)" /></g><g id="sprotty_186" class="sprotty-edge" opacity="1"><path class="elkedge" d="M 2767,305.5 L 2868,305.5" /><path class="edge arrow" d="M 0,0 L 8,-3 L 8,3 Z" transform="rotate(180 2868 305.5) translate(2868 305.5)" /></g></g></g></svg>
