<svg id="sprotty_1" class="sprotty-graph sprotty" tabindex="1002" xmlns="http://www.w3.org/2000/svg" viewBox="0 0 2635 1233"><style>
.elknode {
    stroke: #448;
    stroke-width: 2;
    fill: #ddf;
    fill-opacity: 0.5;
}

.elkport {
    stroke: #448;
    stroke-width: 1;
    fill: #66c;
}

.elkedge {
    fill: none;
    stroke: #88f;
    stroke-width: 8;
    stroke-opacity: 0.3;
    pointer-events: stroke;
    stroke-linejoin: round;
}

.elkedge:hover {
    stroke: #448;
    stroke-width: 8;
    stroke-opacity: 1;
    stroke-dasharray: 16px;
    stroke-dashoffset: 32px;
    animation: stroke 0.5s linear infinite;
}

@keyframes stroke {
    to {
        stroke-dashoffset: 0;
    }
}

.elkedge.arrow {
    fill: #336;
}

.elklabel {
    stroke-width: 0;
    stroke: #000;
    fill: #000;
    font-family: sans-serif;
    font-size: 10pt;
    dominant-baseline: hanging;
}

.elklabel:hover {
    font-size: 24pt;
}

.elkjunction {
    stroke: none;
    fill: #224;
}

.selected &gt; rect {
    stroke-width: 3;
}

.mouseover {
    stroke: #88f;
}
/*
 * Copyright (C) 2017 TypeFox and others.
 *
 * Licensed under the Apache License, Version 2.0 (the &quot;License&quot;); you may not use this file except in compliance with the License.
 * You may obtain a copy of the License at http://www.apache.org/licenses/LICENSE-2.0
 */

.sprotty {
    padding: 0px;
    font-family: &quot;Helvetica Neue&quot;, Helvetica, Arial, sans-serif;
}

.sprotty-hidden {
    display: block;
    position: absolute;
    width: 0px;
    height: 0px;
}

.sprotty-popup {
    font-family: &quot;Helvetica Neue&quot;, Helvetica, Arial, sans-serif;
    position: absolute;
    background: white;
    border-radius: 5px;
    border: 1px solid;
    max-width: 400px;
    min-width: 100px;
}

.sprotty-popup &gt; div {
    margin: 10px;
}

.sprotty-popup-closed {
    display: none;
}
</style><g transform="scale(1) translate(0,0)"><g id="sprotty_3" transform="translate(117, 71)" opacity="1"><rect class="elknode" x="0" y="0" rx="10" width="2418" height="1112" /><g id="sprotty_5" transform="translate(1359, 1002)" opacity="1"><rect class="elknode" x="0" y="0" rx="10" width="200" height="60" /><text id="sprotty_6" class="elklabel" transform="translate(5, 22) translate(0, 0)" opacity="1">data.k8s_core_v1_secret.this</text></g><g id="sprotty_7" transform="translate(600, 992)" opacity="1"><rect class="elknode" x="0" y="0" rx="10" width="200" height="60" /><text id="sprotty_8" class="elklabel" transform="translate(5, 22) translate(0, 0)" opacity="1">k8s_cert_manager_io_v1alpha2_certificate.this</text></g><g id="sprotty_10" transform="translate(2118, 105.5)" opacity="1"><rect class="elknode" x="0" y="0" rx="10" width="200" height="60" /><text id="sprotty_11" class="elklabel" transform="translate(5, 22) translate(0, 0)" opacity="1">k8s_admissionregistration_k8s_io_v1_mutating_webhook_configuration.this</text></g><g id="sprotty_13" transform="translate(1017, 71)" opacity="1"><rect class="elknode" x="0" y="0" rx="10" width="884" height="831" /><g id="sprotty_37" transform="translate(100, 50)" opacity="1"><rect class="elknode" x="0" y="0" rx="10" width="200" height="60" /><text id="sprotty_38" class="elklabel" transform="translate(5, 22) translate(0, 0)" opacity="1">local.parameters</text></g><g id="sprotty_66" transform="translate(367, 71)" opacity="1"><rect class="elknode" x="0" y="0" rx="10" width="400" height="710" /><g id="sprotty_68" transform="translate(100, 50)" opacity="1"><rect class="elknode" x="0" y="0" rx="10" width="200" height="60" /><text id="sprotty_69" class="elklabel" transform="translate(5, 22) translate(0, 0)" opacity="1">k8s_apps_v1_deployment.this</text></g><g id="sprotty_70" transform="translate(100, 160)" opacity="1"><rect class="elknode" x="0" y="0" rx="10" width="200" height="60" /><text id="sprotty_71" class="elklabel" transform="translate(5, 22) translate(0, 0)" opacity="1">local.k8s_apps_v1_deployment_parameters</text></g><g id="sprotty_73" transform="translate(100, 270)" opacity="1"><rect class="elknode" x="0" y="0" rx="10" width="200" height="60" /><text id="sprotty_74" class="elklabel" transform="translate(5, 22) translate(0, 0)" opacity="1">k8s_core_v1_service.this</text></g><g id="sprotty_75" transform="translate(100, 380)" opacity="1"><rect class="elknode" x="0" y="0" rx="10" width="200" height="60" /><text id="sprotty_76" class="elklabel" transform="translate(5, 22) translate(0, 0)" opacity="1">local.k8s_core_v1_service_parameters</text></g><g id="sprotty_81" transform="translate(100, 490)" opacity="1"><rect class="elknode" x="0" y="0" rx="10" width="200" height="60" /><text id="sprotty_82" class="elklabel" transform="translate(5, 22) translate(0, 0)" opacity="1">local.selector</text></g><g id="sprotty_84" transform="translate(100, 600)" opacity="1"><rect class="elknode" x="0" y="0" rx="10" width="200" height="60" /><text id="sprotty_85" class="elklabel" transform="translate(5, 22) translate(0, 0)" opacity="1">local.labels</text></g><g id="sprotty_78" transform="translate(-16, 50)" opacity="1"><rect class="elkport" x="0" y="0" width="16" height="9" /><text id="sprotty_79" class="elklabel" transform="translate(-1, -1) translate(0, 0)" opacity="1">enable_service</text></g><g id="sprotty_87" transform="translate(-16, 110)" opacity="1"><rect class="elkport" x="0" y="0" width="16" height="9" /><text id="sprotty_88" class="elklabel" transform="translate(-1, 10) translate(0, 0)" opacity="1">parameters</text></g><g id="sprotty_91" transform="translate(400, 50)" opacity="1"><rect class="elkport" x="0" y="0" width="16" height="9" /><text id="sprotty_92" class="elklabel" transform="translate(17, 10) translate(0, 0)" opacity="1">deployment</text></g><g id="sprotty_94" transform="translate(400, 110)" opacity="1"><rect class="elkport" x="0" y="0" width="16" height="9" /><text id="sprotty_95" class="elklabel" transform="translate(17, 10) translate(0, 0)" opacity="1">labels</text></g><g id="sprotty_97" transform="translate(400, 170)" opacity="1"><rect class="elkport" x="0" y="0" width="16" height="9" /><text id="sprotty_98" class="elklabel" transform="translate(17, 10) translate(0, 0)" opacity="1">name</text></g><g id="sprotty_100" transform="translate(400, 230)" opacity="1"><rect class="elkport" x="0" y="0" width="16" height="9" /><text id="sprotty_101" class="elklabel" transform="translate(17, 10) translate(0, 0)" opacity="1">service</text></g><text id="sprotty_67" class="elklabel" transform="translate(0, -21) translate(0, 0)" opacity="1">deployment-service</text></g><g id="sprotty_15" transform="translate(884, 50)" opacity="1"><rect class="elkport" x="0" y="0" width="16" height="9" /><text id="sprotty_16" class="elklabel" transform="translate(17, 10) translate(0, 0)" opacity="1">name</text></g><g id="sprotty_39" transform="translate(-16, 50)" opacity="1"><rect class="elkport" x="0" y="0" width="16" height="9" /><text id="sprotty_40" class="elklabel" transform="translate(-1, 10) translate(0, 0)" opacity="1">annotations</text></g><g id="sprotty_42" transform="translate(-16, 110)" opacity="1"><rect class="elkport" x="0" y="0" width="16" height="9" /><text id="sprotty_43" class="elklabel" transform="translate(-1, 10) translate(0, 0)" opacity="1">env</text></g><g id="sprotty_45" transform="translate(-16, 170)" opacity="1"><rect class="elkport" x="0" y="0" width="16" height="9" /><text id="sprotty_46" class="elklabel" transform="translate(-1, 10) translate(0, 0)" opacity="1">image</text></g><g id="sprotty_48" transform="translate(-16, 230)" opacity="1"><rect class="elkport" x="0" y="0" width="16" height="9" /><text id="sprotty_49" class="elklabel" transform="translate(-1, 10) translate(0, 0)" opacity="1">name</text></g><g id="sprotty_51" transform="translate(-16, 290)" opacity="1"><rect class="elkport" x="0" y="0" width="16" height="9" /><text id="sprotty_52" class="elklabel" transform="translate(-1, 10) translate(0, 0)" opacity="1">namespace</text></g><g id="sprotty_54" transform="translate(-16, 350)" opacity="1"><rect class="elkport" x="0" y="0" width="16" height="9" /><text id="sprotty_55" class="elklabel" transform="translate(-1, 10) translate(0, 0)" opacity="1">policies_config_map</text></g><g id="sprotty_57" transform="translate(-16, 410)" opacity="1"><rect class="elkport" x="0" y="0" width="16" height="9" /><text id="sprotty_58" class="elklabel" transform="translate(-1, 10) translate(0, 0)" opacity="1">ports</text></g><g id="sprotty_60" transform="translate(-16, 470)" opacity="1"><rect class="elkport" x="0" y="0" width="16" height="9" /><text id="sprotty_61" class="elklabel" transform="translate(-1, 10) translate(0, 0)" opacity="1">replicas</text></g><g id="sprotty_63" transform="translate(-16, 530)" opacity="1"><rect class="elkport" x="0" y="0" width="16" height="9" /><text id="sprotty_64" class="elklabel" transform="translate(-1, 10) translate(0, 0)" opacity="1">secret_name</text></g><g id="sprotty_104" transform="translate(-16, 590)" opacity="1"><rect class="elkport" x="0" y="0" width="16" height="9" /><text id="sprotty_105" class="elklabel" transform="translate(-1, 10) translate(0, 0)" opacity="1">overrides</text></g><g id="sprotty_107" transform="translate(884, 110)" opacity="1"><rect class="elkport" x="0" y="0" width="16" height="9" /><text id="sprotty_108" class="elklabel" transform="translate(17, 10) translate(0, 0)" opacity="1">deployment</text></g><g id="sprotty_111" transform="translate(884, 170)" opacity="1"><rect class="elkport" x="0" y="0" width="16" height="9" /><text id="sprotty_112" class="elklabel" transform="translate(17, 10) translate(0, 0)" opacity="1">service</text></g><text id="sprotty_14" class="elklabel" transform="translate(0, -21) translate(0, 0)" opacity="1">opa</text></g><g id="sprotty_18" transform="translate(200, 551.5)" opacity="1"><rect class="elknode" x="0" y="0" rx="10" width="200" height="60" /><text id="sprotty_19" class="elklabel" transform="translate(5, 22) translate(0, 0)" opacity="1">k8s_core_v1_namespace.this</text></g><g id="sprotty_24" transform="translate(600, 395.5)" opacity="1"><rect class="elknode" x="0" y="0" rx="10" width="200" height="60" /><text id="sprotty_25" class="elklabel" transform="translate(5, 22) translate(0, 0)" opacity="1">k8s_core_v1_config_map.this</text></g><g id="sprotty_26" transform="translate(200, 379.5)" opacity="1"><rect class="elknode" x="0" y="0" rx="10" width="200" height="60" /><text id="sprotty_27" class="elklabel" transform="translate(5, 22) translate(0, 0)" opacity="1">data.template_file.policy-main</text></g><g id="sprotty_29" transform="translate(200, 105.5)" opacity="1"><rect class="elknode" x="0" y="0" rx="10" width="200" height="60" /><text id="sprotty_30" class="elklabel" transform="translate(5, 22) translate(0, 0)" opacity="1">data.template_file.policy-mutating</text></g><g id="sprotty_21" transform="translate(-16, 50)" opacity="1"><rect class="elkport" x="0" y="0" width="16" height="9" /><text id="sprotty_22" class="elklabel" transform="translate(-1, -1) translate(0, 0)" opacity="1">name</text></g><g id="sprotty_33" transform="translate(-16, 496)" opacity="1"><rect class="elkport" x="0" y="0" width="16" height="9" /><text id="sprotty_34" class="elklabel" transform="translate(-1, 10) translate(0, 0)" opacity="1">namespace</text></g><text id="sprotty_4" class="elklabel" transform="translate(0, -21) translate(0, 0)" opacity="1">examples/opa</text><g id="sprotty_9" class="sprotty-edge" opacity="1"><path class="elkedge" d="M 800,1032 L 1359,1032" /><path class="edge arrow" d="M 0,0 L 8,-3 L 8,3 Z" transform="rotate(180 1359 1032) translate(1359 1032)" /></g><g id="sprotty_12" class="sprotty-edge" opacity="1"><path class="elkedge" d="M 1559,1032 L 1968,1032 L 1968,145.5 L 2118,145.5" /><path class="edge arrow" d="M 0,0 L 8,-3 L 8,3 Z" transform="rotate(180 2118 145.5) translate(2118 145.5)" /></g><g id="sprotty_17" class="sprotty-edge" opacity="1"><path class="elkedge" d="M 1917,125.5 L 2118,125.5" /><path class="edge arrow" d="M 0,0 L 8,-3 L 8,3 Z" transform="rotate(180 2118 125.5) translate(2118 125.5)" /></g><g id="sprotty_20" class="sprotty-edge" opacity="1"><path class="elkedge" d="M 400,591.5 L 450,591.5 L 450,1032 L 600,1032" /><path class="edge arrow" d="M 0,0 L 8,-3 L 8,3 Z" transform="rotate(180 600 1032) translate(600 1032)" /></g><g id="sprotty_23" class="sprotty-edge" opacity="1"><path class="elkedge" d="M 0,54.5 L 150,54.5 L 150,489.5 L 500,489.5 L 500,1012 L 600,1012" /><path class="edge arrow" d="M 0,0 L 8,-3 L 8,3 Z" transform="rotate(180 600 1012) translate(600 1012)" /><g id="sprotty_23_j0" transform="translate(150, 54.5)" opacity="1"><circle class="elkjunction" r="2" /></g></g><g id="sprotty_28" class="sprotty-edge" opacity="1"><path class="elkedge" d="M 400,419.5 L 600,419.5" /><path class="edge arrow" d="M 0,0 L 8,-3 L 8,3 Z" transform="rotate(180 600 419.5) translate(600 419.5)" /></g><g id="sprotty_31" class="sprotty-edge" opacity="1"><path class="elkedge" d="M 400,145.5 L 500,145.5 L 500,407.5 L 600,407.5" /><path class="edge arrow" d="M 0,0 L 8,-3 L 8,3 Z" transform="rotate(180 600 407.5) translate(600 407.5)" /></g><g id="sprotty_32" class="sprotty-edge" opacity="1"><path class="elkedge" d="M 0,54.5 L 150,54.5 L 150,489.5 L 500,489.5 L 500,431.5 L 600,431.5" /><path class="edge arrow" d="M 0,0 L 8,-3 L 8,3 Z" transform="rotate(180 600 431.5) translate(600 431.5)" /><g id="sprotty_32_j0" transform="translate(500, 489.5)" opacity="1"><circle class="elkjunction" r="2" /></g></g><g id="sprotty_35" class="sprotty-edge" opacity="1"><path class="elkedge" d="M 0,500.5 L 550,500.5 L 550,443.5 L 600,443.5" /><path class="edge arrow" d="M 0,0 L 8,-3 L 8,3 Z" transform="rotate(180 600 443.5) translate(600 443.5)" /></g><g id="sprotty_36" class="sprotty-edge" opacity="1"><path class="elkedge" d="M 0,500.5 L 150,500.5 L 150,581.5 L 200,581.5" /><path class="edge arrow" d="M 0,0 L 8,-3 L 8,3 Z" transform="rotate(180 200 581.5) translate(200 581.5)" /><g id="sprotty_36_j0" transform="translate(150, 500.5)" opacity="1"><circle class="elkjunction" r="2" /></g></g><g id="sprotty_41" class="sprotty-edge" opacity="1"><path class="elkedge" d="M 1017,126.48076923076923 L 1117,138.7403846153846" /><path class="edge arrow" d="M 0,0 L 8,-3 L 8,3 Z" transform="rotate(-173.01063484366153 1117 138.7403846153846) translate(1117 138.7403846153846)" /></g><g id="sprotty_44" class="sprotty-edge" opacity="1"><path class="elkedge" d="M 1017,184.1730769230769 L 1117,167.58653846153845" /><path class="edge arrow" d="M 0,0 L 8,-3 L 8,3 Z" transform="rotate(170.58235285466571 1117 167.58653846153845) translate(1117 167.58653846153845)" /></g><g id="sprotty_47" class="sprotty-edge" opacity="1"><path class="elkedge" d="M 1017,241.8653846153846 L 1150.968253968254,181" /><path class="edge arrow" d="M 0,0 L 8,-3 L 8,3 Z" transform="rotate(155.5664230096372 1150.968253968254 181) translate(1150.968253968254 181)" /></g><g id="sprotty_50" class="sprotty-edge" opacity="1"><path class="elkedge" d="M 1015.0582524271845,301 L 1176.611650485437,181" /><path class="edge arrow" d="M 0,0 L 8,-3 L 8,3 Z" transform="rotate(143.39546107211748 1176.611650485437 181) translate(1176.611650485437 181)" /></g><g id="sprotty_53" class="sprotty-edge" opacity="1"><path class="elkedge" d="M 1013.3636363636364,361 L 1187.909090909091,181" /><path class="edge arrow" d="M 0,0 L 8,-3 L 8,3 Z" transform="rotate(134.11859600341788 1187.909090909091 181) translate(1187.909090909091 181)" /></g><g id="sprotty_56" class="sprotty-edge" opacity="1"><path class="elkedge" d="M 1012.4098360655738,421 L 1194.2677595628415,181" /><path class="edge arrow" d="M 0,0 L 8,-3 L 8,3 Z" transform="rotate(127.1527142373108 1194.2677595628415 181) translate(1194.2677595628415 181)" /></g><g id="sprotty_59" class="sprotty-edge" opacity="1"><path class="elkedge" d="M 1011.7982062780269,481 L 1198.3452914798206,181" /><path class="edge arrow" d="M 0,0 L 8,-3 L 8,3 Z" transform="rotate(121.8743247375575 1198.3452914798206 181) translate(1198.3452914798206 181)" /></g><g id="sprotty_62" class="sprotty-edge" opacity="1"><path class="elkedge" d="M 1011.3726235741445,541 L 1201.1825095057034,181" /><path class="edge arrow" d="M 0,0 L 8,-3 L 8,3 Z" transform="rotate(117.80042566034113 1201.1825095057034 181) translate(1201.1825095057034 181)" /></g><g id="sprotty_65" class="sprotty-edge" opacity="1"><path class="elkedge" d="M 1011.059405940594,601 L 1203.2706270627064,181" /><path class="edge arrow" d="M 0,0 L 8,-3 L 8,3 Z" transform="rotate(114.59100050152601 1203.2706270627064 181) translate(1203.2706270627064 181)" /></g><g id="sprotty_72" class="sprotty-edge" opacity="1"><path class="elkedge" d="M 1584,302 L 1584,252" /><path class="edge arrow" d="M 0,0 L 8,-3 L 8,3 Z" transform="rotate(90 1584 252) translate(1584 252)" /></g><g id="sprotty_77" class="sprotty-edge" opacity="1"><path class="elkedge" d="M 1584,522 L 1584,472" /><path class="edge arrow" d="M 0,0 L 8,-3 L 8,3 Z" transform="rotate(90 1584 472) translate(1584 472)" /></g><g id="sprotty_80" class="sprotty-edge" opacity="1"><path class="elkedge" d="M 1379.8126272912423,201 L 1558.582484725051,412" /><path class="edge arrow" d="M 0,0 L 8,-3 L 8,3 Z" transform="rotate(-130.27295566323377 1558.582484725051 412) translate(1558.582484725051 412)" /></g><g id="sprotty_83" class="sprotty-edge" opacity="1"><path class="elkedge" d="M 1584,632 L 1584,362" /><path class="edge arrow" d="M 0,0 L 8,-3 L 8,3 Z" transform="rotate(90 1584 362) translate(1584 362)" /></g><g id="sprotty_86" class="sprotty-edge" opacity="1"><path class="elkedge" d="M 1584,742 L 1584,582" /><path class="edge arrow" d="M 0,0 L 8,-3 L 8,3 Z" transform="rotate(90 1584 582) translate(1584 582)" /></g><g id="sprotty_89" class="sprotty-edge" opacity="1"><path class="elkedge" d="M 1377.815712900097,261 L 1571.8952473326867,742" /><path class="edge arrow" d="M 0,0 L 8,-3 L 8,3 Z" transform="rotate(-111.9736695371 1571.8952473326867 742) translate(1571.8952473326867 742)" /></g><g id="sprotty_90" class="sprotty-edge" opacity="1"><path class="elkedge" d="M 1584,742 L 1584,692" /><path class="edge arrow" d="M 0,0 L 8,-3 L 8,3 Z" transform="rotate(90 1584 692) translate(1584 692)" /></g><g id="sprotty_93" class="sprotty-edge" opacity="1"><path class="elkedge" d="M 1684,209.7403846153846 L 1784,197.48076923076923" /><path class="edge arrow" d="M 0,0 L 8,-3 L 8,3 Z" transform="rotate(173.01063484366153 1784 197.48076923076923) translate(1784 197.48076923076923)" /></g><g id="sprotty_96" class="sprotty-edge" opacity="1"><path class="elkedge" d="M 1596.1047526673133,742 L 1790.184287099903,261" /><path class="edge arrow" d="M 0,0 L 8,-3 L 8,3 Z" transform="rotate(111.9736695371 1790.184287099903 261) translate(1790.184287099903 261)" /></g><g id="sprotty_99" class="sprotty-edge" opacity="1"><path class="elkedge" d="M 1650.031746031746,252 L 1784,312.86538461538464" /><path class="edge arrow" d="M 0,0 L 8,-3 L 8,3 Z" transform="rotate(-155.5664230096372 1784 312.86538461538464) translate(1784 312.86538461538464)" /></g><g id="sprotty_102" class="sprotty-edge" opacity="1"><path class="elkedge" d="M 1679.2671755725191,412 L 1784,379.0192307692308" /><path class="edge arrow" d="M 0,0 L 8,-3 L 8,3 Z" transform="rotate(162.52058471831904 1784 379.0192307692308) translate(1784 379.0192307692308)" /></g><g id="sprotty_103" class="sprotty-edge" opacity="1"><path class="elkedge" d="M 1262.2132701421801,181 L 1369.218009478673,252" /><path class="edge arrow" d="M 0,0 L 8,-3 L 8,3 Z" transform="rotate(-146.43485040002997 1369.218009478673 252) translate(1369.218009478673 252)" /></g><g id="sprotty_106" class="sprotty-edge" opacity="1"><path class="elkedge" d="M 1013.0378973105135,661 L 1371.9621026894865,261" /><path class="edge arrow" d="M 0,0 L 8,-3 L 8,3 Z" transform="rotate(131.9019625148139 1371.9621026894865 261) translate(1371.9621026894865 261)" /></g><g id="sprotty_109" class="sprotty-edge" opacity="1"><path class="elkedge" d="M 1800,195.74786324786325 L 1901,186.25213675213675" /><path class="edge arrow" d="M 0,0 L 8,-3 L 8,3 Z" transform="rotate(174.6290053044643 1901 186.25213675213675) translate(1901 186.25213675213675)" /></g><g id="sprotty_110" class="sprotty-edge" opacity="1"><path class="elkedge" d="M 1794.7565445026178,312 L 1906.2434554973822,130" /><path class="edge arrow" d="M 0,0 L 8,-3 L 8,3 Z" transform="rotate(121.49019604671862 1906.2434554973822 130) translate(1906.2434554973822 130)" /></g><g id="sprotty_113" class="sprotty-edge" opacity="1"><path class="elkedge" d="M 1796.0190839694656,372 L 1904.9809160305344,250" /><path class="edge arrow" d="M 0,0 L 8,-3 L 8,3 Z" transform="rotate(131.76899009963185 1904.9809160305344 250) translate(1904.9809160305344 250)" /></g><g id="sprotty_114" class="sprotty-edge" opacity="1"><path class="elkedge" d="M 400,399.5 L 450,399.5 L 450,125.5 L 1001,125.5" /><path class="edge arrow" d="M 0,0 L 8,-3 L 8,3 Z" transform="rotate(180 1001 125.5) translate(1001 125.5)" /><g id="sprotty_114_j0" transform="translate(450, 125.5)" opacity="1"><circle class="elkjunction" r="2" /></g></g><g id="sprotty_115" class="sprotty-edge" opacity="1"><path class="elkedge" d="M 400,125.5 L 1001,125.5" /><path class="edge arrow" d="M 0,0 L 8,-3 L 8,3 Z" transform="rotate(180 1001 125.5) translate(1001 125.5)" /></g><g id="sprotty_116" class="sprotty-edge" opacity="1"><path class="elkedge" d="M 0,54.5 L 850,54.5 L 850,305.5 L 1001,305.5" /><path class="edge arrow" d="M 0,0 L 8,-3 L 8,3 Z" transform="rotate(180 1001 305.5) translate(1001 305.5)" /></g><g id="sprotty_117" class="sprotty-edge" opacity="1"><path class="elkedge" d="M 400,571.5 L 850,571.5 L 850,365.5 L 1001,365.5" /><path class="edge arrow" d="M 0,0 L 8,-3 L 8,3 Z" transform="rotate(180 1001 365.5) translate(1001 365.5)" /></g><g id="sprotty_118" class="sprotty-edge" opacity="1"><path class="elkedge" d="M 800,425.5 L 1001,425.5" /><path class="edge arrow" d="M 0,0 L 8,-3 L 8,3 Z" transform="rotate(180 1001 425.5) translate(1001 425.5)" /></g><g id="sprotty_119" class="sprotty-edge" opacity="1"><path class="elkedge" d="M 800,1012 L 850,1012 L 850,605.5 L 1001,605.5" /><path class="edge arrow" d="M 0,0 L 8,-3 L 8,3 Z" transform="rotate(180 1001 605.5) translate(1001 605.5)" /></g></g></g></svg>
