<svg id="sprotty_1" class="sprotty-graph sprotty" tabindex="1002" xmlns="http://www.w3.org/2000/svg" viewBox="0 0 784 1081"><style>
.elknode {
    stroke: #448;
    stroke-width: 2;
    fill: #ddf;
    fill-opacity: 0.5;
}

.elkport {
    stroke: #448;
    stroke-width: 1;
    fill: #66c;
}

.elkedge {
    fill: none;
    stroke: #88f;
    stroke-width: 8;
    stroke-opacity: 0.3;
    pointer-events: stroke;
    stroke-linejoin: round;
}

.elkedge:hover {
    stroke: #448;
    stroke-width: 8;
    stroke-opacity: 1;
    stroke-dasharray: 16px;
    stroke-dashoffset: 32px;
    animation: stroke 0.5s linear infinite;
}

@keyframes stroke {
    to {
        stroke-dashoffset: 0;
    }
}

.elkedge.arrow {
    fill: #336;
}

.elklabel {
    stroke-width: 0;
    stroke: #000;
    fill: #000;
    font-family: sans-serif;
    font-size: 10pt;
    dominant-baseline: hanging;
}

.elklabel:hover {
    font-size: 24pt;
}

.elkjunction {
    stroke: none;
    fill: #224;
}

.selected &gt; rect {
    stroke-width: 3;
}

.mouseover {
    stroke: #88f;
}
/*
 * Copyright (C) 2017 TypeFox and others.
 *
 * Licensed under the Apache License, Version 2.0 (the &quot;License&quot;); you may not use this file except in compliance with the License.
 * You may obtain a copy of the License at http://www.apache.org/licenses/LICENSE-2.0
 */

.sprotty {
    padding: 0px;
    font-family: &quot;Helvetica Neue&quot;, Helvetica, Arial, sans-serif;
}

.sprotty-hidden {
    display: block;
    position: absolute;
    width: 0px;
    height: 0px;
}

.sprotty-popup {
    font-family: &quot;Helvetica Neue&quot;, Helvetica, Arial, sans-serif;
    position: absolute;
    background: white;
    border-radius: 5px;
    border: 1px solid;
    max-width: 400px;
    min-width: 100px;
}

.sprotty-popup &gt; div {
    margin: 10px;
}

.sprotty-popup-closed {
    display: none;
}
</style><g transform="scale(1) translate(0,0)"><g id="sprotty_3" transform="translate(117, 71)" opacity="1"><rect class="elknode" x="0" y="0" rx="10" width="550" height="960" /><g id="sprotty_5" transform="translate(250, 850)" opacity="1"><rect class="elknode" x="0" y="0" rx="10" width="200" height="60" /><text id="sprotty_6" class="elklabel" transform="translate(5, 22) translate(0, 0)" opacity="1">k8s_apps_v1_deployment.kubernetes-dashboard</text></g><g id="sprotty_13" transform="translate(250, 370)" opacity="1"><rect class="elknode" x="0" y="0" rx="10" width="200" height="60" /><text id="sprotty_14" class="elklabel" transform="translate(5, 22) translate(0, 0)" opacity="1">k8s_core_v1_secret.kubernetes-dashboard-certs</text></g><g id="sprotty_17" transform="translate(250, 530)" opacity="1"><rect class="elknode" x="0" y="0" rx="10" width="200" height="60" /><text id="sprotty_18" class="elklabel" transform="translate(5, 22) translate(0, 0)" opacity="1">k8s_core_v1_service.kubernetes-dashboard</text></g><g id="sprotty_21" transform="translate(250, 50)" opacity="1"><rect class="elknode" x="0" y="0" rx="10" width="200" height="60" /><text id="sprotty_22" class="elklabel" transform="translate(5, 22) translate(0, 0)" opacity="1">k8s_core_v1_service_account.kubernetes-dashboard</text></g><g id="sprotty_25" transform="translate(250, 690)" opacity="1"><rect class="elknode" x="0" y="0" rx="10" width="200" height="60" /><text id="sprotty_26" class="elklabel" transform="translate(5, 22) translate(0, 0)" opacity="1">k8s_rbac_authorization_k8s_io_v1_role.kubernetes-dashboard-minimal</text></g><g id="sprotty_29" transform="translate(250, 210)" opacity="1"><rect class="elknode" x="0" y="0" rx="10" width="200" height="60" /><text id="sprotty_30" class="elklabel" transform="translate(5, 22) translate(0, 0)" opacity="1">k8s_rbac_authorization_k8s_io_v1_role_binding.kubernetes-dashboard-minimal</text></g><g id="sprotty_7" transform="translate(-16, 245.5)" opacity="1"><rect class="elkport" x="0" y="0" width="16" height="9" /><text id="sprotty_8" class="elklabel" transform="translate(-1, 10) translate(0, 0)" opacity="1">name</text></g><g id="sprotty_10" transform="translate(-16, 65.5)" opacity="1"><rect class="elkport" x="0" y="0" width="16" height="9" /><text id="sprotty_11" class="elklabel" transform="translate(-1, -1) translate(0, 0)" opacity="1">namespace</text></g><g id="sprotty_33" transform="translate(550, 875.5)" opacity="1"><rect class="elkport" x="0" y="0" width="16" height="9" /><text id="sprotty_34" class="elklabel" transform="translate(17, 10) translate(0, 0)" opacity="1">deployment</text></g><g id="sprotty_36" transform="translate(550, 555.5)" opacity="1"><rect class="elkport" x="0" y="0" width="16" height="9" /><text id="sprotty_37" class="elklabel" transform="translate(17, -1) translate(0, 0)" opacity="1">service</text></g><text id="sprotty_4" class="elklabel" transform="translate(0, -21) translate(0, 0)" opacity="1">modules/kubernetes/dashboard</text><g id="sprotty_9" class="sprotty-edge" opacity="1"><path class="elkedge" d="M 0,250 L 150,250 L 150,890 L 250,890" /><path class="edge arrow" d="M 0,0 L 8,-3 L 8,3 Z" transform="rotate(180 250 890) translate(250 890)" /><g id="sprotty_9_j0" transform="translate(150, 250)" opacity="1"><circle class="elkjunction" r="2" /></g></g><g id="sprotty_12" class="sprotty-edge" opacity="1"><path class="elkedge" d="M 0,70 L 200,70 L 200,870 L 250,870" /><path class="edge arrow" d="M 0,0 L 8,-3 L 8,3 Z" transform="rotate(180 250 870) translate(250 870)" /><g id="sprotty_12_j0" transform="translate(200, 70)" opacity="1"><circle class="elkjunction" r="2" /></g></g><g id="sprotty_15" class="sprotty-edge" opacity="1"><path class="elkedge" d="M 0,250 L 150,250 L 150,410 L 250,410" /><path class="edge arrow" d="M 0,0 L 8,-3 L 8,3 Z" transform="rotate(180 250 410) translate(250 410)" /><g id="sprotty_15_j0" transform="translate(150, 410)" opacity="1"><circle class="elkjunction" r="2" /></g></g><g id="sprotty_16" class="sprotty-edge" opacity="1"><path class="elkedge" d="M 0,70 L 200,70 L 200,390 L 250,390" /><path class="edge arrow" d="M 0,0 L 8,-3 L 8,3 Z" transform="rotate(180 250 390) translate(250 390)" /><g id="sprotty_16_j0" transform="translate(200, 390)" opacity="1"><circle class="elkjunction" r="2" /></g></g><g id="sprotty_19" class="sprotty-edge" opacity="1"><path class="elkedge" d="M 0,250 L 150,250 L 150,570 L 250,570" /><path class="edge arrow" d="M 0,0 L 8,-3 L 8,3 Z" transform="rotate(180 250 570) translate(250 570)" /><g id="sprotty_19_j0" transform="translate(150, 570)" opacity="1"><circle class="elkjunction" r="2" /></g></g><g id="sprotty_20" class="sprotty-edge" opacity="1"><path class="elkedge" d="M 0,70 L 200,70 L 200,550 L 250,550" /><path class="edge arrow" d="M 0,0 L 8,-3 L 8,3 Z" transform="rotate(180 250 550) translate(250 550)" /><g id="sprotty_20_j0" transform="translate(200, 550)" opacity="1"><circle class="elkjunction" r="2" /></g></g><g id="sprotty_23" class="sprotty-edge" opacity="1"><path class="elkedge" d="M 0,250 L 150,250 L 150,90 L 250,90" /><path class="edge arrow" d="M 0,0 L 8,-3 L 8,3 Z" transform="rotate(180 250 90) translate(250 90)" /></g><g id="sprotty_24" class="sprotty-edge" opacity="1"><path class="elkedge" d="M 0,70 L 250,70" /><path class="edge arrow" d="M 0,0 L 8,-3 L 8,3 Z" transform="rotate(180 250 70) translate(250 70)" /></g><g id="sprotty_27" class="sprotty-edge" opacity="1"><path class="elkedge" d="M 0,250 L 150,250 L 150,730 L 250,730" /><path class="edge arrow" d="M 0,0 L 8,-3 L 8,3 Z" transform="rotate(180 250 730) translate(250 730)" /><g id="sprotty_27_j0" transform="translate(150, 730)" opacity="1"><circle class="elkjunction" r="2" /></g></g><g id="sprotty_28" class="sprotty-edge" opacity="1"><path class="elkedge" d="M 0,70 L 200,70 L 200,710 L 250,710" /><path class="edge arrow" d="M 0,0 L 8,-3 L 8,3 Z" transform="rotate(180 250 710) translate(250 710)" /><g id="sprotty_28_j0" transform="translate(200, 710)" opacity="1"><circle class="elkjunction" r="2" /></g></g><g id="sprotty_31" class="sprotty-edge" opacity="1"><path class="elkedge" d="M 0,250 L 250,250" /><path class="edge arrow" d="M 0,0 L 8,-3 L 8,3 Z" transform="rotate(180 250 250) translate(250 250)" /></g><g id="sprotty_32" class="sprotty-edge" opacity="1"><path class="elkedge" d="M 0,70 L 200,70 L 200,230 L 250,230" /><path class="edge arrow" d="M 0,0 L 8,-3 L 8,3 Z" transform="rotate(180 250 230) translate(250 230)" /><g id="sprotty_32_j0" transform="translate(200, 230)" opacity="1"><circle class="elkjunction" r="2" /></g></g><g id="sprotty_35" class="sprotty-edge" opacity="1"><path class="elkedge" d="M 450,880 L 550,880" /><path class="edge arrow" d="M 0,0 L 8,-3 L 8,3 Z" transform="rotate(180 550 880) translate(550 880)" /></g><g id="sprotty_38" class="sprotty-edge" opacity="1"><path class="elkedge" d="M 450,560 L 550,560" /><path class="edge arrow" d="M 0,0 L 8,-3 L 8,3 Z" transform="rotate(180 550 560) translate(550 560)" /></g></g></g></svg>
