<svg id="sprotty_1" class="sprotty-graph sprotty" tabindex="1002" xmlns="http://www.w3.org/2000/svg" viewBox="0 0 2402 1254"><style>
.elknode {
    stroke: #448;
    stroke-width: 2;
    fill: #ddf;
    fill-opacity: 0.5;
}

.elkport {
    stroke: #448;
    stroke-width: 1;
    fill: #66c;
}

.elkedge {
    fill: none;
    stroke: #88f;
    stroke-width: 8;
    stroke-opacity: 0.3;
    pointer-events: stroke;
    stroke-linejoin: round;
}

.elkedge:hover {
    stroke: #448;
    stroke-width: 8;
    stroke-opacity: 1;
    stroke-dasharray: 16px;
    stroke-dashoffset: 32px;
    animation: stroke 0.5s linear infinite;
}

@keyframes stroke {
    to {
        stroke-dashoffset: 0;
    }
}

.elkedge.arrow {
    fill: #336;
}

.elklabel {
    stroke-width: 0;
    stroke: #000;
    fill: #000;
    font-family: sans-serif;
    font-size: 10pt;
    dominant-baseline: hanging;
}

.elklabel:hover {
    font-size: 24pt;
}

.elkjunction {
    stroke: none;
    fill: #224;
}

.selected &gt; rect {
    stroke-width: 3;
}

.mouseover {
    stroke: #88f;
}
/*
 * Copyright (C) 2017 TypeFox and others.
 *
 * Licensed under the Apache License, Version 2.0 (the &quot;License&quot;); you may not use this file except in compliance with the License.
 * You may obtain a copy of the License at http://www.apache.org/licenses/LICENSE-2.0
 */

.sprotty {
    padding: 0px;
    font-family: &quot;Helvetica Neue&quot;, Helvetica, Arial, sans-serif;
}

.sprotty-hidden {
    display: block;
    position: absolute;
    width: 0px;
    height: 0px;
}

.sprotty-popup {
    font-family: &quot;Helvetica Neue&quot;, Helvetica, Arial, sans-serif;
    position: absolute;
    background: white;
    border-radius: 5px;
    border: 1px solid;
    max-width: 400px;
    min-width: 100px;
}

.sprotty-popup &gt; div {
    margin: 10px;
}

.sprotty-popup-closed {
    display: none;
}
</style><g transform="scale(1) translate(0,0)"><g id="sprotty_3" transform="translate(117, 71)" opacity="1"><rect class="elknode" x="0" y="0" rx="10" width="2168" height="1133" /><g id="sprotty_5" transform="translate(1234, 155.5)" opacity="1"><rect class="elknode" x="0" y="0" rx="10" width="200" height="60" /><text id="sprotty_6" class="elklabel" transform="translate(5, 22) translate(0, 0)" opacity="1">local.parameters</text></g><g id="sprotty_7" transform="translate(117, 257.5)" opacity="1"><rect class="elknode" x="0" y="0" rx="10" width="900" height="710" /><g id="sprotty_59" transform="translate(100, 50)" opacity="1"><rect class="elknode" x="0" y="0" rx="10" width="200" height="60" /><text id="sprotty_60" class="elklabel" transform="translate(5, 22) translate(0, 0)" opacity="1">k8s_core_v1_service_account.this</text></g><g id="sprotty_61" transform="translate(350, 50)" opacity="1"><rect class="elknode" x="0" y="0" rx="10" width="200" height="60" /><text id="sprotty_62" class="elklabel" transform="translate(5, 22) translate(0, 0)" opacity="1">local.k8s_core_v1_service_account_parameters</text></g><g id="sprotty_64" transform="translate(600, 50)" opacity="1"><rect class="elknode" x="0" y="0" rx="10" width="200" height="60" /><text id="sprotty_65" class="elklabel" transform="translate(5, 22) translate(0, 0)" opacity="1">k8s_rbac_authorization_k8s_io_v1_cluster_role.this</text></g><g id="sprotty_66" transform="translate(100, 160)" opacity="1"><rect class="elknode" x="0" y="0" rx="10" width="200" height="60" /><text id="sprotty_67" class="elklabel" transform="translate(5, 22) translate(0, 0)" opacity="1">local.k8s_rbac_authorization_k8s_io_v1_cluster_role_parameters</text></g><g id="sprotty_69" transform="translate(350, 160)" opacity="1"><rect class="elknode" x="0" y="0" rx="10" width="200" height="60" /><text id="sprotty_70" class="elklabel" transform="translate(5, 22) translate(0, 0)" opacity="1">k8s_rbac_authorization_k8s_io_v1_cluster_role_binding.this</text></g><g id="sprotty_71" transform="translate(600, 160)" opacity="1"><rect class="elknode" x="0" y="0" rx="10" width="200" height="60" /><text id="sprotty_72" class="elklabel" transform="translate(5, 22) translate(0, 0)" opacity="1">local.k8s_rbac_authorization_k8s_io_v1_cluster_role_binding_parameters</text></g><g id="sprotty_77" transform="translate(100, 270)" opacity="1"><rect class="elknode" x="0" y="0" rx="10" width="200" height="60" /><text id="sprotty_78" class="elklabel" transform="translate(5, 22) translate(0, 0)" opacity="1">k8s_rbac_authorization_k8s_io_v1_role.this</text></g><g id="sprotty_79" transform="translate(350, 270)" opacity="1"><rect class="elknode" x="0" y="0" rx="10" width="200" height="60" /><text id="sprotty_80" class="elklabel" transform="translate(5, 22) translate(0, 0)" opacity="1">local.k8s_rbac_authorization_k8s_io_v1_role_parameters</text></g><g id="sprotty_82" transform="translate(600, 270)" opacity="1"><rect class="elknode" x="0" y="0" rx="10" width="200" height="60" /><text id="sprotty_83" class="elklabel" transform="translate(5, 22) translate(0, 0)" opacity="1">k8s_rbac_authorization_k8s_io_v1_role_binding.this</text></g><g id="sprotty_84" transform="translate(100, 380)" opacity="1"><rect class="elknode" x="0" y="0" rx="10" width="200" height="60" /><text id="sprotty_85" class="elklabel" transform="translate(5, 22) translate(0, 0)" opacity="1">local.k8s_rbac_authorization_k8s_io_v1_role_binding_parameters</text></g><g id="sprotty_90" transform="translate(350, 380)" opacity="1"><rect class="elknode" x="0" y="0" rx="10" width="200" height="60" /><text id="sprotty_91" class="elklabel" transform="translate(5, 22) translate(0, 0)" opacity="1">local.cluster_role_parameters</text></g><g id="sprotty_98" transform="translate(600, 380)" opacity="1"><rect class="elknode" x="0" y="0" rx="10" width="200" height="60" /><text id="sprotty_99" class="elklabel" transform="translate(5, 22) translate(0, 0)" opacity="1">local.cluster_role_ref</text></g><g id="sprotty_101" transform="translate(100, 490)" opacity="1"><rect class="elknode" x="0" y="0" rx="10" width="200" height="60" /><text id="sprotty_102" class="elklabel" transform="translate(5, 22) translate(0, 0)" opacity="1">local.cluster_role_rules</text></g><g id="sprotty_104" transform="translate(350, 490)" opacity="1"><rect class="elknode" x="0" y="0" rx="10" width="200" height="60" /><text id="sprotty_105" class="elklabel" transform="translate(5, 22) translate(0, 0)" opacity="1">local.parameters</text></g><g id="sprotty_111" transform="translate(600, 490)" opacity="1"><rect class="elknode" x="0" y="0" rx="10" width="200" height="60" /><text id="sprotty_112" class="elklabel" transform="translate(5, 22) translate(0, 0)" opacity="1">local.subjects</text></g><g id="sprotty_117" transform="translate(100, 600)" opacity="1"><rect class="elknode" x="0" y="0" rx="10" width="200" height="60" /><text id="sprotty_118" class="elklabel" transform="translate(5, 22) translate(0, 0)" opacity="1">local.role_ref</text></g><g id="sprotty_122" transform="translate(350, 600)" opacity="1"><rect class="elknode" x="0" y="0" rx="10" width="200" height="60" /><text id="sprotty_123" class="elklabel" transform="translate(5, 22) translate(0, 0)" opacity="1">local.role_rules</text></g><g id="sprotty_126" transform="translate(600, 600)" opacity="1"><rect class="elknode" x="0" y="0" rx="10" width="200" height="60" /><text id="sprotty_127" class="elklabel" transform="translate(5, 22) translate(0, 0)" opacity="1">local.labels</text></g><g id="sprotty_9" transform="translate(900, 50)" opacity="1"><rect class="elkport" x="0" y="0" width="16" height="9" /><text id="sprotty_10" class="elklabel" transform="translate(17, -1) translate(0, 0)" opacity="1">service_account</text></g><g id="sprotty_74" transform="translate(-16, 50)" opacity="1"><rect class="elkport" x="0" y="0" width="16" height="9" /><text id="sprotty_75" class="elklabel" transform="translate(-1, 10) translate(0, 0)" opacity="1">cluster_role_rules</text></g><g id="sprotty_87" transform="translate(-16, 110)" opacity="1"><rect class="elkport" x="0" y="0" width="16" height="9" /><text id="sprotty_88" class="elklabel" transform="translate(-1, 10) translate(0, 0)" opacity="1">role_rules</text></g><g id="sprotty_92" transform="translate(-16, 170)" opacity="1"><rect class="elkport" x="0" y="0" width="16" height="9" /><text id="sprotty_93" class="elklabel" transform="translate(-1, 10) translate(0, 0)" opacity="1">name</text></g><g id="sprotty_95" transform="translate(-16, 230)" opacity="1"><rect class="elkport" x="0" y="0" width="16" height="9" /><text id="sprotty_96" class="elklabel" transform="translate(-1, 10) translate(0, 0)" opacity="1">namespace</text></g><g id="sprotty_107" transform="translate(-16, 290)" opacity="1"><rect class="elkport" x="0" y="0" width="16" height="9" /><text id="sprotty_108" class="elklabel" transform="translate(-1, 10) translate(0, 0)" opacity="1">overrides</text></g><g id="sprotty_134" transform="translate(900, 110)" opacity="1"><rect class="elkport" x="0" y="0" width="16" height="9" /><text id="sprotty_135" class="elklabel" transform="translate(17, 10) translate(0, 0)" opacity="1">name</text></g><text id="sprotty_8" class="elklabel" transform="translate(0, -21) translate(0, 0)" opacity="1">rbac</text></g><g id="sprotty_18" transform="translate(1651, 71)" opacity="1"><rect class="elknode" x="0" y="0" rx="10" width="400" height="710" /><g id="sprotty_20" transform="translate(100, 50)" opacity="1"><rect class="elknode" x="0" y="0" rx="10" width="200" height="60" /><text id="sprotty_21" class="elklabel" transform="translate(5, 22) translate(0, 0)" opacity="1">k8s_apps_v1_deployment.this</text></g><g id="sprotty_22" transform="translate(100, 160)" opacity="1"><rect class="elknode" x="0" y="0" rx="10" width="200" height="60" /><text id="sprotty_23" class="elklabel" transform="translate(5, 22) translate(0, 0)" opacity="1">local.k8s_apps_v1_deployment_parameters</text></g><g id="sprotty_25" transform="translate(100, 270)" opacity="1"><rect class="elknode" x="0" y="0" rx="10" width="200" height="60" /><text id="sprotty_26" class="elklabel" transform="translate(5, 22) translate(0, 0)" opacity="1">k8s_core_v1_service.this</text></g><g id="sprotty_27" transform="translate(100, 380)" opacity="1"><rect class="elknode" x="0" y="0" rx="10" width="200" height="60" /><text id="sprotty_28" class="elklabel" transform="translate(5, 22) translate(0, 0)" opacity="1">local.k8s_core_v1_service_parameters</text></g><g id="sprotty_33" transform="translate(100, 490)" opacity="1"><rect class="elknode" x="0" y="0" rx="10" width="200" height="60" /><text id="sprotty_34" class="elklabel" transform="translate(5, 22) translate(0, 0)" opacity="1">local.selector</text></g><g id="sprotty_36" transform="translate(100, 600)" opacity="1"><rect class="elknode" x="0" y="0" rx="10" width="200" height="60" /><text id="sprotty_37" class="elklabel" transform="translate(5, 22) translate(0, 0)" opacity="1">local.labels</text></g><g id="sprotty_30" transform="translate(-16, 50)" opacity="1"><rect class="elkport" x="0" y="0" width="16" height="9" /><text id="sprotty_31" class="elklabel" transform="translate(-1, -1) translate(0, 0)" opacity="1">enable_service</text></g><g id="sprotty_39" transform="translate(-16, 110)" opacity="1"><rect class="elkport" x="0" y="0" width="16" height="9" /><text id="sprotty_40" class="elklabel" transform="translate(-1, 10) translate(0, 0)" opacity="1">parameters</text></g><g id="sprotty_43" transform="translate(400, 50)" opacity="1"><rect class="elkport" x="0" y="0" width="16" height="9" /><text id="sprotty_44" class="elklabel" transform="translate(17, 10) translate(0, 0)" opacity="1">deployment</text></g><g id="sprotty_46" transform="translate(400, 110)" opacity="1"><rect class="elkport" x="0" y="0" width="16" height="9" /><text id="sprotty_47" class="elklabel" transform="translate(17, 10) translate(0, 0)" opacity="1">labels</text></g><g id="sprotty_49" transform="translate(400, 170)" opacity="1"><rect class="elkport" x="0" y="0" width="16" height="9" /><text id="sprotty_50" class="elklabel" transform="translate(17, 10) translate(0, 0)" opacity="1">name</text></g><g id="sprotty_52" transform="translate(400, 230)" opacity="1"><rect class="elkport" x="0" y="0" width="16" height="9" /><text id="sprotty_53" class="elklabel" transform="translate(17, 10) translate(0, 0)" opacity="1">service</text></g><text id="sprotty_19" class="elklabel" transform="translate(0, -21) translate(0, 0)" opacity="1">deployment-service</text></g><g id="sprotty_12" transform="translate(-16, 181)" opacity="1"><rect class="elkport" x="0" y="0" width="16" height="9" /><text id="sprotty_13" class="elklabel" transform="translate(-1, 10) translate(0, 0)" opacity="1">PROVISIONER_NAME</text></g><g id="sprotty_15" transform="translate(-16, 121)" opacity="1"><rect class="elkport" x="0" y="0" width="16" height="9" /><text id="sprotty_16" class="elklabel" transform="translate(-1, 10) translate(0, 0)" opacity="1">image</text></g><g id="sprotty_56" transform="translate(-16, 1013)" opacity="1"><rect class="elkport" x="0" y="0" width="16" height="9" /><text id="sprotty_57" class="elklabel" transform="translate(-1, 10) translate(0, 0)" opacity="1">overrides</text></g><g id="sprotty_138" transform="translate(-16, 427.5)" opacity="1"><rect class="elkport" x="0" y="0" width="16" height="9" /><text id="sprotty_139" class="elklabel" transform="translate(-1, 10) translate(0, 0)" opacity="1">name</text></g><g id="sprotty_141" transform="translate(-16, 487.5)" opacity="1"><rect class="elkport" x="0" y="0" width="16" height="9" /><text id="sprotty_142" class="elklabel" transform="translate(-1, 10) translate(0, 0)" opacity="1">namespace</text></g><g id="sprotty_144" transform="translate(2168, 121)" opacity="1"><rect class="elkport" x="0" y="0" width="16" height="9" /><text id="sprotty_145" class="elklabel" transform="translate(17, 10) translate(0, 0)" opacity="1">deployment</text></g><g id="sprotty_147" transform="translate(2168, 241)" opacity="1"><rect class="elkport" x="0" y="0" width="16" height="9" /><text id="sprotty_148" class="elklabel" transform="translate(17, 10) translate(0, 0)" opacity="1">name</text></g><g id="sprotty_150" transform="translate(2168, 1073)" opacity="1"><rect class="elkport" x="0" y="0" width="16" height="9" /><text id="sprotty_151" class="elklabel" transform="translate(17, 10) translate(0, 0)" opacity="1">provisioner</text></g><g id="sprotty_153" transform="translate(2168, 301)" opacity="1"><rect class="elkport" x="0" y="0" width="16" height="9" /><text id="sprotty_154" class="elklabel" transform="translate(17, 10) translate(0, 0)" opacity="1">service</text></g><text id="sprotty_4" class="elklabel" transform="translate(0, -21) translate(0, 0)" opacity="1">modules/kubernetes/cephfs-provisioner</text><g id="sprotty_11" class="sprotty-edge" opacity="1"><path class="elkedge" d="M 1033,312 L 1084,312 L 1084,200.5 L 1234,200.5" /><path class="edge arrow" d="M 0,0 L 8,-3 L 8,3 Z" transform="rotate(180 1234 200.5) translate(1234 200.5)" /></g><g id="sprotty_14" class="sprotty-edge" opacity="1"><path class="elkedge" d="M 0,185.5 L 1234,185.5" /><path class="edge arrow" d="M 0,0 L 8,-3 L 8,3 Z" transform="rotate(180 1234 185.5) translate(1234 185.5)" /></g><g id="sprotty_17" class="sprotty-edge" opacity="1"><path class="elkedge" d="M 0,125.5 L 1084,125.5 L 1084,170.5 L 1234,170.5" /><path class="edge arrow" d="M 0,0 L 8,-3 L 8,3 Z" transform="rotate(180 1234 170.5) translate(1234 170.5)" /></g><g id="sprotty_24" class="sprotty-edge" opacity="1"><path class="elkedge" d="M 1851,231 L 1851,181" /><path class="edge arrow" d="M 0,0 L 8,-3 L 8,3 Z" transform="rotate(90 1851 181) translate(1851 181)" /></g><g id="sprotty_29" class="sprotty-edge" opacity="1"><path class="elkedge" d="M 1851,451 L 1851,401" /><path class="edge arrow" d="M 0,0 L 8,-3 L 8,3 Z" transform="rotate(90 1851 401) translate(1851 401)" /></g><g id="sprotty_32" class="sprotty-edge" opacity="1"><path class="elkedge" d="M 1646.8126272912423,130 L 1825.582484725051,341" /><path class="edge arrow" d="M 0,0 L 8,-3 L 8,3 Z" transform="rotate(-130.27295566323377 1825.582484725051 341) translate(1825.582484725051 341)" /></g><g id="sprotty_35" class="sprotty-edge" opacity="1"><path class="elkedge" d="M 1851,561 L 1851,291" /><path class="edge arrow" d="M 0,0 L 8,-3 L 8,3 Z" transform="rotate(90 1851 291) translate(1851 291)" /></g><g id="sprotty_38" class="sprotty-edge" opacity="1"><path class="elkedge" d="M 1851,671 L 1851,511" /><path class="edge arrow" d="M 0,0 L 8,-3 L 8,3 Z" transform="rotate(90 1851 511) translate(1851 511)" /></g><g id="sprotty_41" class="sprotty-edge" opacity="1"><path class="elkedge" d="M 1644.815712900097,190 L 1838.8952473326867,671" /><path class="edge arrow" d="M 0,0 L 8,-3 L 8,3 Z" transform="rotate(-111.9736695371 1838.8952473326867 671) translate(1838.8952473326867 671)" /></g><g id="sprotty_42" class="sprotty-edge" opacity="1"><path class="elkedge" d="M 1851,671 L 1851,621" /><path class="edge arrow" d="M 0,0 L 8,-3 L 8,3 Z" transform="rotate(90 1851 621) translate(1851 621)" /></g><g id="sprotty_45" class="sprotty-edge" opacity="1"><path class="elkedge" d="M 1951,138.7403846153846 L 2051,126.48076923076923" /><path class="edge arrow" d="M 0,0 L 8,-3 L 8,3 Z" transform="rotate(173.01063484366153 2051 126.48076923076923) translate(2051 126.48076923076923)" /></g><g id="sprotty_48" class="sprotty-edge" opacity="1"><path class="elkedge" d="M 1863.1047526673133,671 L 2057.184287099903,190" /><path class="edge arrow" d="M 0,0 L 8,-3 L 8,3 Z" transform="rotate(111.9736695371 2057.184287099903 190) translate(2057.184287099903 190)" /></g><g id="sprotty_51" class="sprotty-edge" opacity="1"><path class="elkedge" d="M 1917.031746031746,181 L 2051,241.8653846153846" /><path class="edge arrow" d="M 0,0 L 8,-3 L 8,3 Z" transform="rotate(-155.5664230096372 2051 241.8653846153846) translate(2051 241.8653846153846)" /></g><g id="sprotty_54" class="sprotty-edge" opacity="1"><path class="elkedge" d="M 1946.2671755725191,341 L 2051,308.0192307692308" /><path class="edge arrow" d="M 0,0 L 8,-3 L 8,3 Z" transform="rotate(162.52058471831904 2051 308.0192307692308) translate(2051 308.0192307692308)" /></g><g id="sprotty_55" class="sprotty-edge" opacity="1"><path class="elkedge" d="M 1434,185.5 L 1635,185.5" /><path class="edge arrow" d="M 0,0 L 8,-3 L 8,3 Z" transform="rotate(180 1635 185.5) translate(1635 185.5)" /></g><g id="sprotty_58" class="sprotty-edge" opacity="1"><path class="elkedge" d="M 0,1017.5 L 1484,1017.5 L 1484,185.5 L 1635,185.5" /><path class="edge arrow" d="M 0,0 L 8,-3 L 8,3 Z" transform="rotate(180 1635 185.5) translate(1635 185.5)" /><g id="sprotty_58_j0" transform="translate(1484, 185.5)" opacity="1"><circle class="elkjunction" r="2" /></g></g><g id="sprotty_63" class="sprotty-edge" opacity="1"><path class="elkedge" d="M 467,337.5 L 417,337.5" /><path class="edge arrow" d="M 0,0 L 8,-3 L 8,3 Z" transform="rotate(0 417 337.5) translate(417 337.5)" /></g><g id="sprotty_68" class="sprotty-edge" opacity="1"><path class="elkedge" d="M 417,425.5 L 717,359.5" /><path class="edge arrow" d="M 0,0 L 8,-3 L 8,3 Z" transform="rotate(167.59258147259925 717 359.5) translate(717 359.5)" /></g><g id="sprotty_73" class="sprotty-edge" opacity="1"><path class="elkedge" d="M 717,447.5 L 667,447.5" /><path class="edge arrow" d="M 0,0 L 8,-3 L 8,3 Z" transform="rotate(0 667 447.5) translate(667 447.5)" /></g><g id="sprotty_76" class="sprotty-edge" opacity="1"><path class="elkedge" d="M 117,314.3668122270742 L 467,417.9148471615721" /><path class="edge arrow" d="M 0,0 L 8,-3 L 8,3 Z" transform="rotate(-163.51906811785517 467 417.9148471615721) translate(467 417.9148471615721)" /></g><g id="sprotty_81" class="sprotty-edge" opacity="1"><path class="elkedge" d="M 467,557.5 L 417,557.5" /><path class="edge arrow" d="M 0,0 L 8,-3 L 8,3 Z" transform="rotate(0 417 557.5) translate(417 557.5)" /></g><g id="sprotty_86" class="sprotty-edge" opacity="1"><path class="elkedge" d="M 417,645.5 L 717,579.5" /><path class="edge arrow" d="M 0,0 L 8,-3 L 8,3 Z" transform="rotate(167.59258147259925 717 579.5) translate(717 579.5)" /></g><g id="sprotty_89" class="sprotty-edge" opacity="1"><path class="elkedge" d="M 117,374.0960451977401 L 717,531.2994350282486" /><path class="edge arrow" d="M 0,0 L 8,-3 L 8,3 Z" transform="rotate(-165.31819760293897 717 531.2994350282486) translate(717 531.2994350282486)" /></g><g id="sprotty_94" class="sprotty-edge" opacity="1"><path class="elkedge" d="M 117,436.1135371179039 L 508.656050955414,637.5" /><path class="edge arrow" d="M 0,0 L 8,-3 L 8,3 Z" transform="rotate(-152.78812859608504 508.656050955414 637.5) translate(508.656050955414 637.5)" /></g><g id="sprotty_97" class="sprotty-edge" opacity="1"><path class="elkedge" d="M 117,495.0655021834061 L 488.70940170940173,637.5" /><path class="edge arrow" d="M 0,0 L 8,-3 L 8,3 Z" transform="rotate(-159.03377842411962 488.70940170940173 637.5) translate(488.70940170940173 637.5)" /></g><g id="sprotty_100" class="sprotty-edge" opacity="1"><path class="elkedge" d="M 667,667.5 L 717,667.5" /><path class="edge arrow" d="M 0,0 L 8,-3 L 8,3 Z" transform="rotate(180 717 667.5) translate(717 667.5)" /></g><g id="sprotty_103" class="sprotty-edge" opacity="1"><path class="elkedge" d="M 111.01074113856069,316.5 L 303.5950590762621,747.5" /><path class="edge arrow" d="M 0,0 L 8,-3 L 8,3 Z" transform="rotate(-114.0765897487924 303.5950590762621 747.5) translate(303.5950590762621 747.5)" /></g><g id="sprotty_106" class="sprotty-edge" opacity="1"><path class="elkedge" d="M 567,747.5 L 567,367.5" /><path class="edge arrow" d="M 0,0 L 8,-3 L 8,3 Z" transform="rotate(90 567 367.5) translate(567 367.5)" /></g><g id="sprotty_109" class="sprotty-edge" opacity="1"><path class="elkedge" d="M 117,548.2532751091703 L 502.94405594405595,367.5" /><path class="edge arrow" d="M 0,0 L 8,-3 L 8,3 Z" transform="rotate(154.90439887692173 502.94405594405595 367.5) translate(502.94405594405595 367.5)" /></g><g id="sprotty_110" class="sprotty-edge" opacity="1"><path class="elkedge" d="M 817,637.5 L 817,477.5" /><path class="edge arrow" d="M 0,0 L 8,-3 L 8,3 Z" transform="rotate(90 817 477.5) translate(817 477.5)" /></g><g id="sprotty_113" class="sprotty-edge" opacity="1"><path class="elkedge" d="M 817,747.5 L 817,477.5" /><path class="edge arrow" d="M 0,0 L 8,-3 L 8,3 Z" transform="rotate(90 817 477.5) translate(817 477.5)" /></g><g id="sprotty_114" class="sprotty-edge" opacity="1"><path class="elkedge" d="M 532.909090909091,637.5 L 351.0909090909091,477.5" /><path class="edge arrow" d="M 0,0 L 8,-3 L 8,3 Z" transform="rotate(41.34777721969366 351.0909090909091 477.5) translate(351.0909090909091 477.5)" /></g><g id="sprotty_115" class="sprotty-edge" opacity="1"><path class="elkedge" d="M 317,747.5 L 317,477.5" /><path class="edge arrow" d="M 0,0 L 8,-3 L 8,3 Z" transform="rotate(90 317 477.5) translate(317 477.5)" /></g><g id="sprotty_116" class="sprotty-edge" opacity="1"><path class="elkedge" d="M 117,547.9807692307693 L 257.2870813397129,477.5" /><path class="edge arrow" d="M 0,0 L 8,-3 L 8,3 Z" transform="rotate(153.3248706115522 257.2870813397129 477.5) translate(257.2870813397129 477.5)" /></g><g id="sprotty_119" class="sprotty-edge" opacity="1"><path class="elkedge" d="M 317,857.5 L 317,697.5" /><path class="edge arrow" d="M 0,0 L 8,-3 L 8,3 Z" transform="rotate(90 317 697.5) translate(317 697.5)" /></g><g id="sprotty_120" class="sprotty-edge" opacity="1"><path class="elkedge" d="M 717,755.5 L 417,689.5" /><path class="edge arrow" d="M 0,0 L 8,-3 L 8,3 Z" transform="rotate(12.407418527400743 417 689.5) translate(417 689.5)" /></g><g id="sprotty_121" class="sprotty-edge" opacity="1"><path class="elkedge" d="M 567,747.5 L 567,587.5" /><path class="edge arrow" d="M 0,0 L 8,-3 L 8,3 Z" transform="rotate(90 567 587.5) translate(567 587.5)" /></g><g id="sprotty_124" class="sprotty-edge" opacity="1"><path class="elkedge" d="M 567,857.5 L 567,587.5" /><path class="edge arrow" d="M 0,0 L 8,-3 L 8,3 Z" transform="rotate(90 567 587.5) translate(567 587.5)" /></g><g id="sprotty_125" class="sprotty-edge" opacity="1"><path class="elkedge" d="M 117,552.0960698689956 L 467,556.2991266375545" /><path class="edge arrow" d="M 0,0 L 8,-3 L 8,3 Z" transform="rotate(-179.3119833176395 467 556.2991266375545) translate(467 556.2991266375545)" /></g><g id="sprotty_128" class="sprotty-edge" opacity="1"><path class="elkedge" d="M 115.99451152579583,436.5 L 770.3699231613612,857.5" /><path class="edge arrow" d="M 0,0 L 8,-3 L 8,3 Z" transform="rotate(-147.24432774527776 770.3699231613612 857.5) translate(770.3699231613612 857.5)" /></g><g id="sprotty_129" class="sprotty-edge" opacity="1"><path class="elkedge" d="M 748.8181818181819,857.5 L 635.1818181818181,807.5" /><path class="edge arrow" d="M 0,0 L 8,-3 L 8,3 Z" transform="rotate(23.74949449286674 635.1818181818181 807.5) translate(635.1818181818181 807.5)" /></g><g id="sprotty_130" class="sprotty-edge" opacity="1"><path class="elkedge" d="M 116.21891418563924,496.5 L 518.8739054290718,747.5" /><path class="edge arrow" d="M 0,0 L 8,-3 L 8,3 Z" transform="rotate(-148.0621360923082 518.8739054290718 747.5) translate(518.8739054290718 747.5)" /></g><g id="sprotty_131" class="sprotty-edge" opacity="1"><path class="elkedge" d="M 111.05488474204171,436.5 L 303.3007683863886,857.5" /><path class="edge arrow" d="M 0,0 L 8,-3 L 8,3 Z" transform="rotate(-114.54338541936511 303.3007683863886 857.5) translate(303.3007683863886 857.5)" /></g><g id="sprotty_132" class="sprotty-edge" opacity="1"><path class="elkedge" d="M 112.9980601357905,376.5 L 540.3462657613967,857.5" /><path class="edge arrow" d="M 0,0 L 8,-3 L 8,3 Z" transform="rotate(-131.61973894434882 540.3462657613967 857.5) translate(540.3462657613967 857.5)" /></g><g id="sprotty_133" class="sprotty-edge" opacity="1"><path class="elkedge" d="M 351.0909090909091,367.5 L 782.9090909090909,747.5" /><path class="edge arrow" d="M 0,0 L 8,-3 L 8,3 Z" transform="rotate(-138.65222278030632 782.9090909090909 747.5) translate(782.9090909090909 747.5)" /></g><g id="sprotty_136" class="sprotty-edge" opacity="1"><path class="elkedge" d="M 417,342.37288135593224 L 1017,371.6101694915254" /><path class="edge arrow" d="M 0,0 L 8,-3 L 8,3 Z" transform="rotate(-177.21025132948532 1017 371.6101694915254) translate(1017 371.6101694915254)" /></g><g id="sprotty_137" class="sprotty-edge" opacity="1"><path class="elkedge" d="M 417,333.89830508474574 L 1017,312.2881355932203" /><path class="edge arrow" d="M 0,0 L 8,-3 L 8,3 Z" transform="rotate(177.9372724518615 1017 312.2881355932203) translate(1017 312.2881355932203)" /></g><g id="sprotty_140" class="sprotty-edge" opacity="1"><path class="elkedge" d="M 0,432 L 101,432" /><path class="edge arrow" d="M 0,0 L 8,-3 L 8,3 Z" transform="rotate(180 101 432) translate(101 432)" /></g><g id="sprotty_143" class="sprotty-edge" opacity="1"><path class="elkedge" d="M 0,492 L 101,492" /><path class="edge arrow" d="M 0,0 L 8,-3 L 8,3 Z" transform="rotate(180 101 492) translate(101 492)" /></g><g id="sprotty_146" class="sprotty-edge" opacity="1"><path class="elkedge" d="M 2067,125.5 L 2168,125.5" /><path class="edge arrow" d="M 0,0 L 8,-3 L 8,3 Z" transform="rotate(180 2168 125.5) translate(2168 125.5)" /></g><g id="sprotty_149" class="sprotty-edge" opacity="1"><path class="elkedge" d="M 2067,245.5 L 2168,245.5" /><path class="edge arrow" d="M 0,0 L 8,-3 L 8,3 Z" transform="rotate(180 2168 245.5) translate(2168 245.5)" /></g><g id="sprotty_152" class="sprotty-edge" opacity="1"><path class="elkedge" d="M 0,188.76739926739927 L 2168,1074.2326007326008" /><path class="edge arrow" d="M 0,0 L 8,-3 L 8,3 Z" transform="rotate(-157.7836724114337 2168 1074.2326007326008) translate(2168 1074.2326007326008)" /></g><g id="sprotty_155" class="sprotty-edge" opacity="1"><path class="elkedge" d="M 2067,305.5 L 2168,305.5" /><path class="edge arrow" d="M 0,0 L 8,-3 L 8,3 Z" transform="rotate(180 2168 305.5) translate(2168 305.5)" /></g></g></g></svg>
