<svg id="sprotty_1" class="sprotty-graph sprotty" tabindex="1002" xmlns="http://www.w3.org/2000/svg" viewBox="0 0 2068 1000.5"><style>
.elknode {
    stroke: #448;
    stroke-width: 2;
    fill: #ddf;
    fill-opacity: 0.5;
}

.elkport {
    stroke: #448;
    stroke-width: 1;
    fill: #66c;
}

.elkedge {
    fill: none;
    stroke: #88f;
    stroke-width: 8;
    stroke-opacity: 0.3;
    pointer-events: stroke;
    stroke-linejoin: round;
}

.elkedge:hover {
    stroke: #448;
    stroke-width: 8;
    stroke-opacity: 1;
    stroke-dasharray: 16px;
    stroke-dashoffset: 32px;
    animation: stroke 0.5s linear infinite;
}

@keyframes stroke {
    to {
        stroke-dashoffset: 0;
    }
}

.elkedge.arrow {
    fill: #336;
}

.elklabel {
    stroke-width: 0;
    stroke: #000;
    fill: #000;
    font-family: sans-serif;
    font-size: 10pt;
    dominant-baseline: hanging;
}

.elklabel:hover {
    font-size: 24pt;
}

.elkjunction {
    stroke: none;
    fill: #224;
}

.selected &gt; rect {
    stroke-width: 3;
}

.mouseover {
    stroke: #88f;
}
/*
 * Copyright (C) 2017 TypeFox and others.
 *
 * Licensed under the Apache License, Version 2.0 (the &quot;License&quot;); you may not use this file except in compliance with the License.
 * You may obtain a copy of the License at http://www.apache.org/licenses/LICENSE-2.0
 */

.sprotty {
    padding: 0px;
    font-family: &quot;Helvetica Neue&quot;, Helvetica, Arial, sans-serif;
}

.sprotty-hidden {
    display: block;
    position: absolute;
    width: 0px;
    height: 0px;
}

.sprotty-popup {
    font-family: &quot;Helvetica Neue&quot;, Helvetica, Arial, sans-serif;
    position: absolute;
    background: white;
    border-radius: 5px;
    border: 1px solid;
    max-width: 400px;
    min-width: 100px;
}

.sprotty-popup &gt; div {
    margin: 10px;
}

.sprotty-popup-closed {
    display: none;
}
</style><g transform="scale(1) translate(0,0)"><g id="sprotty_3" transform="translate(117, 71)" opacity="1"><rect class="elknode" x="0" y="0" rx="10" width="1834" height="879.5" /><g id="sprotty_5" transform="translate(350, 214)" opacity="1"><rect class="elknode" x="0" y="0" rx="10" width="200" height="60" /><text id="sprotty_6" class="elklabel" transform="translate(5, 22) translate(0, 0)" opacity="1">local.env</text></g><g id="sprotty_22" transform="translate(900, 155.5)" opacity="1"><rect class="elknode" x="0" y="0" rx="10" width="200" height="60" /><text id="sprotty_23" class="elklabel" transform="translate(5, 22) translate(0, 0)" opacity="1">local.parameters</text></g><g id="sprotty_43" transform="translate(1317, 71)" opacity="1"><rect class="elknode" x="0" y="0" rx="10" width="400" height="710" /><g id="sprotty_45" transform="translate(100, 50)" opacity="1"><rect class="elknode" x="0" y="0" rx="10" width="200" height="60" /><text id="sprotty_46" class="elklabel" transform="translate(5, 22) translate(0, 0)" opacity="1">k8s_apps_v1_deployment.this</text></g><g id="sprotty_47" transform="translate(100, 160)" opacity="1"><rect class="elknode" x="0" y="0" rx="10" width="200" height="60" /><text id="sprotty_48" class="elklabel" transform="translate(5, 22) translate(0, 0)" opacity="1">local.k8s_apps_v1_deployment_parameters</text></g><g id="sprotty_50" transform="translate(100, 270)" opacity="1"><rect class="elknode" x="0" y="0" rx="10" width="200" height="60" /><text id="sprotty_51" class="elklabel" transform="translate(5, 22) translate(0, 0)" opacity="1">k8s_core_v1_service.this</text></g><g id="sprotty_52" transform="translate(100, 380)" opacity="1"><rect class="elknode" x="0" y="0" rx="10" width="200" height="60" /><text id="sprotty_53" class="elklabel" transform="translate(5, 22) translate(0, 0)" opacity="1">local.k8s_core_v1_service_parameters</text></g><g id="sprotty_58" transform="translate(100, 490)" opacity="1"><rect class="elknode" x="0" y="0" rx="10" width="200" height="60" /><text id="sprotty_59" class="elklabel" transform="translate(5, 22) translate(0, 0)" opacity="1">local.selector</text></g><g id="sprotty_61" transform="translate(100, 600)" opacity="1"><rect class="elknode" x="0" y="0" rx="10" width="200" height="60" /><text id="sprotty_62" class="elklabel" transform="translate(5, 22) translate(0, 0)" opacity="1">local.labels</text></g><g id="sprotty_55" transform="translate(-16, 50)" opacity="1"><rect class="elkport" x="0" y="0" width="16" height="9" /><text id="sprotty_56" class="elklabel" transform="translate(-1, -1) translate(0, 0)" opacity="1">enable_service</text></g><g id="sprotty_64" transform="translate(-16, 110)" opacity="1"><rect class="elkport" x="0" y="0" width="16" height="9" /><text id="sprotty_65" class="elklabel" transform="translate(-1, 10) translate(0, 0)" opacity="1">parameters</text></g><g id="sprotty_68" transform="translate(400, 50)" opacity="1"><rect class="elkport" x="0" y="0" width="16" height="9" /><text id="sprotty_69" class="elklabel" transform="translate(17, 10) translate(0, 0)" opacity="1">deployment</text></g><g id="sprotty_71" transform="translate(400, 110)" opacity="1"><rect class="elkport" x="0" y="0" width="16" height="9" /><text id="sprotty_72" class="elklabel" transform="translate(17, 10) translate(0, 0)" opacity="1">labels</text></g><g id="sprotty_74" transform="translate(400, 170)" opacity="1"><rect class="elkport" x="0" y="0" width="16" height="9" /><text id="sprotty_75" class="elklabel" transform="translate(17, 10) translate(0, 0)" opacity="1">name</text></g><g id="sprotty_77" transform="translate(400, 230)" opacity="1"><rect class="elkport" x="0" y="0" width="16" height="9" /><text id="sprotty_78" class="elklabel" transform="translate(17, 10) translate(0, 0)" opacity="1">service</text></g><text id="sprotty_44" class="elklabel" transform="translate(0, -21) translate(0, 0)" opacity="1">deployment-service</text></g><g id="sprotty_7" transform="translate(-16, 279.5)" opacity="1"><rect class="elkport" x="0" y="0" width="16" height="9" /><text id="sprotty_8" class="elklabel" transform="translate(-1, 10) translate(0, 0)" opacity="1">CLICKHOUSE_HOST</text></g><g id="sprotty_10" transform="translate(-16, 339.5)" opacity="1"><rect class="elkport" x="0" y="0" width="16" height="9" /><text id="sprotty_11" class="elklabel" transform="translate(-1, 10) translate(0, 0)" opacity="1">DEFAULT_BROKERS</text></g><g id="sprotty_13" transform="translate(-16, 399.5)" opacity="1"><rect class="elkport" x="0" y="0" width="16" height="9" /><text id="sprotty_14" class="elklabel" transform="translate(-1, 10) translate(0, 0)" opacity="1">REDIS_HOST</text></g><g id="sprotty_16" transform="translate(-16, 459.5)" opacity="1"><rect class="elkport" x="0" y="0" width="16" height="9" /><text id="sprotty_17" class="elklabel" transform="translate(-1, 10) translate(0, 0)" opacity="1">SNUBA_SETTINGS</text></g><g id="sprotty_19" transform="translate(-16, 219.5)" opacity="1"><rect class="elkport" x="0" y="0" width="16" height="9" /><text id="sprotty_20" class="elklabel" transform="translate(-1, 10) translate(0, 0)" opacity="1">env</text></g><g id="sprotty_25" transform="translate(-16, 519.5)" opacity="1"><rect class="elkport" x="0" y="0" width="16" height="9" /><text id="sprotty_26" class="elklabel" transform="translate(-1, 10) translate(0, 0)" opacity="1">annotations</text></g><g id="sprotty_28" transform="translate(-16, 579.5)" opacity="1"><rect class="elkport" x="0" y="0" width="16" height="9" /><text id="sprotty_29" class="elklabel" transform="translate(-1, 10) translate(0, 0)" opacity="1">image</text></g><g id="sprotty_31" transform="translate(-16, 639.5)" opacity="1"><rect class="elkport" x="0" y="0" width="16" height="9" /><text id="sprotty_32" class="elklabel" transform="translate(-1, 10) translate(0, 0)" opacity="1">name</text></g><g id="sprotty_34" transform="translate(-16, 699.5)" opacity="1"><rect class="elkport" x="0" y="0" width="16" height="9" /><text id="sprotty_35" class="elklabel" transform="translate(-1, 10) translate(0, 0)" opacity="1">namespace</text></g><g id="sprotty_37" transform="translate(-16, 759.5)" opacity="1"><rect class="elkport" x="0" y="0" width="16" height="9" /><text id="sprotty_38" class="elklabel" transform="translate(-1, 10) translate(0, 0)" opacity="1">ports</text></g><g id="sprotty_40" transform="translate(-16, 158.5)" opacity="1"><rect class="elkport" x="0" y="0" width="16" height="9" /><text id="sprotty_41" class="elklabel" transform="translate(-1, 10) translate(0, 0)" opacity="1">replicas</text></g><g id="sprotty_81" transform="translate(-16, 819.5)" opacity="1"><rect class="elkport" x="0" y="0" width="16" height="9" /><text id="sprotty_82" class="elklabel" transform="translate(-1, 10) translate(0, 0)" opacity="1">overrides</text></g><g id="sprotty_84" transform="translate(1834, 121)" opacity="1"><rect class="elkport" x="0" y="0" width="16" height="9" /><text id="sprotty_85" class="elklabel" transform="translate(17, 10) translate(0, 0)" opacity="1">deployment</text></g><g id="sprotty_87" transform="translate(1834, 241)" opacity="1"><rect class="elkport" x="0" y="0" width="16" height="9" /><text id="sprotty_88" class="elklabel" transform="translate(17, 10) translate(0, 0)" opacity="1">name</text></g><g id="sprotty_90" transform="translate(1834, 301)" opacity="1"><rect class="elkport" x="0" y="0" width="16" height="9" /><text id="sprotty_91" class="elklabel" transform="translate(17, 10) translate(0, 0)" opacity="1">service</text></g><text id="sprotty_4" class="elklabel" transform="translate(0, -21) translate(0, 0)" opacity="1">modules/sentry/snuba</text><g id="sprotty_9" class="sprotty-edge" opacity="1"><path class="elkedge" d="M 0,284 L 150,284 L 150,234 L 350,234" /><path class="edge arrow" d="M 0,0 L 8,-3 L 8,3 Z" transform="rotate(180 350 234) translate(350 234)" /></g><g id="sprotty_12" class="sprotty-edge" opacity="1"><path class="elkedge" d="M 0,344 L 200,344 L 200,244 L 350,244" /><path class="edge arrow" d="M 0,0 L 8,-3 L 8,3 Z" transform="rotate(180 350 244) translate(350 244)" /></g><g id="sprotty_15" class="sprotty-edge" opacity="1"><path class="elkedge" d="M 0,404 L 250,404 L 250,254 L 350,254" /><path class="edge arrow" d="M 0,0 L 8,-3 L 8,3 Z" transform="rotate(180 350 254) translate(350 254)" /></g><g id="sprotty_18" class="sprotty-edge" opacity="1"><path class="elkedge" d="M 0,464 L 300,464 L 300,264 L 350,264" /><path class="edge arrow" d="M 0,0 L 8,-3 L 8,3 Z" transform="rotate(180 350 264) translate(350 264)" /></g><g id="sprotty_21" class="sprotty-edge" opacity="1"><path class="elkedge" d="M 0,224 L 350,224" /><path class="edge arrow" d="M 0,0 L 8,-3 L 8,3 Z" transform="rotate(180 350 224) translate(350 224)" /></g><g id="sprotty_24" class="sprotty-edge" opacity="1"><path class="elkedge" d="M 550,244 L 600,244 L 600,170.5 L 900,170.5" /><path class="edge arrow" d="M 0,0 L 8,-3 L 8,3 Z" transform="rotate(180 900 170.5) translate(900 170.5)" /></g><g id="sprotty_27" class="sprotty-edge" opacity="1"><path class="elkedge" d="M 0,524 L 650,524 L 650,178 L 900,178" /><path class="edge arrow" d="M 0,0 L 8,-3 L 8,3 Z" transform="rotate(180 900 178) translate(900 178)" /></g><g id="sprotty_30" class="sprotty-edge" opacity="1"><path class="elkedge" d="M 0,584 L 700,584 L 700,185.5 L 900,185.5" /><path class="edge arrow" d="M 0,0 L 8,-3 L 8,3 Z" transform="rotate(180 900 185.5) translate(900 185.5)" /></g><g id="sprotty_33" class="sprotty-edge" opacity="1"><path class="elkedge" d="M 0,644 L 750,644 L 750,193 L 900,193" /><path class="edge arrow" d="M 0,0 L 8,-3 L 8,3 Z" transform="rotate(180 900 193) translate(900 193)" /></g><g id="sprotty_36" class="sprotty-edge" opacity="1"><path class="elkedge" d="M 0,704 L 800,704 L 800,200.5 L 900,200.5" /><path class="edge arrow" d="M 0,0 L 8,-3 L 8,3 Z" transform="rotate(180 900 200.5) translate(900 200.5)" /></g><g id="sprotty_39" class="sprotty-edge" opacity="1"><path class="elkedge" d="M 0,764 L 850,764 L 850,208 L 900,208" /><path class="edge arrow" d="M 0,0 L 8,-3 L 8,3 Z" transform="rotate(180 900 208) translate(900 208)" /></g><g id="sprotty_42" class="sprotty-edge" opacity="1"><path class="elkedge" d="M 0,163 L 900,163" /><path class="edge arrow" d="M 0,0 L 8,-3 L 8,3 Z" transform="rotate(180 900 163) translate(900 163)" /></g><g id="sprotty_49" class="sprotty-edge" opacity="1"><path class="elkedge" d="M 1517,231 L 1517,181" /><path class="edge arrow" d="M 0,0 L 8,-3 L 8,3 Z" transform="rotate(90 1517 181) translate(1517 181)" /></g><g id="sprotty_54" class="sprotty-edge" opacity="1"><path class="elkedge" d="M 1517,451 L 1517,401" /><path class="edge arrow" d="M 0,0 L 8,-3 L 8,3 Z" transform="rotate(90 1517 401) translate(1517 401)" /></g><g id="sprotty_57" class="sprotty-edge" opacity="1"><path class="elkedge" d="M 1312.8126272912423,130 L 1491.582484725051,341" /><path class="edge arrow" d="M 0,0 L 8,-3 L 8,3 Z" transform="rotate(-130.27295566323377 1491.582484725051 341) translate(1491.582484725051 341)" /></g><g id="sprotty_60" class="sprotty-edge" opacity="1"><path class="elkedge" d="M 1517,561 L 1517,291" /><path class="edge arrow" d="M 0,0 L 8,-3 L 8,3 Z" transform="rotate(90 1517 291) translate(1517 291)" /></g><g id="sprotty_63" class="sprotty-edge" opacity="1"><path class="elkedge" d="M 1517,671 L 1517,511" /><path class="edge arrow" d="M 0,0 L 8,-3 L 8,3 Z" transform="rotate(90 1517 511) translate(1517 511)" /></g><g id="sprotty_66" class="sprotty-edge" opacity="1"><path class="elkedge" d="M 1310.815712900097,190 L 1504.8952473326867,671" /><path class="edge arrow" d="M 0,0 L 8,-3 L 8,3 Z" transform="rotate(-111.9736695371 1504.8952473326867 671) translate(1504.8952473326867 671)" /></g><g id="sprotty_67" class="sprotty-edge" opacity="1"><path class="elkedge" d="M 1517,671 L 1517,621" /><path class="edge arrow" d="M 0,0 L 8,-3 L 8,3 Z" transform="rotate(90 1517 621) translate(1517 621)" /></g><g id="sprotty_70" class="sprotty-edge" opacity="1"><path class="elkedge" d="M 1617,138.7403846153846 L 1717,126.48076923076923" /><path class="edge arrow" d="M 0,0 L 8,-3 L 8,3 Z" transform="rotate(173.01063484366153 1717 126.48076923076923) translate(1717 126.48076923076923)" /></g><g id="sprotty_73" class="sprotty-edge" opacity="1"><path class="elkedge" d="M 1529.1047526673133,671 L 1723.184287099903,190" /><path class="edge arrow" d="M 0,0 L 8,-3 L 8,3 Z" transform="rotate(111.9736695371 1723.184287099903 190) translate(1723.184287099903 190)" /></g><g id="sprotty_76" class="sprotty-edge" opacity="1"><path class="elkedge" d="M 1583.031746031746,181 L 1717,241.8653846153846" /><path class="edge arrow" d="M 0,0 L 8,-3 L 8,3 Z" transform="rotate(-155.5664230096372 1717 241.8653846153846) translate(1717 241.8653846153846)" /></g><g id="sprotty_79" class="sprotty-edge" opacity="1"><path class="elkedge" d="M 1612.2671755725191,341 L 1717,308.0192307692308" /><path class="edge arrow" d="M 0,0 L 8,-3 L 8,3 Z" transform="rotate(162.52058471831904 1717 308.0192307692308) translate(1717 308.0192307692308)" /></g><g id="sprotty_80" class="sprotty-edge" opacity="1"><path class="elkedge" d="M 1100,185.5 L 1301,185.5" /><path class="edge arrow" d="M 0,0 L 8,-3 L 8,3 Z" transform="rotate(180 1301 185.5) translate(1301 185.5)" /></g><g id="sprotty_83" class="sprotty-edge" opacity="1"><path class="elkedge" d="M 0,824 L 1150,824 L 1150,185.5 L 1301,185.5" /><path class="edge arrow" d="M 0,0 L 8,-3 L 8,3 Z" transform="rotate(180 1301 185.5) translate(1301 185.5)" /><g id="sprotty_83_j0" transform="translate(1150, 185.5)" opacity="1"><circle class="elkjunction" r="2" /></g></g><g id="sprotty_86" class="sprotty-edge" opacity="1"><path class="elkedge" d="M 1733,125.5 L 1834,125.5" /><path class="edge arrow" d="M 0,0 L 8,-3 L 8,3 Z" transform="rotate(180 1834 125.5) translate(1834 125.5)" /></g><g id="sprotty_89" class="sprotty-edge" opacity="1"><path class="elkedge" d="M 1733,245.5 L 1834,245.5" /><path class="edge arrow" d="M 0,0 L 8,-3 L 8,3 Z" transform="rotate(180 1834 245.5) translate(1834 245.5)" /></g><g id="sprotty_92" class="sprotty-edge" opacity="1"><path class="elkedge" d="M 1733,305.5 L 1834,305.5" /><path class="edge arrow" d="M 0,0 L 8,-3 L 8,3 Z" transform="rotate(180 1834 305.5) translate(1834 305.5)" /></g></g></g></svg>
