<svg id="sprotty_1" class="sprotty-graph sprotty" tabindex="1002" xmlns="http://www.w3.org/2000/svg" viewBox="0 0 4219 2187.5"><style>
.elknode {
    stroke: #448;
    stroke-width: 2;
    fill: #ddf;
    fill-opacity: 0.5;
}

.elkport {
    stroke: #448;
    stroke-width: 1;
    fill: #66c;
}

.elkedge {
    fill: none;
    stroke: #88f;
    stroke-width: 8;
    stroke-opacity: 0.3;
    pointer-events: stroke;
    stroke-linejoin: round;
}

.elkedge:hover {
    stroke: #448;
    stroke-width: 8;
    stroke-opacity: 1;
    stroke-dasharray: 16px;
    stroke-dashoffset: 32px;
    animation: stroke 0.5s linear infinite;
}

@keyframes stroke {
    to {
        stroke-dashoffset: 0;
    }
}

.elkedge.arrow {
    fill: #336;
}

.elklabel {
    stroke-width: 0;
    stroke: #000;
    fill: #000;
    font-family: sans-serif;
    font-size: 10pt;
    dominant-baseline: hanging;
}

.elklabel:hover {
    font-size: 24pt;
}

.elkjunction {
    stroke: none;
    fill: #224;
}

.selected &gt; rect {
    stroke-width: 3;
}

.mouseover {
    stroke: #88f;
}
/*
 * Copyright (C) 2017 TypeFox and others.
 *
 * Licensed under the Apache License, Version 2.0 (the &quot;License&quot;); you may not use this file except in compliance with the License.
 * You may obtain a copy of the License at http://www.apache.org/licenses/LICENSE-2.0
 */

.sprotty {
    padding: 0px;
    font-family: &quot;Helvetica Neue&quot;, Helvetica, Arial, sans-serif;
}

.sprotty-hidden {
    display: block;
    position: absolute;
    width: 0px;
    height: 0px;
}

.sprotty-popup {
    font-family: &quot;Helvetica Neue&quot;, Helvetica, Arial, sans-serif;
    position: absolute;
    background: white;
    border-radius: 5px;
    border: 1px solid;
    max-width: 400px;
    min-width: 100px;
}

.sprotty-popup &gt; div {
    margin: 10px;
}

.sprotty-popup-closed {
    display: none;
}
</style><g transform="scale(1) translate(0,0)"><g id="sprotty_3" transform="translate(117, 71)" opacity="1"><rect class="elknode" x="0" y="0" rx="10" width="4002" height="2066.5" /><g id="sprotty_5" transform="translate(100, 50)" opacity="1"><rect class="elknode" x="0" y="0" rx="10" width="200" height="60" /><text id="sprotty_6" class="elklabel" transform="translate(5, 22) translate(0, 0)" opacity="1">k8s_core_v1_namespace.this</text></g><g id="sprotty_10" transform="translate(2601, 237.5)" opacity="1"><rect class="elknode" x="0" y="0" rx="10" width="200" height="60" /><text id="sprotty_11" class="elklabel" transform="translate(5, 22) translate(0, 0)" opacity="1">k8s_networking_k8s_io_v1beta1_ingress.cockroachdb</text></g><g id="sprotty_13" transform="translate(867, 168)" opacity="1"><rect class="elknode" x="0" y="0" rx="10" width="1400" height="1202" /><g id="sprotty_32" transform="translate(100, 50)" opacity="1"><rect class="elknode" x="0" y="0" rx="10" width="200" height="60" /><text id="sprotty_33" class="elklabel" transform="translate(5, 22) translate(0, 0)" opacity="1">local.cluster-name</text></g><g id="sprotty_40" transform="translate(350, 50)" opacity="1"><rect class="elknode" x="0" y="0" rx="10" width="200" height="60" /><text id="sprotty_41" class="elklabel" transform="translate(5, 22) translate(0, 0)" opacity="1">local.host</text></g><g id="sprotty_44" transform="translate(600, 50)" opacity="1"><rect class="elknode" x="0" y="0" rx="10" width="200" height="60" /><text id="sprotty_45" class="elklabel" transform="translate(5, 22) translate(0, 0)" opacity="1">local.parameters</text></g><g id="sprotty_47" transform="translate(850, 50)" opacity="1"><rect class="elknode" x="0" y="0" rx="10" width="200" height="60" /><text id="sprotty_48" class="elklabel" transform="translate(5, 22) translate(0, 0)" opacity="1">local.servers</text></g><g id="sprotty_79" transform="translate(1100, 50)" opacity="1"><rect class="elknode" x="0" y="0" rx="10" width="200" height="60" /><text id="sprotty_80" class="elklabel" transform="translate(5, 22) translate(0, 0)" opacity="1">module.init-job</text></g><g id="sprotty_84" transform="translate(117, 181)" opacity="1"><rect class="elknode" x="0" y="0" rx="10" width="400" height="410" /><g id="sprotty_86" transform="translate(100, 50)" opacity="1"><rect class="elknode" x="0" y="0" rx="10" width="200" height="60" /><text id="sprotty_87" class="elklabel" transform="translate(5, 22) translate(0, 0)" opacity="1">k8s_batch_v1_job.this</text></g><g id="sprotty_88" transform="translate(-16, 50)" opacity="1"><rect class="elkport" x="0" y="0" width="16" height="9" /><text id="sprotty_89" class="elklabel" transform="translate(-1, 10) translate(0, 0)" opacity="1">backoff_limit</text></g><g id="sprotty_91" transform="translate(-16, 110)" opacity="1"><rect class="elkport" x="0" y="0" width="16" height="9" /><text id="sprotty_92" class="elklabel" transform="translate(-1, 10) translate(0, 0)" opacity="1">command</text></g><g id="sprotty_94" transform="translate(-16, 170)" opacity="1"><rect class="elkport" x="0" y="0" width="16" height="9" /><text id="sprotty_95" class="elklabel" transform="translate(-1, 10) translate(0, 0)" opacity="1">image</text></g><g id="sprotty_97" transform="translate(-16, 230)" opacity="1"><rect class="elkport" x="0" y="0" width="16" height="9" /><text id="sprotty_98" class="elklabel" transform="translate(-1, 10) translate(0, 0)" opacity="1">name</text></g><g id="sprotty_100" transform="translate(-16, 290)" opacity="1"><rect class="elkport" x="0" y="0" width="16" height="9" /><text id="sprotty_101" class="elklabel" transform="translate(-1, 10) translate(0, 0)" opacity="1">namespace</text></g><g id="sprotty_103" transform="translate(-16, 350)" opacity="1"><rect class="elkport" x="0" y="0" width="16" height="9" /><text id="sprotty_104" class="elklabel" transform="translate(-1, 10) translate(0, 0)" opacity="1">restart_policy</text></g><text id="sprotty_85" class="elklabel" transform="translate(0, -21) translate(0, 0)" opacity="1">init-job</text></g><g id="sprotty_116" transform="translate(567, 160)" opacity="1"><rect class="elknode" x="0" y="0" rx="10" width="200" height="60" /><text id="sprotty_117" class="elklabel" transform="translate(5, 22) translate(0, 0)" opacity="1">module.statefulset-service</text></g><g id="sprotty_119" transform="translate(117, 662)" opacity="1"><rect class="elknode" x="0" y="0" rx="10" width="650" height="490" /><g id="sprotty_121" transform="translate(100, 50)" opacity="1"><rect class="elknode" x="0" y="0" rx="10" width="200" height="60" /><text id="sprotty_122" class="elklabel" transform="translate(5, 22) translate(0, 0)" opacity="1">k8s_apps_v1_stateful_set.this</text></g><g id="sprotty_123" transform="translate(350, 50)" opacity="1"><rect class="elknode" x="0" y="0" rx="10" width="200" height="60" /><text id="sprotty_124" class="elklabel" transform="translate(5, 22) translate(0, 0)" opacity="1">local.k8s_apps_v1_stateful_set_parameters</text></g><g id="sprotty_126" transform="translate(100, 160)" opacity="1"><rect class="elknode" x="0" y="0" rx="10" width="200" height="60" /><text id="sprotty_127" class="elklabel" transform="translate(5, 22) translate(0, 0)" opacity="1">k8s_core_v1_service.this</text></g><g id="sprotty_128" transform="translate(350, 160)" opacity="1"><rect class="elknode" x="0" y="0" rx="10" width="200" height="60" /><text id="sprotty_129" class="elklabel" transform="translate(5, 22) translate(0, 0)" opacity="1">local.enable_service</text></g><g id="sprotty_131" transform="translate(100, 270)" opacity="1"><rect class="elknode" x="0" y="0" rx="10" width="200" height="60" /><text id="sprotty_132" class="elklabel" transform="translate(5, 22) translate(0, 0)" opacity="1">local.k8s_core_v1_service_parameters</text></g><g id="sprotty_137" transform="translate(350, 270)" opacity="1"><rect class="elknode" x="0" y="0" rx="10" width="200" height="60" /><text id="sprotty_138" class="elklabel" transform="translate(5, 22) translate(0, 0)" opacity="1">local.podAnnotations</text></g><g id="sprotty_140" transform="translate(100, 380)" opacity="1"><rect class="elknode" x="0" y="0" rx="10" width="200" height="60" /><text id="sprotty_141" class="elklabel" transform="translate(5, 22) translate(0, 0)" opacity="1">local.selector</text></g><g id="sprotty_143" transform="translate(350, 380)" opacity="1"><rect class="elknode" x="0" y="0" rx="10" width="200" height="60" /><text id="sprotty_144" class="elklabel" transform="translate(5, 22) translate(0, 0)" opacity="1">local.labels</text></g><g id="sprotty_134" transform="translate(-16, 50)" opacity="1"><rect class="elkport" x="0" y="0" width="16" height="9" /><text id="sprotty_135" class="elklabel" transform="translate(-1, -1) translate(0, 0)" opacity="1">parameters</text></g><g id="sprotty_148" transform="translate(-16, 110)" opacity="1"><rect class="elkport" x="0" y="0" width="16" height="9" /><text id="sprotty_149" class="elklabel" transform="translate(-1, 10) translate(0, 0)" opacity="1">podAnnotations</text></g><g id="sprotty_152" transform="translate(650, 50)" opacity="1"><rect class="elkport" x="0" y="0" width="16" height="9" /><text id="sprotty_153" class="elklabel" transform="translate(17, 10) translate(0, 0)" opacity="1">labels</text></g><g id="sprotty_155" transform="translate(650, 110)" opacity="1"><rect class="elkport" x="0" y="0" width="16" height="9" /><text id="sprotty_156" class="elklabel" transform="translate(17, 10) translate(0, 0)" opacity="1">name</text></g><g id="sprotty_158" transform="translate(650, 170)" opacity="1"><rect class="elkport" x="0" y="0" width="16" height="9" /><text id="sprotty_159" class="elklabel" transform="translate(17, 10) translate(0, 0)" opacity="1">service</text></g><g id="sprotty_161" transform="translate(650, 230)" opacity="1"><rect class="elkport" x="0" y="0" width="16" height="9" /><text id="sprotty_162" class="elklabel" transform="translate(17, 10) translate(0, 0)" opacity="1">statefulset</text></g><text id="sprotty_120" class="elklabel" transform="translate(0, -21) translate(0, 0)" opacity="1">statefulset-service</text></g><g id="sprotty_15" transform="translate(1400, 50)" opacity="1"><rect class="elkport" x="0" y="0" width="16" height="9" /><text id="sprotty_16" class="elklabel" transform="translate(17, 10) translate(0, 0)" opacity="1">name</text></g><g id="sprotty_18" transform="translate(1400, 110)" opacity="1"><rect class="elkport" x="0" y="0" width="16" height="9" /><text id="sprotty_19" class="elklabel" transform="translate(17, 10) translate(0, 0)" opacity="1">ports</text></g><g id="sprotty_34" transform="translate(-16, 50)" opacity="1"><rect class="elkport" x="0" y="0" width="16" height="9" /><text id="sprotty_35" class="elklabel" transform="translate(-1, 10) translate(0, 0)" opacity="1">name</text></g><g id="sprotty_37" transform="translate(-16, 110)" opacity="1"><rect class="elkport" x="0" y="0" width="16" height="9" /><text id="sprotty_38" class="elklabel" transform="translate(-1, 10) translate(0, 0)" opacity="1">namespace</text></g><g id="sprotty_50" transform="translate(-16, 170)" opacity="1"><rect class="elkport" x="0" y="0" width="16" height="9" /><text id="sprotty_51" class="elklabel" transform="translate(-1, 10) translate(0, 0)" opacity="1">annotations</text></g><g id="sprotty_53" transform="translate(-16, 230)" opacity="1"><rect class="elkport" x="0" y="0" width="16" height="9" /><text id="sprotty_54" class="elklabel" transform="translate(-1, 10) translate(0, 0)" opacity="1">env</text></g><g id="sprotty_56" transform="translate(-16, 290)" opacity="1"><rect class="elkport" x="0" y="0" width="16" height="9" /><text id="sprotty_57" class="elklabel" transform="translate(-1, 10) translate(0, 0)" opacity="1">image</text></g><g id="sprotty_59" transform="translate(-16, 350)" opacity="1"><rect class="elkport" x="0" y="0" width="16" height="9" /><text id="sprotty_60" class="elklabel" transform="translate(-1, 10) translate(0, 0)" opacity="1">ports</text></g><g id="sprotty_62" transform="translate(-16, 410)" opacity="1"><rect class="elkport" x="0" y="0" width="16" height="9" /><text id="sprotty_63" class="elklabel" transform="translate(-1, 10) translate(0, 0)" opacity="1">resources</text></g><g id="sprotty_65" transform="translate(-16, 470)" opacity="1"><rect class="elkport" x="0" y="0" width="16" height="9" /><text id="sprotty_66" class="elklabel" transform="translate(-1, 10) translate(0, 0)" opacity="1">storage</text></g><g id="sprotty_68" transform="translate(-16, 530)" opacity="1"><rect class="elkport" x="0" y="0" width="16" height="9" /><text id="sprotty_69" class="elklabel" transform="translate(-1, 10) translate(0, 0)" opacity="1">storage_class</text></g><g id="sprotty_71" transform="translate(-16, 590)" opacity="1"><rect class="elkport" x="0" y="0" width="16" height="9" /><text id="sprotty_72" class="elklabel" transform="translate(-1, 10) translate(0, 0)" opacity="1">volume_claim_template_name</text></g><g id="sprotty_76" transform="translate(-16, 650)" opacity="1"><rect class="elkport" x="0" y="0" width="16" height="9" /><text id="sprotty_77" class="elklabel" transform="translate(-1, 10) translate(0, 0)" opacity="1">replicas</text></g><g id="sprotty_166" transform="translate(-16, 710)" opacity="1"><rect class="elkport" x="0" y="0" width="16" height="9" /><text id="sprotty_167" class="elklabel" transform="translate(-1, 10) translate(0, 0)" opacity="1">overrides</text></g><g id="sprotty_172" transform="translate(1400, 170)" opacity="1"><rect class="elkport" x="0" y="0" width="16" height="9" /><text id="sprotty_173" class="elklabel" transform="translate(17, 10) translate(0, 0)" opacity="1">service</text></g><g id="sprotty_175" transform="translate(1400, 230)" opacity="1"><rect class="elkport" x="0" y="0" width="16" height="9" /><text id="sprotty_176" class="elklabel" transform="translate(17, 10) translate(0, 0)" opacity="1">statefulset</text></g><text id="sprotty_14" class="elklabel" transform="translate(0, -21) translate(0, 0)" opacity="1">cockroachdb</text></g><g id="sprotty_21" transform="translate(3702, 71)" opacity="1"><rect class="elknode" x="0" y="0" rx="10" width="200" height="60" /><text id="sprotty_22" class="elklabel" transform="translate(5, 22) translate(0, 0)" opacity="1">k8s_networking_k8s_io_v1beta1_ingress.flowable</text></g><g id="sprotty_24" transform="translate(2601, 1245.5)" opacity="1"><rect class="elknode" x="0" y="0" rx="10" width="884" height="721" /><g id="sprotty_191" transform="translate(100, 50)" opacity="1"><rect class="elknode" x="0" y="0" rx="10" width="200" height="60" /><text id="sprotty_192" class="elklabel" transform="translate(5, 22) translate(0, 0)" opacity="1">local.parameters</text></g><g id="sprotty_211" transform="translate(350, 50)" opacity="1"><rect class="elknode" x="0" y="0" rx="10" width="200" height="60" /><text id="sprotty_212" class="elklabel" transform="translate(5, 22) translate(0, 0)" opacity="1">module.deployment-service</text></g><g id="sprotty_216" transform="translate(117, 181)" opacity="1"><rect class="elknode" x="0" y="0" rx="10" width="650" height="490" /><g id="sprotty_218" transform="translate(100, 50)" opacity="1"><rect class="elknode" x="0" y="0" rx="10" width="200" height="60" /><text id="sprotty_219" class="elklabel" transform="translate(5, 22) translate(0, 0)" opacity="1">k8s_apps_v1_deployment.this</text></g><g id="sprotty_220" transform="translate(350, 50)" opacity="1"><rect class="elknode" x="0" y="0" rx="10" width="200" height="60" /><text id="sprotty_221" class="elklabel" transform="translate(5, 22) translate(0, 0)" opacity="1">local.k8s_apps_v1_deployment_parameters</text></g><g id="sprotty_223" transform="translate(100, 160)" opacity="1"><rect class="elknode" x="0" y="0" rx="10" width="200" height="60" /><text id="sprotty_224" class="elklabel" transform="translate(5, 22) translate(0, 0)" opacity="1">k8s_core_v1_service.this</text></g><g id="sprotty_225" transform="translate(350, 160)" opacity="1"><rect class="elknode" x="0" y="0" rx="10" width="200" height="60" /><text id="sprotty_226" class="elklabel" transform="translate(5, 22) translate(0, 0)" opacity="1">local.enable_service</text></g><g id="sprotty_228" transform="translate(100, 270)" opacity="1"><rect class="elknode" x="0" y="0" rx="10" width="200" height="60" /><text id="sprotty_229" class="elklabel" transform="translate(5, 22) translate(0, 0)" opacity="1">local.k8s_core_v1_service_parameters</text></g><g id="sprotty_234" transform="translate(350, 270)" opacity="1"><rect class="elknode" x="0" y="0" rx="10" width="200" height="60" /><text id="sprotty_235" class="elklabel" transform="translate(5, 22) translate(0, 0)" opacity="1">local.podAnnotations</text></g><g id="sprotty_237" transform="translate(100, 380)" opacity="1"><rect class="elknode" x="0" y="0" rx="10" width="200" height="60" /><text id="sprotty_238" class="elklabel" transform="translate(5, 22) translate(0, 0)" opacity="1">local.selector</text></g><g id="sprotty_240" transform="translate(350, 380)" opacity="1"><rect class="elknode" x="0" y="0" rx="10" width="200" height="60" /><text id="sprotty_241" class="elklabel" transform="translate(5, 22) translate(0, 0)" opacity="1">local.labels</text></g><g id="sprotty_231" transform="translate(-16, 50)" opacity="1"><rect class="elkport" x="0" y="0" width="16" height="9" /><text id="sprotty_232" class="elklabel" transform="translate(-1, -1) translate(0, 0)" opacity="1">parameters</text></g><g id="sprotty_245" transform="translate(-16, 110)" opacity="1"><rect class="elkport" x="0" y="0" width="16" height="9" /><text id="sprotty_246" class="elklabel" transform="translate(-1, 10) translate(0, 0)" opacity="1">podAnnotations</text></g><g id="sprotty_249" transform="translate(650, 50)" opacity="1"><rect class="elkport" x="0" y="0" width="16" height="9" /><text id="sprotty_250" class="elklabel" transform="translate(17, 10) translate(0, 0)" opacity="1">deployment</text></g><g id="sprotty_252" transform="translate(650, 110)" opacity="1"><rect class="elkport" x="0" y="0" width="16" height="9" /><text id="sprotty_253" class="elklabel" transform="translate(17, 10) translate(0, 0)" opacity="1">labels</text></g><g id="sprotty_255" transform="translate(650, 170)" opacity="1"><rect class="elkport" x="0" y="0" width="16" height="9" /><text id="sprotty_256" class="elklabel" transform="translate(17, 10) translate(0, 0)" opacity="1">name</text></g><g id="sprotty_258" transform="translate(650, 230)" opacity="1"><rect class="elkport" x="0" y="0" width="16" height="9" /><text id="sprotty_259" class="elklabel" transform="translate(17, 10) translate(0, 0)" opacity="1">service</text></g><text id="sprotty_217" class="elklabel" transform="translate(0, -21) translate(0, 0)" opacity="1">deployment-service</text></g><g id="sprotty_26" transform="translate(884, 50)" opacity="1"><rect class="elkport" x="0" y="0" width="16" height="9" /><text id="sprotty_27" class="elklabel" transform="translate(17, 10) translate(0, 0)" opacity="1">name</text></g><g id="sprotty_29" transform="translate(884, 110)" opacity="1"><rect class="elkport" x="0" y="0" width="16" height="9" /><text id="sprotty_30" class="elklabel" transform="translate(17, 10) translate(0, 0)" opacity="1">ports</text></g><g id="sprotty_193" transform="translate(-16, 50)" opacity="1"><rect class="elkport" x="0" y="0" width="16" height="9" /><text id="sprotty_194" class="elklabel" transform="translate(-1, 10) translate(0, 0)" opacity="1">env</text></g><g id="sprotty_196" transform="translate(-16, 110)" opacity="1"><rect class="elkport" x="0" y="0" width="16" height="9" /><text id="sprotty_197" class="elklabel" transform="translate(-1, 10) translate(0, 0)" opacity="1">image</text></g><g id="sprotty_199" transform="translate(-16, 170)" opacity="1"><rect class="elkport" x="0" y="0" width="16" height="9" /><text id="sprotty_200" class="elklabel" transform="translate(-1, 10) translate(0, 0)" opacity="1">name</text></g><g id="sprotty_202" transform="translate(-16, 230)" opacity="1"><rect class="elkport" x="0" y="0" width="16" height="9" /><text id="sprotty_203" class="elklabel" transform="translate(-1, 10) translate(0, 0)" opacity="1">namespace</text></g><g id="sprotty_205" transform="translate(-16, 290)" opacity="1"><rect class="elkport" x="0" y="0" width="16" height="9" /><text id="sprotty_206" class="elklabel" transform="translate(-1, 10) translate(0, 0)" opacity="1">ports</text></g><g id="sprotty_208" transform="translate(-16, 350)" opacity="1"><rect class="elkport" x="0" y="0" width="16" height="9" /><text id="sprotty_209" class="elklabel" transform="translate(-1, 10) translate(0, 0)" opacity="1">replicas</text></g><g id="sprotty_263" transform="translate(-16, 410)" opacity="1"><rect class="elkport" x="0" y="0" width="16" height="9" /><text id="sprotty_264" class="elklabel" transform="translate(-1, 10) translate(0, 0)" opacity="1">overrides</text></g><g id="sprotty_267" transform="translate(884, 170)" opacity="1"><rect class="elkport" x="0" y="0" width="16" height="9" /><text id="sprotty_268" class="elklabel" transform="translate(17, 10) translate(0, 0)" opacity="1">deployment</text></g><g id="sprotty_272" transform="translate(884, 230)" opacity="1"><rect class="elkport" x="0" y="0" width="16" height="9" /><text id="sprotty_273" class="elklabel" transform="translate(17, 10) translate(0, 0)" opacity="1">service</text></g><g id="sprotty_275" transform="translate(-16, 470)" opacity="1"><rect class="elkport" x="0" y="0" width="16" height="9" /><text id="sprotty_276" class="elklabel" transform="translate(-1, 10) translate(0, 0)" opacity="1">annotations</text></g><text id="sprotty_25" class="elklabel" transform="translate(0, -21) translate(0, 0)" opacity="1">flowable</text></g><g id="sprotty_81" transform="translate(100, 827.1153846153846)" opacity="1"><rect class="elknode" x="0" y="0" rx="10" width="200" height="60" /><text id="sprotty_82" class="elklabel" transform="translate(5, 22) translate(0, 0)" opacity="1">module.cockroachdb</text></g><g id="sprotty_213" transform="translate(2067, 1471)" opacity="1"><rect class="elknode" x="0" y="0" rx="10" width="200" height="60" /><text id="sprotty_214" class="elklabel" transform="translate(5, 22) translate(0, 0)" opacity="1">module.flowable</text></g><g id="sprotty_7" transform="translate(-16, 75.5)" opacity="1"><rect class="elkport" x="0" y="0" width="16" height="9" /><text id="sprotty_8" class="elklabel" transform="translate(-1, -1) translate(0, 0)" opacity="1">namespace</text></g><g id="sprotty_283" transform="translate(-16, 1415.5)" opacity="1"><rect class="elkport" x="0" y="0" width="16" height="9" /><text id="sprotty_284" class="elklabel" transform="translate(-1, 10) translate(0, 0)" opacity="1">name</text></g><text id="sprotty_4" class="elklabel" transform="translate(0, -21) translate(0, 0)" opacity="1">examples/flowable</text><g id="sprotty_9" class="sprotty-edge" opacity="1"><path class="elkedge" d="M 0,80 L 100,80" /><path class="edge arrow" d="M 0,0 L 8,-3 L 8,3 Z" transform="rotate(180 100 80) translate(100 80)" /></g><g id="sprotty_12" class="sprotty-edge" opacity="1"><path class="elkedge" d="M 300,62 L 350,62 L 350,63 L 2534,63 L 2534,252.5 L 2601,252.5" /><path class="edge arrow" d="M 0,0 L 8,-3 L 8,3 Z" transform="rotate(180 2601 252.5) translate(2601 252.5)" /></g><g id="sprotty_17" class="sprotty-edge" opacity="1"><path class="elkedge" d="M 2283,222.5 L 2334,222.5 L 2334,267.5 L 2601,267.5" /><path class="edge arrow" d="M 0,0 L 8,-3 L 8,3 Z" transform="rotate(180 2601 267.5) translate(2601 267.5)" /><g id="sprotty_17_j0" transform="translate(2334, 267.5)" opacity="1"><circle class="elkjunction" r="2" /></g></g><g id="sprotty_20" class="sprotty-edge" opacity="1"><path class="elkedge" d="M 2283,282.5 L 2601,282.5" /><path class="edge arrow" d="M 0,0 L 8,-3 L 8,3 Z" transform="rotate(180 2601 282.5) translate(2601 282.5)" /></g><g id="sprotty_23" class="sprotty-edge" opacity="1"><path class="elkedge" d="M 300,86 L 3702,86" /><path class="edge arrow" d="M 0,0 L 8,-3 L 8,3 Z" transform="rotate(180 3702 86) translate(3702 86)" /></g><g id="sprotty_28" class="sprotty-edge" opacity="1"><path class="elkedge" d="M 3501,1300 L 3552,1300 L 3552,101 L 3702,101" /><path class="edge arrow" d="M 0,0 L 8,-3 L 8,3 Z" transform="rotate(180 3702 101) translate(3702 101)" /></g><g id="sprotty_31" class="sprotty-edge" opacity="1"><path class="elkedge" d="M 3501,1360 L 3602,1360 L 3602,116 L 3702,116" /><path class="edge arrow" d="M 0,0 L 8,-3 L 8,3 Z" transform="rotate(180 3702 116) translate(3702 116)" /><g id="sprotty_31_j0" transform="translate(3602, 1360)" opacity="1"><circle class="elkjunction" r="2" /></g></g><g id="sprotty_36" class="sprotty-edge" opacity="1"><path class="elkedge" d="M 867,223.48076923076923 L 967,235.7403846153846" /><path class="edge arrow" d="M 0,0 L 8,-3 L 8,3 Z" transform="rotate(-173.01063484366153 967 235.7403846153846) translate(967 235.7403846153846)" /></g><g id="sprotty_39" class="sprotty-edge" opacity="1"><path class="elkedge" d="M 867,281.1730769230769 L 967,264.58653846153845" /><path class="edge arrow" d="M 0,0 L 8,-3 L 8,3 Z" transform="rotate(170.58235285466571 967 264.58653846153845) translate(967 264.58653846153845)" /></g><g id="sprotty_42" class="sprotty-edge" opacity="1"><path class="elkedge" d="M 867,222.94541484716157 L 1217,242.43231441048033" /><path class="edge arrow" d="M 0,0 L 8,-3 L 8,3 Z" transform="rotate(-176.81324131380964 1217 242.43231441048033) translate(1217 242.43231441048033)" /></g><g id="sprotty_43" class="sprotty-edge" opacity="1"><path class="elkedge" d="M 867,281.8973799126637 L 1217,255.53275109170306" /><path class="edge arrow" d="M 0,0 L 8,-3 L 8,3 Z" transform="rotate(175.69218709699993 1217 255.53275109170306) translate(1217 255.53275109170306)" /></g><g id="sprotty_46" class="sprotty-edge" opacity="1"><path class="elkedge" d="M 1167,248 L 1467,248" /><path class="edge arrow" d="M 0,0 L 8,-3 L 8,3 Z" transform="rotate(180 1467 248) translate(1467 248)" /></g><g id="sprotty_49" class="sprotty-edge" opacity="1"><path class="elkedge" d="M 1717,248 L 1667,248" /><path class="edge arrow" d="M 0,0 L 8,-3 L 8,3 Z" transform="rotate(0 1667 248) translate(1667 248)" /></g><g id="sprotty_52" class="sprotty-edge" opacity="1"><path class="elkedge" d="M 867,341.43220338983053 L 1467,261.3474576271186" /><path class="edge arrow" d="M 0,0 L 8,-3 L 8,3 Z" transform="rotate(172.39740551023937 1467 261.3474576271186) translate(1467 261.3474576271186)" /></g><g id="sprotty_55" class="sprotty-edge" opacity="1"><path class="elkedge" d="M 867,400.7542372881356 L 1467,269.8220338983051" /><path class="edge arrow" d="M 0,0 L 8,-3 L 8,3 Z" transform="rotate(167.6898774102715 1467 269.8220338983051) translate(1467 269.8220338983051)" /></g><g id="sprotty_58" class="sprotty-edge" opacity="1"><path class="elkedge" d="M 867,460.0762711864407 L 1467.979020979021,278" /><path class="edge arrow" d="M 0,0 L 8,-3 L 8,3 Z" transform="rotate(163.1449703831171 1467.979020979021 278) translate(1467.979020979021 278)" /></g><g id="sprotty_61" class="sprotty-edge" opacity="1"><path class="elkedge" d="M 867,519.3983050847457 L 1489.622950819672,278" /><path class="edge arrow" d="M 0,0 L 8,-3 L 8,3 Z" transform="rotate(158.80809709032337 1489.622950819672 278) translate(1489.622950819672 278)" /></g><g id="sprotty_64" class="sprotty-edge" opacity="1"><path class="elkedge" d="M 867,578.7203389830509 L 1503.5022421524664,278" /><path class="edge arrow" d="M 0,0 L 8,-3 L 8,3 Z" transform="rotate(154.71125033264113 1503.5022421524664 278) translate(1503.5022421524664 278)" /></g><g id="sprotty_67" class="sprotty-edge" opacity="1"><path class="elkedge" d="M 867,638.042372881356 L 1513.1596958174905,278" /><path class="edge arrow" d="M 0,0 L 8,-3 L 8,3 Z" transform="rotate(150.87329986552595 1513.1596958174905 278) translate(1513.1596958174905 278)" /></g><g id="sprotty_70" class="sprotty-edge" opacity="1"><path class="elkedge" d="M 866.009900990099,698 L 1520.2673267326732,278" /><path class="edge arrow" d="M 0,0 L 8,-3 L 8,3 Z" transform="rotate(147.30160014778943 1520.2673267326732 278) translate(1520.2673267326732 278)" /></g><g id="sprotty_73" class="sprotty-edge" opacity="1"><path class="elkedge" d="M 865.1924198250729,758 L 1525.7172011661808,278" /><path class="edge arrow" d="M 0,0 L 8,-3 L 8,3 Z" transform="rotate(143.99428580470885 1525.7172011661808 278) translate(1525.7172011661808 278)" /></g><g id="sprotty_74" class="sprotty-edge" opacity="1"><path class="elkedge" d="M 867,222.71294363256786 L 1717,245.3382045929019" /><path class="edge arrow" d="M 0,0 L 8,-3 L 8,3 Z" transform="rotate(-178.47526360422785 1717 245.3382045929019) translate(1717 245.3382045929019)" /></g><g id="sprotty_75" class="sprotty-edge" opacity="1"><path class="elkedge" d="M 867,282.21189979123176 L 1717,251.60125260960334" /><path class="edge arrow" d="M 0,0 L 8,-3 L 8,3 Z" transform="rotate(177.9375255460533 1717 251.60125260960334) translate(1717 251.60125260960334)" /></g><g id="sprotty_78" class="sprotty-edge" opacity="1"><path class="elkedge" d="M 866.5039164490862,818 L 1766.9738903394255,278" /><path class="edge arrow" d="M 0,0 L 8,-3 L 8,3 Z" transform="rotate(149.04943816628378 1766.9738903394255 278) translate(1766.9738903394255 278)" /></g><g id="sprotty_83" class="sprotty-edge" opacity="1"><path class="elkedge" d="M 291.95302140556925,827.1153846153846 L 1975.0469785944308,278" /><path class="edge arrow" d="M 0,0 L 8,-3 L 8,3 Z" transform="rotate(161.93090060297314 1975.0469785944308 278) translate(1975.0469785944308 278)" /></g><g id="sprotty_90" class="sprotty-edge" opacity="1"><path class="elkedge" d="M 984,404.4807692307692 L 1084,416.74038461538464" /><path class="edge arrow" d="M 0,0 L 8,-3 L 8,3 Z" transform="rotate(-173.0106348436615 1084 416.74038461538464) translate(1084 416.74038461538464)" /></g><g id="sprotty_93" class="sprotty-edge" opacity="1"><path class="elkedge" d="M 984,462.1730769230769 L 1084,445.58653846153845" /><path class="edge arrow" d="M 0,0 L 8,-3 L 8,3 Z" transform="rotate(170.58235285466571 1084 445.58653846153845) translate(1084 445.58653846153845)" /></g><g id="sprotty_96" class="sprotty-edge" opacity="1"><path class="elkedge" d="M 984,519.8653846153846 L 1117.968253968254,459" /><path class="edge arrow" d="M 0,0 L 8,-3 L 8,3 Z" transform="rotate(155.5664230096372 1117.968253968254 459) translate(1117.968253968254 459)" /></g><g id="sprotty_99" class="sprotty-edge" opacity="1"><path class="elkedge" d="M 982.0582524271845,579 L 1143.611650485437,459" /><path class="edge arrow" d="M 0,0 L 8,-3 L 8,3 Z" transform="rotate(143.39546107211748 1143.611650485437 459) translate(1143.611650485437 459)" /></g><g id="sprotty_102" class="sprotty-edge" opacity="1"><path class="elkedge" d="M 980.3636363636364,639 L 1154.909090909091,459" /><path class="edge arrow" d="M 0,0 L 8,-3 L 8,3 Z" transform="rotate(134.11859600341788 1154.909090909091 459) translate(1154.909090909091 459)" /></g><g id="sprotty_105" class="sprotty-edge" opacity="1"><path class="elkedge" d="M 979.4098360655738,699 L 1161.2677595628415,459" /><path class="edge arrow" d="M 0,0 L 8,-3 L 8,3 Z" transform="rotate(127.1527142373108 1161.2677595628415 459) translate(1161.2677595628415 459)" /></g><g id="sprotty_106" class="sprotty-edge" opacity="1"><path class="elkedge" d="M 1967,262.2529789184235 L 984,402.3597616865261" /><path class="edge arrow" d="M 0,0 L 8,-3 L 8,3 Z" transform="rotate(-8.111720648173515 984 402.3597616865261) translate(984 402.3597616865261)" /></g><g id="sprotty_107" class="sprotty-edge" opacity="1"><path class="elkedge" d="M 1054.3317865429235,278 L 977.9002320185615,459" /><path class="edge arrow" d="M 0,0 L 8,-3 L 8,3 Z" transform="rotate(-67.10694119897957 977.9002320185615 459) translate(977.9002320185615 459)" /></g><g id="sprotty_108" class="sprotty-edge" opacity="1"><path class="elkedge" d="M 1269.5290023201856,278 L 983.1206496519721,459" /><path class="edge arrow" d="M 0,0 L 8,-3 L 8,3 Z" transform="rotate(-32.29144568745698 983.1206496519721 459) translate(983.1206496519721 459)" /></g><g id="sprotty_109" class="sprotty-edge" opacity="1"><path class="elkedge" d="M 1967,267.7525206232814 L 984,461.9197983501375" /><path class="edge arrow" d="M 0,0 L 8,-3 L 8,3 Z" transform="rotate(-11.173526237874848 984 461.9197983501375) translate(984 461.9197983501375)" /></g><g id="sprotty_110" class="sprotty-edge" opacity="1"><path class="elkedge" d="M 1967,273.25206232813935 L 984,521.4798350137489" /><path class="edge arrow" d="M 0,0 L 8,-3 L 8,3 Z" transform="rotate(-14.172088363644287 984 521.4798350137489) translate(984 521.4798350137489)" /></g><g id="sprotty_111" class="sprotty-edge" opacity="1"><path class="elkedge" d="M 867,466.6709401709402 L 968,519.3290598290598" /><path class="edge arrow" d="M 0,0 L 8,-3 L 8,3 Z" transform="rotate(-152.46392689184287 968 519.3290598290598) translate(968 519.3290598290598)" /></g><g id="sprotty_112" class="sprotty-edge" opacity="1"><path class="elkedge" d="M 1969.4441132637853,278 L 984,581.0398716773602" /><path class="edge arrow" d="M 0,0 L 8,-3 L 8,3 Z" transform="rotate(-17.09350259561955 984 581.0398716773602) translate(984 581.0398716773602)" /></g><g id="sprotty_113" class="sprotty-edge" opacity="1"><path class="elkedge" d="M 1984.24399494311,278 L 984,640.5999083409715" /><path class="edge arrow" d="M 0,0 L 8,-3 L 8,3 Z" transform="rotate(-19.92616087154754 984 640.5999083409715) translate(984 640.5999083409715)" /></g><g id="sprotty_114" class="sprotty-edge" opacity="1"><path class="elkedge" d="M 860.4584487534626,287 L 974.5415512465374,639" /><path class="edge arrow" d="M 0,0 L 8,-3 L 8,3 Z" transform="rotate(-107.95749504561246 974.5415512465374 639) translate(974.5415512465374 639)" /></g><g id="sprotty_115" class="sprotty-edge" opacity="1"><path class="elkedge" d="M 1995.14489571899,278 L 984,700.1599450045829" /><path class="edge arrow" d="M 0,0 L 8,-3 L 8,3 Z" transform="rotate(-22.660871712543642 984 700.1599450045829) translate(984 700.1599450045829)" /></g><g id="sprotty_118" class="sprotty-edge" opacity="1"><path class="elkedge" d="M 280.18186021422514,827.1153846153846 L 1453.8181397857747,388" /><path class="edge arrow" d="M 0,0 L 8,-3 L 8,3 Z" transform="rotate(159.48669078942245 1453.8181397857747 388) translate(1453.8181397857747 388)" /></g><g id="sprotty_125" class="sprotty-edge" opacity="1"><path class="elkedge" d="M 1334,910 L 1284,910" /><path class="edge arrow" d="M 0,0 L 8,-3 L 8,3 Z" transform="rotate(0 1284 910) translate(1284 910)" /></g><g id="sprotty_130" class="sprotty-edge" opacity="1"><path class="elkedge" d="M 1334,1020 L 1284,1020" /><path class="edge arrow" d="M 0,0 L 8,-3 L 8,3 Z" transform="rotate(0 1284 1020) translate(1284 1020)" /></g><g id="sprotty_133" class="sprotty-edge" opacity="1"><path class="elkedge" d="M 1184,1100 L 1184,1050" /><path class="edge arrow" d="M 0,0 L 8,-3 L 8,3 Z" transform="rotate(90 1184 1050) translate(1184 1050)" /></g><g id="sprotty_136" class="sprotty-edge" opacity="1"><path class="elkedge" d="M 984,886.8668122270742 L 1334,990.4148471615721" /><path class="edge arrow" d="M 0,0 L 8,-3 L 8,3 Z" transform="rotate(-163.51906811785517 1334 990.4148471615721) translate(1334 990.4148471615721)" /></g><g id="sprotty_139" class="sprotty-edge" opacity="1"><path class="elkedge" d="M 1434,1100 L 1434,940" /><path class="edge arrow" d="M 0,0 L 8,-3 L 8,3 Z" transform="rotate(90 1434 940) translate(1434 940)" /></g><g id="sprotty_142" class="sprotty-edge" opacity="1"><path class="elkedge" d="M 1206.7272727272727,1210 L 1411.2727272727273,940" /><path class="edge arrow" d="M 0,0 L 8,-3 L 8,3 Z" transform="rotate(127.14668669802178 1411.2727272727273 940) translate(1411.2727272727273 940)" /></g><g id="sprotty_145" class="sprotty-edge" opacity="1"><path class="elkedge" d="M 1365.8181818181818,1210 L 1252.1818181818182,1160" /><path class="edge arrow" d="M 0,0 L 8,-3 L 8,3 Z" transform="rotate(23.749494492866788 1252.1818181818182 1160) translate(1252.1818181818182 1160)" /></g><g id="sprotty_146" class="sprotty-edge" opacity="1"><path class="elkedge" d="M 981.7974683544304,889 L 1395.350210970464,1210" /><path class="edge arrow" d="M 0,0 L 8,-3 L 8,3 Z" transform="rotate(-142.18135436369792 1395.350210970464 1210) translate(1395.350210970464 1210)" /></g><g id="sprotty_147" class="sprotty-edge" opacity="1"><path class="elkedge" d="M 984,888.7882096069869 L 1378.0325865580448,1100" /><path class="edge arrow" d="M 0,0 L 8,-3 L 8,3 Z" transform="rotate(-151.80752547398862 1378.0325865580448 1100) translate(1378.0325865580448 1100)" /></g><g id="sprotty_150" class="sprotty-edge" opacity="1"><path class="elkedge" d="M 984,947.740174672489 L 1359.9299191374662,1100" /><path class="edge arrow" d="M 0,0 L 8,-3 L 8,3 Z" transform="rotate(-157.95097782580274 1359.9299191374662 1100) translate(1359.9299191374662 1100)" /></g><g id="sprotty_151" class="sprotty-edge" opacity="1"><path class="elkedge" d="M 1334,1240 L 1284,1240" /><path class="edge arrow" d="M 0,0 L 8,-3 L 8,3 Z" transform="rotate(0 1284 1240) translate(1284 1240)" /></g><g id="sprotty_154" class="sprotty-edge" opacity="1"><path class="elkedge" d="M 1451.5527426160338,1210 L 1639.367088607595,889" /><path class="edge arrow" d="M 0,0 L 8,-3 L 8,3 Z" transform="rotate(120.3315364470422 1639.367088607595 889) translate(1639.367088607595 889)" /></g><g id="sprotty_157" class="sprotty-edge" opacity="1"><path class="elkedge" d="M 1284,917.5327510917031 L 1634,943.8973799126637" /><path class="edge arrow" d="M 0,0 L 8,-3 L 8,3 Z" transform="rotate(-175.69218709699993 1634 943.8973799126637) translate(1634 943.8973799126637)" /></g><g id="sprotty_160" class="sprotty-edge" opacity="1"><path class="elkedge" d="M 1284,1016.6157205240174 L 1634,1004.7707423580786" /><path class="edge arrow" d="M 0,0 L 8,-3 L 8,3 Z" transform="rotate(178.0616904718802 1634 1004.7707423580786) translate(1634 1004.7707423580786)" /></g><g id="sprotty_163" class="sprotty-edge" opacity="1"><path class="elkedge" d="M 1272.9320388349515,940 L 1634,1061.801310043668" /><path class="edge arrow" d="M 0,0 L 8,-3 L 8,3 Z" transform="rotate(-161.35888472155233 1634 1061.801310043668) translate(1634 1061.801310043668)" /></g><g id="sprotty_164" class="sprotty-edge" opacity="1"><path class="elkedge" d="M 1539.1445404556166,278 L 980.1783189316575,880" /><path class="edge arrow" d="M 0,0 L 8,-3 L 8,3 Z" transform="rotate(-47.122822797152466 980.1783189316575 880) translate(980.1783189316575 880)" /></g><g id="sprotty_165" class="sprotty-edge" opacity="1"><path class="elkedge" d="M 1502.2051282051282,388 L 980.7692307692307,880" /><path class="edge arrow" d="M 0,0 L 8,-3 L 8,3 Z" transform="rotate(-43.33627499570841 980.7692307692307 880) translate(980.7692307692307 880)" /></g><g id="sprotty_168" class="sprotty-edge" opacity="1"><path class="elkedge" d="M 867,882.6367521367522 L 968,884.3632478632478" /><path class="edge arrow" d="M 0,0 L 8,-3 L 8,3 Z" transform="rotate(-179.0206803456606 968 884.3632478632478) translate(968 884.3632478632478)" /></g><g id="sprotty_169" class="sprotty-edge" opacity="1"><path class="elkedge" d="M 1505.457800511509,388 L 980.2813299232737,940" /><path class="edge arrow" d="M 0,0 L 8,-3 L 8,3 Z" transform="rotate(-46.426467730777624 980.2813299232737 940) translate(980.2813299232737 940)" /></g><g id="sprotty_170" class="sprotty-edge" opacity="1"><path class="elkedge" d="M 851,222.5 L 550,222.5 L 550,97 L 2334,97 L 2334,222.5 L 2283,222.5" /><path class="edge arrow" d="M 0,0 L 8,-3 L 8,3 Z" transform="rotate(0 2283 222.5) translate(2283 222.5)" /><g id="sprotty_170_j0" transform="translate(2334, 222.5)" opacity="1"><circle class="elkjunction" r="2" /></g></g><g id="sprotty_171" class="sprotty-edge" opacity="1"><path class="elkedge" d="M 851,522.5 L 550,522.5 L 550,97 L 2334,97 L 2334,282.5 L 2283,282.5" /><path class="edge arrow" d="M 0,0 L 8,-3 L 8,3 Z" transform="rotate(0 2283 282.5) translate(2283 282.5)" /><g id="sprotty_171_j0" transform="translate(550, 522.5)" opacity="1"><circle class="elkjunction" r="2" /></g><g id="sprotty_171_j1" transform="translate(2334, 282.5)" opacity="1"><circle class="elkjunction" r="2" /></g></g><g id="sprotty_174" class="sprotty-edge" opacity="1"><path class="elkedge" d="M 1646.3028700906343,1000 L 2270.6971299093657,347" /><path class="edge arrow" d="M 0,0 L 8,-3 L 8,3 Z" transform="rotate(133.71714290479386 2270.6971299093657 347) translate(2270.6971299093657 347)" /></g><g id="sprotty_177" class="sprotty-edge" opacity="1"><path class="elkedge" d="M 1646.3028700906343,1060 L 2270.6971299093657,407" /><path class="edge arrow" d="M 0,0 L 8,-3 L 8,3 Z" transform="rotate(133.71714290479386 2270.6971299093657 407) translate(2270.6971299093657 407)" /></g><g id="sprotty_178" class="sprotty-edge" opacity="1"><path class="elkedge" d="M 300,840.9615384615385 L 400,840.9615384615385 L 400,342.5 L 851,342.5" /><path class="edge arrow" d="M 0,0 L 8,-3 L 8,3 Z" transform="rotate(180 851 342.5) translate(851 342.5)" /></g><g id="sprotty_179" class="sprotty-edge" opacity="1"><path class="elkedge" d="M 300,845.5769230769231 L 450,845.5769230769231 L 450,402.5 L 851,402.5" /><path class="edge arrow" d="M 0,0 L 8,-3 L 8,3 Z" transform="rotate(180 851 402.5) translate(851 402.5)" /></g><g id="sprotty_180" class="sprotty-edge" opacity="1"><path class="elkedge" d="M 300,850.1923076923077 L 500,850.1923076923077 L 500,462.5 L 851,462.5" /><path class="edge arrow" d="M 0,0 L 8,-3 L 8,3 Z" transform="rotate(180 851 462.5) translate(851 462.5)" /></g><g id="sprotty_181" class="sprotty-edge" opacity="1"><path class="elkedge" d="M 300,831.7307692307693 L 550,831.7307692307693 L 550,222.5 L 851,222.5" /><path class="edge arrow" d="M 0,0 L 8,-3 L 8,3 Z" transform="rotate(180 851 222.5) translate(851 222.5)" /><g id="sprotty_181_j0" transform="translate(550, 831.7307692307693)" opacity="1"><circle class="elkjunction" r="2" /></g><g id="sprotty_181_j1" transform="translate(550, 222.5)" opacity="1"><circle class="elkjunction" r="2" /></g></g><g id="sprotty_182" class="sprotty-edge" opacity="1"><path class="elkedge" d="M 300,98 L 350,98 L 350,282.5 L 851,282.5" /><path class="edge arrow" d="M 0,0 L 8,-3 L 8,3 Z" transform="rotate(180 851 282.5) translate(851 282.5)" /><g id="sprotty_182_j0" transform="translate(350, 282.5)" opacity="1"><circle class="elkjunction" r="2" /></g></g><g id="sprotty_183" class="sprotty-edge" opacity="1"><path class="elkedge" d="M 300,836.3461538461538 L 350,836.3461538461538 L 350,282.5 L 851,282.5" /><path class="edge arrow" d="M 0,0 L 8,-3 L 8,3 Z" transform="rotate(180 851 282.5) translate(851 282.5)" /></g><g id="sprotty_184" class="sprotty-edge" opacity="1"><path class="elkedge" d="M 300,882.5 L 851,882.5" /><path class="edge arrow" d="M 0,0 L 8,-3 L 8,3 Z" transform="rotate(180 851 882.5) translate(851 882.5)" /></g><g id="sprotty_185" class="sprotty-edge" opacity="1"><path class="elkedge" d="M 300,854.8076923076924 L 550,854.8076923076924 L 550,522.5 L 851,522.5" /><path class="edge arrow" d="M 0,0 L 8,-3 L 8,3 Z" transform="rotate(180 851 522.5) translate(851 522.5)" /></g><g id="sprotty_186" class="sprotty-edge" opacity="1"><path class="elkedge" d="M 300,877.8846153846154 L 800,877.8846153846154 L 800,822.5 L 851,822.5" /><path class="edge arrow" d="M 0,0 L 8,-3 L 8,3 Z" transform="rotate(180 851 822.5) translate(851 822.5)" /></g><g id="sprotty_187" class="sprotty-edge" opacity="1"><path class="elkedge" d="M 300,859.4230769230769 L 600,859.4230769230769 L 600,582.5 L 851,582.5" /><path class="edge arrow" d="M 0,0 L 8,-3 L 8,3 Z" transform="rotate(180 851 582.5) translate(851 582.5)" /></g><g id="sprotty_188" class="sprotty-edge" opacity="1"><path class="elkedge" d="M 300,864.0384615384615 L 650,864.0384615384615 L 650,642.5 L 851,642.5" /><path class="edge arrow" d="M 0,0 L 8,-3 L 8,3 Z" transform="rotate(180 851 642.5) translate(851 642.5)" /></g><g id="sprotty_189" class="sprotty-edge" opacity="1"><path class="elkedge" d="M 300,868.6538461538462 L 700,868.6538461538462 L 700,702.5 L 851,702.5" /><path class="edge arrow" d="M 0,0 L 8,-3 L 8,3 Z" transform="rotate(180 851 702.5) translate(851 702.5)" /></g><g id="sprotty_190" class="sprotty-edge" opacity="1"><path class="elkedge" d="M 300,873.2692307692307 L 750,873.2692307692307 L 750,762.5 L 851,762.5" /><path class="edge arrow" d="M 0,0 L 8,-3 L 8,3 Z" transform="rotate(180 851 762.5) translate(851 762.5)" /></g><g id="sprotty_195" class="sprotty-edge" opacity="1"><path class="elkedge" d="M 2601,1300.9807692307693 L 2701,1313.2403846153845" /><path class="edge arrow" d="M 0,0 L 8,-3 L 8,3 Z" transform="rotate(-173.0106348436616 2701 1313.2403846153845) translate(2701 1313.2403846153845)" /></g><g id="sprotty_198" class="sprotty-edge" opacity="1"><path class="elkedge" d="M 2601,1358.673076923077 L 2701,1342.0865384615386" /><path class="edge arrow" d="M 0,0 L 8,-3 L 8,3 Z" transform="rotate(170.58235285466577 2701 1342.0865384615386) translate(2701 1342.0865384615386)" /></g><g id="sprotty_201" class="sprotty-edge" opacity="1"><path class="elkedge" d="M 2601,1416.3653846153845 L 2734.968253968254,1355.5" /><path class="edge arrow" d="M 0,0 L 8,-3 L 8,3 Z" transform="rotate(155.5664230096372 2734.968253968254 1355.5) translate(2734.968253968254 1355.5)" /></g><g id="sprotty_204" class="sprotty-edge" opacity="1"><path class="elkedge" d="M 2599.0582524271845,1475.5 L 2760.6116504854367,1355.5" /><path class="edge arrow" d="M 0,0 L 8,-3 L 8,3 Z" transform="rotate(143.39546107211743 2760.6116504854367 1355.5) translate(2760.6116504854367 1355.5)" /></g><g id="sprotty_207" class="sprotty-edge" opacity="1"><path class="elkedge" d="M 2597.3636363636365,1535.5 L 2771.909090909091,1355.5" /><path class="edge arrow" d="M 0,0 L 8,-3 L 8,3 Z" transform="rotate(134.11859600341785 2771.909090909091 1355.5) translate(2771.909090909091 1355.5)" /></g><g id="sprotty_210" class="sprotty-edge" opacity="1"><path class="elkedge" d="M 2596.409836065574,1595.5 L 2778.2677595628415,1355.5" /><path class="edge arrow" d="M 0,0 L 8,-3 L 8,3 Z" transform="rotate(127.15271423731078 2778.2677595628415 1355.5) translate(2778.2677595628415 1355.5)" /></g><g id="sprotty_215" class="sprotty-edge" opacity="1"><path class="elkedge" d="M 2267,1481.1470588235295 L 2951,1345.3529411764705" /><path class="edge arrow" d="M 0,0 L 8,-3 L 8,3 Z" transform="rotate(168.77110817846125 2951 1345.3529411764705) translate(2951 1345.3529411764705)" /></g><g id="sprotty_222" class="sprotty-edge" opacity="1"><path class="elkedge" d="M 3068,1506.5 L 3018,1506.5" /><path class="edge arrow" d="M 0,0 L 8,-3 L 8,3 Z" transform="rotate(0 3018 1506.5) translate(3018 1506.5)" /></g><g id="sprotty_227" class="sprotty-edge" opacity="1"><path class="elkedge" d="M 3068,1616.5 L 3018,1616.5" /><path class="edge arrow" d="M 0,0 L 8,-3 L 8,3 Z" transform="rotate(0 3018 1616.5) translate(3018 1616.5)" /></g><g id="sprotty_230" class="sprotty-edge" opacity="1"><path class="elkedge" d="M 2918,1696.5 L 2918,1646.5" /><path class="edge arrow" d="M 0,0 L 8,-3 L 8,3 Z" transform="rotate(90 2918 1646.5) translate(2918 1646.5)" /></g><g id="sprotty_233" class="sprotty-edge" opacity="1"><path class="elkedge" d="M 2718,1483.3668122270742 L 3068,1586.9148471615722" /><path class="edge arrow" d="M 0,0 L 8,-3 L 8,3 Z" transform="rotate(-163.51906811785517 3068 1586.9148471615722) translate(3068 1586.9148471615722)" /></g><g id="sprotty_236" class="sprotty-edge" opacity="1"><path class="elkedge" d="M 3168,1696.5 L 3168,1536.5" /><path class="edge arrow" d="M 0,0 L 8,-3 L 8,3 Z" transform="rotate(90 3168 1536.5) translate(3168 1536.5)" /></g><g id="sprotty_239" class="sprotty-edge" opacity="1"><path class="elkedge" d="M 2940.727272727273,1806.5 L 3145.272727272727,1536.5" /><path class="edge arrow" d="M 0,0 L 8,-3 L 8,3 Z" transform="rotate(127.14668669802171 3145.272727272727 1536.5) translate(3145.272727272727 1536.5)" /></g><g id="sprotty_242" class="sprotty-edge" opacity="1"><path class="elkedge" d="M 3099.818181818182,1806.5 L 2986.181818181818,1756.5" /><path class="edge arrow" d="M 0,0 L 8,-3 L 8,3 Z" transform="rotate(23.749494492866702 2986.181818181818 1756.5) translate(2986.181818181818 1756.5)" /></g><g id="sprotty_243" class="sprotty-edge" opacity="1"><path class="elkedge" d="M 2715.7974683544303,1485.5 L 3129.350210970464,1806.5" /><path class="edge arrow" d="M 0,0 L 8,-3 L 8,3 Z" transform="rotate(-142.18135436369792 3129.350210970464 1806.5) translate(3129.350210970464 1806.5)" /></g><g id="sprotty_244" class="sprotty-edge" opacity="1"><path class="elkedge" d="M 2718,1485.2882096069868 L 3112.032586558045,1696.5" /><path class="edge arrow" d="M 0,0 L 8,-3 L 8,3 Z" transform="rotate(-151.8075254739886 3112.032586558045 1696.5) translate(3112.032586558045 1696.5)" /></g><g id="sprotty_247" class="sprotty-edge" opacity="1"><path class="elkedge" d="M 2718,1544.240174672489 L 3093.929919137466,1696.5" /><path class="edge arrow" d="M 0,0 L 8,-3 L 8,3 Z" transform="rotate(-157.95097782580274 3093.929919137466 1696.5) translate(3093.929919137466 1696.5)" /></g><g id="sprotty_248" class="sprotty-edge" opacity="1"><path class="elkedge" d="M 3068,1836.5 L 3018,1836.5" /><path class="edge arrow" d="M 0,0 L 8,-3 L 8,3 Z" transform="rotate(0 3018 1836.5) translate(3018 1836.5)" /></g><g id="sprotty_251" class="sprotty-edge" opacity="1"><path class="elkedge" d="M 3018,1500.9323144104803 L 3368,1481.4454148471616" /><path class="edge arrow" d="M 0,0 L 8,-3 L 8,3 Z" transform="rotate(176.81324131380964 3368 1481.4454148471616) translate(3368 1481.4454148471616)" /></g><g id="sprotty_254" class="sprotty-edge" opacity="1"><path class="elkedge" d="M 3189.1167512690354,1806.5 L 3372.8324873096444,1545.5" /><path class="edge arrow" d="M 0,0 L 8,-3 L 8,3 Z" transform="rotate(125.14139675071024 3372.8324873096444 1545.5) translate(3372.8324873096444 1545.5)" /></g><g id="sprotty_257" class="sprotty-edge" opacity="1"><path class="elkedge" d="M 3018,1527.1331877729258 L 3368,1599.3493449781658" /><path class="edge arrow" d="M 0,0 L 8,-3 L 8,3 Z" transform="rotate(-168.3416596572808 3368 1599.3493449781658) translate(3368 1599.3493449781658)" /></g><g id="sprotty_260" class="sprotty-edge" opacity="1"><path class="elkedge" d="M 3018,1626.21615720524 L 3368,1660.2227074235807" /><path class="edge arrow" d="M 0,0 L 8,-3 L 8,3 Z" transform="rotate(-174.45047144714007 3368 1660.2227074235807) translate(3368 1660.2227074235807)" /></g><g id="sprotty_261" class="sprotty-edge" opacity="1"><path class="elkedge" d="M 2783.443729903537,1355.5 L 2712.6334405144694,1476.5" /><path class="edge arrow" d="M 0,0 L 8,-3 L 8,3 Z" transform="rotate(-59.66344493891035 2712.6334405144694 1476.5) translate(2712.6334405144694 1476.5)" /></g><g id="sprotty_262" class="sprotty-edge" opacity="1"><path class="elkedge" d="M 2985.2122186495176,1355.5 L 2718,1477.3519061583577" /><path class="edge arrow" d="M 0,0 L 8,-3 L 8,3 Z" transform="rotate(-24.513542200616588 2718 1477.3519061583577) translate(2718 1477.3519061583577)" /></g><g id="sprotty_265" class="sprotty-edge" opacity="1"><path class="elkedge" d="M 2595.941340782123,1655.5 L 2707.058659217877,1485.5" /><path class="edge arrow" d="M 0,0 L 8,-3 L 8,3 Z" transform="rotate(123.16988667383191 2707.058659217877 1485.5) translate(2707.058659217877 1485.5)" /></g><g id="sprotty_266" class="sprotty-edge" opacity="1"><path class="elkedge" d="M 3003.5290023201856,1355.5 L 2717.120649651972,1536.5" /><path class="edge arrow" d="M 0,0 L 8,-3 L 8,3 Z" transform="rotate(-32.29144568745698 2717.120649651972 1536.5) translate(2717.120649651972 1536.5)" /></g><g id="sprotty_269" class="sprotty-edge" opacity="1"><path class="elkedge" d="M 3384,1476.8290598290598 L 3485,1424.1709401709402" /><path class="edge arrow" d="M 0,0 L 8,-3 L 8,3 Z" transform="rotate(152.46392689184287 3485 1424.1709401709402) translate(3485 1424.1709401709402)" /></g><g id="sprotty_270" class="sprotty-edge" opacity="1"><path class="elkedge" d="M 2585,1420 L 2434,1420 L 2434,1174.5 L 3552,1174.5 L 3552,1300 L 3501,1300" /><path class="edge arrow" d="M 0,0 L 8,-3 L 8,3 Z" transform="rotate(0 3501 1300) translate(3501 1300)" /><g id="sprotty_270_j0" transform="translate(2434, 1420)" opacity="1"><circle class="elkjunction" r="2" /></g><g id="sprotty_270_j1" transform="translate(3552, 1174.5)" opacity="1"><circle class="elkjunction" r="2" /></g></g><g id="sprotty_271" class="sprotty-edge" opacity="1"><path class="elkedge" d="M 2585,1540 L 2484,1540 L 2484,2016.5 L 3602,2016.5 L 3602,1360 L 3501,1360" /><path class="edge arrow" d="M 0,0 L 8,-3 L 8,3 Z" transform="rotate(0 3501 1360) translate(3501 1360)" /></g><g id="sprotty_274" class="sprotty-edge" opacity="1"><path class="elkedge" d="M 3378.9088397790056,1656.5 L 3490.0911602209944,1484.5" /><path class="edge arrow" d="M 0,0 L 8,-3 L 8,3 Z" transform="rotate(122.8789845474142 3490.0911602209944 1484.5) translate(3490.0911602209944 1484.5)" /></g><g id="sprotty_277" class="sprotty-edge" opacity="1"><path class="elkedge" d="M 2267,1524.3333333333333 L 2334,1524.3333333333333 L 2334,1720 L 2585,1720" /><path class="edge arrow" d="M 0,0 L 8,-3 L 8,3 Z" transform="rotate(180 2585 1720) translate(2585 1720)" /></g><g id="sprotty_278" class="sprotty-edge" opacity="1"><path class="elkedge" d="M 2283,222.5 L 2334,222.5 L 2334,1300 L 2585,1300" /><path class="edge arrow" d="M 0,0 L 8,-3 L 8,3 Z" transform="rotate(180 2585 1300) translate(2585 1300)" /></g><g id="sprotty_279" class="sprotty-edge" opacity="1"><path class="elkedge" d="M 2283,282.5 L 2334,282.5 L 2334,1300 L 2585,1300" /><path class="edge arrow" d="M 0,0 L 8,-3 L 8,3 Z" transform="rotate(180 2585 1300) translate(2585 1300)" /><g id="sprotty_279_j0" transform="translate(2334, 1300)" opacity="1"><circle class="elkjunction" r="2" /></g></g><g id="sprotty_280" class="sprotty-edge" opacity="1"><path class="elkedge" d="M 2267,1477.6666666666667 L 2334,1477.6666666666667 L 2334,1300 L 2585,1300" /><path class="edge arrow" d="M 0,0 L 8,-3 L 8,3 Z" transform="rotate(180 2585 1300) translate(2585 1300)" /></g><g id="sprotty_281" class="sprotty-edge" opacity="1"><path class="elkedge" d="M 2267,1484.3333333333333 L 2384,1484.3333333333333 L 2384,1360 L 2585,1360" /><path class="edge arrow" d="M 0,0 L 8,-3 L 8,3 Z" transform="rotate(180 2585 1360) translate(2585 1360)" /></g><g id="sprotty_282" class="sprotty-edge" opacity="1"><path class="elkedge" d="M 2267,1491 L 2434,1491 L 2434,1420 L 2585,1420" /><path class="edge arrow" d="M 0,0 L 8,-3 L 8,3 Z" transform="rotate(180 2585 1420) translate(2585 1420)" /></g><g id="sprotty_285" class="sprotty-edge" opacity="1"><path class="elkedge" d="M 0,1420 L 2585,1420" /><path class="edge arrow" d="M 0,0 L 8,-3 L 8,3 Z" transform="rotate(180 2585 1420) translate(2585 1420)" /></g><g id="sprotty_286" class="sprotty-edge" opacity="1"><path class="elkedge" d="M 300,74 L 2484,74 L 2484,1480 L 2585,1480" /><path class="edge arrow" d="M 0,0 L 8,-3 L 8,3 Z" transform="rotate(180 2585 1480) translate(2585 1480)" /><g id="sprotty_286_j0" transform="translate(2484, 1480)" opacity="1"><circle class="elkjunction" r="2" /></g></g><g id="sprotty_287" class="sprotty-edge" opacity="1"><path class="elkedge" d="M 2267,1497.6666666666667 L 2484,1497.6666666666667 L 2484,1480 L 2585,1480" /><path class="edge arrow" d="M 0,0 L 8,-3 L 8,3 Z" transform="rotate(180 2585 1480) translate(2585 1480)" /></g><g id="sprotty_288" class="sprotty-edge" opacity="1"><path class="elkedge" d="M 2267,1517.6666666666667 L 2384,1517.6666666666667 L 2384,1660 L 2585,1660" /><path class="edge arrow" d="M 0,0 L 8,-3 L 8,3 Z" transform="rotate(180 2585 1660) translate(2585 1660)" /></g><g id="sprotty_289" class="sprotty-edge" opacity="1"><path class="elkedge" d="M 2267,1504.3333333333333 L 2484,1504.3333333333333 L 2484,1540 L 2585,1540" /><path class="edge arrow" d="M 0,0 L 8,-3 L 8,3 Z" transform="rotate(180 2585 1540) translate(2585 1540)" /><g id="sprotty_289_j0" transform="translate(2484, 1540)" opacity="1"><circle class="elkjunction" r="2" /></g></g><g id="sprotty_290" class="sprotty-edge" opacity="1"><path class="elkedge" d="M 2267,1511 L 2434,1511 L 2434,1600 L 2585,1600" /><path class="edge arrow" d="M 0,0 L 8,-3 L 8,3 Z" transform="rotate(180 2585 1600) translate(2585 1600)" /></g></g></g></svg>
