<svg id="sprotty_1" class="sprotty-graph sprotty" tabindex="1002" xmlns="http://www.w3.org/2000/svg" viewBox="0 0 3353 2303"><style>
.elknode {
    stroke: #448;
    stroke-width: 2;
    fill: #ddf;
    fill-opacity: 0.5;
}

.elkport {
    stroke: #448;
    stroke-width: 1;
    fill: #66c;
}

.elkedge {
    fill: none;
    stroke: #88f;
    stroke-width: 8;
    stroke-opacity: 0.3;
    pointer-events: stroke;
    stroke-linejoin: round;
}

.elkedge:hover {
    stroke: #448;
    stroke-width: 8;
    stroke-opacity: 1;
    stroke-dasharray: 16px;
    stroke-dashoffset: 32px;
    animation: stroke 0.5s linear infinite;
}

@keyframes stroke {
    to {
        stroke-dashoffset: 0;
    }
}

.elkedge.arrow {
    fill: #336;
}

.elklabel {
    stroke-width: 0;
    stroke: #000;
    fill: #000;
    font-family: sans-serif;
    font-size: 10pt;
    dominant-baseline: hanging;
}

.elklabel:hover {
    font-size: 24pt;
}

.elkjunction {
    stroke: none;
    fill: #224;
}

.selected &gt; rect {
    stroke-width: 3;
}

.mouseover {
    stroke: #88f;
}
/*
 * Copyright (C) 2017 TypeFox and others.
 *
 * Licensed under the Apache License, Version 2.0 (the &quot;License&quot;); you may not use this file except in compliance with the License.
 * You may obtain a copy of the License at http://www.apache.org/licenses/LICENSE-2.0
 */

.sprotty {
    padding: 0px;
    font-family: &quot;Helvetica Neue&quot;, Helvetica, Arial, sans-serif;
}

.sprotty-hidden {
    display: block;
    position: absolute;
    width: 0px;
    height: 0px;
}

.sprotty-popup {
    font-family: &quot;Helvetica Neue&quot;, Helvetica, Arial, sans-serif;
    position: absolute;
    background: white;
    border-radius: 5px;
    border: 1px solid;
    max-width: 400px;
    min-width: 100px;
}

.sprotty-popup &gt; div {
    margin: 10px;
}

.sprotty-popup-closed {
    display: none;
}
</style><g transform="scale(1) translate(0,0)"><g id="sprotty_3" transform="translate(117, 71)" opacity="1"><rect class="elknode" x="0" y="0" rx="10" width="3136" height="2182" /><g id="sprotty_5" transform="translate(100, 149)" opacity="1"><rect class="elknode" x="0" y="0" rx="10" width="200" height="60" /><text id="sprotty_6" class="elklabel" transform="translate(5, 22) translate(0, 0)" opacity="1">k8s_core_v1_namespace.this</text></g><g id="sprotty_10" transform="translate(1885, 2072)" opacity="1"><rect class="elknode" x="0" y="0" rx="10" width="200" height="60" /><text id="sprotty_11" class="elklabel" transform="translate(5, 22) translate(0, 0)" opacity="1">k8s_extensions_v1beta1_ingress.this</text></g><g id="sprotty_12" transform="translate(517, 251)" opacity="1"><rect class="elknode" x="0" y="0" rx="10" width="1134" height="831" /><g id="sprotty_206" transform="translate(100, 50)" opacity="1"><rect class="elknode" x="0" y="0" rx="10" width="200" height="60" /><text id="sprotty_207" class="elklabel" transform="translate(5, 22) translate(0, 0)" opacity="1">local.command</text></g><g id="sprotty_211" transform="translate(350, 50)" opacity="1"><rect class="elknode" x="0" y="0" rx="10" width="200" height="60" /><text id="sprotty_212" class="elklabel" transform="translate(5, 22) translate(0, 0)" opacity="1">local.parameters</text></g><g id="sprotty_226" transform="translate(617, 71)" opacity="1"><rect class="elknode" x="0" y="0" rx="10" width="400" height="710" /><g id="sprotty_228" transform="translate(100, 50)" opacity="1"><rect class="elknode" x="0" y="0" rx="10" width="200" height="60" /><text id="sprotty_229" class="elklabel" transform="translate(5, 22) translate(0, 0)" opacity="1">k8s_apps_v1_deployment.this</text></g><g id="sprotty_230" transform="translate(100, 160)" opacity="1"><rect class="elknode" x="0" y="0" rx="10" width="200" height="60" /><text id="sprotty_231" class="elklabel" transform="translate(5, 22) translate(0, 0)" opacity="1">local.k8s_apps_v1_deployment_parameters</text></g><g id="sprotty_233" transform="translate(100, 270)" opacity="1"><rect class="elknode" x="0" y="0" rx="10" width="200" height="60" /><text id="sprotty_234" class="elklabel" transform="translate(5, 22) translate(0, 0)" opacity="1">k8s_core_v1_service.this</text></g><g id="sprotty_235" transform="translate(100, 380)" opacity="1"><rect class="elknode" x="0" y="0" rx="10" width="200" height="60" /><text id="sprotty_236" class="elklabel" transform="translate(5, 22) translate(0, 0)" opacity="1">local.k8s_core_v1_service_parameters</text></g><g id="sprotty_238" transform="translate(100, 490)" opacity="1"><rect class="elknode" x="0" y="0" rx="10" width="200" height="60" /><text id="sprotty_239" class="elklabel" transform="translate(5, 22) translate(0, 0)" opacity="1">local.selector</text></g><g id="sprotty_241" transform="translate(100, 600)" opacity="1"><rect class="elknode" x="0" y="0" rx="10" width="200" height="60" /><text id="sprotty_242" class="elklabel" transform="translate(5, 22) translate(0, 0)" opacity="1">local.labels</text></g><g id="sprotty_244" transform="translate(-16, 50)" opacity="1"><rect class="elkport" x="0" y="0" width="16" height="9" /><text id="sprotty_245" class="elklabel" transform="translate(-1, 10) translate(0, 0)" opacity="1">parameters</text></g><g id="sprotty_248" transform="translate(400, 50)" opacity="1"><rect class="elkport" x="0" y="0" width="16" height="9" /><text id="sprotty_249" class="elklabel" transform="translate(17, 10) translate(0, 0)" opacity="1">deployment</text></g><g id="sprotty_251" transform="translate(400, 110)" opacity="1"><rect class="elkport" x="0" y="0" width="16" height="9" /><text id="sprotty_252" class="elklabel" transform="translate(17, 10) translate(0, 0)" opacity="1">name</text></g><g id="sprotty_254" transform="translate(400, 170)" opacity="1"><rect class="elkport" x="0" y="0" width="16" height="9" /><text id="sprotty_255" class="elklabel" transform="translate(17, 10) translate(0, 0)" opacity="1">service</text></g><text id="sprotty_227" class="elklabel" transform="translate(0, -21) translate(0, 0)" opacity="1">deployment-service</text></g><g id="sprotty_14" transform="translate(1134, 50)" opacity="1"><rect class="elkport" x="0" y="0" width="16" height="9" /><text id="sprotty_15" class="elklabel" transform="translate(17, 10) translate(0, 0)" opacity="1">service</text></g><g id="sprotty_208" transform="translate(-16, 50)" opacity="1"><rect class="elkport" x="0" y="0" width="16" height="9" /><text id="sprotty_209" class="elklabel" transform="translate(-1, 10) translate(0, 0)" opacity="1">users</text></g><g id="sprotty_214" transform="translate(-16, 110)" opacity="1"><rect class="elkport" x="0" y="0" width="16" height="9" /><text id="sprotty_215" class="elklabel" transform="translate(-1, 10) translate(0, 0)" opacity="1">image</text></g><g id="sprotty_217" transform="translate(-16, 170)" opacity="1"><rect class="elkport" x="0" y="0" width="16" height="9" /><text id="sprotty_218" class="elklabel" transform="translate(-1, 10) translate(0, 0)" opacity="1">name</text></g><g id="sprotty_220" transform="translate(-16, 230)" opacity="1"><rect class="elkport" x="0" y="0" width="16" height="9" /><text id="sprotty_221" class="elklabel" transform="translate(-1, 10) translate(0, 0)" opacity="1">namespace</text></g><g id="sprotty_223" transform="translate(-16, 290)" opacity="1"><rect class="elkport" x="0" y="0" width="16" height="9" /><text id="sprotty_224" class="elklabel" transform="translate(-1, 10) translate(0, 0)" opacity="1">replicas</text></g><g id="sprotty_258" transform="translate(-16, 350)" opacity="1"><rect class="elkport" x="0" y="0" width="16" height="9" /><text id="sprotty_259" class="elklabel" transform="translate(-1, 10) translate(0, 0)" opacity="1">overrides</text></g><g id="sprotty_261" transform="translate(1134, 110)" opacity="1"><rect class="elkport" x="0" y="0" width="16" height="9" /><text id="sprotty_262" class="elklabel" transform="translate(17, 10) translate(0, 0)" opacity="1">deployment</text></g><g id="sprotty_264" transform="translate(1134, 170)" opacity="1"><rect class="elkport" x="0" y="0" width="16" height="9" /><text id="sprotty_265" class="elklabel" transform="translate(17, 10) translate(0, 0)" opacity="1">name</text></g><text id="sprotty_13" class="elklabel" transform="translate(0, -21) translate(0, 0)" opacity="1">workbench</text></g><g id="sprotty_20" transform="translate(1885, 1082)" opacity="1"><rect class="elknode" x="0" y="0" rx="10" width="1134" height="890" /><g id="sprotty_22" transform="translate(100, 50)" opacity="1"><rect class="elknode" x="0" y="0" rx="10" width="200" height="60" /><text id="sprotty_23" class="elklabel" transform="translate(5, 22) translate(0, 0)" opacity="1">k8s_core_v1_config_map.this</text></g><g id="sprotty_30" transform="translate(350, 50)" opacity="1"><rect class="elknode" x="0" y="0" rx="10" width="200" height="60" /><text id="sprotty_31" class="elklabel" transform="translate(5, 22) translate(0, 0)" opacity="1">local.parameters</text></g><g id="sprotty_66" transform="translate(617, 71)" opacity="1"><rect class="elknode" x="0" y="0" rx="10" width="400" height="710" /><g id="sprotty_68" transform="translate(100, 50)" opacity="1"><rect class="elknode" x="0" y="0" rx="10" width="200" height="60" /><text id="sprotty_69" class="elklabel" transform="translate(5, 22) translate(0, 0)" opacity="1">k8s_apps_v1_deployment.this</text></g><g id="sprotty_70" transform="translate(100, 160)" opacity="1"><rect class="elknode" x="0" y="0" rx="10" width="200" height="60" /><text id="sprotty_71" class="elklabel" transform="translate(5, 22) translate(0, 0)" opacity="1">local.k8s_apps_v1_deployment_parameters</text></g><g id="sprotty_73" transform="translate(100, 270)" opacity="1"><rect class="elknode" x="0" y="0" rx="10" width="200" height="60" /><text id="sprotty_74" class="elklabel" transform="translate(5, 22) translate(0, 0)" opacity="1">k8s_core_v1_service.this</text></g><g id="sprotty_75" transform="translate(100, 380)" opacity="1"><rect class="elknode" x="0" y="0" rx="10" width="200" height="60" /><text id="sprotty_76" class="elklabel" transform="translate(5, 22) translate(0, 0)" opacity="1">local.k8s_core_v1_service_parameters</text></g><g id="sprotty_78" transform="translate(100, 490)" opacity="1"><rect class="elknode" x="0" y="0" rx="10" width="200" height="60" /><text id="sprotty_79" class="elklabel" transform="translate(5, 22) translate(0, 0)" opacity="1">local.selector</text></g><g id="sprotty_81" transform="translate(100, 600)" opacity="1"><rect class="elknode" x="0" y="0" rx="10" width="200" height="60" /><text id="sprotty_82" class="elklabel" transform="translate(5, 22) translate(0, 0)" opacity="1">local.labels</text></g><g id="sprotty_84" transform="translate(-16, 50)" opacity="1"><rect class="elkport" x="0" y="0" width="16" height="9" /><text id="sprotty_85" class="elklabel" transform="translate(-1, 10) translate(0, 0)" opacity="1">parameters</text></g><g id="sprotty_88" transform="translate(400, 50)" opacity="1"><rect class="elkport" x="0" y="0" width="16" height="9" /><text id="sprotty_89" class="elklabel" transform="translate(17, 10) translate(0, 0)" opacity="1">deployment</text></g><g id="sprotty_91" transform="translate(400, 110)" opacity="1"><rect class="elkport" x="0" y="0" width="16" height="9" /><text id="sprotty_92" class="elklabel" transform="translate(17, 10) translate(0, 0)" opacity="1">name</text></g><g id="sprotty_94" transform="translate(400, 170)" opacity="1"><rect class="elkport" x="0" y="0" width="16" height="9" /><text id="sprotty_95" class="elklabel" transform="translate(17, 10) translate(0, 0)" opacity="1">service</text></g><text id="sprotty_67" class="elklabel" transform="translate(0, -21) translate(0, 0)" opacity="1">deployment-service</text></g><g id="sprotty_24" transform="translate(-16, 50)" opacity="1"><rect class="elkport" x="0" y="0" width="16" height="9" /><text id="sprotty_25" class="elklabel" transform="translate(-1, 10) translate(0, 0)" opacity="1">name</text></g><g id="sprotty_27" transform="translate(-16, 110)" opacity="1"><rect class="elkport" x="0" y="0" width="16" height="9" /><text id="sprotty_28" class="elklabel" transform="translate(-1, 10) translate(0, 0)" opacity="1">namespace</text></g><g id="sprotty_33" transform="translate(-16, 170)" opacity="1"><rect class="elkport" x="0" y="0" width="16" height="9" /><text id="sprotty_34" class="elklabel" transform="translate(-1, 10) translate(0, 0)" opacity="1">controller_pwd</text></g><g id="sprotty_36" transform="translate(-16, 230)" opacity="1"><rect class="elkport" x="0" y="0" width="16" height="9" /><text id="sprotty_37" class="elklabel" transform="translate(-1, 10) translate(0, 0)" opacity="1">controller_url</text></g><g id="sprotty_39" transform="translate(-16, 290)" opacity="1"><rect class="elkport" x="0" y="0" width="16" height="9" /><text id="sprotty_40" class="elklabel" transform="translate(-1, 10) translate(0, 0)" opacity="1">controller_user</text></g><g id="sprotty_42" transform="translate(-16, 350)" opacity="1"><rect class="elkport" x="0" y="0" width="16" height="9" /><text id="sprotty_43" class="elklabel" transform="translate(-1, 10) translate(0, 0)" opacity="1">image</text></g><g id="sprotty_45" transform="translate(-16, 410)" opacity="1"><rect class="elkport" x="0" y="0" width="16" height="9" /><text id="sprotty_46" class="elklabel" transform="translate(-1, 10) translate(0, 0)" opacity="1">kie_server_id</text></g><g id="sprotty_48" transform="translate(-16, 470)" opacity="1"><rect class="elkport" x="0" y="0" width="16" height="9" /><text id="sprotty_49" class="elklabel" transform="translate(-1, 10) translate(0, 0)" opacity="1">kie_server_pwd</text></g><g id="sprotty_51" transform="translate(-16, 530)" opacity="1"><rect class="elkport" x="0" y="0" width="16" height="9" /><text id="sprotty_52" class="elklabel" transform="translate(-1, 10) translate(0, 0)" opacity="1">kie_server_user</text></g><g id="sprotty_54" transform="translate(-16, 590)" opacity="1"><rect class="elkport" x="0" y="0" width="16" height="9" /><text id="sprotty_55" class="elklabel" transform="translate(-1, 10) translate(0, 0)" opacity="1">maven_pwd</text></g><g id="sprotty_57" transform="translate(-16, 650)" opacity="1"><rect class="elkport" x="0" y="0" width="16" height="9" /><text id="sprotty_58" class="elklabel" transform="translate(-1, 10) translate(0, 0)" opacity="1">maven_repo_url</text></g><g id="sprotty_60" transform="translate(-16, 710)" opacity="1"><rect class="elkport" x="0" y="0" width="16" height="9" /><text id="sprotty_61" class="elklabel" transform="translate(-1, 10) translate(0, 0)" opacity="1">maven_user</text></g><g id="sprotty_63" transform="translate(-16, 770)" opacity="1"><rect class="elkport" x="0" y="0" width="16" height="9" /><text id="sprotty_64" class="elklabel" transform="translate(-1, 10) translate(0, 0)" opacity="1">replicas</text></g><g id="sprotty_98" transform="translate(-16, 830)" opacity="1"><rect class="elkport" x="0" y="0" width="16" height="9" /><text id="sprotty_99" class="elklabel" transform="translate(-1, 10) translate(0, 0)" opacity="1">overrides</text></g><g id="sprotty_101" transform="translate(1134, 50)" opacity="1"><rect class="elkport" x="0" y="0" width="16" height="9" /><text id="sprotty_102" class="elklabel" transform="translate(17, 10) translate(0, 0)" opacity="1">deployment</text></g><g id="sprotty_104" transform="translate(1134, 110)" opacity="1"><rect class="elkport" x="0" y="0" width="16" height="9" /><text id="sprotty_105" class="elklabel" transform="translate(17, 10) translate(0, 0)" opacity="1">name</text></g><g id="sprotty_107" transform="translate(1134, 170)" opacity="1"><rect class="elkport" x="0" y="0" width="16" height="9" /><text id="sprotty_108" class="elklabel" transform="translate(17, 10) translate(0, 0)" opacity="1">service</text></g><text id="sprotty_21" class="elklabel" transform="translate(0, -21) translate(0, 0)" opacity="1">kie-server</text></g><g id="sprotty_113" transform="translate(1885, 71)" opacity="1"><rect class="elknode" x="0" y="0" rx="10" width="1134" height="890" /><g id="sprotty_115" transform="translate(100, 50)" opacity="1"><rect class="elknode" x="0" y="0" rx="10" width="200" height="60" /><text id="sprotty_116" class="elklabel" transform="translate(5, 22) translate(0, 0)" opacity="1">k8s_core_v1_config_map.this</text></g><g id="sprotty_123" transform="translate(350, 50)" opacity="1"><rect class="elknode" x="0" y="0" rx="10" width="200" height="60" /><text id="sprotty_124" class="elklabel" transform="translate(5, 22) translate(0, 0)" opacity="1">local.parameters</text></g><g id="sprotty_159" transform="translate(617, 71)" opacity="1"><rect class="elknode" x="0" y="0" rx="10" width="400" height="710" /><g id="sprotty_161" transform="translate(100, 50)" opacity="1"><rect class="elknode" x="0" y="0" rx="10" width="200" height="60" /><text id="sprotty_162" class="elklabel" transform="translate(5, 22) translate(0, 0)" opacity="1">k8s_apps_v1_deployment.this</text></g><g id="sprotty_163" transform="translate(100, 160)" opacity="1"><rect class="elknode" x="0" y="0" rx="10" width="200" height="60" /><text id="sprotty_164" class="elklabel" transform="translate(5, 22) translate(0, 0)" opacity="1">local.k8s_apps_v1_deployment_parameters</text></g><g id="sprotty_166" transform="translate(100, 270)" opacity="1"><rect class="elknode" x="0" y="0" rx="10" width="200" height="60" /><text id="sprotty_167" class="elklabel" transform="translate(5, 22) translate(0, 0)" opacity="1">k8s_core_v1_service.this</text></g><g id="sprotty_168" transform="translate(100, 380)" opacity="1"><rect class="elknode" x="0" y="0" rx="10" width="200" height="60" /><text id="sprotty_169" class="elklabel" transform="translate(5, 22) translate(0, 0)" opacity="1">local.k8s_core_v1_service_parameters</text></g><g id="sprotty_171" transform="translate(100, 490)" opacity="1"><rect class="elknode" x="0" y="0" rx="10" width="200" height="60" /><text id="sprotty_172" class="elklabel" transform="translate(5, 22) translate(0, 0)" opacity="1">local.selector</text></g><g id="sprotty_174" transform="translate(100, 600)" opacity="1"><rect class="elknode" x="0" y="0" rx="10" width="200" height="60" /><text id="sprotty_175" class="elklabel" transform="translate(5, 22) translate(0, 0)" opacity="1">local.labels</text></g><g id="sprotty_177" transform="translate(-16, 50)" opacity="1"><rect class="elkport" x="0" y="0" width="16" height="9" /><text id="sprotty_178" class="elklabel" transform="translate(-1, 10) translate(0, 0)" opacity="1">parameters</text></g><g id="sprotty_181" transform="translate(400, 50)" opacity="1"><rect class="elkport" x="0" y="0" width="16" height="9" /><text id="sprotty_182" class="elklabel" transform="translate(17, 10) translate(0, 0)" opacity="1">deployment</text></g><g id="sprotty_184" transform="translate(400, 110)" opacity="1"><rect class="elkport" x="0" y="0" width="16" height="9" /><text id="sprotty_185" class="elklabel" transform="translate(17, 10) translate(0, 0)" opacity="1">name</text></g><g id="sprotty_187" transform="translate(400, 170)" opacity="1"><rect class="elkport" x="0" y="0" width="16" height="9" /><text id="sprotty_188" class="elklabel" transform="translate(17, 10) translate(0, 0)" opacity="1">service</text></g><text id="sprotty_160" class="elklabel" transform="translate(0, -21) translate(0, 0)" opacity="1">deployment-service</text></g><g id="sprotty_117" transform="translate(-16, 50)" opacity="1"><rect class="elkport" x="0" y="0" width="16" height="9" /><text id="sprotty_118" class="elklabel" transform="translate(-1, 10) translate(0, 0)" opacity="1">name</text></g><g id="sprotty_120" transform="translate(-16, 110)" opacity="1"><rect class="elkport" x="0" y="0" width="16" height="9" /><text id="sprotty_121" class="elklabel" transform="translate(-1, 10) translate(0, 0)" opacity="1">namespace</text></g><g id="sprotty_126" transform="translate(-16, 170)" opacity="1"><rect class="elkport" x="0" y="0" width="16" height="9" /><text id="sprotty_127" class="elklabel" transform="translate(-1, 10) translate(0, 0)" opacity="1">controller_pwd</text></g><g id="sprotty_129" transform="translate(-16, 230)" opacity="1"><rect class="elkport" x="0" y="0" width="16" height="9" /><text id="sprotty_130" class="elklabel" transform="translate(-1, 10) translate(0, 0)" opacity="1">controller_url</text></g><g id="sprotty_132" transform="translate(-16, 290)" opacity="1"><rect class="elkport" x="0" y="0" width="16" height="9" /><text id="sprotty_133" class="elklabel" transform="translate(-1, 10) translate(0, 0)" opacity="1">controller_user</text></g><g id="sprotty_135" transform="translate(-16, 350)" opacity="1"><rect class="elkport" x="0" y="0" width="16" height="9" /><text id="sprotty_136" class="elklabel" transform="translate(-1, 10) translate(0, 0)" opacity="1">image</text></g><g id="sprotty_138" transform="translate(-16, 410)" opacity="1"><rect class="elkport" x="0" y="0" width="16" height="9" /><text id="sprotty_139" class="elklabel" transform="translate(-1, 10) translate(0, 0)" opacity="1">kie_server_id</text></g><g id="sprotty_141" transform="translate(-16, 470)" opacity="1"><rect class="elkport" x="0" y="0" width="16" height="9" /><text id="sprotty_142" class="elklabel" transform="translate(-1, 10) translate(0, 0)" opacity="1">kie_server_pwd</text></g><g id="sprotty_144" transform="translate(-16, 530)" opacity="1"><rect class="elkport" x="0" y="0" width="16" height="9" /><text id="sprotty_145" class="elklabel" transform="translate(-1, 10) translate(0, 0)" opacity="1">kie_server_user</text></g><g id="sprotty_147" transform="translate(-16, 590)" opacity="1"><rect class="elkport" x="0" y="0" width="16" height="9" /><text id="sprotty_148" class="elklabel" transform="translate(-1, 10) translate(0, 0)" opacity="1">maven_pwd</text></g><g id="sprotty_150" transform="translate(-16, 650)" opacity="1"><rect class="elkport" x="0" y="0" width="16" height="9" /><text id="sprotty_151" class="elklabel" transform="translate(-1, 10) translate(0, 0)" opacity="1">maven_repo_url</text></g><g id="sprotty_153" transform="translate(-16, 710)" opacity="1"><rect class="elkport" x="0" y="0" width="16" height="9" /><text id="sprotty_154" class="elklabel" transform="translate(-1, 10) translate(0, 0)" opacity="1">maven_user</text></g><g id="sprotty_156" transform="translate(-16, 770)" opacity="1"><rect class="elkport" x="0" y="0" width="16" height="9" /><text id="sprotty_157" class="elklabel" transform="translate(-1, 10) translate(0, 0)" opacity="1">replicas</text></g><g id="sprotty_191" transform="translate(-16, 830)" opacity="1"><rect class="elkport" x="0" y="0" width="16" height="9" /><text id="sprotty_192" class="elklabel" transform="translate(-1, 10) translate(0, 0)" opacity="1">overrides</text></g><g id="sprotty_194" transform="translate(1134, 50)" opacity="1"><rect class="elkport" x="0" y="0" width="16" height="9" /><text id="sprotty_195" class="elklabel" transform="translate(17, 10) translate(0, 0)" opacity="1">deployment</text></g><g id="sprotty_197" transform="translate(1134, 110)" opacity="1"><rect class="elkport" x="0" y="0" width="16" height="9" /><text id="sprotty_198" class="elklabel" transform="translate(17, 10) translate(0, 0)" opacity="1">name</text></g><g id="sprotty_200" transform="translate(1134, 170)" opacity="1"><rect class="elkport" x="0" y="0" width="16" height="9" /><text id="sprotty_201" class="elklabel" transform="translate(17, 10) translate(0, 0)" opacity="1">service</text></g><text id="sprotty_114" class="elklabel" transform="translate(0, -21) translate(0, 0)" opacity="1">kie-server2</text></g><g id="sprotty_7" transform="translate(-16, 174.5)" opacity="1"><rect class="elkport" x="0" y="0" width="16" height="9" /><text id="sprotty_8" class="elklabel" transform="translate(-1, -1) translate(0, 0)" opacity="1">namespace</text></g><g id="sprotty_17" transform="translate(-16, 2107.5)" opacity="1"><rect class="elkport" x="0" y="0" width="16" height="9" /><text id="sprotty_18" class="elklabel" transform="translate(-1, 10) translate(0, 0)" opacity="1">name</text></g><text id="sprotty_4" class="elklabel" transform="translate(0, -21) translate(0, 0)" opacity="1">examples/drools</text><g id="sprotty_9" class="sprotty-edge" opacity="1"><path class="elkedge" d="M 0,179 L 100,179" /><path class="edge arrow" d="M 0,0 L 8,-3 L 8,3 Z" transform="rotate(180 100 179) translate(100 179)" /></g><g id="sprotty_16" class="sprotty-edge" opacity="1"><path class="elkedge" d="M 1667,305.5 L 1768,305.5 L 1768,2092 L 1885,2092" /><path class="edge arrow" d="M 0,0 L 8,-3 L 8,3 Z" transform="rotate(180 1885 2092) translate(1885 2092)" /><g id="sprotty_16_j0" transform="translate(1768, 305.5)" opacity="1"><circle class="elkjunction" r="2" /></g></g><g id="sprotty_19" class="sprotty-edge" opacity="1"><path class="elkedge" d="M 0,2112 L 1885,2112" /><path class="edge arrow" d="M 0,0 L 8,-3 L 8,3 Z" transform="rotate(180 1885 2112) translate(1885 2112)" /></g><g id="sprotty_26" class="sprotty-edge" opacity="1"><path class="elkedge" d="M 1885,1137.4807692307693 L 1985,1149.7403846153845" /><path class="edge arrow" d="M 0,0 L 8,-3 L 8,3 Z" transform="rotate(-173.0106348436616 1985 1149.7403846153845) translate(1985 1149.7403846153845)" /></g><g id="sprotty_29" class="sprotty-edge" opacity="1"><path class="elkedge" d="M 1885,1195.173076923077 L 1985,1178.5865384615386" /><path class="edge arrow" d="M 0,0 L 8,-3 L 8,3 Z" transform="rotate(170.58235285466577 1985 1178.5865384615386) translate(1985 1178.5865384615386)" /></g><g id="sprotty_32" class="sprotty-edge" opacity="1"><path class="elkedge" d="M 2185,1162 L 2235,1162" /><path class="edge arrow" d="M 0,0 L 8,-3 L 8,3 Z" transform="rotate(180 2235 1162) translate(2235 1162)" /></g><g id="sprotty_35" class="sprotty-edge" opacity="1"><path class="elkedge" d="M 1885,1254.8493449781658 L 2235,1182.6331877729258" /><path class="edge arrow" d="M 0,0 L 8,-3 L 8,3 Z" transform="rotate(168.3416596572808 2235 1182.6331877729258) translate(2235 1182.6331877729258)" /></g><g id="sprotty_38" class="sprotty-edge" opacity="1"><path class="elkedge" d="M 1885,1313.801310043668 L 2246.0679611650485,1192" /><path class="edge arrow" d="M 0,0 L 8,-3 L 8,3 Z" transform="rotate(161.35888472155233 2246.0679611650485 1192) translate(2246.0679611650485 1192)" /></g><g id="sprotty_41" class="sprotty-edge" opacity="1"><path class="elkedge" d="M 1885,1372.7532751091703 L 2270.944055944056,1192" /><path class="edge arrow" d="M 0,0 L 8,-3 L 8,3 Z" transform="rotate(154.90439887692173 2270.944055944056 1192) translate(2270.944055944056 1192)" /></g><g id="sprotty_44" class="sprotty-edge" opacity="1"><path class="elkedge" d="M 1884.5081967213114,1432 L 2284.945355191257,1192" /><path class="edge arrow" d="M 0,0 L 8,-3 L 8,3 Z" transform="rotate(149.06384702104046 2284.945355191257 1192) translate(2284.945355191257 1192)" /></g><g id="sprotty_47" class="sprotty-edge" opacity="1"><path class="elkedge" d="M 1883.1614349775784,1492 L 2293.9237668161436,1192" /><path class="edge arrow" d="M 0,0 L 8,-3 L 8,3 Z" transform="rotate(143.85750043039226 2293.9237668161436 1192) translate(2293.9237668161436 1192)" /></g><g id="sprotty_50" class="sprotty-edge" opacity="1"><path class="elkedge" d="M 1882.2243346007604,1552 L 2300.1711026615967,1192" /><path class="edge arrow" d="M 0,0 L 8,-3 L 8,3 Z" transform="rotate(139.25991269207037 2300.1711026615967 1192) translate(2300.1711026615967 1192)" /></g><g id="sprotty_53" class="sprotty-edge" opacity="1"><path class="elkedge" d="M 1881.5346534653465,1612 L 2304.7689768976898,1192" /><path class="edge arrow" d="M 0,0 L 8,-3 L 8,3 Z" transform="rotate(135.21976355603596 2304.7689768976898 1192) translate(2304.7689768976898 1192)" /></g><g id="sprotty_56" class="sprotty-edge" opacity="1"><path class="elkedge" d="M 1881.0058309037902,1672 L 2308.2944606413994,1192" /><path class="edge arrow" d="M 0,0 L 8,-3 L 8,3 Z" transform="rotate(131.67498542941686 2308.2944606413994 1192) translate(2308.2944606413994 1192)" /></g><g id="sprotty_59" class="sprotty-edge" opacity="1"><path class="elkedge" d="M 1880.5874673629244,1732 L 2311.0835509138383,1192" /><path class="edge arrow" d="M 0,0 L 8,-3 L 8,3 Z" transform="rotate(128.56237690234465 2311.0835509138383 1192) translate(2311.0835509138383 1192)" /></g><g id="sprotty_62" class="sprotty-edge" opacity="1"><path class="elkedge" d="M 1880.2482269503546,1792 L 2313.3451536643024,1192" /><path class="edge arrow" d="M 0,0 L 8,-3 L 8,3 Z" transform="rotate(125.82281375991606 2313.3451536643024 1192) translate(2313.3451536643024 1192)" /></g><g id="sprotty_65" class="sprotty-edge" opacity="1"><path class="elkedge" d="M 1879.9676025917927,1852 L 2315.2159827213823,1192" /><path class="edge arrow" d="M 0,0 L 8,-3 L 8,3 Z" transform="rotate(123.40354326245475 2315.2159827213823 1192) translate(2315.2159827213823 1192)" /></g><g id="sprotty_72" class="sprotty-edge" opacity="1"><path class="elkedge" d="M 2702,1313 L 2702,1263" /><path class="edge arrow" d="M 0,0 L 8,-3 L 8,3 Z" transform="rotate(90 2702 1263) translate(2702 1263)" /></g><g id="sprotty_77" class="sprotty-edge" opacity="1"><path class="elkedge" d="M 2702,1533 L 2702,1483" /><path class="edge arrow" d="M 0,0 L 8,-3 L 8,3 Z" transform="rotate(90 2702 1483) translate(2702 1483)" /></g><g id="sprotty_80" class="sprotty-edge" opacity="1"><path class="elkedge" d="M 2702,1643 L 2702,1373" /><path class="edge arrow" d="M 0,0 L 8,-3 L 8,3 Z" transform="rotate(90 2702 1373) translate(2702 1373)" /></g><g id="sprotty_83" class="sprotty-edge" opacity="1"><path class="elkedge" d="M 2702,1753 L 2702,1593" /><path class="edge arrow" d="M 0,0 L 8,-3 L 8,3 Z" transform="rotate(90 2702 1593) translate(2702 1593)" /></g><g id="sprotty_86" class="sprotty-edge" opacity="1"><path class="elkedge" d="M 2495.6264118158124,1212 L 2691.157254561251,1753" /><path class="edge arrow" d="M 0,0 L 8,-3 L 8,3 Z" transform="rotate(-109.87111491399165 2691.157254561251 1753) translate(2691.157254561251 1753)" /></g><g id="sprotty_87" class="sprotty-edge" opacity="1"><path class="elkedge" d="M 2702,1753 L 2702,1703" /><path class="edge arrow" d="M 0,0 L 8,-3 L 8,3 Z" transform="rotate(90 2702 1703) translate(2702 1703)" /></g><g id="sprotty_90" class="sprotty-edge" opacity="1"><path class="elkedge" d="M 2802,1220.7403846153845 L 2902,1208.4807692307693" /><path class="edge arrow" d="M 0,0 L 8,-3 L 8,3 Z" transform="rotate(173.0106348436616 2902 1208.4807692307693) translate(2902 1208.4807692307693)" /></g><g id="sprotty_93" class="sprotty-edge" opacity="1"><path class="elkedge" d="M 2735.6388140161725,1423 L 2904.954177897574,1272" /><path class="edge arrow" d="M 0,0 L 8,-3 L 8,3 Z" transform="rotate(138.27256122803203 2904.954177897574 1272) translate(2904.954177897574 1272)" /></g><g id="sprotty_96" class="sprotty-edge" opacity="1"><path class="elkedge" d="M 2751.7211155378486,1423 L 2902.5418326693225,1332" /><path class="edge arrow" d="M 0,0 L 8,-3 L 8,3 Z" transform="rotate(148.89467282183264 2902.5418326693225 1332) translate(2902.5418326693225 1332)" /></g><g id="sprotty_97" class="sprotty-edge" opacity="1"><path class="elkedge" d="M 2435,1190.6163522012578 L 2486,1205.2106918238994" /><path class="edge arrow" d="M 0,0 L 8,-3 L 8,3 Z" transform="rotate(-164.0308101720756 2486 1205.2106918238994) translate(2486 1205.2106918238994)" /></g><g id="sprotty_100" class="sprotty-edge" opacity="1"><path class="elkedge" d="M 1880.9160789844852,1912 L 2490.0839210155145,1212" /><path class="edge arrow" d="M 0,0 L 8,-3 L 8,3 Z" transform="rotate(131.03108758379412 2490.0839210155145 1212) translate(2490.0839210155145 1212)" /></g><g id="sprotty_103" class="sprotty-edge" opacity="1"><path class="elkedge" d="M 2917.415492957746,1203 L 3019.584507042254,1141" /><path class="edge arrow" d="M 0,0 L 8,-3 L 8,3 Z" transform="rotate(148.74904898341944 3019.584507042254 1141) translate(3019.584507042254 1141)" /></g><g id="sprotty_106" class="sprotty-edge" opacity="1"><path class="elkedge" d="M 2917.415492957746,1263 L 3019.584507042254,1201" /><path class="edge arrow" d="M 0,0 L 8,-3 L 8,3 Z" transform="rotate(148.74904898341944 3019.584507042254 1201) translate(3019.584507042254 1201)" /></g><g id="sprotty_109" class="sprotty-edge" opacity="1"><path class="elkedge" d="M 2917.415492957746,1323 L 3019.584507042254,1261" /><path class="edge arrow" d="M 0,0 L 8,-3 L 8,3 Z" transform="rotate(148.74904898341944 3019.584507042254 1261) translate(3019.584507042254 1261)" /></g><g id="sprotty_110" class="sprotty-edge" opacity="1"><path class="elkedge" d="M 1667,305.5 L 1768,305.5 L 1768,1316.5 L 1869,1316.5" /><path class="edge arrow" d="M 0,0 L 8,-3 L 8,3 Z" transform="rotate(180 1869 1316.5) translate(1869 1316.5)" /><g id="sprotty_110_j0" transform="translate(1768, 1316.5)" opacity="1"><circle class="elkjunction" r="2" /></g></g><g id="sprotty_111" class="sprotty-edge" opacity="1"><path class="elkedge" d="M 1667,305.5 L 1768,305.5 L 1768,1736.5 L 1869,1736.5" /><path class="edge arrow" d="M 0,0 L 8,-3 L 8,3 Z" transform="rotate(180 1869 1736.5) translate(1869 1736.5)" /><g id="sprotty_111_j0" transform="translate(1768, 1736.5)" opacity="1"><circle class="elkjunction" r="2" /></g></g><g id="sprotty_112" class="sprotty-edge" opacity="1"><path class="elkedge" d="M 300,179 L 1718,179 L 1718,1196.5 L 1869,1196.5" /><path class="edge arrow" d="M 0,0 L 8,-3 L 8,3 Z" transform="rotate(180 1869 1196.5) translate(1869 1196.5)" /></g><g id="sprotty_119" class="sprotty-edge" opacity="1"><path class="elkedge" d="M 1885,126.48076923076923 L 1985,138.7403846153846" /><path class="edge arrow" d="M 0,0 L 8,-3 L 8,3 Z" transform="rotate(-173.01063484366153 1985 138.7403846153846) translate(1985 138.7403846153846)" /></g><g id="sprotty_122" class="sprotty-edge" opacity="1"><path class="elkedge" d="M 1885,184.1730769230769 L 1985,167.58653846153845" /><path class="edge arrow" d="M 0,0 L 8,-3 L 8,3 Z" transform="rotate(170.58235285466571 1985 167.58653846153845) translate(1985 167.58653846153845)" /></g><g id="sprotty_125" class="sprotty-edge" opacity="1"><path class="elkedge" d="M 2185,151 L 2235,151" /><path class="edge arrow" d="M 0,0 L 8,-3 L 8,3 Z" transform="rotate(180 2235 151) translate(2235 151)" /></g><g id="sprotty_128" class="sprotty-edge" opacity="1"><path class="elkedge" d="M 1885,243.84934497816593 L 2235,171.63318777292577" /><path class="edge arrow" d="M 0,0 L 8,-3 L 8,3 Z" transform="rotate(168.34165965728076 2235 171.63318777292577) translate(2235 171.63318777292577)" /></g><g id="sprotty_131" class="sprotty-edge" opacity="1"><path class="elkedge" d="M 1885,302.8013100436681 L 2246.0679611650485,181" /><path class="edge arrow" d="M 0,0 L 8,-3 L 8,3 Z" transform="rotate(161.35888472155233 2246.0679611650485 181) translate(2246.0679611650485 181)" /></g><g id="sprotty_134" class="sprotty-edge" opacity="1"><path class="elkedge" d="M 1885,361.7532751091703 L 2270.944055944056,181" /><path class="edge arrow" d="M 0,0 L 8,-3 L 8,3 Z" transform="rotate(154.90439887692173 2270.944055944056 181) translate(2270.944055944056 181)" /></g><g id="sprotty_137" class="sprotty-edge" opacity="1"><path class="elkedge" d="M 1884.5081967213114,421 L 2284.945355191257,181" /><path class="edge arrow" d="M 0,0 L 8,-3 L 8,3 Z" transform="rotate(149.06384702104046 2284.945355191257 181) translate(2284.945355191257 181)" /></g><g id="sprotty_140" class="sprotty-edge" opacity="1"><path class="elkedge" d="M 1883.1614349775784,481 L 2293.9237668161436,181" /><path class="edge arrow" d="M 0,0 L 8,-3 L 8,3 Z" transform="rotate(143.85750043039226 2293.9237668161436 181) translate(2293.9237668161436 181)" /></g><g id="sprotty_143" class="sprotty-edge" opacity="1"><path class="elkedge" d="M 1882.2243346007604,541 L 2300.1711026615967,181" /><path class="edge arrow" d="M 0,0 L 8,-3 L 8,3 Z" transform="rotate(139.25991269207037 2300.1711026615967 181) translate(2300.1711026615967 181)" /></g><g id="sprotty_146" class="sprotty-edge" opacity="1"><path class="elkedge" d="M 1881.5346534653465,601 L 2304.7689768976898,181" /><path class="edge arrow" d="M 0,0 L 8,-3 L 8,3 Z" transform="rotate(135.21976355603596 2304.7689768976898 181) translate(2304.7689768976898 181)" /></g><g id="sprotty_149" class="sprotty-edge" opacity="1"><path class="elkedge" d="M 1881.0058309037902,661 L 2308.2944606413994,181" /><path class="edge arrow" d="M 0,0 L 8,-3 L 8,3 Z" transform="rotate(131.67498542941686 2308.2944606413994 181) translate(2308.2944606413994 181)" /></g><g id="sprotty_152" class="sprotty-edge" opacity="1"><path class="elkedge" d="M 1880.5874673629244,721 L 2311.0835509138383,181" /><path class="edge arrow" d="M 0,0 L 8,-3 L 8,3 Z" transform="rotate(128.56237690234465 2311.0835509138383 181) translate(2311.0835509138383 181)" /></g><g id="sprotty_155" class="sprotty-edge" opacity="1"><path class="elkedge" d="M 1880.2482269503546,781 L 2313.3451536643024,181" /><path class="edge arrow" d="M 0,0 L 8,-3 L 8,3 Z" transform="rotate(125.82281375991606 2313.3451536643024 181) translate(2313.3451536643024 181)" /></g><g id="sprotty_158" class="sprotty-edge" opacity="1"><path class="elkedge" d="M 1879.9676025917927,841 L 2315.2159827213823,181" /><path class="edge arrow" d="M 0,0 L 8,-3 L 8,3 Z" transform="rotate(123.40354326245475 2315.2159827213823 181) translate(2315.2159827213823 181)" /></g><g id="sprotty_165" class="sprotty-edge" opacity="1"><path class="elkedge" d="M 2702,302 L 2702,252" /><path class="edge arrow" d="M 0,0 L 8,-3 L 8,3 Z" transform="rotate(90 2702 252) translate(2702 252)" /></g><g id="sprotty_170" class="sprotty-edge" opacity="1"><path class="elkedge" d="M 2702,522 L 2702,472" /><path class="edge arrow" d="M 0,0 L 8,-3 L 8,3 Z" transform="rotate(90 2702 472) translate(2702 472)" /></g><g id="sprotty_173" class="sprotty-edge" opacity="1"><path class="elkedge" d="M 2702,632 L 2702,362" /><path class="edge arrow" d="M 0,0 L 8,-3 L 8,3 Z" transform="rotate(90 2702 362) translate(2702 362)" /></g><g id="sprotty_176" class="sprotty-edge" opacity="1"><path class="elkedge" d="M 2702,742 L 2702,582" /><path class="edge arrow" d="M 0,0 L 8,-3 L 8,3 Z" transform="rotate(90 2702 582) translate(2702 582)" /></g><g id="sprotty_179" class="sprotty-edge" opacity="1"><path class="elkedge" d="M 2495.6264118158124,201 L 2691.157254561251,742" /><path class="edge arrow" d="M 0,0 L 8,-3 L 8,3 Z" transform="rotate(-109.87111491399165 2691.157254561251 742) translate(2691.157254561251 742)" /></g><g id="sprotty_180" class="sprotty-edge" opacity="1"><path class="elkedge" d="M 2702,742 L 2702,692" /><path class="edge arrow" d="M 0,0 L 8,-3 L 8,3 Z" transform="rotate(90 2702 692) translate(2702 692)" /></g><g id="sprotty_183" class="sprotty-edge" opacity="1"><path class="elkedge" d="M 2802,209.7403846153846 L 2902,197.48076923076923" /><path class="edge arrow" d="M 0,0 L 8,-3 L 8,3 Z" transform="rotate(173.01063484366153 2902 197.48076923076923) translate(2902 197.48076923076923)" /></g><g id="sprotty_186" class="sprotty-edge" opacity="1"><path class="elkedge" d="M 2735.6388140161725,412 L 2904.954177897574,261" /><path class="edge arrow" d="M 0,0 L 8,-3 L 8,3 Z" transform="rotate(138.27256122803203 2904.954177897574 261) translate(2904.954177897574 261)" /></g><g id="sprotty_189" class="sprotty-edge" opacity="1"><path class="elkedge" d="M 2751.7211155378486,412 L 2902.5418326693225,321" /><path class="edge arrow" d="M 0,0 L 8,-3 L 8,3 Z" transform="rotate(148.89467282183264 2902.5418326693225 321) translate(2902.5418326693225 321)" /></g><g id="sprotty_190" class="sprotty-edge" opacity="1"><path class="elkedge" d="M 2435,179.61635220125785 L 2486,194.21069182389937" /><path class="edge arrow" d="M 0,0 L 8,-3 L 8,3 Z" transform="rotate(-164.03081017207577 2486 194.21069182389937) translate(2486 194.21069182389937)" /></g><g id="sprotty_193" class="sprotty-edge" opacity="1"><path class="elkedge" d="M 1880.9160789844852,901 L 2490.0839210155145,201" /><path class="edge arrow" d="M 0,0 L 8,-3 L 8,3 Z" transform="rotate(131.03108758379412 2490.0839210155145 201) translate(2490.0839210155145 201)" /></g><g id="sprotty_196" class="sprotty-edge" opacity="1"><path class="elkedge" d="M 2917.415492957746,192 L 3019.584507042254,130" /><path class="edge arrow" d="M 0,0 L 8,-3 L 8,3 Z" transform="rotate(148.74904898341944 3019.584507042254 130) translate(3019.584507042254 130)" /></g><g id="sprotty_199" class="sprotty-edge" opacity="1"><path class="elkedge" d="M 2917.415492957746,252 L 3019.584507042254,190" /><path class="edge arrow" d="M 0,0 L 8,-3 L 8,3 Z" transform="rotate(148.74904898341944 3019.584507042254 190) translate(3019.584507042254 190)" /></g><g id="sprotty_202" class="sprotty-edge" opacity="1"><path class="elkedge" d="M 2917.415492957746,312 L 3019.584507042254,250" /><path class="edge arrow" d="M 0,0 L 8,-3 L 8,3 Z" transform="rotate(148.74904898341944 3019.584507042254 250) translate(3019.584507042254 250)" /></g><g id="sprotty_203" class="sprotty-edge" opacity="1"><path class="elkedge" d="M 1667,305.5 L 1869,305.5" /><path class="edge arrow" d="M 0,0 L 8,-3 L 8,3 Z" transform="rotate(180 1869 305.5) translate(1869 305.5)" /></g><g id="sprotty_204" class="sprotty-edge" opacity="1"><path class="elkedge" d="M 1667,305.5 L 1768,305.5 L 1768,725.5 L 1869,725.5" /><path class="edge arrow" d="M 0,0 L 8,-3 L 8,3 Z" transform="rotate(180 1869 725.5) translate(1869 725.5)" /><g id="sprotty_204_j0" transform="translate(1768, 725.5)" opacity="1"><circle class="elkjunction" r="2" /></g></g><g id="sprotty_205" class="sprotty-edge" opacity="1"><path class="elkedge" d="M 300,164 L 1768,164 L 1768,185.5 L 1869,185.5" /><path class="edge arrow" d="M 0,0 L 8,-3 L 8,3 Z" transform="rotate(180 1869 185.5) translate(1869 185.5)" /></g><g id="sprotty_210" class="sprotty-edge" opacity="1"><path class="elkedge" d="M 517,306.4807692307692 L 617,318.74038461538464" /><path class="edge arrow" d="M 0,0 L 8,-3 L 8,3 Z" transform="rotate(-173.0106348436615 617 318.74038461538464) translate(617 318.74038461538464)" /></g><g id="sprotty_213" class="sprotty-edge" opacity="1"><path class="elkedge" d="M 817,331 L 867,331" /><path class="edge arrow" d="M 0,0 L 8,-3 L 8,3 Z" transform="rotate(180 867 331) translate(867 331)" /></g><g id="sprotty_216" class="sprotty-edge" opacity="1"><path class="elkedge" d="M 517,364.8973799126637 L 867,338.53275109170306" /><path class="edge arrow" d="M 0,0 L 8,-3 L 8,3 Z" transform="rotate(175.69218709699993 867 338.53275109170306) translate(867 338.53275109170306)" /></g><g id="sprotty_219" class="sprotty-edge" opacity="1"><path class="elkedge" d="M 517,423.84934497816596 L 867,351.6331877729258" /><path class="edge arrow" d="M 0,0 L 8,-3 L 8,3 Z" transform="rotate(168.34165965728076 867 351.6331877729258) translate(867 351.6331877729258)" /></g><g id="sprotty_222" class="sprotty-edge" opacity="1"><path class="elkedge" d="M 517,482.8013100436681 L 878.0679611650485,361" /><path class="edge arrow" d="M 0,0 L 8,-3 L 8,3 Z" transform="rotate(161.35888472155233 878.0679611650485 361) translate(878.0679611650485 361)" /></g><g id="sprotty_225" class="sprotty-edge" opacity="1"><path class="elkedge" d="M 517,541.7532751091703 L 902.9440559440559,361" /><path class="edge arrow" d="M 0,0 L 8,-3 L 8,3 Z" transform="rotate(154.90439887692173 902.9440559440559 361) translate(902.9440559440559 361)" /></g><g id="sprotty_232" class="sprotty-edge" opacity="1"><path class="elkedge" d="M 1334,482 L 1334,432" /><path class="edge arrow" d="M 0,0 L 8,-3 L 8,3 Z" transform="rotate(90 1334 432) translate(1334 432)" /></g><g id="sprotty_237" class="sprotty-edge" opacity="1"><path class="elkedge" d="M 1334,702 L 1334,652" /><path class="edge arrow" d="M 0,0 L 8,-3 L 8,3 Z" transform="rotate(90 1334 652) translate(1334 652)" /></g><g id="sprotty_240" class="sprotty-edge" opacity="1"><path class="elkedge" d="M 1334,812 L 1334,542" /><path class="edge arrow" d="M 0,0 L 8,-3 L 8,3 Z" transform="rotate(90 1334 542) translate(1334 542)" /></g><g id="sprotty_243" class="sprotty-edge" opacity="1"><path class="elkedge" d="M 1334,922 L 1334,762" /><path class="edge arrow" d="M 0,0 L 8,-3 L 8,3 Z" transform="rotate(90 1334 762) translate(1334 762)" /></g><g id="sprotty_246" class="sprotty-edge" opacity="1"><path class="elkedge" d="M 1127.6264118158124,381 L 1323.1572545612512,922" /><path class="edge arrow" d="M 0,0 L 8,-3 L 8,3 Z" transform="rotate(-109.87111491399165 1323.1572545612512 922) translate(1323.1572545612512 922)" /></g><g id="sprotty_247" class="sprotty-edge" opacity="1"><path class="elkedge" d="M 1334,922 L 1334,872" /><path class="edge arrow" d="M 0,0 L 8,-3 L 8,3 Z" transform="rotate(90 1334 872) translate(1334 872)" /></g><g id="sprotty_250" class="sprotty-edge" opacity="1"><path class="elkedge" d="M 1434,389.74038461538464 L 1534,377.4807692307692" /><path class="edge arrow" d="M 0,0 L 8,-3 L 8,3 Z" transform="rotate(173.0106348436615 1534 377.4807692307692) translate(1534 377.4807692307692)" /></g><g id="sprotty_253" class="sprotty-edge" opacity="1"><path class="elkedge" d="M 1367.6388140161725,592 L 1536.954177897574,441" /><path class="edge arrow" d="M 0,0 L 8,-3 L 8,3 Z" transform="rotate(138.27256122803203 1536.954177897574 441) translate(1536.954177897574 441)" /></g><g id="sprotty_256" class="sprotty-edge" opacity="1"><path class="elkedge" d="M 1383.7211155378486,592 L 1534.5418326693227,501" /><path class="edge arrow" d="M 0,0 L 8,-3 L 8,3 Z" transform="rotate(148.89467282183267 1534.5418326693227 501) translate(1534.5418326693227 501)" /></g><g id="sprotty_257" class="sprotty-edge" opacity="1"><path class="elkedge" d="M 1067,359.6163522012579 L 1118,374.21069182389937" /><path class="edge arrow" d="M 0,0 L 8,-3 L 8,3 Z" transform="rotate(-164.03081017207577 1118 374.21069182389937) translate(1118 374.21069182389937)" /></g><g id="sprotty_260" class="sprotty-edge" opacity="1"><path class="elkedge" d="M 517,602.530794165316 L 1118,379.469205834684" /><path class="edge arrow" d="M 0,0 L 8,-3 L 8,3 Z" transform="rotate(159.63755529040608 1118 379.469205834684) translate(1118 379.469205834684)" /></g><g id="sprotty_263" class="sprotty-edge" opacity="1"><path class="elkedge" d="M 1550,375.7478632478633 L 1651,366.2521367521367" /><path class="edge arrow" d="M 0,0 L 8,-3 L 8,3 Z" transform="rotate(174.62900530446427 1651 366.2521367521367) translate(1651 366.2521367521367)" /></g><g id="sprotty_266" class="sprotty-edge" opacity="1"><path class="elkedge" d="M 1550,435.7478632478633 L 1651,426.2521367521367" /><path class="edge arrow" d="M 0,0 L 8,-3 L 8,3 Z" transform="rotate(174.62900530446427 1651 426.2521367521367) translate(1651 426.2521367521367)" /></g><g id="sprotty_267" class="sprotty-edge" opacity="1"><path class="elkedge" d="M 1544.7565445026178,492 L 1656.2434554973822,310" /><path class="edge arrow" d="M 0,0 L 8,-3 L 8,3 Z" transform="rotate(121.49019604671862 1656.2434554973822 310) translate(1656.2434554973822 310)" /></g><g id="sprotty_268" class="sprotty-edge" opacity="1"><path class="elkedge" d="M 300,194 L 350,194 L 350,485.5 L 501,485.5" /><path class="edge arrow" d="M 0,0 L 8,-3 L 8,3 Z" transform="rotate(180 501 485.5) translate(501 485.5)" /></g></g></g></svg>
