<svg id="sprotty_1" class="sprotty-graph sprotty" tabindex="1002" xmlns="http://www.w3.org/2000/svg" viewBox="0 0 3753 1630.5"><style>
.elknode {
    stroke: #448;
    stroke-width: 2;
    fill: #ddf;
    fill-opacity: 0.5;
}

.elkport {
    stroke: #448;
    stroke-width: 1;
    fill: #66c;
}

.elkedge {
    fill: none;
    stroke: #88f;
    stroke-width: 8;
    stroke-opacity: 0.3;
    pointer-events: stroke;
    stroke-linejoin: round;
}

.elkedge:hover {
    stroke: #448;
    stroke-width: 8;
    stroke-opacity: 1;
    stroke-dasharray: 16px;
    stroke-dashoffset: 32px;
    animation: stroke 0.5s linear infinite;
}

@keyframes stroke {
    to {
        stroke-dashoffset: 0;
    }
}

.elkedge.arrow {
    fill: #336;
}

.elklabel {
    stroke-width: 0;
    stroke: #000;
    fill: #000;
    font-family: sans-serif;
    font-size: 10pt;
    dominant-baseline: hanging;
}

.elklabel:hover {
    font-size: 24pt;
}

.elkjunction {
    stroke: none;
    fill: #224;
}

.selected &gt; rect {
    stroke-width: 3;
}

.mouseover {
    stroke: #88f;
}
/*
 * Copyright (C) 2017 TypeFox and others.
 *
 * Licensed under the Apache License, Version 2.0 (the &quot;License&quot;); you may not use this file except in compliance with the License.
 * You may obtain a copy of the License at http://www.apache.org/licenses/LICENSE-2.0
 */

.sprotty {
    padding: 0px;
    font-family: &quot;Helvetica Neue&quot;, Helvetica, Arial, sans-serif;
}

.sprotty-hidden {
    display: block;
    position: absolute;
    width: 0px;
    height: 0px;
}

.sprotty-popup {
    font-family: &quot;Helvetica Neue&quot;, Helvetica, Arial, sans-serif;
    position: absolute;
    background: white;
    border-radius: 5px;
    border: 1px solid;
    max-width: 400px;
    min-width: 100px;
}

.sprotty-popup &gt; div {
    margin: 10px;
}

.sprotty-popup-closed {
    display: none;
}
</style><g transform="scale(1) translate(0,0)"><g id="sprotty_3" transform="translate(117, 71)" opacity="1"><rect class="elknode" x="0" y="0" rx="10" width="3536" height="1509.5" /><g id="sprotty_5" transform="translate(100, 405.5)" opacity="1"><rect class="elknode" x="0" y="0" rx="10" width="200" height="60" /><text id="sprotty_6" class="elklabel" transform="translate(5, 22) translate(0, 0)" opacity="1">k8s_core_v1_namespace.this</text></g><g id="sprotty_10" transform="translate(3019, 71)" opacity="1"><rect class="elknode" x="0" y="0" rx="10" width="400" height="490" /><g id="sprotty_12" transform="translate(100, 50)" opacity="1"><rect class="elknode" x="0" y="0" rx="10" width="200" height="60" /><text id="sprotty_13" class="elklabel" transform="translate(5, 22) translate(0, 0)" opacity="1">k8s_extensions_v1beta1_ingress.this</text></g><g id="sprotty_14" transform="translate(100, 160)" opacity="1"><rect class="elknode" x="0" y="0" rx="10" width="200" height="60" /><text id="sprotty_15" class="elklabel" transform="translate(5, 22) translate(0, 0)" opacity="1">local.k8s_extensions_v1beta1_ingress_parameters</text></g><g id="sprotty_17" transform="translate(100, 270)" opacity="1"><rect class="elknode" x="0" y="0" rx="10" width="200" height="60" /><text id="sprotty_18" class="elklabel" transform="translate(5, 22) translate(0, 0)" opacity="1">local.parameters</text></g><g id="sprotty_23" transform="translate(100, 380)" opacity="1"><rect class="elknode" x="0" y="0" rx="10" width="200" height="60" /><text id="sprotty_24" class="elklabel" transform="translate(5, 22) translate(0, 0)" opacity="1">local.labels</text></g><g id="sprotty_20" transform="translate(-16, 50)" opacity="1"><rect class="elkport" x="0" y="0" width="16" height="9" /><text id="sprotty_21" class="elklabel" transform="translate(-1, 10) translate(0, 0)" opacity="1">overrides</text></g><g id="sprotty_25" transform="translate(-16, 110)" opacity="1"><rect class="elkport" x="0" y="0" width="16" height="9" /><text id="sprotty_26" class="elklabel" transform="translate(-1, 10) translate(0, 0)" opacity="1">name</text></g><g id="sprotty_29" transform="translate(-16, 170)" opacity="1"><rect class="elkport" x="0" y="0" width="16" height="9" /><text id="sprotty_30" class="elklabel" transform="translate(-1, 10) translate(0, 0)" opacity="1">annotations</text></g><g id="sprotty_32" transform="translate(-16, 230)" opacity="1"><rect class="elkport" x="0" y="0" width="16" height="9" /><text id="sprotty_33" class="elklabel" transform="translate(-1, 10) translate(0, 0)" opacity="1">ingress_class</text></g><g id="sprotty_35" transform="translate(-16, 290)" opacity="1"><rect class="elkport" x="0" y="0" width="16" height="9" /><text id="sprotty_36" class="elklabel" transform="translate(-1, 10) translate(0, 0)" opacity="1">namespace</text></g><g id="sprotty_38" transform="translate(-16, 350)" opacity="1"><rect class="elkport" x="0" y="0" width="16" height="9" /><text id="sprotty_39" class="elklabel" transform="translate(-1, 10) translate(0, 0)" opacity="1">rules</text></g><g id="sprotty_41" transform="translate(-16, 410)" opacity="1"><rect class="elkport" x="0" y="0" width="16" height="9" /><text id="sprotty_42" class="elklabel" transform="translate(-1, 10) translate(0, 0)" opacity="1">tls</text></g><g id="sprotty_44" transform="translate(400, 50)" opacity="1"><rect class="elkport" x="0" y="0" width="16" height="9" /><text id="sprotty_45" class="elklabel" transform="translate(17, 10) translate(0, 0)" opacity="1">rules</text></g><text id="sprotty_11" class="elklabel" transform="translate(0, -21) translate(0, 0)" opacity="1">ingress-rules</text></g><g id="sprotty_52" transform="translate(1885, 448.5)" opacity="1"><rect class="elknode" x="0" y="0" rx="10" width="900" height="941" /><g id="sprotty_58" transform="translate(100, 50)" opacity="1"><rect class="elknode" x="0" y="0" rx="10" width="200" height="60" /><text id="sprotty_59" class="elklabel" transform="translate(5, 22) translate(0, 0)" opacity="1">k8s_core_v1_config_map.this</text></g><g id="sprotty_66" transform="translate(350, 50)" opacity="1"><rect class="elknode" x="0" y="0" rx="10" width="200" height="60" /><text id="sprotty_67" class="elklabel" transform="translate(5, 22) translate(0, 0)" opacity="1">local.java_opts</text></g><g id="sprotty_86" transform="translate(600, 50)" opacity="1"><rect class="elknode" x="0" y="0" rx="10" width="200" height="60" /><text id="sprotty_87" class="elklabel" transform="translate(5, 22) translate(0, 0)" opacity="1">local.parameters</text></g><g id="sprotty_105" transform="translate(117, 181)" opacity="1"><rect class="elknode" x="0" y="0" rx="10" width="400" height="710" /><g id="sprotty_107" transform="translate(100, 50)" opacity="1"><rect class="elknode" x="0" y="0" rx="10" width="200" height="60" /><text id="sprotty_108" class="elklabel" transform="translate(5, 22) translate(0, 0)" opacity="1">k8s_apps_v1_deployment.this</text></g><g id="sprotty_109" transform="translate(100, 160)" opacity="1"><rect class="elknode" x="0" y="0" rx="10" width="200" height="60" /><text id="sprotty_110" class="elklabel" transform="translate(5, 22) translate(0, 0)" opacity="1">local.k8s_apps_v1_deployment_parameters</text></g><g id="sprotty_112" transform="translate(100, 270)" opacity="1"><rect class="elknode" x="0" y="0" rx="10" width="200" height="60" /><text id="sprotty_113" class="elklabel" transform="translate(5, 22) translate(0, 0)" opacity="1">k8s_core_v1_service.this</text></g><g id="sprotty_114" transform="translate(100, 380)" opacity="1"><rect class="elknode" x="0" y="0" rx="10" width="200" height="60" /><text id="sprotty_115" class="elklabel" transform="translate(5, 22) translate(0, 0)" opacity="1">local.k8s_core_v1_service_parameters</text></g><g id="sprotty_117" transform="translate(100, 490)" opacity="1"><rect class="elknode" x="0" y="0" rx="10" width="200" height="60" /><text id="sprotty_118" class="elklabel" transform="translate(5, 22) translate(0, 0)" opacity="1">local.selector</text></g><g id="sprotty_120" transform="translate(100, 600)" opacity="1"><rect class="elknode" x="0" y="0" rx="10" width="200" height="60" /><text id="sprotty_121" class="elklabel" transform="translate(5, 22) translate(0, 0)" opacity="1">local.labels</text></g><g id="sprotty_123" transform="translate(-16, 50)" opacity="1"><rect class="elkport" x="0" y="0" width="16" height="9" /><text id="sprotty_124" class="elklabel" transform="translate(-1, 10) translate(0, 0)" opacity="1">parameters</text></g><g id="sprotty_127" transform="translate(400, 50)" opacity="1"><rect class="elkport" x="0" y="0" width="16" height="9" /><text id="sprotty_128" class="elklabel" transform="translate(17, 10) translate(0, 0)" opacity="1">deployment</text></g><g id="sprotty_130" transform="translate(400, 110)" opacity="1"><rect class="elkport" x="0" y="0" width="16" height="9" /><text id="sprotty_131" class="elklabel" transform="translate(17, 10) translate(0, 0)" opacity="1">name</text></g><g id="sprotty_133" transform="translate(400, 170)" opacity="1"><rect class="elkport" x="0" y="0" width="16" height="9" /><text id="sprotty_134" class="elklabel" transform="translate(17, 10) translate(0, 0)" opacity="1">service</text></g><text id="sprotty_106" class="elklabel" transform="translate(0, -21) translate(0, 0)" opacity="1">deployment-service</text></g><g id="sprotty_54" transform="translate(900, 50)" opacity="1"><rect class="elkport" x="0" y="0" width="16" height="9" /><text id="sprotty_55" class="elklabel" transform="translate(17, 10) translate(0, 0)" opacity="1">service</text></g><g id="sprotty_60" transform="translate(-16, 50)" opacity="1"><rect class="elkport" x="0" y="0" width="16" height="9" /><text id="sprotty_61" class="elklabel" transform="translate(-1, 10) translate(0, 0)" opacity="1">name</text></g><g id="sprotty_63" transform="translate(-16, 110)" opacity="1"><rect class="elkport" x="0" y="0" width="16" height="9" /><text id="sprotty_64" class="elklabel" transform="translate(-1, 10) translate(0, 0)" opacity="1">namespace</text></g><g id="sprotty_68" transform="translate(-16, 170)" opacity="1"><rect class="elkport" x="0" y="0" width="16" height="9" /><text id="sprotty_69" class="elklabel" transform="translate(-1, 10) translate(0, 0)" opacity="1">controller_pwd</text></g><g id="sprotty_71" transform="translate(-16, 230)" opacity="1"><rect class="elkport" x="0" y="0" width="16" height="9" /><text id="sprotty_72" class="elklabel" transform="translate(-1, 10) translate(0, 0)" opacity="1">controller_url</text></g><g id="sprotty_74" transform="translate(-16, 290)" opacity="1"><rect class="elkport" x="0" y="0" width="16" height="9" /><text id="sprotty_75" class="elklabel" transform="translate(-1, 10) translate(0, 0)" opacity="1">controller_user</text></g><g id="sprotty_77" transform="translate(-16, 350)" opacity="1"><rect class="elkport" x="0" y="0" width="16" height="9" /><text id="sprotty_78" class="elklabel" transform="translate(-1, 10) translate(0, 0)" opacity="1">kie_server_pwd</text></g><g id="sprotty_80" transform="translate(-16, 410)" opacity="1"><rect class="elkport" x="0" y="0" width="16" height="9" /><text id="sprotty_81" class="elklabel" transform="translate(-1, 10) translate(0, 0)" opacity="1">kie_server_url</text></g><g id="sprotty_83" transform="translate(-16, 470)" opacity="1"><rect class="elkport" x="0" y="0" width="16" height="9" /><text id="sprotty_84" class="elklabel" transform="translate(-1, 10) translate(0, 0)" opacity="1">kie_server_user</text></g><g id="sprotty_90" transform="translate(-16, 530)" opacity="1"><rect class="elkport" x="0" y="0" width="16" height="9" /><text id="sprotty_91" class="elklabel" transform="translate(-1, 10) translate(0, 0)" opacity="1">image</text></g><g id="sprotty_93" transform="translate(-16, 590)" opacity="1"><rect class="elkport" x="0" y="0" width="16" height="9" /><text id="sprotty_94" class="elklabel" transform="translate(-1, 10) translate(0, 0)" opacity="1">maven_pwd</text></g><g id="sprotty_96" transform="translate(-16, 650)" opacity="1"><rect class="elkport" x="0" y="0" width="16" height="9" /><text id="sprotty_97" class="elklabel" transform="translate(-1, 10) translate(0, 0)" opacity="1">maven_repo_url</text></g><g id="sprotty_99" transform="translate(-16, 710)" opacity="1"><rect class="elkport" x="0" y="0" width="16" height="9" /><text id="sprotty_100" class="elklabel" transform="translate(-1, 10) translate(0, 0)" opacity="1">maven_user</text></g><g id="sprotty_102" transform="translate(-16, 770)" opacity="1"><rect class="elkport" x="0" y="0" width="16" height="9" /><text id="sprotty_103" class="elklabel" transform="translate(-1, 10) translate(0, 0)" opacity="1">replicas</text></g><g id="sprotty_137" transform="translate(-16, 830)" opacity="1"><rect class="elkport" x="0" y="0" width="16" height="9" /><text id="sprotty_138" class="elklabel" transform="translate(-1, 10) translate(0, 0)" opacity="1">overrides</text></g><g id="sprotty_140" transform="translate(900, 110)" opacity="1"><rect class="elkport" x="0" y="0" width="16" height="9" /><text id="sprotty_141" class="elklabel" transform="translate(17, 10) translate(0, 0)" opacity="1">deployment</text></g><g id="sprotty_143" transform="translate(900, 170)" opacity="1"><rect class="elkport" x="0" y="0" width="16" height="9" /><text id="sprotty_144" class="elklabel" transform="translate(17, 10) translate(0, 0)" opacity="1">name</text></g><text id="sprotty_53" class="elklabel" transform="translate(0, -21) translate(0, 0)" opacity="1">kie-server</text></g><g id="sprotty_147" transform="translate(517, 628.5)" opacity="1"><rect class="elknode" x="0" y="0" rx="10" width="1134" height="831" /><g id="sprotty_154" transform="translate(100, 50)" opacity="1"><rect class="elknode" x="0" y="0" rx="10" width="200" height="60" /><text id="sprotty_155" class="elklabel" transform="translate(5, 22) translate(0, 0)" opacity="1">local.command</text></g><g id="sprotty_159" transform="translate(350, 50)" opacity="1"><rect class="elknode" x="0" y="0" rx="10" width="200" height="60" /><text id="sprotty_160" class="elklabel" transform="translate(5, 22) translate(0, 0)" opacity="1">local.parameters</text></g><g id="sprotty_174" transform="translate(617, 71)" opacity="1"><rect class="elknode" x="0" y="0" rx="10" width="400" height="710" /><g id="sprotty_176" transform="translate(100, 50)" opacity="1"><rect class="elknode" x="0" y="0" rx="10" width="200" height="60" /><text id="sprotty_177" class="elklabel" transform="translate(5, 22) translate(0, 0)" opacity="1">k8s_apps_v1_deployment.this</text></g><g id="sprotty_178" transform="translate(100, 160)" opacity="1"><rect class="elknode" x="0" y="0" rx="10" width="200" height="60" /><text id="sprotty_179" class="elklabel" transform="translate(5, 22) translate(0, 0)" opacity="1">local.k8s_apps_v1_deployment_parameters</text></g><g id="sprotty_181" transform="translate(100, 270)" opacity="1"><rect class="elknode" x="0" y="0" rx="10" width="200" height="60" /><text id="sprotty_182" class="elklabel" transform="translate(5, 22) translate(0, 0)" opacity="1">k8s_core_v1_service.this</text></g><g id="sprotty_183" transform="translate(100, 380)" opacity="1"><rect class="elknode" x="0" y="0" rx="10" width="200" height="60" /><text id="sprotty_184" class="elklabel" transform="translate(5, 22) translate(0, 0)" opacity="1">local.k8s_core_v1_service_parameters</text></g><g id="sprotty_186" transform="translate(100, 490)" opacity="1"><rect class="elknode" x="0" y="0" rx="10" width="200" height="60" /><text id="sprotty_187" class="elklabel" transform="translate(5, 22) translate(0, 0)" opacity="1">local.selector</text></g><g id="sprotty_189" transform="translate(100, 600)" opacity="1"><rect class="elknode" x="0" y="0" rx="10" width="200" height="60" /><text id="sprotty_190" class="elklabel" transform="translate(5, 22) translate(0, 0)" opacity="1">local.labels</text></g><g id="sprotty_192" transform="translate(-16, 50)" opacity="1"><rect class="elkport" x="0" y="0" width="16" height="9" /><text id="sprotty_193" class="elklabel" transform="translate(-1, 10) translate(0, 0)" opacity="1">parameters</text></g><g id="sprotty_196" transform="translate(400, 50)" opacity="1"><rect class="elkport" x="0" y="0" width="16" height="9" /><text id="sprotty_197" class="elklabel" transform="translate(17, 10) translate(0, 0)" opacity="1">deployment</text></g><g id="sprotty_199" transform="translate(400, 110)" opacity="1"><rect class="elkport" x="0" y="0" width="16" height="9" /><text id="sprotty_200" class="elklabel" transform="translate(17, 10) translate(0, 0)" opacity="1">name</text></g><g id="sprotty_202" transform="translate(400, 170)" opacity="1"><rect class="elkport" x="0" y="0" width="16" height="9" /><text id="sprotty_203" class="elklabel" transform="translate(17, 10) translate(0, 0)" opacity="1">service</text></g><text id="sprotty_175" class="elklabel" transform="translate(0, -21) translate(0, 0)" opacity="1">deployment-service</text></g><g id="sprotty_149" transform="translate(1134, 50)" opacity="1"><rect class="elkport" x="0" y="0" width="16" height="9" /><text id="sprotty_150" class="elklabel" transform="translate(17, 10) translate(0, 0)" opacity="1">service</text></g><g id="sprotty_156" transform="translate(-16, 50)" opacity="1"><rect class="elkport" x="0" y="0" width="16" height="9" /><text id="sprotty_157" class="elklabel" transform="translate(-1, 10) translate(0, 0)" opacity="1">users</text></g><g id="sprotty_162" transform="translate(-16, 110)" opacity="1"><rect class="elkport" x="0" y="0" width="16" height="9" /><text id="sprotty_163" class="elklabel" transform="translate(-1, 10) translate(0, 0)" opacity="1">image</text></g><g id="sprotty_165" transform="translate(-16, 170)" opacity="1"><rect class="elkport" x="0" y="0" width="16" height="9" /><text id="sprotty_166" class="elklabel" transform="translate(-1, 10) translate(0, 0)" opacity="1">name</text></g><g id="sprotty_168" transform="translate(-16, 230)" opacity="1"><rect class="elkport" x="0" y="0" width="16" height="9" /><text id="sprotty_169" class="elklabel" transform="translate(-1, 10) translate(0, 0)" opacity="1">namespace</text></g><g id="sprotty_171" transform="translate(-16, 290)" opacity="1"><rect class="elkport" x="0" y="0" width="16" height="9" /><text id="sprotty_172" class="elklabel" transform="translate(-1, 10) translate(0, 0)" opacity="1">replicas</text></g><g id="sprotty_206" transform="translate(-16, 350)" opacity="1"><rect class="elkport" x="0" y="0" width="16" height="9" /><text id="sprotty_207" class="elklabel" transform="translate(-1, 10) translate(0, 0)" opacity="1">overrides</text></g><g id="sprotty_209" transform="translate(1134, 110)" opacity="1"><rect class="elkport" x="0" y="0" width="16" height="9" /><text id="sprotty_210" class="elklabel" transform="translate(17, 10) translate(0, 0)" opacity="1">deployment</text></g><g id="sprotty_212" transform="translate(1134, 170)" opacity="1"><rect class="elkport" x="0" y="0" width="16" height="9" /><text id="sprotty_213" class="elklabel" transform="translate(17, 10) translate(0, 0)" opacity="1">name</text></g><text id="sprotty_148" class="elklabel" transform="translate(0, -21) translate(0, 0)" opacity="1">workbench</text></g><g id="sprotty_7" transform="translate(-16, 431)" opacity="1"><rect class="elkport" x="0" y="0" width="16" height="9" /><text id="sprotty_8" class="elklabel" transform="translate(-1, 10) translate(0, 0)" opacity="1">namespace</text></g><g id="sprotty_47" transform="translate(-16, 350)" opacity="1"><rect class="elkport" x="0" y="0" width="16" height="9" /><text id="sprotty_48" class="elklabel" transform="translate(-1, -1) translate(0, 0)" opacity="1">name</text></g><text id="sprotty_4" class="elklabel" transform="translate(0, -21) translate(0, 0)" opacity="1">examples/drools</text><g id="sprotty_9" class="sprotty-edge" opacity="1"><path class="elkedge" d="M 0,435.5 L 100,435.5" /><path class="edge arrow" d="M 0,0 L 8,-3 L 8,3 Z" transform="rotate(180 100 435.5) translate(100 435.5)" /></g><g id="sprotty_16" class="sprotty-edge" opacity="1"><path class="elkedge" d="M 3219,231 L 3219,181" /><path class="edge arrow" d="M 0,0 L 8,-3 L 8,3 Z" transform="rotate(90 3219 181) translate(3219 181)" /></g><g id="sprotty_19" class="sprotty-edge" opacity="1"><path class="elkedge" d="M 3219,341 L 3219,291" /><path class="edge arrow" d="M 0,0 L 8,-3 L 8,3 Z" transform="rotate(90 3219 291) translate(3219 291)" /></g><g id="sprotty_22" class="sprotty-edge" opacity="1"><path class="elkedge" d="M 3017.9077490774907,130 L 3172.9483394833946,231" /><path class="edge arrow" d="M 0,0 L 8,-3 L 8,3 Z" transform="rotate(-146.91807712723488 3172.9483394833946 231) translate(3172.9483394833946 231)" /></g><g id="sprotty_27" class="sprotty-edge" opacity="1"><path class="elkedge" d="M 3014.167512690355,190 L 3197.8832487309646,451" /><path class="edge arrow" d="M 0,0 L 8,-3 L 8,3 Z" transform="rotate(-125.14139675071031 3197.8832487309646 451) translate(3197.8832487309646 451)" /></g><g id="sprotty_28" class="sprotty-edge" opacity="1"><path class="elkedge" d="M 3219,451 L 3219,401" /><path class="edge arrow" d="M 0,0 L 8,-3 L 8,3 Z" transform="rotate(90 3219 401) translate(3219 401)" /></g><g id="sprotty_31" class="sprotty-edge" opacity="1"><path class="elkedge" d="M 3018.4581673306775,250 L 3169.2788844621514,341" /><path class="edge arrow" d="M 0,0 L 8,-3 L 8,3 Z" transform="rotate(-148.89467282183264 3169.2788844621514 341) translate(3169.2788844621514 341)" /></g><g id="sprotty_34" class="sprotty-edge" opacity="1"><path class="elkedge" d="M 3019,308.0192307692308 L 3123.732824427481,341" /><path class="edge arrow" d="M 0,0 L 8,-3 L 8,3 Z" transform="rotate(-162.52058471831904 3123.732824427481 341) translate(3123.732824427481 341)" /></g><g id="sprotty_37" class="sprotty-edge" opacity="1"><path class="elkedge" d="M 3019,365.71153846153845 L 3119,368.3557692307692" /><path class="edge arrow" d="M 0,0 L 8,-3 L 8,3 Z" transform="rotate(-178.4853203219877 3119 368.3557692307692) translate(3119 368.3557692307692)" /></g><g id="sprotty_40" class="sprotty-edge" opacity="1"><path class="elkedge" d="M 3019,423.40384615384613 L 3119,397.2019230769231" /><path class="edge arrow" d="M 0,0 L 8,-3 L 8,3 Z" transform="rotate(165.31746945380982 3119 397.2019230769231) translate(3119 397.2019230769231)" /></g><g id="sprotty_43" class="sprotty-edge" opacity="1"><path class="elkedge" d="M 3019,481.09615384615387 L 3164.5021834061135,401" /><path class="edge arrow" d="M 0,0 L 8,-3 L 8,3 Z" transform="rotate(151.16806195334135 3164.5021834061135 401) translate(3164.5021834061135 401)" /></g><g id="sprotty_46" class="sprotty-edge" opacity="1"><path class="elkedge" d="M 3319,138.7403846153846 L 3419,126.48076923076923" /><path class="edge arrow" d="M 0,0 L 8,-3 L 8,3 Z" transform="rotate(173.01063484366153 3419 126.48076923076923) translate(3419 126.48076923076923)" /></g><g id="sprotty_49" class="sprotty-edge" opacity="1"><path class="elkedge" d="M 0,354.5 L 2852,354.5 L 2852,245.5 L 3003,245.5" /><path class="edge arrow" d="M 0,0 L 8,-3 L 8,3 Z" transform="rotate(180 3003 245.5) translate(3003 245.5)" /><g id="sprotty_49_j0" transform="translate(2852, 245.5)" opacity="1"><circle class="elkjunction" r="2" /></g></g><g id="sprotty_50" class="sprotty-edge" opacity="1"><path class="elkedge" d="M 0,354.5 L 2852,354.5 L 2852,185.5 L 3003,185.5" /><path class="edge arrow" d="M 0,0 L 8,-3 L 8,3 Z" transform="rotate(180 3003 185.5) translate(3003 185.5)" /></g><g id="sprotty_51" class="sprotty-edge" opacity="1"><path class="elkedge" d="M 300,420.5 L 350,420.5 L 350,365.5 L 3003,365.5" /><path class="edge arrow" d="M 0,0 L 8,-3 L 8,3 Z" transform="rotate(180 3003 365.5) translate(3003 365.5)" /></g><g id="sprotty_56" class="sprotty-edge" opacity="1"><path class="elkedge" d="M 2801,503 L 2852,503 L 2852,425.5 L 3003,425.5" /><path class="edge arrow" d="M 0,0 L 8,-3 L 8,3 Z" transform="rotate(180 3003 425.5) translate(3003 425.5)" /></g><g id="sprotty_57" class="sprotty-edge" opacity="1"><path class="elkedge" d="M 0,354.5 L 400,354.5 L 400,376.5 L 2852,376.5 L 2852,425.5 L 3003,425.5" /><path class="edge arrow" d="M 0,0 L 8,-3 L 8,3 Z" transform="rotate(180 3003 425.5) translate(3003 425.5)" /><g id="sprotty_57_j0" transform="translate(400, 354.5)" opacity="1"><circle class="elkjunction" r="2" /></g><g id="sprotty_57_j1" transform="translate(2852, 425.5)" opacity="1"><circle class="elkjunction" r="2" /></g></g><g id="sprotty_62" class="sprotty-edge" opacity="1"><path class="elkedge" d="M 1885,503.9807692307692 L 1985,516.2403846153846" /><path class="edge arrow" d="M 0,0 L 8,-3 L 8,3 Z" transform="rotate(-173.0106348436615 1985 516.2403846153846) translate(1985 516.2403846153846)" /></g><g id="sprotty_65" class="sprotty-edge" opacity="1"><path class="elkedge" d="M 1885,561.6730769230769 L 1985,545.0865384615385" /><path class="edge arrow" d="M 0,0 L 8,-3 L 8,3 Z" transform="rotate(170.58235285466571 1985 545.0865384615385) translate(1985 545.0865384615385)" /></g><g id="sprotty_70" class="sprotty-edge" opacity="1"><path class="elkedge" d="M 1885,621.349344978166 L 2235,549.1331877729258" /><path class="edge arrow" d="M 0,0 L 8,-3 L 8,3 Z" transform="rotate(168.34165965728076 2235 549.1331877729258) translate(2235 549.1331877729258)" /></g><g id="sprotty_73" class="sprotty-edge" opacity="1"><path class="elkedge" d="M 1885,680.3013100436681 L 2246.0679611650485,558.5" /><path class="edge arrow" d="M 0,0 L 8,-3 L 8,3 Z" transform="rotate(161.35888472155233 2246.0679611650485 558.5) translate(2246.0679611650485 558.5)" /></g><g id="sprotty_76" class="sprotty-edge" opacity="1"><path class="elkedge" d="M 1885,739.2532751091703 L 2270.944055944056,558.5" /><path class="edge arrow" d="M 0,0 L 8,-3 L 8,3 Z" transform="rotate(154.90439887692173 2270.944055944056 558.5) translate(2270.944055944056 558.5)" /></g><g id="sprotty_79" class="sprotty-edge" opacity="1"><path class="elkedge" d="M 1884.5081967213114,798.5 L 2284.945355191257,558.5" /><path class="edge arrow" d="M 0,0 L 8,-3 L 8,3 Z" transform="rotate(149.06384702104046 2284.945355191257 558.5) translate(2284.945355191257 558.5)" /></g><g id="sprotty_82" class="sprotty-edge" opacity="1"><path class="elkedge" d="M 1883.1614349775784,858.5 L 2293.9237668161436,558.5" /><path class="edge arrow" d="M 0,0 L 8,-3 L 8,3 Z" transform="rotate(143.85750043039226 2293.9237668161436 558.5) translate(2293.9237668161436 558.5)" /></g><g id="sprotty_85" class="sprotty-edge" opacity="1"><path class="elkedge" d="M 1882.2243346007604,918.5 L 2300.1711026615967,558.5" /><path class="edge arrow" d="M 0,0 L 8,-3 L 8,3 Z" transform="rotate(139.25991269207037 2300.1711026615967 558.5) translate(2300.1711026615967 558.5)" /></g><g id="sprotty_88" class="sprotty-edge" opacity="1"><path class="elkedge" d="M 2185,528.5 L 2485,528.5" /><path class="edge arrow" d="M 0,0 L 8,-3 L 8,3 Z" transform="rotate(180 2485 528.5) translate(2485 528.5)" /></g><g id="sprotty_89" class="sprotty-edge" opacity="1"><path class="elkedge" d="M 2435,528.5 L 2485,528.5" /><path class="edge arrow" d="M 0,0 L 8,-3 L 8,3 Z" transform="rotate(180 2485 528.5) translate(2485 528.5)" /></g><g id="sprotty_92" class="sprotty-edge" opacity="1"><path class="elkedge" d="M 1884.009900990099,978.5 L 2538.267326732673,558.5" /><path class="edge arrow" d="M 0,0 L 8,-3 L 8,3 Z" transform="rotate(147.30160014778943 2538.267326732673 558.5) translate(2538.267326732673 558.5)" /></g><g id="sprotty_95" class="sprotty-edge" opacity="1"><path class="elkedge" d="M 1883.1924198250729,1038.5 L 2543.7172011661805,558.5" /><path class="edge arrow" d="M 0,0 L 8,-3 L 8,3 Z" transform="rotate(143.99428580470885 2543.7172011661805 558.5) translate(2543.7172011661805 558.5)" /></g><g id="sprotty_98" class="sprotty-edge" opacity="1"><path class="elkedge" d="M 1882.5456919060052,1098.5 L 2548.028720626632,558.5" /><path class="edge arrow" d="M 0,0 L 8,-3 L 8,3 Z" transform="rotate(140.94271969280106 2548.028720626632 558.5) translate(2548.028720626632 558.5)" /></g><g id="sprotty_101" class="sprotty-edge" opacity="1"><path class="elkedge" d="M 1882.0212765957447,1158.5 L 2551.5248226950353,558.5" /><path class="edge arrow" d="M 0,0 L 8,-3 L 8,3 Z" transform="rotate(138.13373537557467 2551.5248226950353 558.5) translate(2551.5248226950353 558.5)" /></g><g id="sprotty_104" class="sprotty-edge" opacity="1"><path class="elkedge" d="M 1881.5874730021599,1218.5 L 2554.416846652268,558.5" /><path class="edge arrow" d="M 0,0 L 8,-3 L 8,3 Z" transform="rotate(135.5514931449633 2554.416846652268 558.5) translate(2554.416846652268 558.5)" /></g><g id="sprotty_111" class="sprotty-edge" opacity="1"><path class="elkedge" d="M 2202,789.5 L 2202,739.5" /><path class="edge arrow" d="M 0,0 L 8,-3 L 8,3 Z" transform="rotate(90 2202 739.5) translate(2202 739.5)" /></g><g id="sprotty_116" class="sprotty-edge" opacity="1"><path class="elkedge" d="M 2202,1009.5 L 2202,959.5" /><path class="edge arrow" d="M 0,0 L 8,-3 L 8,3 Z" transform="rotate(90 2202 959.5) translate(2202 959.5)" /></g><g id="sprotty_119" class="sprotty-edge" opacity="1"><path class="elkedge" d="M 2202,1119.5 L 2202,849.5" /><path class="edge arrow" d="M 0,0 L 8,-3 L 8,3 Z" transform="rotate(90 2202 849.5) translate(2202 849.5)" /></g><g id="sprotty_122" class="sprotty-edge" opacity="1"><path class="elkedge" d="M 2202,1229.5 L 2202,1069.5" /><path class="edge arrow" d="M 0,0 L 8,-3 L 8,3 Z" transform="rotate(90 2202 1069.5) translate(2202 1069.5)" /></g><g id="sprotty_125" class="sprotty-edge" opacity="1"><path class="elkedge" d="M 1995.6264118158124,688.5 L 2191.157254561251,1229.5" /><path class="edge arrow" d="M 0,0 L 8,-3 L 8,3 Z" transform="rotate(-109.87111491399165 2191.157254561251 1229.5) translate(2191.157254561251 1229.5)" /></g><g id="sprotty_126" class="sprotty-edge" opacity="1"><path class="elkedge" d="M 2202,1229.5 L 2202,1179.5" /><path class="edge arrow" d="M 0,0 L 8,-3 L 8,3 Z" transform="rotate(90 2202 1179.5) translate(2202 1179.5)" /></g><g id="sprotty_129" class="sprotty-edge" opacity="1"><path class="elkedge" d="M 2302,697.2403846153846 L 2402,684.9807692307693" /><path class="edge arrow" d="M 0,0 L 8,-3 L 8,3 Z" transform="rotate(173.01063484366153 2402 684.9807692307693) translate(2402 684.9807692307693)" /></g><g id="sprotty_132" class="sprotty-edge" opacity="1"><path class="elkedge" d="M 2235.6388140161725,899.5 L 2404.954177897574,748.5" /><path class="edge arrow" d="M 0,0 L 8,-3 L 8,3 Z" transform="rotate(138.27256122803203 2404.954177897574 748.5) translate(2404.954177897574 748.5)" /></g><g id="sprotty_135" class="sprotty-edge" opacity="1"><path class="elkedge" d="M 2251.7211155378486,899.5 L 2402.5418326693225,808.5" /><path class="edge arrow" d="M 0,0 L 8,-3 L 8,3 Z" transform="rotate(148.89467282183264 2402.5418326693225 808.5) translate(2402.5418326693225 808.5)" /></g><g id="sprotty_136" class="sprotty-edge" opacity="1"><path class="elkedge" d="M 2485,554.811336717428 L 2002,681.8950930626057" /><path class="edge arrow" d="M 0,0 L 8,-3 L 8,3 Z" transform="rotate(-14.741176804759585 2002 681.8950930626057) translate(2002 681.8950930626057)" /></g><g id="sprotty_139" class="sprotty-edge" opacity="1"><path class="elkedge" d="M 1877.8789649415694,1278.5 L 1993.1210350584306,688.5" /><path class="edge arrow" d="M 0,0 L 8,-3 L 8,3 Z" transform="rotate(101.05217685001946 1993.1210350584306 688.5) translate(1993.1210350584306 688.5)" /></g><g id="sprotty_142" class="sprotty-edge" opacity="1"><path class="elkedge" d="M 2418,681.4725848563969 L 2785,565.5274151436031" /><path class="edge arrow" d="M 0,0 L 8,-3 L 8,3 Z" transform="rotate(162.46727233860813 2785 565.5274151436031) translate(2785 565.5274151436031)" /></g><g id="sprotty_145" class="sprotty-edge" opacity="1"><path class="elkedge" d="M 2418,741.4725848563969 L 2785,625.5274151436031" /><path class="edge arrow" d="M 0,0 L 8,-3 L 8,3 Z" transform="rotate(162.46727233860813 2785 625.5274151436031) translate(2785 625.5274151436031)" /></g><g id="sprotty_146" class="sprotty-edge" opacity="1"><path class="elkedge" d="M 2415.7259136212624,799.5 L 2787.2740863787376,507.5" /><path class="edge arrow" d="M 0,0 L 8,-3 L 8,3 Z" transform="rotate(141.83616718880307 2787.2740863787376 507.5) translate(2787.2740863787376 507.5)" /></g><g id="sprotty_151" class="sprotty-edge" opacity="1"><path class="elkedge" d="M 1667,683 L 1869,683" /><path class="edge arrow" d="M 0,0 L 8,-3 L 8,3 Z" transform="rotate(180 1869 683) translate(1869 683)" /></g><g id="sprotty_152" class="sprotty-edge" opacity="1"><path class="elkedge" d="M 1667,683 L 1718,683 L 1718,1103 L 1869,1103" /><path class="edge arrow" d="M 0,0 L 8,-3 L 8,3 Z" transform="rotate(180 1869 1103) translate(1869 1103)" /><g id="sprotty_152_j0" transform="translate(1718, 683)" opacity="1"><circle class="elkjunction" r="2" /></g></g><g id="sprotty_153" class="sprotty-edge" opacity="1"><path class="elkedge" d="M 300,435.5 L 1718,435.5 L 1718,563 L 1869,563" /><path class="edge arrow" d="M 0,0 L 8,-3 L 8,3 Z" transform="rotate(180 1869 563) translate(1869 563)" /></g><g id="sprotty_158" class="sprotty-edge" opacity="1"><path class="elkedge" d="M 517,683.9807692307693 L 617,696.2403846153846" /><path class="edge arrow" d="M 0,0 L 8,-3 L 8,3 Z" transform="rotate(-173.01063484366153 617 696.2403846153846) translate(617 696.2403846153846)" /></g><g id="sprotty_161" class="sprotty-edge" opacity="1"><path class="elkedge" d="M 817,708.5 L 867,708.5" /><path class="edge arrow" d="M 0,0 L 8,-3 L 8,3 Z" transform="rotate(180 867 708.5) translate(867 708.5)" /></g><g id="sprotty_164" class="sprotty-edge" opacity="1"><path class="elkedge" d="M 517,742.3973799126637 L 867,716.0327510917031" /><path class="edge arrow" d="M 0,0 L 8,-3 L 8,3 Z" transform="rotate(175.69218709699993 867 716.0327510917031) translate(867 716.0327510917031)" /></g><g id="sprotty_167" class="sprotty-edge" opacity="1"><path class="elkedge" d="M 517,801.349344978166 L 867,729.1331877729258" /><path class="edge arrow" d="M 0,0 L 8,-3 L 8,3 Z" transform="rotate(168.34165965728076 867 729.1331877729258) translate(867 729.1331877729258)" /></g><g id="sprotty_170" class="sprotty-edge" opacity="1"><path class="elkedge" d="M 517,860.3013100436681 L 878.0679611650485,738.5" /><path class="edge arrow" d="M 0,0 L 8,-3 L 8,3 Z" transform="rotate(161.35888472155233 878.0679611650485 738.5) translate(878.0679611650485 738.5)" /></g><g id="sprotty_173" class="sprotty-edge" opacity="1"><path class="elkedge" d="M 517,919.2532751091703 L 902.9440559440559,738.5" /><path class="edge arrow" d="M 0,0 L 8,-3 L 8,3 Z" transform="rotate(154.90439887692173 902.9440559440559 738.5) translate(902.9440559440559 738.5)" /></g><g id="sprotty_180" class="sprotty-edge" opacity="1"><path class="elkedge" d="M 1334,859.5 L 1334,809.5" /><path class="edge arrow" d="M 0,0 L 8,-3 L 8,3 Z" transform="rotate(90 1334 809.5) translate(1334 809.5)" /></g><g id="sprotty_185" class="sprotty-edge" opacity="1"><path class="elkedge" d="M 1334,1079.5 L 1334,1029.5" /><path class="edge arrow" d="M 0,0 L 8,-3 L 8,3 Z" transform="rotate(90 1334 1029.5) translate(1334 1029.5)" /></g><g id="sprotty_188" class="sprotty-edge" opacity="1"><path class="elkedge" d="M 1334,1189.5 L 1334,919.5" /><path class="edge arrow" d="M 0,0 L 8,-3 L 8,3 Z" transform="rotate(90 1334 919.5) translate(1334 919.5)" /></g><g id="sprotty_191" class="sprotty-edge" opacity="1"><path class="elkedge" d="M 1334,1299.5 L 1334,1139.5" /><path class="edge arrow" d="M 0,0 L 8,-3 L 8,3 Z" transform="rotate(90 1334 1139.5) translate(1334 1139.5)" /></g><g id="sprotty_194" class="sprotty-edge" opacity="1"><path class="elkedge" d="M 1127.6264118158124,758.5 L 1323.1572545612512,1299.5" /><path class="edge arrow" d="M 0,0 L 8,-3 L 8,3 Z" transform="rotate(-109.87111491399165 1323.1572545612512 1299.5) translate(1323.1572545612512 1299.5)" /></g><g id="sprotty_195" class="sprotty-edge" opacity="1"><path class="elkedge" d="M 1334,1299.5 L 1334,1249.5" /><path class="edge arrow" d="M 0,0 L 8,-3 L 8,3 Z" transform="rotate(90 1334 1249.5) translate(1334 1249.5)" /></g><g id="sprotty_198" class="sprotty-edge" opacity="1"><path class="elkedge" d="M 1434,767.2403846153846 L 1534,754.9807692307693" /><path class="edge arrow" d="M 0,0 L 8,-3 L 8,3 Z" transform="rotate(173.01063484366153 1534 754.9807692307693) translate(1534 754.9807692307693)" /></g><g id="sprotty_201" class="sprotty-edge" opacity="1"><path class="elkedge" d="M 1367.6388140161725,969.5 L 1536.954177897574,818.5" /><path class="edge arrow" d="M 0,0 L 8,-3 L 8,3 Z" transform="rotate(138.27256122803203 1536.954177897574 818.5) translate(1536.954177897574 818.5)" /></g><g id="sprotty_204" class="sprotty-edge" opacity="1"><path class="elkedge" d="M 1383.7211155378486,969.5 L 1534.5418326693227,878.5" /><path class="edge arrow" d="M 0,0 L 8,-3 L 8,3 Z" transform="rotate(148.89467282183267 1534.5418326693227 878.5) translate(1534.5418326693227 878.5)" /></g><g id="sprotty_205" class="sprotty-edge" opacity="1"><path class="elkedge" d="M 1067,737.1163522012579 L 1118,751.7106918238994" /><path class="edge arrow" d="M 0,0 L 8,-3 L 8,3 Z" transform="rotate(-164.03081017207572 1118 751.7106918238994) translate(1118 751.7106918238994)" /></g><g id="sprotty_208" class="sprotty-edge" opacity="1"><path class="elkedge" d="M 517,980.030794165316 L 1118,756.969205834684" /><path class="edge arrow" d="M 0,0 L 8,-3 L 8,3 Z" transform="rotate(159.63755529040608 1118 756.969205834684) translate(1118 756.969205834684)" /></g><g id="sprotty_211" class="sprotty-edge" opacity="1"><path class="elkedge" d="M 1550,753.2478632478633 L 1651,743.7521367521367" /><path class="edge arrow" d="M 0,0 L 8,-3 L 8,3 Z" transform="rotate(174.62900530446427 1651 743.7521367521367) translate(1651 743.7521367521367)" /></g><g id="sprotty_214" class="sprotty-edge" opacity="1"><path class="elkedge" d="M 1550,813.2478632478633 L 1651,803.7521367521367" /><path class="edge arrow" d="M 0,0 L 8,-3 L 8,3 Z" transform="rotate(174.62900530446427 1651 803.7521367521367) translate(1651 803.7521367521367)" /></g><g id="sprotty_215" class="sprotty-edge" opacity="1"><path class="elkedge" d="M 1544.7565445026178,869.5 L 1656.2434554973822,687.5" /><path class="edge arrow" d="M 0,0 L 8,-3 L 8,3 Z" transform="rotate(121.49019604671862 1656.2434554973822 687.5) translate(1656.2434554973822 687.5)" /></g><g id="sprotty_216" class="sprotty-edge" opacity="1"><path class="elkedge" d="M 300,450.5 L 350,450.5 L 350,863 L 501,863" /><path class="edge arrow" d="M 0,0 L 8,-3 L 8,3 Z" transform="rotate(180 501 863) translate(501 863)" /></g></g></g></svg>
