<svg id="sprotty_1" class="sprotty-graph sprotty" tabindex="1002" xmlns="http://www.w3.org/2000/svg" viewBox="0 0 3402 2081"><style>
.elknode {
    stroke: #448;
    stroke-width: 2;
    fill: #ddf;
    fill-opacity: 0.5;
}

.elkport {
    stroke: #448;
    stroke-width: 1;
    fill: #66c;
}

.elkedge {
    fill: none;
    stroke: #88f;
    stroke-width: 8;
    stroke-opacity: 0.3;
    pointer-events: stroke;
    stroke-linejoin: round;
}

.elkedge:hover {
    stroke: #448;
    stroke-width: 8;
    stroke-opacity: 1;
    stroke-dasharray: 16px;
    stroke-dashoffset: 32px;
    animation: stroke 0.5s linear infinite;
}

@keyframes stroke {
    to {
        stroke-dashoffset: 0;
    }
}

.elkedge.arrow {
    fill: #336;
}

.elklabel {
    stroke-width: 0;
    stroke: #000;
    fill: #000;
    font-family: sans-serif;
    font-size: 10pt;
    dominant-baseline: hanging;
}

.elklabel:hover {
    font-size: 24pt;
}

.elkjunction {
    stroke: none;
    fill: #224;
}

.selected &gt; rect {
    stroke-width: 3;
}

.mouseover {
    stroke: #88f;
}
/*
 * Copyright (C) 2017 TypeFox and others.
 *
 * Licensed under the Apache License, Version 2.0 (the &quot;License&quot;); you may not use this file except in compliance with the License.
 * You may obtain a copy of the License at http://www.apache.org/licenses/LICENSE-2.0
 */

.sprotty {
    padding: 0px;
    font-family: &quot;Helvetica Neue&quot;, Helvetica, Arial, sans-serif;
}

.sprotty-hidden {
    display: block;
    position: absolute;
    width: 0px;
    height: 0px;
}

.sprotty-popup {
    font-family: &quot;Helvetica Neue&quot;, Helvetica, Arial, sans-serif;
    position: absolute;
    background: white;
    border-radius: 5px;
    border: 1px solid;
    max-width: 400px;
    min-width: 100px;
}

.sprotty-popup &gt; div {
    margin: 10px;
}

.sprotty-popup-closed {
    display: none;
}
</style><g transform="scale(1) translate(0,0)"><g id="sprotty_3" transform="translate(117, 71)" opacity="1"><rect class="elknode" x="0" y="0" rx="10" width="3185" height="1960" /><g id="sprotty_5" transform="translate(100, 225.5)" opacity="1"><rect class="elknode" x="0" y="0" rx="10" width="200" height="60" /><text id="sprotty_6" class="elklabel" transform="translate(5, 22) translate(0, 0)" opacity="1">k8s_core_v1_namespace.this</text></g><g id="sprotty_10" transform="translate(742, 832)" opacity="1"><rect class="elknode" x="0" y="0" rx="10" width="200" height="60" /><text id="sprotty_11" class="elklabel" transform="translate(5, 22) translate(0, 0)" opacity="1">k8s_core_v1_namespace.workspace</text></g><g id="sprotty_15" transform="translate(1568, 1850)" opacity="1"><rect class="elknode" x="0" y="0" rx="10" width="200" height="60" /><text id="sprotty_16" class="elklabel" transform="translate(5, 22) translate(0, 0)" opacity="1">k8s_core_v1_persistent_volume.che-data-volume</text></g><g id="sprotty_17" transform="translate(217, 1014)" opacity="1"><rect class="elknode" x="0" y="0" rx="10" width="1134" height="831" /><g id="sprotty_178" transform="translate(100, 50)" opacity="1"><rect class="elknode" x="0" y="0" rx="10" width="200" height="60" /><text id="sprotty_179" class="elklabel" transform="translate(5, 22) translate(0, 0)" opacity="1">local.mount_options</text></g><g id="sprotty_183" transform="translate(350, 50)" opacity="1"><rect class="elknode" x="0" y="0" rx="10" width="200" height="60" /><text id="sprotty_184" class="elklabel" transform="translate(5, 22) translate(0, 0)" opacity="1">local.parameters</text></g><g id="sprotty_198" transform="translate(617, 71)" opacity="1"><rect class="elknode" x="0" y="0" rx="10" width="400" height="710" /><g id="sprotty_200" transform="translate(100, 50)" opacity="1"><rect class="elknode" x="0" y="0" rx="10" width="200" height="60" /><text id="sprotty_201" class="elklabel" transform="translate(5, 22) translate(0, 0)" opacity="1">k8s_apps_v1_deployment.this</text></g><g id="sprotty_202" transform="translate(100, 160)" opacity="1"><rect class="elknode" x="0" y="0" rx="10" width="200" height="60" /><text id="sprotty_203" class="elklabel" transform="translate(5, 22) translate(0, 0)" opacity="1">local.k8s_apps_v1_deployment_parameters</text></g><g id="sprotty_205" transform="translate(100, 270)" opacity="1"><rect class="elknode" x="0" y="0" rx="10" width="200" height="60" /><text id="sprotty_206" class="elklabel" transform="translate(5, 22) translate(0, 0)" opacity="1">k8s_core_v1_service.this</text></g><g id="sprotty_207" transform="translate(100, 380)" opacity="1"><rect class="elknode" x="0" y="0" rx="10" width="200" height="60" /><text id="sprotty_208" class="elklabel" transform="translate(5, 22) translate(0, 0)" opacity="1">local.k8s_core_v1_service_parameters</text></g><g id="sprotty_210" transform="translate(100, 490)" opacity="1"><rect class="elknode" x="0" y="0" rx="10" width="200" height="60" /><text id="sprotty_211" class="elklabel" transform="translate(5, 22) translate(0, 0)" opacity="1">local.selector</text></g><g id="sprotty_213" transform="translate(100, 600)" opacity="1"><rect class="elknode" x="0" y="0" rx="10" width="200" height="60" /><text id="sprotty_214" class="elklabel" transform="translate(5, 22) translate(0, 0)" opacity="1">local.labels</text></g><g id="sprotty_216" transform="translate(-16, 50)" opacity="1"><rect class="elkport" x="0" y="0" width="16" height="9" /><text id="sprotty_217" class="elklabel" transform="translate(-1, 10) translate(0, 0)" opacity="1">parameters</text></g><g id="sprotty_220" transform="translate(400, 50)" opacity="1"><rect class="elkport" x="0" y="0" width="16" height="9" /><text id="sprotty_221" class="elklabel" transform="translate(17, 10) translate(0, 0)" opacity="1">deployment</text></g><g id="sprotty_223" transform="translate(400, 110)" opacity="1"><rect class="elkport" x="0" y="0" width="16" height="9" /><text id="sprotty_224" class="elklabel" transform="translate(17, 10) translate(0, 0)" opacity="1">name</text></g><g id="sprotty_226" transform="translate(400, 170)" opacity="1"><rect class="elkport" x="0" y="0" width="16" height="9" /><text id="sprotty_227" class="elklabel" transform="translate(17, 10) translate(0, 0)" opacity="1">service</text></g><text id="sprotty_199" class="elklabel" transform="translate(0, -21) translate(0, 0)" opacity="1">deployment-service</text></g><g id="sprotty_19" transform="translate(1134, 50)" opacity="1"><rect class="elkport" x="0" y="0" width="16" height="9" /><text id="sprotty_20" class="elklabel" transform="translate(17, 10) translate(0, 0)" opacity="1">mount_options</text></g><g id="sprotty_22" transform="translate(1134, 110)" opacity="1"><rect class="elkport" x="0" y="0" width="16" height="9" /><text id="sprotty_23" class="elklabel" transform="translate(17, 10) translate(0, 0)" opacity="1">service</text></g><g id="sprotty_180" transform="translate(-16, 50)" opacity="1"><rect class="elkport" x="0" y="0" width="16" height="9" /><text id="sprotty_181" class="elklabel" transform="translate(-1, 10) translate(0, 0)" opacity="1">port</text></g><g id="sprotty_185" transform="translate(-16, 110)" opacity="1"><rect class="elkport" x="0" y="0" width="16" height="9" /><text id="sprotty_186" class="elklabel" transform="translate(-1, 10) translate(0, 0)" opacity="1">image</text></g><g id="sprotty_188" transform="translate(-16, 170)" opacity="1"><rect class="elkport" x="0" y="0" width="16" height="9" /><text id="sprotty_189" class="elklabel" transform="translate(-1, 10) translate(0, 0)" opacity="1">medium</text></g><g id="sprotty_191" transform="translate(-16, 230)" opacity="1"><rect class="elkport" x="0" y="0" width="16" height="9" /><text id="sprotty_192" class="elklabel" transform="translate(-1, 10) translate(0, 0)" opacity="1">name</text></g><g id="sprotty_194" transform="translate(-16, 290)" opacity="1"><rect class="elkport" x="0" y="0" width="16" height="9" /><text id="sprotty_195" class="elklabel" transform="translate(-1, 10) translate(0, 0)" opacity="1">namespace</text></g><g id="sprotty_230" transform="translate(-16, 350)" opacity="1"><rect class="elkport" x="0" y="0" width="16" height="9" /><text id="sprotty_231" class="elklabel" transform="translate(-1, 10) translate(0, 0)" opacity="1">overrides</text></g><g id="sprotty_233" transform="translate(1134, 170)" opacity="1"><rect class="elkport" x="0" y="0" width="16" height="9" /><text id="sprotty_234" class="elklabel" transform="translate(17, 10) translate(0, 0)" opacity="1">deployment</text></g><g id="sprotty_237" transform="translate(1134, 230)" opacity="1"><rect class="elkport" x="0" y="0" width="16" height="9" /><text id="sprotty_238" class="elklabel" transform="translate(17, 10) translate(0, 0)" opacity="1">name</text></g><text id="sprotty_18" class="elklabel" transform="translate(0, -21) translate(0, 0)" opacity="1">nfs-server</text></g><g id="sprotty_28" transform="translate(1568, 1083.5)" opacity="1"><rect class="elknode" x="0" y="0" rx="10" width="200" height="60" /><text id="sprotty_29" class="elklabel" transform="translate(5, 22) translate(0, 0)" opacity="1">k8s_core_v1_persistent_volume.claim-che-workspace</text></g><g id="sprotty_33" transform="translate(1501, 832)" opacity="1"><rect class="elknode" x="0" y="0" rx="10" width="200" height="60" /><text id="sprotty_34" class="elklabel" transform="translate(5, 22) translate(0, 0)" opacity="1">k8s_core_v1_service_account.workspace</text></g><g id="sprotty_36" transform="translate(2885, 95.5)" opacity="1"><rect class="elknode" x="0" y="0" rx="10" width="200" height="60" /><text id="sprotty_37" class="elklabel" transform="translate(5, 22) translate(0, 0)" opacity="1">k8s_extensions_v1beta1_ingress.devfile-registry</text></g><g id="sprotty_38" transform="translate(2268, 71)" opacity="1"><rect class="elknode" x="0" y="0" rx="10" width="400" height="270" /><g id="sprotty_63" transform="translate(100, 50)" opacity="1"><rect class="elknode" x="0" y="0" rx="10" width="200" height="60" /><text id="sprotty_64" class="elklabel" transform="translate(5, 22) translate(0, 0)" opacity="1">k8s_apps_v1_deployment.devfile-registry</text></g><g id="sprotty_68" transform="translate(100, 160)" opacity="1"><rect class="elknode" x="0" y="0" rx="10" width="200" height="60" /><text id="sprotty_69" class="elklabel" transform="translate(5, 22) translate(0, 0)" opacity="1">k8s_core_v1_service.devfile-registry</text></g><g id="sprotty_40" transform="translate(400, 50)" opacity="1"><rect class="elkport" x="0" y="0" width="16" height="9" /><text id="sprotty_41" class="elklabel" transform="translate(17, 10) translate(0, 0)" opacity="1">service</text></g><g id="sprotty_61" transform="translate(400, 110)" opacity="1"><rect class="elkport" x="0" y="0" width="16" height="9" /><text id="sprotty_62" class="elklabel" transform="translate(17, 10) translate(0, 0)" opacity="1">deployment</text></g><g id="sprotty_66" transform="translate(400, 170)" opacity="1"><rect class="elkport" x="0" y="0" width="16" height="9" /><text id="sprotty_67" class="elklabel" transform="translate(17, 10) translate(0, 0)" opacity="1">name</text></g><text id="sprotty_39" class="elklabel" transform="translate(0, -21) translate(0, 0)" opacity="1">devfile-registry</text></g><g id="sprotty_43" transform="translate(2018, 105.5)" opacity="1"><rect class="elknode" x="0" y="0" rx="10" width="200" height="60" /><text id="sprotty_44" class="elklabel" transform="translate(5, 22) translate(0, 0)" opacity="1">k8s_extensions_v1beta1_ingress.ingress</text></g><g id="sprotty_45" transform="translate(1401, 71)" opacity="1"><rect class="elknode" x="0" y="0" rx="10" width="400" height="380" /><g id="sprotty_72" transform="translate(100, 50)" opacity="1"><rect class="elknode" x="0" y="0" rx="10" width="200" height="60" /><text id="sprotty_73" class="elklabel" transform="translate(5, 22) translate(0, 0)" opacity="1">k8s_core_v1_config_map.che</text></g><g id="sprotty_82" transform="translate(100, 160)" opacity="1"><rect class="elknode" x="0" y="0" rx="10" width="200" height="60" /><text id="sprotty_83" class="elklabel" transform="translate(5, 22) translate(0, 0)" opacity="1">k8s_extensions_v1beta1_deployment.che</text></g><g id="sprotty_87" transform="translate(100, 270)" opacity="1"><rect class="elknode" x="0" y="0" rx="10" width="200" height="60" /><text id="sprotty_88" class="elklabel" transform="translate(5, 22) translate(0, 0)" opacity="1">k8s_core_v1_service.che-host</text></g><g id="sprotty_47" transform="translate(400, 50)" opacity="1"><rect class="elkport" x="0" y="0" width="16" height="9" /><text id="sprotty_48" class="elklabel" transform="translate(17, 10) translate(0, 0)" opacity="1">service</text></g><g id="sprotty_74" transform="translate(-16, 50)" opacity="1"><rect class="elkport" x="0" y="0" width="16" height="9" /><text id="sprotty_75" class="elklabel" transform="translate(-1, 10) translate(0, 0)" opacity="1">CHE_INFRA_KUBERNETES_INGRESS_DOMAIN</text></g><g id="sprotty_77" transform="translate(-16, 110)" opacity="1"><rect class="elkport" x="0" y="0" width="16" height="9" /><text id="sprotty_78" class="elklabel" transform="translate(-1, 10) translate(0, 0)" opacity="1">ingress_class</text></g><g id="sprotty_80" transform="translate(400, 110)" opacity="1"><rect class="elkport" x="0" y="0" width="16" height="9" /><text id="sprotty_81" class="elklabel" transform="translate(17, 10) translate(0, 0)" opacity="1">deployment</text></g><g id="sprotty_85" transform="translate(400, 170)" opacity="1"><rect class="elkport" x="0" y="0" width="16" height="9" /><text id="sprotty_86" class="elklabel" transform="translate(17, 10) translate(0, 0)" opacity="1">name</text></g><g id="sprotty_96" transform="translate(-16, 170)" opacity="1"><rect class="elkport" x="0" y="0" width="16" height="9" /><text id="sprotty_97" class="elklabel" transform="translate(-1, 10) translate(0, 0)" opacity="1">name</text></g><text id="sprotty_46" class="elklabel" transform="translate(0, -21) translate(0, 0)" opacity="1">eclipse-che</text></g><g id="sprotty_51" transform="translate(2885, 436.5)" opacity="1"><rect class="elknode" x="0" y="0" rx="10" width="200" height="60" /><text id="sprotty_52" class="elklabel" transform="translate(5, 22) translate(0, 0)" opacity="1">k8s_extensions_v1beta1_ingress.plugin-registry</text></g><g id="sprotty_53" transform="translate(2268, 412)" opacity="1"><rect class="elknode" x="0" y="0" rx="10" width="400" height="270" /><g id="sprotty_243" transform="translate(100, 50)" opacity="1"><rect class="elknode" x="0" y="0" rx="10" width="200" height="60" /><text id="sprotty_244" class="elklabel" transform="translate(5, 22) translate(0, 0)" opacity="1">k8s_apps_v1_deployment.plugin-registry</text></g><g id="sprotty_248" transform="translate(100, 160)" opacity="1"><rect class="elknode" x="0" y="0" rx="10" width="200" height="60" /><text id="sprotty_249" class="elklabel" transform="translate(5, 22) translate(0, 0)" opacity="1">k8s_core_v1_service.plugin-registry</text></g><g id="sprotty_55" transform="translate(400, 50)" opacity="1"><rect class="elkport" x="0" y="0" width="16" height="9" /><text id="sprotty_56" class="elklabel" transform="translate(17, 10) translate(0, 0)" opacity="1">service</text></g><g id="sprotty_241" transform="translate(400, 110)" opacity="1"><rect class="elkport" x="0" y="0" width="16" height="9" /><text id="sprotty_242" class="elklabel" transform="translate(17, 10) translate(0, 0)" opacity="1">deployment</text></g><g id="sprotty_246" transform="translate(400, 170)" opacity="1"><rect class="elkport" x="0" y="0" width="16" height="9" /><text id="sprotty_247" class="elklabel" transform="translate(17, 10) translate(0, 0)" opacity="1">name</text></g><text id="sprotty_54" class="elklabel" transform="translate(0, -21) translate(0, 0)" opacity="1">plugin-registry</text></g><g id="sprotty_58" transform="translate(2018, 832)" opacity="1"><rect class="elknode" x="0" y="0" rx="10" width="200" height="60" /><text id="sprotty_59" class="elklabel" transform="translate(5, 22) translate(0, 0)" opacity="1">k8s_rbac_authorization_k8s_io_v1_cluster_role_binding.workspace</text></g><g id="sprotty_91" transform="translate(517, 131)" opacity="1"><rect class="elknode" x="0" y="0" rx="10" width="650" height="600" /><g id="sprotty_99" transform="translate(100, 50)" opacity="1"><rect class="elknode" x="0" y="0" rx="10" width="200" height="60" /><text id="sprotty_100" class="elklabel" transform="translate(5, 22) translate(0, 0)" opacity="1">k8s_apps_v1_deployment.nginx-ingress-controller</text></g><g id="sprotty_116" transform="translate(350, 50)" opacity="1"><rect class="elknode" x="0" y="0" rx="10" width="200" height="60" /><text id="sprotty_117" class="elklabel" transform="translate(5, 22) translate(0, 0)" opacity="1">k8s_core_v1_config_map.nginx-configuration</text></g><g id="sprotty_120" transform="translate(100, 160)" opacity="1"><rect class="elknode" x="0" y="0" rx="10" width="200" height="60" /><text id="sprotty_121" class="elklabel" transform="translate(5, 22) translate(0, 0)" opacity="1">k8s_core_v1_config_map.tcp-services</text></g><g id="sprotty_127" transform="translate(350, 160)" opacity="1"><rect class="elknode" x="0" y="0" rx="10" width="200" height="60" /><text id="sprotty_128" class="elklabel" transform="translate(5, 22) translate(0, 0)" opacity="1">k8s_core_v1_config_map.udp-services</text></g><g id="sprotty_134" transform="translate(100, 270)" opacity="1"><rect class="elknode" x="0" y="0" rx="10" width="200" height="60" /><text id="sprotty_135" class="elklabel" transform="translate(5, 22) translate(0, 0)" opacity="1">k8s_core_v1_service.ingress-nginx</text></g><g id="sprotty_147" transform="translate(350, 270)" opacity="1"><rect class="elknode" x="0" y="0" rx="10" width="200" height="60" /><text id="sprotty_148" class="elklabel" transform="translate(5, 22) translate(0, 0)" opacity="1">k8s_core_v1_service_account.nginx-ingress-serviceaccount</text></g><g id="sprotty_151" transform="translate(100, 380)" opacity="1"><rect class="elknode" x="0" y="0" rx="10" width="200" height="60" /><text id="sprotty_152" class="elklabel" transform="translate(5, 22) translate(0, 0)" opacity="1">k8s_rbac_authorization_k8s_io_v1beta1_cluster_role.nginx-ingress-clusterrole</text></g><g id="sprotty_155" transform="translate(350, 380)" opacity="1"><rect class="elknode" x="0" y="0" rx="10" width="200" height="60" /><text id="sprotty_156" class="elklabel" transform="translate(5, 22) translate(0, 0)" opacity="1">k8s_rbac_authorization_k8s_io_v1beta1_cluster_role_binding.nginx-ingress-clusterrole-nisa-binding</text></g><g id="sprotty_159" transform="translate(100, 490)" opacity="1"><rect class="elknode" x="0" y="0" rx="10" width="200" height="60" /><text id="sprotty_160" class="elklabel" transform="translate(5, 22) translate(0, 0)" opacity="1">k8s_rbac_authorization_k8s_io_v1beta1_role.nginx-ingress-role</text></g><g id="sprotty_164" transform="translate(350, 490)" opacity="1"><rect class="elknode" x="0" y="0" rx="10" width="200" height="60" /><text id="sprotty_165" class="elklabel" transform="translate(5, 22) translate(0, 0)" opacity="1">k8s_rbac_authorization_k8s_io_v1beta1_role_binding.nginx-ingress-role-nisa-binding</text></g><g id="sprotty_93" transform="translate(650, 50)" opacity="1"><rect class="elkport" x="0" y="0" width="16" height="9" /><text id="sprotty_94" class="elklabel" transform="translate(17, 10) translate(0, 0)" opacity="1">ingress_class</text></g><g id="sprotty_101" transform="translate(-16, 50)" opacity="1"><rect class="elkport" x="0" y="0" width="16" height="9" /><text id="sprotty_102" class="elklabel" transform="translate(-1, 10) translate(0, 0)" opacity="1">extra_args</text></g><g id="sprotty_104" transform="translate(-16, 110)" opacity="1"><rect class="elkport" x="0" y="0" width="16" height="9" /><text id="sprotty_105" class="elklabel" transform="translate(-1, 10) translate(0, 0)" opacity="1">ingress_class</text></g><g id="sprotty_107" transform="translate(-16, 170)" opacity="1"><rect class="elkport" x="0" y="0" width="16" height="9" /><text id="sprotty_108" class="elklabel" transform="translate(-1, 10) translate(0, 0)" opacity="1">name</text></g><g id="sprotty_110" transform="translate(-16, 230)" opacity="1"><rect class="elkport" x="0" y="0" width="16" height="9" /><text id="sprotty_111" class="elklabel" transform="translate(-1, 10) translate(0, 0)" opacity="1">namespace</text></g><g id="sprotty_113" transform="translate(-16, 290)" opacity="1"><rect class="elkport" x="0" y="0" width="16" height="9" /><text id="sprotty_114" class="elklabel" transform="translate(-1, 10) translate(0, 0)" opacity="1">service_type</text></g><g id="sprotty_124" transform="translate(-16, 350)" opacity="1"><rect class="elkport" x="0" y="0" width="16" height="9" /><text id="sprotty_125" class="elklabel" transform="translate(-1, 10) translate(0, 0)" opacity="1">tcp_services_data</text></g><g id="sprotty_131" transform="translate(-16, 410)" opacity="1"><rect class="elkport" x="0" y="0" width="16" height="9" /><text id="sprotty_132" class="elklabel" transform="translate(-1, 10) translate(0, 0)" opacity="1">udp_services_data</text></g><g id="sprotty_136" transform="translate(-16, 470)" opacity="1"><rect class="elkport" x="0" y="0" width="16" height="9" /><text id="sprotty_137" class="elklabel" transform="translate(-1, 10) translate(0, 0)" opacity="1">load_balancer_ip</text></g><g id="sprotty_141" transform="translate(-16, 530)" opacity="1"><rect class="elkport" x="0" y="0" width="16" height="9" /><text id="sprotty_142" class="elklabel" transform="translate(-1, 10) translate(0, 0)" opacity="1">ports</text></g><g id="sprotty_168" transform="translate(650, 110)" opacity="1"><rect class="elkport" x="0" y="0" width="16" height="9" /><text id="sprotty_169" class="elklabel" transform="translate(17, 10) translate(0, 0)" opacity="1">deployment</text></g><g id="sprotty_172" transform="translate(650, 170)" opacity="1"><rect class="elkport" x="0" y="0" width="16" height="9" /><text id="sprotty_173" class="elklabel" transform="translate(17, 10) translate(0, 0)" opacity="1">service</text></g><text id="sprotty_92" class="elklabel" transform="translate(0, -21) translate(0, 0)" opacity="1">ingress</text></g><g id="sprotty_7" transform="translate(-16, 251)" opacity="1"><rect class="elkport" x="0" y="0" width="16" height="9" /><text id="sprotty_8" class="elklabel" transform="translate(-1, 10) translate(0, 0)" opacity="1">namespace</text></g><g id="sprotty_12" transform="translate(-16, 776.5)" opacity="1"><rect class="elkport" x="0" y="0" width="16" height="9" /><text id="sprotty_13" class="elklabel" transform="translate(-1, 10) translate(0, 0)" opacity="1">name</text></g><g id="sprotty_25" transform="translate(-16, 1890.5)" opacity="1"><rect class="elkport" x="0" y="0" width="16" height="9" /><text id="sprotty_26" class="elklabel" transform="translate(-1, 10) translate(0, 0)" opacity="1">user_storage</text></g><text id="sprotty_4" class="elklabel" transform="translate(0, -21) translate(0, 0)" opacity="1">examples/eclipse-che</text><g id="sprotty_9" class="sprotty-edge" opacity="1"><path class="elkedge" d="M 0,255.5 L 100,255.5" /><path class="edge arrow" d="M 0,0 L 8,-3 L 8,3 Z" transform="rotate(180 100 255.5) translate(100 255.5)" /></g><g id="sprotty_14" class="sprotty-edge" opacity="1"><path class="elkedge" d="M 0,781 L 350,781 L 350,862 L 742,862" /><path class="edge arrow" d="M 0,0 L 8,-3 L 8,3 Z" transform="rotate(180 742 862) translate(742 862)" /></g><g id="sprotty_21" class="sprotty-edge" opacity="1"><path class="elkedge" d="M 1367,1068.5 L 1468,1068.5 L 1468,1865 L 1568,1865" /><path class="edge arrow" d="M 0,0 L 8,-3 L 8,3 Z" transform="rotate(180 1568 1865) translate(1568 1865)" /></g><g id="sprotty_24" class="sprotty-edge" opacity="1"><path class="elkedge" d="M 1367,1128.5 L 1418,1128.5 L 1418,1880 L 1568,1880" /><path class="edge arrow" d="M 0,0 L 8,-3 L 8,3 Z" transform="rotate(180 1568 1880) translate(1568 1880)" /><g id="sprotty_24_j0" transform="translate(1418, 1128.5)" opacity="1"><circle class="elkjunction" r="2" /></g></g><g id="sprotty_27" class="sprotty-edge" opacity="1"><path class="elkedge" d="M 0,1895 L 1568,1895" /><path class="edge arrow" d="M 0,0 L 8,-3 L 8,3 Z" transform="rotate(180 1568 1895) translate(1568 1895)" /></g><g id="sprotty_30" class="sprotty-edge" opacity="1"><path class="elkedge" d="M 1367,1068.5 L 1468,1068.5 L 1468,1113.5 L 1568,1113.5" /><path class="edge arrow" d="M 0,0 L 8,-3 L 8,3 Z" transform="rotate(180 1568 1113.5) translate(1568 1113.5)" /><g id="sprotty_30_j0" transform="translate(1468, 1113.5)" opacity="1"><circle class="elkjunction" r="2" /></g></g><g id="sprotty_31" class="sprotty-edge" opacity="1"><path class="elkedge" d="M 1367,1128.5 L 1568,1128.5" /><path class="edge arrow" d="M 0,0 L 8,-3 L 8,3 Z" transform="rotate(180 1568 1128.5) translate(1568 1128.5)" /></g><g id="sprotty_32" class="sprotty-edge" opacity="1"><path class="elkedge" d="M 0,1895 L 150,1895 L 150,942 L 1518,942 L 1518,1098.5 L 1568,1098.5" /><path class="edge arrow" d="M 0,0 L 8,-3 L 8,3 Z" transform="rotate(180 1568 1098.5) translate(1568 1098.5)" /><g id="sprotty_32_j0" transform="translate(150, 1895)" opacity="1"><circle class="elkjunction" r="2" /></g></g><g id="sprotty_35" class="sprotty-edge" opacity="1"><path class="elkedge" d="M 942,862 L 1501,862" /><path class="edge arrow" d="M 0,0 L 8,-3 L 8,3 Z" transform="rotate(180 1501 862) translate(1501 862)" /></g><g id="sprotty_42" class="sprotty-edge" opacity="1"><path class="elkedge" d="M 2684,125.5 L 2885,125.5" /><path class="edge arrow" d="M 0,0 L 8,-3 L 8,3 Z" transform="rotate(180 2885 125.5) translate(2885 125.5)" /></g><g id="sprotty_49" class="sprotty-edge" opacity="1"><path class="elkedge" d="M 1817,125.5 L 2018,125.5" /><path class="edge arrow" d="M 0,0 L 8,-3 L 8,3 Z" transform="rotate(180 2018 125.5) translate(2018 125.5)" /></g><g id="sprotty_50" class="sprotty-edge" opacity="1"><path class="elkedge" d="M 0,781 L 1868,781 L 1868,145.5 L 2018,145.5" /><path class="edge arrow" d="M 0,0 L 8,-3 L 8,3 Z" transform="rotate(180 2018 145.5) translate(2018 145.5)" /></g><g id="sprotty_57" class="sprotty-edge" opacity="1"><path class="elkedge" d="M 2684,466.5 L 2885,466.5" /><path class="edge arrow" d="M 0,0 L 8,-3 L 8,3 Z" transform="rotate(180 2885 466.5) translate(2885 466.5)" /></g><g id="sprotty_60" class="sprotty-edge" opacity="1"><path class="elkedge" d="M 1701,862 L 2018,862" /><path class="edge arrow" d="M 0,0 L 8,-3 L 8,3 Z" transform="rotate(180 2018 862) translate(2018 862)" /></g><g id="sprotty_65" class="sprotty-edge" opacity="1"><path class="elkedge" d="M 2568,167.58653846153845 L 2668,184.1730769230769" /><path class="edge arrow" d="M 0,0 L 8,-3 L 8,3 Z" transform="rotate(-170.58235285466571 2668 184.1730769230769) translate(2668 184.1730769230769)" /></g><g id="sprotty_70" class="sprotty-edge" opacity="1"><path class="elkedge" d="M 2568,253.54807692307693 L 2668,246.09615384615384" /><path class="edge arrow" d="M 0,0 L 8,-3 L 8,3 Z" transform="rotate(175.73823961931822 2668 246.09615384615384) translate(2668 246.09615384615384)" /></g><g id="sprotty_71" class="sprotty-edge" opacity="1"><path class="elkedge" d="M 2514.0516605166054,231 L 2669.0922509225093,130" /><path class="edge arrow" d="M 0,0 L 8,-3 L 8,3 Z" transform="rotate(146.91807712723488 2669.0922509225093 130) translate(2669.0922509225093 130)" /></g><g id="sprotty_76" class="sprotty-edge" opacity="1"><path class="elkedge" d="M 1401,126.48076923076923 L 1501,138.7403846153846" /><path class="edge arrow" d="M 0,0 L 8,-3 L 8,3 Z" transform="rotate(-173.01063484366153 1501 138.7403846153846) translate(1501 138.7403846153846)" /></g><g id="sprotty_79" class="sprotty-edge" opacity="1"><path class="elkedge" d="M 1401,184.1730769230769 L 1501,167.58653846153845" /><path class="edge arrow" d="M 0,0 L 8,-3 L 8,3 Z" transform="rotate(170.58235285466571 1501 167.58653846153845) translate(1501 167.58653846153845)" /></g><g id="sprotty_84" class="sprotty-edge" opacity="1"><path class="elkedge" d="M 1683.6490066225165,231 L 1801,188.40384615384616" /><path class="edge arrow" d="M 0,0 L 8,-3 L 8,3 Z" transform="rotate(160.05007635827792 1801 188.40384615384616) translate(1801 188.40384615384616)" /></g><g id="sprotty_89" class="sprotty-edge" opacity="1"><path class="elkedge" d="M 1650.7211155378486,341 L 1801.5418326693227,250" /><path class="edge arrow" d="M 0,0 L 8,-3 L 8,3 Z" transform="rotate(148.89467282183267 1801.5418326693227 250) translate(1801.5418326693227 250)" /></g><g id="sprotty_90" class="sprotty-edge" opacity="1"><path class="elkedge" d="M 1626.417515274949,341 L 1805.1873727087577,130" /><path class="edge arrow" d="M 0,0 L 8,-3 L 8,3 Z" transform="rotate(130.27295566323377 1805.1873727087577 130) translate(1805.1873727087577 130)" /></g><g id="sprotty_95" class="sprotty-edge" opacity="1"><path class="elkedge" d="M 1183,185.5 L 1385,185.5" /><path class="edge arrow" d="M 0,0 L 8,-3 L 8,3 Z" transform="rotate(180 1385 185.5) translate(1385 185.5)" /></g><g id="sprotty_98" class="sprotty-edge" opacity="1"><path class="elkedge" d="M 0,781 L 1234,781 L 1234,245.5 L 1385,245.5" /><path class="edge arrow" d="M 0,0 L 8,-3 L 8,3 Z" transform="rotate(180 1385 245.5) translate(1385 245.5)" /><g id="sprotty_98_j0" transform="translate(1234, 781)" opacity="1"><circle class="elkjunction" r="2" /></g></g><g id="sprotty_103" class="sprotty-edge" opacity="1"><path class="elkedge" d="M 517,186.48076923076923 L 617,198.7403846153846" /><path class="edge arrow" d="M 0,0 L 8,-3 L 8,3 Z" transform="rotate(-173.01063484366153 617 198.7403846153846) translate(617 198.7403846153846)" /></g><g id="sprotty_106" class="sprotty-edge" opacity="1"><path class="elkedge" d="M 517,244.1730769230769 L 617,227.58653846153845" /><path class="edge arrow" d="M 0,0 L 8,-3 L 8,3 Z" transform="rotate(170.58235285466571 617 227.58653846153845) translate(617 227.58653846153845)" /></g><g id="sprotty_109" class="sprotty-edge" opacity="1"><path class="elkedge" d="M 517,301.86538461538464 L 650.968253968254,241" /><path class="edge arrow" d="M 0,0 L 8,-3 L 8,3 Z" transform="rotate(155.5664230096372 650.968253968254 241) translate(650.968253968254 241)" /></g><g id="sprotty_112" class="sprotty-edge" opacity="1"><path class="elkedge" d="M 515.0582524271845,361 L 676.6116504854369,241" /><path class="edge arrow" d="M 0,0 L 8,-3 L 8,3 Z" transform="rotate(143.39546107211748 676.6116504854369 241) translate(676.6116504854369 241)" /></g><g id="sprotty_115" class="sprotty-edge" opacity="1"><path class="elkedge" d="M 513.3636363636364,421 L 687.9090909090909,241" /><path class="edge arrow" d="M 0,0 L 8,-3 L 8,3 Z" transform="rotate(134.11859600341785 687.9090909090909 241) translate(687.9090909090909 241)" /></g><g id="sprotty_118" class="sprotty-edge" opacity="1"><path class="elkedge" d="M 517,303.84934497816596 L 867,231.63318777292577" /><path class="edge arrow" d="M 0,0 L 8,-3 L 8,3 Z" transform="rotate(168.34165965728076 867 231.63318777292577) translate(867 231.63318777292577)" /></g><g id="sprotty_119" class="sprotty-edge" opacity="1"><path class="elkedge" d="M 517,362.8013100436681 L 878.0679611650485,241" /><path class="edge arrow" d="M 0,0 L 8,-3 L 8,3 Z" transform="rotate(161.35888472155233 878.0679611650485 241) translate(878.0679611650485 241)" /></g><g id="sprotty_122" class="sprotty-edge" opacity="1"><path class="elkedge" d="M 517,306.0961538461538 L 617,313.5480769230769" /><path class="edge arrow" d="M 0,0 L 8,-3 L 8,3 Z" transform="rotate(-175.73823961931822 617 313.5480769230769) translate(617 313.5480769230769)" /></g><g id="sprotty_123" class="sprotty-edge" opacity="1"><path class="elkedge" d="M 517,363.78846153846155 L 617,342.3942307692308" /><path class="edge arrow" d="M 0,0 L 8,-3 L 8,3 Z" transform="rotate(167.9240561810585 617 342.3942307692308) translate(617 342.3942307692308)" /></g><g id="sprotty_126" class="sprotty-edge" opacity="1"><path class="elkedge" d="M 514.6899696048632,481 L 679.0668693009119,351" /><path class="edge arrow" d="M 0,0 L 8,-3 L 8,3 Z" transform="rotate(141.6607478272731 679.0668693009119 351) translate(679.0668693009119 351)" /></g><g id="sprotty_129" class="sprotty-edge" opacity="1"><path class="elkedge" d="M 517,305.77074235807856 L 867,317.61572052401743" /><path class="edge arrow" d="M 0,0 L 8,-3 L 8,3 Z" transform="rotate(-178.0616904718802 867 317.61572052401743) translate(867 317.61572052401743)" /></g><g id="sprotty_130" class="sprotty-edge" opacity="1"><path class="elkedge" d="M 517,364.7227074235808 L 867,330.71615720524017" /><path class="edge arrow" d="M 0,0 L 8,-3 L 8,3 Z" transform="rotate(174.45047144714007 867 330.71615720524017) translate(867 330.71615720524017)" /></g><g id="sprotty_133" class="sprotty-edge" opacity="1"><path class="elkedge" d="M 517,541.5786026200874 L 905.7973273942093,351" /><path class="edge arrow" d="M 0,0 L 8,-3 L 8,3 Z" transform="rotate(153.8870762338902 905.7973273942093 351) translate(905.7973273942093 351)" /></g><g id="sprotty_138" class="sprotty-edge" opacity="1"><path class="elkedge" d="M 514.3638968481375,601 L 681.2406876790831,461" /><path class="edge arrow" d="M 0,0 L 8,-3 L 8,3 Z" transform="rotate(140.0052900255196 681.2406876790831 461) translate(681.2406876790831 461)" /></g><g id="sprotty_139" class="sprotty-edge" opacity="1"><path class="elkedge" d="M 516.4581673306773,310 L 667.2788844621514,401" /><path class="edge arrow" d="M 0,0 L 8,-3 L 8,3 Z" transform="rotate(-148.89467282183267 667.2788844621514 401) translate(667.2788844621514 401)" /></g><g id="sprotty_140" class="sprotty-edge" opacity="1"><path class="elkedge" d="M 517,368.0192307692308 L 621.7328244274809,401" /><path class="edge arrow" d="M 0,0 L 8,-3 L 8,3 Z" transform="rotate(-162.52058471831904 621.7328244274809 401) translate(621.7328244274809 401)" /></g><g id="sprotty_143" class="sprotty-edge" opacity="1"><path class="elkedge" d="M 512.9914712153518,661 L 690.3901918976546,461" /><path class="edge arrow" d="M 0,0 L 8,-3 L 8,3 Z" transform="rotate(131.572820557326 690.3901918976546 461) translate(690.3901918976546 461)" /></g><g id="sprotty_144" class="sprotty-edge" opacity="1"><path class="elkedge" d="M 517,425.71153846153845 L 617,428.3557692307692" /><path class="edge arrow" d="M 0,0 L 8,-3 L 8,3 Z" transform="rotate(-178.4853203219877 617 428.3557692307692) translate(617 428.3557692307692)" /></g><g id="sprotty_145" class="sprotty-edge" opacity="1"><path class="elkedge" d="M 517,483.40384615384613 L 617,457.2019230769231" /><path class="edge arrow" d="M 0,0 L 8,-3 L 8,3 Z" transform="rotate(165.31746945380982 617 457.2019230769231) translate(617 457.2019230769231)" /></g><g id="sprotty_146" class="sprotty-edge" opacity="1"><path class="elkedge" d="M 517,541.0961538461538 L 662.5021834061135,461" /><path class="edge arrow" d="M 0,0 L 8,-3 L 8,3 Z" transform="rotate(151.16806195334135 662.5021834061135 461) translate(662.5021834061135 461)" /></g><g id="sprotty_149" class="sprotty-edge" opacity="1"><path class="elkedge" d="M 517,307.6921397379913 L 867,403.5982532751092" /><path class="edge arrow" d="M 0,0 L 8,-3 L 8,3 Z" transform="rotate(-164.67609888158913 867 403.5982532751092) translate(867 403.5982532751092)" /></g><g id="sprotty_150" class="sprotty-edge" opacity="1"><path class="elkedge" d="M 517,366.64410480349346 L 867,416.69868995633186" /><path class="edge arrow" d="M 0,0 L 8,-3 L 8,3 Z" transform="rotate(-171.86114084024004 867 416.69868995633186) translate(867 416.69868995633186)" /></g><g id="sprotty_153" class="sprotty-edge" opacity="1"><path class="elkedge" d="M 512.9745222929936,310 L 690.5031847133757,511" /><path class="edge arrow" d="M 0,0 L 8,-3 L 8,3 Z" transform="rotate(-131.45181684450975 690.5031847133757 511) translate(690.5031847133757 511)" /></g><g id="sprotty_154" class="sprotty-edge" opacity="1"><path class="elkedge" d="M 514.3333333333334,370 L 681.4444444444445,511" /><path class="edge arrow" d="M 0,0 L 8,-3 L 8,3 Z" transform="rotate(-139.84400037508067 681.4444444444445 511) translate(681.4444444444445 511)" /></g><g id="sprotty_157" class="sprotty-edge" opacity="1"><path class="elkedge" d="M 517,309.6135371179039 L 908.656050955414,511" /><path class="edge arrow" d="M 0,0 L 8,-3 L 8,3 Z" transform="rotate(-152.78812859608504 908.656050955414 511) translate(908.656050955414 511)" /></g><g id="sprotty_158" class="sprotty-edge" opacity="1"><path class="elkedge" d="M 517,368.5655021834061 L 888.7094017094017,511" /><path class="edge arrow" d="M 0,0 L 8,-3 L 8,3 Z" transform="rotate(-159.03377842411962 888.7094017094017 511) translate(888.7094017094017 511)" /></g><g id="sprotty_161" class="sprotty-edge" opacity="1"><path class="elkedge" d="M 511.308261405672,250 L 701.6115906288533,621" /><path class="edge arrow" d="M 0,0 L 8,-3 L 8,3 Z" transform="rotate(-117.15541859025323 701.6115906288533 621) translate(701.6115906288533 621)" /></g><g id="sprotty_162" class="sprotty-edge" opacity="1"><path class="elkedge" d="M 511.70911722141824,310 L 698.9392185238785,621" /><path class="edge arrow" d="M 0,0 L 8,-3 L 8,3 Z" transform="rotate(-121.0490361749438 698.9392185238785 621) translate(698.9392185238785 621)" /></g><g id="sprotty_163" class="sprotty-edge" opacity="1"><path class="elkedge" d="M 512.2784588441331,370 L 695.1436077057793,621" /><path class="edge arrow" d="M 0,0 L 8,-3 L 8,3 Z" transform="rotate(-126.07507513660742 695.1436077057793 621) translate(695.1436077057793 621)" /></g><g id="sprotty_166" class="sprotty-edge" opacity="1"><path class="elkedge" d="M 514.9652677279305,310 L 927.2315484804631,621" /><path class="edge arrow" d="M 0,0 L 8,-3 L 8,3 Z" transform="rotate(-142.97030976300624 927.2315484804631 621) translate(927.2315484804631 621)" /></g><g id="sprotty_167" class="sprotty-edge" opacity="1"><path class="elkedge" d="M 516.2189141856393,370 L 918.8739054290718,621" /><path class="edge arrow" d="M 0,0 L 8,-3 L 8,3 Z" transform="rotate(-148.0621360923082 918.8739054290718 621) translate(918.8739054290718 621)" /></g><g id="sprotty_170" class="sprotty-edge" opacity="1"><path class="elkedge" d="M 817,218.53275109170306 L 1167,244.89737991266375" /><path class="edge arrow" d="M 0,0 L 8,-3 L 8,3 Z" transform="rotate(-175.69218709699993 1167 244.89737991266375) translate(1167 244.89737991266375)" /></g><g id="sprotty_171" class="sprotty-edge" opacity="1"><path class="elkedge" d="M 501,245.5 L 350,245.5 L 350,60 L 1234,60 L 1234,185.5 L 1183,185.5" /><path class="edge arrow" d="M 0,0 L 8,-3 L 8,3 Z" transform="rotate(0 1183 185.5) translate(1183 185.5)" /><g id="sprotty_171_j0" transform="translate(350, 245.5)" opacity="1"><circle class="elkjunction" r="2" /></g><g id="sprotty_171_j1" transform="translate(1234, 185.5)" opacity="1"><circle class="elkjunction" r="2" /></g></g><g id="sprotty_174" class="sprotty-edge" opacity="1"><path class="elkedge" d="M 817,403.5982532751092 L 1167,307.6921397379913" /><path class="edge arrow" d="M 0,0 L 8,-3 L 8,3 Z" transform="rotate(164.67609888158913 1167 307.6921397379913) translate(1167 307.6921397379913)" /></g><g id="sprotty_175" class="sprotty-edge" opacity="1"><path class="elkedge" d="M 300,245.5 L 501,245.5" /><path class="edge arrow" d="M 0,0 L 8,-3 L 8,3 Z" transform="rotate(180 501 245.5) translate(501 245.5)" /></g><g id="sprotty_176" class="sprotty-edge" opacity="1"><path class="elkedge" d="M 0,781 L 350,781 L 350,305.5 L 501,305.5" /><path class="edge arrow" d="M 0,0 L 8,-3 L 8,3 Z" transform="rotate(180 501 305.5) translate(501 305.5)" /><g id="sprotty_176_j0" transform="translate(350, 781)" opacity="1"><circle class="elkjunction" r="2" /></g></g><g id="sprotty_177" class="sprotty-edge" opacity="1"><path class="elkedge" d="M 300,265.5 L 400,265.5 L 400,365.5 L 501,365.5" /><path class="edge arrow" d="M 0,0 L 8,-3 L 8,3 Z" transform="rotate(180 501 365.5) translate(501 365.5)" /></g><g id="sprotty_182" class="sprotty-edge" opacity="1"><path class="elkedge" d="M 217,1069.4807692307693 L 317,1081.7403846153845" /><path class="edge arrow" d="M 0,0 L 8,-3 L 8,3 Z" transform="rotate(-173.0106348436616 317 1081.7403846153845) translate(317 1081.7403846153845)" /></g><g id="sprotty_187" class="sprotty-edge" opacity="1"><path class="elkedge" d="M 217,1127.8973799126638 L 567,1101.5327510917032" /><path class="edge arrow" d="M 0,0 L 8,-3 L 8,3 Z" transform="rotate(175.69218709699993 567 1101.5327510917032) translate(567 1101.5327510917032)" /></g><g id="sprotty_190" class="sprotty-edge" opacity="1"><path class="elkedge" d="M 217,1186.8493449781658 L 567,1114.6331877729258" /><path class="edge arrow" d="M 0,0 L 8,-3 L 8,3 Z" transform="rotate(168.3416596572808 567 1114.6331877729258) translate(567 1114.6331877729258)" /></g><g id="sprotty_193" class="sprotty-edge" opacity="1"><path class="elkedge" d="M 217,1245.801310043668 L 578.0679611650485,1124" /><path class="edge arrow" d="M 0,0 L 8,-3 L 8,3 Z" transform="rotate(161.35888472155233 578.0679611650485 1124) translate(578.0679611650485 1124)" /></g><g id="sprotty_196" class="sprotty-edge" opacity="1"><path class="elkedge" d="M 217,1304.7532751091703 L 602.9440559440559,1124" /><path class="edge arrow" d="M 0,0 L 8,-3 L 8,3 Z" transform="rotate(154.90439887692173 602.9440559440559 1124) translate(602.9440559440559 1124)" /></g><g id="sprotty_197" class="sprotty-edge" opacity="1"><path class="elkedge" d="M 217,1068.9454148471616 L 567,1088.4323144104803" /><path class="edge arrow" d="M 0,0 L 8,-3 L 8,3 Z" transform="rotate(-176.81324131380964 567 1088.4323144104803) translate(567 1088.4323144104803)" /></g><g id="sprotty_204" class="sprotty-edge" opacity="1"><path class="elkedge" d="M 1034,1245 L 1034,1195" /><path class="edge arrow" d="M 0,0 L 8,-3 L 8,3 Z" transform="rotate(90 1034 1195) translate(1034 1195)" /></g><g id="sprotty_209" class="sprotty-edge" opacity="1"><path class="elkedge" d="M 1034,1465 L 1034,1415" /><path class="edge arrow" d="M 0,0 L 8,-3 L 8,3 Z" transform="rotate(90 1034 1415) translate(1034 1415)" /></g><g id="sprotty_212" class="sprotty-edge" opacity="1"><path class="elkedge" d="M 1034,1575 L 1034,1305" /><path class="edge arrow" d="M 0,0 L 8,-3 L 8,3 Z" transform="rotate(90 1034 1305) translate(1034 1305)" /></g><g id="sprotty_215" class="sprotty-edge" opacity="1"><path class="elkedge" d="M 1034,1685 L 1034,1525" /><path class="edge arrow" d="M 0,0 L 8,-3 L 8,3 Z" transform="rotate(90 1034 1525) translate(1034 1525)" /></g><g id="sprotty_218" class="sprotty-edge" opacity="1"><path class="elkedge" d="M 827.6264118158124,1144 L 1023.1572545612511,1685" /><path class="edge arrow" d="M 0,0 L 8,-3 L 8,3 Z" transform="rotate(-109.87111491399163 1023.1572545612511 1685) translate(1023.1572545612511 1685)" /></g><g id="sprotty_219" class="sprotty-edge" opacity="1"><path class="elkedge" d="M 1034,1685 L 1034,1635" /><path class="edge arrow" d="M 0,0 L 8,-3 L 8,3 Z" transform="rotate(90 1034 1635) translate(1034 1635)" /></g><g id="sprotty_222" class="sprotty-edge" opacity="1"><path class="elkedge" d="M 1134,1152.7403846153845 L 1234,1140.4807692307693" /><path class="edge arrow" d="M 0,0 L 8,-3 L 8,3 Z" transform="rotate(173.0106348436616 1234 1140.4807692307693) translate(1234 1140.4807692307693)" /></g><g id="sprotty_225" class="sprotty-edge" opacity="1"><path class="elkedge" d="M 1067.6388140161725,1355 L 1236.954177897574,1204" /><path class="edge arrow" d="M 0,0 L 8,-3 L 8,3 Z" transform="rotate(138.27256122803203 1236.954177897574 1204) translate(1236.954177897574 1204)" /></g><g id="sprotty_228" class="sprotty-edge" opacity="1"><path class="elkedge" d="M 1083.7211155378486,1355 L 1234.5418326693227,1264" /><path class="edge arrow" d="M 0,0 L 8,-3 L 8,3 Z" transform="rotate(148.89467282183267 1234.5418326693227 1264) translate(1234.5418326693227 1264)" /></g><g id="sprotty_229" class="sprotty-edge" opacity="1"><path class="elkedge" d="M 767,1122.6163522012578 L 818,1137.2106918238994" /><path class="edge arrow" d="M 0,0 L 8,-3 L 8,3 Z" transform="rotate(-164.0308101720756 818 1137.2106918238994) translate(818 1137.2106918238994)" /></g><g id="sprotty_232" class="sprotty-edge" opacity="1"><path class="elkedge" d="M 217,1365.530794165316 L 818,1142.4692058346839" /><path class="edge arrow" d="M 0,0 L 8,-3 L 8,3 Z" transform="rotate(159.63755529040608 818 1142.4692058346839) translate(818 1142.4692058346839)" /></g><g id="sprotty_235" class="sprotty-edge" opacity="1"><path class="elkedge" d="M 1250,1142.8504273504273 L 1351,1185.1495726495727" /><path class="edge arrow" d="M 0,0 L 8,-3 L 8,3 Z" transform="rotate(-157.2758978482589 1351 1185.1495726495727) translate(1351 1185.1495726495727)" /></g><g id="sprotty_236" class="sprotty-edge" opacity="1"><path class="elkedge" d="M 517,1091.2929936305732 L 1351,1068.7165605095543" /><path class="edge arrow" d="M 0,0 L 8,-3 L 8,3 Z" transform="rotate(178.4493782843585 1351 1068.7165605095543) translate(1351 1068.7165605095543)" /></g><g id="sprotty_239" class="sprotty-edge" opacity="1"><path class="elkedge" d="M 1250,1202.8504273504273 L 1351,1245.1495726495727" /><path class="edge arrow" d="M 0,0 L 8,-3 L 8,3 Z" transform="rotate(-157.2758978482589 1351 1245.1495726495727) translate(1351 1245.1495726495727)" /></g><g id="sprotty_240" class="sprotty-edge" opacity="1"><path class="elkedge" d="M 1246.0190839694656,1255 L 1354.9809160305344,1133" /><path class="edge arrow" d="M 0,0 L 8,-3 L 8,3 Z" transform="rotate(131.76899009963185 1354.9809160305344 1133) translate(1354.9809160305344 1133)" /></g><g id="sprotty_245" class="sprotty-edge" opacity="1"><path class="elkedge" d="M 2568,508.58653846153845 L 2668,525.1730769230769" /><path class="edge arrow" d="M 0,0 L 8,-3 L 8,3 Z" transform="rotate(-170.58235285466571 2668 525.1730769230769) translate(2668 525.1730769230769)" /></g><g id="sprotty_250" class="sprotty-edge" opacity="1"><path class="elkedge" d="M 2568,594.5480769230769 L 2668,587.0961538461538" /><path class="edge arrow" d="M 0,0 L 8,-3 L 8,3 Z" transform="rotate(175.73823961931822 2668 587.0961538461538) translate(2668 587.0961538461538)" /></g><g id="sprotty_251" class="sprotty-edge" opacity="1"><path class="elkedge" d="M 2514.0516605166054,572 L 2669.0922509225093,471" /><path class="edge arrow" d="M 0,0 L 8,-3 L 8,3 Z" transform="rotate(146.91807712723488 2669.0922509225093 471) translate(2669.0922509225093 471)" /></g></g></g></svg>
