<svg id="sprotty_1" class="sprotty-graph sprotty" tabindex="1002" xmlns="http://www.w3.org/2000/svg" viewBox="0 0 3253 1694"><style>
.elknode {
    stroke: #448;
    stroke-width: 2;
    fill: #ddf;
    fill-opacity: 0.5;
}

.elkport {
    stroke: #448;
    stroke-width: 1;
    fill: #66c;
}

.elkedge {
    fill: none;
    stroke: #88f;
    stroke-width: 8;
    stroke-opacity: 0.3;
    pointer-events: stroke;
    stroke-linejoin: round;
}

.elkedge:hover {
    stroke: #448;
    stroke-width: 8;
    stroke-opacity: 1;
    stroke-dasharray: 16px;
    stroke-dashoffset: 32px;
    animation: stroke 0.5s linear infinite;
}

@keyframes stroke {
    to {
        stroke-dashoffset: 0;
    }
}

.elkedge.arrow {
    fill: #336;
}

.elklabel {
    stroke-width: 0;
    stroke: #000;
    fill: #000;
    font-family: sans-serif;
    font-size: 10pt;
    dominant-baseline: hanging;
}

.elklabel:hover {
    font-size: 24pt;
}

.elkjunction {
    stroke: none;
    fill: #224;
}

.selected &gt; rect {
    stroke-width: 3;
}

.mouseover {
    stroke: #88f;
}
/*
 * Copyright (C) 2017 TypeFox and others.
 *
 * Licensed under the Apache License, Version 2.0 (the &quot;License&quot;); you may not use this file except in compliance with the License.
 * You may obtain a copy of the License at http://www.apache.org/licenses/LICENSE-2.0
 */

.sprotty {
    padding: 0px;
    font-family: &quot;Helvetica Neue&quot;, Helvetica, Arial, sans-serif;
}

.sprotty-hidden {
    display: block;
    position: absolute;
    width: 0px;
    height: 0px;
}

.sprotty-popup {
    font-family: &quot;Helvetica Neue&quot;, Helvetica, Arial, sans-serif;
    position: absolute;
    background: white;
    border-radius: 5px;
    border: 1px solid;
    max-width: 400px;
    min-width: 100px;
}

.sprotty-popup &gt; div {
    margin: 10px;
}

.sprotty-popup-closed {
    display: none;
}
</style><g transform="scale(1) translate(0,0)"><g id="sprotty_3" transform="translate(117, 71)" opacity="1"><rect class="elknode" x="0" y="0" rx="10" width="3036" height="1573" /><g id="sprotty_5" transform="translate(100, 1072)" opacity="1"><rect class="elknode" x="0" y="0" rx="10" width="200" height="60" /><text id="sprotty_6" class="elklabel" transform="translate(5, 22) translate(0, 0)" opacity="1">k8s_core_v1_namespace.this</text></g><g id="sprotty_10" transform="translate(859, 1143)" opacity="1"><rect class="elknode" x="0" y="0" rx="10" width="200" height="60" /><text id="sprotty_11" class="elklabel" transform="translate(5, 22) translate(0, 0)" opacity="1">k8s_core_v1_persistent_volume_claim.sonarqube_data</text></g><g id="sprotty_13" transform="translate(859, 1303)" opacity="1"><rect class="elknode" x="0" y="0" rx="10" width="200" height="60" /><text id="sprotty_14" class="elklabel" transform="translate(5, 22) translate(0, 0)" opacity="1">k8s_core_v1_persistent_volume_claim.sonarqube_extensions</text></g><g id="sprotty_16" transform="translate(859, 1463)" opacity="1"><rect class="elknode" x="0" y="0" rx="10" width="200" height="60" /><text id="sprotty_17" class="elklabel" transform="translate(5, 22) translate(0, 0)" opacity="1">k8s_core_v1_persistent_volume_claim.sonarqube_logs</text></g><g id="sprotty_19" transform="translate(2736, 642)" opacity="1"><rect class="elknode" x="0" y="0" rx="10" width="200" height="60" /><text id="sprotty_20" class="elklabel" transform="translate(5, 22) translate(0, 0)" opacity="1">k8s_networking_k8s_io_v1beta1_ingress.this</text></g><g id="sprotty_21" transform="translate(1635, 617.5)" opacity="1"><rect class="elknode" x="0" y="0" rx="10" width="884" height="890" /><g id="sprotty_126" transform="translate(100, 50)" opacity="1"><rect class="elknode" x="0" y="0" rx="10" width="200" height="60" /><text id="sprotty_127" class="elklabel" transform="translate(5, 22) translate(0, 0)" opacity="1">local.parameters</text></g><g id="sprotty_167" transform="translate(367, 71)" opacity="1"><rect class="elknode" x="0" y="0" rx="10" width="400" height="710" /><g id="sprotty_169" transform="translate(100, 50)" opacity="1"><rect class="elknode" x="0" y="0" rx="10" width="200" height="60" /><text id="sprotty_170" class="elklabel" transform="translate(5, 22) translate(0, 0)" opacity="1">k8s_apps_v1_deployment.this</text></g><g id="sprotty_171" transform="translate(100, 160)" opacity="1"><rect class="elknode" x="0" y="0" rx="10" width="200" height="60" /><text id="sprotty_172" class="elklabel" transform="translate(5, 22) translate(0, 0)" opacity="1">local.k8s_apps_v1_deployment_parameters</text></g><g id="sprotty_174" transform="translate(100, 270)" opacity="1"><rect class="elknode" x="0" y="0" rx="10" width="200" height="60" /><text id="sprotty_175" class="elklabel" transform="translate(5, 22) translate(0, 0)" opacity="1">k8s_core_v1_service.this</text></g><g id="sprotty_176" transform="translate(100, 380)" opacity="1"><rect class="elknode" x="0" y="0" rx="10" width="200" height="60" /><text id="sprotty_177" class="elklabel" transform="translate(5, 22) translate(0, 0)" opacity="1">local.k8s_core_v1_service_parameters</text></g><g id="sprotty_182" transform="translate(100, 490)" opacity="1"><rect class="elknode" x="0" y="0" rx="10" width="200" height="60" /><text id="sprotty_183" class="elklabel" transform="translate(5, 22) translate(0, 0)" opacity="1">local.selector</text></g><g id="sprotty_185" transform="translate(100, 600)" opacity="1"><rect class="elknode" x="0" y="0" rx="10" width="200" height="60" /><text id="sprotty_186" class="elklabel" transform="translate(5, 22) translate(0, 0)" opacity="1">local.labels</text></g><g id="sprotty_179" transform="translate(-16, 50)" opacity="1"><rect class="elkport" x="0" y="0" width="16" height="9" /><text id="sprotty_180" class="elklabel" transform="translate(-1, -1) translate(0, 0)" opacity="1">enable_service</text></g><g id="sprotty_188" transform="translate(-16, 110)" opacity="1"><rect class="elkport" x="0" y="0" width="16" height="9" /><text id="sprotty_189" class="elklabel" transform="translate(-1, 10) translate(0, 0)" opacity="1">parameters</text></g><g id="sprotty_192" transform="translate(400, 50)" opacity="1"><rect class="elkport" x="0" y="0" width="16" height="9" /><text id="sprotty_193" class="elklabel" transform="translate(17, 10) translate(0, 0)" opacity="1">deployment</text></g><g id="sprotty_195" transform="translate(400, 110)" opacity="1"><rect class="elkport" x="0" y="0" width="16" height="9" /><text id="sprotty_196" class="elklabel" transform="translate(17, 10) translate(0, 0)" opacity="1">labels</text></g><g id="sprotty_198" transform="translate(400, 170)" opacity="1"><rect class="elkport" x="0" y="0" width="16" height="9" /><text id="sprotty_199" class="elklabel" transform="translate(17, 10) translate(0, 0)" opacity="1">name</text></g><g id="sprotty_201" transform="translate(400, 230)" opacity="1"><rect class="elkport" x="0" y="0" width="16" height="9" /><text id="sprotty_202" class="elklabel" transform="translate(17, 10) translate(0, 0)" opacity="1">service</text></g><text id="sprotty_168" class="elklabel" transform="translate(0, -21) translate(0, 0)" opacity="1">deployment-service</text></g><g id="sprotty_23" transform="translate(884, 50)" opacity="1"><rect class="elkport" x="0" y="0" width="16" height="9" /><text id="sprotty_24" class="elklabel" transform="translate(17, 10) translate(0, 0)" opacity="1">name</text></g><g id="sprotty_128" transform="translate(-16, 50)" opacity="1"><rect class="elkport" x="0" y="0" width="16" height="9" /><text id="sprotty_129" class="elklabel" transform="translate(-1, 10) translate(0, 0)" opacity="1">SONAR_JDBC_PASSWORD</text></g><g id="sprotty_131" transform="translate(-16, 110)" opacity="1"><rect class="elkport" x="0" y="0" width="16" height="9" /><text id="sprotty_132" class="elklabel" transform="translate(-1, 10) translate(0, 0)" opacity="1">SONAR_JDBC_URL</text></g><g id="sprotty_134" transform="translate(-16, 170)" opacity="1"><rect class="elkport" x="0" y="0" width="16" height="9" /><text id="sprotty_135" class="elklabel" transform="translate(-1, 10) translate(0, 0)" opacity="1">SONAR_JDBC_USERNAME</text></g><g id="sprotty_137" transform="translate(-16, 230)" opacity="1"><rect class="elkport" x="0" y="0" width="16" height="9" /><text id="sprotty_138" class="elklabel" transform="translate(-1, 10) translate(0, 0)" opacity="1">annotations</text></g><g id="sprotty_140" transform="translate(-16, 290)" opacity="1"><rect class="elkport" x="0" y="0" width="16" height="9" /><text id="sprotty_141" class="elklabel" transform="translate(-1, 10) translate(0, 0)" opacity="1">env</text></g><g id="sprotty_143" transform="translate(-16, 350)" opacity="1"><rect class="elkport" x="0" y="0" width="16" height="9" /><text id="sprotty_144" class="elklabel" transform="translate(-1, 10) translate(0, 0)" opacity="1">image</text></g><g id="sprotty_146" transform="translate(-16, 410)" opacity="1"><rect class="elkport" x="0" y="0" width="16" height="9" /><text id="sprotty_147" class="elklabel" transform="translate(-1, 10) translate(0, 0)" opacity="1">name</text></g><g id="sprotty_149" transform="translate(-16, 470)" opacity="1"><rect class="elkport" x="0" y="0" width="16" height="9" /><text id="sprotty_150" class="elklabel" transform="translate(-1, 10) translate(0, 0)" opacity="1">namespace</text></g><g id="sprotty_152" transform="translate(-16, 530)" opacity="1"><rect class="elkport" x="0" y="0" width="16" height="9" /><text id="sprotty_153" class="elklabel" transform="translate(-1, 10) translate(0, 0)" opacity="1">ports</text></g><g id="sprotty_155" transform="translate(-16, 590)" opacity="1"><rect class="elkport" x="0" y="0" width="16" height="9" /><text id="sprotty_156" class="elklabel" transform="translate(-1, 10) translate(0, 0)" opacity="1">replicas</text></g><g id="sprotty_158" transform="translate(-16, 650)" opacity="1"><rect class="elkport" x="0" y="0" width="16" height="9" /><text id="sprotty_159" class="elklabel" transform="translate(-1, 10) translate(0, 0)" opacity="1">sonarqube_data_pvc_name</text></g><g id="sprotty_161" transform="translate(-16, 710)" opacity="1"><rect class="elkport" x="0" y="0" width="16" height="9" /><text id="sprotty_162" class="elklabel" transform="translate(-1, 10) translate(0, 0)" opacity="1">sonarqube_extensions_pvc_name</text></g><g id="sprotty_164" transform="translate(-16, 770)" opacity="1"><rect class="elkport" x="0" y="0" width="16" height="9" /><text id="sprotty_165" class="elklabel" transform="translate(-1, 10) translate(0, 0)" opacity="1">sonarqube_logs_pvc_name</text></g><g id="sprotty_205" transform="translate(-16, 830)" opacity="1"><rect class="elkport" x="0" y="0" width="16" height="9" /><text id="sprotty_206" class="elklabel" transform="translate(-1, 10) translate(0, 0)" opacity="1">overrides</text></g><g id="sprotty_208" transform="translate(884, 110)" opacity="1"><rect class="elkport" x="0" y="0" width="16" height="9" /><text id="sprotty_209" class="elklabel" transform="translate(17, 10) translate(0, 0)" opacity="1">deployment</text></g><g id="sprotty_212" transform="translate(884, 170)" opacity="1"><rect class="elkport" x="0" y="0" width="16" height="9" /><text id="sprotty_213" class="elklabel" transform="translate(17, 10) translate(0, 0)" opacity="1">service</text></g><text id="sprotty_22" class="elklabel" transform="translate(0, -21) translate(0, 0)" opacity="1">sonarqube</text></g><g id="sprotty_26" transform="translate(517, 71)" opacity="1"><rect class="elknode" x="0" y="0" rx="10" width="884" height="890" /><g id="sprotty_28" transform="translate(100, 50)" opacity="1"><rect class="elknode" x="0" y="0" rx="10" width="200" height="60" /><text id="sprotty_29" class="elklabel" transform="translate(5, 22) translate(0, 0)" opacity="1">local.parameters</text></g><g id="sprotty_69" transform="translate(367, 71)" opacity="1"><rect class="elknode" x="0" y="0" rx="10" width="400" height="710" /><g id="sprotty_71" transform="translate(100, 50)" opacity="1"><rect class="elknode" x="0" y="0" rx="10" width="200" height="60" /><text id="sprotty_72" class="elklabel" transform="translate(5, 22) translate(0, 0)" opacity="1">k8s_apps_v1_stateful_set.this</text></g><g id="sprotty_73" transform="translate(100, 160)" opacity="1"><rect class="elknode" x="0" y="0" rx="10" width="200" height="60" /><text id="sprotty_74" class="elklabel" transform="translate(5, 22) translate(0, 0)" opacity="1">local.k8s_apps_v1_stateful_set_parameters</text></g><g id="sprotty_76" transform="translate(100, 270)" opacity="1"><rect class="elknode" x="0" y="0" rx="10" width="200" height="60" /><text id="sprotty_77" class="elklabel" transform="translate(5, 22) translate(0, 0)" opacity="1">k8s_core_v1_service.this</text></g><g id="sprotty_78" transform="translate(100, 380)" opacity="1"><rect class="elknode" x="0" y="0" rx="10" width="200" height="60" /><text id="sprotty_79" class="elklabel" transform="translate(5, 22) translate(0, 0)" opacity="1">local.k8s_core_v1_service_parameters</text></g><g id="sprotty_84" transform="translate(100, 490)" opacity="1"><rect class="elknode" x="0" y="0" rx="10" width="200" height="60" /><text id="sprotty_85" class="elklabel" transform="translate(5, 22) translate(0, 0)" opacity="1">local.selector</text></g><g id="sprotty_87" transform="translate(100, 600)" opacity="1"><rect class="elknode" x="0" y="0" rx="10" width="200" height="60" /><text id="sprotty_88" class="elklabel" transform="translate(5, 22) translate(0, 0)" opacity="1">local.labels</text></g><g id="sprotty_81" transform="translate(-16, 50)" opacity="1"><rect class="elkport" x="0" y="0" width="16" height="9" /><text id="sprotty_82" class="elklabel" transform="translate(-1, -1) translate(0, 0)" opacity="1">enable_service</text></g><g id="sprotty_90" transform="translate(-16, 110)" opacity="1"><rect class="elkport" x="0" y="0" width="16" height="9" /><text id="sprotty_91" class="elklabel" transform="translate(-1, 10) translate(0, 0)" opacity="1">parameters</text></g><g id="sprotty_94" transform="translate(400, 50)" opacity="1"><rect class="elkport" x="0" y="0" width="16" height="9" /><text id="sprotty_95" class="elklabel" transform="translate(17, 10) translate(0, 0)" opacity="1">labels</text></g><g id="sprotty_97" transform="translate(400, 110)" opacity="1"><rect class="elkport" x="0" y="0" width="16" height="9" /><text id="sprotty_98" class="elklabel" transform="translate(17, 10) translate(0, 0)" opacity="1">name</text></g><g id="sprotty_100" transform="translate(400, 170)" opacity="1"><rect class="elkport" x="0" y="0" width="16" height="9" /><text id="sprotty_101" class="elklabel" transform="translate(17, 10) translate(0, 0)" opacity="1">service</text></g><g id="sprotty_103" transform="translate(400, 230)" opacity="1"><rect class="elkport" x="0" y="0" width="16" height="9" /><text id="sprotty_104" class="elklabel" transform="translate(17, 10) translate(0, 0)" opacity="1">statefulset</text></g><text id="sprotty_70" class="elklabel" transform="translate(0, -21) translate(0, 0)" opacity="1">statefulset-service</text></g><g id="sprotty_30" transform="translate(-16, 50)" opacity="1"><rect class="elkport" x="0" y="0" width="16" height="9" /><text id="sprotty_31" class="elklabel" transform="translate(-1, 10) translate(0, 0)" opacity="1">POSTGRES_DB</text></g><g id="sprotty_33" transform="translate(-16, 110)" opacity="1"><rect class="elkport" x="0" y="0" width="16" height="9" /><text id="sprotty_34" class="elklabel" transform="translate(-1, 10) translate(0, 0)" opacity="1">POSTGRES_PASSWORD</text></g><g id="sprotty_36" transform="translate(-16, 170)" opacity="1"><rect class="elkport" x="0" y="0" width="16" height="9" /><text id="sprotty_37" class="elklabel" transform="translate(-1, 10) translate(0, 0)" opacity="1">POSTGRES_USER</text></g><g id="sprotty_39" transform="translate(-16, 230)" opacity="1"><rect class="elkport" x="0" y="0" width="16" height="9" /><text id="sprotty_40" class="elklabel" transform="translate(-1, 10) translate(0, 0)" opacity="1">annotations</text></g><g id="sprotty_42" transform="translate(-16, 290)" opacity="1"><rect class="elkport" x="0" y="0" width="16" height="9" /><text id="sprotty_43" class="elklabel" transform="translate(-1, 10) translate(0, 0)" opacity="1">env</text></g><g id="sprotty_45" transform="translate(-16, 350)" opacity="1"><rect class="elkport" x="0" y="0" width="16" height="9" /><text id="sprotty_46" class="elklabel" transform="translate(-1, 10) translate(0, 0)" opacity="1">image</text></g><g id="sprotty_48" transform="translate(-16, 410)" opacity="1"><rect class="elkport" x="0" y="0" width="16" height="9" /><text id="sprotty_49" class="elklabel" transform="translate(-1, 10) translate(0, 0)" opacity="1">name</text></g><g id="sprotty_51" transform="translate(-16, 470)" opacity="1"><rect class="elkport" x="0" y="0" width="16" height="9" /><text id="sprotty_52" class="elklabel" transform="translate(-1, 10) translate(0, 0)" opacity="1">namespace</text></g><g id="sprotty_54" transform="translate(-16, 530)" opacity="1"><rect class="elkport" x="0" y="0" width="16" height="9" /><text id="sprotty_55" class="elklabel" transform="translate(-1, 10) translate(0, 0)" opacity="1">ports</text></g><g id="sprotty_57" transform="translate(-16, 590)" opacity="1"><rect class="elkport" x="0" y="0" width="16" height="9" /><text id="sprotty_58" class="elklabel" transform="translate(-1, 10) translate(0, 0)" opacity="1">replicas</text></g><g id="sprotty_60" transform="translate(-16, 650)" opacity="1"><rect class="elkport" x="0" y="0" width="16" height="9" /><text id="sprotty_61" class="elklabel" transform="translate(-1, 10) translate(0, 0)" opacity="1">storage</text></g><g id="sprotty_63" transform="translate(-16, 710)" opacity="1"><rect class="elkport" x="0" y="0" width="16" height="9" /><text id="sprotty_64" class="elklabel" transform="translate(-1, 10) translate(0, 0)" opacity="1">storage_class</text></g><g id="sprotty_66" transform="translate(-16, 770)" opacity="1"><rect class="elkport" x="0" y="0" width="16" height="9" /><text id="sprotty_67" class="elklabel" transform="translate(-1, 10) translate(0, 0)" opacity="1">volume_claim_template_name</text></g><g id="sprotty_107" transform="translate(-16, 830)" opacity="1"><rect class="elkport" x="0" y="0" width="16" height="9" /><text id="sprotty_108" class="elklabel" transform="translate(-1, 10) translate(0, 0)" opacity="1">overrides</text></g><g id="sprotty_110" transform="translate(884, 50)" opacity="1"><rect class="elkport" x="0" y="0" width="16" height="9" /><text id="sprotty_111" class="elklabel" transform="translate(17, 10) translate(0, 0)" opacity="1">name</text></g><g id="sprotty_113" transform="translate(884, 110)" opacity="1"><rect class="elkport" x="0" y="0" width="16" height="9" /><text id="sprotty_114" class="elklabel" transform="translate(17, 10) translate(0, 0)" opacity="1">ports</text></g><g id="sprotty_116" transform="translate(884, 170)" opacity="1"><rect class="elkport" x="0" y="0" width="16" height="9" /><text id="sprotty_117" class="elklabel" transform="translate(17, 10) translate(0, 0)" opacity="1">service</text></g><g id="sprotty_119" transform="translate(884, 230)" opacity="1"><rect class="elkport" x="0" y="0" width="16" height="9" /><text id="sprotty_120" class="elklabel" transform="translate(17, 10) translate(0, 0)" opacity="1">statefulset</text></g><text id="sprotty_27" class="elklabel" transform="translate(0, -21) translate(0, 0)" opacity="1">postgres</text></g><g id="sprotty_7" transform="translate(-16, 1097.5)" opacity="1"><rect class="elkport" x="0" y="0" width="16" height="9" /><text id="sprotty_8" class="elklabel" transform="translate(-1, 10) translate(0, 0)" opacity="1">namespace</text></g><g id="sprotty_123" transform="translate(-16, 661)" opacity="1"><rect class="elkport" x="0" y="0" width="16" height="9" /><text id="sprotty_124" class="elklabel" transform="translate(-1, 10) translate(0, 0)" opacity="1">replicas</text></g><g id="sprotty_216" transform="translate(-16, 1016.5)" opacity="1"><rect class="elkport" x="0" y="0" width="16" height="9" /><text id="sprotty_217" class="elklabel" transform="translate(-1, 10) translate(0, 0)" opacity="1">name</text></g><text id="sprotty_4" class="elklabel" transform="translate(0, -21) translate(0, 0)" opacity="1">examples/sonarqube</text><g id="sprotty_9" class="sprotty-edge" opacity="1"><path class="elkedge" d="M 0,1102 L 100,1102" /><path class="edge arrow" d="M 0,0 L 8,-3 L 8,3 Z" transform="rotate(180 100 1102) translate(100 1102)" /></g><g id="sprotty_12" class="sprotty-edge" opacity="1"><path class="elkedge" d="M 300,1102 L 450,1102 L 450,1173 L 859,1173" /><path class="edge arrow" d="M 0,0 L 8,-3 L 8,3 Z" transform="rotate(180 859 1173) translate(859 1173)" /></g><g id="sprotty_15" class="sprotty-edge" opacity="1"><path class="elkedge" d="M 300,1112 L 400,1112 L 400,1333 L 859,1333" /><path class="edge arrow" d="M 0,0 L 8,-3 L 8,3 Z" transform="rotate(180 859 1333) translate(859 1333)" /></g><g id="sprotty_18" class="sprotty-edge" opacity="1"><path class="elkedge" d="M 300,1122 L 350,1122 L 350,1493 L 859,1493" /><path class="edge arrow" d="M 0,0 L 8,-3 L 8,3 Z" transform="rotate(180 859 1493) translate(859 1493)" /></g><g id="sprotty_25" class="sprotty-edge" opacity="1"><path class="elkedge" d="M 2535,672 L 2736,672" /><path class="edge arrow" d="M 0,0 L 8,-3 L 8,3 Z" transform="rotate(180 2736 672) translate(2736 672)" /></g><g id="sprotty_32" class="sprotty-edge" opacity="1"><path class="elkedge" d="M 517,126.48076923076923 L 617,138.7403846153846" /><path class="edge arrow" d="M 0,0 L 8,-3 L 8,3 Z" transform="rotate(-173.01063484366153 617 138.7403846153846) translate(617 138.7403846153846)" /></g><g id="sprotty_35" class="sprotty-edge" opacity="1"><path class="elkedge" d="M 517,184.1730769230769 L 617,167.58653846153845" /><path class="edge arrow" d="M 0,0 L 8,-3 L 8,3 Z" transform="rotate(170.58235285466571 617 167.58653846153845) translate(617 167.58653846153845)" /></g><g id="sprotty_38" class="sprotty-edge" opacity="1"><path class="elkedge" d="M 517,241.8653846153846 L 650.968253968254,181" /><path class="edge arrow" d="M 0,0 L 8,-3 L 8,3 Z" transform="rotate(155.5664230096372 650.968253968254 181) translate(650.968253968254 181)" /></g><g id="sprotty_41" class="sprotty-edge" opacity="1"><path class="elkedge" d="M 515.0582524271845,301 L 676.6116504854369,181" /><path class="edge arrow" d="M 0,0 L 8,-3 L 8,3 Z" transform="rotate(143.39546107211748 676.6116504854369 181) translate(676.6116504854369 181)" /></g><g id="sprotty_44" class="sprotty-edge" opacity="1"><path class="elkedge" d="M 513.3636363636364,361 L 687.9090909090909,181" /><path class="edge arrow" d="M 0,0 L 8,-3 L 8,3 Z" transform="rotate(134.11859600341785 687.9090909090909 181) translate(687.9090909090909 181)" /></g><g id="sprotty_47" class="sprotty-edge" opacity="1"><path class="elkedge" d="M 512.4098360655738,421 L 694.2677595628415,181" /><path class="edge arrow" d="M 0,0 L 8,-3 L 8,3 Z" transform="rotate(127.1527142373108 694.2677595628415 181) translate(694.2677595628415 181)" /></g><g id="sprotty_50" class="sprotty-edge" opacity="1"><path class="elkedge" d="M 511.7982062780269,481 L 698.3452914798206,181" /><path class="edge arrow" d="M 0,0 L 8,-3 L 8,3 Z" transform="rotate(121.8743247375575 698.3452914798206 181) translate(698.3452914798206 181)" /></g><g id="sprotty_53" class="sprotty-edge" opacity="1"><path class="elkedge" d="M 511.3726235741445,541 L 701.1825095057034,181" /><path class="edge arrow" d="M 0,0 L 8,-3 L 8,3 Z" transform="rotate(117.80042566034113 701.1825095057034 181) translate(701.1825095057034 181)" /></g><g id="sprotty_56" class="sprotty-edge" opacity="1"><path class="elkedge" d="M 511.05940594059405,601 L 703.2706270627062,181" /><path class="edge arrow" d="M 0,0 L 8,-3 L 8,3 Z" transform="rotate(114.59100050152601 703.2706270627062 181) translate(703.2706270627062 181)" /></g><g id="sprotty_59" class="sprotty-edge" opacity="1"><path class="elkedge" d="M 510.81924198250726,661 L 704.871720116618,181" /><path class="edge arrow" d="M 0,0 L 8,-3 L 8,3 Z" transform="rotate(112.01230148180701 704.871720116618 181) translate(704.871720116618 181)" /></g><g id="sprotty_62" class="sprotty-edge" opacity="1"><path class="elkedge" d="M 510.62924281984334,721 L 706.1383812010444,181" /><path class="edge arrow" d="M 0,0 L 8,-3 L 8,3 Z" transform="rotate(109.90298942454936 706.1383812010444 181) translate(706.1383812010444 181)" /></g><g id="sprotty_65" class="sprotty-edge" opacity="1"><path class="elkedge" d="M 510.4751773049645,781 L 707.1654846335698,181" /><path class="edge arrow" d="M 0,0 L 8,-3 L 8,3 Z" transform="rotate(108.15003254253324 707.1654846335698 181) translate(707.1654846335698 181)" /></g><g id="sprotty_68" class="sprotty-edge" opacity="1"><path class="elkedge" d="M 510.3477321814255,841 L 708.0151187904968,181" /><path class="edge arrow" d="M 0,0 L 8,-3 L 8,3 Z" transform="rotate(106.6727499528465 708.0151187904968 181) translate(708.0151187904968 181)" /></g><g id="sprotty_75" class="sprotty-edge" opacity="1"><path class="elkedge" d="M 1084,302 L 1084,252" /><path class="edge arrow" d="M 0,0 L 8,-3 L 8,3 Z" transform="rotate(90 1084 252) translate(1084 252)" /></g><g id="sprotty_80" class="sprotty-edge" opacity="1"><path class="elkedge" d="M 1084,522 L 1084,472" /><path class="edge arrow" d="M 0,0 L 8,-3 L 8,3 Z" transform="rotate(90 1084 472) translate(1084 472)" /></g><g id="sprotty_83" class="sprotty-edge" opacity="1"><path class="elkedge" d="M 879.8126272912423,201 L 1058.582484725051,412" /><path class="edge arrow" d="M 0,0 L 8,-3 L 8,3 Z" transform="rotate(-130.27295566323377 1058.582484725051 412) translate(1058.582484725051 412)" /></g><g id="sprotty_86" class="sprotty-edge" opacity="1"><path class="elkedge" d="M 1084,632 L 1084,362" /><path class="edge arrow" d="M 0,0 L 8,-3 L 8,3 Z" transform="rotate(90 1084 362) translate(1084 362)" /></g><g id="sprotty_89" class="sprotty-edge" opacity="1"><path class="elkedge" d="M 1084,742 L 1084,582" /><path class="edge arrow" d="M 0,0 L 8,-3 L 8,3 Z" transform="rotate(90 1084 582) translate(1084 582)" /></g><g id="sprotty_92" class="sprotty-edge" opacity="1"><path class="elkedge" d="M 877.815712900097,261 L 1071.8952473326867,742" /><path class="edge arrow" d="M 0,0 L 8,-3 L 8,3 Z" transform="rotate(-111.9736695371 1071.8952473326867 742) translate(1071.8952473326867 742)" /></g><g id="sprotty_93" class="sprotty-edge" opacity="1"><path class="elkedge" d="M 1084,742 L 1084,692" /><path class="edge arrow" d="M 0,0 L 8,-3 L 8,3 Z" transform="rotate(90 1084 692) translate(1084 692)" /></g><g id="sprotty_96" class="sprotty-edge" opacity="1"><path class="elkedge" d="M 1094.8427454387488,742 L 1290.3735881841876,201" /><path class="edge arrow" d="M 0,0 L 8,-3 L 8,3 Z" transform="rotate(109.87111491399165 1290.3735881841876 201) translate(1290.3735881841876 201)" /></g><g id="sprotty_99" class="sprotty-edge" opacity="1"><path class="elkedge" d="M 1184,238.58653846153845 L 1284,255.1730769230769" /><path class="edge arrow" d="M 0,0 L 8,-3 L 8,3 Z" transform="rotate(-170.58235285466571 1284 255.1730769230769) translate(1284 255.1730769230769)" /></g><g id="sprotty_102" class="sprotty-edge" opacity="1"><path class="elkedge" d="M 1133.7211155378486,412 L 1284.5418326693227,321" /><path class="edge arrow" d="M 0,0 L 8,-3 L 8,3 Z" transform="rotate(148.89467282183267 1284.5418326693227 321) translate(1284.5418326693227 321)" /></g><g id="sprotty_105" class="sprotty-edge" opacity="1"><path class="elkedge" d="M 1124.388349514563,252 L 1285.9417475728155,372" /><path class="edge arrow" d="M 0,0 L 8,-3 L 8,3 Z" transform="rotate(-143.39546107211748 1285.9417475728155 372) translate(1285.9417475728155 372)" /></g><g id="sprotty_106" class="sprotty-edge" opacity="1"><path class="elkedge" d="M 762.2132701421801,181 L 869.2180094786729,252" /><path class="edge arrow" d="M 0,0 L 8,-3 L 8,3 Z" transform="rotate(-146.43485040002997 869.2180094786729 252) translate(869.2180094786729 252)" /></g><g id="sprotty_109" class="sprotty-edge" opacity="1"><path class="elkedge" d="M 511.54468412942987,901 L 873.4553158705701,261" /><path class="edge arrow" d="M 0,0 L 8,-3 L 8,3 Z" transform="rotate(119.48752384510288 873.4553158705701 261) translate(873.4553158705701 261)" /></g><g id="sprotty_112" class="sprotty-edge" opacity="1"><path class="elkedge" d="M 1296.0190839694656,252 L 1404.9809160305344,130" /><path class="edge arrow" d="M 0,0 L 8,-3 L 8,3 Z" transform="rotate(131.76899009963185 1404.9809160305344 130) translate(1404.9809160305344 130)" /></g><g id="sprotty_115" class="sprotty-edge" opacity="1"><path class="elkedge" d="M 501,605.5 L 450,605.5 L 450,1011 L 1468,1011 L 1468,185.5 L 1417,185.5" /><path class="edge arrow" d="M 0,0 L 8,-3 L 8,3 Z" transform="rotate(0 1417 185.5) translate(1417 185.5)" /></g><g id="sprotty_118" class="sprotty-edge" opacity="1"><path class="elkedge" d="M 1299.4154929577464,312 L 1401.5845070422536,250" /><path class="edge arrow" d="M 0,0 L 8,-3 L 8,3 Z" transform="rotate(148.74904898341933 1401.5845070422536 250) translate(1401.5845070422536 250)" /></g><g id="sprotty_121" class="sprotty-edge" opacity="1"><path class="elkedge" d="M 1299.4154929577464,372 L 1401.5845070422536,310" /><path class="edge arrow" d="M 0,0 L 8,-3 L 8,3 Z" transform="rotate(148.74904898341933 1401.5845070422536 310) translate(1401.5845070422536 310)" /></g><g id="sprotty_122" class="sprotty-edge" opacity="1"><path class="elkedge" d="M 300,1082 L 350,1082 L 350,545.5 L 501,545.5" /><path class="edge arrow" d="M 0,0 L 8,-3 L 8,3 Z" transform="rotate(180 501 545.5) translate(501 545.5)" /></g><g id="sprotty_125" class="sprotty-edge" opacity="1"><path class="elkedge" d="M 0,665.5 L 501,665.5" /><path class="edge arrow" d="M 0,0 L 8,-3 L 8,3 Z" transform="rotate(180 501 665.5) translate(501 665.5)" /></g><g id="sprotty_130" class="sprotty-edge" opacity="1"><path class="elkedge" d="M 1635,672.9807692307693 L 1735,685.2403846153846" /><path class="edge arrow" d="M 0,0 L 8,-3 L 8,3 Z" transform="rotate(-173.01063484366153 1735 685.2403846153846) translate(1735 685.2403846153846)" /></g><g id="sprotty_133" class="sprotty-edge" opacity="1"><path class="elkedge" d="M 1635,730.6730769230769 L 1735,714.0865384615385" /><path class="edge arrow" d="M 0,0 L 8,-3 L 8,3 Z" transform="rotate(170.58235285466571 1735 714.0865384615385) translate(1735 714.0865384615385)" /></g><g id="sprotty_136" class="sprotty-edge" opacity="1"><path class="elkedge" d="M 1635,788.3653846153846 L 1768.968253968254,727.5" /><path class="edge arrow" d="M 0,0 L 8,-3 L 8,3 Z" transform="rotate(155.5664230096372 1768.968253968254 727.5) translate(1768.968253968254 727.5)" /></g><g id="sprotty_139" class="sprotty-edge" opacity="1"><path class="elkedge" d="M 1633.0582524271845,847.5 L 1794.611650485437,727.5" /><path class="edge arrow" d="M 0,0 L 8,-3 L 8,3 Z" transform="rotate(143.39546107211748 1794.611650485437 727.5) translate(1794.611650485437 727.5)" /></g><g id="sprotty_142" class="sprotty-edge" opacity="1"><path class="elkedge" d="M 1631.3636363636363,907.5 L 1805.909090909091,727.5" /><path class="edge arrow" d="M 0,0 L 8,-3 L 8,3 Z" transform="rotate(134.1185960034179 1805.909090909091 727.5) translate(1805.909090909091 727.5)" /></g><g id="sprotty_145" class="sprotty-edge" opacity="1"><path class="elkedge" d="M 1630.4098360655737,967.5 L 1812.2677595628415,727.5" /><path class="edge arrow" d="M 0,0 L 8,-3 L 8,3 Z" transform="rotate(127.15271423731083 1812.2677595628415 727.5) translate(1812.2677595628415 727.5)" /></g><g id="sprotty_148" class="sprotty-edge" opacity="1"><path class="elkedge" d="M 1629.798206278027,1027.5 L 1816.3452914798206,727.5" /><path class="edge arrow" d="M 0,0 L 8,-3 L 8,3 Z" transform="rotate(121.87432473755749 1816.3452914798206 727.5) translate(1816.3452914798206 727.5)" /></g><g id="sprotty_151" class="sprotty-edge" opacity="1"><path class="elkedge" d="M 1629.3726235741444,1087.5 L 1819.1825095057034,727.5" /><path class="edge arrow" d="M 0,0 L 8,-3 L 8,3 Z" transform="rotate(117.80042566034118 1819.1825095057034 727.5) translate(1819.1825095057034 727.5)" /></g><g id="sprotty_154" class="sprotty-edge" opacity="1"><path class="elkedge" d="M 1629.0594059405942,1147.5 L 1821.2706270627064,727.5" /><path class="edge arrow" d="M 0,0 L 8,-3 L 8,3 Z" transform="rotate(114.59100050152601 1821.2706270627064 727.5) translate(1821.2706270627064 727.5)" /></g><g id="sprotty_157" class="sprotty-edge" opacity="1"><path class="elkedge" d="M 1628.8192419825073,1207.5 L 1822.871720116618,727.5" /><path class="edge arrow" d="M 0,0 L 8,-3 L 8,3 Z" transform="rotate(112.01230148180701 1822.871720116618 727.5) translate(1822.871720116618 727.5)" /></g><g id="sprotty_160" class="sprotty-edge" opacity="1"><path class="elkedge" d="M 1628.6292428198433,1267.5 L 1824.1383812010445,727.5" /><path class="edge arrow" d="M 0,0 L 8,-3 L 8,3 Z" transform="rotate(109.90298942454936 1824.1383812010445 727.5) translate(1824.1383812010445 727.5)" /></g><g id="sprotty_163" class="sprotty-edge" opacity="1"><path class="elkedge" d="M 1628.4751773049645,1327.5 L 1825.1654846335698,727.5" /><path class="edge arrow" d="M 0,0 L 8,-3 L 8,3 Z" transform="rotate(108.15003254253324 1825.1654846335698 727.5) translate(1825.1654846335698 727.5)" /></g><g id="sprotty_166" class="sprotty-edge" opacity="1"><path class="elkedge" d="M 1628.3477321814255,1387.5 L 1826.0151187904967,727.5" /><path class="edge arrow" d="M 0,0 L 8,-3 L 8,3 Z" transform="rotate(106.6727499528465 1826.0151187904967 727.5) translate(1826.0151187904967 727.5)" /></g><g id="sprotty_173" class="sprotty-edge" opacity="1"><path class="elkedge" d="M 2202,848.5 L 2202,798.5" /><path class="edge arrow" d="M 0,0 L 8,-3 L 8,3 Z" transform="rotate(90 2202 798.5) translate(2202 798.5)" /></g><g id="sprotty_178" class="sprotty-edge" opacity="1"><path class="elkedge" d="M 2202,1068.5 L 2202,1018.5" /><path class="edge arrow" d="M 0,0 L 8,-3 L 8,3 Z" transform="rotate(90 2202 1018.5) translate(2202 1018.5)" /></g><g id="sprotty_181" class="sprotty-edge" opacity="1"><path class="elkedge" d="M 1997.8126272912423,747.5 L 2176.582484725051,958.5" /><path class="edge arrow" d="M 0,0 L 8,-3 L 8,3 Z" transform="rotate(-130.27295566323377 2176.582484725051 958.5) translate(2176.582484725051 958.5)" /></g><g id="sprotty_184" class="sprotty-edge" opacity="1"><path class="elkedge" d="M 2202,1178.5 L 2202,908.5" /><path class="edge arrow" d="M 0,0 L 8,-3 L 8,3 Z" transform="rotate(90 2202 908.5) translate(2202 908.5)" /></g><g id="sprotty_187" class="sprotty-edge" opacity="1"><path class="elkedge" d="M 2202,1288.5 L 2202,1128.5" /><path class="edge arrow" d="M 0,0 L 8,-3 L 8,3 Z" transform="rotate(90 2202 1128.5) translate(2202 1128.5)" /></g><g id="sprotty_190" class="sprotty-edge" opacity="1"><path class="elkedge" d="M 1995.815712900097,807.5 L 2189.8952473326867,1288.5" /><path class="edge arrow" d="M 0,0 L 8,-3 L 8,3 Z" transform="rotate(-111.9736695371 2189.8952473326867 1288.5) translate(2189.8952473326867 1288.5)" /></g><g id="sprotty_191" class="sprotty-edge" opacity="1"><path class="elkedge" d="M 2202,1288.5 L 2202,1238.5" /><path class="edge arrow" d="M 0,0 L 8,-3 L 8,3 Z" transform="rotate(90 2202 1238.5) translate(2202 1238.5)" /></g><g id="sprotty_194" class="sprotty-edge" opacity="1"><path class="elkedge" d="M 2302,756.2403846153846 L 2402,743.9807692307693" /><path class="edge arrow" d="M 0,0 L 8,-3 L 8,3 Z" transform="rotate(173.01063484366153 2402 743.9807692307693) translate(2402 743.9807692307693)" /></g><g id="sprotty_197" class="sprotty-edge" opacity="1"><path class="elkedge" d="M 2214.1047526673133,1288.5 L 2408.184287099903,807.5" /><path class="edge arrow" d="M 0,0 L 8,-3 L 8,3 Z" transform="rotate(111.9736695371 2408.184287099903 807.5) translate(2408.184287099903 807.5)" /></g><g id="sprotty_200" class="sprotty-edge" opacity="1"><path class="elkedge" d="M 2268.031746031746,798.5 L 2402,859.3653846153846" /><path class="edge arrow" d="M 0,0 L 8,-3 L 8,3 Z" transform="rotate(-155.5664230096372 2402 859.3653846153846) translate(2402 859.3653846153846)" /></g><g id="sprotty_203" class="sprotty-edge" opacity="1"><path class="elkedge" d="M 2297.267175572519,958.5 L 2402,925.5192307692307" /><path class="edge arrow" d="M 0,0 L 8,-3 L 8,3 Z" transform="rotate(162.52058471831904 2402 925.5192307692307) translate(2402 925.5192307692307)" /></g><g id="sprotty_204" class="sprotty-edge" opacity="1"><path class="elkedge" d="M 1880.2132701421801,727.5 L 1987.218009478673,798.5" /><path class="edge arrow" d="M 0,0 L 8,-3 L 8,3 Z" transform="rotate(-146.43485040002997 1987.218009478673 798.5) translate(1987.218009478673 798.5)" /></g><g id="sprotty_207" class="sprotty-edge" opacity="1"><path class="elkedge" d="M 1629.54468412943,1447.5 L 1991.45531587057,807.5" /><path class="edge arrow" d="M 0,0 L 8,-3 L 8,3 Z" transform="rotate(119.48752384510288 1991.45531587057 807.5) translate(1991.45531587057 807.5)" /></g><g id="sprotty_210" class="sprotty-edge" opacity="1"><path class="elkedge" d="M 2418,742.2478632478633 L 2519,732.7521367521367" /><path class="edge arrow" d="M 0,0 L 8,-3 L 8,3 Z" transform="rotate(174.62900530446427 2519 732.7521367521367) translate(2519 732.7521367521367)" /></g><g id="sprotty_211" class="sprotty-edge" opacity="1"><path class="elkedge" d="M 2412.7565445026175,858.5 L 2524.2434554973825,676.5" /><path class="edge arrow" d="M 0,0 L 8,-3 L 8,3 Z" transform="rotate(121.49019604671875 2524.2434554973825 676.5) translate(2524.2434554973825 676.5)" /></g><g id="sprotty_214" class="sprotty-edge" opacity="1"><path class="elkedge" d="M 2414.0190839694656,918.5 L 2522.9809160305344,796.5" /><path class="edge arrow" d="M 0,0 L 8,-3 L 8,3 Z" transform="rotate(131.76899009963185 2522.9809160305344 796.5) translate(2522.9809160305344 796.5)" /></g><g id="sprotty_215" class="sprotty-edge" opacity="1"><path class="elkedge" d="M 1417,125.5 L 1518,125.5 L 1518,732 L 1619,732" /><path class="edge arrow" d="M 0,0 L 8,-3 L 8,3 Z" transform="rotate(180 1619 732) translate(1619 732)" /></g><g id="sprotty_218" class="sprotty-edge" opacity="1"><path class="elkedge" d="M 0,1021 L 1468,1021 L 1468,1032 L 1619,1032" /><path class="edge arrow" d="M 0,0 L 8,-3 L 8,3 Z" transform="rotate(180 1619 1032) translate(1619 1032)" /></g><g id="sprotty_219" class="sprotty-edge" opacity="1"><path class="elkedge" d="M 300,1092 L 1619,1092" /><path class="edge arrow" d="M 0,0 L 8,-3 L 8,3 Z" transform="rotate(180 1619 1092) translate(1619 1092)" /></g><g id="sprotty_220" class="sprotty-edge" opacity="1"><path class="elkedge" d="M 1059,1173 L 1468,1173 L 1468,1272 L 1619,1272" /><path class="edge arrow" d="M 0,0 L 8,-3 L 8,3 Z" transform="rotate(180 1619 1272) translate(1619 1272)" /></g><g id="sprotty_221" class="sprotty-edge" opacity="1"><path class="elkedge" d="M 1059,1333 L 1468,1333 L 1468,1332 L 1619,1332" /><path class="edge arrow" d="M 0,0 L 8,-3 L 8,3 Z" transform="rotate(180 1619 1332) translate(1619 1332)" /></g><g id="sprotty_222" class="sprotty-edge" opacity="1"><path class="elkedge" d="M 1059,1493 L 1468,1493 L 1468,1392 L 1619,1392" /><path class="edge arrow" d="M 0,0 L 8,-3 L 8,3 Z" transform="rotate(180 1619 1392) translate(1619 1392)" /></g></g></g></svg>
