<svg id="sprotty_1" class="sprotty-graph sprotty" tabindex="1002" xmlns="http://www.w3.org/2000/svg" viewBox="0 0 1768 952"><style>
.elknode {
    stroke: #448;
    stroke-width: 2;
    fill: #ddf;
    fill-opacity: 0.5;
}

.elkport {
    stroke: #448;
    stroke-width: 1;
    fill: #66c;
}

.elkedge {
    fill: none;
    stroke: #88f;
    stroke-width: 8;
    stroke-opacity: 0.3;
    pointer-events: stroke;
    stroke-linejoin: round;
}

.elkedge:hover {
    stroke: #448;
    stroke-width: 8;
    stroke-opacity: 1;
    stroke-dasharray: 16px;
    stroke-dashoffset: 32px;
    animation: stroke 0.5s linear infinite;
}

@keyframes stroke {
    to {
        stroke-dashoffset: 0;
    }
}

.elkedge.arrow {
    fill: #336;
}

.elklabel {
    stroke-width: 0;
    stroke: #000;
    fill: #000;
    font-family: sans-serif;
    font-size: 10pt;
    dominant-baseline: hanging;
}

.elklabel:hover {
    font-size: 24pt;
}

.elkjunction {
    stroke: none;
    fill: #224;
}

.selected &gt; rect {
    stroke-width: 3;
}

.mouseover {
    stroke: #88f;
}
/*
 * Copyright (C) 2017 TypeFox and others.
 *
 * Licensed under the Apache License, Version 2.0 (the &quot;License&quot;); you may not use this file except in compliance with the License.
 * You may obtain a copy of the License at http://www.apache.org/licenses/LICENSE-2.0
 */

.sprotty {
    padding: 0px;
    font-family: &quot;Helvetica Neue&quot;, Helvetica, Arial, sans-serif;
}

.sprotty-hidden {
    display: block;
    position: absolute;
    width: 0px;
    height: 0px;
}

.sprotty-popup {
    font-family: &quot;Helvetica Neue&quot;, Helvetica, Arial, sans-serif;
    position: absolute;
    background: white;
    border-radius: 5px;
    border: 1px solid;
    max-width: 400px;
    min-width: 100px;
}

.sprotty-popup &gt; div {
    margin: 10px;
}

.sprotty-popup-closed {
    display: none;
}
</style><g transform="scale(1) translate(0,0)"><g id="sprotty_3" transform="translate(117, 71)" opacity="1"><rect class="elknode" x="0" y="0" rx="10" width="1534" height="831" /><g id="sprotty_5" transform="translate(450, 95.5)" opacity="1"><rect class="elknode" x="0" y="0" rx="10" width="200" height="60" /><text id="sprotty_6" class="elklabel" transform="translate(5, 22) translate(0, 0)" opacity="1">local.parameters</text></g><g id="sprotty_28" transform="translate(867, 71)" opacity="1"><rect class="elknode" x="0" y="0" rx="10" width="400" height="710" /><g id="sprotty_30" transform="translate(100, 50)" opacity="1"><rect class="elknode" x="0" y="0" rx="10" width="200" height="60" /><text id="sprotty_31" class="elklabel" transform="translate(5, 22) translate(0, 0)" opacity="1">k8s_apps_v1_deployment.this</text></g><g id="sprotty_32" transform="translate(100, 160)" opacity="1"><rect class="elknode" x="0" y="0" rx="10" width="200" height="60" /><text id="sprotty_33" class="elklabel" transform="translate(5, 22) translate(0, 0)" opacity="1">local.k8s_apps_v1_deployment_parameters</text></g><g id="sprotty_35" transform="translate(100, 270)" opacity="1"><rect class="elknode" x="0" y="0" rx="10" width="200" height="60" /><text id="sprotty_36" class="elklabel" transform="translate(5, 22) translate(0, 0)" opacity="1">k8s_core_v1_service.this</text></g><g id="sprotty_37" transform="translate(100, 380)" opacity="1"><rect class="elknode" x="0" y="0" rx="10" width="200" height="60" /><text id="sprotty_38" class="elklabel" transform="translate(5, 22) translate(0, 0)" opacity="1">local.k8s_core_v1_service_parameters</text></g><g id="sprotty_40" transform="translate(100, 490)" opacity="1"><rect class="elknode" x="0" y="0" rx="10" width="200" height="60" /><text id="sprotty_41" class="elklabel" transform="translate(5, 22) translate(0, 0)" opacity="1">local.selector</text></g><g id="sprotty_43" transform="translate(100, 600)" opacity="1"><rect class="elknode" x="0" y="0" rx="10" width="200" height="60" /><text id="sprotty_44" class="elklabel" transform="translate(5, 22) translate(0, 0)" opacity="1">local.labels</text></g><g id="sprotty_46" transform="translate(-16, 50)" opacity="1"><rect class="elkport" x="0" y="0" width="16" height="9" /><text id="sprotty_47" class="elklabel" transform="translate(-1, 10) translate(0, 0)" opacity="1">parameters</text></g><g id="sprotty_50" transform="translate(400, 50)" opacity="1"><rect class="elkport" x="0" y="0" width="16" height="9" /><text id="sprotty_51" class="elklabel" transform="translate(17, 10) translate(0, 0)" opacity="1">deployment</text></g><g id="sprotty_53" transform="translate(400, 110)" opacity="1"><rect class="elkport" x="0" y="0" width="16" height="9" /><text id="sprotty_54" class="elklabel" transform="translate(17, 10) translate(0, 0)" opacity="1">name</text></g><g id="sprotty_56" transform="translate(400, 170)" opacity="1"><rect class="elkport" x="0" y="0" width="16" height="9" /><text id="sprotty_57" class="elklabel" transform="translate(17, 10) translate(0, 0)" opacity="1">service</text></g><text id="sprotty_29" class="elklabel" transform="translate(0, -21) translate(0, 0)" opacity="1">deployment-service</text></g><g id="sprotty_7" transform="translate(-16, 158.5)" opacity="1"><rect class="elkport" x="0" y="0" width="16" height="9" /><text id="sprotty_8" class="elklabel" transform="translate(-1, 10) translate(0, 0)" opacity="1">env</text></g><g id="sprotty_10" transform="translate(-16, 218.5)" opacity="1"><rect class="elkport" x="0" y="0" width="16" height="9" /><text id="sprotty_11" class="elklabel" transform="translate(-1, 10) translate(0, 0)" opacity="1">image</text></g><g id="sprotty_13" transform="translate(-16, 278.5)" opacity="1"><rect class="elkport" x="0" y="0" width="16" height="9" /><text id="sprotty_14" class="elklabel" transform="translate(-1, 10) translate(0, 0)" opacity="1">name</text></g><g id="sprotty_16" transform="translate(-16, 338.5)" opacity="1"><rect class="elkport" x="0" y="0" width="16" height="9" /><text id="sprotty_17" class="elklabel" transform="translate(-1, 10) translate(0, 0)" opacity="1">namespace</text></g><g id="sprotty_19" transform="translate(-16, 398.5)" opacity="1"><rect class="elkport" x="0" y="0" width="16" height="9" /><text id="sprotty_20" class="elklabel" transform="translate(-1, 10) translate(0, 0)" opacity="1">replicas</text></g><g id="sprotty_22" transform="translate(-16, 458.5)" opacity="1"><rect class="elkport" x="0" y="0" width="16" height="9" /><text id="sprotty_23" class="elklabel" transform="translate(-1, 10) translate(0, 0)" opacity="1">spark_master_port</text></g><g id="sprotty_25" transform="translate(-16, 98.5)" opacity="1"><rect class="elkport" x="0" y="0" width="16" height="9" /><text id="sprotty_26" class="elklabel" transform="translate(-1, 10) translate(0, 0)" opacity="1">spark_master_webui_port</text></g><g id="sprotty_60" transform="translate(-16, 518.5)" opacity="1"><rect class="elkport" x="0" y="0" width="16" height="9" /><text id="sprotty_61" class="elklabel" transform="translate(-1, 10) translate(0, 0)" opacity="1">overrides</text></g><g id="sprotty_63" transform="translate(1534, 61)" opacity="1"><rect class="elkport" x="0" y="0" width="16" height="9" /><text id="sprotty_64" class="elklabel" transform="translate(17, 10) translate(0, 0)" opacity="1">deployment</text></g><g id="sprotty_66" transform="translate(1534, 181)" opacity="1"><rect class="elkport" x="0" y="0" width="16" height="9" /><text id="sprotty_67" class="elklabel" transform="translate(17, 10) translate(0, 0)" opacity="1">master_url</text></g><g id="sprotty_70" transform="translate(1534, 121)" opacity="1"><rect class="elkport" x="0" y="0" width="16" height="9" /><text id="sprotty_71" class="elklabel" transform="translate(17, 10) translate(0, 0)" opacity="1">name</text></g><g id="sprotty_73" transform="translate(1534, 241)" opacity="1"><rect class="elkport" x="0" y="0" width="16" height="9" /><text id="sprotty_74" class="elklabel" transform="translate(17, 10) translate(0, 0)" opacity="1">service</text></g><text id="sprotty_4" class="elklabel" transform="translate(0, -21) translate(0, 0)" opacity="1">modules/spark/master</text><g id="sprotty_9" class="sprotty-edge" opacity="1"><path class="elkedge" d="M 0,163 L 150,163 L 150,110.5 L 450,110.5" /><path class="edge arrow" d="M 0,0 L 8,-3 L 8,3 Z" transform="rotate(180 450 110.5) translate(450 110.5)" /></g><g id="sprotty_12" class="sprotty-edge" opacity="1"><path class="elkedge" d="M 0,223 L 200,223 L 200,118 L 450,118" /><path class="edge arrow" d="M 0,0 L 8,-3 L 8,3 Z" transform="rotate(180 450 118) translate(450 118)" /></g><g id="sprotty_15" class="sprotty-edge" opacity="1"><path class="elkedge" d="M 0,283 L 250,283 L 250,125.5 L 450,125.5" /><path class="edge arrow" d="M 0,0 L 8,-3 L 8,3 Z" transform="rotate(180 450 125.5) translate(450 125.5)" /></g><g id="sprotty_18" class="sprotty-edge" opacity="1"><path class="elkedge" d="M 0,343 L 300,343 L 300,133 L 450,133" /><path class="edge arrow" d="M 0,0 L 8,-3 L 8,3 Z" transform="rotate(180 450 133) translate(450 133)" /></g><g id="sprotty_21" class="sprotty-edge" opacity="1"><path class="elkedge" d="M 0,403 L 350,403 L 350,140.5 L 450,140.5" /><path class="edge arrow" d="M 0,0 L 8,-3 L 8,3 Z" transform="rotate(180 450 140.5) translate(450 140.5)" /></g><g id="sprotty_24" class="sprotty-edge" opacity="1"><path class="elkedge" d="M 0,463 L 400,463 L 400,148 L 450,148" /><path class="edge arrow" d="M 0,0 L 8,-3 L 8,3 Z" transform="rotate(180 450 148) translate(450 148)" /></g><g id="sprotty_27" class="sprotty-edge" opacity="1"><path class="elkedge" d="M 0,103 L 450,103" /><path class="edge arrow" d="M 0,0 L 8,-3 L 8,3 Z" transform="rotate(180 450 103) translate(450 103)" /></g><g id="sprotty_34" class="sprotty-edge" opacity="1"><path class="elkedge" d="M 1067,231 L 1067,181" /><path class="edge arrow" d="M 0,0 L 8,-3 L 8,3 Z" transform="rotate(90 1067 181) translate(1067 181)" /></g><g id="sprotty_39" class="sprotty-edge" opacity="1"><path class="elkedge" d="M 1067,451 L 1067,401" /><path class="edge arrow" d="M 0,0 L 8,-3 L 8,3 Z" transform="rotate(90 1067 401) translate(1067 401)" /></g><g id="sprotty_42" class="sprotty-edge" opacity="1"><path class="elkedge" d="M 1067,561 L 1067,291" /><path class="edge arrow" d="M 0,0 L 8,-3 L 8,3 Z" transform="rotate(90 1067 291) translate(1067 291)" /></g><g id="sprotty_45" class="sprotty-edge" opacity="1"><path class="elkedge" d="M 1067,671 L 1067,511" /><path class="edge arrow" d="M 0,0 L 8,-3 L 8,3 Z" transform="rotate(90 1067 511) translate(1067 511)" /></g><g id="sprotty_48" class="sprotty-edge" opacity="1"><path class="elkedge" d="M 860.6264118158124,130 L 1056.1572545612512,671" /><path class="edge arrow" d="M 0,0 L 8,-3 L 8,3 Z" transform="rotate(-109.87111491399165 1056.1572545612512 671) translate(1056.1572545612512 671)" /></g><g id="sprotty_49" class="sprotty-edge" opacity="1"><path class="elkedge" d="M 1067,671 L 1067,621" /><path class="edge arrow" d="M 0,0 L 8,-3 L 8,3 Z" transform="rotate(90 1067 621) translate(1067 621)" /></g><g id="sprotty_52" class="sprotty-edge" opacity="1"><path class="elkedge" d="M 1167,138.7403846153846 L 1267,126.48076923076923" /><path class="edge arrow" d="M 0,0 L 8,-3 L 8,3 Z" transform="rotate(173.01063484366153 1267 126.48076923076923) translate(1267 126.48076923076923)" /></g><g id="sprotty_55" class="sprotty-edge" opacity="1"><path class="elkedge" d="M 1100.6388140161725,341 L 1269.954177897574,190" /><path class="edge arrow" d="M 0,0 L 8,-3 L 8,3 Z" transform="rotate(138.27256122803203 1269.954177897574 190) translate(1269.954177897574 190)" /></g><g id="sprotty_58" class="sprotty-edge" opacity="1"><path class="elkedge" d="M 1116.7211155378486,341 L 1267.5418326693227,250" /><path class="edge arrow" d="M 0,0 L 8,-3 L 8,3 Z" transform="rotate(148.89467282183267 1267.5418326693227 250) translate(1267.5418326693227 250)" /></g><g id="sprotty_59" class="sprotty-edge" opacity="1"><path class="elkedge" d="M 650,125.5 L 851,125.5" /><path class="edge arrow" d="M 0,0 L 8,-3 L 8,3 Z" transform="rotate(180 851 125.5) translate(851 125.5)" /></g><g id="sprotty_62" class="sprotty-edge" opacity="1"><path class="elkedge" d="M 0,523 L 700,523 L 700,125.5 L 851,125.5" /><path class="edge arrow" d="M 0,0 L 8,-3 L 8,3 Z" transform="rotate(180 851 125.5) translate(851 125.5)" /><g id="sprotty_62_j0" transform="translate(700, 125.5)" opacity="1"><circle class="elkjunction" r="2" /></g></g><g id="sprotty_65" class="sprotty-edge" opacity="1"><path class="elkedge" d="M 1283,125.5 L 1334,125.5 L 1334,65.5 L 1534,65.5" /><path class="edge arrow" d="M 0,0 L 8,-3 L 8,3 Z" transform="rotate(180 1534 65.5) translate(1534 65.5)" /></g><g id="sprotty_68" class="sprotty-edge" opacity="1"><path class="elkedge" d="M 1283,185.5 L 1534,185.5" /><path class="edge arrow" d="M 0,0 L 8,-3 L 8,3 Z" transform="rotate(180 1534 185.5) translate(1534 185.5)" /></g><g id="sprotty_69" class="sprotty-edge" opacity="1"><path class="elkedge" d="M 1283,245.5 L 1384,245.5 L 1384,185.5 L 1534,185.5" /><path class="edge arrow" d="M 0,0 L 8,-3 L 8,3 Z" transform="rotate(180 1534 185.5) translate(1534 185.5)" /><g id="sprotty_69_j0" transform="translate(1384, 245.5)" opacity="1"><circle class="elkjunction" r="2" /></g></g><g id="sprotty_72" class="sprotty-edge" opacity="1"><path class="elkedge" d="M 1283,185.5 L 1384,185.5 L 1384,125.5 L 1534,125.5" /><path class="edge arrow" d="M 0,0 L 8,-3 L 8,3 Z" transform="rotate(180 1534 125.5) translate(1534 125.5)" /><g id="sprotty_72_j0" transform="translate(1384, 185.5)" opacity="1"><circle class="elkjunction" r="2" /></g></g><g id="sprotty_75" class="sprotty-edge" opacity="1"><path class="elkedge" d="M 1283,245.5 L 1534,245.5" /><path class="edge arrow" d="M 0,0 L 8,-3 L 8,3 Z" transform="rotate(180 1534 245.5) translate(1534 245.5)" /></g></g></g></svg>
