<svg id="sprotty_1" class="sprotty-graph sprotty" tabindex="1002" xmlns="http://www.w3.org/2000/svg" viewBox="0 0 4937 1753.5"><style>
.elknode {
    stroke: #448;
    stroke-width: 2;
    fill: #ddf;
    fill-opacity: 0.5;
}

.elkport {
    stroke: #448;
    stroke-width: 1;
    fill: #66c;
}

.elkedge {
    fill: none;
    stroke: #88f;
    stroke-width: 8;
    stroke-opacity: 0.3;
    pointer-events: stroke;
    stroke-linejoin: round;
}

.elkedge:hover {
    stroke: #448;
    stroke-width: 8;
    stroke-opacity: 1;
    stroke-dasharray: 16px;
    stroke-dashoffset: 32px;
    animation: stroke 0.5s linear infinite;
}

@keyframes stroke {
    to {
        stroke-dashoffset: 0;
    }
}

.elkedge.arrow {
    fill: #336;
}

.elklabel {
    stroke-width: 0;
    stroke: #000;
    fill: #000;
    font-family: sans-serif;
    font-size: 10pt;
    dominant-baseline: hanging;
}

.elklabel:hover {
    font-size: 24pt;
}

.elkjunction {
    stroke: none;
    fill: #224;
}

.selected &gt; rect {
    stroke-width: 3;
}

.mouseover {
    stroke: #88f;
}
/*
 * Copyright (C) 2017 TypeFox and others.
 *
 * Licensed under the Apache License, Version 2.0 (the &quot;License&quot;); you may not use this file except in compliance with the License.
 * You may obtain a copy of the License at http://www.apache.org/licenses/LICENSE-2.0
 */

.sprotty {
    padding: 0px;
    font-family: &quot;Helvetica Neue&quot;, Helvetica, Arial, sans-serif;
}

.sprotty-hidden {
    display: block;
    position: absolute;
    width: 0px;
    height: 0px;
}

.sprotty-popup {
    font-family: &quot;Helvetica Neue&quot;, Helvetica, Arial, sans-serif;
    position: absolute;
    background: white;
    border-radius: 5px;
    border: 1px solid;
    max-width: 400px;
    min-width: 100px;
}

.sprotty-popup &gt; div {
    margin: 10px;
}

.sprotty-popup-closed {
    display: none;
}
</style><g transform="scale(1) translate(0,0)"><g id="sprotty_3" transform="translate(117, 71)" opacity="1"><rect class="elknode" x="0" y="0" rx="10" width="4720" height="1632.5" /><g id="sprotty_5" transform="translate(100, 921)" opacity="1"><rect class="elknode" x="0" y="0" rx="10" width="200" height="60" /><text id="sprotty_6" class="elklabel" transform="translate(5, 22) translate(0, 0)" opacity="1">k8s_core_v1_namespace.this (expand)</text></g><g id="sprotty_10" transform="translate(3069, 317.5)" opacity="1"><rect class="elknode" x="0" y="0" rx="10" width="200" height="60" /><text id="sprotty_11" class="elklabel" transform="translate(5, 22) translate(0, 0)" opacity="1">module.coordinator (close)</text></g><g id="sprotty_12" transform="translate(1451, 131)" opacity="1"><rect class="elknode" x="0" y="0" rx="10" width="1134" height="770" /><g id="sprotty_14" transform="translate(100, 50)" opacity="1"><rect class="elknode" x="0" y="0" rx="10" width="200" height="60" /><text id="sprotty_15" class="elklabel" transform="translate(5, 22) translate(0, 0)" opacity="1">module.statefulset-service (close)</text></g><g id="sprotty_29" transform="translate(350, 50)" opacity="1"><rect class="elknode" x="0" y="0" rx="10" width="200" height="60" /><text id="sprotty_30" class="elklabel" transform="translate(5, 22) translate(0, 0)" opacity="1">local.parameters (expand)</text></g><g id="sprotty_64" transform="translate(117, 181)" opacity="1"><rect class="elknode" x="0" y="0" rx="10" width="650" height="490" /><g id="sprotty_83" transform="translate(100, 50)" opacity="1"><rect class="elknode" x="0" y="0" rx="10" width="200" height="60" /><text id="sprotty_84" class="elklabel" transform="translate(5, 22) translate(0, 0)" opacity="1">k8s_apps_v1_stateful_set.this (expand)</text></g><g id="sprotty_85" transform="translate(350, 50)" opacity="1"><rect class="elknode" x="0" y="0" rx="10" width="200" height="60" /><text id="sprotty_86" class="elklabel" transform="translate(5, 22) translate(0, 0)" opacity="1">local.k8s_apps_v1_stateful_set_parameters (expand)</text></g><g id="sprotty_88" transform="translate(100, 160)" opacity="1"><rect class="elknode" x="0" y="0" rx="10" width="200" height="60" /><text id="sprotty_89" class="elklabel" transform="translate(5, 22) translate(0, 0)" opacity="1">k8s_core_v1_service.this (expand)</text></g><g id="sprotty_90" transform="translate(350, 160)" opacity="1"><rect class="elknode" x="0" y="0" rx="10" width="200" height="60" /><text id="sprotty_91" class="elklabel" transform="translate(5, 22) translate(0, 0)" opacity="1">local.enable_service (expand)</text></g><g id="sprotty_93" transform="translate(100, 270)" opacity="1"><rect class="elknode" x="0" y="0" rx="10" width="200" height="60" /><text id="sprotty_94" class="elklabel" transform="translate(5, 22) translate(0, 0)" opacity="1">local.k8s_core_v1_service_parameters (expand)</text></g><g id="sprotty_99" transform="translate(350, 270)" opacity="1"><rect class="elknode" x="0" y="0" rx="10" width="200" height="60" /><text id="sprotty_100" class="elklabel" transform="translate(5, 22) translate(0, 0)" opacity="1">local.podAnnotations (expand)</text></g><g id="sprotty_102" transform="translate(100, 380)" opacity="1"><rect class="elknode" x="0" y="0" rx="10" width="200" height="60" /><text id="sprotty_103" class="elklabel" transform="translate(5, 22) translate(0, 0)" opacity="1">local.selector (expand)</text></g><g id="sprotty_105" transform="translate(350, 380)" opacity="1"><rect class="elknode" x="0" y="0" rx="10" width="200" height="60" /><text id="sprotty_106" class="elklabel" transform="translate(5, 22) translate(0, 0)" opacity="1">local.labels (expand)</text></g><g id="sprotty_66" transform="translate(650, 50)" opacity="1"><rect class="elkport" x="0" y="0" width="16" height="9" /><text id="sprotty_67" class="elklabel" transform="translate(17, 10) translate(0, 0)" opacity="1">labels</text></g><g id="sprotty_69" transform="translate(650, 110)" opacity="1"><rect class="elkport" x="0" y="0" width="16" height="9" /><text id="sprotty_70" class="elklabel" transform="translate(17, 10) translate(0, 0)" opacity="1">name</text></g><g id="sprotty_72" transform="translate(650, 170)" opacity="1"><rect class="elkport" x="0" y="0" width="16" height="9" /><text id="sprotty_73" class="elklabel" transform="translate(17, 10) translate(0, 0)" opacity="1">service</text></g><g id="sprotty_75" transform="translate(650, 230)" opacity="1"><rect class="elkport" x="0" y="0" width="16" height="9" /><text id="sprotty_76" class="elklabel" transform="translate(17, 10) translate(0, 0)" opacity="1">statefulset</text></g><g id="sprotty_96" transform="translate(-16, 50)" opacity="1"><rect class="elkport" x="0" y="0" width="16" height="9" /><text id="sprotty_97" class="elklabel" transform="translate(-1, -1) translate(0, 0)" opacity="1">parameters</text></g><g id="sprotty_110" transform="translate(-16, 110)" opacity="1"><rect class="elkport" x="0" y="0" width="16" height="9" /><text id="sprotty_111" class="elklabel" transform="translate(-1, 10) translate(0, 0)" opacity="1">podAnnotations</text></g><text id="sprotty_65" class="elklabel" transform="translate(0, -21) translate(0, 0)" opacity="1">statefulset-service</text></g><g id="sprotty_78" transform="translate(834, 160)" opacity="1"><rect class="elknode" x="0" y="0" rx="10" width="200" height="60" /><text id="sprotty_79" class="elklabel" transform="translate(5, 22) translate(0, 0)" opacity="1">module.statefulset-service (expand)</text></g><g id="sprotty_17" transform="translate(1134, 50)" opacity="1"><rect class="elkport" x="0" y="0" width="16" height="9" /><text id="sprotty_18" class="elklabel" transform="translate(17, 10) translate(0, 0)" opacity="1">name</text></g><g id="sprotty_20" transform="translate(1134, 110)" opacity="1"><rect class="elkport" x="0" y="0" width="16" height="9" /><text id="sprotty_21" class="elklabel" transform="translate(17, 10) translate(0, 0)" opacity="1">ports</text></g><g id="sprotty_23" transform="translate(1134, 170)" opacity="1"><rect class="elkport" x="0" y="0" width="16" height="9" /><text id="sprotty_24" class="elklabel" transform="translate(17, 10) translate(0, 0)" opacity="1">service</text></g><g id="sprotty_26" transform="translate(1134, 230)" opacity="1"><rect class="elkport" x="0" y="0" width="16" height="9" /><text id="sprotty_27" class="elklabel" transform="translate(17, 10) translate(0, 0)" opacity="1">statefulset</text></g><g id="sprotty_31" transform="translate(-16, 50)" opacity="1"><rect class="elkport" x="0" y="0" width="16" height="9" /><text id="sprotty_32" class="elklabel" transform="translate(-1, 10) translate(0, 0)" opacity="1">annotations</text></g><g id="sprotty_34" transform="translate(-16, 110)" opacity="1"><rect class="elkport" x="0" y="0" width="16" height="9" /><text id="sprotty_35" class="elklabel" transform="translate(-1, 10) translate(0, 0)" opacity="1">env</text></g><g id="sprotty_37" transform="translate(-16, 170)" opacity="1"><rect class="elkport" x="0" y="0" width="16" height="9" /><text id="sprotty_38" class="elklabel" transform="translate(-1, 10) translate(0, 0)" opacity="1">image</text></g><g id="sprotty_40" transform="translate(-16, 230)" opacity="1"><rect class="elkport" x="0" y="0" width="16" height="9" /><text id="sprotty_41" class="elklabel" transform="translate(-1, 10) translate(0, 0)" opacity="1">name</text></g><g id="sprotty_43" transform="translate(-16, 290)" opacity="1"><rect class="elkport" x="0" y="0" width="16" height="9" /><text id="sprotty_44" class="elklabel" transform="translate(-1, 10) translate(0, 0)" opacity="1">namespace</text></g><g id="sprotty_46" transform="translate(-16, 350)" opacity="1"><rect class="elkport" x="0" y="0" width="16" height="9" /><text id="sprotty_47" class="elklabel" transform="translate(-1, 10) translate(0, 0)" opacity="1">ports</text></g><g id="sprotty_49" transform="translate(-16, 410)" opacity="1"><rect class="elkport" x="0" y="0" width="16" height="9" /><text id="sprotty_50" class="elklabel" transform="translate(-1, 10) translate(0, 0)" opacity="1">resources</text></g><g id="sprotty_52" transform="translate(-16, 470)" opacity="1"><rect class="elkport" x="0" y="0" width="16" height="9" /><text id="sprotty_53" class="elklabel" transform="translate(-1, 10) translate(0, 0)" opacity="1">secret</text></g><g id="sprotty_55" transform="translate(-16, 530)" opacity="1"><rect class="elkport" x="0" y="0" width="16" height="9" /><text id="sprotty_56" class="elklabel" transform="translate(-1, 10) translate(0, 0)" opacity="1">storage</text></g><g id="sprotty_58" transform="translate(-16, 590)" opacity="1"><rect class="elkport" x="0" y="0" width="16" height="9" /><text id="sprotty_59" class="elklabel" transform="translate(-1, 10) translate(0, 0)" opacity="1">storage_class</text></g><g id="sprotty_61" transform="translate(-16, 650)" opacity="1"><rect class="elkport" x="0" y="0" width="16" height="9" /><text id="sprotty_62" class="elklabel" transform="translate(-1, 10) translate(0, 0)" opacity="1">volume_claim_template_name</text></g><g id="sprotty_120" transform="translate(-16, 710)" opacity="1"><rect class="elkport" x="0" y="0" width="16" height="9" /><text id="sprotty_121" class="elklabel" transform="translate(-1, 10) translate(0, 0)" opacity="1">overrides</text></g><text id="sprotty_13" class="elklabel" transform="translate(0, -21) translate(0, 0)" opacity="1">coordinator</text></g><g id="sprotty_80" transform="translate(867, 476.5)" opacity="1"><rect class="elknode" x="0" y="0" rx="10" width="200" height="60" /><text id="sprotty_81" class="elklabel" transform="translate(5, 22) translate(0, 0)" opacity="1">module.coordinator (expand)</text></g><g id="sprotty_138" transform="translate(667, 1112.5)" opacity="1"><rect class="elknode" x="0" y="0" rx="10" width="400" height="470" /><g id="sprotty_155" transform="translate(100, 50)" opacity="1"><rect class="elknode" x="0" y="0" rx="10" width="200" height="60" /><text id="sprotty_156" class="elklabel" transform="translate(5, 22) translate(0, 0)" opacity="1">k8s_core_v1_secret.this (expand)</text></g><g id="sprotty_157" transform="translate(100, 160)" opacity="1"><rect class="elknode" x="0" y="0" rx="10" width="200" height="60" /><text id="sprotty_158" class="elklabel" transform="translate(5, 22) translate(0, 0)" opacity="1">local.data (expand)</text></g><g id="sprotty_140" transform="translate(400, 50)" opacity="1"><rect class="elkport" x="0" y="0" width="16" height="9" /><text id="sprotty_141" class="elklabel" transform="translate(17, 10) translate(0, 0)" opacity="1">name</text></g><g id="sprotty_148" transform="translate(400, 110)" opacity="1"><rect class="elkport" x="0" y="0" width="16" height="9" /><text id="sprotty_149" class="elklabel" transform="translate(17, 10) translate(0, 0)" opacity="1">checksum</text></g><g id="sprotty_152" transform="translate(400, 170)" opacity="1"><rect class="elkport" x="0" y="0" width="16" height="9" /><text id="sprotty_153" class="elklabel" transform="translate(17, 10) translate(0, 0)" opacity="1">secret</text></g><g id="sprotty_160" transform="translate(-16, 50)" opacity="1"><rect class="elkport" x="0" y="0" width="16" height="9" /><text id="sprotty_161" class="elklabel" transform="translate(-1, 10) translate(0, 0)" opacity="1">name</text></g><g id="sprotty_163" transform="translate(-16, 110)" opacity="1"><rect class="elkport" x="0" y="0" width="16" height="9" /><text id="sprotty_164" class="elklabel" transform="translate(-1, 10) translate(0, 0)" opacity="1">namespace</text></g><g id="sprotty_166" transform="translate(-16, 170)" opacity="1"><rect class="elkport" x="0" y="0" width="16" height="9" /><text id="sprotty_167" class="elklabel" transform="translate(-1, 10) translate(0, 0)" opacity="1">type</text></g><g id="sprotty_169" transform="translate(-16, 230)" opacity="1"><rect class="elkport" x="0" y="0" width="16" height="9" /><text id="sprotty_170" class="elklabel" transform="translate(-1, 10) translate(0, 0)" opacity="1">from</text></g><g id="sprotty_172" transform="translate(-16, 290)" opacity="1"><rect class="elkport" x="0" y="0" width="16" height="9" /><text id="sprotty_173" class="elklabel" transform="translate(-1, 10) translate(0, 0)" opacity="1">from</text></g><g id="sprotty_175" transform="translate(-16, 350)" opacity="1"><rect class="elkport" x="0" y="0" width="16" height="9" /><text id="sprotty_176" class="elklabel" transform="translate(-1, 10) translate(0, 0)" opacity="1">from</text></g><g id="sprotty_178" transform="translate(-16, 410)" opacity="1"><rect class="elkport" x="0" y="0" width="16" height="9" /><text id="sprotty_179" class="elklabel" transform="translate(-1, 10) translate(0, 0)" opacity="1">from</text></g><text id="sprotty_139" class="elklabel" transform="translate(0, -21) translate(0, 0)" opacity="1">secret</text></g><g id="sprotty_146" transform="translate(1451, 1242)" opacity="1"><rect class="elknode" x="0" y="0" rx="10" width="200" height="60" /><text id="sprotty_147" class="elklabel" transform="translate(5, 22) translate(0, 0)" opacity="1">module.secret (close)</text></g><g id="sprotty_184" transform="translate(100, 1474.5)" opacity="1"><rect class="elknode" x="0" y="0" rx="10" width="200" height="60" /><text id="sprotty_185" class="elklabel" transform="translate(5, 22) translate(0, 0)" opacity="1">module.secret (expand)</text></g><g id="sprotty_194" transform="translate(4420, 783)" opacity="1"><rect class="elknode" x="0" y="0" rx="10" width="200" height="60" /><text id="sprotty_195" class="elklabel" transform="translate(5, 22) translate(0, 0)" opacity="1">module.worker (close)</text></g><g id="sprotty_196" transform="translate(3069, 596.5)" opacity="1"><rect class="elknode" x="0" y="0" rx="10" width="1134" height="890" /><g id="sprotty_198" transform="translate(100, 50)" opacity="1"><rect class="elknode" x="0" y="0" rx="10" width="200" height="60" /><text id="sprotty_199" class="elklabel" transform="translate(5, 22) translate(0, 0)" opacity="1">module.statefulset-service (close)</text></g><g id="sprotty_213" transform="translate(350, 50)" opacity="1"><rect class="elknode" x="0" y="0" rx="10" width="200" height="60" /><text id="sprotty_214" class="elklabel" transform="translate(5, 22) translate(0, 0)" opacity="1">local.parameters (expand)</text></g><g id="sprotty_254" transform="translate(117, 181)" opacity="1"><rect class="elknode" x="0" y="0" rx="10" width="650" height="490" /><g id="sprotty_273" transform="translate(100, 50)" opacity="1"><rect class="elknode" x="0" y="0" rx="10" width="200" height="60" /><text id="sprotty_274" class="elklabel" transform="translate(5, 22) translate(0, 0)" opacity="1">k8s_apps_v1_stateful_set.this (expand)</text></g><g id="sprotty_275" transform="translate(350, 50)" opacity="1"><rect class="elknode" x="0" y="0" rx="10" width="200" height="60" /><text id="sprotty_276" class="elklabel" transform="translate(5, 22) translate(0, 0)" opacity="1">local.k8s_apps_v1_stateful_set_parameters (expand)</text></g><g id="sprotty_278" transform="translate(100, 160)" opacity="1"><rect class="elknode" x="0" y="0" rx="10" width="200" height="60" /><text id="sprotty_279" class="elklabel" transform="translate(5, 22) translate(0, 0)" opacity="1">k8s_core_v1_service.this (expand)</text></g><g id="sprotty_280" transform="translate(350, 160)" opacity="1"><rect class="elknode" x="0" y="0" rx="10" width="200" height="60" /><text id="sprotty_281" class="elklabel" transform="translate(5, 22) translate(0, 0)" opacity="1">local.enable_service (expand)</text></g><g id="sprotty_283" transform="translate(100, 270)" opacity="1"><rect class="elknode" x="0" y="0" rx="10" width="200" height="60" /><text id="sprotty_284" class="elklabel" transform="translate(5, 22) translate(0, 0)" opacity="1">local.k8s_core_v1_service_parameters (expand)</text></g><g id="sprotty_289" transform="translate(350, 270)" opacity="1"><rect class="elknode" x="0" y="0" rx="10" width="200" height="60" /><text id="sprotty_290" class="elklabel" transform="translate(5, 22) translate(0, 0)" opacity="1">local.podAnnotations (expand)</text></g><g id="sprotty_292" transform="translate(100, 380)" opacity="1"><rect class="elknode" x="0" y="0" rx="10" width="200" height="60" /><text id="sprotty_293" class="elklabel" transform="translate(5, 22) translate(0, 0)" opacity="1">local.selector (expand)</text></g><g id="sprotty_295" transform="translate(350, 380)" opacity="1"><rect class="elknode" x="0" y="0" rx="10" width="200" height="60" /><text id="sprotty_296" class="elklabel" transform="translate(5, 22) translate(0, 0)" opacity="1">local.labels (expand)</text></g><g id="sprotty_256" transform="translate(650, 50)" opacity="1"><rect class="elkport" x="0" y="0" width="16" height="9" /><text id="sprotty_257" class="elklabel" transform="translate(17, 10) translate(0, 0)" opacity="1">labels</text></g><g id="sprotty_259" transform="translate(650, 110)" opacity="1"><rect class="elkport" x="0" y="0" width="16" height="9" /><text id="sprotty_260" class="elklabel" transform="translate(17, 10) translate(0, 0)" opacity="1">name</text></g><g id="sprotty_262" transform="translate(650, 170)" opacity="1"><rect class="elkport" x="0" y="0" width="16" height="9" /><text id="sprotty_263" class="elklabel" transform="translate(17, 10) translate(0, 0)" opacity="1">service</text></g><g id="sprotty_265" transform="translate(650, 230)" opacity="1"><rect class="elkport" x="0" y="0" width="16" height="9" /><text id="sprotty_266" class="elklabel" transform="translate(17, 10) translate(0, 0)" opacity="1">statefulset</text></g><g id="sprotty_286" transform="translate(-16, 50)" opacity="1"><rect class="elkport" x="0" y="0" width="16" height="9" /><text id="sprotty_287" class="elklabel" transform="translate(-1, -1) translate(0, 0)" opacity="1">parameters</text></g><g id="sprotty_300" transform="translate(-16, 110)" opacity="1"><rect class="elkport" x="0" y="0" width="16" height="9" /><text id="sprotty_301" class="elklabel" transform="translate(-1, 10) translate(0, 0)" opacity="1">podAnnotations</text></g><text id="sprotty_255" class="elklabel" transform="translate(0, -21) translate(0, 0)" opacity="1">statefulset-service</text></g><g id="sprotty_268" transform="translate(834, 160)" opacity="1"><rect class="elknode" x="0" y="0" rx="10" width="200" height="60" /><text id="sprotty_269" class="elklabel" transform="translate(5, 22) translate(0, 0)" opacity="1">module.statefulset-service (expand)</text></g><g id="sprotty_201" transform="translate(1134, 50)" opacity="1"><rect class="elkport" x="0" y="0" width="16" height="9" /><text id="sprotty_202" class="elklabel" transform="translate(17, 10) translate(0, 0)" opacity="1">name</text></g><g id="sprotty_204" transform="translate(1134, 110)" opacity="1"><rect class="elkport" x="0" y="0" width="16" height="9" /><text id="sprotty_205" class="elklabel" transform="translate(17, 10) translate(0, 0)" opacity="1">ports</text></g><g id="sprotty_207" transform="translate(1134, 170)" opacity="1"><rect class="elkport" x="0" y="0" width="16" height="9" /><text id="sprotty_208" class="elklabel" transform="translate(17, 10) translate(0, 0)" opacity="1">service</text></g><g id="sprotty_210" transform="translate(1134, 230)" opacity="1"><rect class="elkport" x="0" y="0" width="16" height="9" /><text id="sprotty_211" class="elklabel" transform="translate(17, 10) translate(0, 0)" opacity="1">statefulset</text></g><g id="sprotty_215" transform="translate(-16, 50)" opacity="1"><rect class="elkport" x="0" y="0" width="16" height="9" /><text id="sprotty_216" class="elklabel" transform="translate(-1, 10) translate(0, 0)" opacity="1">annotations</text></g><g id="sprotty_218" transform="translate(-16, 110)" opacity="1"><rect class="elkport" x="0" y="0" width="16" height="9" /><text id="sprotty_219" class="elklabel" transform="translate(-1, 10) translate(0, 0)" opacity="1">coordinator</text></g><g id="sprotty_221" transform="translate(-16, 170)" opacity="1"><rect class="elkport" x="0" y="0" width="16" height="9" /><text id="sprotty_222" class="elklabel" transform="translate(-1, 10) translate(0, 0)" opacity="1">env</text></g><g id="sprotty_224" transform="translate(-16, 230)" opacity="1"><rect class="elkport" x="0" y="0" width="16" height="9" /><text id="sprotty_225" class="elklabel" transform="translate(-1, 10) translate(0, 0)" opacity="1">image</text></g><g id="sprotty_227" transform="translate(-16, 290)" opacity="1"><rect class="elkport" x="0" y="0" width="16" height="9" /><text id="sprotty_228" class="elklabel" transform="translate(-1, 10) translate(0, 0)" opacity="1">name</text></g><g id="sprotty_230" transform="translate(-16, 350)" opacity="1"><rect class="elkport" x="0" y="0" width="16" height="9" /><text id="sprotty_231" class="elklabel" transform="translate(-1, 10) translate(0, 0)" opacity="1">namespace</text></g><g id="sprotty_233" transform="translate(-16, 410)" opacity="1"><rect class="elkport" x="0" y="0" width="16" height="9" /><text id="sprotty_234" class="elklabel" transform="translate(-1, 10) translate(0, 0)" opacity="1">ports</text></g><g id="sprotty_236" transform="translate(-16, 470)" opacity="1"><rect class="elkport" x="0" y="0" width="16" height="9" /><text id="sprotty_237" class="elklabel" transform="translate(-1, 10) translate(0, 0)" opacity="1">replicas</text></g><g id="sprotty_239" transform="translate(-16, 530)" opacity="1"><rect class="elkport" x="0" y="0" width="16" height="9" /><text id="sprotty_240" class="elklabel" transform="translate(-1, 10) translate(0, 0)" opacity="1">resources</text></g><g id="sprotty_242" transform="translate(-16, 590)" opacity="1"><rect class="elkport" x="0" y="0" width="16" height="9" /><text id="sprotty_243" class="elklabel" transform="translate(-1, 10) translate(0, 0)" opacity="1">secret</text></g><g id="sprotty_245" transform="translate(-16, 650)" opacity="1"><rect class="elkport" x="0" y="0" width="16" height="9" /><text id="sprotty_246" class="elklabel" transform="translate(-1, 10) translate(0, 0)" opacity="1">storage</text></g><g id="sprotty_248" transform="translate(-16, 710)" opacity="1"><rect class="elkport" x="0" y="0" width="16" height="9" /><text id="sprotty_249" class="elklabel" transform="translate(-1, 10) translate(0, 0)" opacity="1">storage_class</text></g><g id="sprotty_251" transform="translate(-16, 770)" opacity="1"><rect class="elkport" x="0" y="0" width="16" height="9" /><text id="sprotty_252" class="elklabel" transform="translate(-1, 10) translate(0, 0)" opacity="1">volume_claim_template_name</text></g><g id="sprotty_310" transform="translate(-16, 830)" opacity="1"><rect class="elkport" x="0" y="0" width="16" height="9" /><text id="sprotty_311" class="elklabel" transform="translate(-1, 10) translate(0, 0)" opacity="1">overrides</text></g><text id="sprotty_197" class="elklabel" transform="translate(0, -21) translate(0, 0)" opacity="1">worker</text></g><g id="sprotty_270" transform="translate(2385, 1002)" opacity="1"><rect class="elknode" x="0" y="0" rx="10" width="200" height="60" /><text id="sprotty_271" class="elklabel" transform="translate(5, 22) translate(0, 0)" opacity="1">module.worker (expand)</text></g><g id="sprotty_7" transform="translate(-16, 946.5)" opacity="1"><rect class="elkport" x="0" y="0" width="16" height="9" /><text id="sprotty_8" class="elklabel" transform="translate(-1, 10) translate(0, 0)" opacity="1">namespace</text></g><text id="sprotty_4" class="elklabel" transform="translate(0, -21) translate(0, 0)" opacity="1">examples/citus</text><g id="sprotty_9" class="sprotty-edge" opacity="1"><path class="elkedge" d="M 0,951 L 100,951" /><path class="edge arrow" d="M 0,0 L 8,-3 L 8,3 Z" transform="rotate(180 100 951) translate(100 951)" /></g><g id="sprotty_16" class="sprotty-edge" opacity="1"><path class="elkedge" d="M 1751,219.99209486166006 L 3069,338.50790513833994" /><path class="edge arrow" d="M 0,0 L 8,-3 L 8,3 Z" transform="rotate(-174.86172839181305 3069 338.50790513833994) translate(3069 338.50790513833994)" /></g><g id="sprotty_19" class="sprotty-edge" opacity="1"><path class="elkedge" d="M 2601,185.5 L 2702,185.5 L 2702,329.5 L 3069,329.5" /><path class="edge arrow" d="M 0,0 L 8,-3 L 8,3 Z" transform="rotate(180 3069 329.5) translate(3069 329.5)" /><g id="sprotty_19_j0" transform="translate(2702, 329.5)" opacity="1"><circle class="elkjunction" r="2" /></g></g><g id="sprotty_22" class="sprotty-edge" opacity="1"><path class="elkedge" d="M 2601,245.5 L 2752,245.5 L 2752,341.5 L 3069,341.5" /><path class="edge arrow" d="M 0,0 L 8,-3 L 8,3 Z" transform="rotate(180 3069 341.5) translate(3069 341.5)" /></g><g id="sprotty_25" class="sprotty-edge" opacity="1"><path class="elkedge" d="M 2601,305.5 L 2652,305.5 L 2652,353.5 L 3069,353.5" /><path class="edge arrow" d="M 0,0 L 8,-3 L 8,3 Z" transform="rotate(180 3069 353.5) translate(3069 353.5)" /></g><g id="sprotty_28" class="sprotty-edge" opacity="1"><path class="elkedge" d="M 2601,365.5 L 3069,365.5" /><path class="edge arrow" d="M 0,0 L 8,-3 L 8,3 Z" transform="rotate(180 3069 365.5) translate(3069 365.5)" /></g><g id="sprotty_33" class="sprotty-edge" opacity="1"><path class="elkedge" d="M 1451,185.94541484716157 L 1801,205.43231441048033" /><path class="edge arrow" d="M 0,0 L 8,-3 L 8,3 Z" transform="rotate(-176.81324131380964 1801 205.43231441048033) translate(1801 205.43231441048033)" /></g><g id="sprotty_36" class="sprotty-edge" opacity="1"><path class="elkedge" d="M 1451,244.89737991266375 L 1801,218.53275109170306" /><path class="edge arrow" d="M 0,0 L 8,-3 L 8,3 Z" transform="rotate(175.69218709699993 1801 218.53275109170306) translate(1801 218.53275109170306)" /></g><g id="sprotty_39" class="sprotty-edge" opacity="1"><path class="elkedge" d="M 1451,303.84934497816596 L 1801,231.63318777292577" /><path class="edge arrow" d="M 0,0 L 8,-3 L 8,3 Z" transform="rotate(168.34165965728076 1801 231.63318777292577) translate(1801 231.63318777292577)" /></g><g id="sprotty_42" class="sprotty-edge" opacity="1"><path class="elkedge" d="M 1451,362.8013100436681 L 1812.0679611650485,241" /><path class="edge arrow" d="M 0,0 L 8,-3 L 8,3 Z" transform="rotate(161.35888472155233 1812.0679611650485 241) translate(1812.0679611650485 241)" /></g><g id="sprotty_45" class="sprotty-edge" opacity="1"><path class="elkedge" d="M 1451,421.7532751091703 L 1836.944055944056,241" /><path class="edge arrow" d="M 0,0 L 8,-3 L 8,3 Z" transform="rotate(154.90439887692173 1836.944055944056 241) translate(1836.944055944056 241)" /></g><g id="sprotty_48" class="sprotty-edge" opacity="1"><path class="elkedge" d="M 1450.5081967213114,481 L 1850.9453551912568,241" /><path class="edge arrow" d="M 0,0 L 8,-3 L 8,3 Z" transform="rotate(149.06384702104046 1850.9453551912568 241) translate(1850.9453551912568 241)" /></g><g id="sprotty_51" class="sprotty-edge" opacity="1"><path class="elkedge" d="M 1449.1614349775784,541 L 1859.9237668161436,241" /><path class="edge arrow" d="M 0,0 L 8,-3 L 8,3 Z" transform="rotate(143.85750043039226 1859.9237668161436 241) translate(1859.9237668161436 241)" /></g><g id="sprotty_54" class="sprotty-edge" opacity="1"><path class="elkedge" d="M 1448.2243346007604,601 L 1866.171102661597,241" /><path class="edge arrow" d="M 0,0 L 8,-3 L 8,3 Z" transform="rotate(139.25991269207037 1866.171102661597 241) translate(1866.171102661597 241)" /></g><g id="sprotty_57" class="sprotty-edge" opacity="1"><path class="elkedge" d="M 1447.5346534653465,661 L 1870.7689768976898,241" /><path class="edge arrow" d="M 0,0 L 8,-3 L 8,3 Z" transform="rotate(135.21976355603596 1870.7689768976898 241) translate(1870.7689768976898 241)" /></g><g id="sprotty_60" class="sprotty-edge" opacity="1"><path class="elkedge" d="M 1447.0058309037902,721 L 1874.2944606413994,241" /><path class="edge arrow" d="M 0,0 L 8,-3 L 8,3 Z" transform="rotate(131.67498542941686 1874.2944606413994 241) translate(1874.2944606413994 241)" /></g><g id="sprotty_63" class="sprotty-edge" opacity="1"><path class="elkedge" d="M 1446.5874673629244,781 L 1877.083550913838,241" /><path class="edge arrow" d="M 0,0 L 8,-3 L 8,3 Z" transform="rotate(128.56237690234465 1877.083550913838 241) translate(1877.083550913838 241)" /></g><g id="sprotty_68" class="sprotty-edge" opacity="1"><path class="elkedge" d="M 2218,364.33652173913043 L 1751,238.04347826086956" /><path class="edge arrow" d="M 0,0 L 8,-3 L 8,3 Z" transform="rotate(15.132791155298072 1751 238.04347826086956) translate(1751 238.04347826086956)" /></g><g id="sprotty_71" class="sprotty-edge" opacity="1"><path class="elkedge" d="M 2218,423.50173913043477 L 1731.046403712297,241" /><path class="edge arrow" d="M 0,0 L 8,-3 L 8,3 Z" transform="rotate(20.545124457395485 1731.046403712297 241) translate(1731.046403712297 241)" /></g><g id="sprotty_74" class="sprotty-edge" opacity="1"><path class="elkedge" d="M 2218,482.66695652173917 L 1713.6134301270417,241" /><path class="edge arrow" d="M 0,0 L 8,-3 L 8,3 Z" transform="rotate(25.600499228264773 1713.6134301270417 241) translate(1713.6134301270417 241)" /></g><g id="sprotty_77" class="sprotty-edge" opacity="1"><path class="elkedge" d="M 2218.2876304023844,542 L 1702.4157973174367,241" /><path class="edge arrow" d="M 0,0 L 8,-3 L 8,3 Z" transform="rotate(30.262632306448644 1702.4157973174367 241) translate(1702.4157973174367 241)" /></g><g id="sprotty_82" class="sprotty-edge" opacity="1"><path class="elkedge" d="M 1067,493.4181946403385 L 2285,334.08180535966153" /><path class="edge arrow" d="M 0,0 L 8,-3 L 8,3 Z" transform="rotate(172.5470006385858 2285 334.08180535966153) translate(2285 334.08180535966153)" /></g><g id="sprotty_87" class="sprotty-edge" opacity="1"><path class="elkedge" d="M 1918,392 L 1868,392" /><path class="edge arrow" d="M 0,0 L 8,-3 L 8,3 Z" transform="rotate(0 1868 392) translate(1868 392)" /></g><g id="sprotty_92" class="sprotty-edge" opacity="1"><path class="elkedge" d="M 1918,502 L 1868,502" /><path class="edge arrow" d="M 0,0 L 8,-3 L 8,3 Z" transform="rotate(0 1868 502) translate(1868 502)" /></g><g id="sprotty_95" class="sprotty-edge" opacity="1"><path class="elkedge" d="M 1768,582 L 1768,532" /><path class="edge arrow" d="M 0,0 L 8,-3 L 8,3 Z" transform="rotate(90 1768 532) translate(1768 532)" /></g><g id="sprotty_98" class="sprotty-edge" opacity="1"><path class="elkedge" d="M 1568,368.8668122270742 L 1918,472.4148471615721" /><path class="edge arrow" d="M 0,0 L 8,-3 L 8,3 Z" transform="rotate(-163.51906811785517 1918 472.4148471615721) translate(1918 472.4148471615721)" /></g><g id="sprotty_101" class="sprotty-edge" opacity="1"><path class="elkedge" d="M 2018,582 L 2018,422" /><path class="edge arrow" d="M 0,0 L 8,-3 L 8,3 Z" transform="rotate(90 2018 422) translate(2018 422)" /></g><g id="sprotty_104" class="sprotty-edge" opacity="1"><path class="elkedge" d="M 1790.7272727272727,692 L 1995.2727272727273,422" /><path class="edge arrow" d="M 0,0 L 8,-3 L 8,3 Z" transform="rotate(127.14668669802178 1995.2727272727273 422) translate(1995.2727272727273 422)" /></g><g id="sprotty_107" class="sprotty-edge" opacity="1"><path class="elkedge" d="M 1949.8181818181818,692 L 1836.1818181818182,642" /><path class="edge arrow" d="M 0,0 L 8,-3 L 8,3 Z" transform="rotate(23.749494492866788 1836.1818181818182 642) translate(1836.1818181818182 642)" /></g><g id="sprotty_108" class="sprotty-edge" opacity="1"><path class="elkedge" d="M 1565.7974683544303,371 L 1979.350210970464,692" /><path class="edge arrow" d="M 0,0 L 8,-3 L 8,3 Z" transform="rotate(-142.18135436369792 1979.350210970464 692) translate(1979.350210970464 692)" /></g><g id="sprotty_109" class="sprotty-edge" opacity="1"><path class="elkedge" d="M 1568,370.7882096069869 L 1962.0325865580448,582" /><path class="edge arrow" d="M 0,0 L 8,-3 L 8,3 Z" transform="rotate(-151.80752547398862 1962.0325865580448 582) translate(1962.0325865580448 582)" /></g><g id="sprotty_112" class="sprotty-edge" opacity="1"><path class="elkedge" d="M 1568,429.74017467248905 L 1943.9299191374662,582" /><path class="edge arrow" d="M 0,0 L 8,-3 L 8,3 Z" transform="rotate(-157.95097782580274 1943.9299191374662 582) translate(1943.9299191374662 582)" /></g><g id="sprotty_113" class="sprotty-edge" opacity="1"><path class="elkedge" d="M 1918,722 L 1868,722" /><path class="edge arrow" d="M 0,0 L 8,-3 L 8,3 Z" transform="rotate(0 1868 722) translate(1868 722)" /></g><g id="sprotty_114" class="sprotty-edge" opacity="1"><path class="elkedge" d="M 2035.5527426160338,692 L 2223.367088607595,371" /><path class="edge arrow" d="M 0,0 L 8,-3 L 8,3 Z" transform="rotate(120.33153644704221 2223.367088607595 371) translate(2223.367088607595 371)" /></g><g id="sprotty_115" class="sprotty-edge" opacity="1"><path class="elkedge" d="M 1868,399.53275109170306 L 2218,425.8973799126637" /><path class="edge arrow" d="M 0,0 L 8,-3 L 8,3 Z" transform="rotate(-175.69218709699993 2218 425.8973799126637) translate(2218 425.8973799126637)" /></g><g id="sprotty_116" class="sprotty-edge" opacity="1"><path class="elkedge" d="M 1868,498.61572052401743 L 2218,486.77074235807856" /><path class="edge arrow" d="M 0,0 L 8,-3 L 8,3 Z" transform="rotate(178.0616904718802 2218 486.77074235807856) translate(2218 486.77074235807856)" /></g><g id="sprotty_117" class="sprotty-edge" opacity="1"><path class="elkedge" d="M 1856.9320388349515,422 L 2218,543.8013100436681" /><path class="edge arrow" d="M 0,0 L 8,-3 L 8,3 Z" transform="rotate(-161.35888472155233 2218 543.8013100436681) translate(2218 543.8013100436681)" /></g><g id="sprotty_118" class="sprotty-edge" opacity="1"><path class="elkedge" d="M 1835.2122186495176,241 L 1568,362.8519061583578" /><path class="edge arrow" d="M 0,0 L 8,-3 L 8,3 Z" transform="rotate(-24.513542200616612 1568 362.8519061583578) translate(1568 362.8519061583578)" /></g><g id="sprotty_119" class="sprotty-edge" opacity="1"><path class="elkedge" d="M 2285,326.5151515151515 L 1568,366.0587878787879" /><path class="edge arrow" d="M 0,0 L 8,-3 L 8,3 Z" transform="rotate(-3.1567510249371984 1568 366.0587878787879) translate(1568 366.0587878787879)" /></g><g id="sprotty_122" class="sprotty-edge" opacity="1"><path class="elkedge" d="M 1444.099164926931,841 L 1558.900835073069,371" /><path class="edge arrow" d="M 0,0 L 8,-3 L 8,3 Z" transform="rotate(103.72623489717722 1558.900835073069 371) translate(1558.900835073069 371)" /></g><g id="sprotty_123" class="sprotty-edge" opacity="1"><path class="elkedge" d="M 2285,333.78787878787875 L 1568,425.4769696969697" /><path class="edge arrow" d="M 0,0 L 8,-3 L 8,3 Z" transform="rotate(-7.287363213022957 1568 425.4769696969697) translate(1568 425.4769696969697)" /></g><g id="sprotty_124" class="sprotty-edge" opacity="1"><path class="elkedge" d="M 1435,365.5 L 1284,365.5 L 1284,60 L 2702,60 L 2702,185.5 L 2601,185.5" /><path class="edge arrow" d="M 0,0 L 8,-3 L 8,3 Z" transform="rotate(0 2601 185.5) translate(2601 185.5)" /><g id="sprotty_124_j0" transform="translate(2702, 185.5)" opacity="1"><circle class="elkjunction" r="2" /></g></g><g id="sprotty_125" class="sprotty-edge" opacity="1"><path class="elkedge" d="M 1435,485.5 L 1384,485.5 L 1384,50 L 2752,50 L 2752,245.5 L 2601,245.5" /><path class="edge arrow" d="M 0,0 L 8,-3 L 8,3 Z" transform="rotate(0 2601 245.5) translate(2601 245.5)" /><g id="sprotty_125_j0" transform="translate(2752, 245.5)" opacity="1"><circle class="elkjunction" r="2" /></g></g><g id="sprotty_126" class="sprotty-edge" opacity="1"><path class="elkedge" d="M 2234,482.55449591280654 L 2585,309.44550408719346" /><path class="edge arrow" d="M 0,0 L 8,-3 L 8,3 Z" transform="rotate(153.74803739794265 2585 309.44550408719346) translate(2585 309.44550408719346)" /></g><g id="sprotty_127" class="sprotty-edge" opacity="1"><path class="elkedge" d="M 2234,542.5544959128065 L 2585,369.44550408719346" /><path class="edge arrow" d="M 0,0 L 8,-3 L 8,3 Z" transform="rotate(153.74803739794268 2585 369.44550408719346) translate(2585 369.44550408719346)" /></g><g id="sprotty_128" class="sprotty-edge" opacity="1"><path class="elkedge" d="M 1067,481.11538461538464 L 1134,481.11538461538464 L 1134,185.5 L 1435,185.5" /><path class="edge arrow" d="M 0,0 L 8,-3 L 8,3 Z" transform="rotate(180 1435 185.5) translate(1435 185.5)" /></g><g id="sprotty_129" class="sprotty-edge" opacity="1"><path class="elkedge" d="M 1067,485.7307692307692 L 1184,485.7307692307692 L 1184,245.5 L 1435,245.5" /><path class="edge arrow" d="M 0,0 L 8,-3 L 8,3 Z" transform="rotate(180 1435 245.5) translate(1435 245.5)" /></g><g id="sprotty_130" class="sprotty-edge" opacity="1"><path class="elkedge" d="M 1067,490.3461538461538 L 1234,490.3461538461538 L 1234,305.5 L 1435,305.5" /><path class="edge arrow" d="M 0,0 L 8,-3 L 8,3 Z" transform="rotate(180 1435 305.5) translate(1435 305.5)" /></g><g id="sprotty_131" class="sprotty-edge" opacity="1"><path class="elkedge" d="M 1067,494.96153846153845 L 1284,494.96153846153845 L 1284,365.5 L 1435,365.5" /><path class="edge arrow" d="M 0,0 L 8,-3 L 8,3 Z" transform="rotate(180 1435 365.5) translate(1435 365.5)" /><g id="sprotty_131_j0" transform="translate(1284, 365.5)" opacity="1"><circle class="elkjunction" r="2" /></g></g><g id="sprotty_132" class="sprotty-edge" opacity="1"><path class="elkedge" d="M 300,936 L 350,936 L 350,425.5 L 1435,425.5" /><path class="edge arrow" d="M 0,0 L 8,-3 L 8,3 Z" transform="rotate(180 1435 425.5) translate(1435 425.5)" /></g><g id="sprotty_133" class="sprotty-edge" opacity="1"><path class="elkedge" d="M 1067,499.5769230769231 L 1334,499.5769230769231 L 1334,425.5 L 1435,425.5" /><path class="edge arrow" d="M 0,0 L 8,-3 L 8,3 Z" transform="rotate(180 1435 425.5) translate(1435 425.5)" /><g id="sprotty_133_j0" transform="translate(1334, 425.5)" opacity="1"><circle class="elkjunction" r="2" /></g></g><g id="sprotty_134" class="sprotty-edge" opacity="1"><path class="elkedge" d="M 1067,531.8846153846154 L 1134,531.8846153846154 L 1134,845.5 L 1435,845.5" /><path class="edge arrow" d="M 0,0 L 8,-3 L 8,3 Z" transform="rotate(180 1435 845.5) translate(1435 845.5)" /></g><g id="sprotty_135" class="sprotty-edge" opacity="1"><path class="elkedge" d="M 1067,504.1923076923077 L 1384,504.1923076923077 L 1384,485.5 L 1435,485.5" /><path class="edge arrow" d="M 0,0 L 8,-3 L 8,3 Z" transform="rotate(180 1435 485.5) translate(1435 485.5)" /><g id="sprotty_135_j0" transform="translate(1384, 485.5)" opacity="1"><circle class="elkjunction" r="2" /></g></g><g id="sprotty_136" class="sprotty-edge" opacity="1"><path class="elkedge" d="M 1067,508.80769230769226 L 1384,508.80769230769226 L 1384,545.5 L 1435,545.5" /><path class="edge arrow" d="M 0,0 L 8,-3 L 8,3 Z" transform="rotate(180 1435 545.5) translate(1435 545.5)" /></g><g id="sprotty_137" class="sprotty-edge" opacity="1"><path class="elkedge" d="M 1067,513.4230769230769 L 1334,513.4230769230769 L 1334,605.5 L 1435,605.5" /><path class="edge arrow" d="M 0,0 L 8,-3 L 8,3 Z" transform="rotate(180 1435 605.5) translate(1435 605.5)" /><g id="sprotty_137_j0" transform="translate(1334, 605.5)" opacity="1"><circle class="elkjunction" r="2" /></g></g><g id="sprotty_142" class="sprotty-edge" opacity="1"><path class="elkedge" d="M 1083,1167 L 1334,1167 L 1334,605.5 L 1435,605.5" /><path class="edge arrow" d="M 0,0 L 8,-3 L 8,3 Z" transform="rotate(180 1435 605.5) translate(1435 605.5)" /><g id="sprotty_142_j0" transform="translate(1334, 1167)" opacity="1"><circle class="elkjunction" r="2" /></g></g><g id="sprotty_143" class="sprotty-edge" opacity="1"><path class="elkedge" d="M 1067,518.0384615384615 L 1284,518.0384615384615 L 1284,665.5 L 1435,665.5" /><path class="edge arrow" d="M 0,0 L 8,-3 L 8,3 Z" transform="rotate(180 1435 665.5) translate(1435 665.5)" /></g><g id="sprotty_144" class="sprotty-edge" opacity="1"><path class="elkedge" d="M 1067,522.6538461538462 L 1234,522.6538461538462 L 1234,725.5 L 1435,725.5" /><path class="edge arrow" d="M 0,0 L 8,-3 L 8,3 Z" transform="rotate(180 1435 725.5) translate(1435 725.5)" /></g><g id="sprotty_145" class="sprotty-edge" opacity="1"><path class="elkedge" d="M 1067,527.2692307692307 L 1184,527.2692307692307 L 1184,785.5 L 1435,785.5" /><path class="edge arrow" d="M 0,0 L 8,-3 L 8,3 Z" transform="rotate(180 1435 785.5) translate(1435 785.5)" /></g><g id="sprotty_150" class="sprotty-edge" opacity="1"><path class="elkedge" d="M 1083,1227 L 1134,1227 L 1134,1272 L 1451,1272" /><path class="edge arrow" d="M 0,0 L 8,-3 L 8,3 Z" transform="rotate(180 1451 1272) translate(1451 1272)" /></g><g id="sprotty_151" class="sprotty-edge" opacity="1"><path class="elkedge" d="M 1083,1167 L 1334,1167 L 1334,1257 L 1451,1257" /><path class="edge arrow" d="M 0,0 L 8,-3 L 8,3 Z" transform="rotate(180 1451 1257) translate(1451 1257)" /></g><g id="sprotty_154" class="sprotty-edge" opacity="1"><path class="elkedge" d="M 1083,1287 L 1451,1287" /><path class="edge arrow" d="M 0,0 L 8,-3 L 8,3 Z" transform="rotate(180 1451 1287) translate(1451 1287)" /></g><g id="sprotty_159" class="sprotty-edge" opacity="1"><path class="elkedge" d="M 867,1272.5 L 867,1222.5" /><path class="edge arrow" d="M 0,0 L 8,-3 L 8,3 Z" transform="rotate(90 867 1222.5) translate(867 1222.5)" /></g><g id="sprotty_162" class="sprotty-edge" opacity="1"><path class="elkedge" d="M 667,1167.9807692307693 L 767,1180.2403846153845" /><path class="edge arrow" d="M 0,0 L 8,-3 L 8,3 Z" transform="rotate(-173.0106348436616 767 1180.2403846153845) translate(767 1180.2403846153845)" /></g><g id="sprotty_165" class="sprotty-edge" opacity="1"><path class="elkedge" d="M 667,1225.673076923077 L 767,1209.0865384615386" /><path class="edge arrow" d="M 0,0 L 8,-3 L 8,3 Z" transform="rotate(170.58235285466577 767 1209.0865384615386) translate(767 1209.0865384615386)" /></g><g id="sprotty_168" class="sprotty-edge" opacity="1"><path class="elkedge" d="M 667,1283.3653846153845 L 800.968253968254,1222.5" /><path class="edge arrow" d="M 0,0 L 8,-3 L 8,3 Z" transform="rotate(155.5664230096372 800.968253968254 1222.5) translate(800.968253968254 1222.5)" /></g><g id="sprotty_171" class="sprotty-edge" opacity="1"><path class="elkedge" d="M 667,1345.2884615384614 L 767,1323.8942307692307" /><path class="edge arrow" d="M 0,0 L 8,-3 L 8,3 Z" transform="rotate(167.92405618105852 767 1323.8942307692307) translate(767 1323.8942307692307)" /></g><g id="sprotty_174" class="sprotty-edge" opacity="1"><path class="elkedge" d="M 667,1402.9807692307693 L 807.2870813397129,1332.5" /><path class="edge arrow" d="M 0,0 L 8,-3 L 8,3 Z" transform="rotate(153.3248706115522 807.2870813397129 1332.5) translate(807.2870813397129 1332.5)" /></g><g id="sprotty_177" class="sprotty-edge" opacity="1"><path class="elkedge" d="M 664.6899696048632,1462.5 L 829.0668693009119,1332.5" /><path class="edge arrow" d="M 0,0 L 8,-3 L 8,3 Z" transform="rotate(141.6607478272731 829.0668693009119 1332.5) translate(829.0668693009119 1332.5)" /></g><g id="sprotty_180" class="sprotty-edge" opacity="1"><path class="elkedge" d="M 663.1692650334076,1522.5 L 839.2048997772829,1332.5" /><path class="edge arrow" d="M 0,0 L 8,-3 L 8,3 Z" transform="rotate(132.81520898842192 839.2048997772829 1332.5) translate(839.2048997772829 1332.5)" /></g><g id="sprotty_181" class="sprotty-edge" opacity="1"><path class="elkedge" d="M 949.6490066225165,1272.5 L 1067,1229.9038461538462" /><path class="edge arrow" d="M 0,0 L 8,-3 L 8,3 Z" transform="rotate(160.05007635827792 1067 1229.9038461538462) translate(1067 1229.9038461538462)" /></g><g id="sprotty_182" class="sprotty-edge" opacity="1"><path class="elkedge" d="M 967,1180.2403846153845 L 1067,1167.9807692307693" /><path class="edge arrow" d="M 0,0 L 8,-3 L 8,3 Z" transform="rotate(173.0106348436616 1067 1167.9807692307693) translate(1067 1167.9807692307693)" /></g><g id="sprotty_183" class="sprotty-edge" opacity="1"><path class="elkedge" d="M 933.031746031746,1222.5 L 1067,1283.3653846153845" /><path class="edge arrow" d="M 0,0 L 8,-3 L 8,3 Z" transform="rotate(-155.5664230096372 1067 1283.3653846153845) translate(1067 1283.3653846153845)" /></g><g id="sprotty_186" class="sprotty-edge" opacity="1"><path class="elkedge" d="M 300,1504.5 L 500,1504.5 L 500,1347 L 651,1347" /><path class="edge arrow" d="M 0,0 L 8,-3 L 8,3 Z" transform="rotate(180 651 1347) translate(651 1347)" /></g><g id="sprotty_187" class="sprotty-edge" opacity="1"><path class="elkedge" d="M 300,1512 L 550,1512 L 550,1407 L 651,1407" /><path class="edge arrow" d="M 0,0 L 8,-3 L 8,3 Z" transform="rotate(180 651 1407) translate(651 1407)" /></g><g id="sprotty_188" class="sprotty-edge" opacity="1"><path class="elkedge" d="M 300,1519.5 L 600,1519.5 L 600,1467 L 651,1467" /><path class="edge arrow" d="M 0,0 L 8,-3 L 8,3 Z" transform="rotate(180 651 1467) translate(651 1467)" /></g><g id="sprotty_189" class="sprotty-edge" opacity="1"><path class="elkedge" d="M 300,1527 L 651,1527" /><path class="edge arrow" d="M 0,0 L 8,-3 L 8,3 Z" transform="rotate(180 651 1527) translate(651 1527)" /></g><g id="sprotty_190" class="sprotty-edge" opacity="1"><path class="elkedge" d="M 300,1482 L 350,1482 L 350,1167 L 651,1167" /><path class="edge arrow" d="M 0,0 L 8,-3 L 8,3 Z" transform="rotate(180 651 1167) translate(651 1167)" /></g><g id="sprotty_191" class="sprotty-edge" opacity="1"><path class="elkedge" d="M 300,966 L 400,966 L 400,1227 L 651,1227" /><path class="edge arrow" d="M 0,0 L 8,-3 L 8,3 Z" transform="rotate(180 651 1227) translate(651 1227)" /><g id="sprotty_191_j0" transform="translate(400, 1227)" opacity="1"><circle class="elkjunction" r="2" /></g></g><g id="sprotty_192" class="sprotty-edge" opacity="1"><path class="elkedge" d="M 300,1489.5 L 400,1489.5 L 400,1227 L 651,1227" /><path class="edge arrow" d="M 0,0 L 8,-3 L 8,3 Z" transform="rotate(180 651 1227) translate(651 1227)" /></g><g id="sprotty_193" class="sprotty-edge" opacity="1"><path class="elkedge" d="M 300,1497 L 450,1497 L 450,1287 L 651,1287" /><path class="edge arrow" d="M 0,0 L 8,-3 L 8,3 Z" transform="rotate(180 651 1287) translate(651 1287)" /></g><g id="sprotty_200" class="sprotty-edge" opacity="1"><path class="elkedge" d="M 3369,687.4112709832134 L 4420,802.0887290167866" /><path class="edge arrow" d="M 0,0 L 8,-3 L 8,3 Z" transform="rotate(-173.77293653839428 4420 802.0887290167866) translate(4420 802.0887290167866)" /></g><g id="sprotty_203" class="sprotty-edge" opacity="1"><path class="elkedge" d="M 4219,651 L 4370,651 L 4370,795 L 4420,795" /><path class="edge arrow" d="M 0,0 L 8,-3 L 8,3 Z" transform="rotate(180 4420 795) translate(4420 795)" /></g><g id="sprotty_206" class="sprotty-edge" opacity="1"><path class="elkedge" d="M 4219,711 L 4320,711 L 4320,807 L 4420,807" /><path class="edge arrow" d="M 0,0 L 8,-3 L 8,3 Z" transform="rotate(180 4420 807) translate(4420 807)" /><g id="sprotty_206_j0" transform="translate(4320, 807)" opacity="1"><circle class="elkjunction" r="2" /></g></g><g id="sprotty_209" class="sprotty-edge" opacity="1"><path class="elkedge" d="M 4219,771 L 4270,771 L 4270,819 L 4420,819" /><path class="edge arrow" d="M 0,0 L 8,-3 L 8,3 Z" transform="rotate(180 4420 819) translate(4420 819)" /></g><g id="sprotty_212" class="sprotty-edge" opacity="1"><path class="elkedge" d="M 4219,831 L 4420,831" /><path class="edge arrow" d="M 0,0 L 8,-3 L 8,3 Z" transform="rotate(180 4420 831) translate(4420 831)" /></g><g id="sprotty_217" class="sprotty-edge" opacity="1"><path class="elkedge" d="M 3069,651.4454148471616 L 3419,670.9323144104803" /><path class="edge arrow" d="M 0,0 L 8,-3 L 8,3 Z" transform="rotate(-176.81324131380964 3419 670.9323144104803) translate(3419 670.9323144104803)" /></g><g id="sprotty_220" class="sprotty-edge" opacity="1"><path class="elkedge" d="M 3069,710.3973799126637 L 3419,684.0327510917031" /><path class="edge arrow" d="M 0,0 L 8,-3 L 8,3 Z" transform="rotate(175.69218709699993 3419 684.0327510917031) translate(3419 684.0327510917031)" /></g><g id="sprotty_223" class="sprotty-edge" opacity="1"><path class="elkedge" d="M 3069,769.349344978166 L 3419,697.1331877729258" /><path class="edge arrow" d="M 0,0 L 8,-3 L 8,3 Z" transform="rotate(168.34165965728076 3419 697.1331877729258) translate(3419 697.1331877729258)" /></g><g id="sprotty_226" class="sprotty-edge" opacity="1"><path class="elkedge" d="M 3069,828.3013100436681 L 3430.0679611650485,706.5" /><path class="edge arrow" d="M 0,0 L 8,-3 L 8,3 Z" transform="rotate(161.35888472155233 3430.0679611650485 706.5) translate(3430.0679611650485 706.5)" /></g><g id="sprotty_229" class="sprotty-edge" opacity="1"><path class="elkedge" d="M 3069,887.2532751091703 L 3454.944055944056,706.5" /><path class="edge arrow" d="M 0,0 L 8,-3 L 8,3 Z" transform="rotate(154.90439887692173 3454.944055944056 706.5) translate(3454.944055944056 706.5)" /></g><g id="sprotty_232" class="sprotty-edge" opacity="1"><path class="elkedge" d="M 3068.5081967213114,946.5 L 3468.945355191257,706.5" /><path class="edge arrow" d="M 0,0 L 8,-3 L 8,3 Z" transform="rotate(149.06384702104046 3468.945355191257 706.5) translate(3468.945355191257 706.5)" /></g><g id="sprotty_235" class="sprotty-edge" opacity="1"><path class="elkedge" d="M 3067.1614349775787,1006.5 L 3477.9237668161436,706.5" /><path class="edge arrow" d="M 0,0 L 8,-3 L 8,3 Z" transform="rotate(143.85750043039226 3477.9237668161436 706.5) translate(3477.9237668161436 706.5)" /></g><g id="sprotty_238" class="sprotty-edge" opacity="1"><path class="elkedge" d="M 3066.2243346007604,1066.5 L 3484.1711026615967,706.5" /><path class="edge arrow" d="M 0,0 L 8,-3 L 8,3 Z" transform="rotate(139.25991269207037 3484.1711026615967 706.5) translate(3484.1711026615967 706.5)" /></g><g id="sprotty_241" class="sprotty-edge" opacity="1"><path class="elkedge" d="M 3065.5346534653463,1126.5 L 3488.7689768976898,706.5" /><path class="edge arrow" d="M 0,0 L 8,-3 L 8,3 Z" transform="rotate(135.21976355603599 3488.7689768976898 706.5) translate(3488.7689768976898 706.5)" /></g><g id="sprotty_244" class="sprotty-edge" opacity="1"><path class="elkedge" d="M 3065.00583090379,1186.5 L 3492.2944606413994,706.5" /><path class="edge arrow" d="M 0,0 L 8,-3 L 8,3 Z" transform="rotate(131.6749854294169 3492.2944606413994 706.5) translate(3492.2944606413994 706.5)" /></g><g id="sprotty_247" class="sprotty-edge" opacity="1"><path class="elkedge" d="M 3064.587467362924,1246.5 L 3495.0835509138383,706.5" /><path class="edge arrow" d="M 0,0 L 8,-3 L 8,3 Z" transform="rotate(128.56237690234465 3495.0835509138383 706.5) translate(3495.0835509138383 706.5)" /></g><g id="sprotty_250" class="sprotty-edge" opacity="1"><path class="elkedge" d="M 3064.248226950355,1306.5 L 3497.3451536643024,706.5" /><path class="edge arrow" d="M 0,0 L 8,-3 L 8,3 Z" transform="rotate(125.82281375991603 3497.3451536643024 706.5) translate(3497.3451536643024 706.5)" /></g><g id="sprotty_253" class="sprotty-edge" opacity="1"><path class="elkedge" d="M 3063.9676025917925,1366.5 L 3499.2159827213823,706.5" /><path class="edge arrow" d="M 0,0 L 8,-3 L 8,3 Z" transform="rotate(123.40354326245476 3499.2159827213823 706.5) translate(3499.2159827213823 706.5)" /></g><g id="sprotty_258" class="sprotty-edge" opacity="1"><path class="elkedge" d="M 3836,829.8365217391304 L 3369,703.5434782608695" /><path class="edge arrow" d="M 0,0 L 8,-3 L 8,3 Z" transform="rotate(15.132791155298072 3369 703.5434782608695) translate(3369 703.5434782608695)" /></g><g id="sprotty_261" class="sprotty-edge" opacity="1"><path class="elkedge" d="M 3836,889.0017391304348 L 3349.046403712297,706.5" /><path class="edge arrow" d="M 0,0 L 8,-3 L 8,3 Z" transform="rotate(20.545124457395485 3349.046403712297 706.5) translate(3349.046403712297 706.5)" /></g><g id="sprotty_264" class="sprotty-edge" opacity="1"><path class="elkedge" d="M 3836,948.1669565217392 L 3331.6134301270417,706.5" /><path class="edge arrow" d="M 0,0 L 8,-3 L 8,3 Z" transform="rotate(25.600499228264773 3331.6134301270417 706.5) translate(3331.6134301270417 706.5)" /></g><g id="sprotty_267" class="sprotty-edge" opacity="1"><path class="elkedge" d="M 3836.2876304023844,1007.5 L 3320.4157973174365,706.5" /><path class="edge arrow" d="M 0,0 L 8,-3 L 8,3 Z" transform="rotate(30.26263230644864 3320.4157973174365 706.5) translate(3320.4157973174365 706.5)" /></g><g id="sprotty_272" class="sprotty-edge" opacity="1"><path class="elkedge" d="M 2585,1015.8274044795784 L 3903,802.6725955204216" /><path class="edge arrow" d="M 0,0 L 8,-3 L 8,3 Z" transform="rotate(170.813327568615 3903 802.6725955204216) translate(3903 802.6725955204216)" /></g><g id="sprotty_277" class="sprotty-edge" opacity="1"><path class="elkedge" d="M 3536,857.5 L 3486,857.5" /><path class="edge arrow" d="M 0,0 L 8,-3 L 8,3 Z" transform="rotate(0 3486 857.5) translate(3486 857.5)" /></g><g id="sprotty_282" class="sprotty-edge" opacity="1"><path class="elkedge" d="M 3536,967.5 L 3486,967.5" /><path class="edge arrow" d="M 0,0 L 8,-3 L 8,3 Z" transform="rotate(0 3486 967.5) translate(3486 967.5)" /></g><g id="sprotty_285" class="sprotty-edge" opacity="1"><path class="elkedge" d="M 3386,1047.5 L 3386,997.5" /><path class="edge arrow" d="M 0,0 L 8,-3 L 8,3 Z" transform="rotate(90 3386 997.5) translate(3386 997.5)" /></g><g id="sprotty_288" class="sprotty-edge" opacity="1"><path class="elkedge" d="M 3186,834.3668122270742 L 3536,937.9148471615721" /><path class="edge arrow" d="M 0,0 L 8,-3 L 8,3 Z" transform="rotate(-163.51906811785517 3536 937.9148471615721) translate(3536 937.9148471615721)" /></g><g id="sprotty_291" class="sprotty-edge" opacity="1"><path class="elkedge" d="M 3636,1047.5 L 3636,887.5" /><path class="edge arrow" d="M 0,0 L 8,-3 L 8,3 Z" transform="rotate(90 3636 887.5) translate(3636 887.5)" /></g><g id="sprotty_294" class="sprotty-edge" opacity="1"><path class="elkedge" d="M 3408.727272727273,1157.5 L 3613.272727272727,887.5" /><path class="edge arrow" d="M 0,0 L 8,-3 L 8,3 Z" transform="rotate(127.14668669802171 3613.272727272727 887.5) translate(3613.272727272727 887.5)" /></g><g id="sprotty_297" class="sprotty-edge" opacity="1"><path class="elkedge" d="M 3567.818181818182,1157.5 L 3454.181818181818,1107.5" /><path class="edge arrow" d="M 0,0 L 8,-3 L 8,3 Z" transform="rotate(23.749494492866702 3454.181818181818 1107.5) translate(3454.181818181818 1107.5)" /></g><g id="sprotty_298" class="sprotty-edge" opacity="1"><path class="elkedge" d="M 3183.7974683544303,836.5 L 3597.350210970464,1157.5" /><path class="edge arrow" d="M 0,0 L 8,-3 L 8,3 Z" transform="rotate(-142.18135436369792 3597.350210970464 1157.5) translate(3597.350210970464 1157.5)" /></g><g id="sprotty_299" class="sprotty-edge" opacity="1"><path class="elkedge" d="M 3186,836.2882096069869 L 3580.032586558045,1047.5" /><path class="edge arrow" d="M 0,0 L 8,-3 L 8,3 Z" transform="rotate(-151.80752547398862 3580.032586558045 1047.5) translate(3580.032586558045 1047.5)" /></g><g id="sprotty_302" class="sprotty-edge" opacity="1"><path class="elkedge" d="M 3186,895.240174672489 L 3561.929919137466,1047.5" /><path class="edge arrow" d="M 0,0 L 8,-3 L 8,3 Z" transform="rotate(-157.95097782580274 3561.929919137466 1047.5) translate(3561.929919137466 1047.5)" /></g><g id="sprotty_303" class="sprotty-edge" opacity="1"><path class="elkedge" d="M 3536,1187.5 L 3486,1187.5" /><path class="edge arrow" d="M 0,0 L 8,-3 L 8,3 Z" transform="rotate(0 3486 1187.5) translate(3486 1187.5)" /></g><g id="sprotty_304" class="sprotty-edge" opacity="1"><path class="elkedge" d="M 3653.552742616034,1157.5 L 3841.367088607595,836.5" /><path class="edge arrow" d="M 0,0 L 8,-3 L 8,3 Z" transform="rotate(120.33153644704221 3841.367088607595 836.5) translate(3841.367088607595 836.5)" /></g><g id="sprotty_305" class="sprotty-edge" opacity="1"><path class="elkedge" d="M 3486,865.0327510917031 L 3836,891.3973799126637" /><path class="edge arrow" d="M 0,0 L 8,-3 L 8,3 Z" transform="rotate(-175.69218709699993 3836 891.3973799126637) translate(3836 891.3973799126637)" /></g><g id="sprotty_306" class="sprotty-edge" opacity="1"><path class="elkedge" d="M 3486,964.1157205240174 L 3836,952.2707423580786" /><path class="edge arrow" d="M 0,0 L 8,-3 L 8,3 Z" transform="rotate(178.0616904718802 3836 952.2707423580786) translate(3836 952.2707423580786)" /></g><g id="sprotty_307" class="sprotty-edge" opacity="1"><path class="elkedge" d="M 3474.9320388349515,887.5 L 3836,1009.3013100436681" /><path class="edge arrow" d="M 0,0 L 8,-3 L 8,3 Z" transform="rotate(-161.35888472155233 3836 1009.3013100436681) translate(3836 1009.3013100436681)" /></g><g id="sprotty_308" class="sprotty-edge" opacity="1"><path class="elkedge" d="M 3453.2122186495176,706.5 L 3186,828.3519061583578" /><path class="edge arrow" d="M 0,0 L 8,-3 L 8,3 Z" transform="rotate(-24.513542200616612 3186 828.3519061583578) translate(3186 828.3519061583578)" /></g><g id="sprotty_309" class="sprotty-edge" opacity="1"><path class="elkedge" d="M 3903,792.0151515151515 L 3186,831.5587878787878" /><path class="edge arrow" d="M 0,0 L 8,-3 L 8,3 Z" transform="rotate(-3.156751024937194 3186 831.5587878787878) translate(3186 831.5587878787878)" /></g><g id="sprotty_312" class="sprotty-edge" opacity="1"><path class="elkedge" d="M 3061.8789649415694,1426.5 L 3177.1210350584306,836.5" /><path class="edge arrow" d="M 0,0 L 8,-3 L 8,3 Z" transform="rotate(101.05217685001946 3177.1210350584306 836.5) translate(3177.1210350584306 836.5)" /></g><g id="sprotty_313" class="sprotty-edge" opacity="1"><path class="elkedge" d="M 3903,799.2878787878788 L 3186,890.9769696969697" /><path class="edge arrow" d="M 0,0 L 8,-3 L 8,3 Z" transform="rotate(-7.287363213022957 3186 890.9769696969697) translate(3186 890.9769696969697)" /></g><g id="sprotty_314" class="sprotty-edge" opacity="1"><path class="elkedge" d="M 3053,891 L 2852,891 L 2852,525.5 L 4370,525.5 L 4370,651 L 4219,651" /><path class="edge arrow" d="M 0,0 L 8,-3 L 8,3 Z" transform="rotate(0 4219 651) translate(4219 651)" /><g id="sprotty_314_j0" transform="translate(4370, 651)" opacity="1"><circle class="elkjunction" r="2" /></g></g><g id="sprotty_315" class="sprotty-edge" opacity="1"><path class="elkedge" d="M 3053,1011 L 3002,1011 L 3002,1536.5 L 4320,1536.5 L 4320,711 L 4219,711" /><path class="edge arrow" d="M 0,0 L 8,-3 L 8,3 Z" transform="rotate(0 4219 711) translate(4219 711)" /></g><g id="sprotty_316" class="sprotty-edge" opacity="1"><path class="elkedge" d="M 3852,948.0544959128065 L 4203,774.9455040871935" /><path class="edge arrow" d="M 0,0 L 8,-3 L 8,3 Z" transform="rotate(153.74803739794268 4203 774.9455040871935) translate(4203 774.9455040871935)" /></g><g id="sprotty_317" class="sprotty-edge" opacity="1"><path class="elkedge" d="M 3852,1008.0544959128065 L 4203,834.9455040871935" /><path class="edge arrow" d="M 0,0 L 8,-3 L 8,3 Z" transform="rotate(153.74803739794268 4203 834.9455040871935) translate(4203 834.9455040871935)" /></g><g id="sprotty_318" class="sprotty-edge" opacity="1"><path class="elkedge" d="M 2585,1006 L 2652,1006 L 2652,651 L 3053,651" /><path class="edge arrow" d="M 0,0 L 8,-3 L 8,3 Z" transform="rotate(180 3053 651) translate(3053 651)" /></g><g id="sprotty_319" class="sprotty-edge" opacity="1"><path class="elkedge" d="M 2601,185.5 L 2702,185.5 L 2702,711 L 3053,711" /><path class="edge arrow" d="M 0,0 L 8,-3 L 8,3 Z" transform="rotate(180 3053 711) translate(3053 711)" /><g id="sprotty_319_j0" transform="translate(2702, 711)" opacity="1"><circle class="elkjunction" r="2" /></g></g><g id="sprotty_320" class="sprotty-edge" opacity="1"><path class="elkedge" d="M 2585,1010 L 2702,1010 L 2702,711 L 3053,711" /><path class="edge arrow" d="M 0,0 L 8,-3 L 8,3 Z" transform="rotate(180 3053 711) translate(3053 711)" /></g><g id="sprotty_321" class="sprotty-edge" opacity="1"><path class="elkedge" d="M 2585,1014 L 2752,1014 L 2752,771 L 3053,771" /><path class="edge arrow" d="M 0,0 L 8,-3 L 8,3 Z" transform="rotate(180 3053 771) translate(3053 771)" /></g><g id="sprotty_322" class="sprotty-edge" opacity="1"><path class="elkedge" d="M 2585,1018 L 2802,1018 L 2802,831 L 3053,831" /><path class="edge arrow" d="M 0,0 L 8,-3 L 8,3 Z" transform="rotate(180 3053 831) translate(3053 831)" /></g><g id="sprotty_323" class="sprotty-edge" opacity="1"><path class="elkedge" d="M 2585,1022 L 2852,1022 L 2852,891 L 3053,891" /><path class="edge arrow" d="M 0,0 L 8,-3 L 8,3 Z" transform="rotate(180 3053 891) translate(3053 891)" /><g id="sprotty_323_j0" transform="translate(2852, 891)" opacity="1"><circle class="elkjunction" r="2" /></g></g><g id="sprotty_324" class="sprotty-edge" opacity="1"><path class="elkedge" d="M 300,951 L 3053,951" /><path class="edge arrow" d="M 0,0 L 8,-3 L 8,3 Z" transform="rotate(180 3053 951) translate(3053 951)" /></g><g id="sprotty_325" class="sprotty-edge" opacity="1"><path class="elkedge" d="M 2585,1026 L 2902,1026 L 2902,951 L 3053,951" /><path class="edge arrow" d="M 0,0 L 8,-3 L 8,3 Z" transform="rotate(180 3053 951) translate(3053 951)" /><g id="sprotty_325_j0" transform="translate(2902, 951)" opacity="1"><circle class="elkjunction" r="2" /></g></g><g id="sprotty_326" class="sprotty-edge" opacity="1"><path class="elkedge" d="M 2585,1058 L 2652,1058 L 2652,1431 L 3053,1431" /><path class="edge arrow" d="M 0,0 L 8,-3 L 8,3 Z" transform="rotate(180 3053 1431) translate(3053 1431)" /></g><g id="sprotty_327" class="sprotty-edge" opacity="1"><path class="elkedge" d="M 2585,1030 L 3002,1030 L 3002,1011 L 3053,1011" /><path class="edge arrow" d="M 0,0 L 8,-3 L 8,3 Z" transform="rotate(180 3053 1011) translate(3053 1011)" /><g id="sprotty_327_j0" transform="translate(3002, 1030)" opacity="1"><circle class="elkjunction" r="2" /></g></g><g id="sprotty_328" class="sprotty-edge" opacity="1"><path class="elkedge" d="M 2585,1034 L 2952,1034 L 2952,1071 L 3053,1071" /><path class="edge arrow" d="M 0,0 L 8,-3 L 8,3 Z" transform="rotate(180 3053 1071) translate(3053 1071)" /></g><g id="sprotty_329" class="sprotty-edge" opacity="1"><path class="elkedge" d="M 2585,1038 L 2902,1038 L 2902,1131 L 3053,1131" /><path class="edge arrow" d="M 0,0 L 8,-3 L 8,3 Z" transform="rotate(180 3053 1131) translate(3053 1131)" /></g><g id="sprotty_330" class="sprotty-edge" opacity="1"><path class="elkedge" d="M 1083,1167 L 1334,1167 L 1334,1191 L 3053,1191" /><path class="edge arrow" d="M 0,0 L 8,-3 L 8,3 Z" transform="rotate(180 3053 1191) translate(3053 1191)" /><g id="sprotty_330_j0" transform="translate(1334, 1191)" opacity="1"><circle class="elkjunction" r="2" /></g></g><g id="sprotty_331" class="sprotty-edge" opacity="1"><path class="elkedge" d="M 2585,1042 L 2852,1042 L 2852,1191 L 3053,1191" /><path class="edge arrow" d="M 0,0 L 8,-3 L 8,3 Z" transform="rotate(180 3053 1191) translate(3053 1191)" /><g id="sprotty_331_j0" transform="translate(2852, 1191)" opacity="1"><circle class="elkjunction" r="2" /></g></g><g id="sprotty_332" class="sprotty-edge" opacity="1"><path class="elkedge" d="M 2585,1046 L 2802,1046 L 2802,1251 L 3053,1251" /><path class="edge arrow" d="M 0,0 L 8,-3 L 8,3 Z" transform="rotate(180 3053 1251) translate(3053 1251)" /></g><g id="sprotty_333" class="sprotty-edge" opacity="1"><path class="elkedge" d="M 2585,1050 L 2752,1050 L 2752,1311 L 3053,1311" /><path class="edge arrow" d="M 0,0 L 8,-3 L 8,3 Z" transform="rotate(180 3053 1311) translate(3053 1311)" /></g><g id="sprotty_334" class="sprotty-edge" opacity="1"><path class="elkedge" d="M 2585,1054 L 2702,1054 L 2702,1371 L 3053,1371" /><path class="edge arrow" d="M 0,0 L 8,-3 L 8,3 Z" transform="rotate(180 3053 1371) translate(3053 1371)" /></g></g></g></svg>
