<svg id="sprotty_1" class="sprotty-graph sprotty" tabindex="1002" xmlns="http://www.w3.org/2000/svg" viewBox="0 0 2018 1431"><style>
.elknode {
    stroke: #448;
    stroke-width: 2;
    fill: #ddf;
    fill-opacity: 0.5;
}

.elkport {
    stroke: #448;
    stroke-width: 1;
    fill: #66c;
}

.elkedge {
    fill: none;
    stroke: #88f;
    stroke-width: 8;
    stroke-opacity: 0.3;
    pointer-events: stroke;
    stroke-linejoin: round;
}

.elkedge:hover {
    stroke: #448;
    stroke-width: 8;
    stroke-opacity: 1;
    stroke-dasharray: 16px;
    stroke-dashoffset: 32px;
    animation: stroke 0.5s linear infinite;
}

@keyframes stroke {
    to {
        stroke-dashoffset: 0;
    }
}

.elkedge.arrow {
    fill: #336;
}

.elklabel {
    stroke-width: 0;
    stroke: #000;
    fill: #000;
    font-family: sans-serif;
    font-size: 10pt;
    dominant-baseline: hanging;
}

.elklabel:hover {
    font-size: 24pt;
}

.elkjunction {
    stroke: none;
    fill: #224;
}

.selected &gt; rect {
    stroke-width: 3;
}

.mouseover {
    stroke: #88f;
}
/*
 * Copyright (C) 2017 TypeFox and others.
 *
 * Licensed under the Apache License, Version 2.0 (the &quot;License&quot;); you may not use this file except in compliance with the License.
 * You may obtain a copy of the License at http://www.apache.org/licenses/LICENSE-2.0
 */

.sprotty {
    padding: 0px;
    font-family: &quot;Helvetica Neue&quot;, Helvetica, Arial, sans-serif;
}

.sprotty-hidden {
    display: block;
    position: absolute;
    width: 0px;
    height: 0px;
}

.sprotty-popup {
    font-family: &quot;Helvetica Neue&quot;, Helvetica, Arial, sans-serif;
    position: absolute;
    background: white;
    border-radius: 5px;
    border: 1px solid;
    max-width: 400px;
    min-width: 100px;
}

.sprotty-popup &gt; div {
    margin: 10px;
}

.sprotty-popup-closed {
    display: none;
}
</style><g transform="scale(1) translate(0,0)"><g id="sprotty_3" transform="translate(117, 71)" opacity="1"><rect class="elknode" x="0" y="0" rx="10" width="1784" height="1310" /><g id="sprotty_5" transform="translate(600, 566.078947368421)" opacity="1"><rect class="elknode" x="0" y="0" rx="10" width="200" height="60" /><text id="sprotty_6" class="elklabel" transform="translate(5, 22) translate(0, 0)" opacity="1">local.parameters</text></g><g id="sprotty_61" transform="translate(1017, 541.578947368421)" opacity="1"><rect class="elknode" x="0" y="0" rx="10" width="650" height="490" /><g id="sprotty_63" transform="translate(100, 50)" opacity="1"><rect class="elknode" x="0" y="0" rx="10" width="200" height="60" /><text id="sprotty_64" class="elklabel" transform="translate(5, 22) translate(0, 0)" opacity="1">k8s_apps_v1_deployment.this</text></g><g id="sprotty_65" transform="translate(350, 50)" opacity="1"><rect class="elknode" x="0" y="0" rx="10" width="200" height="60" /><text id="sprotty_66" class="elklabel" transform="translate(5, 22) translate(0, 0)" opacity="1">local.k8s_apps_v1_deployment_parameters</text></g><g id="sprotty_68" transform="translate(100, 160)" opacity="1"><rect class="elknode" x="0" y="0" rx="10" width="200" height="60" /><text id="sprotty_69" class="elklabel" transform="translate(5, 22) translate(0, 0)" opacity="1">k8s_core_v1_service.this</text></g><g id="sprotty_70" transform="translate(350, 160)" opacity="1"><rect class="elknode" x="0" y="0" rx="10" width="200" height="60" /><text id="sprotty_71" class="elklabel" transform="translate(5, 22) translate(0, 0)" opacity="1">local.enable_service</text></g><g id="sprotty_73" transform="translate(100, 270)" opacity="1"><rect class="elknode" x="0" y="0" rx="10" width="200" height="60" /><text id="sprotty_74" class="elklabel" transform="translate(5, 22) translate(0, 0)" opacity="1">local.k8s_core_v1_service_parameters</text></g><g id="sprotty_79" transform="translate(350, 270)" opacity="1"><rect class="elknode" x="0" y="0" rx="10" width="200" height="60" /><text id="sprotty_80" class="elklabel" transform="translate(5, 22) translate(0, 0)" opacity="1">local.podAnnotations</text></g><g id="sprotty_82" transform="translate(100, 380)" opacity="1"><rect class="elknode" x="0" y="0" rx="10" width="200" height="60" /><text id="sprotty_83" class="elklabel" transform="translate(5, 22) translate(0, 0)" opacity="1">local.selector</text></g><g id="sprotty_85" transform="translate(350, 380)" opacity="1"><rect class="elknode" x="0" y="0" rx="10" width="200" height="60" /><text id="sprotty_86" class="elklabel" transform="translate(5, 22) translate(0, 0)" opacity="1">local.labels</text></g><g id="sprotty_76" transform="translate(-16, 50)" opacity="1"><rect class="elkport" x="0" y="0" width="16" height="9" /><text id="sprotty_77" class="elklabel" transform="translate(-1, -1) translate(0, 0)" opacity="1">parameters</text></g><g id="sprotty_90" transform="translate(-16, 110)" opacity="1"><rect class="elkport" x="0" y="0" width="16" height="9" /><text id="sprotty_91" class="elklabel" transform="translate(-1, 10) translate(0, 0)" opacity="1">podAnnotations</text></g><g id="sprotty_94" transform="translate(650, 50)" opacity="1"><rect class="elkport" x="0" y="0" width="16" height="9" /><text id="sprotty_95" class="elklabel" transform="translate(17, 10) translate(0, 0)" opacity="1">deployment</text></g><g id="sprotty_97" transform="translate(650, 110)" opacity="1"><rect class="elkport" x="0" y="0" width="16" height="9" /><text id="sprotty_98" class="elklabel" transform="translate(17, 10) translate(0, 0)" opacity="1">labels</text></g><g id="sprotty_100" transform="translate(650, 170)" opacity="1"><rect class="elkport" x="0" y="0" width="16" height="9" /><text id="sprotty_101" class="elklabel" transform="translate(17, 10) translate(0, 0)" opacity="1">name</text></g><g id="sprotty_103" transform="translate(650, 230)" opacity="1"><rect class="elkport" x="0" y="0" width="16" height="9" /><text id="sprotty_104" class="elklabel" transform="translate(17, 10) translate(0, 0)" opacity="1">service</text></g><text id="sprotty_62" class="elklabel" transform="translate(0, -21) translate(0, 0)" opacity="1">deployment-service</text></g><g id="sprotty_107" transform="translate(600, 726.078947368421)" opacity="1"><rect class="elknode" x="0" y="0" rx="10" width="200" height="60" /><text id="sprotty_108" class="elklabel" transform="translate(5, 22) translate(0, 0)" opacity="1">module.deployment-service</text></g><g id="sprotty_7" transform="translate(-16, 170)" opacity="1"><rect class="elkport" x="0" y="0" width="16" height="9" /><text id="sprotty_8" class="elklabel" transform="translate(-1, 10) translate(0, 0)" opacity="1">DATABASE_HOST</text></g><g id="sprotty_10" transform="translate(-16, 230)" opacity="1"><rect class="elkport" x="0" y="0" width="16" height="9" /><text id="sprotty_11" class="elklabel" transform="translate(-1, 10) translate(0, 0)" opacity="1">DATABASE_NAME</text></g><g id="sprotty_13" transform="translate(-16, 290)" opacity="1"><rect class="elkport" x="0" y="0" width="16" height="9" /><text id="sprotty_14" class="elklabel" transform="translate(-1, 10) translate(0, 0)" opacity="1">DATABASE_PASSWORD</text></g><g id="sprotty_16" transform="translate(-16, 350)" opacity="1"><rect class="elkport" x="0" y="0" width="16" height="9" /><text id="sprotty_17" class="elklabel" transform="translate(-1, 10) translate(0, 0)" opacity="1">DATABASE_PORT</text></g><g id="sprotty_19" transform="translate(-16, 410)" opacity="1"><rect class="elkport" x="0" y="0" width="16" height="9" /><text id="sprotty_20" class="elklabel" transform="translate(-1, 10) translate(0, 0)" opacity="1">DATABASE_USER</text></g><g id="sprotty_22" transform="translate(-16, 470)" opacity="1"><rect class="elkport" x="0" y="0" width="16" height="9" /><text id="sprotty_23" class="elklabel" transform="translate(-1, 10) translate(0, 0)" opacity="1">PUBLIC_BACKEND_URL</text></g><g id="sprotty_25" transform="translate(-16, 530)" opacity="1"><rect class="elkport" x="0" y="0" width="16" height="9" /><text id="sprotty_26" class="elklabel" transform="translate(-1, 10) translate(0, 0)" opacity="1">PUBLIC_WEB_FRONTEND_URL</text></g><g id="sprotty_28" transform="translate(-16, 590)" opacity="1"><rect class="elkport" x="0" y="0" width="16" height="9" /><text id="sprotty_29" class="elklabel" transform="translate(-1, 10) translate(0, 0)" opacity="1">REDIS_HOST</text></g><g id="sprotty_31" transform="translate(-16, 650)" opacity="1"><rect class="elkport" x="0" y="0" width="16" height="9" /><text id="sprotty_32" class="elklabel" transform="translate(-1, 10) translate(0, 0)" opacity="1">REDIS_PASSWORD</text></g><g id="sprotty_34" transform="translate(-16, 710)" opacity="1"><rect class="elkport" x="0" y="0" width="16" height="9" /><text id="sprotty_35" class="elklabel" transform="translate(-1, 10) translate(0, 0)" opacity="1">REDIS_PORT</text></g><g id="sprotty_37" transform="translate(-16, 770)" opacity="1"><rect class="elkport" x="0" y="0" width="16" height="9" /><text id="sprotty_38" class="elklabel" transform="translate(-1, 10) translate(0, 0)" opacity="1">REDIS_PROTOCOL</text></g><g id="sprotty_40" transform="translate(-16, 830)" opacity="1"><rect class="elkport" x="0" y="0" width="16" height="9" /><text id="sprotty_41" class="elklabel" transform="translate(-1, 10) translate(0, 0)" opacity="1">REDIS_USER</text></g><g id="sprotty_43" transform="translate(-16, 890)" opacity="1"><rect class="elkport" x="0" y="0" width="16" height="9" /><text id="sprotty_44" class="elklabel" transform="translate(-1, 10) translate(0, 0)" opacity="1">annotations</text></g><g id="sprotty_46" transform="translate(-16, 950)" opacity="1"><rect class="elkport" x="0" y="0" width="16" height="9" /><text id="sprotty_47" class="elklabel" transform="translate(-1, 10) translate(0, 0)" opacity="1">env</text></g><g id="sprotty_49" transform="translate(-16, 1010)" opacity="1"><rect class="elkport" x="0" y="0" width="16" height="9" /><text id="sprotty_50" class="elklabel" transform="translate(-1, 10) translate(0, 0)" opacity="1">image</text></g><g id="sprotty_52" transform="translate(-16, 1070)" opacity="1"><rect class="elkport" x="0" y="0" width="16" height="9" /><text id="sprotty_53" class="elklabel" transform="translate(-1, 10) translate(0, 0)" opacity="1">name</text></g><g id="sprotty_55" transform="translate(-16, 1130)" opacity="1"><rect class="elkport" x="0" y="0" width="16" height="9" /><text id="sprotty_56" class="elklabel" transform="translate(-1, 10) translate(0, 0)" opacity="1">namespace</text></g><g id="sprotty_58" transform="translate(-16, 110)" opacity="1"><rect class="elkport" x="0" y="0" width="16" height="9" /><text id="sprotty_59" class="elklabel" transform="translate(-1, 10) translate(0, 0)" opacity="1">ports</text></g><g id="sprotty_110" transform="translate(-16, 50)" opacity="1"><rect class="elkport" x="0" y="0" width="16" height="9" /><text id="sprotty_111" class="elklabel" transform="translate(-1, 10) translate(0, 0)" opacity="1">overrides</text></g><g id="sprotty_114" transform="translate(1784, 591.578947368421)" opacity="1"><rect class="elkport" x="0" y="0" width="16" height="9" /><text id="sprotty_115" class="elklabel" transform="translate(17, 10) translate(0, 0)" opacity="1">deployment</text></g><g id="sprotty_117" transform="translate(1784, 1190)" opacity="1"><rect class="elkport" x="0" y="0" width="16" height="9" /><text id="sprotty_118" class="elklabel" transform="translate(17, 10) translate(0, 0)" opacity="1">name</text></g><g id="sprotty_120" transform="translate(1784, 1250)" opacity="1"><rect class="elkport" x="0" y="0" width="16" height="9" /><text id="sprotty_121" class="elklabel" transform="translate(17, 10) translate(0, 0)" opacity="1">ports</text></g><g id="sprotty_123" transform="translate(1784, 771.578947368421)" opacity="1"><rect class="elkport" x="0" y="0" width="16" height="9" /><text id="sprotty_124" class="elklabel" transform="translate(17, 10) translate(0, 0)" opacity="1">service</text></g><text id="sprotty_4" class="elklabel" transform="translate(0, -21) translate(0, 0)" opacity="1">modules/baserow/backend</text><g id="sprotty_9" class="sprotty-edge" opacity="1"><path class="elkedge" d="M 0,174.5 L 450,174.5 L 450,572.3947368421052 L 600,572.3947368421052" /><path class="edge arrow" d="M 0,0 L 8,-3 L 8,3 Z" transform="rotate(180 600 572.3947368421052) translate(600 572.3947368421052)" /></g><g id="sprotty_12" class="sprotty-edge" opacity="1"><path class="elkedge" d="M 0,234.5 L 400,234.5 L 400,575.5526315789474 L 600,575.5526315789474" /><path class="edge arrow" d="M 0,0 L 8,-3 L 8,3 Z" transform="rotate(180 600 575.5526315789474) translate(600 575.5526315789474)" /></g><g id="sprotty_15" class="sprotty-edge" opacity="1"><path class="elkedge" d="M 0,294.5 L 350,294.5 L 350,578.7105263157895 L 600,578.7105263157895" /><path class="edge arrow" d="M 0,0 L 8,-3 L 8,3 Z" transform="rotate(180 600 578.7105263157895) translate(600 578.7105263157895)" /></g><g id="sprotty_18" class="sprotty-edge" opacity="1"><path class="elkedge" d="M 0,354.5 L 300,354.5 L 300,581.8684210526316 L 600,581.8684210526316" /><path class="edge arrow" d="M 0,0 L 8,-3 L 8,3 Z" transform="rotate(180 600 581.8684210526316) translate(600 581.8684210526316)" /></g><g id="sprotty_21" class="sprotty-edge" opacity="1"><path class="elkedge" d="M 0,414.5 L 250,414.5 L 250,585.0263157894736 L 600,585.0263157894736" /><path class="edge arrow" d="M 0,0 L 8,-3 L 8,3 Z" transform="rotate(180 600 585.0263157894736) translate(600 585.0263157894736)" /></g><g id="sprotty_24" class="sprotty-edge" opacity="1"><path class="elkedge" d="M 0,474.5 L 200,474.5 L 200,588.1842105263157 L 600,588.1842105263157" /><path class="edge arrow" d="M 0,0 L 8,-3 L 8,3 Z" transform="rotate(180 600 588.1842105263157) translate(600 588.1842105263157)" /></g><g id="sprotty_27" class="sprotty-edge" opacity="1"><path class="elkedge" d="M 0,534.5 L 150,534.5 L 150,591.3421052631579 L 600,591.3421052631579" /><path class="edge arrow" d="M 0,0 L 8,-3 L 8,3 Z" transform="rotate(180 600 591.3421052631579) translate(600 591.3421052631579)" /></g><g id="sprotty_30" class="sprotty-edge" opacity="1"><path class="elkedge" d="M 0,594.5 L 600,594.5" /><path class="edge arrow" d="M 0,0 L 8,-3 L 8,3 Z" transform="rotate(180 600 594.5) translate(600 594.5)" /></g><g id="sprotty_33" class="sprotty-edge" opacity="1"><path class="elkedge" d="M 0,654.5 L 150,654.5 L 150,597.6578947368421 L 600,597.6578947368421" /><path class="edge arrow" d="M 0,0 L 8,-3 L 8,3 Z" transform="rotate(180 600 597.6578947368421) translate(600 597.6578947368421)" /></g><g id="sprotty_36" class="sprotty-edge" opacity="1"><path class="elkedge" d="M 0,714.5 L 200,714.5 L 200,600.8157894736842 L 600,600.8157894736842" /><path class="edge arrow" d="M 0,0 L 8,-3 L 8,3 Z" transform="rotate(180 600 600.8157894736842) translate(600 600.8157894736842)" /></g><g id="sprotty_39" class="sprotty-edge" opacity="1"><path class="elkedge" d="M 0,774.5 L 250,774.5 L 250,603.9736842105262 L 600,603.9736842105262" /><path class="edge arrow" d="M 0,0 L 8,-3 L 8,3 Z" transform="rotate(180 600 603.9736842105262) translate(600 603.9736842105262)" /></g><g id="sprotty_42" class="sprotty-edge" opacity="1"><path class="elkedge" d="M 0,834.5 L 300,834.5 L 300,607.1315789473683 L 600,607.1315789473683" /><path class="edge arrow" d="M 0,0 L 8,-3 L 8,3 Z" transform="rotate(180 600 607.1315789473683) translate(600 607.1315789473683)" /></g><g id="sprotty_45" class="sprotty-edge" opacity="1"><path class="elkedge" d="M 0,894.5 L 350,894.5 L 350,610.2894736842105 L 600,610.2894736842105" /><path class="edge arrow" d="M 0,0 L 8,-3 L 8,3 Z" transform="rotate(180 600 610.2894736842105) translate(600 610.2894736842105)" /></g><g id="sprotty_48" class="sprotty-edge" opacity="1"><path class="elkedge" d="M 0,954.5 L 400,954.5 L 400,613.4473684210526 L 600,613.4473684210526" /><path class="edge arrow" d="M 0,0 L 8,-3 L 8,3 Z" transform="rotate(180 600 613.4473684210526) translate(600 613.4473684210526)" /></g><g id="sprotty_51" class="sprotty-edge" opacity="1"><path class="elkedge" d="M 0,1014.5 L 450,1014.5 L 450,616.6052631578947 L 600,616.6052631578947" /><path class="edge arrow" d="M 0,0 L 8,-3 L 8,3 Z" transform="rotate(180 600 616.6052631578947) translate(600 616.6052631578947)" /></g><g id="sprotty_54" class="sprotty-edge" opacity="1"><path class="elkedge" d="M 0,1074.5 L 500,1074.5 L 500,619.7631578947368 L 600,619.7631578947368" /><path class="edge arrow" d="M 0,0 L 8,-3 L 8,3 Z" transform="rotate(180 600 619.7631578947368) translate(600 619.7631578947368)" /></g><g id="sprotty_57" class="sprotty-edge" opacity="1"><path class="elkedge" d="M 0,1134.5 L 550,1134.5 L 550,622.9210526315788 L 600,622.9210526315788" /><path class="edge arrow" d="M 0,0 L 8,-3 L 8,3 Z" transform="rotate(180 600 622.9210526315788) translate(600 622.9210526315788)" /></g><g id="sprotty_60" class="sprotty-edge" opacity="1"><path class="elkedge" d="M 0,114.5 L 500,114.5 L 500,569.2368421052631 L 600,569.2368421052631" /><path class="edge arrow" d="M 0,0 L 8,-3 L 8,3 Z" transform="rotate(180 600 569.2368421052631) translate(600 569.2368421052631)" /></g><g id="sprotty_67" class="sprotty-edge" opacity="1"><path class="elkedge" d="M 1367,621.578947368421 L 1317,621.578947368421" /><path class="edge arrow" d="M 0,0 L 8,-3 L 8,3 Z" transform="rotate(0 1317 621.578947368421) translate(1317 621.578947368421)" /></g><g id="sprotty_72" class="sprotty-edge" opacity="1"><path class="elkedge" d="M 1367,731.578947368421 L 1317,731.578947368421" /><path class="edge arrow" d="M 0,0 L 8,-3 L 8,3 Z" transform="rotate(0 1317 731.578947368421) translate(1317 731.578947368421)" /></g><g id="sprotty_75" class="sprotty-edge" opacity="1"><path class="elkedge" d="M 1217,811.578947368421 L 1217,761.578947368421" /><path class="edge arrow" d="M 0,0 L 8,-3 L 8,3 Z" transform="rotate(90 1217 761.578947368421) translate(1217 761.578947368421)" /></g><g id="sprotty_78" class="sprotty-edge" opacity="1"><path class="elkedge" d="M 1017,598.4457595954952 L 1367,701.9937945299931" /><path class="edge arrow" d="M 0,0 L 8,-3 L 8,3 Z" transform="rotate(-163.51906811785517 1367 701.9937945299931) translate(1367 701.9937945299931)" /></g><g id="sprotty_81" class="sprotty-edge" opacity="1"><path class="elkedge" d="M 1467,811.578947368421 L 1467,651.578947368421" /><path class="edge arrow" d="M 0,0 L 8,-3 L 8,3 Z" transform="rotate(90 1467 651.578947368421) translate(1467 651.578947368421)" /></g><g id="sprotty_84" class="sprotty-edge" opacity="1"><path class="elkedge" d="M 1239.7272727272727,921.578947368421 L 1444.2727272727273,651.578947368421" /><path class="edge arrow" d="M 0,0 L 8,-3 L 8,3 Z" transform="rotate(127.14668669802178 1444.2727272727273 651.578947368421) translate(1444.2727272727273 651.578947368421)" /></g><g id="sprotty_87" class="sprotty-edge" opacity="1"><path class="elkedge" d="M 1398.8181818181818,921.578947368421 L 1285.1818181818182,871.578947368421" /><path class="edge arrow" d="M 0,0 L 8,-3 L 8,3 Z" transform="rotate(23.749494492866788 1285.1818181818182 871.578947368421) translate(1285.1818181818182 871.578947368421)" /></g><g id="sprotty_88" class="sprotty-edge" opacity="1"><path class="elkedge" d="M 1014.7974683544304,600.578947368421 L 1428.350210970464,921.578947368421" /><path class="edge arrow" d="M 0,0 L 8,-3 L 8,3 Z" transform="rotate(-142.18135436369792 1428.350210970464 921.578947368421) translate(1428.350210970464 921.578947368421)" /></g><g id="sprotty_89" class="sprotty-edge" opacity="1"><path class="elkedge" d="M 1017,600.367156975408 L 1411.0325865580448,811.578947368421" /><path class="edge arrow" d="M 0,0 L 8,-3 L 8,3 Z" transform="rotate(-151.80752547398862 1411.0325865580448 811.578947368421) translate(1411.0325865580448 811.578947368421)" /></g><g id="sprotty_92" class="sprotty-edge" opacity="1"><path class="elkedge" d="M 1017,659.3191220409101 L 1392.9299191374662,811.578947368421" /><path class="edge arrow" d="M 0,0 L 8,-3 L 8,3 Z" transform="rotate(-157.95097782580274 1392.9299191374662 811.578947368421) translate(1392.9299191374662 811.578947368421)" /></g><g id="sprotty_93" class="sprotty-edge" opacity="1"><path class="elkedge" d="M 1367,951.578947368421 L 1317,951.578947368421" /><path class="edge arrow" d="M 0,0 L 8,-3 L 8,3 Z" transform="rotate(0 1317 951.578947368421) translate(1317 951.578947368421)" /></g><g id="sprotty_96" class="sprotty-edge" opacity="1"><path class="elkedge" d="M 1317,616.0112617789014 L 1667,596.5243622155826" /><path class="edge arrow" d="M 0,0 L 8,-3 L 8,3 Z" transform="rotate(176.81324131380964 1667 596.5243622155826) translate(1667 596.5243622155826)" /></g><g id="sprotty_99" class="sprotty-edge" opacity="1"><path class="elkedge" d="M 1488.1167512690356,921.578947368421 L 1671.8324873096446,660.578947368421" /><path class="edge arrow" d="M 0,0 L 8,-3 L 8,3 Z" transform="rotate(125.14139675071024 1671.8324873096446 660.578947368421) translate(1671.8324873096446 660.578947368421)" /></g><g id="sprotty_102" class="sprotty-edge" opacity="1"><path class="elkedge" d="M 1317,642.2121351413468 L 1667,714.428292346587" /><path class="edge arrow" d="M 0,0 L 8,-3 L 8,3 Z" transform="rotate(-168.34165965728076 1667 714.428292346587) translate(1667 714.428292346587)" /></g><g id="sprotty_105" class="sprotty-edge" opacity="1"><path class="elkedge" d="M 1317,741.2951045736612 L 1667,775.3016547920018" /><path class="edge arrow" d="M 0,0 L 8,-3 L 8,3 Z" transform="rotate(-174.45047144714007 1667 775.3016547920018) translate(1667 775.3016547920018)" /></g><g id="sprotty_106" class="sprotty-edge" opacity="1"><path class="elkedge" d="M 800,596.078947368421 L 1001,596.078947368421" /><path class="edge arrow" d="M 0,0 L 8,-3 L 8,3 Z" transform="rotate(180 1001 596.078947368421) translate(1001 596.078947368421)" /></g><g id="sprotty_109" class="sprotty-edge" opacity="1"><path class="elkedge" d="M 800,746.078947368421 L 850,746.078947368421 L 850,596.078947368421 L 1001,596.078947368421" /><path class="edge arrow" d="M 0,0 L 8,-3 L 8,3 Z" transform="rotate(180 1001 596.078947368421) translate(1001 596.078947368421)" /></g><g id="sprotty_112" class="sprotty-edge" opacity="1"><path class="elkedge" d="M 0,54.5 L 850,54.5 L 850,596.078947368421 L 1001,596.078947368421" /><path class="edge arrow" d="M 0,0 L 8,-3 L 8,3 Z" transform="rotate(180 1001 596.078947368421) translate(1001 596.078947368421)" /><g id="sprotty_112_j0" transform="translate(850, 596.078947368421)" opacity="1"><circle class="elkjunction" r="2" /></g></g><g id="sprotty_113" class="sprotty-edge" opacity="1"><path class="elkedge" d="M 800,766.078947368421 L 900,766.078947368421 L 900,656.078947368421 L 1001,656.078947368421" /><path class="edge arrow" d="M 0,0 L 8,-3 L 8,3 Z" transform="rotate(180 1001 656.078947368421) translate(1001 656.078947368421)" /></g><g id="sprotty_116" class="sprotty-edge" opacity="1"><path class="elkedge" d="M 1683,596.078947368421 L 1784,596.078947368421" /><path class="edge arrow" d="M 0,0 L 8,-3 L 8,3 Z" transform="rotate(180 1784 596.078947368421) translate(1784 596.078947368421)" /></g><g id="sprotty_119" class="sprotty-edge" opacity="1"><path class="elkedge" d="M 0,1075.0333333333333 L 1784,1193.9666666666667" /><path class="edge arrow" d="M 0,0 L 8,-3 L 8,3 Z" transform="rotate(-176.18592516570965 1784 1193.9666666666667) translate(1784 1193.9666666666667)" /></g><g id="sprotty_122" class="sprotty-edge" opacity="1"><path class="elkedge" d="M -0.8947368421052628,119 L 1784.8947368421052,1250" /><path class="edge arrow" d="M 0,0 L 8,-3 L 8,3 Z" transform="rotate(-147.65255650055795 1784.8947368421052 1250) translate(1784.8947368421052 1250)" /></g><g id="sprotty_125" class="sprotty-edge" opacity="1"><path class="elkedge" d="M 1683,776.078947368421 L 1784,776.078947368421" /><path class="edge arrow" d="M 0,0 L 8,-3 L 8,3 Z" transform="rotate(180 1784 776.078947368421) translate(1784 776.078947368421)" /></g></g></g></svg>
