<svg id="sprotty_1" class="sprotty-graph sprotty" tabindex="1002" xmlns="http://www.w3.org/2000/svg" viewBox="0 0 1184 5608"><style>
.elknode {
    stroke: #448;
    stroke-width: 2;
    fill: #ddf;
    fill-opacity: 0.5;
}

.elkport {
    stroke: #448;
    stroke-width: 1;
    fill: #66c;
}

.elkedge {
    fill: none;
    stroke: #88f;
    stroke-width: 8;
    stroke-opacity: 0.3;
    pointer-events: stroke;
    stroke-linejoin: round;
}

.elkedge:hover {
    stroke: #448;
    stroke-width: 8;
    stroke-opacity: 1;
    stroke-dasharray: 16px;
    stroke-dashoffset: 32px;
    animation: stroke 0.5s linear infinite;
}

@keyframes stroke {
    to {
        stroke-dashoffset: 0;
    }
}

.elkedge.arrow {
    fill: #336;
}

.elklabel {
    stroke-width: 0;
    stroke: #000;
    fill: #000;
    font-family: sans-serif;
    font-size: 10pt;
    dominant-baseline: hanging;
}

.elklabel:hover {
    font-size: 24pt;
}

.elkjunction {
    stroke: none;
    fill: #224;
}

.selected &gt; rect {
    stroke-width: 3;
}

.mouseover {
    stroke: #88f;
}
/*
 * Copyright (C) 2017 TypeFox and others.
 *
 * Licensed under the Apache License, Version 2.0 (the &quot;License&quot;); you may not use this file except in compliance with the License.
 * You may obtain a copy of the License at http://www.apache.org/licenses/LICENSE-2.0
 */

.sprotty {
    padding: 0px;
    font-family: &quot;Helvetica Neue&quot;, Helvetica, Arial, sans-serif;
}

.sprotty-hidden {
    display: block;
    position: absolute;
    width: 0px;
    height: 0px;
}

.sprotty-popup {
    font-family: &quot;Helvetica Neue&quot;, Helvetica, Arial, sans-serif;
    position: absolute;
    background: white;
    border-radius: 5px;
    border: 1px solid;
    max-width: 400px;
    min-width: 100px;
}

.sprotty-popup &gt; div {
    margin: 10px;
}

.sprotty-popup-closed {
    display: none;
}
</style><g transform="scale(1) translate(0,0)"><g id="sprotty_3" transform="translate(117, 71)" opacity="1"><rect class="elknode" x="0" y="0" rx="10" width="967" height="5487" /><g id="sprotty_5" transform="translate(217, 3786)" opacity="1"><rect class="elknode" x="0" y="0" rx="10" width="400" height="710" /><g id="sprotty_7" transform="translate(100, 50)" opacity="1"><rect class="elknode" x="0" y="0" rx="10" width="200" height="60" /><text id="sprotty_8" class="elklabel" transform="translate(5, 22) translate(0, 0)" opacity="1">k8s_core_v1_config_map.istio-galley-configuration</text></g><g id="sprotty_12" transform="translate(100, 160)" opacity="1"><rect class="elknode" x="0" y="0" rx="10" width="200" height="60" /><text id="sprotty_13" class="elklabel" transform="translate(5, 22) translate(0, 0)" opacity="1">k8s_core_v1_service.istio-galley</text></g><g id="sprotty_15" transform="translate(100, 270)" opacity="1"><rect class="elknode" x="0" y="0" rx="10" width="200" height="60" /><text id="sprotty_16" class="elklabel" transform="translate(5, 22) translate(0, 0)" opacity="1">k8s_core_v1_service_account.istio-galley-service-account</text></g><g id="sprotty_18" transform="translate(100, 380)" opacity="1"><rect class="elknode" x="0" y="0" rx="10" width="200" height="60" /><text id="sprotty_19" class="elklabel" transform="translate(5, 22) translate(0, 0)" opacity="1">k8s_extensions_v1beta1_deployment.istio-galley</text></g><g id="sprotty_21" transform="translate(100, 490)" opacity="1"><rect class="elknode" x="0" y="0" rx="10" width="200" height="60" /><text id="sprotty_22" class="elklabel" transform="translate(5, 22) translate(0, 0)" opacity="1">k8s_policy_v1beta1_pod_disruption_budget.istio-galley</text></g><g id="sprotty_24" transform="translate(100, 600)" opacity="1"><rect class="elknode" x="0" y="0" rx="10" width="200" height="60" /><text id="sprotty_25" class="elklabel" transform="translate(5, 22) translate(0, 0)" opacity="1">k8s_rbac_authorization_k8s_io_v1_cluster_role_binding.istio-galley-admin-role-binding-istio-system</text></g><g id="sprotty_9" transform="translate(-16, 50)" opacity="1"><rect class="elkport" x="0" y="0" width="16" height="9" /><text id="sprotty_10" class="elklabel" transform="translate(-1, 10) translate(0, 0)" opacity="1">namespace</text></g><text id="sprotty_6" class="elklabel" transform="translate(0, -21) translate(0, 0)" opacity="1">galley</text></g><g id="sprotty_30" transform="translate(217, 4617)" opacity="1"><rect class="elknode" x="0" y="0" rx="10" width="650" height="820" /><g id="sprotty_32" transform="translate(100, 50)" opacity="1"><rect class="elknode" x="0" y="0" rx="10" width="200" height="60" /><text id="sprotty_33" class="elklabel" transform="translate(5, 22) translate(0, 0)" opacity="1">k8s_autoscaling_v2beta1_horizontal_pod_autoscaler.istio-egressgateway</text></g><g id="sprotty_37" transform="translate(350, 50)" opacity="1"><rect class="elknode" x="0" y="0" rx="10" width="200" height="60" /><text id="sprotty_38" class="elklabel" transform="translate(5, 22) translate(0, 0)" opacity="1">k8s_autoscaling_v2beta1_horizontal_pod_autoscaler.istio-ingressgateway</text></g><g id="sprotty_40" transform="translate(100, 160)" opacity="1"><rect class="elknode" x="0" y="0" rx="10" width="200" height="60" /><text id="sprotty_41" class="elklabel" transform="translate(5, 22) translate(0, 0)" opacity="1">k8s_core_v1_service.istio-egressgateway</text></g><g id="sprotty_43" transform="translate(350, 160)" opacity="1"><rect class="elknode" x="0" y="0" rx="10" width="200" height="60" /><text id="sprotty_44" class="elklabel" transform="translate(5, 22) translate(0, 0)" opacity="1">k8s_core_v1_service.istio-ingressgateway</text></g><g id="sprotty_49" transform="translate(100, 270)" opacity="1"><rect class="elknode" x="0" y="0" rx="10" width="200" height="60" /><text id="sprotty_50" class="elklabel" transform="translate(5, 22) translate(0, 0)" opacity="1">k8s_core_v1_service_account.istio-egressgateway-service-account</text></g><g id="sprotty_52" transform="translate(350, 270)" opacity="1"><rect class="elknode" x="0" y="0" rx="10" width="200" height="60" /><text id="sprotty_53" class="elklabel" transform="translate(5, 22) translate(0, 0)" opacity="1">k8s_core_v1_service_account.istio-ingressgateway-service-account</text></g><g id="sprotty_55" transform="translate(100, 380)" opacity="1"><rect class="elknode" x="0" y="0" rx="10" width="200" height="60" /><text id="sprotty_56" class="elklabel" transform="translate(5, 22) translate(0, 0)" opacity="1">k8s_extensions_v1beta1_deployment.istio-egressgateway</text></g><g id="sprotty_58" transform="translate(350, 380)" opacity="1"><rect class="elknode" x="0" y="0" rx="10" width="200" height="60" /><text id="sprotty_59" class="elklabel" transform="translate(5, 22) translate(0, 0)" opacity="1">k8s_extensions_v1beta1_deployment.istio-ingressgateway</text></g><g id="sprotty_61" transform="translate(100, 490)" opacity="1"><rect class="elknode" x="0" y="0" rx="10" width="200" height="60" /><text id="sprotty_62" class="elklabel" transform="translate(5, 22) translate(0, 0)" opacity="1">k8s_policy_v1beta1_pod_disruption_budget.istio-egressgateway</text></g><g id="sprotty_64" transform="translate(350, 490)" opacity="1"><rect class="elknode" x="0" y="0" rx="10" width="200" height="60" /><text id="sprotty_65" class="elklabel" transform="translate(5, 22) translate(0, 0)" opacity="1">k8s_policy_v1beta1_pod_disruption_budget.istio-ingressgateway</text></g><g id="sprotty_67" transform="translate(100, 600)" opacity="1"><rect class="elknode" x="0" y="0" rx="10" width="200" height="60" /><text id="sprotty_68" class="elklabel" transform="translate(5, 22) translate(0, 0)" opacity="1">k8s_rbac_authorization_k8s_io_v1_cluster_role_binding.istio-egressgateway-istio-system</text></g><g id="sprotty_70" transform="translate(350, 600)" opacity="1"><rect class="elknode" x="0" y="0" rx="10" width="200" height="60" /><text id="sprotty_71" class="elklabel" transform="translate(5, 22) translate(0, 0)" opacity="1">k8s_rbac_authorization_k8s_io_v1_cluster_role_binding.istio-ingressgateway-istio-system</text></g><g id="sprotty_73" transform="translate(100, 710)" opacity="1"><rect class="elknode" x="0" y="0" rx="10" width="200" height="60" /><text id="sprotty_74" class="elklabel" transform="translate(5, 22) translate(0, 0)" opacity="1">k8s_rbac_authorization_k8s_io_v1_role.istio-ingressgateway-sds</text></g><g id="sprotty_76" transform="translate(350, 710)" opacity="1"><rect class="elknode" x="0" y="0" rx="10" width="200" height="60" /><text id="sprotty_77" class="elklabel" transform="translate(5, 22) translate(0, 0)" opacity="1">k8s_rbac_authorization_k8s_io_v1_role_binding.istio-ingressgateway-sds</text></g><g id="sprotty_34" transform="translate(-16, 50)" opacity="1"><rect class="elkport" x="0" y="0" width="16" height="9" /><text id="sprotty_35" class="elklabel" transform="translate(-1, -1) translate(0, 0)" opacity="1">namespace</text></g><g id="sprotty_46" transform="translate(-16, 110)" opacity="1"><rect class="elkport" x="0" y="0" width="16" height="9" /><text id="sprotty_47" class="elklabel" transform="translate(-1, 10) translate(0, 0)" opacity="1">type</text></g><text id="sprotty_31" class="elklabel" transform="translate(0, -21) translate(0, 0)" opacity="1">gateways</text></g><g id="sprotty_83" transform="translate(217, 71)" opacity="1"><rect class="elknode" x="0" y="0" rx="10" width="400" height="490" /><g id="sprotty_85" transform="translate(100, 50)" opacity="1"><rect class="elknode" x="0" y="0" rx="10" width="200" height="60" /><text id="sprotty_86" class="elklabel" transform="translate(5, 22) translate(0, 0)" opacity="1">k8s_core_v1_config_map.istio</text></g><g id="sprotty_90" transform="translate(100, 160)" opacity="1"><rect class="elknode" x="0" y="0" rx="10" width="200" height="60" /><text id="sprotty_91" class="elklabel" transform="translate(5, 22) translate(0, 0)" opacity="1">k8s_core_v1_config_map.istio-sidecar-injector</text></g><g id="sprotty_93" transform="translate(100, 270)" opacity="1"><rect class="elknode" x="0" y="0" rx="10" width="200" height="60" /><text id="sprotty_94" class="elklabel" transform="translate(5, 22) translate(0, 0)" opacity="1">k8s_core_v1_service_account.istio-multi</text></g><g id="sprotty_96" transform="translate(100, 380)" opacity="1"><rect class="elknode" x="0" y="0" rx="10" width="200" height="60" /><text id="sprotty_97" class="elklabel" transform="translate(5, 22) translate(0, 0)" opacity="1">k8s_rbac_authorization_k8s_io_v1_cluster_role_binding.istio-multi</text></g><g id="sprotty_87" transform="translate(-16, 50)" opacity="1"><rect class="elkport" x="0" y="0" width="16" height="9" /><text id="sprotty_88" class="elklabel" transform="translate(-1, 10) translate(0, 0)" opacity="1">namespace</text></g><text id="sprotty_84" class="elklabel" transform="translate(0, -21) translate(0, 0)" opacity="1">istio</text></g><g id="sprotty_100" transform="translate(217, 682)" opacity="1"><rect class="elknode" x="0" y="0" rx="10" width="650" height="600" /><g id="sprotty_102" transform="translate(100, 50)" opacity="1"><rect class="elknode" x="0" y="0" rx="10" width="200" height="60" /><text id="sprotty_103" class="elklabel" transform="translate(5, 22) translate(0, 0)" opacity="1">k8s_autoscaling_v2beta1_horizontal_pod_autoscaler.istio-policy</text></g><g id="sprotty_107" transform="translate(350, 50)" opacity="1"><rect class="elknode" x="0" y="0" rx="10" width="200" height="60" /><text id="sprotty_108" class="elklabel" transform="translate(5, 22) translate(0, 0)" opacity="1">k8s_autoscaling_v2beta1_horizontal_pod_autoscaler.istio-telemetry</text></g><g id="sprotty_110" transform="translate(100, 160)" opacity="1"><rect class="elknode" x="0" y="0" rx="10" width="200" height="60" /><text id="sprotty_111" class="elklabel" transform="translate(5, 22) translate(0, 0)" opacity="1">k8s_core_v1_service.istio-policy</text></g><g id="sprotty_113" transform="translate(350, 160)" opacity="1"><rect class="elknode" x="0" y="0" rx="10" width="200" height="60" /><text id="sprotty_114" class="elklabel" transform="translate(5, 22) translate(0, 0)" opacity="1">k8s_core_v1_service.istio-telemetry</text></g><g id="sprotty_116" transform="translate(100, 270)" opacity="1"><rect class="elknode" x="0" y="0" rx="10" width="200" height="60" /><text id="sprotty_117" class="elklabel" transform="translate(5, 22) translate(0, 0)" opacity="1">k8s_core_v1_service_account.istio-mixer-service-account</text></g><g id="sprotty_119" transform="translate(350, 270)" opacity="1"><rect class="elknode" x="0" y="0" rx="10" width="200" height="60" /><text id="sprotty_120" class="elklabel" transform="translate(5, 22) translate(0, 0)" opacity="1">k8s_extensions_v1beta1_deployment.istio-policy</text></g><g id="sprotty_122" transform="translate(100, 380)" opacity="1"><rect class="elknode" x="0" y="0" rx="10" width="200" height="60" /><text id="sprotty_123" class="elklabel" transform="translate(5, 22) translate(0, 0)" opacity="1">k8s_extensions_v1beta1_deployment.istio-telemetry</text></g><g id="sprotty_125" transform="translate(350, 380)" opacity="1"><rect class="elknode" x="0" y="0" rx="10" width="200" height="60" /><text id="sprotty_126" class="elklabel" transform="translate(5, 22) translate(0, 0)" opacity="1">k8s_policy_v1beta1_pod_disruption_budget.istio-policy</text></g><g id="sprotty_128" transform="translate(100, 490)" opacity="1"><rect class="elknode" x="0" y="0" rx="10" width="200" height="60" /><text id="sprotty_129" class="elklabel" transform="translate(5, 22) translate(0, 0)" opacity="1">k8s_policy_v1beta1_pod_disruption_budget.istio-telemetry</text></g><g id="sprotty_131" transform="translate(350, 490)" opacity="1"><rect class="elknode" x="0" y="0" rx="10" width="200" height="60" /><text id="sprotty_132" class="elklabel" transform="translate(5, 22) translate(0, 0)" opacity="1">k8s_rbac_authorization_k8s_io_v1_cluster_role_binding.istio-mixer-admin-role-binding-istio-system</text></g><g id="sprotty_104" transform="translate(-16, 50)" opacity="1"><rect class="elkport" x="0" y="0" width="16" height="9" /><text id="sprotty_105" class="elklabel" transform="translate(-1, 10) translate(0, 0)" opacity="1">namespace</text></g><text id="sprotty_101" class="elklabel" transform="translate(0, -21) translate(0, 0)" opacity="1">mixer</text></g><g id="sprotty_135" transform="translate(217, 2124)" opacity="1"><rect class="elknode" x="0" y="0" rx="10" width="400" height="710" /><g id="sprotty_137" transform="translate(100, 50)" opacity="1"><rect class="elknode" x="0" y="0" rx="10" width="200" height="60" /><text id="sprotty_138" class="elklabel" transform="translate(5, 22) translate(0, 0)" opacity="1">k8s_autoscaling_v2beta1_horizontal_pod_autoscaler.istio-pilot</text></g><g id="sprotty_142" transform="translate(100, 160)" opacity="1"><rect class="elknode" x="0" y="0" rx="10" width="200" height="60" /><text id="sprotty_143" class="elklabel" transform="translate(5, 22) translate(0, 0)" opacity="1">k8s_core_v1_service.istio-pilot</text></g><g id="sprotty_145" transform="translate(100, 270)" opacity="1"><rect class="elknode" x="0" y="0" rx="10" width="200" height="60" /><text id="sprotty_146" class="elklabel" transform="translate(5, 22) translate(0, 0)" opacity="1">k8s_core_v1_service_account.istio-pilot-service-account</text></g><g id="sprotty_148" transform="translate(100, 380)" opacity="1"><rect class="elknode" x="0" y="0" rx="10" width="200" height="60" /><text id="sprotty_149" class="elklabel" transform="translate(5, 22) translate(0, 0)" opacity="1">k8s_extensions_v1beta1_deployment.istio-pilot</text></g><g id="sprotty_151" transform="translate(100, 490)" opacity="1"><rect class="elknode" x="0" y="0" rx="10" width="200" height="60" /><text id="sprotty_152" class="elklabel" transform="translate(5, 22) translate(0, 0)" opacity="1">k8s_policy_v1beta1_pod_disruption_budget.istio-pilot</text></g><g id="sprotty_154" transform="translate(100, 600)" opacity="1"><rect class="elknode" x="0" y="0" rx="10" width="200" height="60" /><text id="sprotty_155" class="elklabel" transform="translate(5, 22) translate(0, 0)" opacity="1">k8s_rbac_authorization_k8s_io_v1_cluster_role_binding.istio-pilot-istio-system</text></g><g id="sprotty_139" transform="translate(-16, 50)" opacity="1"><rect class="elkport" x="0" y="0" width="16" height="9" /><text id="sprotty_140" class="elklabel" transform="translate(-1, 10) translate(0, 0)" opacity="1">namespace</text></g><text id="sprotty_136" class="elklabel" transform="translate(0, -21) translate(0, 0)" opacity="1">pilot</text></g><g id="sprotty_158" transform="translate(217, 2955)" opacity="1"><rect class="elknode" x="0" y="0" rx="10" width="650" height="710" /><g id="sprotty_160" transform="translate(100, 50)" opacity="1"><rect class="elknode" x="0" y="0" rx="10" width="200" height="60" /><text id="sprotty_161" class="elklabel" transform="translate(5, 22) translate(0, 0)" opacity="1">k8s_batch_v1_job.istio-cleanup-secrets-1_1_2</text></g><g id="sprotty_165" transform="translate(350, 50)" opacity="1"><rect class="elknode" x="0" y="0" rx="10" width="200" height="60" /><text id="sprotty_166" class="elklabel" transform="translate(5, 22) translate(0, 0)" opacity="1">k8s_batch_v1_job.istio-security-post-install-1_1_2</text></g><g id="sprotty_168" transform="translate(100, 160)" opacity="1"><rect class="elknode" x="0" y="0" rx="10" width="200" height="60" /><text id="sprotty_169" class="elklabel" transform="translate(5, 22) translate(0, 0)" opacity="1">k8s_core_v1_config_map.istio-security-custom-resources</text></g><g id="sprotty_171" transform="translate(350, 160)" opacity="1"><rect class="elknode" x="0" y="0" rx="10" width="200" height="60" /><text id="sprotty_172" class="elklabel" transform="translate(5, 22) translate(0, 0)" opacity="1">k8s_core_v1_service.istio-citadel</text></g><g id="sprotty_174" transform="translate(100, 270)" opacity="1"><rect class="elknode" x="0" y="0" rx="10" width="200" height="60" /><text id="sprotty_175" class="elklabel" transform="translate(5, 22) translate(0, 0)" opacity="1">k8s_core_v1_service_account.istio-citadel-service-account</text></g><g id="sprotty_177" transform="translate(350, 270)" opacity="1"><rect class="elknode" x="0" y="0" rx="10" width="200" height="60" /><text id="sprotty_178" class="elklabel" transform="translate(5, 22) translate(0, 0)" opacity="1">k8s_core_v1_service_account.istio-cleanup-secrets-service-account</text></g><g id="sprotty_180" transform="translate(100, 380)" opacity="1"><rect class="elknode" x="0" y="0" rx="10" width="200" height="60" /><text id="sprotty_181" class="elklabel" transform="translate(5, 22) translate(0, 0)" opacity="1">k8s_core_v1_service_account.istio-security-post-install-account</text></g><g id="sprotty_183" transform="translate(350, 380)" opacity="1"><rect class="elknode" x="0" y="0" rx="10" width="200" height="60" /><text id="sprotty_184" class="elklabel" transform="translate(5, 22) translate(0, 0)" opacity="1">k8s_extensions_v1beta1_deployment.istio-citadel</text></g><g id="sprotty_186" transform="translate(100, 490)" opacity="1"><rect class="elknode" x="0" y="0" rx="10" width="200" height="60" /><text id="sprotty_187" class="elklabel" transform="translate(5, 22) translate(0, 0)" opacity="1">k8s_rbac_authorization_k8s_io_v1_cluster_role_binding.istio-citadel-istio-system</text></g><g id="sprotty_189" transform="translate(350, 490)" opacity="1"><rect class="elknode" x="0" y="0" rx="10" width="200" height="60" /><text id="sprotty_190" class="elklabel" transform="translate(5, 22) translate(0, 0)" opacity="1">k8s_rbac_authorization_k8s_io_v1_cluster_role_binding.istio-cleanup-secrets-istio-system</text></g><g id="sprotty_192" transform="translate(100, 600)" opacity="1"><rect class="elknode" x="0" y="0" rx="10" width="200" height="60" /><text id="sprotty_193" class="elklabel" transform="translate(5, 22) translate(0, 0)" opacity="1">k8s_rbac_authorization_k8s_io_v1beta1_cluster_role_binding.istio-security-post-install-role-binding-istio-system</text></g><g id="sprotty_162" transform="translate(-16, 50)" opacity="1"><rect class="elkport" x="0" y="0" width="16" height="9" /><text id="sprotty_163" class="elklabel" transform="translate(-1, 10) translate(0, 0)" opacity="1">namespace</text></g><text id="sprotty_159" class="elklabel" transform="translate(0, -21) translate(0, 0)" opacity="1">security</text></g><g id="sprotty_196" transform="translate(217, 1403)" opacity="1"><rect class="elknode" x="0" y="0" rx="10" width="400" height="600" /><g id="sprotty_198" transform="translate(100, 50)" opacity="1"><rect class="elknode" x="0" y="0" rx="10" width="200" height="60" /><text id="sprotty_199" class="elklabel" transform="translate(5, 22) translate(0, 0)" opacity="1">k8s_admissionregistration_k8s_io_v1beta1_mutating_webhook_configuration.istio-sidecar-injector</text></g><g id="sprotty_203" transform="translate(100, 160)" opacity="1"><rect class="elknode" x="0" y="0" rx="10" width="200" height="60" /><text id="sprotty_204" class="elklabel" transform="translate(5, 22) translate(0, 0)" opacity="1">k8s_core_v1_service.istio-sidecar-injector</text></g><g id="sprotty_206" transform="translate(100, 270)" opacity="1"><rect class="elknode" x="0" y="0" rx="10" width="200" height="60" /><text id="sprotty_207" class="elklabel" transform="translate(5, 22) translate(0, 0)" opacity="1">k8s_core_v1_service_account.istio-sidecar-injector-service-account</text></g><g id="sprotty_209" transform="translate(100, 380)" opacity="1"><rect class="elknode" x="0" y="0" rx="10" width="200" height="60" /><text id="sprotty_210" class="elklabel" transform="translate(5, 22) translate(0, 0)" opacity="1">k8s_extensions_v1beta1_deployment.istio-sidecar-injector</text></g><g id="sprotty_212" transform="translate(100, 490)" opacity="1"><rect class="elknode" x="0" y="0" rx="10" width="200" height="60" /><text id="sprotty_213" class="elklabel" transform="translate(5, 22) translate(0, 0)" opacity="1">k8s_rbac_authorization_k8s_io_v1_cluster_role_binding.istio-sidecar-injector-admin-role-binding-istio-system</text></g><g id="sprotty_200" transform="translate(-16, 50)" opacity="1"><rect class="elkport" x="0" y="0" width="16" height="9" /><text id="sprotty_201" class="elklabel" transform="translate(-1, 10) translate(0, 0)" opacity="1">namespace</text></g><text id="sprotty_197" class="elklabel" transform="translate(0, -21) translate(0, 0)" opacity="1">sidecar-injector</text></g><g id="sprotty_27" transform="translate(-16, 121)" opacity="1"><rect class="elkport" x="0" y="0" width="16" height="9" /><text id="sprotty_28" class="elklabel" transform="translate(-1, -1) translate(0, 0)" opacity="1">namespace</text></g><g id="sprotty_80" transform="translate(-16, 4727)" opacity="1"><rect class="elkport" x="0" y="0" width="16" height="9" /><text id="sprotty_81" class="elklabel" transform="translate(-1, 10) translate(0, 0)" opacity="1">ingress_type</text></g><text id="sprotty_4" class="elklabel" transform="translate(0, -21) translate(0, 0)" opacity="1">solutions/istio</text><g id="sprotty_11" class="sprotty-edge" opacity="1"><path class="elkedge" d="M 217,3841.480769230769 L 317,3853.7403846153848" /><path class="edge arrow" d="M 0,0 L 8,-3 L 8,3 Z" transform="rotate(-173.01063484366134 317 3853.7403846153848) translate(317 3853.7403846153848)" /></g><g id="sprotty_14" class="sprotty-edge" opacity="1"><path class="elkedge" d="M 215.90774907749076,3845 L 370.9483394833948,3946" /><path class="edge arrow" d="M 0,0 L 8,-3 L 8,3 Z" transform="rotate(-146.9180771272349 370.9483394833948 3946) translate(370.9483394833948 3946)" /></g><g id="sprotty_17" class="sprotty-edge" opacity="1"><path class="elkedge" d="M 212.81262729124236,3845 L 391.5824847250509,4056" /><path class="edge arrow" d="M 0,0 L 8,-3 L 8,3 Z" transform="rotate(-130.27295566323374 391.5824847250509 4056) translate(391.5824847250509 4056)" /></g><g id="sprotty_20" class="sprotty-edge" opacity="1"><path class="elkedge" d="M 211.63291139240505,3845 L 399.44725738396625,4166" /><path class="edge arrow" d="M 0,0 L 8,-3 L 8,3 Z" transform="rotate(-120.3315364470422 399.44725738396625 4166) translate(399.44725738396625 4166)" /></g><g id="sprotty_23" class="sprotty-edge" opacity="1"><path class="elkedge" d="M 211.0107411385607,3845 L 403.5950590762621,4276" /><path class="edge arrow" d="M 0,0 L 8,-3 L 8,3 Z" transform="rotate(-114.0765897487924 403.5950590762621 4276) translate(403.5950590762621 4276)" /></g><g id="sprotty_26" class="sprotty-edge" opacity="1"><path class="elkedge" d="M 210.62641181581233,3845 L 406.1572545612511,4386" /><path class="edge arrow" d="M 0,0 L 8,-3 L 8,3 Z" transform="rotate(-109.87111491399165 406.1572545612511 4386) translate(406.1572545612511 4386)" /></g><g id="sprotty_29" class="sprotty-edge" opacity="1"><path class="elkedge" d="M 0,125.5 L 150,125.5 L 150,3840.5 L 201,3840.5" /><path class="edge arrow" d="M 0,0 L 8,-3 L 8,3 Z" transform="rotate(180 201 3840.5) translate(201 3840.5)" /><g id="sprotty_29_j0" transform="translate(150, 125.5)" opacity="1"><circle class="elkjunction" r="2" /></g><g id="sprotty_29_j1" transform="translate(150, 3840.5)" opacity="1"><circle class="elkjunction" r="2" /></g></g><g id="sprotty_36" class="sprotty-edge" opacity="1"><path class="elkedge" d="M 217,4672.4807692307695 L 317,4684.740384615385" /><path class="edge arrow" d="M 0,0 L 8,-3 L 8,3 Z" transform="rotate(-173.0106348436616 317 4684.740384615385) translate(317 4684.740384615385)" /></g><g id="sprotty_39" class="sprotty-edge" opacity="1"><path class="elkedge" d="M 217,4671.945414847161 L 567,4691.43231441048" /><path class="edge arrow" d="M 0,0 L 8,-3 L 8,3 Z" transform="rotate(-176.81324131380964 567 4691.43231441048) translate(567 4691.43231441048)" /></g><g id="sprotty_42" class="sprotty-edge" opacity="1"><path class="elkedge" d="M 215.90774907749076,4676 L 370.9483394833948,4777" /><path class="edge arrow" d="M 0,0 L 8,-3 L 8,3 Z" transform="rotate(-146.9180771272349 370.9483394833948 4777) translate(370.9483394833948 4777)" /></g><g id="sprotty_45" class="sprotty-edge" opacity="1"><path class="elkedge" d="M 217,4673.866812227075 L 567,4777.414847161572" /><path class="edge arrow" d="M 0,0 L 8,-3 L 8,3 Z" transform="rotate(-163.5190681178553 567 4777.414847161572) translate(567 4777.414847161572)" /></g><g id="sprotty_48" class="sprotty-edge" opacity="1"><path class="elkedge" d="M 217,4732.818777292577 L 567,4790.515283842795" /><path class="edge arrow" d="M 0,0 L 8,-3 L 8,3 Z" transform="rotate(-170.63914001903586 567 4790.515283842795) translate(567 4790.515283842795)" /></g><g id="sprotty_51" class="sprotty-edge" opacity="1"><path class="elkedge" d="M 212.81262729124236,4676 L 391.5824847250509,4887" /><path class="edge arrow" d="M 0,0 L 8,-3 L 8,3 Z" transform="rotate(-130.27295566323374 391.5824847250509 4887) translate(391.5824847250509 4887)" /></g><g id="sprotty_54" class="sprotty-edge" opacity="1"><path class="elkedge" d="M 217,4675.788209606987 L 611.0325865580448,4887" /><path class="edge arrow" d="M 0,0 L 8,-3 L 8,3 Z" transform="rotate(-151.80752547398862 611.0325865580448 4887) translate(611.0325865580448 4887)" /></g><g id="sprotty_57" class="sprotty-edge" opacity="1"><path class="elkedge" d="M 211.63291139240505,4676 L 399.44725738396625,4997" /><path class="edge arrow" d="M 0,0 L 8,-3 L 8,3 Z" transform="rotate(-120.3315364470422 399.44725738396625 4997) translate(399.44725738396625 4997)" /></g><g id="sprotty_60" class="sprotty-edge" opacity="1"><path class="elkedge" d="M 214.79746835443038,4676 L 628.3502109704641,4997" /><path class="edge arrow" d="M 0,0 L 8,-3 L 8,3 Z" transform="rotate(-142.18135436369792 628.3502109704641 4997) translate(628.3502109704641 4997)" /></g><g id="sprotty_63" class="sprotty-edge" opacity="1"><path class="elkedge" d="M 211.0107411385607,4676 L 403.5950590762621,5107" /><path class="edge arrow" d="M 0,0 L 8,-3 L 8,3 Z" transform="rotate(-114.0765897487924 403.5950590762621 5107) translate(403.5950590762621 5107)" /></g><g id="sprotty_66" class="sprotty-edge" opacity="1"><path class="elkedge" d="M 213.42749731471537,4676 L 637.4833512352309,5107" /><path class="edge arrow" d="M 0,0 L 8,-3 L 8,3 Z" transform="rotate(-134.53469529037108 637.4833512352309 5107) translate(637.4833512352309 5107)" /></g><g id="sprotty_69" class="sprotty-edge" opacity="1"><path class="elkedge" d="M 210.62641181581233,4676 L 406.1572545612511,5217" /><path class="edge arrow" d="M 0,0 L 8,-3 L 8,3 Z" transform="rotate(-109.87111491399165 406.1572545612511 5217) translate(406.1572545612511 5217)" /></g><g id="sprotty_72" class="sprotty-edge" opacity="1"><path class="elkedge" d="M 212.58123370981755,4676 L 643.1251086012163,5217" /><path class="edge arrow" d="M 0,0 L 8,-3 L 8,3 Z" transform="rotate(-128.51381656363714 643.1251086012163 5217) translate(643.1251086012163 5217)" /></g><g id="sprotty_75" class="sprotty-edge" opacity="1"><path class="elkedge" d="M 210.36542669584244,4676 L 407.8971553610503,5327" /><path class="edge arrow" d="M 0,0 L 8,-3 L 8,3 Z" transform="rotate(-106.87927450373812 407.8971553610503 5327) translate(407.8971553610503 5327)" /></g><g id="sprotty_78" class="sprotty-edge" opacity="1"><path class="elkedge" d="M 212.00656455142231,4676 L 646.9562363238513,5327" /><path class="edge arrow" d="M 0,0 L 8,-3 L 8,3 Z" transform="rotate(-123.74789335614918 646.9562363238513 5327) translate(646.9562363238513 5327)" /></g><g id="sprotty_79" class="sprotty-edge" opacity="1"><path class="elkedge" d="M 0,125.5 L 150,125.5 L 150,4671.5 L 201,4671.5" /><path class="edge arrow" d="M 0,0 L 8,-3 L 8,3 Z" transform="rotate(180 201 4671.5) translate(201 4671.5)" /></g><g id="sprotty_82" class="sprotty-edge" opacity="1"><path class="elkedge" d="M 0,4731.5 L 201,4731.5" /><path class="edge arrow" d="M 0,0 L 8,-3 L 8,3 Z" transform="rotate(180 201 4731.5) translate(201 4731.5)" /></g><g id="sprotty_89" class="sprotty-edge" opacity="1"><path class="elkedge" d="M 217,126.48076923076923 L 317,138.7403846153846" /><path class="edge arrow" d="M 0,0 L 8,-3 L 8,3 Z" transform="rotate(-173.01063484366153 317 138.7403846153846) translate(317 138.7403846153846)" /></g><g id="sprotty_92" class="sprotty-edge" opacity="1"><path class="elkedge" d="M 215.90774907749076,130 L 370.9483394833948,231" /><path class="edge arrow" d="M 0,0 L 8,-3 L 8,3 Z" transform="rotate(-146.9180771272349 370.9483394833948 231) translate(370.9483394833948 231)" /></g><g id="sprotty_95" class="sprotty-edge" opacity="1"><path class="elkedge" d="M 212.81262729124236,130 L 391.5824847250509,341" /><path class="edge arrow" d="M 0,0 L 8,-3 L 8,3 Z" transform="rotate(-130.27295566323374 391.5824847250509 341) translate(391.5824847250509 341)" /></g><g id="sprotty_98" class="sprotty-edge" opacity="1"><path class="elkedge" d="M 211.63291139240505,130 L 399.44725738396625,451" /><path class="edge arrow" d="M 0,0 L 8,-3 L 8,3 Z" transform="rotate(-120.3315364470422 399.44725738396625 451) translate(399.44725738396625 451)" /></g><g id="sprotty_99" class="sprotty-edge" opacity="1"><path class="elkedge" d="M 0,125.5 L 201,125.5" /><path class="edge arrow" d="M 0,0 L 8,-3 L 8,3 Z" transform="rotate(180 201 125.5) translate(201 125.5)" /></g><g id="sprotty_106" class="sprotty-edge" opacity="1"><path class="elkedge" d="M 217,737.4807692307693 L 317,749.7403846153846" /><path class="edge arrow" d="M 0,0 L 8,-3 L 8,3 Z" transform="rotate(-173.01063484366153 317 749.7403846153846) translate(317 749.7403846153846)" /></g><g id="sprotty_109" class="sprotty-edge" opacity="1"><path class="elkedge" d="M 217,736.9454148471616 L 567,756.4323144104803" /><path class="edge arrow" d="M 0,0 L 8,-3 L 8,3 Z" transform="rotate(-176.81324131380964 567 756.4323144104803) translate(567 756.4323144104803)" /></g><g id="sprotty_112" class="sprotty-edge" opacity="1"><path class="elkedge" d="M 215.90774907749076,741 L 370.9483394833948,842" /><path class="edge arrow" d="M 0,0 L 8,-3 L 8,3 Z" transform="rotate(-146.9180771272349 370.9483394833948 842) translate(370.9483394833948 842)" /></g><g id="sprotty_115" class="sprotty-edge" opacity="1"><path class="elkedge" d="M 217,738.8668122270742 L 567,842.4148471615721" /><path class="edge arrow" d="M 0,0 L 8,-3 L 8,3 Z" transform="rotate(-163.51906811785517 567 842.4148471615721) translate(567 842.4148471615721)" /></g><g id="sprotty_118" class="sprotty-edge" opacity="1"><path class="elkedge" d="M 212.81262729124236,741 L 391.5824847250509,952" /><path class="edge arrow" d="M 0,0 L 8,-3 L 8,3 Z" transform="rotate(-130.27295566323374 391.5824847250509 952) translate(391.5824847250509 952)" /></g><g id="sprotty_121" class="sprotty-edge" opacity="1"><path class="elkedge" d="M 217,740.7882096069869 L 611.0325865580448,952" /><path class="edge arrow" d="M 0,0 L 8,-3 L 8,3 Z" transform="rotate(-151.80752547398862 611.0325865580448 952) translate(611.0325865580448 952)" /></g><g id="sprotty_124" class="sprotty-edge" opacity="1"><path class="elkedge" d="M 211.63291139240505,741 L 399.44725738396625,1062" /><path class="edge arrow" d="M 0,0 L 8,-3 L 8,3 Z" transform="rotate(-120.3315364470422 399.44725738396625 1062) translate(399.44725738396625 1062)" /></g><g id="sprotty_127" class="sprotty-edge" opacity="1"><path class="elkedge" d="M 214.79746835443038,741 L 628.3502109704641,1062" /><path class="edge arrow" d="M 0,0 L 8,-3 L 8,3 Z" transform="rotate(-142.18135436369792 628.3502109704641 1062) translate(628.3502109704641 1062)" /></g><g id="sprotty_130" class="sprotty-edge" opacity="1"><path class="elkedge" d="M 211.0107411385607,741 L 403.5950590762621,1172" /><path class="edge arrow" d="M 0,0 L 8,-3 L 8,3 Z" transform="rotate(-114.0765897487924 403.5950590762621 1172) translate(403.5950590762621 1172)" /></g><g id="sprotty_133" class="sprotty-edge" opacity="1"><path class="elkedge" d="M 213.42749731471537,741 L 637.4833512352309,1172" /><path class="edge arrow" d="M 0,0 L 8,-3 L 8,3 Z" transform="rotate(-134.53469529037108 637.4833512352309 1172) translate(637.4833512352309 1172)" /></g><g id="sprotty_134" class="sprotty-edge" opacity="1"><path class="elkedge" d="M 0,125.5 L 150,125.5 L 150,736.5 L 201,736.5" /><path class="edge arrow" d="M 0,0 L 8,-3 L 8,3 Z" transform="rotate(180 201 736.5) translate(201 736.5)" /><g id="sprotty_134_j0" transform="translate(150, 736.5)" opacity="1"><circle class="elkjunction" r="2" /></g></g><g id="sprotty_141" class="sprotty-edge" opacity="1"><path class="elkedge" d="M 217,2179.480769230769 L 317,2191.7403846153848" /><path class="edge arrow" d="M 0,0 L 8,-3 L 8,3 Z" transform="rotate(-173.01063484366134 317 2191.7403846153848) translate(317 2191.7403846153848)" /></g><g id="sprotty_144" class="sprotty-edge" opacity="1"><path class="elkedge" d="M 215.90774907749076,2183 L 370.9483394833948,2284" /><path class="edge arrow" d="M 0,0 L 8,-3 L 8,3 Z" transform="rotate(-146.9180771272349 370.9483394833948 2284) translate(370.9483394833948 2284)" /></g><g id="sprotty_147" class="sprotty-edge" opacity="1"><path class="elkedge" d="M 212.81262729124236,2183 L 391.5824847250509,2394" /><path class="edge arrow" d="M 0,0 L 8,-3 L 8,3 Z" transform="rotate(-130.27295566323374 391.5824847250509 2394) translate(391.5824847250509 2394)" /></g><g id="sprotty_150" class="sprotty-edge" opacity="1"><path class="elkedge" d="M 211.63291139240505,2183 L 399.44725738396625,2504" /><path class="edge arrow" d="M 0,0 L 8,-3 L 8,3 Z" transform="rotate(-120.3315364470422 399.44725738396625 2504) translate(399.44725738396625 2504)" /></g><g id="sprotty_153" class="sprotty-edge" opacity="1"><path class="elkedge" d="M 211.0107411385607,2183 L 403.5950590762621,2614" /><path class="edge arrow" d="M 0,0 L 8,-3 L 8,3 Z" transform="rotate(-114.0765897487924 403.5950590762621 2614) translate(403.5950590762621 2614)" /></g><g id="sprotty_156" class="sprotty-edge" opacity="1"><path class="elkedge" d="M 210.62641181581233,2183 L 406.1572545612511,2724" /><path class="edge arrow" d="M 0,0 L 8,-3 L 8,3 Z" transform="rotate(-109.87111491399165 406.1572545612511 2724) translate(406.1572545612511 2724)" /></g><g id="sprotty_157" class="sprotty-edge" opacity="1"><path class="elkedge" d="M 0,125.5 L 150,125.5 L 150,2178.5 L 201,2178.5" /><path class="edge arrow" d="M 0,0 L 8,-3 L 8,3 Z" transform="rotate(180 201 2178.5) translate(201 2178.5)" /><g id="sprotty_157_j0" transform="translate(150, 2178.5)" opacity="1"><circle class="elkjunction" r="2" /></g></g><g id="sprotty_164" class="sprotty-edge" opacity="1"><path class="elkedge" d="M 217,3010.480769230769 L 317,3022.7403846153848" /><path class="edge arrow" d="M 0,0 L 8,-3 L 8,3 Z" transform="rotate(-173.01063484366134 317 3022.7403846153848) translate(317 3022.7403846153848)" /></g><g id="sprotty_167" class="sprotty-edge" opacity="1"><path class="elkedge" d="M 217,3009.9454148471614 L 567,3029.4323144104806" /><path class="edge arrow" d="M 0,0 L 8,-3 L 8,3 Z" transform="rotate(-176.81324131380958 567 3029.4323144104806) translate(567 3029.4323144104806)" /></g><g id="sprotty_170" class="sprotty-edge" opacity="1"><path class="elkedge" d="M 215.90774907749076,3014 L 370.9483394833948,3115" /><path class="edge arrow" d="M 0,0 L 8,-3 L 8,3 Z" transform="rotate(-146.9180771272349 370.9483394833948 3115) translate(370.9483394833948 3115)" /></g><g id="sprotty_173" class="sprotty-edge" opacity="1"><path class="elkedge" d="M 217,3011.866812227074 L 567,3115.414847161572" /><path class="edge arrow" d="M 0,0 L 8,-3 L 8,3 Z" transform="rotate(-163.51906811785517 567 3115.414847161572) translate(567 3115.414847161572)" /></g><g id="sprotty_176" class="sprotty-edge" opacity="1"><path class="elkedge" d="M 212.81262729124236,3014 L 391.5824847250509,3225" /><path class="edge arrow" d="M 0,0 L 8,-3 L 8,3 Z" transform="rotate(-130.27295566323374 391.5824847250509 3225) translate(391.5824847250509 3225)" /></g><g id="sprotty_179" class="sprotty-edge" opacity="1"><path class="elkedge" d="M 217,3013.788209606987 L 611.0325865580448,3225" /><path class="edge arrow" d="M 0,0 L 8,-3 L 8,3 Z" transform="rotate(-151.80752547398862 611.0325865580448 3225) translate(611.0325865580448 3225)" /></g><g id="sprotty_182" class="sprotty-edge" opacity="1"><path class="elkedge" d="M 211.63291139240505,3014 L 399.44725738396625,3335" /><path class="edge arrow" d="M 0,0 L 8,-3 L 8,3 Z" transform="rotate(-120.3315364470422 399.44725738396625 3335) translate(399.44725738396625 3335)" /></g><g id="sprotty_185" class="sprotty-edge" opacity="1"><path class="elkedge" d="M 214.79746835443038,3014 L 628.3502109704641,3335" /><path class="edge arrow" d="M 0,0 L 8,-3 L 8,3 Z" transform="rotate(-142.18135436369792 628.3502109704641 3335) translate(628.3502109704641 3335)" /></g><g id="sprotty_188" class="sprotty-edge" opacity="1"><path class="elkedge" d="M 211.0107411385607,3014 L 403.5950590762621,3445" /><path class="edge arrow" d="M 0,0 L 8,-3 L 8,3 Z" transform="rotate(-114.0765897487924 403.5950590762621 3445) translate(403.5950590762621 3445)" /></g><g id="sprotty_191" class="sprotty-edge" opacity="1"><path class="elkedge" d="M 213.42749731471537,3014 L 637.4833512352309,3445" /><path class="edge arrow" d="M 0,0 L 8,-3 L 8,3 Z" transform="rotate(-134.53469529037108 637.4833512352309 3445) translate(637.4833512352309 3445)" /></g><g id="sprotty_194" class="sprotty-edge" opacity="1"><path class="elkedge" d="M 210.62641181581233,3014 L 406.1572545612511,3555" /><path class="edge arrow" d="M 0,0 L 8,-3 L 8,3 Z" transform="rotate(-109.87111491399165 406.1572545612511 3555) translate(406.1572545612511 3555)" /></g><g id="sprotty_195" class="sprotty-edge" opacity="1"><path class="elkedge" d="M 0,125.5 L 150,125.5 L 150,3009.5 L 201,3009.5" /><path class="edge arrow" d="M 0,0 L 8,-3 L 8,3 Z" transform="rotate(180 201 3009.5) translate(201 3009.5)" /><g id="sprotty_195_j0" transform="translate(150, 3009.5)" opacity="1"><circle class="elkjunction" r="2" /></g></g><g id="sprotty_202" class="sprotty-edge" opacity="1"><path class="elkedge" d="M 217,1458.4807692307693 L 317,1470.7403846153845" /><path class="edge arrow" d="M 0,0 L 8,-3 L 8,3 Z" transform="rotate(-173.0106348436616 317 1470.7403846153845) translate(317 1470.7403846153845)" /></g><g id="sprotty_205" class="sprotty-edge" opacity="1"><path class="elkedge" d="M 215.90774907749076,1462 L 370.9483394833948,1563" /><path class="edge arrow" d="M 0,0 L 8,-3 L 8,3 Z" transform="rotate(-146.9180771272349 370.9483394833948 1563) translate(370.9483394833948 1563)" /></g><g id="sprotty_208" class="sprotty-edge" opacity="1"><path class="elkedge" d="M 212.81262729124236,1462 L 391.5824847250509,1673" /><path class="edge arrow" d="M 0,0 L 8,-3 L 8,3 Z" transform="rotate(-130.27295566323374 391.5824847250509 1673) translate(391.5824847250509 1673)" /></g><g id="sprotty_211" class="sprotty-edge" opacity="1"><path class="elkedge" d="M 211.63291139240505,1462 L 399.44725738396625,1783" /><path class="edge arrow" d="M 0,0 L 8,-3 L 8,3 Z" transform="rotate(-120.3315364470422 399.44725738396625 1783) translate(399.44725738396625 1783)" /></g><g id="sprotty_214" class="sprotty-edge" opacity="1"><path class="elkedge" d="M 211.0107411385607,1462 L 403.5950590762621,1893" /><path class="edge arrow" d="M 0,0 L 8,-3 L 8,3 Z" transform="rotate(-114.0765897487924 403.5950590762621 1893) translate(403.5950590762621 1893)" /></g><g id="sprotty_215" class="sprotty-edge" opacity="1"><path class="elkedge" d="M 0,125.5 L 150,125.5 L 150,1457.5 L 201,1457.5" /><path class="edge arrow" d="M 0,0 L 8,-3 L 8,3 Z" transform="rotate(180 201 1457.5) translate(201 1457.5)" /><g id="sprotty_215_j0" transform="translate(150, 1457.5)" opacity="1"><circle class="elkjunction" r="2" /></g></g></g></g></svg>
