<svg id="sprotty_1" class="sprotty-graph sprotty" tabindex="1002" xmlns="http://www.w3.org/2000/svg" viewBox="0 0 2802 1183"><style>
.elknode {
    stroke: #448;
    stroke-width: 2;
    fill: #ddf;
    fill-opacity: 0.5;
}

.elkport {
    stroke: #448;
    stroke-width: 1;
    fill: #66c;
}

.elkedge {
    fill: none;
    stroke: #88f;
    stroke-width: 8;
    stroke-opacity: 0.3;
    pointer-events: stroke;
    stroke-linejoin: round;
}

.elkedge:hover {
    stroke: #448;
    stroke-width: 8;
    stroke-opacity: 1;
    stroke-dasharray: 16px;
    stroke-dashoffset: 32px;
    animation: stroke 0.5s linear infinite;
}

@keyframes stroke {
    to {
        stroke-dashoffset: 0;
    }
}

.elkedge.arrow {
    fill: #336;
}

.elklabel {
    stroke-width: 0;
    stroke: #000;
    fill: #000;
    font-family: sans-serif;
    font-size: 10pt;
    dominant-baseline: hanging;
}

.elklabel:hover {
    font-size: 24pt;
}

.elkjunction {
    stroke: none;
    fill: #224;
}

.selected &gt; rect {
    stroke-width: 3;
}

.mouseover {
    stroke: #88f;
}
/*
 * Copyright (C) 2017 TypeFox and others.
 *
 * Licensed under the Apache License, Version 2.0 (the &quot;License&quot;); you may not use this file except in compliance with the License.
 * You may obtain a copy of the License at http://www.apache.org/licenses/LICENSE-2.0
 */

.sprotty {
    padding: 0px;
    font-family: &quot;Helvetica Neue&quot;, Helvetica, Arial, sans-serif;
}

.sprotty-hidden {
    display: block;
    position: absolute;
    width: 0px;
    height: 0px;
}

.sprotty-popup {
    font-family: &quot;Helvetica Neue&quot;, Helvetica, Arial, sans-serif;
    position: absolute;
    background: white;
    border-radius: 5px;
    border: 1px solid;
    max-width: 400px;
    min-width: 100px;
}

.sprotty-popup &gt; div {
    margin: 10px;
}

.sprotty-popup-closed {
    display: none;
}
</style><g transform="scale(1) translate(0,0)"><g id="sprotty_3" transform="translate(117, 71)" opacity="1"><rect class="elknode" x="0" y="0" rx="10" width="2568" height="1062" /><g id="sprotty_5" transform="translate(2268, 238)" opacity="1"><rect class="elknode" x="0" y="0" rx="10" width="200" height="60" /><text id="sprotty_6" class="elklabel" transform="translate(5, 22) translate(0, 0)" opacity="1">k8s_storage_k8s_io_v1_storage_class.this</text></g><g id="sprotty_7" transform="translate(1651, 132.5)" opacity="1"><rect class="elknode" x="0" y="0" rx="10" width="400" height="710" /><g id="sprotty_28" transform="translate(100, 50)" opacity="1"><rect class="elknode" x="0" y="0" rx="10" width="200" height="60" /><text id="sprotty_29" class="elklabel" transform="translate(5, 22) translate(0, 0)" opacity="1">k8s_apps_v1_deployment.this</text></g><g id="sprotty_30" transform="translate(100, 160)" opacity="1"><rect class="elknode" x="0" y="0" rx="10" width="200" height="60" /><text id="sprotty_31" class="elklabel" transform="translate(5, 22) translate(0, 0)" opacity="1">local.k8s_apps_v1_deployment_parameters</text></g><g id="sprotty_33" transform="translate(100, 270)" opacity="1"><rect class="elknode" x="0" y="0" rx="10" width="200" height="60" /><text id="sprotty_34" class="elklabel" transform="translate(5, 22) translate(0, 0)" opacity="1">k8s_core_v1_service.this</text></g><g id="sprotty_35" transform="translate(100, 380)" opacity="1"><rect class="elknode" x="0" y="0" rx="10" width="200" height="60" /><text id="sprotty_36" class="elklabel" transform="translate(5, 22) translate(0, 0)" opacity="1">local.k8s_core_v1_service_parameters</text></g><g id="sprotty_38" transform="translate(100, 490)" opacity="1"><rect class="elknode" x="0" y="0" rx="10" width="200" height="60" /><text id="sprotty_39" class="elklabel" transform="translate(5, 22) translate(0, 0)" opacity="1">local.selector</text></g><g id="sprotty_41" transform="translate(100, 600)" opacity="1"><rect class="elknode" x="0" y="0" rx="10" width="200" height="60" /><text id="sprotty_42" class="elklabel" transform="translate(5, 22) translate(0, 0)" opacity="1">local.labels</text></g><g id="sprotty_9" transform="translate(400, 50)" opacity="1"><rect class="elkport" x="0" y="0" width="16" height="9" /><text id="sprotty_10" class="elklabel" transform="translate(17, 10) translate(0, 0)" opacity="1">name</text></g><g id="sprotty_44" transform="translate(-16, 50)" opacity="1"><rect class="elkport" x="0" y="0" width="16" height="9" /><text id="sprotty_45" class="elklabel" transform="translate(-1, 10) translate(0, 0)" opacity="1">parameters</text></g><g id="sprotty_48" transform="translate(400, 110)" opacity="1"><rect class="elkport" x="0" y="0" width="16" height="9" /><text id="sprotty_49" class="elklabel" transform="translate(17, 10) translate(0, 0)" opacity="1">deployment</text></g><g id="sprotty_52" transform="translate(400, 170)" opacity="1"><rect class="elkport" x="0" y="0" width="16" height="9" /><text id="sprotty_53" class="elklabel" transform="translate(17, 10) translate(0, 0)" opacity="1">service</text></g><text id="sprotty_8" class="elklabel" transform="translate(0, -21) translate(0, 0)" opacity="1">deployment-service</text></g><g id="sprotty_12" transform="translate(1234, 157)" opacity="1"><rect class="elknode" x="0" y="0" rx="10" width="200" height="60" /><text id="sprotty_13" class="elklabel" transform="translate(5, 22) translate(0, 0)" opacity="1">local.parameters</text></g><g id="sprotty_14" transform="translate(117, 126.5)" opacity="1"><rect class="elknode" x="0" y="0" rx="10" width="900" height="710" /><g id="sprotty_59" transform="translate(100, 50)" opacity="1"><rect class="elknode" x="0" y="0" rx="10" width="200" height="60" /><text id="sprotty_60" class="elklabel" transform="translate(5, 22) translate(0, 0)" opacity="1">k8s_core_v1_service_account.this</text></g><g id="sprotty_61" transform="translate(350, 50)" opacity="1"><rect class="elknode" x="0" y="0" rx="10" width="200" height="60" /><text id="sprotty_62" class="elklabel" transform="translate(5, 22) translate(0, 0)" opacity="1">local.k8s_core_v1_service_account_parameters</text></g><g id="sprotty_64" transform="translate(600, 50)" opacity="1"><rect class="elknode" x="0" y="0" rx="10" width="200" height="60" /><text id="sprotty_65" class="elklabel" transform="translate(5, 22) translate(0, 0)" opacity="1">k8s_rbac_authorization_k8s_io_v1_cluster_role.this</text></g><g id="sprotty_66" transform="translate(100, 160)" opacity="1"><rect class="elknode" x="0" y="0" rx="10" width="200" height="60" /><text id="sprotty_67" class="elklabel" transform="translate(5, 22) translate(0, 0)" opacity="1">local.k8s_rbac_authorization_k8s_io_v1_cluster_role_parameters</text></g><g id="sprotty_69" transform="translate(350, 160)" opacity="1"><rect class="elknode" x="0" y="0" rx="10" width="200" height="60" /><text id="sprotty_70" class="elklabel" transform="translate(5, 22) translate(0, 0)" opacity="1">k8s_rbac_authorization_k8s_io_v1_cluster_role_binding.this</text></g><g id="sprotty_71" transform="translate(600, 160)" opacity="1"><rect class="elknode" x="0" y="0" rx="10" width="200" height="60" /><text id="sprotty_72" class="elklabel" transform="translate(5, 22) translate(0, 0)" opacity="1">local.k8s_rbac_authorization_k8s_io_v1_cluster_role_binding_parameters</text></g><g id="sprotty_77" transform="translate(100, 270)" opacity="1"><rect class="elknode" x="0" y="0" rx="10" width="200" height="60" /><text id="sprotty_78" class="elklabel" transform="translate(5, 22) translate(0, 0)" opacity="1">k8s_rbac_authorization_k8s_io_v1_role.this</text></g><g id="sprotty_79" transform="translate(350, 270)" opacity="1"><rect class="elknode" x="0" y="0" rx="10" width="200" height="60" /><text id="sprotty_80" class="elklabel" transform="translate(5, 22) translate(0, 0)" opacity="1">local.k8s_rbac_authorization_k8s_io_v1_role_parameters</text></g><g id="sprotty_82" transform="translate(600, 270)" opacity="1"><rect class="elknode" x="0" y="0" rx="10" width="200" height="60" /><text id="sprotty_83" class="elklabel" transform="translate(5, 22) translate(0, 0)" opacity="1">k8s_rbac_authorization_k8s_io_v1_role_binding.this</text></g><g id="sprotty_84" transform="translate(100, 380)" opacity="1"><rect class="elknode" x="0" y="0" rx="10" width="200" height="60" /><text id="sprotty_85" class="elklabel" transform="translate(5, 22) translate(0, 0)" opacity="1">local.k8s_rbac_authorization_k8s_io_v1_role_binding_parameters</text></g><g id="sprotty_90" transform="translate(350, 380)" opacity="1"><rect class="elknode" x="0" y="0" rx="10" width="200" height="60" /><text id="sprotty_91" class="elklabel" transform="translate(5, 22) translate(0, 0)" opacity="1">local.cluster_role_parameters</text></g><g id="sprotty_98" transform="translate(600, 380)" opacity="1"><rect class="elknode" x="0" y="0" rx="10" width="200" height="60" /><text id="sprotty_99" class="elklabel" transform="translate(5, 22) translate(0, 0)" opacity="1">local.cluster_role_ref</text></g><g id="sprotty_101" transform="translate(100, 490)" opacity="1"><rect class="elknode" x="0" y="0" rx="10" width="200" height="60" /><text id="sprotty_102" class="elklabel" transform="translate(5, 22) translate(0, 0)" opacity="1">local.cluster_role_rules</text></g><g id="sprotty_104" transform="translate(350, 490)" opacity="1"><rect class="elknode" x="0" y="0" rx="10" width="200" height="60" /><text id="sprotty_105" class="elklabel" transform="translate(5, 22) translate(0, 0)" opacity="1">local.parameters</text></g><g id="sprotty_111" transform="translate(600, 490)" opacity="1"><rect class="elknode" x="0" y="0" rx="10" width="200" height="60" /><text id="sprotty_112" class="elklabel" transform="translate(5, 22) translate(0, 0)" opacity="1">local.subjects</text></g><g id="sprotty_117" transform="translate(100, 600)" opacity="1"><rect class="elknode" x="0" y="0" rx="10" width="200" height="60" /><text id="sprotty_118" class="elklabel" transform="translate(5, 22) translate(0, 0)" opacity="1">local.role_ref</text></g><g id="sprotty_122" transform="translate(350, 600)" opacity="1"><rect class="elknode" x="0" y="0" rx="10" width="200" height="60" /><text id="sprotty_123" class="elklabel" transform="translate(5, 22) translate(0, 0)" opacity="1">local.role_rules</text></g><g id="sprotty_126" transform="translate(600, 600)" opacity="1"><rect class="elknode" x="0" y="0" rx="10" width="200" height="60" /><text id="sprotty_127" class="elklabel" transform="translate(5, 22) translate(0, 0)" opacity="1">local.labels</text></g><g id="sprotty_16" transform="translate(900, 50)" opacity="1"><rect class="elkport" x="0" y="0" width="16" height="9" /><text id="sprotty_17" class="elklabel" transform="translate(17, -1) translate(0, 0)" opacity="1">service_account</text></g><g id="sprotty_74" transform="translate(-16, 50)" opacity="1"><rect class="elkport" x="0" y="0" width="16" height="9" /><text id="sprotty_75" class="elklabel" transform="translate(-1, 10) translate(0, 0)" opacity="1">cluster_role_rules</text></g><g id="sprotty_87" transform="translate(-16, 110)" opacity="1"><rect class="elkport" x="0" y="0" width="16" height="9" /><text id="sprotty_88" class="elklabel" transform="translate(-1, 10) translate(0, 0)" opacity="1">role_rules</text></g><g id="sprotty_92" transform="translate(-16, 170)" opacity="1"><rect class="elkport" x="0" y="0" width="16" height="9" /><text id="sprotty_93" class="elklabel" transform="translate(-1, 10) translate(0, 0)" opacity="1">name</text></g><g id="sprotty_95" transform="translate(-16, 230)" opacity="1"><rect class="elkport" x="0" y="0" width="16" height="9" /><text id="sprotty_96" class="elklabel" transform="translate(-1, 10) translate(0, 0)" opacity="1">namespace</text></g><g id="sprotty_107" transform="translate(-16, 290)" opacity="1"><rect class="elkport" x="0" y="0" width="16" height="9" /><text id="sprotty_108" class="elklabel" transform="translate(-1, 10) translate(0, 0)" opacity="1">overrides</text></g><g id="sprotty_134" transform="translate(900, 110)" opacity="1"><rect class="elkport" x="0" y="0" width="16" height="9" /><text id="sprotty_135" class="elklabel" transform="translate(17, 10) translate(0, 0)" opacity="1">name</text></g><text id="sprotty_15" class="elklabel" transform="translate(0, -21) translate(0, 0)" opacity="1">rbac</text></g><g id="sprotty_19" transform="translate(-16, 882)" opacity="1"><rect class="elkport" x="0" y="0" width="16" height="9" /><text id="sprotty_20" class="elklabel" transform="translate(-1, 10) translate(0, 0)" opacity="1">image</text></g><g id="sprotty_22" transform="translate(-16, 942)" opacity="1"><rect class="elkport" x="0" y="0" width="16" height="9" /><text id="sprotty_23" class="elklabel" transform="translate(-1, 10) translate(0, 0)" opacity="1">medium</text></g><g id="sprotty_25" transform="translate(-16, 50)" opacity="1"><rect class="elkport" x="0" y="0" width="16" height="9" /><text id="sprotty_26" class="elklabel" transform="translate(-1, 10) translate(0, 0)" opacity="1">ports</text></g><g id="sprotty_56" transform="translate(-16, 1002)" opacity="1"><rect class="elkport" x="0" y="0" width="16" height="9" /><text id="sprotty_57" class="elklabel" transform="translate(-1, 10) translate(0, 0)" opacity="1">overrides</text></g><g id="sprotty_138" transform="translate(-16, 296.5)" opacity="1"><rect class="elkport" x="0" y="0" width="16" height="9" /><text id="sprotty_139" class="elklabel" transform="translate(-1, 10) translate(0, 0)" opacity="1">name</text></g><g id="sprotty_141" transform="translate(-16, 356.5)" opacity="1"><rect class="elkport" x="0" y="0" width="16" height="9" /><text id="sprotty_142" class="elklabel" transform="translate(-1, 10) translate(0, 0)" opacity="1">namespace</text></g><g id="sprotty_144" transform="translate(2568, 343.5)" opacity="1"><rect class="elkport" x="0" y="0" width="16" height="9" /><text id="sprotty_145" class="elklabel" transform="translate(17, 10) translate(0, 0)" opacity="1">deployment</text></g><g id="sprotty_147" transform="translate(2568, 182.5)" opacity="1"><rect class="elkport" x="0" y="0" width="16" height="9" /><text id="sprotty_148" class="elklabel" transform="translate(17, 10) translate(0, 0)" opacity="1">name</text></g><g id="sprotty_150" transform="translate(2568, 403.5)" opacity="1"><rect class="elkport" x="0" y="0" width="16" height="9" /><text id="sprotty_151" class="elklabel" transform="translate(17, 10) translate(0, 0)" opacity="1">service</text></g><g id="sprotty_153" transform="translate(2568, 263.5)" opacity="1"><rect class="elkport" x="0" y="0" width="16" height="9" /><text id="sprotty_154" class="elklabel" transform="translate(17, 10) translate(0, 0)" opacity="1">storage_class</text></g><text id="sprotty_4" class="elklabel" transform="translate(0, -21) translate(0, 0)" opacity="1">modules/modules/nfs-provisioner-empty-dir</text><g id="sprotty_11" class="sprotty-edge" opacity="1"><path class="elkedge" d="M 2067,187 L 2218,187 L 2218,268 L 2268,268" /><path class="edge arrow" d="M 0,0 L 8,-3 L 8,3 Z" transform="rotate(180 2268 268) translate(2268 268)" /><g id="sprotty_11_j0" transform="translate(2218, 187)" opacity="1"><circle class="elkjunction" r="2" /></g></g><g id="sprotty_18" class="sprotty-edge" opacity="1"><path class="elkedge" d="M 1033,181 L 1234,181" /><path class="edge arrow" d="M 0,0 L 8,-3 L 8,3 Z" transform="rotate(180 1234 181) translate(1234 181)" /></g><g id="sprotty_21" class="sprotty-edge" opacity="1"><path class="elkedge" d="M 0,886.5 L 1084,886.5 L 1084,193 L 1234,193" /><path class="edge arrow" d="M 0,0 L 8,-3 L 8,3 Z" transform="rotate(180 1234 193) translate(1234 193)" /></g><g id="sprotty_24" class="sprotty-edge" opacity="1"><path class="elkedge" d="M 0,946.5 L 1134,946.5 L 1134,205 L 1234,205" /><path class="edge arrow" d="M 0,0 L 8,-3 L 8,3 Z" transform="rotate(180 1234 205) translate(1234 205)" /></g><g id="sprotty_27" class="sprotty-edge" opacity="1"><path class="elkedge" d="M 0,54.5 L 1084,54.5 L 1084,169 L 1234,169" /><path class="edge arrow" d="M 0,0 L 8,-3 L 8,3 Z" transform="rotate(180 1234 169) translate(1234 169)" /></g><g id="sprotty_32" class="sprotty-edge" opacity="1"><path class="elkedge" d="M 1851,292.5 L 1851,242.5" /><path class="edge arrow" d="M 0,0 L 8,-3 L 8,3 Z" transform="rotate(90 1851 242.5) translate(1851 242.5)" /></g><g id="sprotty_37" class="sprotty-edge" opacity="1"><path class="elkedge" d="M 1851,512.5 L 1851,462.5" /><path class="edge arrow" d="M 0,0 L 8,-3 L 8,3 Z" transform="rotate(90 1851 462.5) translate(1851 462.5)" /></g><g id="sprotty_40" class="sprotty-edge" opacity="1"><path class="elkedge" d="M 1851,622.5 L 1851,352.5" /><path class="edge arrow" d="M 0,0 L 8,-3 L 8,3 Z" transform="rotate(90 1851 352.5) translate(1851 352.5)" /></g><g id="sprotty_43" class="sprotty-edge" opacity="1"><path class="elkedge" d="M 1851,732.5 L 1851,572.5" /><path class="edge arrow" d="M 0,0 L 8,-3 L 8,3 Z" transform="rotate(90 1851 572.5) translate(1851 572.5)" /></g><g id="sprotty_46" class="sprotty-edge" opacity="1"><path class="elkedge" d="M 1644.6264118158124,191.5 L 1840.1572545612512,732.5" /><path class="edge arrow" d="M 0,0 L 8,-3 L 8,3 Z" transform="rotate(-109.87111491399165 1840.1572545612512 732.5) translate(1840.1572545612512 732.5)" /></g><g id="sprotty_47" class="sprotty-edge" opacity="1"><path class="elkedge" d="M 1851,732.5 L 1851,682.5" /><path class="edge arrow" d="M 0,0 L 8,-3 L 8,3 Z" transform="rotate(90 1851 682.5) translate(1851 682.5)" /></g><g id="sprotty_50" class="sprotty-edge" opacity="1"><path class="elkedge" d="M 1951,229.08653846153845 L 2051,245.6730769230769" /><path class="edge arrow" d="M 0,0 L 8,-3 L 8,3 Z" transform="rotate(-170.58235285466571 2051 245.6730769230769) translate(2051 245.6730769230769)" /></g><g id="sprotty_51" class="sprotty-edge" opacity="1"><path class="elkedge" d="M 1876.417515274949,402.5 L 2055.1873727087577,191.5" /><path class="edge arrow" d="M 0,0 L 8,-3 L 8,3 Z" transform="rotate(130.27295566323377 2055.1873727087577 191.5) translate(2055.1873727087577 191.5)" /></g><g id="sprotty_54" class="sprotty-edge" opacity="1"><path class="elkedge" d="M 1900.7211155378486,402.5 L 2051.5418326693225,311.5" /><path class="edge arrow" d="M 0,0 L 8,-3 L 8,3 Z" transform="rotate(148.89467282183264 2051.5418326693225 311.5) translate(2051.5418326693225 311.5)" /></g><g id="sprotty_55" class="sprotty-edge" opacity="1"><path class="elkedge" d="M 1434,187 L 1635,187" /><path class="edge arrow" d="M 0,0 L 8,-3 L 8,3 Z" transform="rotate(180 1635 187) translate(1635 187)" /></g><g id="sprotty_58" class="sprotty-edge" opacity="1"><path class="elkedge" d="M 0,1006.5 L 1484,1006.5 L 1484,187 L 1635,187" /><path class="edge arrow" d="M 0,0 L 8,-3 L 8,3 Z" transform="rotate(180 1635 187) translate(1635 187)" /><g id="sprotty_58_j0" transform="translate(1484, 187)" opacity="1"><circle class="elkjunction" r="2" /></g></g><g id="sprotty_63" class="sprotty-edge" opacity="1"><path class="elkedge" d="M 467,206.5 L 417,206.5" /><path class="edge arrow" d="M 0,0 L 8,-3 L 8,3 Z" transform="rotate(0 417 206.5) translate(417 206.5)" /></g><g id="sprotty_68" class="sprotty-edge" opacity="1"><path class="elkedge" d="M 417,294.5 L 717,228.5" /><path class="edge arrow" d="M 0,0 L 8,-3 L 8,3 Z" transform="rotate(167.59258147259925 717 228.5) translate(717 228.5)" /></g><g id="sprotty_73" class="sprotty-edge" opacity="1"><path class="elkedge" d="M 717,316.5 L 667,316.5" /><path class="edge arrow" d="M 0,0 L 8,-3 L 8,3 Z" transform="rotate(0 667 316.5) translate(667 316.5)" /></g><g id="sprotty_76" class="sprotty-edge" opacity="1"><path class="elkedge" d="M 117,183.36681222707423 L 467,286.9148471615721" /><path class="edge arrow" d="M 0,0 L 8,-3 L 8,3 Z" transform="rotate(-163.51906811785517 467 286.9148471615721) translate(467 286.9148471615721)" /></g><g id="sprotty_81" class="sprotty-edge" opacity="1"><path class="elkedge" d="M 467,426.5 L 417,426.5" /><path class="edge arrow" d="M 0,0 L 8,-3 L 8,3 Z" transform="rotate(0 417 426.5) translate(417 426.5)" /></g><g id="sprotty_86" class="sprotty-edge" opacity="1"><path class="elkedge" d="M 417,514.5 L 717,448.5" /><path class="edge arrow" d="M 0,0 L 8,-3 L 8,3 Z" transform="rotate(167.59258147259925 717 448.5) translate(717 448.5)" /></g><g id="sprotty_89" class="sprotty-edge" opacity="1"><path class="elkedge" d="M 117,243.09604519774012 L 717,400.2994350282486" /><path class="edge arrow" d="M 0,0 L 8,-3 L 8,3 Z" transform="rotate(-165.31819760293897 717 400.2994350282486) translate(717 400.2994350282486)" /></g><g id="sprotty_94" class="sprotty-edge" opacity="1"><path class="elkedge" d="M 117,305.1135371179039 L 508.656050955414,506.5" /><path class="edge arrow" d="M 0,0 L 8,-3 L 8,3 Z" transform="rotate(-152.78812859608504 508.656050955414 506.5) translate(508.656050955414 506.5)" /></g><g id="sprotty_97" class="sprotty-edge" opacity="1"><path class="elkedge" d="M 117,364.0655021834061 L 488.70940170940173,506.5" /><path class="edge arrow" d="M 0,0 L 8,-3 L 8,3 Z" transform="rotate(-159.03377842411962 488.70940170940173 506.5) translate(488.70940170940173 506.5)" /></g><g id="sprotty_100" class="sprotty-edge" opacity="1"><path class="elkedge" d="M 667,536.5 L 717,536.5" /><path class="edge arrow" d="M 0,0 L 8,-3 L 8,3 Z" transform="rotate(180 717 536.5) translate(717 536.5)" /></g><g id="sprotty_103" class="sprotty-edge" opacity="1"><path class="elkedge" d="M 111.01074113856069,185.5 L 303.5950590762621,616.5" /><path class="edge arrow" d="M 0,0 L 8,-3 L 8,3 Z" transform="rotate(-114.0765897487924 303.5950590762621 616.5) translate(303.5950590762621 616.5)" /></g><g id="sprotty_106" class="sprotty-edge" opacity="1"><path class="elkedge" d="M 567,616.5 L 567,236.5" /><path class="edge arrow" d="M 0,0 L 8,-3 L 8,3 Z" transform="rotate(90 567 236.5) translate(567 236.5)" /></g><g id="sprotty_109" class="sprotty-edge" opacity="1"><path class="elkedge" d="M 117,417.2532751091703 L 502.94405594405595,236.5" /><path class="edge arrow" d="M 0,0 L 8,-3 L 8,3 Z" transform="rotate(154.90439887692173 502.94405594405595 236.5) translate(502.94405594405595 236.5)" /></g><g id="sprotty_110" class="sprotty-edge" opacity="1"><path class="elkedge" d="M 817,506.5 L 817,346.5" /><path class="edge arrow" d="M 0,0 L 8,-3 L 8,3 Z" transform="rotate(90 817 346.5) translate(817 346.5)" /></g><g id="sprotty_113" class="sprotty-edge" opacity="1"><path class="elkedge" d="M 817,616.5 L 817,346.5" /><path class="edge arrow" d="M 0,0 L 8,-3 L 8,3 Z" transform="rotate(90 817 346.5) translate(817 346.5)" /></g><g id="sprotty_114" class="sprotty-edge" opacity="1"><path class="elkedge" d="M 532.909090909091,506.5 L 351.0909090909091,346.5" /><path class="edge arrow" d="M 0,0 L 8,-3 L 8,3 Z" transform="rotate(41.34777721969366 351.0909090909091 346.5) translate(351.0909090909091 346.5)" /></g><g id="sprotty_115" class="sprotty-edge" opacity="1"><path class="elkedge" d="M 317,616.5 L 317,346.5" /><path class="edge arrow" d="M 0,0 L 8,-3 L 8,3 Z" transform="rotate(90 317 346.5) translate(317 346.5)" /></g><g id="sprotty_116" class="sprotty-edge" opacity="1"><path class="elkedge" d="M 117,416.9807692307692 L 257.2870813397129,346.5" /><path class="edge arrow" d="M 0,0 L 8,-3 L 8,3 Z" transform="rotate(153.32487061155223 257.2870813397129 346.5) translate(257.2870813397129 346.5)" /></g><g id="sprotty_119" class="sprotty-edge" opacity="1"><path class="elkedge" d="M 317,726.5 L 317,566.5" /><path class="edge arrow" d="M 0,0 L 8,-3 L 8,3 Z" transform="rotate(90 317 566.5) translate(317 566.5)" /></g><g id="sprotty_120" class="sprotty-edge" opacity="1"><path class="elkedge" d="M 717,624.5 L 417,558.5" /><path class="edge arrow" d="M 0,0 L 8,-3 L 8,3 Z" transform="rotate(12.407418527400743 417 558.5) translate(417 558.5)" /></g><g id="sprotty_121" class="sprotty-edge" opacity="1"><path class="elkedge" d="M 567,616.5 L 567,456.5" /><path class="edge arrow" d="M 0,0 L 8,-3 L 8,3 Z" transform="rotate(90 567 456.5) translate(567 456.5)" /></g><g id="sprotty_124" class="sprotty-edge" opacity="1"><path class="elkedge" d="M 567,726.5 L 567,456.5" /><path class="edge arrow" d="M 0,0 L 8,-3 L 8,3 Z" transform="rotate(90 567 456.5) translate(567 456.5)" /></g><g id="sprotty_125" class="sprotty-edge" opacity="1"><path class="elkedge" d="M 117,421.09606986899564 L 467,425.2991266375546" /><path class="edge arrow" d="M 0,0 L 8,-3 L 8,3 Z" transform="rotate(-179.3119833176395 467 425.2991266375546) translate(467 425.2991266375546)" /></g><g id="sprotty_128" class="sprotty-edge" opacity="1"><path class="elkedge" d="M 115.99451152579583,305.5 L 770.3699231613612,726.5" /><path class="edge arrow" d="M 0,0 L 8,-3 L 8,3 Z" transform="rotate(-147.24432774527776 770.3699231613612 726.5) translate(770.3699231613612 726.5)" /></g><g id="sprotty_129" class="sprotty-edge" opacity="1"><path class="elkedge" d="M 748.8181818181819,726.5 L 635.1818181818181,676.5" /><path class="edge arrow" d="M 0,0 L 8,-3 L 8,3 Z" transform="rotate(23.74949449286674 635.1818181818181 676.5) translate(635.1818181818181 676.5)" /></g><g id="sprotty_130" class="sprotty-edge" opacity="1"><path class="elkedge" d="M 116.21891418563924,365.5 L 518.8739054290718,616.5" /><path class="edge arrow" d="M 0,0 L 8,-3 L 8,3 Z" transform="rotate(-148.0621360923082 518.8739054290718 616.5) translate(518.8739054290718 616.5)" /></g><g id="sprotty_131" class="sprotty-edge" opacity="1"><path class="elkedge" d="M 111.05488474204171,305.5 L 303.3007683863886,726.5" /><path class="edge arrow" d="M 0,0 L 8,-3 L 8,3 Z" transform="rotate(-114.54338541936511 303.3007683863886 726.5) translate(303.3007683863886 726.5)" /></g><g id="sprotty_132" class="sprotty-edge" opacity="1"><path class="elkedge" d="M 112.9980601357905,245.5 L 540.3462657613967,726.5" /><path class="edge arrow" d="M 0,0 L 8,-3 L 8,3 Z" transform="rotate(-131.61973894434882 540.3462657613967 726.5) translate(540.3462657613967 726.5)" /></g><g id="sprotty_133" class="sprotty-edge" opacity="1"><path class="elkedge" d="M 351.0909090909091,236.5 L 782.9090909090909,616.5" /><path class="edge arrow" d="M 0,0 L 8,-3 L 8,3 Z" transform="rotate(-138.65222278030632 782.9090909090909 616.5) translate(782.9090909090909 616.5)" /></g><g id="sprotty_136" class="sprotty-edge" opacity="1"><path class="elkedge" d="M 417,211.3728813559322 L 1017,240.61016949152543" /><path class="edge arrow" d="M 0,0 L 8,-3 L 8,3 Z" transform="rotate(-177.21025132948532 1017 240.61016949152543) translate(1017 240.61016949152543)" /></g><g id="sprotty_137" class="sprotty-edge" opacity="1"><path class="elkedge" d="M 417,202.89830508474574 L 1017,181.28813559322035" /><path class="edge arrow" d="M 0,0 L 8,-3 L 8,3 Z" transform="rotate(177.9372724518615 1017 181.28813559322035) translate(1017 181.28813559322035)" /></g><g id="sprotty_140" class="sprotty-edge" opacity="1"><path class="elkedge" d="M 0,301 L 101,301" /><path class="edge arrow" d="M 0,0 L 8,-3 L 8,3 Z" transform="rotate(180 101 301) translate(101 301)" /></g><g id="sprotty_143" class="sprotty-edge" opacity="1"><path class="elkedge" d="M 0,361 L 101,361" /><path class="edge arrow" d="M 0,0 L 8,-3 L 8,3 Z" transform="rotate(180 101 361) translate(101 361)" /></g><g id="sprotty_146" class="sprotty-edge" opacity="1"><path class="elkedge" d="M 2067,247 L 2168,247 L 2168,348 L 2568,348" /><path class="edge arrow" d="M 0,0 L 8,-3 L 8,3 Z" transform="rotate(180 2568 348) translate(2568 348)" /></g><g id="sprotty_149" class="sprotty-edge" opacity="1"><path class="elkedge" d="M 2067,187 L 2568,187" /><path class="edge arrow" d="M 0,0 L 8,-3 L 8,3 Z" transform="rotate(180 2568 187) translate(2568 187)" /></g><g id="sprotty_152" class="sprotty-edge" opacity="1"><path class="elkedge" d="M 2067,307 L 2118,307 L 2118,408 L 2568,408" /><path class="edge arrow" d="M 0,0 L 8,-3 L 8,3 Z" transform="rotate(180 2568 408) translate(2568 408)" /></g><g id="sprotty_155" class="sprotty-edge" opacity="1"><path class="elkedge" d="M 2468,268 L 2568,268" /><path class="edge arrow" d="M 0,0 L 8,-3 L 8,3 Z" transform="rotate(180 2568 268) translate(2568 268)" /></g></g></g></svg>
