<svg id="sprotty_1" class="sprotty-graph sprotty" tabindex="1002" xmlns="http://www.w3.org/2000/svg" viewBox="0 0 1868 1021"><style>
.elknode {
    stroke: #448;
    stroke-width: 2;
    fill: #ddf;
    fill-opacity: 0.5;
}

.elkport {
    stroke: #448;
    stroke-width: 1;
    fill: #66c;
}

.elkedge {
    fill: none;
    stroke: #88f;
    stroke-width: 8;
    stroke-opacity: 0.3;
    pointer-events: stroke;
    stroke-linejoin: round;
}

.elkedge:hover {
    stroke: #448;
    stroke-width: 8;
    stroke-opacity: 1;
    stroke-dasharray: 16px;
    stroke-dashoffset: 32px;
    animation: stroke 0.5s linear infinite;
}

@keyframes stroke {
    to {
        stroke-dashoffset: 0;
    }
}

.elkedge.arrow {
    fill: #336;
}

.elklabel {
    stroke-width: 0;
    stroke: #000;
    fill: #000;
    font-family: sans-serif;
    font-size: 10pt;
    dominant-baseline: hanging;
}

.elklabel:hover {
    font-size: 24pt;
}

.elkjunction {
    stroke: none;
    fill: #224;
}

.selected &gt; rect {
    stroke-width: 3;
}

.mouseover {
    stroke: #88f;
}
/*
 * Copyright (C) 2017 TypeFox and others.
 *
 * Licensed under the Apache License, Version 2.0 (the &quot;License&quot;); you may not use this file except in compliance with the License.
 * You may obtain a copy of the License at http://www.apache.org/licenses/LICENSE-2.0
 */

.sprotty {
    padding: 0px;
    font-family: &quot;Helvetica Neue&quot;, Helvetica, Arial, sans-serif;
}

.sprotty-hidden {
    display: block;
    position: absolute;
    width: 0px;
    height: 0px;
}

.sprotty-popup {
    font-family: &quot;Helvetica Neue&quot;, Helvetica, Arial, sans-serif;
    position: absolute;
    background: white;
    border-radius: 5px;
    border: 1px solid;
    max-width: 400px;
    min-width: 100px;
}

.sprotty-popup &gt; div {
    margin: 10px;
}

.sprotty-popup-closed {
    display: none;
}
</style><g transform="scale(1) translate(0,0)"><g id="sprotty_3" transform="translate(117, 71)" opacity="1"><rect class="elknode" x="0" y="0" rx="10" width="1634" height="900" /><g id="sprotty_5" transform="translate(450, 444.5)" opacity="1"><rect class="elknode" x="0" y="0" rx="10" width="200" height="60" /><text id="sprotty_6" class="elklabel" transform="translate(5, 22) translate(0, 0)" opacity="1">local.parameters</text></g><g id="sprotty_46" transform="translate(867, 360)" opacity="1"><rect class="elknode" x="0" y="0" rx="10" width="650" height="490" /><g id="sprotty_48" transform="translate(100, 50)" opacity="1"><rect class="elknode" x="0" y="0" rx="10" width="200" height="60" /><text id="sprotty_49" class="elklabel" transform="translate(5, 22) translate(0, 0)" opacity="1">k8s_apps_v1_deployment.this</text></g><g id="sprotty_50" transform="translate(350, 50)" opacity="1"><rect class="elknode" x="0" y="0" rx="10" width="200" height="60" /><text id="sprotty_51" class="elklabel" transform="translate(5, 22) translate(0, 0)" opacity="1">local.k8s_apps_v1_deployment_parameters</text></g><g id="sprotty_53" transform="translate(100, 160)" opacity="1"><rect class="elknode" x="0" y="0" rx="10" width="200" height="60" /><text id="sprotty_54" class="elklabel" transform="translate(5, 22) translate(0, 0)" opacity="1">k8s_core_v1_service.this</text></g><g id="sprotty_55" transform="translate(350, 160)" opacity="1"><rect class="elknode" x="0" y="0" rx="10" width="200" height="60" /><text id="sprotty_56" class="elklabel" transform="translate(5, 22) translate(0, 0)" opacity="1">local.k8s_core_v1_service_parameters</text></g><g id="sprotty_61" transform="translate(100, 270)" opacity="1"><rect class="elknode" x="0" y="0" rx="10" width="200" height="60" /><text id="sprotty_62" class="elklabel" transform="translate(5, 22) translate(0, 0)" opacity="1">local.podAnnotations</text></g><g id="sprotty_64" transform="translate(350, 270)" opacity="1"><rect class="elknode" x="0" y="0" rx="10" width="200" height="60" /><text id="sprotty_65" class="elklabel" transform="translate(5, 22) translate(0, 0)" opacity="1">local.selector</text></g><g id="sprotty_67" transform="translate(100, 380)" opacity="1"><rect class="elknode" x="0" y="0" rx="10" width="200" height="60" /><text id="sprotty_68" class="elklabel" transform="translate(5, 22) translate(0, 0)" opacity="1">local.labels</text></g><g id="sprotty_58" transform="translate(-16, 50)" opacity="1"><rect class="elkport" x="0" y="0" width="16" height="9" /><text id="sprotty_59" class="elklabel" transform="translate(-1, 10) translate(0, 0)" opacity="1">enable_service</text></g><g id="sprotty_70" transform="translate(-16, 110)" opacity="1"><rect class="elkport" x="0" y="0" width="16" height="9" /><text id="sprotty_71" class="elklabel" transform="translate(-1, 10) translate(0, 0)" opacity="1">parameters</text></g><g id="sprotty_74" transform="translate(-16, 170)" opacity="1"><rect class="elkport" x="0" y="0" width="16" height="9" /><text id="sprotty_75" class="elklabel" transform="translate(-1, 10) translate(0, 0)" opacity="1">podAnnotations</text></g><g id="sprotty_78" transform="translate(650, 50)" opacity="1"><rect class="elkport" x="0" y="0" width="16" height="9" /><text id="sprotty_79" class="elklabel" transform="translate(17, 10) translate(0, 0)" opacity="1">deployment</text></g><g id="sprotty_81" transform="translate(650, 110)" opacity="1"><rect class="elkport" x="0" y="0" width="16" height="9" /><text id="sprotty_82" class="elklabel" transform="translate(17, 10) translate(0, 0)" opacity="1">labels</text></g><g id="sprotty_84" transform="translate(650, 170)" opacity="1"><rect class="elkport" x="0" y="0" width="16" height="9" /><text id="sprotty_85" class="elklabel" transform="translate(17, 10) translate(0, 0)" opacity="1">name</text></g><g id="sprotty_87" transform="translate(650, 230)" opacity="1"><rect class="elkport" x="0" y="0" width="16" height="9" /><text id="sprotty_88" class="elklabel" transform="translate(17, 10) translate(0, 0)" opacity="1">service</text></g><text id="sprotty_47" class="elklabel" transform="translate(0, -21) translate(0, 0)" opacity="1">deployment-service</text></g><g id="sprotty_7" transform="translate(-16, 170)" opacity="1"><rect class="elkport" x="0" y="0" width="16" height="9" /><text id="sprotty_8" class="elklabel" transform="translate(-1, 10) translate(0, 0)" opacity="1">annotations</text></g><g id="sprotty_10" transform="translate(-16, 230)" opacity="1"><rect class="elkport" x="0" y="0" width="16" height="9" /><text id="sprotty_11" class="elklabel" transform="translate(-1, 10) translate(0, 0)" opacity="1">env</text></g><g id="sprotty_13" transform="translate(-16, 290)" opacity="1"><rect class="elkport" x="0" y="0" width="16" height="9" /><text id="sprotty_14" class="elklabel" transform="translate(-1, 10) translate(0, 0)" opacity="1">gateway_url</text></g><g id="sprotty_16" transform="translate(-16, 350)" opacity="1"><rect class="elkport" x="0" y="0" width="16" height="9" /><text id="sprotty_17" class="elklabel" transform="translate(-1, 10) translate(0, 0)" opacity="1">image</text></g><g id="sprotty_19" transform="translate(-16, 410)" opacity="1"><rect class="elkport" x="0" y="0" width="16" height="9" /><text id="sprotty_20" class="elklabel" transform="translate(-1, 10) translate(0, 0)" opacity="1">inactivity_duration</text></g><g id="sprotty_22" transform="translate(-16, 470)" opacity="1"><rect class="elkport" x="0" y="0" width="16" height="9" /><text id="sprotty_23" class="elklabel" transform="translate(-1, 10) translate(0, 0)" opacity="1">name</text></g><g id="sprotty_25" transform="translate(-16, 530)" opacity="1"><rect class="elkport" x="0" y="0" width="16" height="9" /><text id="sprotty_26" class="elklabel" transform="translate(-1, 10) translate(0, 0)" opacity="1">namespace</text></g><g id="sprotty_28" transform="translate(-16, 590)" opacity="1"><rect class="elkport" x="0" y="0" width="16" height="9" /><text id="sprotty_29" class="elklabel" transform="translate(-1, 10) translate(0, 0)" opacity="1">prometheus_host</text></g><g id="sprotty_31" transform="translate(-16, 650)" opacity="1"><rect class="elkport" x="0" y="0" width="16" height="9" /><text id="sprotty_32" class="elklabel" transform="translate(-1, 10) translate(0, 0)" opacity="1">prometheus_port</text></g><g id="sprotty_34" transform="translate(-16, 710)" opacity="1"><rect class="elkport" x="0" y="0" width="16" height="9" /><text id="sprotty_35" class="elklabel" transform="translate(-1, 10) translate(0, 0)" opacity="1">reconcile_interval</text></g><g id="sprotty_37" transform="translate(-16, 770)" opacity="1"><rect class="elkport" x="0" y="0" width="16" height="9" /><text id="sprotty_38" class="elklabel" transform="translate(-1, 10) translate(0, 0)" opacity="1">replicas</text></g><g id="sprotty_40" transform="translate(-16, 830)" opacity="1"><rect class="elkport" x="0" y="0" width="16" height="9" /><text id="sprotty_41" class="elklabel" transform="translate(-1, 10) translate(0, 0)" opacity="1">resources</text></g><g id="sprotty_43" transform="translate(-16, 110)" opacity="1"><rect class="elkport" x="0" y="0" width="16" height="9" /><text id="sprotty_44" class="elklabel" transform="translate(-1, 10) translate(0, 0)" opacity="1">write_debug</text></g><g id="sprotty_91" transform="translate(-16, 50)" opacity="1"><rect class="elkport" x="0" y="0" width="16" height="9" /><text id="sprotty_92" class="elklabel" transform="translate(-1, 10) translate(0, 0)" opacity="1">overrides</text></g><g id="sprotty_94" transform="translate(1634, 410)" opacity="1"><rect class="elkport" x="0" y="0" width="16" height="9" /><text id="sprotty_95" class="elklabel" transform="translate(17, -1) translate(0, 0)" opacity="1">deployment</text></g><g id="sprotty_97" transform="translate(1634, 530)" opacity="1"><rect class="elkport" x="0" y="0" width="16" height="9" /><text id="sprotty_98" class="elklabel" transform="translate(17, 10) translate(0, 0)" opacity="1">name</text></g><text id="sprotty_4" class="elklabel" transform="translate(0, -21) translate(0, 0)" opacity="1">modules/openfaas/faas-idler</text><g id="sprotty_9" class="sprotty-edge" opacity="1"><path class="elkedge" d="M 0,174.5 L 350,174.5 L 350,453.07142857142856 L 450,453.07142857142856" /><path class="edge arrow" d="M 0,0 L 8,-3 L 8,3 Z" transform="rotate(180 450 453.07142857142856) translate(450 453.07142857142856)" /></g><g id="sprotty_12" class="sprotty-edge" opacity="1"><path class="elkedge" d="M 0,234.5 L 300,234.5 L 300,457.35714285714283 L 450,457.35714285714283" /><path class="edge arrow" d="M 0,0 L 8,-3 L 8,3 Z" transform="rotate(180 450 457.35714285714283) translate(450 457.35714285714283)" /></g><g id="sprotty_15" class="sprotty-edge" opacity="1"><path class="elkedge" d="M 0,294.5 L 250,294.5 L 250,461.6428571428571 L 450,461.6428571428571" /><path class="edge arrow" d="M 0,0 L 8,-3 L 8,3 Z" transform="rotate(180 450 461.6428571428571) translate(450 461.6428571428571)" /></g><g id="sprotty_18" class="sprotty-edge" opacity="1"><path class="elkedge" d="M 0,354.5 L 200,354.5 L 200,465.92857142857144 L 450,465.92857142857144" /><path class="edge arrow" d="M 0,0 L 8,-3 L 8,3 Z" transform="rotate(180 450 465.92857142857144) translate(450 465.92857142857144)" /></g><g id="sprotty_21" class="sprotty-edge" opacity="1"><path class="elkedge" d="M 0,414.5 L 150,414.5 L 150,470.2142857142857 L 450,470.2142857142857" /><path class="edge arrow" d="M 0,0 L 8,-3 L 8,3 Z" transform="rotate(180 450 470.2142857142857) translate(450 470.2142857142857)" /></g><g id="sprotty_24" class="sprotty-edge" opacity="1"><path class="elkedge" d="M 0,474.5 L 450,474.5" /><path class="edge arrow" d="M 0,0 L 8,-3 L 8,3 Z" transform="rotate(180 450 474.5) translate(450 474.5)" /></g><g id="sprotty_27" class="sprotty-edge" opacity="1"><path class="elkedge" d="M 0,534.5 L 150,534.5 L 150,478.7857142857143 L 450,478.7857142857143" /><path class="edge arrow" d="M 0,0 L 8,-3 L 8,3 Z" transform="rotate(180 450 478.7857142857143) translate(450 478.7857142857143)" /></g><g id="sprotty_30" class="sprotty-edge" opacity="1"><path class="elkedge" d="M 0,594.5 L 200,594.5 L 200,483.07142857142856 L 450,483.07142857142856" /><path class="edge arrow" d="M 0,0 L 8,-3 L 8,3 Z" transform="rotate(180 450 483.07142857142856) translate(450 483.07142857142856)" /></g><g id="sprotty_33" class="sprotty-edge" opacity="1"><path class="elkedge" d="M 0,654.5 L 250,654.5 L 250,487.35714285714283 L 450,487.35714285714283" /><path class="edge arrow" d="M 0,0 L 8,-3 L 8,3 Z" transform="rotate(180 450 487.35714285714283) translate(450 487.35714285714283)" /></g><g id="sprotty_36" class="sprotty-edge" opacity="1"><path class="elkedge" d="M 0,714.5 L 300,714.5 L 300,491.6428571428571 L 450,491.6428571428571" /><path class="edge arrow" d="M 0,0 L 8,-3 L 8,3 Z" transform="rotate(180 450 491.6428571428571) translate(450 491.6428571428571)" /></g><g id="sprotty_39" class="sprotty-edge" opacity="1"><path class="elkedge" d="M 0,774.5 L 350,774.5 L 350,495.92857142857144 L 450,495.92857142857144" /><path class="edge arrow" d="M 0,0 L 8,-3 L 8,3 Z" transform="rotate(180 450 495.92857142857144) translate(450 495.92857142857144)" /></g><g id="sprotty_42" class="sprotty-edge" opacity="1"><path class="elkedge" d="M 0,834.5 L 400,834.5 L 400,500.2142857142857 L 450,500.2142857142857" /><path class="edge arrow" d="M 0,0 L 8,-3 L 8,3 Z" transform="rotate(180 450 500.2142857142857) translate(450 500.2142857142857)" /></g><g id="sprotty_45" class="sprotty-edge" opacity="1"><path class="elkedge" d="M 0,114.5 L 400,114.5 L 400,448.7857142857143 L 450,448.7857142857143" /><path class="edge arrow" d="M 0,0 L 8,-3 L 8,3 Z" transform="rotate(180 450 448.7857142857143) translate(450 448.7857142857143)" /></g><g id="sprotty_52" class="sprotty-edge" opacity="1"><path class="elkedge" d="M 1217,440 L 1167,440" /><path class="edge arrow" d="M 0,0 L 8,-3 L 8,3 Z" transform="rotate(0 1167 440) translate(1167 440)" /></g><g id="sprotty_57" class="sprotty-edge" opacity="1"><path class="elkedge" d="M 1217,550 L 1167,550" /><path class="edge arrow" d="M 0,0 L 8,-3 L 8,3 Z" transform="rotate(0 1167 550) translate(1167 550)" /></g><g id="sprotty_60" class="sprotty-edge" opacity="1"><path class="elkedge" d="M 865.9077490774907,419 L 1020.9483394833949,520" /><path class="edge arrow" d="M 0,0 L 8,-3 L 8,3 Z" transform="rotate(-146.91807712723494 1020.9483394833949 520) translate(1020.9483394833949 520)" /></g><g id="sprotty_63" class="sprotty-edge" opacity="1"><path class="elkedge" d="M 1101.090909090909,630 L 1282.909090909091,470" /><path class="edge arrow" d="M 0,0 L 8,-3 L 8,3 Z" transform="rotate(138.65222278030637 1282.909090909091 470) translate(1282.909090909091 470)" /></g><g id="sprotty_66" class="sprotty-edge" opacity="1"><path class="elkedge" d="M 1317,630 L 1317,470" /><path class="edge arrow" d="M 0,0 L 8,-3 L 8,3 Z" transform="rotate(90 1317 470) translate(1317 470)" /></g><g id="sprotty_69" class="sprotty-edge" opacity="1"><path class="elkedge" d="M 1101.090909090909,740 L 1282.909090909091,580" /><path class="edge arrow" d="M 0,0 L 8,-3 L 8,3 Z" transform="rotate(138.65222278030637 1282.909090909091 580) translate(1282.909090909091 580)" /></g><g id="sprotty_72" class="sprotty-edge" opacity="1"><path class="elkedge" d="M 862.1675126903554,479 L 1045.8832487309644,740" /><path class="edge arrow" d="M 0,0 L 8,-3 L 8,3 Z" transform="rotate(-125.14139675071024 1045.8832487309644 740) translate(1045.8832487309644 740)" /></g><g id="sprotty_73" class="sprotty-edge" opacity="1"><path class="elkedge" d="M 864.0458221024259,479 L 1033.3611859838275,630" /><path class="edge arrow" d="M 0,0 L 8,-3 L 8,3 Z" transform="rotate(-138.27256122803206 1033.3611859838275 630) translate(1033.3611859838275 630)" /></g><g id="sprotty_76" class="sprotty-edge" opacity="1"><path class="elkedge" d="M 866.4581673306773,539 L 1017.2788844621514,630" /><path class="edge arrow" d="M 0,0 L 8,-3 L 8,3 Z" transform="rotate(-148.89467282183267 1017.2788844621514 630) translate(1017.2788844621514 630)" /></g><g id="sprotty_77" class="sprotty-edge" opacity="1"><path class="elkedge" d="M 1135.1818181818182,740 L 1248.8181818181818,690" /><path class="edge arrow" d="M 0,0 L 8,-3 L 8,3 Z" transform="rotate(156.25050550713323 1248.8181818181818 690) translate(1248.8181818181818 690)" /></g><g id="sprotty_80" class="sprotty-edge" opacity="1"><path class="elkedge" d="M 1167,434.43231441048033 L 1517,414.9454148471616" /><path class="edge arrow" d="M 0,0 L 8,-3 L 8,3 Z" transform="rotate(176.81324131380964 1517 414.9454148471616) translate(1517 414.9454148471616)" /></g><g id="sprotty_83" class="sprotty-edge" opacity="1"><path class="elkedge" d="M 1113.497461928934,740 L 1518.0253807106599,479" /><path class="edge arrow" d="M 0,0 L 8,-3 L 8,3 Z" transform="rotate(147.1700335074859 1518.0253807106599 479) translate(1518.0253807106599 479)" /></g><g id="sprotty_86" class="sprotty-edge" opacity="1"><path class="elkedge" d="M 1167,460.6331877729258 L 1517,532.849344978166" /><path class="edge arrow" d="M 0,0 L 8,-3 L 8,3 Z" transform="rotate(-168.34165965728076 1517 532.849344978166) translate(1517 532.849344978166)" /></g><g id="sprotty_89" class="sprotty-edge" opacity="1"><path class="elkedge" d="M 1167,559.7161572052402 L 1517,593.7227074235808" /><path class="edge arrow" d="M 0,0 L 8,-3 L 8,3 Z" transform="rotate(-174.45047144714007 1517 593.7227074235808) translate(1517 593.7227074235808)" /></g><g id="sprotty_90" class="sprotty-edge" opacity="1"><path class="elkedge" d="M 650,474.5 L 851,474.5" /><path class="edge arrow" d="M 0,0 L 8,-3 L 8,3 Z" transform="rotate(180 851 474.5) translate(851 474.5)" /></g><g id="sprotty_93" class="sprotty-edge" opacity="1"><path class="elkedge" d="M 0,54.5 L 700,54.5 L 700,474.5 L 851,474.5" /><path class="edge arrow" d="M 0,0 L 8,-3 L 8,3 Z" transform="rotate(180 851 474.5) translate(851 474.5)" /><g id="sprotty_93_j0" transform="translate(700, 474.5)" opacity="1"><circle class="elkjunction" r="2" /></g></g><g id="sprotty_96" class="sprotty-edge" opacity="1"><path class="elkedge" d="M 1533,414.5 L 1634,414.5" /><path class="edge arrow" d="M 0,0 L 8,-3 L 8,3 Z" transform="rotate(180 1634 414.5) translate(1634 414.5)" /></g><g id="sprotty_99" class="sprotty-edge" opacity="1"><path class="elkedge" d="M 1533,534.5 L 1634,534.5" /><path class="edge arrow" d="M 0,0 L 8,-3 L 8,3 Z" transform="rotate(180 1634 534.5) translate(1634 534.5)" /></g></g></g></svg>
