<svg id="sprotty_1" class="sprotty-graph sprotty" tabindex="1002" xmlns="http://www.w3.org/2000/svg" viewBox="0 0 3418 2003.2254901960785"><style>
.elknode {
    stroke: #448;
    stroke-width: 2;
    fill: #ddf;
    fill-opacity: 0.5;
}

.elkport {
    stroke: #448;
    stroke-width: 1;
    fill: #66c;
}

.elkedge {
    fill: none;
    stroke: #88f;
    stroke-width: 8;
    stroke-opacity: 0.3;
    pointer-events: stroke;
    stroke-linejoin: round;
}

.elkedge:hover {
    stroke: #448;
    stroke-width: 8;
    stroke-opacity: 1;
    stroke-dasharray: 16px;
    stroke-dashoffset: 32px;
    animation: stroke 0.5s linear infinite;
}

@keyframes stroke {
    to {
        stroke-dashoffset: 0;
    }
}

.elkedge.arrow {
    fill: #336;
}

.elklabel {
    stroke-width: 0;
    stroke: #000;
    fill: #000;
    font-family: sans-serif;
    font-size: 10pt;
    dominant-baseline: hanging;
}

.elklabel:hover {
    font-size: 24pt;
}

.elkjunction {
    stroke: none;
    fill: #224;
}

.selected &gt; rect {
    stroke-width: 3;
}

.mouseover {
    stroke: #88f;
}
/*
 * Copyright (C) 2017 TypeFox and others.
 *
 * Licensed under the Apache License, Version 2.0 (the &quot;License&quot;); you may not use this file except in compliance with the License.
 * You may obtain a copy of the License at http://www.apache.org/licenses/LICENSE-2.0
 */

.sprotty {
    padding: 0px;
    font-family: &quot;Helvetica Neue&quot;, Helvetica, Arial, sans-serif;
}

.sprotty-hidden {
    display: block;
    position: absolute;
    width: 0px;
    height: 0px;
}

.sprotty-popup {
    font-family: &quot;Helvetica Neue&quot;, Helvetica, Arial, sans-serif;
    position: absolute;
    background: white;
    border-radius: 5px;
    border: 1px solid;
    max-width: 400px;
    min-width: 100px;
}

.sprotty-popup &gt; div {
    margin: 10px;
}

.sprotty-popup-closed {
    display: none;
}
</style><g transform="scale(1) translate(0,0)"><g id="sprotty_3" transform="translate(117, 71)" opacity="1"><rect class="elknode" x="0" y="0" rx="10" width="3184" height="1882.2254901960785" /><g id="sprotty_5" transform="translate(1600, 427.66666666666663)" opacity="1"><rect class="elknode" x="0" y="0" rx="10" width="200" height="60" /><text id="sprotty_6" class="elklabel" transform="translate(5, 22) translate(0, 0)" opacity="1">k8s_core_v1_config_map.che</text></g><g id="sprotty_7" transform="translate(650, 404.72549019607845)" opacity="1"><rect class="elknode" x="0" y="0" rx="10" width="200" height="60" /><text id="sprotty_8" class="elklabel" transform="translate(5, 22) translate(0, 0)" opacity="1">local.http_url</text></g><g id="sprotty_10" transform="translate(650, 565.7254901960785)" opacity="1"><rect class="elknode" x="0" y="0" rx="10" width="200" height="60" /><text id="sprotty_11" class="elklabel" transform="translate(5, 22) translate(0, 0)" opacity="1">local.ws_url</text></g><g id="sprotty_55" transform="translate(1600, 267.66666666666663)" opacity="1"><rect class="elknode" x="0" y="0" rx="10" width="200" height="60" /><text id="sprotty_56" class="elklabel" transform="translate(5, 22) translate(0, 0)" opacity="1">k8s_core_v1_service_account.che</text></g><g id="sprotty_58" transform="translate(2250, 50)" opacity="1"><rect class="elknode" x="0" y="0" rx="10" width="200" height="60" /><text id="sprotty_59" class="elklabel" transform="translate(5, 22) translate(0, 0)" opacity="1">k8s_rbac_authorization_k8s_io_v1beta1_cluster_role_binding.default_che_clusterrole_binding</text></g><g id="sprotty_61" transform="translate(250, 475.72549019607845)" opacity="1"><rect class="elknode" x="0" y="0" rx="10" width="200" height="60" /><text id="sprotty_62" class="elklabel" transform="translate(5, 22) translate(0, 0)" opacity="1">local.http_protocol</text></g><g id="sprotty_70" transform="translate(2250, 210)" opacity="1"><rect class="elknode" x="0" y="0" rx="10" width="200" height="60" /><text id="sprotty_71" class="elklabel" transform="translate(5, 22) translate(0, 0)" opacity="1">local.parameters</text></g><g id="sprotty_92" transform="translate(250, 636.7254901960785)" opacity="1"><rect class="elknode" x="0" y="0" rx="10" width="200" height="60" /><text id="sprotty_93" class="elklabel" transform="translate(5, 22) translate(0, 0)" opacity="1">local.ws_protocol</text></g><g id="sprotty_97" transform="translate(2667, 185.5)" opacity="1"><rect class="elknode" x="0" y="0" rx="10" width="400" height="710" /><g id="sprotty_99" transform="translate(100, 50)" opacity="1"><rect class="elknode" x="0" y="0" rx="10" width="200" height="60" /><text id="sprotty_100" class="elklabel" transform="translate(5, 22) translate(0, 0)" opacity="1">k8s_apps_v1_deployment.this</text></g><g id="sprotty_101" transform="translate(100, 160)" opacity="1"><rect class="elknode" x="0" y="0" rx="10" width="200" height="60" /><text id="sprotty_102" class="elklabel" transform="translate(5, 22) translate(0, 0)" opacity="1">local.k8s_apps_v1_deployment_parameters</text></g><g id="sprotty_104" transform="translate(100, 270)" opacity="1"><rect class="elknode" x="0" y="0" rx="10" width="200" height="60" /><text id="sprotty_105" class="elklabel" transform="translate(5, 22) translate(0, 0)" opacity="1">k8s_core_v1_service.this</text></g><g id="sprotty_106" transform="translate(100, 380)" opacity="1"><rect class="elknode" x="0" y="0" rx="10" width="200" height="60" /><text id="sprotty_107" class="elklabel" transform="translate(5, 22) translate(0, 0)" opacity="1">local.k8s_core_v1_service_parameters</text></g><g id="sprotty_109" transform="translate(100, 490)" opacity="1"><rect class="elknode" x="0" y="0" rx="10" width="200" height="60" /><text id="sprotty_110" class="elklabel" transform="translate(5, 22) translate(0, 0)" opacity="1">local.selector</text></g><g id="sprotty_112" transform="translate(100, 600)" opacity="1"><rect class="elknode" x="0" y="0" rx="10" width="200" height="60" /><text id="sprotty_113" class="elklabel" transform="translate(5, 22) translate(0, 0)" opacity="1">local.labels</text></g><g id="sprotty_115" transform="translate(-16, 50)" opacity="1"><rect class="elkport" x="0" y="0" width="16" height="9" /><text id="sprotty_116" class="elklabel" transform="translate(-1, 10) translate(0, 0)" opacity="1">parameters</text></g><g id="sprotty_119" transform="translate(400, 50)" opacity="1"><rect class="elkport" x="0" y="0" width="16" height="9" /><text id="sprotty_120" class="elklabel" transform="translate(17, 10) translate(0, 0)" opacity="1">deployment</text></g><g id="sprotty_122" transform="translate(400, 110)" opacity="1"><rect class="elkport" x="0" y="0" width="16" height="9" /><text id="sprotty_123" class="elklabel" transform="translate(17, 10) translate(0, 0)" opacity="1">name</text></g><g id="sprotty_125" transform="translate(400, 170)" opacity="1"><rect class="elkport" x="0" y="0" width="16" height="9" /><text id="sprotty_126" class="elklabel" transform="translate(17, 10) translate(0, 0)" opacity="1">service</text></g><text id="sprotty_98" class="elklabel" transform="translate(0, -21) translate(0, 0)" opacity="1">deployment-service</text></g><g id="sprotty_13" transform="translate(-16, 742.2254901960785)" opacity="1"><rect class="elkport" x="0" y="0" width="16" height="9" /><text id="sprotty_14" class="elklabel" transform="translate(-1, 10) translate(0, 0)" opacity="1">CHE_INFRA_KUBERNETES_INGRESS_DOMAIN</text></g><g id="sprotty_16" transform="translate(-16, 802.2254901960785)" opacity="1"><rect class="elkport" x="0" y="0" width="16" height="9" /><text id="sprotty_17" class="elklabel" transform="translate(-1, 10) translate(0, 0)" opacity="1">CHE_INFRA_KUBERNETES_NAMESPACE_DEFAULT</text></g><g id="sprotty_19" transform="translate(-16, 862.2254901960785)" opacity="1"><rect class="elkport" x="0" y="0" width="16" height="9" /><text id="sprotty_20" class="elklabel" transform="translate(-1, 10) translate(0, 0)" opacity="1">CHE_INFRA_KUBERNETES_PVC_NAME</text></g><g id="sprotty_22" transform="translate(-16, 922.2254901960785)" opacity="1"><rect class="elkport" x="0" y="0" width="16" height="9" /><text id="sprotty_23" class="elklabel" transform="translate(-1, 10) translate(0, 0)" opacity="1">CHE_INFRA_KUBERNETES_PVC_STORAGE_CLASS_NAME</text></g><g id="sprotty_25" transform="translate(-16, 982.2254901960785)" opacity="1"><rect class="elkport" x="0" y="0" width="16" height="9" /><text id="sprotty_26" class="elklabel" transform="translate(-1, 10) translate(0, 0)" opacity="1">CHE_INFRA_KUBERNETES_SERVICE__ACCOUNT__NAME</text></g><g id="sprotty_28" transform="translate(-16, 1042.2254901960785)" opacity="1"><rect class="elkport" x="0" y="0" width="16" height="9" /><text id="sprotty_29" class="elklabel" transform="translate(-1, 10) translate(0, 0)" opacity="1">CHE_KEYCLOAK_AUTH__SERVER__URL</text></g><g id="sprotty_31" transform="translate(-16, 1102.2254901960785)" opacity="1"><rect class="elkport" x="0" y="0" width="16" height="9" /><text id="sprotty_32" class="elklabel" transform="translate(-1, 10) translate(0, 0)" opacity="1">CHE_KEYCLOAK_CLIENT__ID</text></g><g id="sprotty_34" transform="translate(-16, 1162.2254901960785)" opacity="1"><rect class="elkport" x="0" y="0" width="16" height="9" /><text id="sprotty_35" class="elklabel" transform="translate(-1, 10) translate(0, 0)" opacity="1">CHE_KEYCLOAK_REALM</text></g><g id="sprotty_37" transform="translate(-16, 1222.2254901960785)" opacity="1"><rect class="elkport" x="0" y="0" width="16" height="9" /><text id="sprotty_38" class="elklabel" transform="translate(-1, 10) translate(0, 0)" opacity="1">CHE_LIMITS_USER_WORKSPACES_RUN_COUNT</text></g><g id="sprotty_40" transform="translate(-16, 1282.2254901960785)" opacity="1"><rect class="elkport" x="0" y="0" width="16" height="9" /><text id="sprotty_41" class="elklabel" transform="translate(-1, 10) translate(0, 0)" opacity="1">CHE_MULTIUSER</text></g><g id="sprotty_43" transform="translate(-16, 1342.2254901960785)" opacity="1"><rect class="elkport" x="0" y="0" width="16" height="9" /><text id="sprotty_44" class="elklabel" transform="translate(-1, 10) translate(0, 0)" opacity="1">CHE_WORKSPACE_DEVFILE__REGISTRY__URL</text></g><g id="sprotty_46" transform="translate(-16, 1402.2254901960785)" opacity="1"><rect class="elkport" x="0" y="0" width="16" height="9" /><text id="sprotty_47" class="elklabel" transform="translate(-1, 10) translate(0, 0)" opacity="1">CHE_WORKSPACE_PLUGIN__REGISTRY__URL</text></g><g id="sprotty_49" transform="translate(-16, 1462.2254901960785)" opacity="1"><rect class="elkport" x="0" y="0" width="16" height="9" /><text id="sprotty_50" class="elklabel" transform="translate(-1, 10) translate(0, 0)" opacity="1">ingress_class</text></g><g id="sprotty_52" transform="translate(-16, 293.16666666666663)" opacity="1"><rect class="elkport" x="0" y="0" width="16" height="9" /><text id="sprotty_53" class="elklabel" transform="translate(-1, 10) translate(0, 0)" opacity="1">namespace</text></g><g id="sprotty_63" transform="translate(-16, 501.22549019607845)" opacity="1"><rect class="elkport" x="0" y="0" width="16" height="9" /><text id="sprotty_64" class="elklabel" transform="translate(-1, 10) translate(0, 0)" opacity="1">https</text></g><g id="sprotty_67" transform="translate(-16, 420.22549019607845)" opacity="1"><rect class="elkport" x="0" y="0" width="16" height="9" /><text id="sprotty_68" class="elklabel" transform="translate(-1, 10) translate(0, 0)" opacity="1">CHE_HOST</text></g><g id="sprotty_74" transform="translate(-16, 1522.2254901960785)" opacity="1"><rect class="elkport" x="0" y="0" width="16" height="9" /><text id="sprotty_75" class="elklabel" transform="translate(-1, 10) translate(0, 0)" opacity="1">annotations</text></g><g id="sprotty_77" transform="translate(-16, 1582.2254901960785)" opacity="1"><rect class="elkport" x="0" y="0" width="16" height="9" /><text id="sprotty_78" class="elklabel" transform="translate(-1, 10) translate(0, 0)" opacity="1">env</text></g><g id="sprotty_80" transform="translate(-16, 1642.2254901960785)" opacity="1"><rect class="elkport" x="0" y="0" width="16" height="9" /><text id="sprotty_81" class="elklabel" transform="translate(-1, 10) translate(0, 0)" opacity="1">image</text></g><g id="sprotty_83" transform="translate(-16, 1702.2254901960785)" opacity="1"><rect class="elkport" x="0" y="0" width="16" height="9" /><text id="sprotty_84" class="elklabel" transform="translate(-1, 10) translate(0, 0)" opacity="1">name</text></g><g id="sprotty_86" transform="translate(-16, 1762.2254901960785)" opacity="1"><rect class="elkport" x="0" y="0" width="16" height="9" /><text id="sprotty_87" class="elklabel" transform="translate(-1, 10) translate(0, 0)" opacity="1">ports</text></g><g id="sprotty_89" transform="translate(-16, 212.16666666666666)" opacity="1"><rect class="elkport" x="0" y="0" width="16" height="9" /><text id="sprotty_90" class="elklabel" transform="translate(-1, 10) translate(0, 0)" opacity="1">replicas</text></g><g id="sprotty_129" transform="translate(-16, 1822.2254901960785)" opacity="1"><rect class="elkport" x="0" y="0" width="16" height="9" /><text id="sprotty_130" class="elklabel" transform="translate(-1, 10) translate(0, 0)" opacity="1">overrides</text></g><g id="sprotty_132" transform="translate(3184, 235.5)" opacity="1"><rect class="elkport" x="0" y="0" width="16" height="9" /><text id="sprotty_133" class="elklabel" transform="translate(17, 10) translate(0, 0)" opacity="1">deployment</text></g><g id="sprotty_135" transform="translate(3184, 295.5)" opacity="1"><rect class="elkport" x="0" y="0" width="16" height="9" /><text id="sprotty_136" class="elklabel" transform="translate(17, 10) translate(0, 0)" opacity="1">name</text></g><g id="sprotty_138" transform="translate(3184, 355.5)" opacity="1"><rect class="elkport" x="0" y="0" width="16" height="9" /><text id="sprotty_139" class="elklabel" transform="translate(17, 10) translate(0, 0)" opacity="1">service</text></g><text id="sprotty_4" class="elklabel" transform="translate(0, -21) translate(0, 0)" opacity="1">modules/eclipse-che/eclipse-che</text><g id="sprotty_9" class="sprotty-edge" opacity="1"><path class="elkedge" d="M 850,434.72549019607845 L 1600,434.7254901960784" /><path class="edge arrow" d="M 0,0 L 8,-3 L 8,3 Z" transform="rotate(180 1600 434.7254901960784) translate(1600 434.7254901960784)" /></g><g id="sprotty_12" class="sprotty-edge" opacity="1"><path class="elkedge" d="M 850,595.7254901960785 L 900,595.7254901960785 L 900,438.2549019607843 L 1600,438.2549019607843" /><path class="edge arrow" d="M 0,0 L 8,-3 L 8,3 Z" transform="rotate(180 1600 438.2549019607843) translate(1600 438.2549019607843)" /></g><g id="sprotty_15" class="sprotty-edge" opacity="1"><path class="elkedge" d="M 0,746.7254901960785 L 950,746.7254901960785 L 950,441.78431372549016 L 1600,441.78431372549016" /><path class="edge arrow" d="M 0,0 L 8,-3 L 8,3 Z" transform="rotate(180 1600 441.78431372549016) translate(1600 441.78431372549016)" /></g><g id="sprotty_18" class="sprotty-edge" opacity="1"><path class="elkedge" d="M 0,806.7254901960785 L 1000,806.7254901960785 L 1000,445.3137254901961 L 1600,445.313725490196" /><path class="edge arrow" d="M 0,0 L 8,-3 L 8,3 Z" transform="rotate(180 1600 445.313725490196) translate(1600 445.313725490196)" /></g><g id="sprotty_21" class="sprotty-edge" opacity="1"><path class="elkedge" d="M 0,866.7254901960785 L 1050,866.7254901960785 L 1050,448.843137254902 L 1600,448.84313725490193" /><path class="edge arrow" d="M 0,0 L 8,-3 L 8,3 Z" transform="rotate(180 1600 448.84313725490193) translate(1600 448.84313725490193)" /></g><g id="sprotty_24" class="sprotty-edge" opacity="1"><path class="elkedge" d="M 0,926.7254901960785 L 1100,926.7254901960785 L 1100,452.37254901960785 L 1600,452.37254901960785" /><path class="edge arrow" d="M 0,0 L 8,-3 L 8,3 Z" transform="rotate(180 1600 452.37254901960785) translate(1600 452.37254901960785)" /></g><g id="sprotty_27" class="sprotty-edge" opacity="1"><path class="elkedge" d="M 0,986.7254901960785 L 1150,986.7254901960785 L 1150,455.9019607843137 L 1600,455.9019607843137" /><path class="edge arrow" d="M 0,0 L 8,-3 L 8,3 Z" transform="rotate(180 1600 455.9019607843137) translate(1600 455.9019607843137)" /></g><g id="sprotty_30" class="sprotty-edge" opacity="1"><path class="elkedge" d="M 0,1046.7254901960785 L 1200,1046.7254901960785 L 1200,459.4313725490196 L 1600,459.43137254901956" /><path class="edge arrow" d="M 0,0 L 8,-3 L 8,3 Z" transform="rotate(180 1600 459.43137254901956) translate(1600 459.43137254901956)" /></g><g id="sprotty_33" class="sprotty-edge" opacity="1"><path class="elkedge" d="M 0,1106.7254901960785 L 1250,1106.7254901960785 L 1250,462.9607843137255 L 1600,462.96078431372547" /><path class="edge arrow" d="M 0,0 L 8,-3 L 8,3 Z" transform="rotate(180 1600 462.96078431372547) translate(1600 462.96078431372547)" /></g><g id="sprotty_36" class="sprotty-edge" opacity="1"><path class="elkedge" d="M 0,1166.7254901960785 L 1300,1166.7254901960785 L 1300,466.4901960784314 L 1600,466.4901960784314" /><path class="edge arrow" d="M 0,0 L 8,-3 L 8,3 Z" transform="rotate(180 1600 466.4901960784314) translate(1600 466.4901960784314)" /></g><g id="sprotty_39" class="sprotty-edge" opacity="1"><path class="elkedge" d="M 0,1226.7254901960785 L 1350,1226.7254901960785 L 1350,470.01960784313724 L 1600,470.01960784313724" /><path class="edge arrow" d="M 0,0 L 8,-3 L 8,3 Z" transform="rotate(180 1600 470.01960784313724) translate(1600 470.01960784313724)" /></g><g id="sprotty_42" class="sprotty-edge" opacity="1"><path class="elkedge" d="M 0,1286.7254901960785 L 1400,1286.7254901960785 L 1400,473.54901960784315 L 1600,473.5490196078431" /><path class="edge arrow" d="M 0,0 L 8,-3 L 8,3 Z" transform="rotate(180 1600 473.5490196078431) translate(1600 473.5490196078431)" /></g><g id="sprotty_45" class="sprotty-edge" opacity="1"><path class="elkedge" d="M 0,1346.7254901960785 L 1450,1346.7254901960785 L 1450,477.07843137254906 L 1600,477.078431372549" /><path class="edge arrow" d="M 0,0 L 8,-3 L 8,3 Z" transform="rotate(179.99999999999997 1600 477.078431372549) translate(1600 477.078431372549)" /></g><g id="sprotty_48" class="sprotty-edge" opacity="1"><path class="elkedge" d="M 0,1406.7254901960785 L 1500,1406.7254901960785 L 1500,480.6078431372549 L 1600,480.6078431372549" /><path class="edge arrow" d="M 0,0 L 8,-3 L 8,3 Z" transform="rotate(180 1600 480.6078431372549) translate(1600 480.6078431372549)" /></g><g id="sprotty_51" class="sprotty-edge" opacity="1"><path class="elkedge" d="M 0,1466.7254901960785 L 1550,1466.7254901960785 L 1550,484.1372549019608 L 1600,484.1372549019608" /><path class="edge arrow" d="M 0,0 L 8,-3 L 8,3 Z" transform="rotate(180 1600 484.1372549019608) translate(1600 484.1372549019608)" /></g><g id="sprotty_54" class="sprotty-edge" opacity="1"><path class="elkedge" d="M 0,297.66666666666663 L 900,297.66666666666663 L 900,431.19607843137254 L 1600,431.1960784313725" /><path class="edge arrow" d="M 0,0 L 8,-3 L 8,3 Z" transform="rotate(180 1600 431.1960784313725) translate(1600 431.1960784313725)" /><g id="sprotty_54_j0" transform="translate(900, 297.66666666666663)" opacity="1"><circle class="elkjunction" r="2" /></g></g><g id="sprotty_57" class="sprotty-edge" opacity="1"><path class="elkedge" d="M 0,297.66666666666663 L 1600,297.66666666666663" /><path class="edge arrow" d="M 0,0 L 8,-3 L 8,3 Z" transform="rotate(180 1600 297.66666666666663) translate(1600 297.66666666666663)" /></g><g id="sprotty_60" class="sprotty-edge" opacity="1"><path class="elkedge" d="M 1800,287.66666666666663 L 1850,287.66666666666663 L 1850,80 L 2250,80" /><path class="edge arrow" d="M 0,0 L 8,-3 L 8,3 Z" transform="rotate(180 2250 80) translate(2250 80)" /></g><g id="sprotty_65" class="sprotty-edge" opacity="1"><path class="elkedge" d="M 0,505.72549019607845 L 250,505.72549019607845" /><path class="edge arrow" d="M 0,0 L 8,-3 L 8,3 Z" transform="rotate(180 250 505.72549019607845) translate(250 505.72549019607845)" /></g><g id="sprotty_66" class="sprotty-edge" opacity="1"><path class="elkedge" d="M 450,505.72549019607845 L 500,505.72549019607845 L 500,444.72549019607845 L 650,444.72549019607845" /><path class="edge arrow" d="M 0,0 L 8,-3 L 8,3 Z" transform="rotate(180 650 444.72549019607845) translate(650 444.72549019607845)" /></g><g id="sprotty_69" class="sprotty-edge" opacity="1"><path class="elkedge" d="M 0,424.72549019607845 L 650,424.72549019607845" /><path class="edge arrow" d="M 0,0 L 8,-3 L 8,3 Z" transform="rotate(180 650 424.72549019607845) translate(650 424.72549019607845)" /></g><g id="sprotty_72" class="sprotty-edge" opacity="1"><path class="elkedge" d="M 1800,457.66666666666663 L 1950,457.66666666666663 L 1950,230 L 2250,230" /><path class="edge arrow" d="M 0,0 L 8,-3 L 8,3 Z" transform="rotate(180 2250 230) translate(2250 230)" /></g><g id="sprotty_73" class="sprotty-edge" opacity="1"><path class="elkedge" d="M 1800,307.66666666666663 L 1900,307.66666666666663 L 1900,223.33333333333331 L 2250,223.33333333333331" /><path class="edge arrow" d="M 0,0 L 8,-3 L 8,3 Z" transform="rotate(180 2250 223.33333333333331) translate(2250 223.33333333333331)" /></g><g id="sprotty_76" class="sprotty-edge" opacity="1"><path class="elkedge" d="M 0,1526.7254901960785 L 2000,1526.7254901960785 L 2000,236.66666666666666 L 2250,236.66666666666666" /><path class="edge arrow" d="M 0,0 L 8,-3 L 8,3 Z" transform="rotate(180 2250 236.66666666666666) translate(2250 236.66666666666666)" /></g><g id="sprotty_79" class="sprotty-edge" opacity="1"><path class="elkedge" d="M 0,1586.7254901960785 L 2050,1586.7254901960785 L 2050,243.33333333333331 L 2250,243.33333333333331" /><path class="edge arrow" d="M 0,0 L 8,-3 L 8,3 Z" transform="rotate(180 2250 243.33333333333331) translate(2250 243.33333333333331)" /></g><g id="sprotty_82" class="sprotty-edge" opacity="1"><path class="elkedge" d="M 0,1646.7254901960785 L 2100,1646.7254901960785 L 2100,250 L 2250,250" /><path class="edge arrow" d="M 0,0 L 8,-3 L 8,3 Z" transform="rotate(180 2250 250) translate(2250 250)" /></g><g id="sprotty_85" class="sprotty-edge" opacity="1"><path class="elkedge" d="M 0,1706.7254901960785 L 2150,1706.7254901960785 L 2150,256.66666666666663 L 2250,256.66666666666663" /><path class="edge arrow" d="M 0,0 L 8,-3 L 8,3 Z" transform="rotate(180 2250 256.66666666666663) translate(2250 256.66666666666663)" /></g><g id="sprotty_88" class="sprotty-edge" opacity="1"><path class="elkedge" d="M 0,1766.7254901960785 L 2200,1766.7254901960785 L 2200,263.3333333333333 L 2250,263.3333333333333" /><path class="edge arrow" d="M 0,0 L 8,-3 L 8,3 Z" transform="rotate(180 2250 263.3333333333333) translate(2250 263.3333333333333)" /></g><g id="sprotty_91" class="sprotty-edge" opacity="1"><path class="elkedge" d="M 0,216.66666666666666 L 2250,216.66666666666666" /><path class="edge arrow" d="M 0,0 L 8,-3 L 8,3 Z" transform="rotate(180 2250 216.66666666666666) translate(2250 216.66666666666666)" /></g><g id="sprotty_94" class="sprotty-edge" opacity="1"><path class="elkedge" d="M 0,505.72549019607845 L 150,505.72549019607845 L 150,666.7254901960785 L 250,666.7254901960785" /><path class="edge arrow" d="M 0,0 L 8,-3 L 8,3 Z" transform="rotate(180 250 666.7254901960785) translate(250 666.7254901960785)" /><g id="sprotty_94_j0" transform="translate(150, 505.72549019607845)" opacity="1"><circle class="elkjunction" r="2" /></g></g><g id="sprotty_95" class="sprotty-edge" opacity="1"><path class="elkedge" d="M 450,666.7254901960785 L 500,666.7254901960785 L 500,605.7254901960785 L 650,605.7254901960785" /><path class="edge arrow" d="M 0,0 L 8,-3 L 8,3 Z" transform="rotate(180 650 605.7254901960785) translate(650 605.7254901960785)" /></g><g id="sprotty_96" class="sprotty-edge" opacity="1"><path class="elkedge" d="M 0,424.72549019607845 L 200,424.72549019607845 L 200,585.7254901960785 L 650,585.7254901960785" /><path class="edge arrow" d="M 0,0 L 8,-3 L 8,3 Z" transform="rotate(180 650 585.7254901960785) translate(650 585.7254901960785)" /><g id="sprotty_96_j0" transform="translate(200, 424.72549019607845)" opacity="1"><circle class="elkjunction" r="2" /></g></g><g id="sprotty_103" class="sprotty-edge" opacity="1"><path class="elkedge" d="M 2867,345.5 L 2867,295.5" /><path class="edge arrow" d="M 0,0 L 8,-3 L 8,3 Z" transform="rotate(90 2867 295.5) translate(2867 295.5)" /></g><g id="sprotty_108" class="sprotty-edge" opacity="1"><path class="elkedge" d="M 2867,565.5 L 2867,515.5" /><path class="edge arrow" d="M 0,0 L 8,-3 L 8,3 Z" transform="rotate(90 2867 515.5) translate(2867 515.5)" /></g><g id="sprotty_111" class="sprotty-edge" opacity="1"><path class="elkedge" d="M 2867,675.5 L 2867,405.5" /><path class="edge arrow" d="M 0,0 L 8,-3 L 8,3 Z" transform="rotate(90 2867 405.5) translate(2867 405.5)" /></g><g id="sprotty_114" class="sprotty-edge" opacity="1"><path class="elkedge" d="M 2867,785.5 L 2867,625.5" /><path class="edge arrow" d="M 0,0 L 8,-3 L 8,3 Z" transform="rotate(90 2867 625.5) translate(2867 625.5)" /></g><g id="sprotty_117" class="sprotty-edge" opacity="1"><path class="elkedge" d="M 2660.6264118158124,244.5 L 2856.157254561251,785.5" /><path class="edge arrow" d="M 0,0 L 8,-3 L 8,3 Z" transform="rotate(-109.87111491399165 2856.157254561251 785.5) translate(2856.157254561251 785.5)" /></g><g id="sprotty_118" class="sprotty-edge" opacity="1"><path class="elkedge" d="M 2867,785.5 L 2867,735.5" /><path class="edge arrow" d="M 0,0 L 8,-3 L 8,3 Z" transform="rotate(90 2867 735.5) translate(2867 735.5)" /></g><g id="sprotty_121" class="sprotty-edge" opacity="1"><path class="elkedge" d="M 2967,253.2403846153846 L 3067,240.98076923076923" /><path class="edge arrow" d="M 0,0 L 8,-3 L 8,3 Z" transform="rotate(173.01063484366153 3067 240.98076923076923) translate(3067 240.98076923076923)" /></g><g id="sprotty_124" class="sprotty-edge" opacity="1"><path class="elkedge" d="M 2900.6388140161725,455.5 L 3069.954177897574,304.5" /><path class="edge arrow" d="M 0,0 L 8,-3 L 8,3 Z" transform="rotate(138.27256122803203 3069.954177897574 304.5) translate(3069.954177897574 304.5)" /></g><g id="sprotty_127" class="sprotty-edge" opacity="1"><path class="elkedge" d="M 2916.7211155378486,455.5 L 3067.5418326693225,364.5" /><path class="edge arrow" d="M 0,0 L 8,-3 L 8,3 Z" transform="rotate(148.89467282183264 3067.5418326693225 364.5) translate(3067.5418326693225 364.5)" /></g><g id="sprotty_128" class="sprotty-edge" opacity="1"><path class="elkedge" d="M 2450,240 L 2651,240" /><path class="edge arrow" d="M 0,0 L 8,-3 L 8,3 Z" transform="rotate(180 2651 240) translate(2651 240)" /></g><g id="sprotty_131" class="sprotty-edge" opacity="1"><path class="elkedge" d="M 0,1826.7254901960785 L 2500,1826.7254901960785 L 2500,240 L 2651,240" /><path class="edge arrow" d="M 0,0 L 8,-3 L 8,3 Z" transform="rotate(180 2651 240) translate(2651 240)" /><g id="sprotty_131_j0" transform="translate(2500, 240)" opacity="1"><circle class="elkjunction" r="2" /></g></g><g id="sprotty_134" class="sprotty-edge" opacity="1"><path class="elkedge" d="M 3083,240 L 3184,240" /><path class="edge arrow" d="M 0,0 L 8,-3 L 8,3 Z" transform="rotate(180 3184 240) translate(3184 240)" /></g><g id="sprotty_137" class="sprotty-edge" opacity="1"><path class="elkedge" d="M 3083,300 L 3184,300" /><path class="edge arrow" d="M 0,0 L 8,-3 L 8,3 Z" transform="rotate(180 3184 300) translate(3184 300)" /></g><g id="sprotty_140" class="sprotty-edge" opacity="1"><path class="elkedge" d="M 3083,360 L 3184,360" /><path class="edge arrow" d="M 0,0 L 8,-3 L 8,3 Z" transform="rotate(180 3184 360) translate(3184 360)" /></g></g></g></svg>
