<svg id="sprotty_1" class="sprotty-graph sprotty" tabindex="1002" xmlns="http://www.w3.org/2000/svg" viewBox="0 0 3718 2686.137931034483"><style>
.elknode {
    stroke: #448;
    stroke-width: 2;
    fill: #ddf;
    fill-opacity: 0.5;
}

.elkport {
    stroke: #448;
    stroke-width: 1;
    fill: #66c;
}

.elkedge {
    fill: none;
    stroke: #88f;
    stroke-width: 8;
    stroke-opacity: 0.3;
    pointer-events: stroke;
    stroke-linejoin: round;
}

.elkedge:hover {
    stroke: #448;
    stroke-width: 8;
    stroke-opacity: 1;
    stroke-dasharray: 16px;
    stroke-dashoffset: 32px;
    animation: stroke 0.5s linear infinite;
}

@keyframes stroke {
    to {
        stroke-dashoffset: 0;
    }
}

.elkedge.arrow {
    fill: #336;
}

.elklabel {
    stroke-width: 0;
    stroke: #000;
    fill: #000;
    font-family: sans-serif;
    font-size: 10pt;
    dominant-baseline: hanging;
}

.elklabel:hover {
    font-size: 24pt;
}

.elkjunction {
    stroke: none;
    fill: #224;
}

.selected &gt; rect {
    stroke-width: 3;
}

.mouseover {
    stroke: #88f;
}
/*
 * Copyright (C) 2017 TypeFox and others.
 *
 * Licensed under the Apache License, Version 2.0 (the &quot;License&quot;); you may not use this file except in compliance with the License.
 * You may obtain a copy of the License at http://www.apache.org/licenses/LICENSE-2.0
 */

.sprotty {
    padding: 0px;
    font-family: &quot;Helvetica Neue&quot;, Helvetica, Arial, sans-serif;
}

.sprotty-hidden {
    display: block;
    position: absolute;
    width: 0px;
    height: 0px;
}

.sprotty-popup {
    font-family: &quot;Helvetica Neue&quot;, Helvetica, Arial, sans-serif;
    position: absolute;
    background: white;
    border-radius: 5px;
    border: 1px solid;
    max-width: 400px;
    min-width: 100px;
}

.sprotty-popup &gt; div {
    margin: 10px;
}

.sprotty-popup-closed {
    display: none;
}
</style><g transform="scale(1) translate(0,0)"><g id="sprotty_3" transform="translate(117, 71)" opacity="1"><rect class="elknode" x="0" y="0" rx="10" width="3484" height="2565.137931034483" /><g id="sprotty_5" transform="translate(1800, 465.5)" opacity="1"><rect class="elknode" x="0" y="0" rx="10" width="200" height="60" /><text id="sprotty_6" class="elklabel" transform="translate(5, 22) translate(0, 0)" opacity="1">k8s_core_v1_config_map.che</text></g><g id="sprotty_7" transform="translate(250, 439.6379310344828)" opacity="1"><rect class="elknode" x="0" y="0" rx="10" width="200" height="60" /><text id="sprotty_8" class="elklabel" transform="translate(5, 22) translate(0, 0)" opacity="1">local.http_url</text></g><g id="sprotty_10" transform="translate(250, 599.6379310344828)" opacity="1"><rect class="elknode" x="0" y="0" rx="10" width="200" height="60" /><text id="sprotty_11" class="elklabel" transform="translate(5, 22) translate(0, 0)" opacity="1">local.ws_url</text></g><g id="sprotty_91" transform="translate(1800, 305.5)" opacity="1"><rect class="elknode" x="0" y="0" rx="10" width="200" height="60" /><text id="sprotty_92" class="elklabel" transform="translate(5, 22) translate(0, 0)" opacity="1">k8s_core_v1_service_account.che</text></g><g id="sprotty_94" transform="translate(2450, 50)" opacity="1"><rect class="elknode" x="0" y="0" rx="10" width="200" height="60" /><text id="sprotty_95" class="elklabel" transform="translate(5, 22) translate(0, 0)" opacity="1">k8s_rbac_authorization_k8s_io_v1beta1_cluster_role_binding.default_che_clusterrole_binding</text></g><g id="sprotty_103" transform="translate(2450, 210)" opacity="1"><rect class="elknode" x="0" y="0" rx="10" width="200" height="60" /><text id="sprotty_104" class="elklabel" transform="translate(5, 22) translate(0, 0)" opacity="1">local.parameters</text></g><g id="sprotty_127" transform="translate(2867, 125.5)" opacity="1"><rect class="elknode" x="0" y="0" rx="10" width="400" height="710" /><g id="sprotty_129" transform="translate(100, 50)" opacity="1"><rect class="elknode" x="0" y="0" rx="10" width="200" height="60" /><text id="sprotty_130" class="elklabel" transform="translate(5, 22) translate(0, 0)" opacity="1">k8s_apps_v1_deployment.this</text></g><g id="sprotty_131" transform="translate(100, 160)" opacity="1"><rect class="elknode" x="0" y="0" rx="10" width="200" height="60" /><text id="sprotty_132" class="elklabel" transform="translate(5, 22) translate(0, 0)" opacity="1">local.k8s_apps_v1_deployment_parameters</text></g><g id="sprotty_134" transform="translate(100, 270)" opacity="1"><rect class="elknode" x="0" y="0" rx="10" width="200" height="60" /><text id="sprotty_135" class="elklabel" transform="translate(5, 22) translate(0, 0)" opacity="1">k8s_core_v1_service.this</text></g><g id="sprotty_136" transform="translate(100, 380)" opacity="1"><rect class="elknode" x="0" y="0" rx="10" width="200" height="60" /><text id="sprotty_137" class="elklabel" transform="translate(5, 22) translate(0, 0)" opacity="1">local.k8s_core_v1_service_parameters</text></g><g id="sprotty_142" transform="translate(100, 490)" opacity="1"><rect class="elknode" x="0" y="0" rx="10" width="200" height="60" /><text id="sprotty_143" class="elklabel" transform="translate(5, 22) translate(0, 0)" opacity="1">local.selector</text></g><g id="sprotty_145" transform="translate(100, 600)" opacity="1"><rect class="elknode" x="0" y="0" rx="10" width="200" height="60" /><text id="sprotty_146" class="elklabel" transform="translate(5, 22) translate(0, 0)" opacity="1">local.labels</text></g><g id="sprotty_139" transform="translate(-16, 50)" opacity="1"><rect class="elkport" x="0" y="0" width="16" height="9" /><text id="sprotty_140" class="elklabel" transform="translate(-1, -1) translate(0, 0)" opacity="1">enable_service</text></g><g id="sprotty_148" transform="translate(-16, 110)" opacity="1"><rect class="elkport" x="0" y="0" width="16" height="9" /><text id="sprotty_149" class="elklabel" transform="translate(-1, 10) translate(0, 0)" opacity="1">parameters</text></g><g id="sprotty_152" transform="translate(400, 50)" opacity="1"><rect class="elkport" x="0" y="0" width="16" height="9" /><text id="sprotty_153" class="elklabel" transform="translate(17, 10) translate(0, 0)" opacity="1">deployment</text></g><g id="sprotty_155" transform="translate(400, 110)" opacity="1"><rect class="elkport" x="0" y="0" width="16" height="9" /><text id="sprotty_156" class="elklabel" transform="translate(17, 10) translate(0, 0)" opacity="1">labels</text></g><g id="sprotty_158" transform="translate(400, 170)" opacity="1"><rect class="elkport" x="0" y="0" width="16" height="9" /><text id="sprotty_159" class="elklabel" transform="translate(17, 10) translate(0, 0)" opacity="1">name</text></g><g id="sprotty_161" transform="translate(400, 230)" opacity="1"><rect class="elkport" x="0" y="0" width="16" height="9" /><text id="sprotty_162" class="elklabel" transform="translate(17, 10) translate(0, 0)" opacity="1">service</text></g><text id="sprotty_128" class="elklabel" transform="translate(0, -21) translate(0, 0)" opacity="1">deployment-service</text></g><g id="sprotty_13" transform="translate(-16, 705.1379310344828)" opacity="1"><rect class="elkport" x="0" y="0" width="16" height="9" /><text id="sprotty_14" class="elklabel" transform="translate(-1, 10) translate(0, 0)" opacity="1">CHE_INFRA_KUBERNETES_CLUSTER__ROLE__NAME</text></g><g id="sprotty_16" transform="translate(-16, 765.1379310344828)" opacity="1"><rect class="elkport" x="0" y="0" width="16" height="9" /><text id="sprotty_17" class="elklabel" transform="translate(-1, 10) translate(0, 0)" opacity="1">CHE_INFRA_KUBERNETES_INGRESS_DOMAIN</text></g><g id="sprotty_19" transform="translate(-16, 825.1379310344828)" opacity="1"><rect class="elkport" x="0" y="0" width="16" height="9" /><text id="sprotty_20" class="elklabel" transform="translate(-1, 10) translate(0, 0)" opacity="1">CHE_INFRA_KUBERNETES_INGRESS_PATH__TRANSFORM</text></g><g id="sprotty_22" transform="translate(-16, 885.1379310344828)" opacity="1"><rect class="elkport" x="0" y="0" width="16" height="9" /><text id="sprotty_23" class="elklabel" transform="translate(-1, 10) translate(0, 0)" opacity="1">CHE_INFRA_KUBERNETES_NAMESPACE_DEFAULT</text></g><g id="sprotty_25" transform="translate(-16, 945.1379310344828)" opacity="1"><rect class="elkport" x="0" y="0" width="16" height="9" /><text id="sprotty_26" class="elklabel" transform="translate(-1, 10) translate(0, 0)" opacity="1">CHE_INFRA_KUBERNETES_POD_SECURITY__CONTEXT_FS__GROUP</text></g><g id="sprotty_28" transform="translate(-16, 1005.1379310344828)" opacity="1"><rect class="elkport" x="0" y="0" width="16" height="9" /><text id="sprotty_29" class="elklabel" transform="translate(-1, 10) translate(0, 0)" opacity="1">CHE_INFRA_KUBERNETES_POD_SECURITY__CONTEXT_RUN__AS__USER</text></g><g id="sprotty_31" transform="translate(-16, 1065.1379310344828)" opacity="1"><rect class="elkport" x="0" y="0" width="16" height="9" /><text id="sprotty_32" class="elklabel" transform="translate(-1, 10) translate(0, 0)" opacity="1">CHE_INFRA_KUBERNETES_PVC_ACCESS__MODE</text></g><g id="sprotty_34" transform="translate(-16, 1125.1379310344828)" opacity="1"><rect class="elkport" x="0" y="0" width="16" height="9" /><text id="sprotty_35" class="elklabel" transform="translate(-1, 10) translate(0, 0)" opacity="1">CHE_INFRA_KUBERNETES_PVC_NAME</text></g><g id="sprotty_37" transform="translate(-16, 1185.1379310344828)" opacity="1"><rect class="elkport" x="0" y="0" width="16" height="9" /><text id="sprotty_38" class="elklabel" transform="translate(-1, 10) translate(0, 0)" opacity="1">CHE_INFRA_KUBERNETES_PVC_QUANTITY</text></g><g id="sprotty_40" transform="translate(-16, 1245.1379310344828)" opacity="1"><rect class="elkport" x="0" y="0" width="16" height="9" /><text id="sprotty_41" class="elklabel" transform="translate(-1, 10) translate(0, 0)" opacity="1">CHE_INFRA_KUBERNETES_PVC_STORAGE__CLASS__NAME</text></g><g id="sprotty_43" transform="translate(-16, 1305.1379310344828)" opacity="1"><rect class="elkport" x="0" y="0" width="16" height="9" /><text id="sprotty_44" class="elklabel" transform="translate(-1, 10) translate(0, 0)" opacity="1">CHE_INFRA_KUBERNETES_SERVER__STRATEGY</text></g><g id="sprotty_46" transform="translate(-16, 1365.1379310344828)" opacity="1"><rect class="elkport" x="0" y="0" width="16" height="9" /><text id="sprotty_47" class="elklabel" transform="translate(-1, 10) translate(0, 0)" opacity="1">CHE_INFRA_KUBERNETES_SERVICE__ACCOUNT__NAME</text></g><g id="sprotty_49" transform="translate(-16, 1425.1379310344828)" opacity="1"><rect class="elkport" x="0" y="0" width="16" height="9" /><text id="sprotty_50" class="elklabel" transform="translate(-1, 10) translate(0, 0)" opacity="1">CHE_INFRA_KUBERNETES_TLS__CERT</text></g><g id="sprotty_52" transform="translate(-16, 1485.1379310344828)" opacity="1"><rect class="elkport" x="0" y="0" width="16" height="9" /><text id="sprotty_53" class="elklabel" transform="translate(-1, 10) translate(0, 0)" opacity="1">CHE_INFRA_KUBERNETES_TLS__KEY</text></g><g id="sprotty_55" transform="translate(-16, 1545.1379310344828)" opacity="1"><rect class="elkport" x="0" y="0" width="16" height="9" /><text id="sprotty_56" class="elklabel" transform="translate(-1, 10) translate(0, 0)" opacity="1">CHE_KEYCLOAK_AUTH__SERVER__URL</text></g><g id="sprotty_58" transform="translate(-16, 1605.1379310344828)" opacity="1"><rect class="elkport" x="0" y="0" width="16" height="9" /><text id="sprotty_59" class="elklabel" transform="translate(-1, 10) translate(0, 0)" opacity="1">CHE_KEYCLOAK_CLIENT__ID</text></g><g id="sprotty_61" transform="translate(-16, 1665.1379310344828)" opacity="1"><rect class="elkport" x="0" y="0" width="16" height="9" /><text id="sprotty_62" class="elklabel" transform="translate(-1, 10) translate(0, 0)" opacity="1">CHE_KEYCLOAK_REALM</text></g><g id="sprotty_64" transform="translate(-16, 1725.1379310344828)" opacity="1"><rect class="elkport" x="0" y="0" width="16" height="9" /><text id="sprotty_65" class="elklabel" transform="translate(-1, 10) translate(0, 0)" opacity="1">CHE_LIMITS_USER_WORKSPACES_RUN_COUNT</text></g><g id="sprotty_67" transform="translate(-16, 1785.1379310344828)" opacity="1"><rect class="elkport" x="0" y="0" width="16" height="9" /><text id="sprotty_68" class="elklabel" transform="translate(-1, 10) translate(0, 0)" opacity="1">CHE_LIMITS_WORKSPACE_IDLE_TIMEOUT</text></g><g id="sprotty_70" transform="translate(-16, 1845.1379310344828)" opacity="1"><rect class="elkport" x="0" y="0" width="16" height="9" /><text id="sprotty_71" class="elklabel" transform="translate(-1, 10) translate(0, 0)" opacity="1">CHE_MULTIUSER</text></g><g id="sprotty_73" transform="translate(-16, 1905.1379310344828)" opacity="1"><rect class="elkport" x="0" y="0" width="16" height="9" /><text id="sprotty_74" class="elklabel" transform="translate(-1, 10) translate(0, 0)" opacity="1">CHE_SYSTEM_ADMIN__NAME</text></g><g id="sprotty_76" transform="translate(-16, 1965.1379310344828)" opacity="1"><rect class="elkport" x="0" y="0" width="16" height="9" /><text id="sprotty_77" class="elklabel" transform="translate(-1, 10) translate(0, 0)" opacity="1">CHE_WORKSPACE_DEVFILE__REGISTRY__URL</text></g><g id="sprotty_79" transform="translate(-16, 2025.1379310344828)" opacity="1"><rect class="elkport" x="0" y="0" width="16" height="9" /><text id="sprotty_80" class="elklabel" transform="translate(-1, 10) translate(0, 0)" opacity="1">CHE_WORKSPACE_PLUGIN__REGISTRY__URL</text></g><g id="sprotty_82" transform="translate(-16, 2085.137931034483)" opacity="1"><rect class="elkport" x="0" y="0" width="16" height="9" /><text id="sprotty_83" class="elklabel" transform="translate(-1, 10) translate(0, 0)" opacity="1">CHE_WORKSPACE_SIDECAR_DEFAULT__MEMORY__LIMIT__MB</text></g><g id="sprotty_85" transform="translate(-16, 2145.137931034483)" opacity="1"><rect class="elkport" x="0" y="0" width="16" height="9" /><text id="sprotty_86" class="elklabel" transform="translate(-1, 10) translate(0, 0)" opacity="1">ingress_class</text></g><g id="sprotty_88" transform="translate(-16, 331)" opacity="1"><rect class="elkport" x="0" y="0" width="16" height="9" /><text id="sprotty_89" class="elklabel" transform="translate(-1, 10) translate(0, 0)" opacity="1">namespace</text></g><g id="sprotty_97" transform="translate(-16, 635.1379310344828)" opacity="1"><rect class="elkport" x="0" y="0" width="16" height="9" /><text id="sprotty_98" class="elklabel" transform="translate(-1, 10) translate(0, 0)" opacity="1">CHE_HOST</text></g><g id="sprotty_100" transform="translate(-16, 455.1379310344828)" opacity="1"><rect class="elkport" x="0" y="0" width="16" height="9" /><text id="sprotty_101" class="elklabel" transform="translate(-1, 10) translate(0, 0)" opacity="1">CHE_INFRA_KUBERNETES_TLS__ENABLED</text></g><g id="sprotty_107" transform="translate(-16, 2205.137931034483)" opacity="1"><rect class="elkport" x="0" y="0" width="16" height="9" /><text id="sprotty_108" class="elklabel" transform="translate(-1, 10) translate(0, 0)" opacity="1">annotations</text></g><g id="sprotty_110" transform="translate(-16, 2265.137931034483)" opacity="1"><rect class="elkport" x="0" y="0" width="16" height="9" /><text id="sprotty_111" class="elklabel" transform="translate(-1, 10) translate(0, 0)" opacity="1">env</text></g><g id="sprotty_113" transform="translate(-16, 2325.137931034483)" opacity="1"><rect class="elkport" x="0" y="0" width="16" height="9" /><text id="sprotty_114" class="elklabel" transform="translate(-1, 10) translate(0, 0)" opacity="1">image</text></g><g id="sprotty_116" transform="translate(-16, 2385.137931034483)" opacity="1"><rect class="elkport" x="0" y="0" width="16" height="9" /><text id="sprotty_117" class="elklabel" transform="translate(-1, 10) translate(0, 0)" opacity="1">name</text></g><g id="sprotty_119" transform="translate(-16, 2445.137931034483)" opacity="1"><rect class="elkport" x="0" y="0" width="16" height="9" /><text id="sprotty_120" class="elklabel" transform="translate(-1, 10) translate(0, 0)" opacity="1">ports</text></g><g id="sprotty_122" transform="translate(-16, 212.16666666666666)" opacity="1"><rect class="elkport" x="0" y="0" width="16" height="9" /><text id="sprotty_123" class="elklabel" transform="translate(-1, 10) translate(0, 0)" opacity="1">replicas</text></g><g id="sprotty_165" transform="translate(-16, 2505.137931034483)" opacity="1"><rect class="elkport" x="0" y="0" width="16" height="9" /><text id="sprotty_166" class="elklabel" transform="translate(-1, 10) translate(0, 0)" opacity="1">overrides</text></g><g id="sprotty_168" transform="translate(3484, 175.5)" opacity="1"><rect class="elkport" x="0" y="0" width="16" height="9" /><text id="sprotty_169" class="elklabel" transform="translate(17, 10) translate(0, 0)" opacity="1">deployment</text></g><g id="sprotty_171" transform="translate(3484, 415.5)" opacity="1"><rect class="elkport" x="0" y="0" width="16" height="9" /><text id="sprotty_172" class="elklabel" transform="translate(17, 10) translate(0, 0)" opacity="1">name</text></g><g id="sprotty_174" transform="translate(3484, 355.5)" opacity="1"><rect class="elkport" x="0" y="0" width="16" height="9" /><text id="sprotty_175" class="elklabel" transform="translate(17, 10) translate(0, 0)" opacity="1">service</text></g><text id="sprotty_4" class="elklabel" transform="translate(0, -21) translate(0, 0)" opacity="1">modules/eclipse-che/eclipse-che</text><g id="sprotty_9" class="sprotty-edge" opacity="1"><path class="elkedge" d="M 450,469.6379310344828 L 1800,469.6379310344828" /><path class="edge arrow" d="M 0,0 L 8,-3 L 8,3 Z" transform="rotate(180 1800 469.6379310344828) translate(1800 469.6379310344828)" /></g><g id="sprotty_12" class="sprotty-edge" opacity="1"><path class="elkedge" d="M 450,629.6379310344828 L 500,629.6379310344828 L 500,471.7068965517241 L 1800,471.7068965517241" /><path class="edge arrow" d="M 0,0 L 8,-3 L 8,3 Z" transform="rotate(180 1800 471.7068965517241) translate(1800 471.7068965517241)" /></g><g id="sprotty_15" class="sprotty-edge" opacity="1"><path class="elkedge" d="M 0,709.6379310344828 L 550,709.6379310344828 L 550,473.7758620689655 L 1800,473.7758620689655" /><path class="edge arrow" d="M 0,0 L 8,-3 L 8,3 Z" transform="rotate(180 1800 473.7758620689655) translate(1800 473.7758620689655)" /></g><g id="sprotty_18" class="sprotty-edge" opacity="1"><path class="elkedge" d="M 0,769.6379310344828 L 600,769.6379310344828 L 600,475.8448275862069 L 1800,475.8448275862069" /><path class="edge arrow" d="M 0,0 L 8,-3 L 8,3 Z" transform="rotate(180 1800 475.8448275862069) translate(1800 475.8448275862069)" /></g><g id="sprotty_21" class="sprotty-edge" opacity="1"><path class="elkedge" d="M 0,829.6379310344828 L 650,829.6379310344828 L 650,477.91379310344826 L 1800,477.91379310344826" /><path class="edge arrow" d="M 0,0 L 8,-3 L 8,3 Z" transform="rotate(180 1800 477.91379310344826) translate(1800 477.91379310344826)" /></g><g id="sprotty_24" class="sprotty-edge" opacity="1"><path class="elkedge" d="M 0,889.6379310344828 L 700,889.6379310344828 L 700,479.98275862068965 L 1800,479.98275862068965" /><path class="edge arrow" d="M 0,0 L 8,-3 L 8,3 Z" transform="rotate(180 1800 479.98275862068965) translate(1800 479.98275862068965)" /></g><g id="sprotty_27" class="sprotty-edge" opacity="1"><path class="elkedge" d="M 0,949.6379310344828 L 750,949.6379310344828 L 750,482.05172413793105 L 1800,482.05172413793105" /><path class="edge arrow" d="M 0,0 L 8,-3 L 8,3 Z" transform="rotate(180 1800 482.05172413793105) translate(1800 482.05172413793105)" /></g><g id="sprotty_30" class="sprotty-edge" opacity="1"><path class="elkedge" d="M 0,1009.6379310344828 L 800,1009.6379310344828 L 800,484.12068965517244 L 1800,484.12068965517244" /><path class="edge arrow" d="M 0,0 L 8,-3 L 8,3 Z" transform="rotate(180 1800 484.12068965517244) translate(1800 484.12068965517244)" /></g><g id="sprotty_33" class="sprotty-edge" opacity="1"><path class="elkedge" d="M 0,1069.6379310344828 L 850,1069.6379310344828 L 850,486.18965517241384 L 1800,486.18965517241384" /><path class="edge arrow" d="M 0,0 L 8,-3 L 8,3 Z" transform="rotate(180 1800 486.18965517241384) translate(1800 486.18965517241384)" /></g><g id="sprotty_36" class="sprotty-edge" opacity="1"><path class="elkedge" d="M 0,1129.6379310344828 L 900,1129.6379310344828 L 900,488.2586206896552 L 1800,488.2586206896552" /><path class="edge arrow" d="M 0,0 L 8,-3 L 8,3 Z" transform="rotate(180 1800 488.2586206896552) translate(1800 488.2586206896552)" /></g><g id="sprotty_39" class="sprotty-edge" opacity="1"><path class="elkedge" d="M 0,1189.6379310344828 L 950,1189.6379310344828 L 950,490.32758620689657 L 1800,490.32758620689657" /><path class="edge arrow" d="M 0,0 L 8,-3 L 8,3 Z" transform="rotate(180 1800 490.32758620689657) translate(1800 490.32758620689657)" /></g><g id="sprotty_42" class="sprotty-edge" opacity="1"><path class="elkedge" d="M 0,1249.6379310344828 L 1000,1249.6379310344828 L 1000,492.39655172413796 L 1800,492.39655172413796" /><path class="edge arrow" d="M 0,0 L 8,-3 L 8,3 Z" transform="rotate(180 1800 492.39655172413796) translate(1800 492.39655172413796)" /></g><g id="sprotty_45" class="sprotty-edge" opacity="1"><path class="elkedge" d="M 0,1309.6379310344828 L 1050,1309.6379310344828 L 1050,494.4655172413793 L 1800,494.4655172413793" /><path class="edge arrow" d="M 0,0 L 8,-3 L 8,3 Z" transform="rotate(180 1800 494.4655172413793) translate(1800 494.4655172413793)" /></g><g id="sprotty_48" class="sprotty-edge" opacity="1"><path class="elkedge" d="M 0,1369.6379310344828 L 1100,1369.6379310344828 L 1100,496.5344827586207 L 1800,496.5344827586207" /><path class="edge arrow" d="M 0,0 L 8,-3 L 8,3 Z" transform="rotate(180 1800 496.5344827586207) translate(1800 496.5344827586207)" /></g><g id="sprotty_51" class="sprotty-edge" opacity="1"><path class="elkedge" d="M 0,1429.6379310344828 L 1150,1429.6379310344828 L 1150,498.6034482758621 L 1800,498.6034482758621" /><path class="edge arrow" d="M 0,0 L 8,-3 L 8,3 Z" transform="rotate(180 1800 498.6034482758621) translate(1800 498.6034482758621)" /></g><g id="sprotty_54" class="sprotty-edge" opacity="1"><path class="elkedge" d="M 0,1489.6379310344828 L 1200,1489.6379310344828 L 1200,500.6724137931035 L 1800,500.6724137931035" /><path class="edge arrow" d="M 0,0 L 8,-3 L 8,3 Z" transform="rotate(180 1800 500.6724137931035) translate(1800 500.6724137931035)" /></g><g id="sprotty_57" class="sprotty-edge" opacity="1"><path class="elkedge" d="M 0,1549.6379310344828 L 1250,1549.6379310344828 L 1250,502.7413793103449 L 1800,502.7413793103449" /><path class="edge arrow" d="M 0,0 L 8,-3 L 8,3 Z" transform="rotate(180 1800 502.7413793103449) translate(1800 502.7413793103449)" /></g><g id="sprotty_60" class="sprotty-edge" opacity="1"><path class="elkedge" d="M 0,1609.6379310344828 L 1300,1609.6379310344828 L 1300,504.8103448275862 L 1800,504.8103448275862" /><path class="edge arrow" d="M 0,0 L 8,-3 L 8,3 Z" transform="rotate(180 1800 504.8103448275862) translate(1800 504.8103448275862)" /></g><g id="sprotty_63" class="sprotty-edge" opacity="1"><path class="elkedge" d="M 0,1669.6379310344828 L 1350,1669.6379310344828 L 1350,506.8793103448276 L 1800,506.8793103448276" /><path class="edge arrow" d="M 0,0 L 8,-3 L 8,3 Z" transform="rotate(180 1800 506.8793103448276) translate(1800 506.8793103448276)" /></g><g id="sprotty_66" class="sprotty-edge" opacity="1"><path class="elkedge" d="M 0,1729.6379310344828 L 1400,1729.6379310344828 L 1400,508.948275862069 L 1800,508.948275862069" /><path class="edge arrow" d="M 0,0 L 8,-3 L 8,3 Z" transform="rotate(180 1800 508.948275862069) translate(1800 508.948275862069)" /></g><g id="sprotty_69" class="sprotty-edge" opacity="1"><path class="elkedge" d="M 0,1789.6379310344828 L 1450,1789.6379310344828 L 1450,511.01724137931035 L 1800,511.01724137931035" /><path class="edge arrow" d="M 0,0 L 8,-3 L 8,3 Z" transform="rotate(180 1800 511.01724137931035) translate(1800 511.01724137931035)" /></g><g id="sprotty_72" class="sprotty-edge" opacity="1"><path class="elkedge" d="M 0,1849.6379310344828 L 1500,1849.6379310344828 L 1500,513.0862068965517 L 1800,513.0862068965517" /><path class="edge arrow" d="M 0,0 L 8,-3 L 8,3 Z" transform="rotate(180 1800 513.0862068965517) translate(1800 513.0862068965517)" /></g><g id="sprotty_75" class="sprotty-edge" opacity="1"><path class="elkedge" d="M 0,1909.6379310344828 L 1550,1909.6379310344828 L 1550,515.1551724137931 L 1800,515.1551724137931" /><path class="edge arrow" d="M 0,0 L 8,-3 L 8,3 Z" transform="rotate(180 1800 515.1551724137931) translate(1800 515.1551724137931)" /></g><g id="sprotty_78" class="sprotty-edge" opacity="1"><path class="elkedge" d="M 0,1969.6379310344828 L 1600,1969.6379310344828 L 1600,517.2241379310345 L 1800,517.2241379310345" /><path class="edge arrow" d="M 0,0 L 8,-3 L 8,3 Z" transform="rotate(180 1800 517.2241379310345) translate(1800 517.2241379310345)" /></g><g id="sprotty_81" class="sprotty-edge" opacity="1"><path class="elkedge" d="M 0,2029.6379310344828 L 1650,2029.6379310344828 L 1650,519.2931034482759 L 1800,519.2931034482759" /><path class="edge arrow" d="M 0,0 L 8,-3 L 8,3 Z" transform="rotate(180 1800 519.2931034482759) translate(1800 519.2931034482759)" /></g><g id="sprotty_84" class="sprotty-edge" opacity="1"><path class="elkedge" d="M 0,2089.637931034483 L 1700,2089.637931034483 L 1700,521.3620689655172 L 1800,521.3620689655172" /><path class="edge arrow" d="M 0,0 L 8,-3 L 8,3 Z" transform="rotate(180 1800 521.3620689655172) translate(1800 521.3620689655172)" /></g><g id="sprotty_87" class="sprotty-edge" opacity="1"><path class="elkedge" d="M 0,2149.637931034483 L 1750,2149.637931034483 L 1750,523.4310344827586 L 1800,523.4310344827586" /><path class="edge arrow" d="M 0,0 L 8,-3 L 8,3 Z" transform="rotate(180 1800 523.4310344827586) translate(1800 523.4310344827586)" /></g><g id="sprotty_90" class="sprotty-edge" opacity="1"><path class="elkedge" d="M 0,335.5 L 500,335.5 L 500,467.5689655172414 L 1800,467.5689655172414" /><path class="edge arrow" d="M 0,0 L 8,-3 L 8,3 Z" transform="rotate(180 1800 467.5689655172414) translate(1800 467.5689655172414)" /><g id="sprotty_90_j0" transform="translate(500, 335.5)" opacity="1"><circle class="elkjunction" r="2" /></g></g><g id="sprotty_93" class="sprotty-edge" opacity="1"><path class="elkedge" d="M 0,335.5 L 1800,335.5" /><path class="edge arrow" d="M 0,0 L 8,-3 L 8,3 Z" transform="rotate(180 1800 335.5) translate(1800 335.5)" /></g><g id="sprotty_96" class="sprotty-edge" opacity="1"><path class="elkedge" d="M 2000,325.5 L 2050,325.5 L 2050,80 L 2450,80" /><path class="edge arrow" d="M 0,0 L 8,-3 L 8,3 Z" transform="rotate(180 2450 80) translate(2450 80)" /></g><g id="sprotty_99" class="sprotty-edge" opacity="1"><path class="elkedge" d="M 0,639.6379310344828 L 150,639.6379310344828 L 150,479.6379310344828 L 250,479.6379310344828" /><path class="edge arrow" d="M 0,0 L 8,-3 L 8,3 Z" transform="rotate(180 250 479.6379310344828) translate(250 479.6379310344828)" /><g id="sprotty_99_j0" transform="translate(150, 639.6379310344828)" opacity="1"><circle class="elkjunction" r="2" /></g></g><g id="sprotty_102" class="sprotty-edge" opacity="1"><path class="elkedge" d="M 0,459.6379310344828 L 250,459.6379310344828" /><path class="edge arrow" d="M 0,0 L 8,-3 L 8,3 Z" transform="rotate(180 250 459.6379310344828) translate(250 459.6379310344828)" /></g><g id="sprotty_105" class="sprotty-edge" opacity="1"><path class="elkedge" d="M 2000,495.5 L 2150,495.5 L 2150,230 L 2450,230" /><path class="edge arrow" d="M 0,0 L 8,-3 L 8,3 Z" transform="rotate(180 2450 230) translate(2450 230)" /></g><g id="sprotty_106" class="sprotty-edge" opacity="1"><path class="elkedge" d="M 2000,345.5 L 2100,345.5 L 2100,223.33333333333331 L 2450,223.33333333333331" /><path class="edge arrow" d="M 0,0 L 8,-3 L 8,3 Z" transform="rotate(180 2450 223.33333333333331) translate(2450 223.33333333333331)" /></g><g id="sprotty_109" class="sprotty-edge" opacity="1"><path class="elkedge" d="M 0,2209.637931034483 L 2200,2209.637931034483 L 2200,236.66666666666666 L 2450,236.66666666666666" /><path class="edge arrow" d="M 0,0 L 8,-3 L 8,3 Z" transform="rotate(180 2450 236.66666666666666) translate(2450 236.66666666666666)" /></g><g id="sprotty_112" class="sprotty-edge" opacity="1"><path class="elkedge" d="M 0,2269.637931034483 L 2250,2269.637931034483 L 2250,243.33333333333331 L 2450,243.33333333333331" /><path class="edge arrow" d="M 0,0 L 8,-3 L 8,3 Z" transform="rotate(180 2450 243.33333333333331) translate(2450 243.33333333333331)" /></g><g id="sprotty_115" class="sprotty-edge" opacity="1"><path class="elkedge" d="M 0,2329.637931034483 L 2300,2329.637931034483 L 2300,250 L 2450,250" /><path class="edge arrow" d="M 0,0 L 8,-3 L 8,3 Z" transform="rotate(180 2450 250) translate(2450 250)" /></g><g id="sprotty_118" class="sprotty-edge" opacity="1"><path class="elkedge" d="M 0,2389.637931034483 L 2350,2389.637931034483 L 2350,256.66666666666663 L 2450,256.66666666666663" /><path class="edge arrow" d="M 0,0 L 8,-3 L 8,3 Z" transform="rotate(180 2450 256.66666666666663) translate(2450 256.66666666666663)" /></g><g id="sprotty_121" class="sprotty-edge" opacity="1"><path class="elkedge" d="M 0,2449.637931034483 L 2400,2449.637931034483 L 2400,263.3333333333333 L 2450,263.3333333333333" /><path class="edge arrow" d="M 0,0 L 8,-3 L 8,3 Z" transform="rotate(180 2450 263.3333333333333) translate(2450 263.3333333333333)" /></g><g id="sprotty_124" class="sprotty-edge" opacity="1"><path class="elkedge" d="M 0,216.66666666666666 L 2450,216.66666666666666" /><path class="edge arrow" d="M 0,0 L 8,-3 L 8,3 Z" transform="rotate(180 2450 216.66666666666666) translate(2450 216.66666666666666)" /></g><g id="sprotty_125" class="sprotty-edge" opacity="1"><path class="elkedge" d="M 0,639.6379310344828 L 250,639.6379310344828" /><path class="edge arrow" d="M 0,0 L 8,-3 L 8,3 Z" transform="rotate(180 250 639.6379310344828) translate(250 639.6379310344828)" /></g><g id="sprotty_126" class="sprotty-edge" opacity="1"><path class="elkedge" d="M 0,459.6379310344828 L 200,459.6379310344828 L 200,619.6379310344828 L 250,619.6379310344828" /><path class="edge arrow" d="M 0,0 L 8,-3 L 8,3 Z" transform="rotate(180 250 619.6379310344828) translate(250 619.6379310344828)" /><g id="sprotty_126_j0" transform="translate(200, 459.6379310344828)" opacity="1"><circle class="elkjunction" r="2" /></g></g><g id="sprotty_133" class="sprotty-edge" opacity="1"><path class="elkedge" d="M 3067,285.5 L 3067,235.5" /><path class="edge arrow" d="M 0,0 L 8,-3 L 8,3 Z" transform="rotate(90 3067 235.5) translate(3067 235.5)" /></g><g id="sprotty_138" class="sprotty-edge" opacity="1"><path class="elkedge" d="M 3067,505.5 L 3067,455.5" /><path class="edge arrow" d="M 0,0 L 8,-3 L 8,3 Z" transform="rotate(90 3067 455.5) translate(3067 455.5)" /></g><g id="sprotty_141" class="sprotty-edge" opacity="1"><path class="elkedge" d="M 2862.8126272912423,184.5 L 3041.582484725051,395.5" /><path class="edge arrow" d="M 0,0 L 8,-3 L 8,3 Z" transform="rotate(-130.27295566323377 3041.582484725051 395.5) translate(3041.582484725051 395.5)" /></g><g id="sprotty_144" class="sprotty-edge" opacity="1"><path class="elkedge" d="M 3067,615.5 L 3067,345.5" /><path class="edge arrow" d="M 0,0 L 8,-3 L 8,3 Z" transform="rotate(90 3067 345.5) translate(3067 345.5)" /></g><g id="sprotty_147" class="sprotty-edge" opacity="1"><path class="elkedge" d="M 3067,725.5 L 3067,565.5" /><path class="edge arrow" d="M 0,0 L 8,-3 L 8,3 Z" transform="rotate(90 3067 565.5) translate(3067 565.5)" /></g><g id="sprotty_150" class="sprotty-edge" opacity="1"><path class="elkedge" d="M 2860.815712900097,244.5 L 3054.8952473326867,725.5" /><path class="edge arrow" d="M 0,0 L 8,-3 L 8,3 Z" transform="rotate(-111.9736695371 3054.8952473326867 725.5) translate(3054.8952473326867 725.5)" /></g><g id="sprotty_151" class="sprotty-edge" opacity="1"><path class="elkedge" d="M 3067,725.5 L 3067,675.5" /><path class="edge arrow" d="M 0,0 L 8,-3 L 8,3 Z" transform="rotate(90 3067 675.5) translate(3067 675.5)" /></g><g id="sprotty_154" class="sprotty-edge" opacity="1"><path class="elkedge" d="M 3167,193.2403846153846 L 3267,180.98076923076923" /><path class="edge arrow" d="M 0,0 L 8,-3 L 8,3 Z" transform="rotate(173.01063484366153 3267 180.98076923076923) translate(3267 180.98076923076923)" /></g><g id="sprotty_157" class="sprotty-edge" opacity="1"><path class="elkedge" d="M 3079.1047526673133,725.5 L 3273.184287099903,244.5" /><path class="edge arrow" d="M 0,0 L 8,-3 L 8,3 Z" transform="rotate(111.9736695371 3273.184287099903 244.5) translate(3273.184287099903 244.5)" /></g><g id="sprotty_160" class="sprotty-edge" opacity="1"><path class="elkedge" d="M 3133.031746031746,235.5 L 3267,296.36538461538464" /><path class="edge arrow" d="M 0,0 L 8,-3 L 8,3 Z" transform="rotate(-155.5664230096372 3267 296.36538461538464) translate(3267 296.36538461538464)" /></g><g id="sprotty_163" class="sprotty-edge" opacity="1"><path class="elkedge" d="M 3162.267175572519,395.5 L 3267,362.5192307692308" /><path class="edge arrow" d="M 0,0 L 8,-3 L 8,3 Z" transform="rotate(162.52058471831904 3267 362.5192307692308) translate(3267 362.5192307692308)" /></g><g id="sprotty_164" class="sprotty-edge" opacity="1"><path class="elkedge" d="M 2650,240 L 2851,240" /><path class="edge arrow" d="M 0,0 L 8,-3 L 8,3 Z" transform="rotate(180 2851 240) translate(2851 240)" /></g><g id="sprotty_167" class="sprotty-edge" opacity="1"><path class="elkedge" d="M 0,2509.637931034483 L 2700,2509.637931034483 L 2700,240 L 2851,240" /><path class="edge arrow" d="M 0,0 L 8,-3 L 8,3 Z" transform="rotate(180 2851 240) translate(2851 240)" /><g id="sprotty_167_j0" transform="translate(2700, 240)" opacity="1"><circle class="elkjunction" r="2" /></g></g><g id="sprotty_170" class="sprotty-edge" opacity="1"><path class="elkedge" d="M 3283,180 L 3484,180" /><path class="edge arrow" d="M 0,0 L 8,-3 L 8,3 Z" transform="rotate(180 3484 180) translate(3484 180)" /></g><g id="sprotty_173" class="sprotty-edge" opacity="1"><path class="elkedge" d="M 3283,300 L 3334,300 L 3334,420 L 3484,420" /><path class="edge arrow" d="M 0,0 L 8,-3 L 8,3 Z" transform="rotate(180 3484 420) translate(3484 420)" /></g><g id="sprotty_176" class="sprotty-edge" opacity="1"><path class="elkedge" d="M 3283,360 L 3484,360" /><path class="edge arrow" d="M 0,0 L 8,-3 L 8,3 Z" transform="rotate(180 3484 360) translate(3484 360)" /></g></g></g></svg>
