<svg id="sprotty_1" class="sprotty-graph sprotty" tabindex="1002" xmlns="http://www.w3.org/2000/svg" viewBox="0 0 5403 2866.5"><style>
.elknode {
    stroke: #448;
    stroke-width: 2;
    fill: #ddf;
    fill-opacity: 0.5;
}

.elkport {
    stroke: #448;
    stroke-width: 1;
    fill: #66c;
}

.elkedge {
    fill: none;
    stroke: #88f;
    stroke-width: 8;
    stroke-opacity: 0.3;
    pointer-events: stroke;
    stroke-linejoin: round;
}

.elkedge:hover {
    stroke: #448;
    stroke-width: 8;
    stroke-opacity: 1;
    stroke-dasharray: 16px;
    stroke-dashoffset: 32px;
    animation: stroke 0.5s linear infinite;
}

@keyframes stroke {
    to {
        stroke-dashoffset: 0;
    }
}

.elkedge.arrow {
    fill: #336;
}

.elklabel {
    stroke-width: 0;
    stroke: #000;
    fill: #000;
    font-family: sans-serif;
    font-size: 10pt;
    dominant-baseline: hanging;
}

.elklabel:hover {
    font-size: 24pt;
}

.elkjunction {
    stroke: none;
    fill: #224;
}

.selected &gt; rect {
    stroke-width: 3;
}

.mouseover {
    stroke: #88f;
}
/*
 * Copyright (C) 2017 TypeFox and others.
 *
 * Licensed under the Apache License, Version 2.0 (the &quot;License&quot;); you may not use this file except in compliance with the License.
 * You may obtain a copy of the License at http://www.apache.org/licenses/LICENSE-2.0
 */

.sprotty {
    padding: 0px;
    font-family: &quot;Helvetica Neue&quot;, Helvetica, Arial, sans-serif;
}

.sprotty-hidden {
    display: block;
    position: absolute;
    width: 0px;
    height: 0px;
}

.sprotty-popup {
    font-family: &quot;Helvetica Neue&quot;, Helvetica, Arial, sans-serif;
    position: absolute;
    background: white;
    border-radius: 5px;
    border: 1px solid;
    max-width: 400px;
    min-width: 100px;
}

.sprotty-popup &gt; div {
    margin: 10px;
}

.sprotty-popup-closed {
    display: none;
}
</style><g transform="scale(1) translate(0,0)"><g id="sprotty_3" transform="translate(117, 71)" opacity="1"><rect class="elknode" x="0" y="0" rx="10" width="5186" height="2745.5" /><g id="sprotty_5" transform="translate(100, 2063)" opacity="1"><rect class="elknode" x="0" y="0" rx="10" width="200" height="60" /><text id="sprotty_6" class="elklabel" transform="translate(5, 22) translate(0, 0)" opacity="1">k8s_core_v1_namespace.this (expand)</text></g><g id="sprotty_10" transform="translate(4886, 1183)" opacity="1"><rect class="elknode" x="0" y="0" rx="10" width="200" height="60" /><text id="sprotty_11" class="elklabel" transform="translate(5, 22) translate(0, 0)" opacity="1">k8s_networking_k8s_io_v1beta1_ingress.this (expand)</text></g><g id="sprotty_13" transform="translate(3485, 836.5)" opacity="1"><rect class="elknode" x="0" y="0" rx="10" width="1134" height="721" /><g id="sprotty_179" transform="translate(100, 50)" opacity="1"><rect class="elknode" x="0" y="0" rx="10" width="200" height="60" /><text id="sprotty_180" class="elklabel" transform="translate(5, 22) translate(0, 0)" opacity="1">module.deployment-service (close)</text></g><g id="sprotty_190" transform="translate(350, 50)" opacity="1"><rect class="elknode" x="0" y="0" rx="10" width="200" height="60" /><text id="sprotty_191" class="elklabel" transform="translate(5, 22) translate(0, 0)" opacity="1">local.parameters (expand)</text></g><g id="sprotty_222" transform="translate(117, 181)" opacity="1"><rect class="elknode" x="0" y="0" rx="10" width="650" height="490" /><g id="sprotty_241" transform="translate(100, 50)" opacity="1"><rect class="elknode" x="0" y="0" rx="10" width="200" height="60" /><text id="sprotty_242" class="elklabel" transform="translate(5, 22) translate(0, 0)" opacity="1">k8s_apps_v1_deployment.this (expand)</text></g><g id="sprotty_243" transform="translate(350, 50)" opacity="1"><rect class="elknode" x="0" y="0" rx="10" width="200" height="60" /><text id="sprotty_244" class="elklabel" transform="translate(5, 22) translate(0, 0)" opacity="1">local.k8s_apps_v1_deployment_parameters (expand)</text></g><g id="sprotty_246" transform="translate(100, 160)" opacity="1"><rect class="elknode" x="0" y="0" rx="10" width="200" height="60" /><text id="sprotty_247" class="elklabel" transform="translate(5, 22) translate(0, 0)" opacity="1">k8s_core_v1_service.this (expand)</text></g><g id="sprotty_248" transform="translate(350, 160)" opacity="1"><rect class="elknode" x="0" y="0" rx="10" width="200" height="60" /><text id="sprotty_249" class="elklabel" transform="translate(5, 22) translate(0, 0)" opacity="1">local.enable_service (expand)</text></g><g id="sprotty_251" transform="translate(100, 270)" opacity="1"><rect class="elknode" x="0" y="0" rx="10" width="200" height="60" /><text id="sprotty_252" class="elklabel" transform="translate(5, 22) translate(0, 0)" opacity="1">local.k8s_core_v1_service_parameters (expand)</text></g><g id="sprotty_257" transform="translate(350, 270)" opacity="1"><rect class="elknode" x="0" y="0" rx="10" width="200" height="60" /><text id="sprotty_258" class="elklabel" transform="translate(5, 22) translate(0, 0)" opacity="1">local.podAnnotations (expand)</text></g><g id="sprotty_260" transform="translate(100, 380)" opacity="1"><rect class="elknode" x="0" y="0" rx="10" width="200" height="60" /><text id="sprotty_261" class="elklabel" transform="translate(5, 22) translate(0, 0)" opacity="1">local.selector (expand)</text></g><g id="sprotty_263" transform="translate(350, 380)" opacity="1"><rect class="elknode" x="0" y="0" rx="10" width="200" height="60" /><text id="sprotty_264" class="elklabel" transform="translate(5, 22) translate(0, 0)" opacity="1">local.labels (expand)</text></g><g id="sprotty_224" transform="translate(650, 50)" opacity="1"><rect class="elkport" x="0" y="0" width="16" height="9" /><text id="sprotty_225" class="elklabel" transform="translate(17, 10) translate(0, 0)" opacity="1">deployment</text></g><g id="sprotty_227" transform="translate(650, 110)" opacity="1"><rect class="elkport" x="0" y="0" width="16" height="9" /><text id="sprotty_228" class="elklabel" transform="translate(17, 10) translate(0, 0)" opacity="1">labels</text></g><g id="sprotty_230" transform="translate(650, 170)" opacity="1"><rect class="elkport" x="0" y="0" width="16" height="9" /><text id="sprotty_231" class="elklabel" transform="translate(17, 10) translate(0, 0)" opacity="1">name</text></g><g id="sprotty_233" transform="translate(650, 230)" opacity="1"><rect class="elkport" x="0" y="0" width="16" height="9" /><text id="sprotty_234" class="elklabel" transform="translate(17, 10) translate(0, 0)" opacity="1">service</text></g><g id="sprotty_254" transform="translate(-16, 50)" opacity="1"><rect class="elkport" x="0" y="0" width="16" height="9" /><text id="sprotty_255" class="elklabel" transform="translate(-1, -1) translate(0, 0)" opacity="1">parameters</text></g><g id="sprotty_268" transform="translate(-16, 110)" opacity="1"><rect class="elkport" x="0" y="0" width="16" height="9" /><text id="sprotty_269" class="elklabel" transform="translate(-1, 10) translate(0, 0)" opacity="1">podAnnotations</text></g><text id="sprotty_223" class="elklabel" transform="translate(0, -21) translate(0, 0)" opacity="1">deployment-service</text></g><g id="sprotty_236" transform="translate(834, 160)" opacity="1"><rect class="elknode" x="0" y="0" rx="10" width="200" height="60" /><text id="sprotty_237" class="elklabel" transform="translate(5, 22) translate(0, 0)" opacity="1">module.deployment-service (expand)</text></g><g id="sprotty_15" transform="translate(1134, 50)" opacity="1"><rect class="elkport" x="0" y="0" width="16" height="9" /><text id="sprotty_16" class="elklabel" transform="translate(17, 10) translate(0, 0)" opacity="1">name</text></g><g id="sprotty_18" transform="translate(1134, 110)" opacity="1"><rect class="elkport" x="0" y="0" width="16" height="9" /><text id="sprotty_19" class="elklabel" transform="translate(17, 10) translate(0, 0)" opacity="1">ports</text></g><g id="sprotty_184" transform="translate(1134, 170)" opacity="1"><rect class="elkport" x="0" y="0" width="16" height="9" /><text id="sprotty_185" class="elklabel" transform="translate(17, 10) translate(0, 0)" opacity="1">service</text></g><g id="sprotty_187" transform="translate(1134, 230)" opacity="1"><rect class="elkport" x="0" y="0" width="16" height="9" /><text id="sprotty_188" class="elklabel" transform="translate(17, 10) translate(0, 0)" opacity="1">statefulset</text></g><g id="sprotty_192" transform="translate(-16, 50)" opacity="1"><rect class="elkport" x="0" y="0" width="16" height="9" /><text id="sprotty_193" class="elklabel" transform="translate(-1, 10) translate(0, 0)" opacity="1">annotations</text></g><g id="sprotty_195" transform="translate(-16, 110)" opacity="1"><rect class="elkport" x="0" y="0" width="16" height="9" /><text id="sprotty_196" class="elklabel" transform="translate(-1, 10) translate(0, 0)" opacity="1">cluster</text></g><g id="sprotty_198" transform="translate(-16, 170)" opacity="1"><rect class="elkport" x="0" y="0" width="16" height="9" /><text id="sprotty_199" class="elklabel" transform="translate(-1, 10) translate(0, 0)" opacity="1">env</text></g><g id="sprotty_201" transform="translate(-16, 230)" opacity="1"><rect class="elkport" x="0" y="0" width="16" height="9" /><text id="sprotty_202" class="elklabel" transform="translate(-1, 10) translate(0, 0)" opacity="1">image</text></g><g id="sprotty_204" transform="translate(-16, 290)" opacity="1"><rect class="elkport" x="0" y="0" width="16" height="9" /><text id="sprotty_205" class="elklabel" transform="translate(-1, 10) translate(0, 0)" opacity="1">jwt</text></g><g id="sprotty_207" transform="translate(-16, 350)" opacity="1"><rect class="elkport" x="0" y="0" width="16" height="9" /><text id="sprotty_208" class="elklabel" transform="translate(-1, 10) translate(0, 0)" opacity="1">name</text></g><g id="sprotty_210" transform="translate(-16, 410)" opacity="1"><rect class="elkport" x="0" y="0" width="16" height="9" /><text id="sprotty_211" class="elklabel" transform="translate(-1, 10) translate(0, 0)" opacity="1">namespace</text></g><g id="sprotty_213" transform="translate(-16, 470)" opacity="1"><rect class="elkport" x="0" y="0" width="16" height="9" /><text id="sprotty_214" class="elklabel" transform="translate(-1, 10) translate(0, 0)" opacity="1">ports</text></g><g id="sprotty_216" transform="translate(-16, 530)" opacity="1"><rect class="elkport" x="0" y="0" width="16" height="9" /><text id="sprotty_217" class="elklabel" transform="translate(-1, 10) translate(0, 0)" opacity="1">replicas</text></g><g id="sprotty_219" transform="translate(-16, 590)" opacity="1"><rect class="elkport" x="0" y="0" width="16" height="9" /><text id="sprotty_220" class="elklabel" transform="translate(-1, 10) translate(0, 0)" opacity="1">resources</text></g><g id="sprotty_278" transform="translate(-16, 650)" opacity="1"><rect class="elkport" x="0" y="0" width="16" height="9" /><text id="sprotty_279" class="elklabel" transform="translate(-1, 10) translate(0, 0)" opacity="1">overrides</text></g><text id="sprotty_14" class="elklabel" transform="translate(0, -21) translate(0, 0)" opacity="1">coordinator</text></g><g id="sprotty_21" transform="translate(3485, 375.5)" opacity="1"><rect class="elknode" x="0" y="0" rx="10" width="200" height="60" /><text id="sprotty_22" class="elklabel" transform="translate(5, 22) translate(0, 0)" opacity="1">module.agency (close)</text></g><g id="sprotty_23" transform="translate(1751, 131)" opacity="1"><rect class="elknode" x="0" y="0" rx="10" width="1150" height="830" /><g id="sprotty_25" transform="translate(100, 50)" opacity="1"><rect class="elknode" x="0" y="0" rx="10" width="200" height="60" /><text id="sprotty_26" class="elklabel" transform="translate(5, 22) translate(0, 0)" opacity="1">module.statefulset-service (close)</text></g><g id="sprotty_43" transform="translate(350, 50)" opacity="1"><rect class="elknode" x="0" y="0" rx="10" width="200" height="60" /><text id="sprotty_44" class="elklabel" transform="translate(5, 22) translate(0, 0)" opacity="1">local.agency-endpoints (expand)</text></g><g id="sprotty_57" transform="translate(600, 50)" opacity="1"><rect class="elknode" x="0" y="0" rx="10" width="200" height="60" /><text id="sprotty_58" class="elklabel" transform="translate(5, 22) translate(0, 0)" opacity="1">local.cluster-agency-endpoints (expand)</text></g><g id="sprotty_63" transform="translate(850, 50)" opacity="1"><rect class="elknode" x="0" y="0" rx="10" width="200" height="60" /><text id="sprotty_64" class="elklabel" transform="translate(5, 22) translate(0, 0)" opacity="1">local.parameters (expand)</text></g><g id="sprotty_90" transform="translate(117, 181)" opacity="1"><rect class="elknode" x="0" y="0" rx="10" width="650" height="490" /><g id="sprotty_109" transform="translate(100, 50)" opacity="1"><rect class="elknode" x="0" y="0" rx="10" width="200" height="60" /><text id="sprotty_110" class="elklabel" transform="translate(5, 22) translate(0, 0)" opacity="1">k8s_apps_v1_stateful_set.this (expand)</text></g><g id="sprotty_111" transform="translate(350, 50)" opacity="1"><rect class="elknode" x="0" y="0" rx="10" width="200" height="60" /><text id="sprotty_112" class="elklabel" transform="translate(5, 22) translate(0, 0)" opacity="1">local.k8s_apps_v1_stateful_set_parameters (expand)</text></g><g id="sprotty_114" transform="translate(100, 160)" opacity="1"><rect class="elknode" x="0" y="0" rx="10" width="200" height="60" /><text id="sprotty_115" class="elklabel" transform="translate(5, 22) translate(0, 0)" opacity="1">k8s_core_v1_service.this (expand)</text></g><g id="sprotty_116" transform="translate(350, 160)" opacity="1"><rect class="elknode" x="0" y="0" rx="10" width="200" height="60" /><text id="sprotty_117" class="elklabel" transform="translate(5, 22) translate(0, 0)" opacity="1">local.enable_service (expand)</text></g><g id="sprotty_119" transform="translate(100, 270)" opacity="1"><rect class="elknode" x="0" y="0" rx="10" width="200" height="60" /><text id="sprotty_120" class="elklabel" transform="translate(5, 22) translate(0, 0)" opacity="1">local.k8s_core_v1_service_parameters (expand)</text></g><g id="sprotty_125" transform="translate(350, 270)" opacity="1"><rect class="elknode" x="0" y="0" rx="10" width="200" height="60" /><text id="sprotty_126" class="elklabel" transform="translate(5, 22) translate(0, 0)" opacity="1">local.podAnnotations (expand)</text></g><g id="sprotty_128" transform="translate(100, 380)" opacity="1"><rect class="elknode" x="0" y="0" rx="10" width="200" height="60" /><text id="sprotty_129" class="elklabel" transform="translate(5, 22) translate(0, 0)" opacity="1">local.selector (expand)</text></g><g id="sprotty_131" transform="translate(350, 380)" opacity="1"><rect class="elknode" x="0" y="0" rx="10" width="200" height="60" /><text id="sprotty_132" class="elklabel" transform="translate(5, 22) translate(0, 0)" opacity="1">local.labels (expand)</text></g><g id="sprotty_92" transform="translate(650, 50)" opacity="1"><rect class="elkport" x="0" y="0" width="16" height="9" /><text id="sprotty_93" class="elklabel" transform="translate(17, 10) translate(0, 0)" opacity="1">labels</text></g><g id="sprotty_95" transform="translate(650, 110)" opacity="1"><rect class="elkport" x="0" y="0" width="16" height="9" /><text id="sprotty_96" class="elklabel" transform="translate(17, 10) translate(0, 0)" opacity="1">name</text></g><g id="sprotty_98" transform="translate(650, 170)" opacity="1"><rect class="elkport" x="0" y="0" width="16" height="9" /><text id="sprotty_99" class="elklabel" transform="translate(17, 10) translate(0, 0)" opacity="1">service</text></g><g id="sprotty_101" transform="translate(650, 230)" opacity="1"><rect class="elkport" x="0" y="0" width="16" height="9" /><text id="sprotty_102" class="elklabel" transform="translate(17, 10) translate(0, 0)" opacity="1">statefulset</text></g><g id="sprotty_122" transform="translate(-16, 50)" opacity="1"><rect class="elkport" x="0" y="0" width="16" height="9" /><text id="sprotty_123" class="elklabel" transform="translate(-1, -1) translate(0, 0)" opacity="1">parameters</text></g><g id="sprotty_136" transform="translate(-16, 110)" opacity="1"><rect class="elkport" x="0" y="0" width="16" height="9" /><text id="sprotty_137" class="elklabel" transform="translate(-1, 10) translate(0, 0)" opacity="1">podAnnotations</text></g><text id="sprotty_91" class="elklabel" transform="translate(0, -21) translate(0, 0)" opacity="1">statefulset-service</text></g><g id="sprotty_104" transform="translate(834, 160)" opacity="1"><rect class="elknode" x="0" y="0" rx="10" width="200" height="60" /><text id="sprotty_105" class="elklabel" transform="translate(5, 22) translate(0, 0)" opacity="1">module.statefulset-service (expand)</text></g><g id="sprotty_28" transform="translate(1150, 50)" opacity="1"><rect class="elkport" x="0" y="0" width="16" height="9" /><text id="sprotty_29" class="elklabel" transform="translate(17, 10) translate(0, 0)" opacity="1">cluster</text></g><g id="sprotty_31" transform="translate(1150, 110)" opacity="1"><rect class="elkport" x="0" y="0" width="16" height="9" /><text id="sprotty_32" class="elklabel" transform="translate(17, 10) translate(0, 0)" opacity="1">name</text></g><g id="sprotty_34" transform="translate(1150, 170)" opacity="1"><rect class="elkport" x="0" y="0" width="16" height="9" /><text id="sprotty_35" class="elklabel" transform="translate(17, 10) translate(0, 0)" opacity="1">ports</text></g><g id="sprotty_37" transform="translate(1150, 230)" opacity="1"><rect class="elkport" x="0" y="0" width="16" height="9" /><text id="sprotty_38" class="elklabel" transform="translate(17, 10) translate(0, 0)" opacity="1">service</text></g><g id="sprotty_40" transform="translate(1150, 290)" opacity="1"><rect class="elkport" x="0" y="0" width="16" height="9" /><text id="sprotty_41" class="elklabel" transform="translate(17, 10) translate(0, 0)" opacity="1">statefulset</text></g><g id="sprotty_45" transform="translate(-16, 50)" opacity="1"><rect class="elkport" x="0" y="0" width="16" height="9" /><text id="sprotty_46" class="elklabel" transform="translate(-1, 10) translate(0, 0)" opacity="1">name</text></g><g id="sprotty_48" transform="translate(-16, 110)" opacity="1"><rect class="elkport" x="0" y="0" width="16" height="9" /><text id="sprotty_49" class="elklabel" transform="translate(-1, 10) translate(0, 0)" opacity="1">namespace</text></g><g id="sprotty_51" transform="translate(-16, 170)" opacity="1"><rect class="elkport" x="0" y="0" width="16" height="9" /><text id="sprotty_52" class="elklabel" transform="translate(-1, 10) translate(0, 0)" opacity="1">ports</text></g><g id="sprotty_54" transform="translate(-16, 230)" opacity="1"><rect class="elkport" x="0" y="0" width="16" height="9" /><text id="sprotty_55" class="elklabel" transform="translate(-1, 10) translate(0, 0)" opacity="1">replicas</text></g><g id="sprotty_66" transform="translate(-16, 290)" opacity="1"><rect class="elkport" x="0" y="0" width="16" height="9" /><text id="sprotty_67" class="elklabel" transform="translate(-1, 10) translate(0, 0)" opacity="1">annotations</text></g><g id="sprotty_69" transform="translate(-16, 350)" opacity="1"><rect class="elkport" x="0" y="0" width="16" height="9" /><text id="sprotty_70" class="elklabel" transform="translate(-1, 10) translate(0, 0)" opacity="1">env</text></g><g id="sprotty_72" transform="translate(-16, 410)" opacity="1"><rect class="elkport" x="0" y="0" width="16" height="9" /><text id="sprotty_73" class="elklabel" transform="translate(-1, 10) translate(0, 0)" opacity="1">image</text></g><g id="sprotty_75" transform="translate(-16, 470)" opacity="1"><rect class="elkport" x="0" y="0" width="16" height="9" /><text id="sprotty_76" class="elklabel" transform="translate(-1, 10) translate(0, 0)" opacity="1">jwt</text></g><g id="sprotty_78" transform="translate(-16, 530)" opacity="1"><rect class="elkport" x="0" y="0" width="16" height="9" /><text id="sprotty_79" class="elklabel" transform="translate(-1, 10) translate(0, 0)" opacity="1">resources</text></g><g id="sprotty_81" transform="translate(-16, 590)" opacity="1"><rect class="elkport" x="0" y="0" width="16" height="9" /><text id="sprotty_82" class="elklabel" transform="translate(-1, 10) translate(0, 0)" opacity="1">storage</text></g><g id="sprotty_84" transform="translate(-16, 650)" opacity="1"><rect class="elkport" x="0" y="0" width="16" height="9" /><text id="sprotty_85" class="elklabel" transform="translate(-1, 10) translate(0, 0)" opacity="1">storage_class</text></g><g id="sprotty_87" transform="translate(-16, 710)" opacity="1"><rect class="elkport" x="0" y="0" width="16" height="9" /><text id="sprotty_88" class="elklabel" transform="translate(-1, 10) translate(0, 0)" opacity="1">volume_claim_template_name</text></g><g id="sprotty_146" transform="translate(-16, 770)" opacity="1"><rect class="elkport" x="0" y="0" width="16" height="9" /><text id="sprotty_147" class="elklabel" transform="translate(-1, 10) translate(0, 0)" opacity="1">overrides</text></g><text id="sprotty_24" class="elklabel" transform="translate(0, -21) translate(0, 0)" opacity="1">agency</text></g><g id="sprotty_106" transform="translate(917, 296.5)" opacity="1"><rect class="elknode" x="0" y="0" rx="10" width="200" height="60" /><text id="sprotty_107" class="elklabel" transform="translate(5, 22) translate(0, 0)" opacity="1">module.agency (expand)</text></g><g id="sprotty_156" transform="translate(917, 981)" opacity="1"><rect class="elknode" x="0" y="0" rx="10" width="200" height="60" /><text id="sprotty_157" class="elklabel" transform="translate(5, 22) translate(0, 0)" opacity="1">local.env (expand)</text></g><g id="sprotty_162" transform="translate(717, 2174.5)" opacity="1"><rect class="elknode" x="0" y="0" rx="10" width="400" height="470" /><g id="sprotty_452" transform="translate(100, 50)" opacity="1"><rect class="elknode" x="0" y="0" rx="10" width="200" height="60" /><text id="sprotty_453" class="elklabel" transform="translate(5, 22) translate(0, 0)" opacity="1">k8s_core_v1_secret.this (expand)</text></g><g id="sprotty_454" transform="translate(100, 160)" opacity="1"><rect class="elknode" x="0" y="0" rx="10" width="200" height="60" /><text id="sprotty_455" class="elklabel" transform="translate(5, 22) translate(0, 0)" opacity="1">local.data (expand)</text></g><g id="sprotty_164" transform="translate(400, 50)" opacity="1"><rect class="elkport" x="0" y="0" width="16" height="9" /><text id="sprotty_165" class="elklabel" transform="translate(17, 10) translate(0, 0)" opacity="1">name</text></g><g id="sprotty_445" transform="translate(400, 110)" opacity="1"><rect class="elkport" x="0" y="0" width="16" height="9" /><text id="sprotty_446" class="elklabel" transform="translate(17, 10) translate(0, 0)" opacity="1">checksum</text></g><g id="sprotty_449" transform="translate(400, 170)" opacity="1"><rect class="elkport" x="0" y="0" width="16" height="9" /><text id="sprotty_450" class="elklabel" transform="translate(17, 10) translate(0, 0)" opacity="1">secret</text></g><g id="sprotty_457" transform="translate(-16, 50)" opacity="1"><rect class="elkport" x="0" y="0" width="16" height="9" /><text id="sprotty_458" class="elklabel" transform="translate(-1, 10) translate(0, 0)" opacity="1">name</text></g><g id="sprotty_460" transform="translate(-16, 110)" opacity="1"><rect class="elkport" x="0" y="0" width="16" height="9" /><text id="sprotty_461" class="elklabel" transform="translate(-1, 10) translate(0, 0)" opacity="1">namespace</text></g><g id="sprotty_463" transform="translate(-16, 170)" opacity="1"><rect class="elkport" x="0" y="0" width="16" height="9" /><text id="sprotty_464" class="elklabel" transform="translate(-1, 10) translate(0, 0)" opacity="1">type</text></g><g id="sprotty_466" transform="translate(-16, 230)" opacity="1"><rect class="elkport" x="0" y="0" width="16" height="9" /><text id="sprotty_467" class="elklabel" transform="translate(-1, 10) translate(0, 0)" opacity="1">from</text></g><g id="sprotty_469" transform="translate(-16, 290)" opacity="1"><rect class="elkport" x="0" y="0" width="16" height="9" /><text id="sprotty_470" class="elklabel" transform="translate(-1, 10) translate(0, 0)" opacity="1">from</text></g><g id="sprotty_472" transform="translate(-16, 350)" opacity="1"><rect class="elkport" x="0" y="0" width="16" height="9" /><text id="sprotty_473" class="elklabel" transform="translate(-1, 10) translate(0, 0)" opacity="1">from</text></g><g id="sprotty_475" transform="translate(-16, 410)" opacity="1"><rect class="elkport" x="0" y="0" width="16" height="9" /><text id="sprotty_476" class="elklabel" transform="translate(-1, 10) translate(0, 0)" opacity="1">from</text></g><text id="sprotty_163" class="elklabel" transform="translate(0, -21) translate(0, 0)" opacity="1">jwt-secret-file</text></g><g id="sprotty_177" transform="translate(4886, 1023)" opacity="1"><rect class="elknode" x="0" y="0" rx="10" width="200" height="60" /><text id="sprotty_178" class="elklabel" transform="translate(5, 22) translate(0, 0)" opacity="1">module.coordinator (close)</text></g><g id="sprotty_238" transform="translate(2701, 1182)" opacity="1"><rect class="elknode" x="0" y="0" rx="10" width="200" height="60" /><text id="sprotty_239" class="elklabel" transform="translate(5, 22) translate(0, 0)" opacity="1">module.coordinator (expand)</text></g><g id="sprotty_301" transform="translate(4886, 1865)" opacity="1"><rect class="elknode" x="0" y="0" rx="10" width="200" height="60" /><text id="sprotty_302" class="elklabel" transform="translate(5, 22) translate(0, 0)" opacity="1">module.dbserver (close)</text></g><g id="sprotty_303" transform="translate(3485, 1678.5)" opacity="1"><rect class="elknode" x="0" y="0" rx="10" width="1134" height="890" /><g id="sprotty_305" transform="translate(100, 50)" opacity="1"><rect class="elknode" x="0" y="0" rx="10" width="200" height="60" /><text id="sprotty_306" class="elklabel" transform="translate(5, 22) translate(0, 0)" opacity="1">module.statefulset-service (close)</text></g><g id="sprotty_320" transform="translate(350, 50)" opacity="1"><rect class="elknode" x="0" y="0" rx="10" width="200" height="60" /><text id="sprotty_321" class="elklabel" transform="translate(5, 22) translate(0, 0)" opacity="1">local.parameters (expand)</text></g><g id="sprotty_361" transform="translate(117, 181)" opacity="1"><rect class="elknode" x="0" y="0" rx="10" width="650" height="490" /><g id="sprotty_380" transform="translate(100, 50)" opacity="1"><rect class="elknode" x="0" y="0" rx="10" width="200" height="60" /><text id="sprotty_381" class="elklabel" transform="translate(5, 22) translate(0, 0)" opacity="1">k8s_apps_v1_stateful_set.this (expand)</text></g><g id="sprotty_382" transform="translate(350, 50)" opacity="1"><rect class="elknode" x="0" y="0" rx="10" width="200" height="60" /><text id="sprotty_383" class="elklabel" transform="translate(5, 22) translate(0, 0)" opacity="1">local.k8s_apps_v1_stateful_set_parameters (expand)</text></g><g id="sprotty_385" transform="translate(100, 160)" opacity="1"><rect class="elknode" x="0" y="0" rx="10" width="200" height="60" /><text id="sprotty_386" class="elklabel" transform="translate(5, 22) translate(0, 0)" opacity="1">k8s_core_v1_service.this (expand)</text></g><g id="sprotty_387" transform="translate(350, 160)" opacity="1"><rect class="elknode" x="0" y="0" rx="10" width="200" height="60" /><text id="sprotty_388" class="elklabel" transform="translate(5, 22) translate(0, 0)" opacity="1">local.enable_service (expand)</text></g><g id="sprotty_390" transform="translate(100, 270)" opacity="1"><rect class="elknode" x="0" y="0" rx="10" width="200" height="60" /><text id="sprotty_391" class="elklabel" transform="translate(5, 22) translate(0, 0)" opacity="1">local.k8s_core_v1_service_parameters (expand)</text></g><g id="sprotty_396" transform="translate(350, 270)" opacity="1"><rect class="elknode" x="0" y="0" rx="10" width="200" height="60" /><text id="sprotty_397" class="elklabel" transform="translate(5, 22) translate(0, 0)" opacity="1">local.podAnnotations (expand)</text></g><g id="sprotty_399" transform="translate(100, 380)" opacity="1"><rect class="elknode" x="0" y="0" rx="10" width="200" height="60" /><text id="sprotty_400" class="elklabel" transform="translate(5, 22) translate(0, 0)" opacity="1">local.selector (expand)</text></g><g id="sprotty_402" transform="translate(350, 380)" opacity="1"><rect class="elknode" x="0" y="0" rx="10" width="200" height="60" /><text id="sprotty_403" class="elklabel" transform="translate(5, 22) translate(0, 0)" opacity="1">local.labels (expand)</text></g><g id="sprotty_363" transform="translate(650, 50)" opacity="1"><rect class="elkport" x="0" y="0" width="16" height="9" /><text id="sprotty_364" class="elklabel" transform="translate(17, 10) translate(0, 0)" opacity="1">labels</text></g><g id="sprotty_366" transform="translate(650, 110)" opacity="1"><rect class="elkport" x="0" y="0" width="16" height="9" /><text id="sprotty_367" class="elklabel" transform="translate(17, 10) translate(0, 0)" opacity="1">name</text></g><g id="sprotty_369" transform="translate(650, 170)" opacity="1"><rect class="elkport" x="0" y="0" width="16" height="9" /><text id="sprotty_370" class="elklabel" transform="translate(17, 10) translate(0, 0)" opacity="1">service</text></g><g id="sprotty_372" transform="translate(650, 230)" opacity="1"><rect class="elkport" x="0" y="0" width="16" height="9" /><text id="sprotty_373" class="elklabel" transform="translate(17, 10) translate(0, 0)" opacity="1">statefulset</text></g><g id="sprotty_393" transform="translate(-16, 50)" opacity="1"><rect class="elkport" x="0" y="0" width="16" height="9" /><text id="sprotty_394" class="elklabel" transform="translate(-1, -1) translate(0, 0)" opacity="1">parameters</text></g><g id="sprotty_407" transform="translate(-16, 110)" opacity="1"><rect class="elkport" x="0" y="0" width="16" height="9" /><text id="sprotty_408" class="elklabel" transform="translate(-1, 10) translate(0, 0)" opacity="1">podAnnotations</text></g><text id="sprotty_362" class="elklabel" transform="translate(0, -21) translate(0, 0)" opacity="1">statefulset-service</text></g><g id="sprotty_375" transform="translate(834, 160)" opacity="1"><rect class="elknode" x="0" y="0" rx="10" width="200" height="60" /><text id="sprotty_376" class="elklabel" transform="translate(5, 22) translate(0, 0)" opacity="1">module.statefulset-service (expand)</text></g><g id="sprotty_308" transform="translate(1134, 50)" opacity="1"><rect class="elkport" x="0" y="0" width="16" height="9" /><text id="sprotty_309" class="elklabel" transform="translate(17, 10) translate(0, 0)" opacity="1">name</text></g><g id="sprotty_311" transform="translate(1134, 110)" opacity="1"><rect class="elkport" x="0" y="0" width="16" height="9" /><text id="sprotty_312" class="elklabel" transform="translate(17, 10) translate(0, 0)" opacity="1">ports</text></g><g id="sprotty_314" transform="translate(1134, 170)" opacity="1"><rect class="elkport" x="0" y="0" width="16" height="9" /><text id="sprotty_315" class="elklabel" transform="translate(17, 10) translate(0, 0)" opacity="1">service</text></g><g id="sprotty_317" transform="translate(1134, 230)" opacity="1"><rect class="elkport" x="0" y="0" width="16" height="9" /><text id="sprotty_318" class="elklabel" transform="translate(17, 10) translate(0, 0)" opacity="1">statefulset</text></g><g id="sprotty_322" transform="translate(-16, 50)" opacity="1"><rect class="elkport" x="0" y="0" width="16" height="9" /><text id="sprotty_323" class="elklabel" transform="translate(-1, 10) translate(0, 0)" opacity="1">annotations</text></g><g id="sprotty_325" transform="translate(-16, 110)" opacity="1"><rect class="elkport" x="0" y="0" width="16" height="9" /><text id="sprotty_326" class="elklabel" transform="translate(-1, 10) translate(0, 0)" opacity="1">cluster</text></g><g id="sprotty_328" transform="translate(-16, 170)" opacity="1"><rect class="elkport" x="0" y="0" width="16" height="9" /><text id="sprotty_329" class="elklabel" transform="translate(-1, 10) translate(0, 0)" opacity="1">env</text></g><g id="sprotty_331" transform="translate(-16, 230)" opacity="1"><rect class="elkport" x="0" y="0" width="16" height="9" /><text id="sprotty_332" class="elklabel" transform="translate(-1, 10) translate(0, 0)" opacity="1">image</text></g><g id="sprotty_334" transform="translate(-16, 290)" opacity="1"><rect class="elkport" x="0" y="0" width="16" height="9" /><text id="sprotty_335" class="elklabel" transform="translate(-1, 10) translate(0, 0)" opacity="1">jwt</text></g><g id="sprotty_337" transform="translate(-16, 350)" opacity="1"><rect class="elkport" x="0" y="0" width="16" height="9" /><text id="sprotty_338" class="elklabel" transform="translate(-1, 10) translate(0, 0)" opacity="1">name</text></g><g id="sprotty_340" transform="translate(-16, 410)" opacity="1"><rect class="elkport" x="0" y="0" width="16" height="9" /><text id="sprotty_341" class="elklabel" transform="translate(-1, 10) translate(0, 0)" opacity="1">namespace</text></g><g id="sprotty_343" transform="translate(-16, 470)" opacity="1"><rect class="elkport" x="0" y="0" width="16" height="9" /><text id="sprotty_344" class="elklabel" transform="translate(-1, 10) translate(0, 0)" opacity="1">ports</text></g><g id="sprotty_346" transform="translate(-16, 530)" opacity="1"><rect class="elkport" x="0" y="0" width="16" height="9" /><text id="sprotty_347" class="elklabel" transform="translate(-1, 10) translate(0, 0)" opacity="1">replicas</text></g><g id="sprotty_349" transform="translate(-16, 590)" opacity="1"><rect class="elkport" x="0" y="0" width="16" height="9" /><text id="sprotty_350" class="elklabel" transform="translate(-1, 10) translate(0, 0)" opacity="1">resources</text></g><g id="sprotty_352" transform="translate(-16, 650)" opacity="1"><rect class="elkport" x="0" y="0" width="16" height="9" /><text id="sprotty_353" class="elklabel" transform="translate(-1, 10) translate(0, 0)" opacity="1">storage</text></g><g id="sprotty_355" transform="translate(-16, 710)" opacity="1"><rect class="elkport" x="0" y="0" width="16" height="9" /><text id="sprotty_356" class="elklabel" transform="translate(-1, 10) translate(0, 0)" opacity="1">storage_class</text></g><g id="sprotty_358" transform="translate(-16, 770)" opacity="1"><rect class="elkport" x="0" y="0" width="16" height="9" /><text id="sprotty_359" class="elklabel" transform="translate(-1, 10) translate(0, 0)" opacity="1">volume_claim_template_name</text></g><g id="sprotty_417" transform="translate(-16, 830)" opacity="1"><rect class="elkport" x="0" y="0" width="16" height="9" /><text id="sprotty_418" class="elklabel" transform="translate(-1, 10) translate(0, 0)" opacity="1">overrides</text></g><text id="sprotty_304" class="elklabel" transform="translate(0, -21) translate(0, 0)" opacity="1">dbserver</text></g><g id="sprotty_377" transform="translate(2701, 2144)" opacity="1"><rect class="elknode" x="0" y="0" rx="10" width="200" height="60" /><text id="sprotty_378" class="elklabel" transform="translate(5, 22) translate(0, 0)" opacity="1">module.dbserver (expand)</text></g><g id="sprotty_443" transform="translate(1751, 2304)" opacity="1"><rect class="elknode" x="0" y="0" rx="10" width="200" height="60" /><text id="sprotty_444" class="elklabel" transform="translate(5, 22) translate(0, 0)" opacity="1">module.jwt-secret-file (close)</text></g><g id="sprotty_481" transform="translate(100, 2536.5)" opacity="1"><rect class="elknode" x="0" y="0" rx="10" width="200" height="60" /><text id="sprotty_482" class="elklabel" transform="translate(5, 22) translate(0, 0)" opacity="1">module.jwt-secret-file (expand)</text></g><g id="sprotty_7" transform="translate(-16, 2088.5)" opacity="1"><rect class="elkport" x="0" y="0" width="16" height="9" /><text id="sprotty_8" class="elklabel" transform="translate(-1, 10) translate(0, 0)" opacity="1">namespace</text></g><text id="sprotty_4" class="elklabel" transform="translate(0, -21) translate(0, 0)" opacity="1">examples/arangodb</text><g id="sprotty_9" class="sprotty-edge" opacity="1"><path class="elkedge" d="M 0,2093 L 100,2093" /><path class="edge arrow" d="M 0,0 L 8,-3 L 8,3 Z" transform="rotate(180 100 2093) translate(100 2093)" /></g><g id="sprotty_12" class="sprotty-edge" opacity="1"><path class="elkedge" d="M 300,2113 L 350,2113 L 350,2694.5 L 4836,2694.5 L 4836,1228 L 4886,1228" /><path class="edge arrow" d="M 0,0 L 8,-3 L 8,3 Z" transform="rotate(180 4886 1228) translate(4886 1228)" /></g><g id="sprotty_17" class="sprotty-edge" opacity="1"><path class="elkedge" d="M 4635,891 L 4786,891 L 4786,1198 L 4886,1198" /><path class="edge arrow" d="M 0,0 L 8,-3 L 8,3 Z" transform="rotate(180 4886 1198) translate(4886 1198)" /></g><g id="sprotty_20" class="sprotty-edge" opacity="1"><path class="elkedge" d="M 4635,951 L 4736,951 L 4736,1213 L 4886,1213" /><path class="edge arrow" d="M 0,0 L 8,-3 L 8,3 Z" transform="rotate(180 4886 1213) translate(4886 1213)" /><g id="sprotty_20_j0" transform="translate(4736, 1213)" opacity="1"><circle class="elkjunction" r="2" /></g></g><g id="sprotty_27" class="sprotty-edge" opacity="1"><path class="elkedge" d="M 2051,222.9033047735618 L 3485,393.5966952264382" /><path class="edge arrow" d="M 0,0 L 8,-3 L 8,3 Z" transform="rotate(-173.2118486348702 3485 393.5966952264382) translate(3485 393.5966952264382)" /></g><g id="sprotty_30" class="sprotty-edge" opacity="1"><path class="elkedge" d="M 2917,185.5 L 3118,185.5 L 3118,385.5 L 3485,385.5" /><path class="edge arrow" d="M 0,0 L 8,-3 L 8,3 Z" transform="rotate(180 3485 385.5) translate(3485 385.5)" /><g id="sprotty_30_j0" transform="translate(3118, 385.5)" opacity="1"><circle class="elkjunction" r="2" /></g></g><g id="sprotty_33" class="sprotty-edge" opacity="1"><path class="elkedge" d="M 2917,245.5 L 3168,245.5 L 3168,395.5 L 3485,395.5" /><path class="edge arrow" d="M 0,0 L 8,-3 L 8,3 Z" transform="rotate(180 3485 395.5) translate(3485 395.5)" /></g><g id="sprotty_36" class="sprotty-edge" opacity="1"><path class="elkedge" d="M 2917,305.5 L 3218,305.5 L 3218,405.5 L 3485,405.5" /><path class="edge arrow" d="M 0,0 L 8,-3 L 8,3 Z" transform="rotate(180 3485 405.5) translate(3485 405.5)" /></g><g id="sprotty_39" class="sprotty-edge" opacity="1"><path class="elkedge" d="M 2917,365.5 L 2968,365.5 L 2968,415.5 L 3485,415.5" /><path class="edge arrow" d="M 0,0 L 8,-3 L 8,3 Z" transform="rotate(180 3485 415.5) translate(3485 415.5)" /></g><g id="sprotty_42" class="sprotty-edge" opacity="1"><path class="elkedge" d="M 2917,425.5 L 3485,425.5" /><path class="edge arrow" d="M 0,0 L 8,-3 L 8,3 Z" transform="rotate(180 3485 425.5) translate(3485 425.5)" /></g><g id="sprotty_47" class="sprotty-edge" opacity="1"><path class="elkedge" d="M 1751,185.94541484716157 L 2101,205.43231441048033" /><path class="edge arrow" d="M 0,0 L 8,-3 L 8,3 Z" transform="rotate(-176.81324131380964 2101 205.43231441048033) translate(2101 205.43231441048033)" /></g><g id="sprotty_50" class="sprotty-edge" opacity="1"><path class="elkedge" d="M 1751,244.89737991266375 L 2101,218.53275109170306" /><path class="edge arrow" d="M 0,0 L 8,-3 L 8,3 Z" transform="rotate(175.69218709699993 2101 218.53275109170306) translate(2101 218.53275109170306)" /></g><g id="sprotty_53" class="sprotty-edge" opacity="1"><path class="elkedge" d="M 1751,303.84934497816596 L 2101,231.63318777292577" /><path class="edge arrow" d="M 0,0 L 8,-3 L 8,3 Z" transform="rotate(168.34165965728076 2101 231.63318777292577) translate(2101 231.63318777292577)" /></g><g id="sprotty_56" class="sprotty-edge" opacity="1"><path class="elkedge" d="M 1751,362.8013100436681 L 2112.0679611650485,241" /><path class="edge arrow" d="M 0,0 L 8,-3 L 8,3 Z" transform="rotate(161.35888472155233 2112.0679611650485 241) translate(2112.0679611650485 241)" /></g><g id="sprotty_59" class="sprotty-edge" opacity="1"><path class="elkedge" d="M 1751,185.78813559322035 L 2351,207.39830508474574" /><path class="edge arrow" d="M 0,0 L 8,-3 L 8,3 Z" transform="rotate(-177.9372724518615 2351 207.39830508474574) translate(2351 207.39830508474574)" /></g><g id="sprotty_60" class="sprotty-edge" opacity="1"><path class="elkedge" d="M 1751,245.11016949152543 L 2351,215.8728813559322" /><path class="edge arrow" d="M 0,0 L 8,-3 L 8,3 Z" transform="rotate(177.21025132948532 2351 215.8728813559322) translate(2351 215.8728813559322)" /></g><g id="sprotty_61" class="sprotty-edge" opacity="1"><path class="elkedge" d="M 1751,304.43220338983053 L 2351,224.34745762711864" /><path class="edge arrow" d="M 0,0 L 8,-3 L 8,3 Z" transform="rotate(172.39740551023937 2351 224.34745762711864) translate(2351 224.34745762711864)" /></g><g id="sprotty_62" class="sprotty-edge" opacity="1"><path class="elkedge" d="M 1751,363.7542372881356 L 2351,232.82203389830508" /><path class="edge arrow" d="M 0,0 L 8,-3 L 8,3 Z" transform="rotate(167.6898774102715 2351 232.82203389830508) translate(2351 232.82203389830508)" /></g><g id="sprotty_65" class="sprotty-edge" opacity="1"><path class="elkedge" d="M 2301,211 L 2601,211" /><path class="edge arrow" d="M 0,0 L 8,-3 L 8,3 Z" transform="rotate(180 2601 211) translate(2601 211)" /></g><g id="sprotty_68" class="sprotty-edge" opacity="1"><path class="elkedge" d="M 1751,423.7087682672234 L 2601,233.39039665970773" /><path class="edge arrow" d="M 0,0 L 8,-3 L 8,3 Z" transform="rotate(167.37940264415772 2601 233.39039665970773) translate(2601 233.39039665970773)" /></g><g id="sprotty_71" class="sprotty-edge" opacity="1"><path class="elkedge" d="M 1751,483.20772442588725 L 2601,239.65344467640918" /><path class="edge arrow" d="M 0,0 L 8,-3 L 8,3 Z" transform="rotate(164.01116829935933 2601 239.65344467640918) translate(2601 239.65344467640918)" /></g><g id="sprotty_74" class="sprotty-edge" opacity="1"><path class="elkedge" d="M 1751,542.7066805845511 L 2615.080717488789,241" /><path class="edge arrow" d="M 0,0 L 8,-3 L 8,3 Z" transform="rotate(160.7525895179924 2615.080717488789 241) translate(2615.080717488789 241)" /></g><g id="sprotty_77" class="sprotty-edge" opacity="1"><path class="elkedge" d="M 1751,602.2056367432151 L 2628.1482889733843,241" /><path class="edge arrow" d="M 0,0 L 8,-3 L 8,3 Z" transform="rotate(157.61836092442843 2628.1482889733843 241) translate(2628.1482889733843 241)" /></g><g id="sprotty_80" class="sprotty-edge" opacity="1"><path class="elkedge" d="M 1751,661.7045929018789 L 2637.7656765676566,241" /><path class="edge arrow" d="M 0,0 L 8,-3 L 8,3 Z" transform="rotate(154.6191266069432 2637.7656765676566 241) translate(2637.7656765676566 241)" /></g><g id="sprotty_83" class="sprotty-edge" opacity="1"><path class="elkedge" d="M 1751,721.2035490605429 L 2645.139941690962,241" /><path class="edge arrow" d="M 0,0 L 8,-3 L 8,3 Z" transform="rotate(151.761694842471 2645.139941690962 241) translate(2645.139941690962 241)" /></g><g id="sprotty_86" class="sprotty-edge" opacity="1"><path class="elkedge" d="M 1750.503916449086,781 L 2650.9738903394255,241" /><path class="edge arrow" d="M 0,0 L 8,-3 L 8,3 Z" transform="rotate(149.04943816628378 2650.9738903394255 241) translate(2650.9738903394255 241)" /></g><g id="sprotty_89" class="sprotty-edge" opacity="1"><path class="elkedge" d="M 1749.7943262411347,841 L 2655.704491725768,241" /><path class="edge arrow" d="M 0,0 L 8,-3 L 8,3 Z" transform="rotate(146.482801185272 2655.704491725768 241) translate(2655.704491725768 241)" /></g><g id="sprotty_94" class="sprotty-edge" opacity="1"><path class="elkedge" d="M 2518,364.33652173913043 L 2051,238.04347826086956" /><path class="edge arrow" d="M 0,0 L 8,-3 L 8,3 Z" transform="rotate(15.132791155298072 2051 238.04347826086956) translate(2051 238.04347826086956)" /></g><g id="sprotty_97" class="sprotty-edge" opacity="1"><path class="elkedge" d="M 2518,423.50173913043477 L 2031.046403712297,241" /><path class="edge arrow" d="M 0,0 L 8,-3 L 8,3 Z" transform="rotate(20.545124457395485 2031.046403712297 241) translate(2031.046403712297 241)" /></g><g id="sprotty_100" class="sprotty-edge" opacity="1"><path class="elkedge" d="M 2518,482.66695652173917 L 2013.6134301270417,241" /><path class="edge arrow" d="M 0,0 L 8,-3 L 8,3 Z" transform="rotate(25.600499228264773 2013.6134301270417 241) translate(2013.6134301270417 241)" /></g><g id="sprotty_103" class="sprotty-edge" opacity="1"><path class="elkedge" d="M 2518.2876304023844,542 L 2002.4157973174367,241" /><path class="edge arrow" d="M 0,0 L 8,-3 L 8,3 Z" transform="rotate(30.262632306448644 2002.4157973174367 241) translate(2002.4157973174367 241)" /></g><g id="sprotty_108" class="sprotty-edge" opacity="1"><path class="elkedge" d="M 1117,326.17026378896884 L 2585,321.32973621103116" /><path class="edge arrow" d="M 0,0 L 8,-3 L 8,3 Z" transform="rotate(179.81107575224988 2585 321.32973621103116) translate(2585 321.32973621103116)" /></g><g id="sprotty_113" class="sprotty-edge" opacity="1"><path class="elkedge" d="M 2218,392 L 2168,392" /><path class="edge arrow" d="M 0,0 L 8,-3 L 8,3 Z" transform="rotate(0 2168 392) translate(2168 392)" /></g><g id="sprotty_118" class="sprotty-edge" opacity="1"><path class="elkedge" d="M 2218,502 L 2168,502" /><path class="edge arrow" d="M 0,0 L 8,-3 L 8,3 Z" transform="rotate(0 2168 502) translate(2168 502)" /></g><g id="sprotty_121" class="sprotty-edge" opacity="1"><path class="elkedge" d="M 2068,582 L 2068,532" /><path class="edge arrow" d="M 0,0 L 8,-3 L 8,3 Z" transform="rotate(90 2068 532) translate(2068 532)" /></g><g id="sprotty_124" class="sprotty-edge" opacity="1"><path class="elkedge" d="M 1868,368.8668122270742 L 2218,472.4148471615721" /><path class="edge arrow" d="M 0,0 L 8,-3 L 8,3 Z" transform="rotate(-163.51906811785517 2218 472.4148471615721) translate(2218 472.4148471615721)" /></g><g id="sprotty_127" class="sprotty-edge" opacity="1"><path class="elkedge" d="M 2318,582 L 2318,422" /><path class="edge arrow" d="M 0,0 L 8,-3 L 8,3 Z" transform="rotate(90 2318 422) translate(2318 422)" /></g><g id="sprotty_130" class="sprotty-edge" opacity="1"><path class="elkedge" d="M 2090.727272727273,692 L 2295.272727272727,422" /><path class="edge arrow" d="M 0,0 L 8,-3 L 8,3 Z" transform="rotate(127.14668669802171 2295.272727272727 422) translate(2295.272727272727 422)" /></g><g id="sprotty_133" class="sprotty-edge" opacity="1"><path class="elkedge" d="M 2249.818181818182,692 L 2136.181818181818,642" /><path class="edge arrow" d="M 0,0 L 8,-3 L 8,3 Z" transform="rotate(23.749494492866702 2136.181818181818 642) translate(2136.181818181818 642)" /></g><g id="sprotty_134" class="sprotty-edge" opacity="1"><path class="elkedge" d="M 1865.7974683544303,371 L 2279.350210970464,692" /><path class="edge arrow" d="M 0,0 L 8,-3 L 8,3 Z" transform="rotate(-142.18135436369792 2279.350210970464 692) translate(2279.350210970464 692)" /></g><g id="sprotty_135" class="sprotty-edge" opacity="1"><path class="elkedge" d="M 1868,370.7882096069869 L 2262.032586558045,582" /><path class="edge arrow" d="M 0,0 L 8,-3 L 8,3 Z" transform="rotate(-151.80752547398862 2262.032586558045 582) translate(2262.032586558045 582)" /></g><g id="sprotty_138" class="sprotty-edge" opacity="1"><path class="elkedge" d="M 1868,429.74017467248905 L 2243.929919137466,582" /><path class="edge arrow" d="M 0,0 L 8,-3 L 8,3 Z" transform="rotate(-157.95097782580274 2243.929919137466 582) translate(2243.929919137466 582)" /></g><g id="sprotty_139" class="sprotty-edge" opacity="1"><path class="elkedge" d="M 2218,722 L 2168,722" /><path class="edge arrow" d="M 0,0 L 8,-3 L 8,3 Z" transform="rotate(0 2168 722) translate(2168 722)" /></g><g id="sprotty_140" class="sprotty-edge" opacity="1"><path class="elkedge" d="M 2335.552742616034,692 L 2523.367088607595,371" /><path class="edge arrow" d="M 0,0 L 8,-3 L 8,3 Z" transform="rotate(120.33153644704221 2523.367088607595 371) translate(2523.367088607595 371)" /></g><g id="sprotty_141" class="sprotty-edge" opacity="1"><path class="elkedge" d="M 2168,399.53275109170306 L 2518,425.8973799126637" /><path class="edge arrow" d="M 0,0 L 8,-3 L 8,3 Z" transform="rotate(-175.69218709699993 2518 425.8973799126637) translate(2518 425.8973799126637)" /></g><g id="sprotty_142" class="sprotty-edge" opacity="1"><path class="elkedge" d="M 2168,498.61572052401743 L 2518,486.77074235807856" /><path class="edge arrow" d="M 0,0 L 8,-3 L 8,3 Z" transform="rotate(178.0616904718802 2518 486.77074235807856) translate(2518 486.77074235807856)" /></g><g id="sprotty_143" class="sprotty-edge" opacity="1"><path class="elkedge" d="M 2156.9320388349515,422 L 2518,543.8013100436681" /><path class="edge arrow" d="M 0,0 L 8,-3 L 8,3 Z" transform="rotate(-161.35888472155233 2518 543.8013100436681) translate(2518 543.8013100436681)" /></g><g id="sprotty_144" class="sprotty-edge" opacity="1"><path class="elkedge" d="M 2601,229.48989298454222 L 1868,365.0208085612366" /><path class="edge arrow" d="M 0,0 L 8,-3 L 8,3 Z" transform="rotate(-10.475618784252436 1868 365.0208085612366) translate(1868 365.0208085612366)" /></g><g id="sprotty_145" class="sprotty-edge" opacity="1"><path class="elkedge" d="M 2585,326.5151515151515 L 1868,366.0587878787879" /><path class="edge arrow" d="M 0,0 L 8,-3 L 8,3 Z" transform="rotate(-3.1567510249371984 1868 366.0587878787879) translate(1868 366.0587878787879)" /></g><g id="sprotty_148" class="sprotty-edge" opacity="1"><path class="elkedge" d="M 1743.9768089053803,901 L 1859.0231910946197,371" /><path class="edge arrow" d="M 0,0 L 8,-3 L 8,3 Z" transform="rotate(102.24711981395008 1859.0231910946197 371) translate(1859.0231910946197 371)" /></g><g id="sprotty_149" class="sprotty-edge" opacity="1"><path class="elkedge" d="M 2585,333.78787878787875 L 1868,425.4769696969697" /><path class="edge arrow" d="M 0,0 L 8,-3 L 8,3 Z" transform="rotate(-7.287363213022957 1868 425.4769696969697) translate(1868 425.4769696969697)" /></g><g id="sprotty_150" class="sprotty-edge" opacity="1"><path class="elkedge" d="M 2551,205.43231441048033 L 2901,185.94541484716157" /><path class="edge arrow" d="M 0,0 L 8,-3 L 8,3 Z" transform="rotate(176.81324131380964 2901 185.94541484716157) translate(2901 185.94541484716157)" /></g><g id="sprotty_151" class="sprotty-edge" opacity="1"><path class="elkedge" d="M 1735,185.5 L 1184,185.5 L 1184,60 L 3168,60 L 3168,245.5 L 2917,245.5" /><path class="edge arrow" d="M 0,0 L 8,-3 L 8,3 Z" transform="rotate(0 2917 245.5) translate(2917 245.5)" /><g id="sprotty_151_j0" transform="translate(3168, 245.5)" opacity="1"><circle class="elkjunction" r="2" /></g></g><g id="sprotty_152" class="sprotty-edge" opacity="1"><path class="elkedge" d="M 1735,305.5 L 1684,305.5 L 1684,50 L 3218,50 L 3218,305.5 L 2917,305.5" /><path class="edge arrow" d="M 0,0 L 8,-3 L 8,3 Z" transform="rotate(0 2917 305.5) translate(2917 305.5)" /><g id="sprotty_152_j0" transform="translate(3218, 305.5)" opacity="1"><circle class="elkjunction" r="2" /></g></g><g id="sprotty_153" class="sprotty-edge" opacity="1"><path class="elkedge" d="M 2534,483.9725848563969 L 2901,368.0274151436031" /><path class="edge arrow" d="M 0,0 L 8,-3 L 8,3 Z" transform="rotate(162.46727233860813 2901 368.0274151436031) translate(2901 368.0274151436031)" /></g><g id="sprotty_154" class="sprotty-edge" opacity="1"><path class="elkedge" d="M 2534,543.9725848563969 L 2901,428.02741514360315" /><path class="edge arrow" d="M 0,0 L 8,-3 L 8,3 Z" transform="rotate(162.46727233860813 2901 428.02741514360315) translate(2901 428.02741514360315)" /></g><g id="sprotty_155" class="sprotty-edge" opacity="1"><path class="elkedge" d="M 1117,317.92857142857144 L 1584,317.92857142857144 L 1584,425.5 L 1735,425.5" /><path class="edge arrow" d="M 0,0 L 8,-3 L 8,3 Z" transform="rotate(180 1735 425.5) translate(1735 425.5)" /></g><g id="sprotty_158" class="sprotty-edge" opacity="1"><path class="elkedge" d="M 1117,996 L 1534,996 L 1534,485.5 L 1735,485.5" /><path class="edge arrow" d="M 0,0 L 8,-3 L 8,3 Z" transform="rotate(180 1735 485.5) translate(1735 485.5)" /></g><g id="sprotty_159" class="sprotty-edge" opacity="1"><path class="elkedge" d="M 1117,322.2142857142857 L 1534,322.2142857142857 L 1534,485.5 L 1735,485.5" /><path class="edge arrow" d="M 0,0 L 8,-3 L 8,3 Z" transform="rotate(180 1735 485.5) translate(1735 485.5)" /><g id="sprotty_159_j0" transform="translate(1534, 485.5)" opacity="1"><circle class="elkjunction" r="2" /></g></g><g id="sprotty_160" class="sprotty-edge" opacity="1"><path class="elkedge" d="M 1117,326.5 L 1484,326.5 L 1484,545.5 L 1735,545.5" /><path class="edge arrow" d="M 0,0 L 8,-3 L 8,3 Z" transform="rotate(180 1735 545.5) translate(1735 545.5)" /></g><g id="sprotty_161" class="sprotty-edge" opacity="1"><path class="elkedge" d="M 1117,330.7857142857143 L 1434,330.7857142857143 L 1434,605.5 L 1735,605.5" /><path class="edge arrow" d="M 0,0 L 8,-3 L 8,3 Z" transform="rotate(180 1735 605.5) translate(1735 605.5)" /><g id="sprotty_161_j0" transform="translate(1434, 605.5)" opacity="1"><circle class="elkjunction" r="2" /></g></g><g id="sprotty_166" class="sprotty-edge" opacity="1"><path class="elkedge" d="M 1133,2229 L 1434,2229 L 1434,605.5 L 1735,605.5" /><path class="edge arrow" d="M 0,0 L 8,-3 L 8,3 Z" transform="rotate(180 1735 605.5) translate(1735 605.5)" /><g id="sprotty_166_j0" transform="translate(1434, 2229)" opacity="1"><circle class="elkjunction" r="2" /></g></g><g id="sprotty_167" class="sprotty-edge" opacity="1"><path class="elkedge" d="M 1117,300.7857142857143 L 1184,300.7857142857143 L 1184,185.5 L 1735,185.5" /><path class="edge arrow" d="M 0,0 L 8,-3 L 8,3 Z" transform="rotate(180 1735 185.5) translate(1735 185.5)" /><g id="sprotty_167_j0" transform="translate(1184, 185.5)" opacity="1"><circle class="elkjunction" r="2" /></g></g><g id="sprotty_168" class="sprotty-edge" opacity="1"><path class="elkedge" d="M 300,2073 L 350,2073 L 350,245.5 L 1735,245.5" /><path class="edge arrow" d="M 0,0 L 8,-3 L 8,3 Z" transform="rotate(180 1735 245.5) translate(1735 245.5)" /></g><g id="sprotty_169" class="sprotty-edge" opacity="1"><path class="elkedge" d="M 1117,305.07142857142856 L 1234,305.07142857142856 L 1234,245.5 L 1735,245.5" /><path class="edge arrow" d="M 0,0 L 8,-3 L 8,3 Z" transform="rotate(180 1735 245.5) translate(1735 245.5)" /><g id="sprotty_169_j0" transform="translate(1234, 245.5)" opacity="1"><circle class="elkjunction" r="2" /></g></g><g id="sprotty_170" class="sprotty-edge" opacity="1"><path class="elkedge" d="M 1117,352.2142857142857 L 1184,352.2142857142857 L 1184,905.5 L 1735,905.5" /><path class="edge arrow" d="M 0,0 L 8,-3 L 8,3 Z" transform="rotate(180 1735 905.5) translate(1735 905.5)" /></g><g id="sprotty_171" class="sprotty-edge" opacity="1"><path class="elkedge" d="M 1117,309.35714285714283 L 1684,309.35714285714283 L 1684,305.5 L 1735,305.5" /><path class="edge arrow" d="M 0,0 L 8,-3 L 8,3 Z" transform="rotate(180 1735 305.5) translate(1735 305.5)" /><g id="sprotty_171_j0" transform="translate(1684, 305.5)" opacity="1"><circle class="elkjunction" r="2" /></g></g><g id="sprotty_172" class="sprotty-edge" opacity="1"><path class="elkedge" d="M 1117,313.6428571428571 L 1634,313.6428571428571 L 1634,365.5 L 1735,365.5" /><path class="edge arrow" d="M 0,0 L 8,-3 L 8,3 Z" transform="rotate(180 1735 365.5) translate(1735 365.5)" /></g><g id="sprotty_173" class="sprotty-edge" opacity="1"><path class="elkedge" d="M 1117,335.07142857142856 L 1384,335.07142857142856 L 1384,665.5 L 1735,665.5" /><path class="edge arrow" d="M 0,0 L 8,-3 L 8,3 Z" transform="rotate(180 1735 665.5) translate(1735 665.5)" /></g><g id="sprotty_174" class="sprotty-edge" opacity="1"><path class="elkedge" d="M 1117,339.35714285714283 L 1334,339.35714285714283 L 1334,725.5 L 1735,725.5" /><path class="edge arrow" d="M 0,0 L 8,-3 L 8,3 Z" transform="rotate(180 1735 725.5) translate(1735 725.5)" /></g><g id="sprotty_175" class="sprotty-edge" opacity="1"><path class="elkedge" d="M 1117,343.6428571428571 L 1284,343.6428571428571 L 1284,785.5 L 1735,785.5" /><path class="edge arrow" d="M 0,0 L 8,-3 L 8,3 Z" transform="rotate(180 1735 785.5) translate(1735 785.5)" /></g><g id="sprotty_176" class="sprotty-edge" opacity="1"><path class="elkedge" d="M 1117,347.92857142857144 L 1234,347.92857142857144 L 1234,845.5 L 1735,845.5" /><path class="edge arrow" d="M 0,0 L 8,-3 L 8,3 Z" transform="rotate(180 1735 845.5) translate(1735 845.5)" /></g><g id="sprotty_181" class="sprotty-edge" opacity="1"><path class="elkedge" d="M 3785,926.9919292851653 L 4886,1042.5080707148347" /><path class="edge arrow" d="M 0,0 L 8,-3 L 8,3 Z" transform="rotate(-174.01048084256482 4886 1042.5080707148347) translate(4886 1042.5080707148347)" /></g><g id="sprotty_182" class="sprotty-edge" opacity="1"><path class="elkedge" d="M 4635,891 L 4786,891 L 4786,1035 L 4886,1035" /><path class="edge arrow" d="M 0,0 L 8,-3 L 8,3 Z" transform="rotate(180 4886 1035) translate(4886 1035)" /><g id="sprotty_182_j0" transform="translate(4786, 1035)" opacity="1"><circle class="elkjunction" r="2" /></g></g><g id="sprotty_183" class="sprotty-edge" opacity="1"><path class="elkedge" d="M 4635,951 L 4736,951 L 4736,1047 L 4886,1047" /><path class="edge arrow" d="M 0,0 L 8,-3 L 8,3 Z" transform="rotate(180 4886 1047) translate(4886 1047)" /><g id="sprotty_183_j0" transform="translate(4736, 1047)" opacity="1"><circle class="elkjunction" r="2" /></g></g><g id="sprotty_186" class="sprotty-edge" opacity="1"><path class="elkedge" d="M 4635,1011 L 4686,1011 L 4686,1059 L 4886,1059" /><path class="edge arrow" d="M 0,0 L 8,-3 L 8,3 Z" transform="rotate(180 4886 1059) translate(4886 1059)" /></g><g id="sprotty_189" class="sprotty-edge" opacity="1"><path class="elkedge" d="M 4635,1071 L 4886,1071" /><path class="edge arrow" d="M 0,0 L 8,-3 L 8,3 Z" transform="rotate(180 4886 1071) translate(4886 1071)" /></g><g id="sprotty_194" class="sprotty-edge" opacity="1"><path class="elkedge" d="M 3485,891.4454148471616 L 3835,910.9323144104803" /><path class="edge arrow" d="M 0,0 L 8,-3 L 8,3 Z" transform="rotate(-176.81324131380964 3835 910.9323144104803) translate(3835 910.9323144104803)" /></g><g id="sprotty_197" class="sprotty-edge" opacity="1"><path class="elkedge" d="M 3485,950.3973799126637 L 3835,924.0327510917031" /><path class="edge arrow" d="M 0,0 L 8,-3 L 8,3 Z" transform="rotate(175.69218709699993 3835 924.0327510917031) translate(3835 924.0327510917031)" /></g><g id="sprotty_200" class="sprotty-edge" opacity="1"><path class="elkedge" d="M 3485,1009.349344978166 L 3835,937.1331877729258" /><path class="edge arrow" d="M 0,0 L 8,-3 L 8,3 Z" transform="rotate(168.34165965728076 3835 937.1331877729258) translate(3835 937.1331877729258)" /></g><g id="sprotty_203" class="sprotty-edge" opacity="1"><path class="elkedge" d="M 3485,1068.301310043668 L 3846.0679611650485,946.5" /><path class="edge arrow" d="M 0,0 L 8,-3 L 8,3 Z" transform="rotate(161.35888472155233 3846.0679611650485 946.5) translate(3846.0679611650485 946.5)" /></g><g id="sprotty_206" class="sprotty-edge" opacity="1"><path class="elkedge" d="M 3485,1127.2532751091703 L 3870.944055944056,946.5" /><path class="edge arrow" d="M 0,0 L 8,-3 L 8,3 Z" transform="rotate(154.90439887692173 3870.944055944056 946.5) translate(3870.944055944056 946.5)" /></g><g id="sprotty_209" class="sprotty-edge" opacity="1"><path class="elkedge" d="M 3484.5081967213114,1186.5 L 3884.945355191257,946.5" /><path class="edge arrow" d="M 0,0 L 8,-3 L 8,3 Z" transform="rotate(149.06384702104046 3884.945355191257 946.5) translate(3884.945355191257 946.5)" /></g><g id="sprotty_212" class="sprotty-edge" opacity="1"><path class="elkedge" d="M 3483.1614349775787,1246.5 L 3893.9237668161436,946.5" /><path class="edge arrow" d="M 0,0 L 8,-3 L 8,3 Z" transform="rotate(143.85750043039226 3893.9237668161436 946.5) translate(3893.9237668161436 946.5)" /></g><g id="sprotty_215" class="sprotty-edge" opacity="1"><path class="elkedge" d="M 3482.2243346007604,1306.5 L 3900.1711026615967,946.5" /><path class="edge arrow" d="M 0,0 L 8,-3 L 8,3 Z" transform="rotate(139.25991269207037 3900.1711026615967 946.5) translate(3900.1711026615967 946.5)" /></g><g id="sprotty_218" class="sprotty-edge" opacity="1"><path class="elkedge" d="M 3481.5346534653463,1366.5 L 3904.7689768976898,946.5" /><path class="edge arrow" d="M 0,0 L 8,-3 L 8,3 Z" transform="rotate(135.21976355603599 3904.7689768976898 946.5) translate(3904.7689768976898 946.5)" /></g><g id="sprotty_221" class="sprotty-edge" opacity="1"><path class="elkedge" d="M 3481.00583090379,1426.5 L 3908.2944606413994,946.5" /><path class="edge arrow" d="M 0,0 L 8,-3 L 8,3 Z" transform="rotate(131.6749854294169 3908.2944606413994 946.5) translate(3908.2944606413994 946.5)" /></g><g id="sprotty_226" class="sprotty-edge" opacity="1"><path class="elkedge" d="M 4252,1069.8365217391304 L 3785,943.5434782608695" /><path class="edge arrow" d="M 0,0 L 8,-3 L 8,3 Z" transform="rotate(15.132791155298072 3785 943.5434782608695) translate(3785 943.5434782608695)" /></g><g id="sprotty_229" class="sprotty-edge" opacity="1"><path class="elkedge" d="M 4252,1129.0017391304348 L 3765.046403712297,946.5" /><path class="edge arrow" d="M 0,0 L 8,-3 L 8,3 Z" transform="rotate(20.545124457395485 3765.046403712297 946.5) translate(3765.046403712297 946.5)" /></g><g id="sprotty_232" class="sprotty-edge" opacity="1"><path class="elkedge" d="M 4252,1188.1669565217392 L 3747.6134301270417,946.5" /><path class="edge arrow" d="M 0,0 L 8,-3 L 8,3 Z" transform="rotate(25.600499228264773 3747.6134301270417 946.5) translate(3747.6134301270417 946.5)" /></g><g id="sprotty_235" class="sprotty-edge" opacity="1"><path class="elkedge" d="M 4252.287630402385,1247.5 L 3736.4157973174365,946.5" /><path class="edge arrow" d="M 0,0 L 8,-3 L 8,3 Z" transform="rotate(30.262632306448612 3736.4157973174365 946.5) translate(3736.4157973174365 946.5)" /></g><g id="sprotty_240" class="sprotty-edge" opacity="1"><path class="elkedge" d="M 2901,1200.5352286773796 L 4319,1037.9647713226204" /><path class="edge arrow" d="M 0,0 L 8,-3 L 8,3 Z" transform="rotate(173.45972548410208 4319 1037.9647713226204) translate(4319 1037.9647713226204)" /></g><g id="sprotty_245" class="sprotty-edge" opacity="1"><path class="elkedge" d="M 3952,1097.5 L 3902,1097.5" /><path class="edge arrow" d="M 0,0 L 8,-3 L 8,3 Z" transform="rotate(0 3902 1097.5) translate(3902 1097.5)" /></g><g id="sprotty_250" class="sprotty-edge" opacity="1"><path class="elkedge" d="M 3952,1207.5 L 3902,1207.5" /><path class="edge arrow" d="M 0,0 L 8,-3 L 8,3 Z" transform="rotate(0 3902 1207.5) translate(3902 1207.5)" /></g><g id="sprotty_253" class="sprotty-edge" opacity="1"><path class="elkedge" d="M 3802,1287.5 L 3802,1237.5" /><path class="edge arrow" d="M 0,0 L 8,-3 L 8,3 Z" transform="rotate(90 3802 1237.5) translate(3802 1237.5)" /></g><g id="sprotty_256" class="sprotty-edge" opacity="1"><path class="elkedge" d="M 3602,1074.3668122270742 L 3952,1177.9148471615722" /><path class="edge arrow" d="M 0,0 L 8,-3 L 8,3 Z" transform="rotate(-163.51906811785517 3952 1177.9148471615722) translate(3952 1177.9148471615722)" /></g><g id="sprotty_259" class="sprotty-edge" opacity="1"><path class="elkedge" d="M 4052,1287.5 L 4052,1127.5" /><path class="edge arrow" d="M 0,0 L 8,-3 L 8,3 Z" transform="rotate(90 4052 1127.5) translate(4052 1127.5)" /></g><g id="sprotty_262" class="sprotty-edge" opacity="1"><path class="elkedge" d="M 3824.727272727273,1397.5 L 4029.272727272727,1127.5" /><path class="edge arrow" d="M 0,0 L 8,-3 L 8,3 Z" transform="rotate(127.14668669802171 4029.272727272727 1127.5) translate(4029.272727272727 1127.5)" /></g><g id="sprotty_265" class="sprotty-edge" opacity="1"><path class="elkedge" d="M 3983.818181818182,1397.5 L 3870.181818181818,1347.5" /><path class="edge arrow" d="M 0,0 L 8,-3 L 8,3 Z" transform="rotate(23.749494492866702 3870.181818181818 1347.5) translate(3870.181818181818 1347.5)" /></g><g id="sprotty_266" class="sprotty-edge" opacity="1"><path class="elkedge" d="M 3599.7974683544303,1076.5 L 4013.350210970464,1397.5" /><path class="edge arrow" d="M 0,0 L 8,-3 L 8,3 Z" transform="rotate(-142.18135436369792 4013.350210970464 1397.5) translate(4013.350210970464 1397.5)" /></g><g id="sprotty_267" class="sprotty-edge" opacity="1"><path class="elkedge" d="M 3602,1076.2882096069868 L 3996.032586558045,1287.5" /><path class="edge arrow" d="M 0,0 L 8,-3 L 8,3 Z" transform="rotate(-151.8075254739886 3996.032586558045 1287.5) translate(3996.032586558045 1287.5)" /></g><g id="sprotty_270" class="sprotty-edge" opacity="1"><path class="elkedge" d="M 3602,1135.240174672489 L 3977.929919137466,1287.5" /><path class="edge arrow" d="M 0,0 L 8,-3 L 8,3 Z" transform="rotate(-157.95097782580274 3977.929919137466 1287.5) translate(3977.929919137466 1287.5)" /></g><g id="sprotty_271" class="sprotty-edge" opacity="1"><path class="elkedge" d="M 3952,1427.5 L 3902,1427.5" /><path class="edge arrow" d="M 0,0 L 8,-3 L 8,3 Z" transform="rotate(0 3902 1427.5) translate(3902 1427.5)" /></g><g id="sprotty_272" class="sprotty-edge" opacity="1"><path class="elkedge" d="M 3902,1091.9323144104803 L 4252,1072.4454148471616" /><path class="edge arrow" d="M 0,0 L 8,-3 L 8,3 Z" transform="rotate(176.81324131380964 4252 1072.4454148471616) translate(4252 1072.4454148471616)" /></g><g id="sprotty_273" class="sprotty-edge" opacity="1"><path class="elkedge" d="M 4073.1167512690354,1397.5 L 4256.832487309644,1136.5" /><path class="edge arrow" d="M 0,0 L 8,-3 L 8,3 Z" transform="rotate(125.14139675071024 4256.832487309644 1136.5) translate(4256.832487309644 1136.5)" /></g><g id="sprotty_274" class="sprotty-edge" opacity="1"><path class="elkedge" d="M 3902,1118.1331877729258 L 4252,1190.3493449781658" /><path class="edge arrow" d="M 0,0 L 8,-3 L 8,3 Z" transform="rotate(-168.3416596572808 4252 1190.3493449781658) translate(4252 1190.3493449781658)" /></g><g id="sprotty_275" class="sprotty-edge" opacity="1"><path class="elkedge" d="M 3902,1217.21615720524 L 4252,1251.2227074235807" /><path class="edge arrow" d="M 0,0 L 8,-3 L 8,3 Z" transform="rotate(-174.45047144714007 4252 1251.2227074235807) translate(4252 1251.2227074235807)" /></g><g id="sprotty_276" class="sprotty-edge" opacity="1"><path class="elkedge" d="M 3869.2122186495176,946.5 L 3602,1068.3519061583577" /><path class="edge arrow" d="M 0,0 L 8,-3 L 8,3 Z" transform="rotate(-24.513542200616588 3602 1068.3519061583577) translate(3602 1068.3519061583577)" /></g><g id="sprotty_277" class="sprotty-edge" opacity="1"><path class="elkedge" d="M 4319,1032.0151515151515 L 3602,1071.5587878787878" /><path class="edge arrow" d="M 0,0 L 8,-3 L 8,3 Z" transform="rotate(-3.156751024937194 3602 1071.5587878787878) translate(3602 1071.5587878787878)" /></g><g id="sprotty_280" class="sprotty-edge" opacity="1"><path class="elkedge" d="M 3478.2565632458236,1486.5 L 3592.7434367541764,1076.5" /><path class="edge arrow" d="M 0,0 L 8,-3 L 8,3 Z" transform="rotate(105.60166153074832 3592.7434367541764 1076.5) translate(3592.7434367541764 1076.5)" /></g><g id="sprotty_281" class="sprotty-edge" opacity="1"><path class="elkedge" d="M 4319,1039.2878787878788 L 3602,1130.9769696969697" /><path class="edge arrow" d="M 0,0 L 8,-3 L 8,3 Z" transform="rotate(-7.287363213022957 3602 1130.9769696969697) translate(3602 1130.9769696969697)" /></g><g id="sprotty_282" class="sprotty-edge" opacity="1"><path class="elkedge" d="M 3469,1191 L 3318,1191 L 3318,765.5 L 4786,765.5 L 4786,891 L 4635,891" /><path class="edge arrow" d="M 0,0 L 8,-3 L 8,3 Z" transform="rotate(0 4635 891) translate(4635 891)" /><g id="sprotty_282_j0" transform="translate(4786, 891)" opacity="1"><circle class="elkjunction" r="2" /></g></g><g id="sprotty_283" class="sprotty-edge" opacity="1"><path class="elkedge" d="M 3469,1311 L 3168,1311 L 3168,1607.5 L 4736,1607.5 L 4736,951 L 4635,951" /><path class="edge arrow" d="M 0,0 L 8,-3 L 8,3 Z" transform="rotate(0 4635 951) translate(4635 951)" /></g><g id="sprotty_284" class="sprotty-edge" opacity="1"><path class="elkedge" d="M 4266.852697095435,1247.5 L 4620.147302904565,1015.5" /><path class="edge arrow" d="M 0,0 L 8,-3 L 8,3 Z" transform="rotate(146.70806477392074 4620.147302904565 1015.5) translate(4620.147302904565 1015.5)" /></g><g id="sprotty_285" class="sprotty-edge" opacity="1"><path class="elkedge" d="M 4268,1071.9782016348775 L 4619,1071.0217983651225" /><path class="edge arrow" d="M 0,0 L 8,-3 L 8,3 Z" transform="rotate(179.8438810961417 4619 1071.0217983651225) translate(4619 1071.0217983651225)" /></g><g id="sprotty_286" class="sprotty-edge" opacity="1"><path class="elkedge" d="M 2901,1187 L 2968,1187 L 2968,891 L 3469,891" /><path class="edge arrow" d="M 0,0 L 8,-3 L 8,3 Z" transform="rotate(180 3469 891) translate(3469 891)" /></g><g id="sprotty_287" class="sprotty-edge" opacity="1"><path class="elkedge" d="M 2917,185.5 L 3118,185.5 L 3118,951 L 3469,951" /><path class="edge arrow" d="M 0,0 L 8,-3 L 8,3 Z" transform="rotate(180 3469 951) translate(3469 951)" /><g id="sprotty_287_j0" transform="translate(3118, 951)" opacity="1"><circle class="elkjunction" r="2" /></g></g><g id="sprotty_288" class="sprotty-edge" opacity="1"><path class="elkedge" d="M 2901,1192 L 3118,1192 L 3118,951 L 3469,951" /><path class="edge arrow" d="M 0,0 L 8,-3 L 8,3 Z" transform="rotate(180 3469 951) translate(3469 951)" /><g id="sprotty_288_j0" transform="translate(3118, 1192)" opacity="1"><circle class="elkjunction" r="2" /></g></g><g id="sprotty_289" class="sprotty-edge" opacity="1"><path class="elkedge" d="M 1117,1011 L 3469,1011" /><path class="edge arrow" d="M 0,0 L 8,-3 L 8,3 Z" transform="rotate(180 3469 1011) translate(3469 1011)" /></g><g id="sprotty_290" class="sprotty-edge" opacity="1"><path class="elkedge" d="M 2901,1197 L 3168,1197 L 3168,1011 L 3469,1011" /><path class="edge arrow" d="M 0,0 L 8,-3 L 8,3 Z" transform="rotate(180 3469 1011) translate(3469 1011)" /><g id="sprotty_290_j0" transform="translate(3168, 1011)" opacity="1"><circle class="elkjunction" r="2" /></g></g><g id="sprotty_291" class="sprotty-edge" opacity="1"><path class="elkedge" d="M 2901,1202 L 3218,1202 L 3218,1071 L 3469,1071" /><path class="edge arrow" d="M 0,0 L 8,-3 L 8,3 Z" transform="rotate(180 3469 1071) translate(3469 1071)" /></g><g id="sprotty_292" class="sprotty-edge" opacity="1"><path class="elkedge" d="M 2901,1207 L 3268,1207 L 3268,1131 L 3469,1131" /><path class="edge arrow" d="M 0,0 L 8,-3 L 8,3 Z" transform="rotate(180 3469 1131) translate(3469 1131)" /><g id="sprotty_292_j0" transform="translate(3268, 1131)" opacity="1"><circle class="elkjunction" r="2" /></g></g><g id="sprotty_293" class="sprotty-edge" opacity="1"><path class="elkedge" d="M 1133,2229 L 1434,2229 L 1434,1131 L 3469,1131" /><path class="edge arrow" d="M 0,0 L 8,-3 L 8,3 Z" transform="rotate(180 3469 1131) translate(3469 1131)" /><g id="sprotty_293_j0" transform="translate(1434, 1131)" opacity="1"><circle class="elkjunction" r="2" /></g></g><g id="sprotty_294" class="sprotty-edge" opacity="1"><path class="elkedge" d="M 2901,1212 L 3318,1212 L 3318,1191 L 3469,1191" /><path class="edge arrow" d="M 0,0 L 8,-3 L 8,3 Z" transform="rotate(180 3469 1191) translate(3469 1191)" /><g id="sprotty_294_j0" transform="translate(3318, 1191)" opacity="1"><circle class="elkjunction" r="2" /></g></g><g id="sprotty_295" class="sprotty-edge" opacity="1"><path class="elkedge" d="M 300,2083 L 400,2083 L 400,1292 L 3218,1292 L 3218,1251 L 3469,1251" /><path class="edge arrow" d="M 0,0 L 8,-3 L 8,3 Z" transform="rotate(180 3469 1251) translate(3469 1251)" /></g><g id="sprotty_296" class="sprotty-edge" opacity="1"><path class="elkedge" d="M 2901,1217 L 3218,1217 L 3218,1251 L 3469,1251" /><path class="edge arrow" d="M 0,0 L 8,-3 L 8,3 Z" transform="rotate(180 3469 1251) translate(3469 1251)" /><g id="sprotty_296_j0" transform="translate(3218, 1251)" opacity="1"><circle class="elkjunction" r="2" /></g></g><g id="sprotty_297" class="sprotty-edge" opacity="1"><path class="elkedge" d="M 2901,1237 L 2968,1237 L 2968,1491 L 3469,1491" /><path class="edge arrow" d="M 0,0 L 8,-3 L 8,3 Z" transform="rotate(180 3469 1491) translate(3469 1491)" /></g><g id="sprotty_298" class="sprotty-edge" opacity="1"><path class="elkedge" d="M 2901,1222 L 3168,1222 L 3168,1311 L 3469,1311" /><path class="edge arrow" d="M 0,0 L 8,-3 L 8,3 Z" transform="rotate(180 3469 1311) translate(3469 1311)" /><g id="sprotty_298_j0" transform="translate(3168, 1311)" opacity="1"><circle class="elkjunction" r="2" /></g></g><g id="sprotty_299" class="sprotty-edge" opacity="1"><path class="elkedge" d="M 2901,1227 L 3068,1227 L 3068,1371 L 3469,1371" /><path class="edge arrow" d="M 0,0 L 8,-3 L 8,3 Z" transform="rotate(180 3469 1371) translate(3469 1371)" /></g><g id="sprotty_300" class="sprotty-edge" opacity="1"><path class="elkedge" d="M 2901,1232 L 3018,1232 L 3018,1431 L 3469,1431" /><path class="edge arrow" d="M 0,0 L 8,-3 L 8,3 Z" transform="rotate(180 3469 1431) translate(3469 1431)" /></g><g id="sprotty_307" class="sprotty-edge" opacity="1"><path class="elkedge" d="M 3785,1768.9919292851653 L 4886,1884.5080707148347" /><path class="edge arrow" d="M 0,0 L 8,-3 L 8,3 Z" transform="rotate(-174.01048084256482 4886 1884.5080707148347) translate(4886 1884.5080707148347)" /></g><g id="sprotty_310" class="sprotty-edge" opacity="1"><path class="elkedge" d="M 4635,1733 L 4786,1733 L 4786,1877 L 4886,1877" /><path class="edge arrow" d="M 0,0 L 8,-3 L 8,3 Z" transform="rotate(180 4886 1877) translate(4886 1877)" /><g id="sprotty_310_j0" transform="translate(4786, 1877)" opacity="1"><circle class="elkjunction" r="2" /></g></g><g id="sprotty_313" class="sprotty-edge" opacity="1"><path class="elkedge" d="M 4635,1793 L 4736,1793 L 4736,1889 L 4886,1889" /><path class="edge arrow" d="M 0,0 L 8,-3 L 8,3 Z" transform="rotate(180 4886 1889) translate(4886 1889)" /><g id="sprotty_313_j0" transform="translate(4736, 1889)" opacity="1"><circle class="elkjunction" r="2" /></g></g><g id="sprotty_316" class="sprotty-edge" opacity="1"><path class="elkedge" d="M 4635,1853 L 4686,1853 L 4686,1901 L 4886,1901" /><path class="edge arrow" d="M 0,0 L 8,-3 L 8,3 Z" transform="rotate(180 4886 1901) translate(4886 1901)" /></g><g id="sprotty_319" class="sprotty-edge" opacity="1"><path class="elkedge" d="M 4635,1913 L 4886,1913" /><path class="edge arrow" d="M 0,0 L 8,-3 L 8,3 Z" transform="rotate(180 4886 1913) translate(4886 1913)" /></g><g id="sprotty_324" class="sprotty-edge" opacity="1"><path class="elkedge" d="M 3485,1733.4454148471616 L 3835,1752.9323144104803" /><path class="edge arrow" d="M 0,0 L 8,-3 L 8,3 Z" transform="rotate(-176.81324131380964 3835 1752.9323144104803) translate(3835 1752.9323144104803)" /></g><g id="sprotty_327" class="sprotty-edge" opacity="1"><path class="elkedge" d="M 3485,1792.3973799126638 L 3835,1766.0327510917032" /><path class="edge arrow" d="M 0,0 L 8,-3 L 8,3 Z" transform="rotate(175.69218709699993 3835 1766.0327510917032) translate(3835 1766.0327510917032)" /></g><g id="sprotty_330" class="sprotty-edge" opacity="1"><path class="elkedge" d="M 3485,1851.3493449781658 L 3835,1779.1331877729258" /><path class="edge arrow" d="M 0,0 L 8,-3 L 8,3 Z" transform="rotate(168.3416596572808 3835 1779.1331877729258) translate(3835 1779.1331877729258)" /></g><g id="sprotty_333" class="sprotty-edge" opacity="1"><path class="elkedge" d="M 3485,1910.301310043668 L 3846.0679611650485,1788.5" /><path class="edge arrow" d="M 0,0 L 8,-3 L 8,3 Z" transform="rotate(161.35888472155233 3846.0679611650485 1788.5) translate(3846.0679611650485 1788.5)" /></g><g id="sprotty_336" class="sprotty-edge" opacity="1"><path class="elkedge" d="M 3485,1969.2532751091703 L 3870.944055944056,1788.5" /><path class="edge arrow" d="M 0,0 L 8,-3 L 8,3 Z" transform="rotate(154.90439887692173 3870.944055944056 1788.5) translate(3870.944055944056 1788.5)" /></g><g id="sprotty_339" class="sprotty-edge" opacity="1"><path class="elkedge" d="M 3484.5081967213114,2028.5 L 3884.945355191257,1788.5" /><path class="edge arrow" d="M 0,0 L 8,-3 L 8,3 Z" transform="rotate(149.06384702104046 3884.945355191257 1788.5) translate(3884.945355191257 1788.5)" /></g><g id="sprotty_342" class="sprotty-edge" opacity="1"><path class="elkedge" d="M 3483.1614349775787,2088.5 L 3893.9237668161436,1788.5" /><path class="edge arrow" d="M 0,0 L 8,-3 L 8,3 Z" transform="rotate(143.85750043039226 3893.9237668161436 1788.5) translate(3893.9237668161436 1788.5)" /></g><g id="sprotty_345" class="sprotty-edge" opacity="1"><path class="elkedge" d="M 3482.2243346007604,2148.5 L 3900.1711026615967,1788.5" /><path class="edge arrow" d="M 0,0 L 8,-3 L 8,3 Z" transform="rotate(139.25991269207037 3900.1711026615967 1788.5) translate(3900.1711026615967 1788.5)" /></g><g id="sprotty_348" class="sprotty-edge" opacity="1"><path class="elkedge" d="M 3481.5346534653463,2208.5 L 3904.7689768976898,1788.5" /><path class="edge arrow" d="M 0,0 L 8,-3 L 8,3 Z" transform="rotate(135.21976355603599 3904.7689768976898 1788.5) translate(3904.7689768976898 1788.5)" /></g><g id="sprotty_351" class="sprotty-edge" opacity="1"><path class="elkedge" d="M 3481.00583090379,2268.5 L 3908.2944606413994,1788.5" /><path class="edge arrow" d="M 0,0 L 8,-3 L 8,3 Z" transform="rotate(131.6749854294169 3908.2944606413994 1788.5) translate(3908.2944606413994 1788.5)" /></g><g id="sprotty_354" class="sprotty-edge" opacity="1"><path class="elkedge" d="M 3480.587467362924,2328.5 L 3911.0835509138383,1788.5" /><path class="edge arrow" d="M 0,0 L 8,-3 L 8,3 Z" transform="rotate(128.56237690234465 3911.0835509138383 1788.5) translate(3911.0835509138383 1788.5)" /></g><g id="sprotty_357" class="sprotty-edge" opacity="1"><path class="elkedge" d="M 3480.248226950355,2388.5 L 3913.3451536643024,1788.5" /><path class="edge arrow" d="M 0,0 L 8,-3 L 8,3 Z" transform="rotate(125.82281375991603 3913.3451536643024 1788.5) translate(3913.3451536643024 1788.5)" /></g><g id="sprotty_360" class="sprotty-edge" opacity="1"><path class="elkedge" d="M 3479.9676025917925,2448.5 L 3915.2159827213823,1788.5" /><path class="edge arrow" d="M 0,0 L 8,-3 L 8,3 Z" transform="rotate(123.40354326245476 3915.2159827213823 1788.5) translate(3915.2159827213823 1788.5)" /></g><g id="sprotty_365" class="sprotty-edge" opacity="1"><path class="elkedge" d="M 4252,1911.8365217391304 L 3785,1785.5434782608695" /><path class="edge arrow" d="M 0,0 L 8,-3 L 8,3 Z" transform="rotate(15.132791155298072 3785 1785.5434782608695) translate(3785 1785.5434782608695)" /></g><g id="sprotty_368" class="sprotty-edge" opacity="1"><path class="elkedge" d="M 4252,1971.0017391304348 L 3765.046403712297,1788.5" /><path class="edge arrow" d="M 0,0 L 8,-3 L 8,3 Z" transform="rotate(20.545124457395485 3765.046403712297 1788.5) translate(3765.046403712297 1788.5)" /></g><g id="sprotty_371" class="sprotty-edge" opacity="1"><path class="elkedge" d="M 4252,2030.1669565217392 L 3747.6134301270417,1788.5" /><path class="edge arrow" d="M 0,0 L 8,-3 L 8,3 Z" transform="rotate(25.600499228264773 3747.6134301270417 1788.5) translate(3747.6134301270417 1788.5)" /></g><g id="sprotty_374" class="sprotty-edge" opacity="1"><path class="elkedge" d="M 4252.287630402385,2089.5 L 3736.4157973174365,1788.5" /><path class="edge arrow" d="M 0,0 L 8,-3 L 8,3 Z" transform="rotate(30.262632306448612 3736.4157973174365 1788.5) translate(3736.4157973174365 1788.5)" /></g><g id="sprotty_379" class="sprotty-edge" opacity="1"><path class="elkedge" d="M 2901,2155.1186650185414 L 4319,1887.3813349814586" /><path class="edge arrow" d="M 0,0 L 8,-3 L 8,3 Z" transform="rotate(169.3076682904598 4319 1887.3813349814586) translate(4319 1887.3813349814586)" /></g><g id="sprotty_384" class="sprotty-edge" opacity="1"><path class="elkedge" d="M 3952,1939.5 L 3902,1939.5" /><path class="edge arrow" d="M 0,0 L 8,-3 L 8,3 Z" transform="rotate(0 3902 1939.5) translate(3902 1939.5)" /></g><g id="sprotty_389" class="sprotty-edge" opacity="1"><path class="elkedge" d="M 3952,2049.5 L 3902,2049.5" /><path class="edge arrow" d="M 0,0 L 8,-3 L 8,3 Z" transform="rotate(0 3902 2049.5) translate(3902 2049.5)" /></g><g id="sprotty_392" class="sprotty-edge" opacity="1"><path class="elkedge" d="M 3802,2129.5 L 3802,2079.5" /><path class="edge arrow" d="M 0,0 L 8,-3 L 8,3 Z" transform="rotate(90 3802 2079.5) translate(3802 2079.5)" /></g><g id="sprotty_395" class="sprotty-edge" opacity="1"><path class="elkedge" d="M 3602,1916.3668122270742 L 3952,2019.9148471615722" /><path class="edge arrow" d="M 0,0 L 8,-3 L 8,3 Z" transform="rotate(-163.51906811785517 3952 2019.9148471615722) translate(3952 2019.9148471615722)" /></g><g id="sprotty_398" class="sprotty-edge" opacity="1"><path class="elkedge" d="M 4052,2129.5 L 4052,1969.5" /><path class="edge arrow" d="M 0,0 L 8,-3 L 8,3 Z" transform="rotate(90 4052 1969.5) translate(4052 1969.5)" /></g><g id="sprotty_401" class="sprotty-edge" opacity="1"><path class="elkedge" d="M 3824.727272727273,2239.5 L 4029.272727272727,1969.5" /><path class="edge arrow" d="M 0,0 L 8,-3 L 8,3 Z" transform="rotate(127.14668669802171 4029.272727272727 1969.5) translate(4029.272727272727 1969.5)" /></g><g id="sprotty_404" class="sprotty-edge" opacity="1"><path class="elkedge" d="M 3983.818181818182,2239.5 L 3870.181818181818,2189.5" /><path class="edge arrow" d="M 0,0 L 8,-3 L 8,3 Z" transform="rotate(23.749494492866702 3870.181818181818 2189.5) translate(3870.181818181818 2189.5)" /></g><g id="sprotty_405" class="sprotty-edge" opacity="1"><path class="elkedge" d="M 3599.7974683544303,1918.5 L 4013.350210970464,2239.5" /><path class="edge arrow" d="M 0,0 L 8,-3 L 8,3 Z" transform="rotate(-142.18135436369792 4013.350210970464 2239.5) translate(4013.350210970464 2239.5)" /></g><g id="sprotty_406" class="sprotty-edge" opacity="1"><path class="elkedge" d="M 3602,1918.2882096069868 L 3996.032586558045,2129.5" /><path class="edge arrow" d="M 0,0 L 8,-3 L 8,3 Z" transform="rotate(-151.8075254739886 3996.032586558045 2129.5) translate(3996.032586558045 2129.5)" /></g><g id="sprotty_409" class="sprotty-edge" opacity="1"><path class="elkedge" d="M 3602,1977.240174672489 L 3977.929919137466,2129.5" /><path class="edge arrow" d="M 0,0 L 8,-3 L 8,3 Z" transform="rotate(-157.95097782580274 3977.929919137466 2129.5) translate(3977.929919137466 2129.5)" /></g><g id="sprotty_410" class="sprotty-edge" opacity="1"><path class="elkedge" d="M 3952,2269.5 L 3902,2269.5" /><path class="edge arrow" d="M 0,0 L 8,-3 L 8,3 Z" transform="rotate(0 3902 2269.5) translate(3902 2269.5)" /></g><g id="sprotty_411" class="sprotty-edge" opacity="1"><path class="elkedge" d="M 4069.552742616034,2239.5 L 4257.367088607595,1918.5" /><path class="edge arrow" d="M 0,0 L 8,-3 L 8,3 Z" transform="rotate(120.33153644704221 4257.367088607595 1918.5) translate(4257.367088607595 1918.5)" /></g><g id="sprotty_412" class="sprotty-edge" opacity="1"><path class="elkedge" d="M 3902,1947.0327510917032 L 4252,1973.3973799126638" /><path class="edge arrow" d="M 0,0 L 8,-3 L 8,3 Z" transform="rotate(-175.69218709699993 4252 1973.3973799126638) translate(4252 1973.3973799126638)" /></g><g id="sprotty_413" class="sprotty-edge" opacity="1"><path class="elkedge" d="M 3902,2046.1157205240174 L 4252,2034.2707423580787" /><path class="edge arrow" d="M 0,0 L 8,-3 L 8,3 Z" transform="rotate(178.0616904718802 4252 2034.2707423580787) translate(4252 2034.2707423580787)" /></g><g id="sprotty_414" class="sprotty-edge" opacity="1"><path class="elkedge" d="M 3890.9320388349515,1969.5 L 4252,2091.3013100436683" /><path class="edge arrow" d="M 0,0 L 8,-3 L 8,3 Z" transform="rotate(-161.3588847215523 4252 2091.3013100436683) translate(4252 2091.3013100436683)" /></g><g id="sprotty_415" class="sprotty-edge" opacity="1"><path class="elkedge" d="M 3869.2122186495176,1788.5 L 3602,1910.3519061583577" /><path class="edge arrow" d="M 0,0 L 8,-3 L 8,3 Z" transform="rotate(-24.513542200616588 3602 1910.3519061583577) translate(3602 1910.3519061583577)" /></g><g id="sprotty_416" class="sprotty-edge" opacity="1"><path class="elkedge" d="M 4319,1874.0151515151515 L 3602,1913.5587878787878" /><path class="edge arrow" d="M 0,0 L 8,-3 L 8,3 Z" transform="rotate(-3.156751024937194 3602 1913.5587878787878) translate(3602 1913.5587878787878)" /></g><g id="sprotty_419" class="sprotty-edge" opacity="1"><path class="elkedge" d="M 3477.8789649415694,2508.5 L 3593.1210350584306,1918.5" /><path class="edge arrow" d="M 0,0 L 8,-3 L 8,3 Z" transform="rotate(101.05217685001946 3593.1210350584306 1918.5) translate(3593.1210350584306 1918.5)" /></g><g id="sprotty_420" class="sprotty-edge" opacity="1"><path class="elkedge" d="M 4319,1881.2878787878788 L 3602,1972.9769696969697" /><path class="edge arrow" d="M 0,0 L 8,-3 L 8,3 Z" transform="rotate(-7.287363213022957 3602 1972.9769696969697) translate(3602 1972.9769696969697)" /></g><g id="sprotty_421" class="sprotty-edge" opacity="1"><path class="elkedge" d="M 3469,2033 L 3318,2033 L 3318,2628.5 L 4786,2628.5 L 4786,1733 L 4635,1733" /><path class="edge arrow" d="M 0,0 L 8,-3 L 8,3 Z" transform="rotate(0 4635 1733) translate(4635 1733)" /></g><g id="sprotty_422" class="sprotty-edge" opacity="1"><path class="elkedge" d="M 3469,2153 L 3418,2153 L 3418,2618.5 L 4736,2618.5 L 4736,1793 L 4635,1793" /><path class="edge arrow" d="M 0,0 L 8,-3 L 8,3 Z" transform="rotate(0 4635 1793) translate(4635 1793)" /></g><g id="sprotty_423" class="sprotty-edge" opacity="1"><path class="elkedge" d="M 4268,2030.0544959128065 L 4619,1856.9455040871935" /><path class="edge arrow" d="M 0,0 L 8,-3 L 8,3 Z" transform="rotate(153.74803739794268 4619 1856.9455040871935) translate(4619 1856.9455040871935)" /></g><g id="sprotty_424" class="sprotty-edge" opacity="1"><path class="elkedge" d="M 4268,2090.0544959128065 L 4619,1916.9455040871935" /><path class="edge arrow" d="M 0,0 L 8,-3 L 8,3 Z" transform="rotate(153.74803739794268 4619 1916.9455040871935) translate(4619 1916.9455040871935)" /></g><g id="sprotty_425" class="sprotty-edge" opacity="1"><path class="elkedge" d="M 2901,2148 L 2968,2148 L 2968,1733 L 3469,1733" /><path class="edge arrow" d="M 0,0 L 8,-3 L 8,3 Z" transform="rotate(180 3469 1733) translate(3469 1733)" /></g><g id="sprotty_426" class="sprotty-edge" opacity="1"><path class="elkedge" d="M 2917,185.5 L 3118,185.5 L 3118,1793 L 3469,1793" /><path class="edge arrow" d="M 0,0 L 8,-3 L 8,3 Z" transform="rotate(180 3469 1793) translate(3469 1793)" /><g id="sprotty_426_j0" transform="translate(3118, 1793)" opacity="1"><circle class="elkjunction" r="2" /></g></g><g id="sprotty_427" class="sprotty-edge" opacity="1"><path class="elkedge" d="M 2901,2152 L 3118,2152 L 3118,1793 L 3469,1793" /><path class="edge arrow" d="M 0,0 L 8,-3 L 8,3 Z" transform="rotate(180 3469 1793) translate(3469 1793)" /></g><g id="sprotty_428" class="sprotty-edge" opacity="1"><path class="elkedge" d="M 1117,1026 L 1184,1026 L 1184,1853 L 3469,1853" /><path class="edge arrow" d="M 0,0 L 8,-3 L 8,3 Z" transform="rotate(180 3469 1853) translate(3469 1853)" /></g><g id="sprotty_429" class="sprotty-edge" opacity="1"><path class="elkedge" d="M 2901,2156 L 3168,2156 L 3168,1853 L 3469,1853" /><path class="edge arrow" d="M 0,0 L 8,-3 L 8,3 Z" transform="rotate(180 3469 1853) translate(3469 1853)" /><g id="sprotty_429_j0" transform="translate(3168, 1853)" opacity="1"><circle class="elkjunction" r="2" /></g></g><g id="sprotty_430" class="sprotty-edge" opacity="1"><path class="elkedge" d="M 2901,2160 L 3218,2160 L 3218,1913 L 3469,1913" /><path class="edge arrow" d="M 0,0 L 8,-3 L 8,3 Z" transform="rotate(180 3469 1913) translate(3469 1913)" /></g><g id="sprotty_431" class="sprotty-edge" opacity="1"><path class="elkedge" d="M 2901,2164 L 3268,2164 L 3268,1973 L 3469,1973" /><path class="edge arrow" d="M 0,0 L 8,-3 L 8,3 Z" transform="rotate(180 3469 1973) translate(3469 1973)" /><g id="sprotty_431_j0" transform="translate(3268, 1973)" opacity="1"><circle class="elkjunction" r="2" /></g></g><g id="sprotty_432" class="sprotty-edge" opacity="1"><path class="elkedge" d="M 1133,2229 L 1434,2229 L 1434,1973 L 3469,1973" /><path class="edge arrow" d="M 0,0 L 8,-3 L 8,3 Z" transform="rotate(180 3469 1973) translate(3469 1973)" /><g id="sprotty_432_j0" transform="translate(1434, 1973)" opacity="1"><circle class="elkjunction" r="2" /></g></g><g id="sprotty_433" class="sprotty-edge" opacity="1"><path class="elkedge" d="M 2901,2168 L 3318,2168 L 3318,2033 L 3469,2033" /><path class="edge arrow" d="M 0,0 L 8,-3 L 8,3 Z" transform="rotate(180 3469 2033) translate(3469 2033)" /><g id="sprotty_433_j0" transform="translate(3318, 2168)" opacity="1"><circle class="elkjunction" r="2" /></g></g><g id="sprotty_434" class="sprotty-edge" opacity="1"><path class="elkedge" d="M 300,2093 L 3469,2093" /><path class="edge arrow" d="M 0,0 L 8,-3 L 8,3 Z" transform="rotate(180 3469 2093) translate(3469 2093)" /></g><g id="sprotty_435" class="sprotty-edge" opacity="1"><path class="elkedge" d="M 2901,2172 L 3368,2172 L 3368,2093 L 3469,2093" /><path class="edge arrow" d="M 0,0 L 8,-3 L 8,3 Z" transform="rotate(180 3469 2093) translate(3469 2093)" /><g id="sprotty_435_j0" transform="translate(3368, 2093)" opacity="1"><circle class="elkjunction" r="2" /></g></g><g id="sprotty_436" class="sprotty-edge" opacity="1"><path class="elkedge" d="M 2901,2200 L 2968,2200 L 2968,2513 L 3469,2513" /><path class="edge arrow" d="M 0,0 L 8,-3 L 8,3 Z" transform="rotate(180 3469 2513) translate(3469 2513)" /></g><g id="sprotty_437" class="sprotty-edge" opacity="1"><path class="elkedge" d="M 2901,2176 L 3418,2176 L 3418,2153 L 3469,2153" /><path class="edge arrow" d="M 0,0 L 8,-3 L 8,3 Z" transform="rotate(180 3469 2153) translate(3469 2153)" /><g id="sprotty_437_j0" transform="translate(3418, 2176)" opacity="1"><circle class="elkjunction" r="2" /></g></g><g id="sprotty_438" class="sprotty-edge" opacity="1"><path class="elkedge" d="M 2901,2180 L 3368,2180 L 3368,2213 L 3469,2213" /><path class="edge arrow" d="M 0,0 L 8,-3 L 8,3 Z" transform="rotate(180 3469 2213) translate(3469 2213)" /></g><g id="sprotty_439" class="sprotty-edge" opacity="1"><path class="elkedge" d="M 2901,2184 L 3168,2184 L 3168,2273 L 3469,2273" /><path class="edge arrow" d="M 0,0 L 8,-3 L 8,3 Z" transform="rotate(180 3469 2273) translate(3469 2273)" /></g><g id="sprotty_440" class="sprotty-edge" opacity="1"><path class="elkedge" d="M 2901,2188 L 3118,2188 L 3118,2333 L 3469,2333" /><path class="edge arrow" d="M 0,0 L 8,-3 L 8,3 Z" transform="rotate(180 3469 2333) translate(3469 2333)" /></g><g id="sprotty_441" class="sprotty-edge" opacity="1"><path class="elkedge" d="M 2901,2192 L 3068,2192 L 3068,2393 L 3469,2393" /><path class="edge arrow" d="M 0,0 L 8,-3 L 8,3 Z" transform="rotate(180 3469 2393) translate(3469 2393)" /></g><g id="sprotty_442" class="sprotty-edge" opacity="1"><path class="elkedge" d="M 2901,2196 L 3018,2196 L 3018,2453 L 3469,2453" /><path class="edge arrow" d="M 0,0 L 8,-3 L 8,3 Z" transform="rotate(180 3469 2453) translate(3469 2453)" /></g><g id="sprotty_447" class="sprotty-edge" opacity="1"><path class="elkedge" d="M 1133,2289 L 1184,2289 L 1184,2334 L 1751,2334" /><path class="edge arrow" d="M 0,0 L 8,-3 L 8,3 Z" transform="rotate(180 1751 2334) translate(1751 2334)" /></g><g id="sprotty_448" class="sprotty-edge" opacity="1"><path class="elkedge" d="M 1133,2229 L 1434,2229 L 1434,2319 L 1751,2319" /><path class="edge arrow" d="M 0,0 L 8,-3 L 8,3 Z" transform="rotate(180 1751 2319) translate(1751 2319)" /></g><g id="sprotty_451" class="sprotty-edge" opacity="1"><path class="elkedge" d="M 1133,2349 L 1751,2349" /><path class="edge arrow" d="M 0,0 L 8,-3 L 8,3 Z" transform="rotate(180 1751 2349) translate(1751 2349)" /></g><g id="sprotty_456" class="sprotty-edge" opacity="1"><path class="elkedge" d="M 917,2334.5 L 917,2284.5" /><path class="edge arrow" d="M 0,0 L 8,-3 L 8,3 Z" transform="rotate(90 917 2284.5) translate(917 2284.5)" /></g><g id="sprotty_459" class="sprotty-edge" opacity="1"><path class="elkedge" d="M 717,2229.980769230769 L 817,2242.2403846153848" /><path class="edge arrow" d="M 0,0 L 8,-3 L 8,3 Z" transform="rotate(-173.01063484366134 817 2242.2403846153848) translate(817 2242.2403846153848)" /></g><g id="sprotty_462" class="sprotty-edge" opacity="1"><path class="elkedge" d="M 717,2287.673076923077 L 817,2271.0865384615386" /><path class="edge arrow" d="M 0,0 L 8,-3 L 8,3 Z" transform="rotate(170.58235285466566 817 2271.0865384615386) translate(817 2271.0865384615386)" /></g><g id="sprotty_465" class="sprotty-edge" opacity="1"><path class="elkedge" d="M 717,2345.3653846153848 L 850.968253968254,2284.5" /><path class="edge arrow" d="M 0,0 L 8,-3 L 8,3 Z" transform="rotate(155.56642300963713 850.968253968254 2284.5) translate(850.968253968254 2284.5)" /></g><g id="sprotty_468" class="sprotty-edge" opacity="1"><path class="elkedge" d="M 717,2407.2884615384614 L 817,2385.894230769231" /><path class="edge arrow" d="M 0,0 L 8,-3 L 8,3 Z" transform="rotate(167.92405618105863 817 2385.894230769231) translate(817 2385.894230769231)" /></g><g id="sprotty_471" class="sprotty-edge" opacity="1"><path class="elkedge" d="M 717,2464.980769230769 L 857.2870813397129,2394.5" /><path class="edge arrow" d="M 0,0 L 8,-3 L 8,3 Z" transform="rotate(153.32487061155229 857.2870813397129 2394.5) translate(857.2870813397129 2394.5)" /></g><g id="sprotty_474" class="sprotty-edge" opacity="1"><path class="elkedge" d="M 714.6899696048632,2524.5 L 879.0668693009119,2394.5" /><path class="edge arrow" d="M 0,0 L 8,-3 L 8,3 Z" transform="rotate(141.6607478272731 879.0668693009119 2394.5) translate(879.0668693009119 2394.5)" /></g><g id="sprotty_477" class="sprotty-edge" opacity="1"><path class="elkedge" d="M 713.1692650334076,2584.5 L 889.2048997772829,2394.5" /><path class="edge arrow" d="M 0,0 L 8,-3 L 8,3 Z" transform="rotate(132.81520898842192 889.2048997772829 2394.5) translate(889.2048997772829 2394.5)" /></g><g id="sprotty_478" class="sprotty-edge" opacity="1"><path class="elkedge" d="M 999.6490066225165,2334.5 L 1117,2291.903846153846" /><path class="edge arrow" d="M 0,0 L 8,-3 L 8,3 Z" transform="rotate(160.05007635827792 1117 2291.903846153846) translate(1117 2291.903846153846)" /></g><g id="sprotty_479" class="sprotty-edge" opacity="1"><path class="elkedge" d="M 1017,2242.2403846153848 L 1117,2229.980769230769" /><path class="edge arrow" d="M 0,0 L 8,-3 L 8,3 Z" transform="rotate(173.01063484366134 1117 2229.980769230769) translate(1117 2229.980769230769)" /></g><g id="sprotty_480" class="sprotty-edge" opacity="1"><path class="elkedge" d="M 983.031746031746,2284.5 L 1117,2345.3653846153848" /><path class="edge arrow" d="M 0,0 L 8,-3 L 8,3 Z" transform="rotate(-155.56642300963713 1117 2345.3653846153848) translate(1117 2345.3653846153848)" /></g><g id="sprotty_483" class="sprotty-edge" opacity="1"><path class="elkedge" d="M 300,2566.5 L 550,2566.5 L 550,2409 L 701,2409" /><path class="edge arrow" d="M 0,0 L 8,-3 L 8,3 Z" transform="rotate(180 701 2409) translate(701 2409)" /></g><g id="sprotty_484" class="sprotty-edge" opacity="1"><path class="elkedge" d="M 300,2574 L 600,2574 L 600,2469 L 701,2469" /><path class="edge arrow" d="M 0,0 L 8,-3 L 8,3 Z" transform="rotate(180 701 2469) translate(701 2469)" /></g><g id="sprotty_485" class="sprotty-edge" opacity="1"><path class="elkedge" d="M 300,2581.5 L 650,2581.5 L 650,2529 L 701,2529" /><path class="edge arrow" d="M 0,0 L 8,-3 L 8,3 Z" transform="rotate(180 701 2529) translate(701 2529)" /></g><g id="sprotty_486" class="sprotty-edge" opacity="1"><path class="elkedge" d="M 300,2589 L 701,2589" /><path class="edge arrow" d="M 0,0 L 8,-3 L 8,3 Z" transform="rotate(180 701 2589) translate(701 2589)" /></g><g id="sprotty_487" class="sprotty-edge" opacity="1"><path class="elkedge" d="M 300,2544 L 400,2544 L 400,2229 L 701,2229" /><path class="edge arrow" d="M 0,0 L 8,-3 L 8,3 Z" transform="rotate(180 701 2229) translate(701 2229)" /></g><g id="sprotty_488" class="sprotty-edge" opacity="1"><path class="elkedge" d="M 300,2103 L 450,2103 L 450,2289 L 701,2289" /><path class="edge arrow" d="M 0,0 L 8,-3 L 8,3 Z" transform="rotate(180 701 2289) translate(701 2289)" /><g id="sprotty_488_j0" transform="translate(450, 2289)" opacity="1"><circle class="elkjunction" r="2" /></g></g><g id="sprotty_489" class="sprotty-edge" opacity="1"><path class="elkedge" d="M 300,2551.5 L 450,2551.5 L 450,2289 L 701,2289" /><path class="edge arrow" d="M 0,0 L 8,-3 L 8,3 Z" transform="rotate(180 701 2289) translate(701 2289)" /></g><g id="sprotty_490" class="sprotty-edge" opacity="1"><path class="elkedge" d="M 300,2559 L 500,2559 L 500,2349 L 701,2349" /><path class="edge arrow" d="M 0,0 L 8,-3 L 8,3 Z" transform="rotate(180 701 2349) translate(701 2349)" /></g></g></g></svg>
