<svg id="sprotty_1" class="sprotty-graph sprotty" tabindex="1002" xmlns="http://www.w3.org/2000/svg" viewBox="0 0 1451 952"><style>
.elknode {
    stroke: #448;
    stroke-width: 2;
    fill: #ddf;
    fill-opacity: 0.5;
}

.elkport {
    stroke: #448;
    stroke-width: 1;
    fill: #66c;
}

.elkedge {
    fill: none;
    stroke: #88f;
    stroke-width: 8;
    stroke-opacity: 0.3;
    pointer-events: stroke;
    stroke-linejoin: round;
}

.elkedge:hover {
    stroke: #448;
    stroke-width: 8;
    stroke-opacity: 1;
    stroke-dasharray: 16px;
    stroke-dashoffset: 32px;
    animation: stroke 0.5s linear infinite;
}

@keyframes stroke {
    to {
        stroke-dashoffset: 0;
    }
}

.elkedge.arrow {
    fill: #336;
}

.elklabel {
    stroke-width: 0;
    stroke: #000;
    fill: #000;
    font-family: sans-serif;
    font-size: 10pt;
    dominant-baseline: hanging;
}

.elklabel:hover {
    font-size: 24pt;
}

.elkjunction {
    stroke: none;
    fill: #224;
}

.selected &gt; rect {
    stroke-width: 3;
}

.mouseover {
    stroke: #88f;
}
/*
 * Copyright (C) 2017 TypeFox and others.
 *
 * Licensed under the Apache License, Version 2.0 (the &quot;License&quot;); you may not use this file except in compliance with the License.
 * You may obtain a copy of the License at http://www.apache.org/licenses/LICENSE-2.0
 */

.sprotty {
    padding: 0px;
    font-family: &quot;Helvetica Neue&quot;, Helvetica, Arial, sans-serif;
}

.sprotty-hidden {
    display: block;
    position: absolute;
    width: 0px;
    height: 0px;
}

.sprotty-popup {
    font-family: &quot;Helvetica Neue&quot;, Helvetica, Arial, sans-serif;
    position: absolute;
    background: white;
    border-radius: 5px;
    border: 1px solid;
    max-width: 400px;
    min-width: 100px;
}

.sprotty-popup &gt; div {
    margin: 10px;
}

.sprotty-popup-closed {
    display: none;
}
</style><g transform="scale(1) translate(0,0)"><g id="sprotty_3" transform="translate(117, 71)" opacity="1"><rect class="elknode" x="0" y="0" rx="10" width="1234" height="831" /><g id="sprotty_5" transform="translate(300, 395.5)" opacity="1"><rect class="elknode" x="0" y="0" rx="10" width="200" height="60" /><text id="sprotty_6" class="elklabel" transform="translate(5, 22) translate(0, 0)" opacity="1">local.parameters</text></g><g id="sprotty_28" transform="translate(717, 71)" opacity="1"><rect class="elknode" x="0" y="0" rx="10" width="400" height="710" /><g id="sprotty_30" transform="translate(100, 50)" opacity="1"><rect class="elknode" x="0" y="0" rx="10" width="200" height="60" /><text id="sprotty_31" class="elklabel" transform="translate(5, 22) translate(0, 0)" opacity="1">k8s_apps_v1_deployment.this</text></g><g id="sprotty_32" transform="translate(100, 160)" opacity="1"><rect class="elknode" x="0" y="0" rx="10" width="200" height="60" /><text id="sprotty_33" class="elklabel" transform="translate(5, 22) translate(0, 0)" opacity="1">local.k8s_apps_v1_deployment_parameters</text></g><g id="sprotty_35" transform="translate(100, 270)" opacity="1"><rect class="elknode" x="0" y="0" rx="10" width="200" height="60" /><text id="sprotty_36" class="elklabel" transform="translate(5, 22) translate(0, 0)" opacity="1">k8s_core_v1_service.this</text></g><g id="sprotty_37" transform="translate(100, 380)" opacity="1"><rect class="elknode" x="0" y="0" rx="10" width="200" height="60" /><text id="sprotty_38" class="elklabel" transform="translate(5, 22) translate(0, 0)" opacity="1">local.k8s_core_v1_service_parameters</text></g><g id="sprotty_43" transform="translate(100, 490)" opacity="1"><rect class="elknode" x="0" y="0" rx="10" width="200" height="60" /><text id="sprotty_44" class="elklabel" transform="translate(5, 22) translate(0, 0)" opacity="1">local.selector</text></g><g id="sprotty_46" transform="translate(100, 600)" opacity="1"><rect class="elknode" x="0" y="0" rx="10" width="200" height="60" /><text id="sprotty_47" class="elklabel" transform="translate(5, 22) translate(0, 0)" opacity="1">local.labels</text></g><g id="sprotty_40" transform="translate(-16, 50)" opacity="1"><rect class="elkport" x="0" y="0" width="16" height="9" /><text id="sprotty_41" class="elklabel" transform="translate(-1, -1) translate(0, 0)" opacity="1">enable_service</text></g><g id="sprotty_49" transform="translate(-16, 110)" opacity="1"><rect class="elkport" x="0" y="0" width="16" height="9" /><text id="sprotty_50" class="elklabel" transform="translate(-1, 10) translate(0, 0)" opacity="1">parameters</text></g><g id="sprotty_53" transform="translate(400, 50)" opacity="1"><rect class="elkport" x="0" y="0" width="16" height="9" /><text id="sprotty_54" class="elklabel" transform="translate(17, 10) translate(0, 0)" opacity="1">deployment</text></g><g id="sprotty_56" transform="translate(400, 110)" opacity="1"><rect class="elkport" x="0" y="0" width="16" height="9" /><text id="sprotty_57" class="elklabel" transform="translate(17, 10) translate(0, 0)" opacity="1">labels</text></g><g id="sprotty_59" transform="translate(400, 170)" opacity="1"><rect class="elkport" x="0" y="0" width="16" height="9" /><text id="sprotty_60" class="elklabel" transform="translate(17, 10) translate(0, 0)" opacity="1">name</text></g><g id="sprotty_62" transform="translate(400, 230)" opacity="1"><rect class="elkport" x="0" y="0" width="16" height="9" /><text id="sprotty_63" class="elklabel" transform="translate(17, 10) translate(0, 0)" opacity="1">service</text></g><text id="sprotty_29" class="elklabel" transform="translate(0, -21) translate(0, 0)" opacity="1">deployment-service</text></g><g id="sprotty_7" transform="translate(-16, 301)" opacity="1"><rect class="elkport" x="0" y="0" width="16" height="9" /><text id="sprotty_8" class="elklabel" transform="translate(-1, 10) translate(0, 0)" opacity="1">annotations</text></g><g id="sprotty_10" transform="translate(-16, 361)" opacity="1"><rect class="elkport" x="0" y="0" width="16" height="9" /><text id="sprotty_11" class="elklabel" transform="translate(-1, 10) translate(0, 0)" opacity="1">env_config_map</text></g><g id="sprotty_13" transform="translate(-16, 421)" opacity="1"><rect class="elkport" x="0" y="0" width="16" height="9" /><text id="sprotty_14" class="elklabel" transform="translate(-1, 10) translate(0, 0)" opacity="1">etc_config_map</text></g><g id="sprotty_16" transform="translate(-16, 481)" opacity="1"><rect class="elkport" x="0" y="0" width="16" height="9" /><text id="sprotty_17" class="elklabel" transform="translate(-1, 10) translate(0, 0)" opacity="1">image</text></g><g id="sprotty_19" transform="translate(-16, 541)" opacity="1"><rect class="elkport" x="0" y="0" width="16" height="9" /><text id="sprotty_20" class="elklabel" transform="translate(-1, 10) translate(0, 0)" opacity="1">name</text></g><g id="sprotty_22" transform="translate(-16, 601)" opacity="1"><rect class="elkport" x="0" y="0" width="16" height="9" /><text id="sprotty_23" class="elklabel" transform="translate(-1, 10) translate(0, 0)" opacity="1">namespace</text></g><g id="sprotty_25" transform="translate(-16, 241)" opacity="1"><rect class="elkport" x="0" y="0" width="16" height="9" /><text id="sprotty_26" class="elklabel" transform="translate(-1, 10) translate(0, 0)" opacity="1">replicas</text></g><g id="sprotty_66" transform="translate(-16, 181)" opacity="1"><rect class="elkport" x="0" y="0" width="16" height="9" /><text id="sprotty_67" class="elklabel" transform="translate(-1, 10) translate(0, 0)" opacity="1">overrides</text></g><text id="sprotty_4" class="elklabel" transform="translate(0, -21) translate(0, 0)" opacity="1">modules/sentry/cron</text><g id="sprotty_9" class="sprotty-edge" opacity="1"><path class="elkedge" d="M 0,305.5 L 200,305.5 L 200,410.5 L 300,410.5" /><path class="edge arrow" d="M 0,0 L 8,-3 L 8,3 Z" transform="rotate(180 300 410.5) translate(300 410.5)" /></g><g id="sprotty_12" class="sprotty-edge" opacity="1"><path class="elkedge" d="M 0,365.5 L 150,365.5 L 150,418 L 300,418" /><path class="edge arrow" d="M 0,0 L 8,-3 L 8,3 Z" transform="rotate(180 300 418) translate(300 418)" /></g><g id="sprotty_15" class="sprotty-edge" opacity="1"><path class="elkedge" d="M 0,425.5 L 300,425.5" /><path class="edge arrow" d="M 0,0 L 8,-3 L 8,3 Z" transform="rotate(180 300 425.5) translate(300 425.5)" /></g><g id="sprotty_18" class="sprotty-edge" opacity="1"><path class="elkedge" d="M 0,485.5 L 150,485.5 L 150,433 L 300,433" /><path class="edge arrow" d="M 0,0 L 8,-3 L 8,3 Z" transform="rotate(180 300 433) translate(300 433)" /></g><g id="sprotty_21" class="sprotty-edge" opacity="1"><path class="elkedge" d="M 0,545.5 L 200,545.5 L 200,440.5 L 300,440.5" /><path class="edge arrow" d="M 0,0 L 8,-3 L 8,3 Z" transform="rotate(180 300 440.5) translate(300 440.5)" /></g><g id="sprotty_24" class="sprotty-edge" opacity="1"><path class="elkedge" d="M 0,605.5 L 250,605.5 L 250,448 L 300,448" /><path class="edge arrow" d="M 0,0 L 8,-3 L 8,3 Z" transform="rotate(180 300 448) translate(300 448)" /></g><g id="sprotty_27" class="sprotty-edge" opacity="1"><path class="elkedge" d="M 0,245.5 L 250,245.5 L 250,403 L 300,403" /><path class="edge arrow" d="M 0,0 L 8,-3 L 8,3 Z" transform="rotate(180 300 403) translate(300 403)" /></g><g id="sprotty_34" class="sprotty-edge" opacity="1"><path class="elkedge" d="M 917,231 L 917,181" /><path class="edge arrow" d="M 0,0 L 8,-3 L 8,3 Z" transform="rotate(90 917 181) translate(917 181)" /></g><g id="sprotty_39" class="sprotty-edge" opacity="1"><path class="elkedge" d="M 917,451 L 917,401" /><path class="edge arrow" d="M 0,0 L 8,-3 L 8,3 Z" transform="rotate(90 917 401) translate(917 401)" /></g><g id="sprotty_42" class="sprotty-edge" opacity="1"><path class="elkedge" d="M 712.8126272912424,130 L 891.5824847250509,341" /><path class="edge arrow" d="M 0,0 L 8,-3 L 8,3 Z" transform="rotate(-130.27295566323374 891.5824847250509 341) translate(891.5824847250509 341)" /></g><g id="sprotty_45" class="sprotty-edge" opacity="1"><path class="elkedge" d="M 917,561 L 917,291" /><path class="edge arrow" d="M 0,0 L 8,-3 L 8,3 Z" transform="rotate(90 917 291) translate(917 291)" /></g><g id="sprotty_48" class="sprotty-edge" opacity="1"><path class="elkedge" d="M 917,671 L 917,511" /><path class="edge arrow" d="M 0,0 L 8,-3 L 8,3 Z" transform="rotate(90 917 511) translate(917 511)" /></g><g id="sprotty_51" class="sprotty-edge" opacity="1"><path class="elkedge" d="M 710.815712900097,190 L 904.8952473326867,671" /><path class="edge arrow" d="M 0,0 L 8,-3 L 8,3 Z" transform="rotate(-111.9736695371 904.8952473326867 671) translate(904.8952473326867 671)" /></g><g id="sprotty_52" class="sprotty-edge" opacity="1"><path class="elkedge" d="M 917,671 L 917,621" /><path class="edge arrow" d="M 0,0 L 8,-3 L 8,3 Z" transform="rotate(90 917 621) translate(917 621)" /></g><g id="sprotty_55" class="sprotty-edge" opacity="1"><path class="elkedge" d="M 1017,138.7403846153846 L 1117,126.48076923076923" /><path class="edge arrow" d="M 0,0 L 8,-3 L 8,3 Z" transform="rotate(173.01063484366153 1117 126.48076923076923) translate(1117 126.48076923076923)" /></g><g id="sprotty_58" class="sprotty-edge" opacity="1"><path class="elkedge" d="M 929.1047526673133,671 L 1123.184287099903,190" /><path class="edge arrow" d="M 0,0 L 8,-3 L 8,3 Z" transform="rotate(111.9736695371 1123.184287099903 190) translate(1123.184287099903 190)" /></g><g id="sprotty_61" class="sprotty-edge" opacity="1"><path class="elkedge" d="M 983.031746031746,181 L 1117,241.8653846153846" /><path class="edge arrow" d="M 0,0 L 8,-3 L 8,3 Z" transform="rotate(-155.5664230096372 1117 241.8653846153846) translate(1117 241.8653846153846)" /></g><g id="sprotty_64" class="sprotty-edge" opacity="1"><path class="elkedge" d="M 1012.2671755725191,341 L 1117,308.0192307692308" /><path class="edge arrow" d="M 0,0 L 8,-3 L 8,3 Z" transform="rotate(162.52058471831904 1117 308.0192307692308) translate(1117 308.0192307692308)" /></g><g id="sprotty_65" class="sprotty-edge" opacity="1"><path class="elkedge" d="M 500,425.5 L 550,425.5 L 550,185.5 L 701,185.5" /><path class="edge arrow" d="M 0,0 L 8,-3 L 8,3 Z" transform="rotate(180 701 185.5) translate(701 185.5)" /><g id="sprotty_65_j0" transform="translate(550, 185.5)" opacity="1"><circle class="elkjunction" r="2" /></g></g><g id="sprotty_68" class="sprotty-edge" opacity="1"><path class="elkedge" d="M 0,185.5 L 701,185.5" /><path class="edge arrow" d="M 0,0 L 8,-3 L 8,3 Z" transform="rotate(180 701 185.5) translate(701 185.5)" /></g></g></g></svg>
