<svg id="sprotty_1" class="sprotty-graph sprotty" tabindex="1002" xmlns="http://www.w3.org/2000/svg" viewBox="0 0 3002 2143"><style>
.elknode {
    stroke: #448;
    stroke-width: 2;
    fill: #ddf;
    fill-opacity: 0.5;
}

.elkport {
    stroke: #448;
    stroke-width: 1;
    fill: #66c;
}

.elkedge {
    fill: none;
    stroke: #88f;
    stroke-width: 8;
    stroke-opacity: 0.3;
    pointer-events: stroke;
    stroke-linejoin: round;
}

.elkedge:hover {
    stroke: #448;
    stroke-width: 8;
    stroke-opacity: 1;
    stroke-dasharray: 16px;
    stroke-dashoffset: 32px;
    animation: stroke 0.5s linear infinite;
}

@keyframes stroke {
    to {
        stroke-dashoffset: 0;
    }
}

.elkedge.arrow {
    fill: #336;
}

.elklabel {
    stroke-width: 0;
    stroke: #000;
    fill: #000;
    font-family: sans-serif;
    font-size: 10pt;
    dominant-baseline: hanging;
}

.elklabel:hover {
    font-size: 24pt;
}

.elkjunction {
    stroke: none;
    fill: #224;
}

.selected &gt; rect {
    stroke-width: 3;
}

.mouseover {
    stroke: #88f;
}
/*
 * Copyright (C) 2017 TypeFox and others.
 *
 * Licensed under the Apache License, Version 2.0 (the &quot;License&quot;); you may not use this file except in compliance with the License.
 * You may obtain a copy of the License at http://www.apache.org/licenses/LICENSE-2.0
 */

.sprotty {
    padding: 0px;
    font-family: &quot;Helvetica Neue&quot;, Helvetica, Arial, sans-serif;
}

.sprotty-hidden {
    display: block;
    position: absolute;
    width: 0px;
    height: 0px;
}

.sprotty-popup {
    font-family: &quot;Helvetica Neue&quot;, Helvetica, Arial, sans-serif;
    position: absolute;
    background: white;
    border-radius: 5px;
    border: 1px solid;
    max-width: 400px;
    min-width: 100px;
}

.sprotty-popup &gt; div {
    margin: 10px;
}

.sprotty-popup-closed {
    display: none;
}
</style><g transform="scale(1) translate(0,0)"><g id="sprotty_3" transform="translate(117, 71)" opacity="1"><rect class="elknode" x="0" y="0" rx="10" width="2768" height="2022" /><g id="sprotty_5" transform="translate(1584, 683.0714285714287)" opacity="1"><rect class="elknode" x="0" y="0" rx="10" width="200" height="60" /><text id="sprotty_6" class="elklabel" transform="translate(5, 22) translate(0, 0)" opacity="1">local.parameters</text></g><g id="sprotty_7" transform="translate(117, 1206.5)" opacity="1"><rect class="elknode" x="0" y="0" rx="10" width="900" height="710" /><g id="sprotty_117" transform="translate(100, 50)" opacity="1"><rect class="elknode" x="0" y="0" rx="10" width="200" height="60" /><text id="sprotty_118" class="elklabel" transform="translate(5, 22) translate(0, 0)" opacity="1">k8s_core_v1_service_account.this</text></g><g id="sprotty_119" transform="translate(350, 50)" opacity="1"><rect class="elknode" x="0" y="0" rx="10" width="200" height="60" /><text id="sprotty_120" class="elklabel" transform="translate(5, 22) translate(0, 0)" opacity="1">local.k8s_core_v1_service_account_parameters</text></g><g id="sprotty_122" transform="translate(600, 50)" opacity="1"><rect class="elknode" x="0" y="0" rx="10" width="200" height="60" /><text id="sprotty_123" class="elklabel" transform="translate(5, 22) translate(0, 0)" opacity="1">k8s_rbac_authorization_k8s_io_v1_cluster_role.this</text></g><g id="sprotty_124" transform="translate(100, 160)" opacity="1"><rect class="elknode" x="0" y="0" rx="10" width="200" height="60" /><text id="sprotty_125" class="elklabel" transform="translate(5, 22) translate(0, 0)" opacity="1">local.k8s_rbac_authorization_k8s_io_v1_cluster_role_parameters</text></g><g id="sprotty_127" transform="translate(350, 160)" opacity="1"><rect class="elknode" x="0" y="0" rx="10" width="200" height="60" /><text id="sprotty_128" class="elklabel" transform="translate(5, 22) translate(0, 0)" opacity="1">k8s_rbac_authorization_k8s_io_v1_cluster_role_binding.this</text></g><g id="sprotty_129" transform="translate(600, 160)" opacity="1"><rect class="elknode" x="0" y="0" rx="10" width="200" height="60" /><text id="sprotty_130" class="elklabel" transform="translate(5, 22) translate(0, 0)" opacity="1">local.k8s_rbac_authorization_k8s_io_v1_cluster_role_binding_parameters</text></g><g id="sprotty_135" transform="translate(100, 270)" opacity="1"><rect class="elknode" x="0" y="0" rx="10" width="200" height="60" /><text id="sprotty_136" class="elklabel" transform="translate(5, 22) translate(0, 0)" opacity="1">k8s_rbac_authorization_k8s_io_v1_role.this</text></g><g id="sprotty_137" transform="translate(350, 270)" opacity="1"><rect class="elknode" x="0" y="0" rx="10" width="200" height="60" /><text id="sprotty_138" class="elklabel" transform="translate(5, 22) translate(0, 0)" opacity="1">local.k8s_rbac_authorization_k8s_io_v1_role_parameters</text></g><g id="sprotty_140" transform="translate(600, 270)" opacity="1"><rect class="elknode" x="0" y="0" rx="10" width="200" height="60" /><text id="sprotty_141" class="elklabel" transform="translate(5, 22) translate(0, 0)" opacity="1">k8s_rbac_authorization_k8s_io_v1_role_binding.this</text></g><g id="sprotty_142" transform="translate(100, 380)" opacity="1"><rect class="elknode" x="0" y="0" rx="10" width="200" height="60" /><text id="sprotty_143" class="elklabel" transform="translate(5, 22) translate(0, 0)" opacity="1">local.k8s_rbac_authorization_k8s_io_v1_role_binding_parameters</text></g><g id="sprotty_148" transform="translate(350, 380)" opacity="1"><rect class="elknode" x="0" y="0" rx="10" width="200" height="60" /><text id="sprotty_149" class="elklabel" transform="translate(5, 22) translate(0, 0)" opacity="1">local.cluster_role_parameters</text></g><g id="sprotty_156" transform="translate(600, 380)" opacity="1"><rect class="elknode" x="0" y="0" rx="10" width="200" height="60" /><text id="sprotty_157" class="elklabel" transform="translate(5, 22) translate(0, 0)" opacity="1">local.cluster_role_ref</text></g><g id="sprotty_159" transform="translate(100, 490)" opacity="1"><rect class="elknode" x="0" y="0" rx="10" width="200" height="60" /><text id="sprotty_160" class="elklabel" transform="translate(5, 22) translate(0, 0)" opacity="1">local.cluster_role_rules</text></g><g id="sprotty_162" transform="translate(350, 490)" opacity="1"><rect class="elknode" x="0" y="0" rx="10" width="200" height="60" /><text id="sprotty_163" class="elklabel" transform="translate(5, 22) translate(0, 0)" opacity="1">local.parameters</text></g><g id="sprotty_169" transform="translate(600, 490)" opacity="1"><rect class="elknode" x="0" y="0" rx="10" width="200" height="60" /><text id="sprotty_170" class="elklabel" transform="translate(5, 22) translate(0, 0)" opacity="1">local.subjects</text></g><g id="sprotty_175" transform="translate(100, 600)" opacity="1"><rect class="elknode" x="0" y="0" rx="10" width="200" height="60" /><text id="sprotty_176" class="elklabel" transform="translate(5, 22) translate(0, 0)" opacity="1">local.role_ref</text></g><g id="sprotty_180" transform="translate(350, 600)" opacity="1"><rect class="elknode" x="0" y="0" rx="10" width="200" height="60" /><text id="sprotty_181" class="elklabel" transform="translate(5, 22) translate(0, 0)" opacity="1">local.role_rules</text></g><g id="sprotty_184" transform="translate(600, 600)" opacity="1"><rect class="elknode" x="0" y="0" rx="10" width="200" height="60" /><text id="sprotty_185" class="elklabel" transform="translate(5, 22) translate(0, 0)" opacity="1">local.labels</text></g><g id="sprotty_9" transform="translate(900, 50)" opacity="1"><rect class="elkport" x="0" y="0" width="16" height="9" /><text id="sprotty_10" class="elklabel" transform="translate(17, -1) translate(0, 0)" opacity="1">name</text></g><g id="sprotty_132" transform="translate(-16, 50)" opacity="1"><rect class="elkport" x="0" y="0" width="16" height="9" /><text id="sprotty_133" class="elklabel" transform="translate(-1, 10) translate(0, 0)" opacity="1">cluster_role_rules</text></g><g id="sprotty_145" transform="translate(-16, 110)" opacity="1"><rect class="elkport" x="0" y="0" width="16" height="9" /><text id="sprotty_146" class="elklabel" transform="translate(-1, 10) translate(0, 0)" opacity="1">role_rules</text></g><g id="sprotty_150" transform="translate(-16, 170)" opacity="1"><rect class="elkport" x="0" y="0" width="16" height="9" /><text id="sprotty_151" class="elklabel" transform="translate(-1, 10) translate(0, 0)" opacity="1">name</text></g><g id="sprotty_153" transform="translate(-16, 230)" opacity="1"><rect class="elkport" x="0" y="0" width="16" height="9" /><text id="sprotty_154" class="elklabel" transform="translate(-1, 10) translate(0, 0)" opacity="1">namespace</text></g><g id="sprotty_165" transform="translate(-16, 290)" opacity="1"><rect class="elkport" x="0" y="0" width="16" height="9" /><text id="sprotty_166" class="elklabel" transform="translate(-1, 10) translate(0, 0)" opacity="1">overrides</text></g><g id="sprotty_193" transform="translate(900, 110)" opacity="1"><rect class="elkport" x="0" y="0" width="16" height="9" /><text id="sprotty_194" class="elklabel" transform="translate(17, 10) translate(0, 0)" opacity="1">service_account</text></g><text id="sprotty_8" class="elklabel" transform="translate(0, -21) translate(0, 0)" opacity="1">rbac</text></g><g id="sprotty_69" transform="translate(2001, 598.5714285714287)" opacity="1"><rect class="elknode" x="0" y="0" rx="10" width="650" height="490" /><g id="sprotty_71" transform="translate(100, 50)" opacity="1"><rect class="elknode" x="0" y="0" rx="10" width="200" height="60" /><text id="sprotty_72" class="elklabel" transform="translate(5, 22) translate(0, 0)" opacity="1">k8s_apps_v1_deployment.this</text></g><g id="sprotty_73" transform="translate(350, 50)" opacity="1"><rect class="elknode" x="0" y="0" rx="10" width="200" height="60" /><text id="sprotty_74" class="elklabel" transform="translate(5, 22) translate(0, 0)" opacity="1">local.k8s_apps_v1_deployment_parameters</text></g><g id="sprotty_76" transform="translate(100, 160)" opacity="1"><rect class="elknode" x="0" y="0" rx="10" width="200" height="60" /><text id="sprotty_77" class="elklabel" transform="translate(5, 22) translate(0, 0)" opacity="1">k8s_core_v1_service.this</text></g><g id="sprotty_78" transform="translate(350, 160)" opacity="1"><rect class="elknode" x="0" y="0" rx="10" width="200" height="60" /><text id="sprotty_79" class="elklabel" transform="translate(5, 22) translate(0, 0)" opacity="1">local.k8s_core_v1_service_parameters</text></g><g id="sprotty_84" transform="translate(100, 270)" opacity="1"><rect class="elknode" x="0" y="0" rx="10" width="200" height="60" /><text id="sprotty_85" class="elklabel" transform="translate(5, 22) translate(0, 0)" opacity="1">local.podAnnotations</text></g><g id="sprotty_87" transform="translate(350, 270)" opacity="1"><rect class="elknode" x="0" y="0" rx="10" width="200" height="60" /><text id="sprotty_88" class="elklabel" transform="translate(5, 22) translate(0, 0)" opacity="1">local.selector</text></g><g id="sprotty_90" transform="translate(100, 380)" opacity="1"><rect class="elknode" x="0" y="0" rx="10" width="200" height="60" /><text id="sprotty_91" class="elklabel" transform="translate(5, 22) translate(0, 0)" opacity="1">local.labels</text></g><g id="sprotty_81" transform="translate(-16, 50)" opacity="1"><rect class="elkport" x="0" y="0" width="16" height="9" /><text id="sprotty_82" class="elklabel" transform="translate(-1, 10) translate(0, 0)" opacity="1">enable_service</text></g><g id="sprotty_93" transform="translate(-16, 110)" opacity="1"><rect class="elkport" x="0" y="0" width="16" height="9" /><text id="sprotty_94" class="elklabel" transform="translate(-1, 10) translate(0, 0)" opacity="1">parameters</text></g><g id="sprotty_97" transform="translate(-16, 170)" opacity="1"><rect class="elkport" x="0" y="0" width="16" height="9" /><text id="sprotty_98" class="elklabel" transform="translate(-1, 10) translate(0, 0)" opacity="1">podAnnotations</text></g><g id="sprotty_101" transform="translate(650, 50)" opacity="1"><rect class="elkport" x="0" y="0" width="16" height="9" /><text id="sprotty_102" class="elklabel" transform="translate(17, 10) translate(0, 0)" opacity="1">deployment</text></g><g id="sprotty_104" transform="translate(650, 110)" opacity="1"><rect class="elkport" x="0" y="0" width="16" height="9" /><text id="sprotty_105" class="elklabel" transform="translate(17, 10) translate(0, 0)" opacity="1">labels</text></g><g id="sprotty_107" transform="translate(650, 170)" opacity="1"><rect class="elkport" x="0" y="0" width="16" height="9" /><text id="sprotty_108" class="elklabel" transform="translate(17, 10) translate(0, 0)" opacity="1">name</text></g><g id="sprotty_110" transform="translate(650, 230)" opacity="1"><rect class="elkport" x="0" y="0" width="16" height="9" /><text id="sprotty_111" class="elklabel" transform="translate(17, 10) translate(0, 0)" opacity="1">service</text></g><text id="sprotty_70" class="elklabel" transform="translate(0, -21) translate(0, 0)" opacity="1">deployment-service</text></g><g id="sprotty_12" transform="translate(-16, 170)" opacity="1"><rect class="elkport" x="0" y="0" width="16" height="9" /><text id="sprotty_13" class="elklabel" transform="translate(-1, 10) translate(0, 0)" opacity="1">annotations</text></g><g id="sprotty_15" transform="translate(-16, 230)" opacity="1"><rect class="elkport" x="0" y="0" width="16" height="9" /><text id="sprotty_16" class="elklabel" transform="translate(-1, 10) translate(0, 0)" opacity="1">env</text></g><g id="sprotty_18" transform="translate(-16, 290)" opacity="1"><rect class="elkport" x="0" y="0" width="16" height="9" /><text id="sprotty_19" class="elklabel" transform="translate(-1, 10) translate(0, 0)" opacity="1">function_namespace</text></g><g id="sprotty_21" transform="translate(-16, 350)" opacity="1"><rect class="elkport" x="0" y="0" width="16" height="9" /><text id="sprotty_22" class="elklabel" transform="translate(-1, 10) translate(0, 0)" opacity="1">http_probe</text></g><g id="sprotty_24" transform="translate(-16, 410)" opacity="1"><rect class="elkport" x="0" y="0" width="16" height="9" /><text id="sprotty_25" class="elklabel" transform="translate(-1, 10) translate(0, 0)" opacity="1">image</text></g><g id="sprotty_27" transform="translate(-16, 470)" opacity="1"><rect class="elkport" x="0" y="0" width="16" height="9" /><text id="sprotty_28" class="elklabel" transform="translate(-1, 10) translate(0, 0)" opacity="1">image_pull_policy</text></g><g id="sprotty_30" transform="translate(-16, 530)" opacity="1"><rect class="elkport" x="0" y="0" width="16" height="9" /><text id="sprotty_31" class="elklabel" transform="translate(-1, 10) translate(0, 0)" opacity="1">liveness_probe_initial_delay_seconds</text></g><g id="sprotty_33" transform="translate(-16, 590)" opacity="1"><rect class="elkport" x="0" y="0" width="16" height="9" /><text id="sprotty_34" class="elklabel" transform="translate(-1, 10) translate(0, 0)" opacity="1">liveness_probe_period_seconds</text></g><g id="sprotty_36" transform="translate(-16, 650)" opacity="1"><rect class="elkport" x="0" y="0" width="16" height="9" /><text id="sprotty_37" class="elklabel" transform="translate(-1, 10) translate(0, 0)" opacity="1">liveness_probe_timeout_seconds</text></g><g id="sprotty_39" transform="translate(-16, 710)" opacity="1"><rect class="elkport" x="0" y="0" width="16" height="9" /><text id="sprotty_40" class="elklabel" transform="translate(-1, 10) translate(0, 0)" opacity="1">operator</text></g><g id="sprotty_42" transform="translate(-16, 770)" opacity="1"><rect class="elkport" x="0" y="0" width="16" height="9" /><text id="sprotty_43" class="elklabel" transform="translate(-1, 10) translate(0, 0)" opacity="1">ports</text></g><g id="sprotty_45" transform="translate(-16, 830)" opacity="1"><rect class="elkport" x="0" y="0" width="16" height="9" /><text id="sprotty_46" class="elklabel" transform="translate(-1, 10) translate(0, 0)" opacity="1">read_timeout</text></g><g id="sprotty_48" transform="translate(-16, 890)" opacity="1"><rect class="elkport" x="0" y="0" width="16" height="9" /><text id="sprotty_49" class="elklabel" transform="translate(-1, 10) translate(0, 0)" opacity="1">readiness_probe_initial_delay_seconds</text></g><g id="sprotty_51" transform="translate(-16, 950)" opacity="1"><rect class="elkport" x="0" y="0" width="16" height="9" /><text id="sprotty_52" class="elklabel" transform="translate(-1, 10) translate(0, 0)" opacity="1">readiness_probe_period_seconds</text></g><g id="sprotty_54" transform="translate(-16, 1010)" opacity="1"><rect class="elkport" x="0" y="0" width="16" height="9" /><text id="sprotty_55" class="elklabel" transform="translate(-1, 10) translate(0, 0)" opacity="1">readiness_probe_timeout_seconds</text></g><g id="sprotty_57" transform="translate(-16, 1070)" opacity="1"><rect class="elkport" x="0" y="0" width="16" height="9" /><text id="sprotty_58" class="elklabel" transform="translate(-1, 10) translate(0, 0)" opacity="1">replicas</text></g><g id="sprotty_60" transform="translate(-16, 1130)" opacity="1"><rect class="elkport" x="0" y="0" width="16" height="9" /><text id="sprotty_61" class="elklabel" transform="translate(-1, 10) translate(0, 0)" opacity="1">resources</text></g><g id="sprotty_63" transform="translate(-16, 1962)" opacity="1"><rect class="elkport" x="0" y="0" width="16" height="9" /><text id="sprotty_64" class="elklabel" transform="translate(-1, 10) translate(0, 0)" opacity="1">set_nonroot_user</text></g><g id="sprotty_66" transform="translate(-16, 110)" opacity="1"><rect class="elkport" x="0" y="0" width="16" height="9" /><text id="sprotty_67" class="elklabel" transform="translate(-1, 10) translate(0, 0)" opacity="1">write_timeout</text></g><g id="sprotty_114" transform="translate(-16, 50)" opacity="1"><rect class="elkport" x="0" y="0" width="16" height="9" /><text id="sprotty_115" class="elklabel" transform="translate(-1, 10) translate(0, 0)" opacity="1">overrides</text></g><g id="sprotty_196" transform="translate(-16, 1376.5)" opacity="1"><rect class="elkport" x="0" y="0" width="16" height="9" /><text id="sprotty_197" class="elklabel" transform="translate(-1, 10) translate(0, 0)" opacity="1">name</text></g><g id="sprotty_199" transform="translate(-16, 1436.5)" opacity="1"><rect class="elkport" x="0" y="0" width="16" height="9" /><text id="sprotty_200" class="elklabel" transform="translate(-1, 10) translate(0, 0)" opacity="1">namespace</text></g><g id="sprotty_202" transform="translate(2768, 648.5714285714287)" opacity="1"><rect class="elkport" x="0" y="0" width="16" height="9" /><text id="sprotty_203" class="elklabel" transform="translate(17, 10) translate(0, 0)" opacity="1">deployment</text></g><g id="sprotty_205" transform="translate(2768, 768.5714285714287)" opacity="1"><rect class="elkport" x="0" y="0" width="16" height="9" /><text id="sprotty_206" class="elklabel" transform="translate(17, 10) translate(0, 0)" opacity="1">name</text></g><g id="sprotty_208" transform="translate(2768, 828.5714285714287)" opacity="1"><rect class="elkport" x="0" y="0" width="16" height="9" /><text id="sprotty_209" class="elklabel" transform="translate(17, 10) translate(0, 0)" opacity="1">service</text></g><g id="sprotty_211" transform="translate(2768, 1256.5)" opacity="1"><rect class="elkport" x="0" y="0" width="16" height="9" /><text id="sprotty_212" class="elklabel" transform="translate(17, 10) translate(0, 0)" opacity="1">service_account_name</text></g><text id="sprotty_4" class="elklabel" transform="translate(0, -21) translate(0, 0)" opacity="1">modules/openfaas/faas-netes</text><g id="sprotty_11" class="sprotty-edge" opacity="1"><path class="elkedge" d="M 1033,1261 L 1434,1261 L 1434,737.3571428571429 L 1584,737.3571428571429" /><path class="edge arrow" d="M 0,0 L 8,-3 L 8,3 Z" transform="rotate(180 1584 737.3571428571429) translate(1584 737.3571428571429)" /><g id="sprotty_11_j0" transform="translate(1434, 1261)" opacity="1"><circle class="elkjunction" r="2" /></g></g><g id="sprotty_14" class="sprotty-edge" opacity="1"><path class="elkedge" d="M 0,174.5 L 1484,174.5 L 1484,688.7857142857144 L 1584,688.7857142857143" /><path class="edge arrow" d="M 0,0 L 8,-3 L 8,3 Z" transform="rotate(179.99999999999994 1584 688.7857142857143) translate(1584 688.7857142857143)" /></g><g id="sprotty_17" class="sprotty-edge" opacity="1"><path class="elkedge" d="M 0,234.5 L 1434,234.5 L 1434,691.6428571428573 L 1584,691.6428571428572" /><path class="edge arrow" d="M 0,0 L 8,-3 L 8,3 Z" transform="rotate(179.99999999999997 1584 691.6428571428572) translate(1584 691.6428571428572)" /></g><g id="sprotty_20" class="sprotty-edge" opacity="1"><path class="elkedge" d="M 0,294.5 L 1384,294.5 L 1384,694.5 L 1584,694.5000000000001" /><path class="edge arrow" d="M 0,0 L 8,-3 L 8,3 Z" transform="rotate(-179.99999999999997 1584 694.5000000000001) translate(1584 694.5000000000001)" /></g><g id="sprotty_23" class="sprotty-edge" opacity="1"><path class="elkedge" d="M 0,354.5 L 1334,354.5 L 1334,697.3571428571429 L 1584,697.3571428571429" /><path class="edge arrow" d="M 0,0 L 8,-3 L 8,3 Z" transform="rotate(180 1584 697.3571428571429) translate(1584 697.3571428571429)" /></g><g id="sprotty_26" class="sprotty-edge" opacity="1"><path class="elkedge" d="M 0,414.5 L 1284,414.5 L 1284,700.2142857142858 L 1584,700.2142857142858" /><path class="edge arrow" d="M 0,0 L 8,-3 L 8,3 Z" transform="rotate(180 1584 700.2142857142858) translate(1584 700.2142857142858)" /></g><g id="sprotty_29" class="sprotty-edge" opacity="1"><path class="elkedge" d="M 0,474.5 L 1234,474.5 L 1234,703.0714285714287 L 1584,703.0714285714287" /><path class="edge arrow" d="M 0,0 L 8,-3 L 8,3 Z" transform="rotate(180 1584 703.0714285714287) translate(1584 703.0714285714287)" /></g><g id="sprotty_32" class="sprotty-edge" opacity="1"><path class="elkedge" d="M 0,534.5 L 1184,534.5 L 1184,705.9285714285716 L 1584,705.9285714285716" /><path class="edge arrow" d="M 0,0 L 8,-3 L 8,3 Z" transform="rotate(180 1584 705.9285714285716) translate(1584 705.9285714285716)" /></g><g id="sprotty_35" class="sprotty-edge" opacity="1"><path class="elkedge" d="M 0,594.5 L 1134,594.5 L 1134,708.7857142857144 L 1584,708.7857142857143" /><path class="edge arrow" d="M 0,0 L 8,-3 L 8,3 Z" transform="rotate(180 1584 708.7857142857143) translate(1584 708.7857142857143)" /></g><g id="sprotty_38" class="sprotty-edge" opacity="1"><path class="elkedge" d="M 0,654.5 L 1084,654.5 L 1084,711.6428571428571 L 1584,711.6428571428572" /><path class="edge arrow" d="M 0,0 L 8,-3 L 8,3 Z" transform="rotate(-180 1584 711.6428571428572) translate(1584 711.6428571428572)" /></g><g id="sprotty_41" class="sprotty-edge" opacity="1"><path class="elkedge" d="M 0,714.5 L 1584,714.5000000000001" /><path class="edge arrow" d="M 0,0 L 8,-3 L 8,3 Z" transform="rotate(-180 1584 714.5000000000001) translate(1584 714.5000000000001)" /></g><g id="sprotty_44" class="sprotty-edge" opacity="1"><path class="elkedge" d="M 0,774.5 L 1084,774.5 L 1084,717.3571428571429 L 1584,717.3571428571429" /><path class="edge arrow" d="M 0,0 L 8,-3 L 8,3 Z" transform="rotate(180 1584 717.3571428571429) translate(1584 717.3571428571429)" /></g><g id="sprotty_47" class="sprotty-edge" opacity="1"><path class="elkedge" d="M 0,834.5 L 1134,834.5 L 1134,720.2142857142858 L 1584,720.2142857142858" /><path class="edge arrow" d="M 0,0 L 8,-3 L 8,3 Z" transform="rotate(180 1584 720.2142857142858) translate(1584 720.2142857142858)" /></g><g id="sprotty_50" class="sprotty-edge" opacity="1"><path class="elkedge" d="M 0,894.5 L 1184,894.5 L 1184,723.0714285714287 L 1584,723.0714285714287" /><path class="edge arrow" d="M 0,0 L 8,-3 L 8,3 Z" transform="rotate(180 1584 723.0714285714287) translate(1584 723.0714285714287)" /></g><g id="sprotty_53" class="sprotty-edge" opacity="1"><path class="elkedge" d="M 0,954.5 L 1234,954.5 L 1234,725.9285714285716 L 1584,725.9285714285714" /><path class="edge arrow" d="M 0,0 L 8,-3 L 8,3 Z" transform="rotate(180 1584 725.9285714285714) translate(1584 725.9285714285714)" /></g><g id="sprotty_56" class="sprotty-edge" opacity="1"><path class="elkedge" d="M 0,1014.5 L 1284,1014.5 L 1284,728.7857142857142 L 1584,728.7857142857143" /><path class="edge arrow" d="M 0,0 L 8,-3 L 8,3 Z" transform="rotate(-179.99999999999997 1584 728.7857142857143) translate(1584 728.7857142857143)" /></g><g id="sprotty_59" class="sprotty-edge" opacity="1"><path class="elkedge" d="M 0,1074.5 L 1334,1074.5 L 1334,731.6428571428571 L 1584,731.6428571428572" /><path class="edge arrow" d="M 0,0 L 8,-3 L 8,3 Z" transform="rotate(-179.99999999999997 1584 731.6428571428572) translate(1584 731.6428571428572)" /></g><g id="sprotty_62" class="sprotty-edge" opacity="1"><path class="elkedge" d="M 0,1134.5 L 1384,1134.5 L 1384,734.5 L 1584,734.5" /><path class="edge arrow" d="M 0,0 L 8,-3 L 8,3 Z" transform="rotate(180 1584 734.5) translate(1584 734.5)" /></g><g id="sprotty_65" class="sprotty-edge" opacity="1"><path class="elkedge" d="M 0,1966.5 L 1484,1966.5 L 1484,740.2142857142858 L 1584,740.2142857142858" /><path class="edge arrow" d="M 0,0 L 8,-3 L 8,3 Z" transform="rotate(180 1584 740.2142857142858) translate(1584 740.2142857142858)" /></g><g id="sprotty_68" class="sprotty-edge" opacity="1"><path class="elkedge" d="M 0,114.5 L 1534,114.5 L 1534,685.9285714285716 L 1584,685.9285714285716" /><path class="edge arrow" d="M 0,0 L 8,-3 L 8,3 Z" transform="rotate(180 1584 685.9285714285716) translate(1584 685.9285714285716)" /></g><g id="sprotty_75" class="sprotty-edge" opacity="1"><path class="elkedge" d="M 2351,678.5714285714287 L 2301,678.5714285714287" /><path class="edge arrow" d="M 0,0 L 8,-3 L 8,3 Z" transform="rotate(0 2301 678.5714285714287) translate(2301 678.5714285714287)" /></g><g id="sprotty_80" class="sprotty-edge" opacity="1"><path class="elkedge" d="M 2351,788.5714285714287 L 2301,788.5714285714287" /><path class="edge arrow" d="M 0,0 L 8,-3 L 8,3 Z" transform="rotate(0 2301 788.5714285714287) translate(2301 788.5714285714287)" /></g><g id="sprotty_83" class="sprotty-edge" opacity="1"><path class="elkedge" d="M 1999.9077490774907,657.5714285714287 L 2154.9483394833946,758.5714285714287" /><path class="edge arrow" d="M 0,0 L 8,-3 L 8,3 Z" transform="rotate(-146.91807712723488 2154.9483394833946 758.5714285714287) translate(2154.9483394833946 758.5714285714287)" /></g><g id="sprotty_86" class="sprotty-edge" opacity="1"><path class="elkedge" d="M 2235.090909090909,868.5714285714287 L 2416.909090909091,708.5714285714287" /><path class="edge arrow" d="M 0,0 L 8,-3 L 8,3 Z" transform="rotate(138.65222278030637 2416.909090909091 708.5714285714287) translate(2416.909090909091 708.5714285714287)" /></g><g id="sprotty_89" class="sprotty-edge" opacity="1"><path class="elkedge" d="M 2451,868.5714285714287 L 2451,708.5714285714287" /><path class="edge arrow" d="M 0,0 L 8,-3 L 8,3 Z" transform="rotate(90 2451 708.5714285714287) translate(2451 708.5714285714287)" /></g><g id="sprotty_92" class="sprotty-edge" opacity="1"><path class="elkedge" d="M 2235.090909090909,978.5714285714287 L 2416.909090909091,818.5714285714287" /><path class="edge arrow" d="M 0,0 L 8,-3 L 8,3 Z" transform="rotate(138.65222278030637 2416.909090909091 818.5714285714287) translate(2416.909090909091 818.5714285714287)" /></g><g id="sprotty_95" class="sprotty-edge" opacity="1"><path class="elkedge" d="M 1996.1675126903554,717.5714285714287 L 2179.8832487309646,978.5714285714287" /><path class="edge arrow" d="M 0,0 L 8,-3 L 8,3 Z" transform="rotate(-125.14139675071027 2179.8832487309646 978.5714285714287) translate(2179.8832487309646 978.5714285714287)" /></g><g id="sprotty_96" class="sprotty-edge" opacity="1"><path class="elkedge" d="M 1998.045822102426,717.5714285714287 L 2167.3611859838275,868.5714285714287" /><path class="edge arrow" d="M 0,0 L 8,-3 L 8,3 Z" transform="rotate(-138.27256122803203 2167.3611859838275 868.5714285714287) translate(2167.3611859838275 868.5714285714287)" /></g><g id="sprotty_99" class="sprotty-edge" opacity="1"><path class="elkedge" d="M 2000.4581673306773,777.5714285714287 L 2151.2788844621514,868.5714285714287" /><path class="edge arrow" d="M 0,0 L 8,-3 L 8,3 Z" transform="rotate(-148.89467282183267 2151.2788844621514 868.5714285714287) translate(2151.2788844621514 868.5714285714287)" /></g><g id="sprotty_100" class="sprotty-edge" opacity="1"><path class="elkedge" d="M 2269.181818181818,978.5714285714287 L 2382.818181818182,928.5714285714287" /><path class="edge arrow" d="M 0,0 L 8,-3 L 8,3 Z" transform="rotate(156.2505055071333 2382.818181818182 928.5714285714287) translate(2382.818181818182 928.5714285714287)" /></g><g id="sprotty_103" class="sprotty-edge" opacity="1"><path class="elkedge" d="M 2301,673.003742981909 L 2651,653.5168434185903" /><path class="edge arrow" d="M 0,0 L 8,-3 L 8,3 Z" transform="rotate(176.81324131380964 2651 653.5168434185903) translate(2651 653.5168434185903)" /></g><g id="sprotty_106" class="sprotty-edge" opacity="1"><path class="elkedge" d="M 2247.497461928934,978.5714285714287 L 2652.02538071066,717.5714285714287" /><path class="edge arrow" d="M 0,0 L 8,-3 L 8,3 Z" transform="rotate(147.1700335074859 2652.02538071066 717.5714285714287) translate(2652.02538071066 717.5714285714287)" /></g><g id="sprotty_109" class="sprotty-edge" opacity="1"><path class="elkedge" d="M 2301,699.2046163443545 L 2651,771.4207735495946" /><path class="edge arrow" d="M 0,0 L 8,-3 L 8,3 Z" transform="rotate(-168.34165965728076 2651 771.4207735495946) translate(2651 771.4207735495946)" /></g><g id="sprotty_112" class="sprotty-edge" opacity="1"><path class="elkedge" d="M 2301,798.2875857766688 L 2651,832.2941359950095" /><path class="edge arrow" d="M 0,0 L 8,-3 L 8,3 Z" transform="rotate(-174.45047144714007 2651 832.2941359950095) translate(2651 832.2941359950095)" /></g><g id="sprotty_113" class="sprotty-edge" opacity="1"><path class="elkedge" d="M 1784,713.0714285714287 L 1985,713.0714285714287" /><path class="edge arrow" d="M 0,0 L 8,-3 L 8,3 Z" transform="rotate(180 1985 713.0714285714287) translate(1985 713.0714285714287)" /></g><g id="sprotty_116" class="sprotty-edge" opacity="1"><path class="elkedge" d="M 0,54.5 L 1834,54.5 L 1834,713.0714285714287 L 1985,713.0714285714287" /><path class="edge arrow" d="M 0,0 L 8,-3 L 8,3 Z" transform="rotate(180 1985 713.0714285714287) translate(1985 713.0714285714287)" /><g id="sprotty_116_j0" transform="translate(1834, 713.0714285714287)" opacity="1"><circle class="elkjunction" r="2" /></g></g><g id="sprotty_121" class="sprotty-edge" opacity="1"><path class="elkedge" d="M 467,1286.5 L 417,1286.5" /><path class="edge arrow" d="M 0,0 L 8,-3 L 8,3 Z" transform="rotate(0 417 1286.5) translate(417 1286.5)" /></g><g id="sprotty_126" class="sprotty-edge" opacity="1"><path class="elkedge" d="M 417,1374.5 L 717,1308.5" /><path class="edge arrow" d="M 0,0 L 8,-3 L 8,3 Z" transform="rotate(167.59258147259925 717 1308.5) translate(717 1308.5)" /></g><g id="sprotty_131" class="sprotty-edge" opacity="1"><path class="elkedge" d="M 717,1396.5 L 667,1396.5" /><path class="edge arrow" d="M 0,0 L 8,-3 L 8,3 Z" transform="rotate(0 667 1396.5) translate(667 1396.5)" /></g><g id="sprotty_134" class="sprotty-edge" opacity="1"><path class="elkedge" d="M 117,1263.3668122270742 L 467,1366.914847161572" /><path class="edge arrow" d="M 0,0 L 8,-3 L 8,3 Z" transform="rotate(-163.5190681178552 467 1366.914847161572) translate(467 1366.914847161572)" /></g><g id="sprotty_139" class="sprotty-edge" opacity="1"><path class="elkedge" d="M 467,1506.5 L 417,1506.5" /><path class="edge arrow" d="M 0,0 L 8,-3 L 8,3 Z" transform="rotate(0 417 1506.5) translate(417 1506.5)" /></g><g id="sprotty_144" class="sprotty-edge" opacity="1"><path class="elkedge" d="M 417,1594.5 L 717,1528.5" /><path class="edge arrow" d="M 0,0 L 8,-3 L 8,3 Z" transform="rotate(167.59258147259925 717 1528.5) translate(717 1528.5)" /></g><g id="sprotty_147" class="sprotty-edge" opacity="1"><path class="elkedge" d="M 117,1323.09604519774 L 717,1480.2994350282486" /><path class="edge arrow" d="M 0,0 L 8,-3 L 8,3 Z" transform="rotate(-165.31819760293897 717 1480.2994350282486) translate(717 1480.2994350282486)" /></g><g id="sprotty_152" class="sprotty-edge" opacity="1"><path class="elkedge" d="M 117,1385.113537117904 L 508.656050955414,1586.5" /><path class="edge arrow" d="M 0,0 L 8,-3 L 8,3 Z" transform="rotate(-152.78812859608504 508.656050955414 1586.5) translate(508.656050955414 1586.5)" /></g><g id="sprotty_155" class="sprotty-edge" opacity="1"><path class="elkedge" d="M 117,1444.0655021834061 L 488.70940170940173,1586.5" /><path class="edge arrow" d="M 0,0 L 8,-3 L 8,3 Z" transform="rotate(-159.03377842411962 488.70940170940173 1586.5) translate(488.70940170940173 1586.5)" /></g><g id="sprotty_158" class="sprotty-edge" opacity="1"><path class="elkedge" d="M 667,1616.5 L 717,1616.5" /><path class="edge arrow" d="M 0,0 L 8,-3 L 8,3 Z" transform="rotate(180 717 1616.5) translate(717 1616.5)" /></g><g id="sprotty_161" class="sprotty-edge" opacity="1"><path class="elkedge" d="M 111.01074113856069,1265.5 L 303.5950590762621,1696.5" /><path class="edge arrow" d="M 0,0 L 8,-3 L 8,3 Z" transform="rotate(-114.0765897487924 303.5950590762621 1696.5) translate(303.5950590762621 1696.5)" /></g><g id="sprotty_164" class="sprotty-edge" opacity="1"><path class="elkedge" d="M 567,1696.5 L 567,1316.5" /><path class="edge arrow" d="M 0,0 L 8,-3 L 8,3 Z" transform="rotate(90 567 1316.5) translate(567 1316.5)" /></g><g id="sprotty_167" class="sprotty-edge" opacity="1"><path class="elkedge" d="M 117,1497.2532751091703 L 502.94405594405595,1316.5" /><path class="edge arrow" d="M 0,0 L 8,-3 L 8,3 Z" transform="rotate(154.90439887692173 502.94405594405595 1316.5) translate(502.94405594405595 1316.5)" /></g><g id="sprotty_168" class="sprotty-edge" opacity="1"><path class="elkedge" d="M 817,1586.5 L 817,1426.5" /><path class="edge arrow" d="M 0,0 L 8,-3 L 8,3 Z" transform="rotate(90 817 1426.5) translate(817 1426.5)" /></g><g id="sprotty_171" class="sprotty-edge" opacity="1"><path class="elkedge" d="M 817,1696.5 L 817,1426.5" /><path class="edge arrow" d="M 0,0 L 8,-3 L 8,3 Z" transform="rotate(90 817 1426.5) translate(817 1426.5)" /></g><g id="sprotty_172" class="sprotty-edge" opacity="1"><path class="elkedge" d="M 532.909090909091,1586.5 L 351.0909090909091,1426.5" /><path class="edge arrow" d="M 0,0 L 8,-3 L 8,3 Z" transform="rotate(41.34777721969366 351.0909090909091 1426.5) translate(351.0909090909091 1426.5)" /></g><g id="sprotty_173" class="sprotty-edge" opacity="1"><path class="elkedge" d="M 317,1696.5 L 317,1426.5" /><path class="edge arrow" d="M 0,0 L 8,-3 L 8,3 Z" transform="rotate(90 317 1426.5) translate(317 1426.5)" /></g><g id="sprotty_174" class="sprotty-edge" opacity="1"><path class="elkedge" d="M 117,1496.9807692307693 L 257.2870813397129,1426.5" /><path class="edge arrow" d="M 0,0 L 8,-3 L 8,3 Z" transform="rotate(153.3248706115522 257.2870813397129 1426.5) translate(257.2870813397129 1426.5)" /></g><g id="sprotty_177" class="sprotty-edge" opacity="1"><path class="elkedge" d="M 317,1806.5 L 317,1646.5" /><path class="edge arrow" d="M 0,0 L 8,-3 L 8,3 Z" transform="rotate(90 317 1646.5) translate(317 1646.5)" /></g><g id="sprotty_178" class="sprotty-edge" opacity="1"><path class="elkedge" d="M 717,1704.5 L 417,1638.5" /><path class="edge arrow" d="M 0,0 L 8,-3 L 8,3 Z" transform="rotate(12.407418527400743 417 1638.5) translate(417 1638.5)" /></g><g id="sprotty_179" class="sprotty-edge" opacity="1"><path class="elkedge" d="M 567,1696.5 L 567,1536.5" /><path class="edge arrow" d="M 0,0 L 8,-3 L 8,3 Z" transform="rotate(90 567 1536.5) translate(567 1536.5)" /></g><g id="sprotty_182" class="sprotty-edge" opacity="1"><path class="elkedge" d="M 567,1806.5 L 567,1536.5" /><path class="edge arrow" d="M 0,0 L 8,-3 L 8,3 Z" transform="rotate(90 567 1536.5) translate(567 1536.5)" /></g><g id="sprotty_183" class="sprotty-edge" opacity="1"><path class="elkedge" d="M 117,1501.0960698689955 L 467,1505.2991266375545" /><path class="edge arrow" d="M 0,0 L 8,-3 L 8,3 Z" transform="rotate(-179.3119833176395 467 1505.2991266375545) translate(467 1505.2991266375545)" /></g><g id="sprotty_186" class="sprotty-edge" opacity="1"><path class="elkedge" d="M 115.99451152579583,1385.5 L 770.3699231613612,1806.5" /><path class="edge arrow" d="M 0,0 L 8,-3 L 8,3 Z" transform="rotate(-147.24432774527776 770.3699231613612 1806.5) translate(770.3699231613612 1806.5)" /></g><g id="sprotty_187" class="sprotty-edge" opacity="1"><path class="elkedge" d="M 748.8181818181819,1806.5 L 635.1818181818181,1756.5" /><path class="edge arrow" d="M 0,0 L 8,-3 L 8,3 Z" transform="rotate(23.74949449286674 635.1818181818181 1756.5) translate(635.1818181818181 1756.5)" /></g><g id="sprotty_188" class="sprotty-edge" opacity="1"><path class="elkedge" d="M 116.21891418563924,1445.5 L 518.8739054290718,1696.5" /><path class="edge arrow" d="M 0,0 L 8,-3 L 8,3 Z" transform="rotate(-148.0621360923082 518.8739054290718 1696.5) translate(518.8739054290718 1696.5)" /></g><g id="sprotty_189" class="sprotty-edge" opacity="1"><path class="elkedge" d="M 111.05488474204171,1385.5 L 303.3007683863886,1806.5" /><path class="edge arrow" d="M 0,0 L 8,-3 L 8,3 Z" transform="rotate(-114.54338541936511 303.3007683863886 1806.5) translate(303.3007683863886 1806.5)" /></g><g id="sprotty_190" class="sprotty-edge" opacity="1"><path class="elkedge" d="M 112.9980601357905,1325.5 L 540.3462657613967,1806.5" /><path class="edge arrow" d="M 0,0 L 8,-3 L 8,3 Z" transform="rotate(-131.61973894434882 540.3462657613967 1806.5) translate(540.3462657613967 1806.5)" /></g><g id="sprotty_191" class="sprotty-edge" opacity="1"><path class="elkedge" d="M 351.0909090909091,1316.5 L 782.9090909090909,1696.5" /><path class="edge arrow" d="M 0,0 L 8,-3 L 8,3 Z" transform="rotate(-138.65222278030632 782.9090909090909 1696.5) translate(782.9090909090909 1696.5)" /></g><g id="sprotty_192" class="sprotty-edge" opacity="1"><path class="elkedge" d="M 417,1282.8983050847457 L 1017,1261.2881355932204" /><path class="edge arrow" d="M 0,0 L 8,-3 L 8,3 Z" transform="rotate(177.9372724518615 1017 1261.2881355932204) translate(1017 1261.2881355932204)" /></g><g id="sprotty_195" class="sprotty-edge" opacity="1"><path class="elkedge" d="M 417,1291.3728813559321 L 1017,1320.6101694915255" /><path class="edge arrow" d="M 0,0 L 8,-3 L 8,3 Z" transform="rotate(-177.21025132948532 1017 1320.6101694915255) translate(1017 1320.6101694915255)" /></g><g id="sprotty_198" class="sprotty-edge" opacity="1"><path class="elkedge" d="M 0,1381 L 101,1381" /><path class="edge arrow" d="M 0,0 L 8,-3 L 8,3 Z" transform="rotate(180 101 1381) translate(101 1381)" /></g><g id="sprotty_201" class="sprotty-edge" opacity="1"><path class="elkedge" d="M 0,1441 L 101,1441" /><path class="edge arrow" d="M 0,0 L 8,-3 L 8,3 Z" transform="rotate(180 101 1441) translate(101 1441)" /></g><g id="sprotty_204" class="sprotty-edge" opacity="1"><path class="elkedge" d="M 2667,653.0714285714287 L 2768,653.0714285714287" /><path class="edge arrow" d="M 0,0 L 8,-3 L 8,3 Z" transform="rotate(180 2768 653.0714285714287) translate(2768 653.0714285714287)" /></g><g id="sprotty_207" class="sprotty-edge" opacity="1"><path class="elkedge" d="M 2667,773.0714285714287 L 2768,773.0714285714287" /><path class="edge arrow" d="M 0,0 L 8,-3 L 8,3 Z" transform="rotate(180 2768 773.0714285714287) translate(2768 773.0714285714287)" /></g><g id="sprotty_210" class="sprotty-edge" opacity="1"><path class="elkedge" d="M 2667,833.0714285714287 L 2768,833.0714285714287" /><path class="edge arrow" d="M 0,0 L 8,-3 L 8,3 Z" transform="rotate(180 2768 833.0714285714287) translate(2768 833.0714285714287)" /></g><g id="sprotty_213" class="sprotty-edge" opacity="1"><path class="elkedge" d="M 1033,1261 L 2768,1261" /><path class="edge arrow" d="M 0,0 L 8,-3 L 8,3 Z" transform="rotate(180 2768 1261) translate(2768 1261)" /></g></g></g></svg>
