<svg id="sprotty_1" class="sprotty-graph sprotty" tabindex="1002" xmlns="http://www.w3.org/2000/svg" viewBox="0 0 3152 1988.2857142857142"><style>
.elknode {
    stroke: #448;
    stroke-width: 2;
    fill: #ddf;
    fill-opacity: 0.5;
}

.elkport {
    stroke: #448;
    stroke-width: 1;
    fill: #66c;
}

.elkedge {
    fill: none;
    stroke: #88f;
    stroke-width: 8;
    stroke-opacity: 0.3;
    pointer-events: stroke;
    stroke-linejoin: round;
}

.elkedge:hover {
    stroke: #448;
    stroke-width: 8;
    stroke-opacity: 1;
    stroke-dasharray: 16px;
    stroke-dashoffset: 32px;
    animation: stroke 0.5s linear infinite;
}

@keyframes stroke {
    to {
        stroke-dashoffset: 0;
    }
}

.elkedge.arrow {
    fill: #336;
}

.elklabel {
    stroke-width: 0;
    stroke: #000;
    fill: #000;
    font-family: sans-serif;
    font-size: 10pt;
    dominant-baseline: hanging;
}

.elklabel:hover {
    font-size: 24pt;
}

.elkjunction {
    stroke: none;
    fill: #224;
}

.selected &gt; rect {
    stroke-width: 3;
}

.mouseover {
    stroke: #88f;
}
/*
 * Copyright (C) 2017 TypeFox and others.
 *
 * Licensed under the Apache License, Version 2.0 (the &quot;License&quot;); you may not use this file except in compliance with the License.
 * You may obtain a copy of the License at http://www.apache.org/licenses/LICENSE-2.0
 */

.sprotty {
    padding: 0px;
    font-family: &quot;Helvetica Neue&quot;, Helvetica, Arial, sans-serif;
}

.sprotty-hidden {
    display: block;
    position: absolute;
    width: 0px;
    height: 0px;
}

.sprotty-popup {
    font-family: &quot;Helvetica Neue&quot;, Helvetica, Arial, sans-serif;
    position: absolute;
    background: white;
    border-radius: 5px;
    border: 1px solid;
    max-width: 400px;
    min-width: 100px;
}

.sprotty-popup &gt; div {
    margin: 10px;
}

.sprotty-popup-closed {
    display: none;
}
</style><g transform="scale(1) translate(0,0)"><g id="sprotty_3" transform="translate(117, 71)" opacity="1"><rect class="elknode" x="0" y="0" rx="10" width="2918" height="1867.2857142857142" /><g id="sprotty_5" transform="translate(442, 150.78571428571428)" opacity="1"><rect class="elknode" x="0" y="0" rx="10" width="200" height="60" /><text id="sprotty_6" class="elklabel" transform="translate(5, 22) translate(0, 0)" opacity="1">local.gitlab_omnibus_config</text></g><g id="sprotty_16" transform="translate(1834, 95.5)" opacity="1"><rect class="elknode" x="0" y="0" rx="10" width="200" height="60" /><text id="sprotty_17" class="elklabel" transform="translate(5, 22) translate(0, 0)" opacity="1">local.parameters</text></g><g id="sprotty_19" transform="translate(267, 331.7857142857143)" opacity="1"><rect class="elknode" x="0" y="0" rx="10" width="900" height="710" /><g id="sprotty_57" transform="translate(100, 50)" opacity="1"><rect class="elknode" x="0" y="0" rx="10" width="200" height="60" /><text id="sprotty_58" class="elklabel" transform="translate(5, 22) translate(0, 0)" opacity="1">k8s_core_v1_service_account.this</text></g><g id="sprotty_59" transform="translate(350, 50)" opacity="1"><rect class="elknode" x="0" y="0" rx="10" width="200" height="60" /><text id="sprotty_60" class="elklabel" transform="translate(5, 22) translate(0, 0)" opacity="1">local.k8s_core_v1_service_account_parameters</text></g><g id="sprotty_62" transform="translate(600, 50)" opacity="1"><rect class="elknode" x="0" y="0" rx="10" width="200" height="60" /><text id="sprotty_63" class="elklabel" transform="translate(5, 22) translate(0, 0)" opacity="1">k8s_rbac_authorization_k8s_io_v1_cluster_role.this</text></g><g id="sprotty_64" transform="translate(100, 160)" opacity="1"><rect class="elknode" x="0" y="0" rx="10" width="200" height="60" /><text id="sprotty_65" class="elklabel" transform="translate(5, 22) translate(0, 0)" opacity="1">local.k8s_rbac_authorization_k8s_io_v1_cluster_role_parameters</text></g><g id="sprotty_67" transform="translate(350, 160)" opacity="1"><rect class="elknode" x="0" y="0" rx="10" width="200" height="60" /><text id="sprotty_68" class="elklabel" transform="translate(5, 22) translate(0, 0)" opacity="1">k8s_rbac_authorization_k8s_io_v1_cluster_role_binding.this</text></g><g id="sprotty_69" transform="translate(600, 160)" opacity="1"><rect class="elknode" x="0" y="0" rx="10" width="200" height="60" /><text id="sprotty_70" class="elklabel" transform="translate(5, 22) translate(0, 0)" opacity="1">local.k8s_rbac_authorization_k8s_io_v1_cluster_role_binding_parameters</text></g><g id="sprotty_75" transform="translate(100, 270)" opacity="1"><rect class="elknode" x="0" y="0" rx="10" width="200" height="60" /><text id="sprotty_76" class="elklabel" transform="translate(5, 22) translate(0, 0)" opacity="1">k8s_rbac_authorization_k8s_io_v1_role.this</text></g><g id="sprotty_77" transform="translate(350, 270)" opacity="1"><rect class="elknode" x="0" y="0" rx="10" width="200" height="60" /><text id="sprotty_78" class="elklabel" transform="translate(5, 22) translate(0, 0)" opacity="1">local.k8s_rbac_authorization_k8s_io_v1_role_parameters</text></g><g id="sprotty_80" transform="translate(600, 270)" opacity="1"><rect class="elknode" x="0" y="0" rx="10" width="200" height="60" /><text id="sprotty_81" class="elklabel" transform="translate(5, 22) translate(0, 0)" opacity="1">k8s_rbac_authorization_k8s_io_v1_role_binding.this</text></g><g id="sprotty_82" transform="translate(100, 380)" opacity="1"><rect class="elknode" x="0" y="0" rx="10" width="200" height="60" /><text id="sprotty_83" class="elklabel" transform="translate(5, 22) translate(0, 0)" opacity="1">local.k8s_rbac_authorization_k8s_io_v1_role_binding_parameters</text></g><g id="sprotty_88" transform="translate(350, 380)" opacity="1"><rect class="elknode" x="0" y="0" rx="10" width="200" height="60" /><text id="sprotty_89" class="elklabel" transform="translate(5, 22) translate(0, 0)" opacity="1">local.cluster_role_parameters</text></g><g id="sprotty_96" transform="translate(600, 380)" opacity="1"><rect class="elknode" x="0" y="0" rx="10" width="200" height="60" /><text id="sprotty_97" class="elklabel" transform="translate(5, 22) translate(0, 0)" opacity="1">local.cluster_role_ref</text></g><g id="sprotty_99" transform="translate(100, 490)" opacity="1"><rect class="elknode" x="0" y="0" rx="10" width="200" height="60" /><text id="sprotty_100" class="elklabel" transform="translate(5, 22) translate(0, 0)" opacity="1">local.cluster_role_rules</text></g><g id="sprotty_102" transform="translate(350, 490)" opacity="1"><rect class="elknode" x="0" y="0" rx="10" width="200" height="60" /><text id="sprotty_103" class="elklabel" transform="translate(5, 22) translate(0, 0)" opacity="1">local.parameters</text></g><g id="sprotty_109" transform="translate(600, 490)" opacity="1"><rect class="elknode" x="0" y="0" rx="10" width="200" height="60" /><text id="sprotty_110" class="elklabel" transform="translate(5, 22) translate(0, 0)" opacity="1">local.subjects</text></g><g id="sprotty_115" transform="translate(100, 600)" opacity="1"><rect class="elknode" x="0" y="0" rx="10" width="200" height="60" /><text id="sprotty_116" class="elklabel" transform="translate(5, 22) translate(0, 0)" opacity="1">local.role_ref</text></g><g id="sprotty_120" transform="translate(350, 600)" opacity="1"><rect class="elknode" x="0" y="0" rx="10" width="200" height="60" /><text id="sprotty_121" class="elklabel" transform="translate(5, 22) translate(0, 0)" opacity="1">local.role_rules</text></g><g id="sprotty_124" transform="translate(600, 600)" opacity="1"><rect class="elknode" x="0" y="0" rx="10" width="200" height="60" /><text id="sprotty_125" class="elklabel" transform="translate(5, 22) translate(0, 0)" opacity="1">local.labels</text></g><g id="sprotty_21" transform="translate(900, 50)" opacity="1"><rect class="elkport" x="0" y="0" width="16" height="9" /><text id="sprotty_22" class="elklabel" transform="translate(17, -1) translate(0, 0)" opacity="1">service_account</text></g><g id="sprotty_72" transform="translate(-16, 50)" opacity="1"><rect class="elkport" x="0" y="0" width="16" height="9" /><text id="sprotty_73" class="elklabel" transform="translate(-1, 10) translate(0, 0)" opacity="1">cluster_role_rules</text></g><g id="sprotty_85" transform="translate(-16, 110)" opacity="1"><rect class="elkport" x="0" y="0" width="16" height="9" /><text id="sprotty_86" class="elklabel" transform="translate(-1, 10) translate(0, 0)" opacity="1">role_rules</text></g><g id="sprotty_90" transform="translate(-16, 170)" opacity="1"><rect class="elkport" x="0" y="0" width="16" height="9" /><text id="sprotty_91" class="elklabel" transform="translate(-1, 10) translate(0, 0)" opacity="1">name</text></g><g id="sprotty_93" transform="translate(-16, 230)" opacity="1"><rect class="elkport" x="0" y="0" width="16" height="9" /><text id="sprotty_94" class="elklabel" transform="translate(-1, 10) translate(0, 0)" opacity="1">namespace</text></g><g id="sprotty_105" transform="translate(-16, 290)" opacity="1"><rect class="elkport" x="0" y="0" width="16" height="9" /><text id="sprotty_106" class="elklabel" transform="translate(-1, 10) translate(0, 0)" opacity="1">overrides</text></g><g id="sprotty_132" transform="translate(900, 110)" opacity="1"><rect class="elkport" x="0" y="0" width="16" height="9" /><text id="sprotty_133" class="elklabel" transform="translate(17, 10) translate(0, 0)" opacity="1">name</text></g><text id="sprotty_20" class="elklabel" transform="translate(0, -21) translate(0, 0)" opacity="1">rbac</text></g><g id="sprotty_142" transform="translate(2251, 71)" opacity="1"><rect class="elknode" x="0" y="0" rx="10" width="400" height="710" /><g id="sprotty_144" transform="translate(100, 50)" opacity="1"><rect class="elknode" x="0" y="0" rx="10" width="200" height="60" /><text id="sprotty_145" class="elklabel" transform="translate(5, 22) translate(0, 0)" opacity="1">k8s_apps_v1_stateful_set.this</text></g><g id="sprotty_146" transform="translate(100, 160)" opacity="1"><rect class="elknode" x="0" y="0" rx="10" width="200" height="60" /><text id="sprotty_147" class="elklabel" transform="translate(5, 22) translate(0, 0)" opacity="1">local.k8s_apps_v1_stateful_set_parameters</text></g><g id="sprotty_149" transform="translate(100, 270)" opacity="1"><rect class="elknode" x="0" y="0" rx="10" width="200" height="60" /><text id="sprotty_150" class="elklabel" transform="translate(5, 22) translate(0, 0)" opacity="1">k8s_core_v1_service.this</text></g><g id="sprotty_151" transform="translate(100, 380)" opacity="1"><rect class="elknode" x="0" y="0" rx="10" width="200" height="60" /><text id="sprotty_152" class="elklabel" transform="translate(5, 22) translate(0, 0)" opacity="1">local.k8s_core_v1_service_parameters</text></g><g id="sprotty_154" transform="translate(100, 490)" opacity="1"><rect class="elknode" x="0" y="0" rx="10" width="200" height="60" /><text id="sprotty_155" class="elklabel" transform="translate(5, 22) translate(0, 0)" opacity="1">local.selector</text></g><g id="sprotty_157" transform="translate(100, 600)" opacity="1"><rect class="elknode" x="0" y="0" rx="10" width="200" height="60" /><text id="sprotty_158" class="elklabel" transform="translate(5, 22) translate(0, 0)" opacity="1">local.labels</text></g><g id="sprotty_160" transform="translate(-16, 50)" opacity="1"><rect class="elkport" x="0" y="0" width="16" height="9" /><text id="sprotty_161" class="elklabel" transform="translate(-1, 10) translate(0, 0)" opacity="1">parameters</text></g><g id="sprotty_164" transform="translate(400, 50)" opacity="1"><rect class="elkport" x="0" y="0" width="16" height="9" /><text id="sprotty_165" class="elklabel" transform="translate(17, 10) translate(0, 0)" opacity="1">labels</text></g><g id="sprotty_167" transform="translate(400, 110)" opacity="1"><rect class="elkport" x="0" y="0" width="16" height="9" /><text id="sprotty_168" class="elklabel" transform="translate(17, 10) translate(0, 0)" opacity="1">name</text></g><g id="sprotty_170" transform="translate(400, 170)" opacity="1"><rect class="elkport" x="0" y="0" width="16" height="9" /><text id="sprotty_171" class="elklabel" transform="translate(17, 10) translate(0, 0)" opacity="1">service</text></g><g id="sprotty_173" transform="translate(400, 230)" opacity="1"><rect class="elkport" x="0" y="0" width="16" height="9" /><text id="sprotty_174" class="elklabel" transform="translate(17, 10) translate(0, 0)" opacity="1">statefulset</text></g><text id="sprotty_143" class="elklabel" transform="translate(0, -21) translate(0, 0)" opacity="1">statefulset-service</text></g><g id="sprotty_7" transform="translate(-16, 281.2857142857143)" opacity="1"><rect class="elkport" x="0" y="0" width="16" height="9" /><text id="sprotty_8" class="elklabel" transform="translate(-1, 10) translate(0, 0)" opacity="1">gitlab_external_url</text></g><g id="sprotty_10" transform="translate(-16, 221.28571428571428)" opacity="1"><rect class="elkport" x="0" y="0" width="16" height="9" /><text id="sprotty_11" class="elklabel" transform="translate(-1, 10) translate(0, 0)" opacity="1">mattermost_external_url</text></g><g id="sprotty_13" transform="translate(-16, 161.28571428571428)" opacity="1"><rect class="elkport" x="0" y="0" width="16" height="9" /><text id="sprotty_14" class="elklabel" transform="translate(-1, 10) translate(0, 0)" opacity="1">registry_external_url</text></g><g id="sprotty_24" transform="translate(-16, 1087.2857142857142)" opacity="1"><rect class="elkport" x="0" y="0" width="16" height="9" /><text id="sprotty_25" class="elklabel" transform="translate(-1, 10) translate(0, 0)" opacity="1">annotations</text></g><g id="sprotty_27" transform="translate(-16, 1147.2857142857142)" opacity="1"><rect class="elkport" x="0" y="0" width="16" height="9" /><text id="sprotty_28" class="elklabel" transform="translate(-1, 10) translate(0, 0)" opacity="1">auto_devops_domain</text></g><g id="sprotty_30" transform="translate(-16, 1207.2857142857142)" opacity="1"><rect class="elkport" x="0" y="0" width="16" height="9" /><text id="sprotty_31" class="elklabel" transform="translate(-1, 10) translate(0, 0)" opacity="1">env</text></g><g id="sprotty_33" transform="translate(-16, 1267.2857142857142)" opacity="1"><rect class="elkport" x="0" y="0" width="16" height="9" /><text id="sprotty_34" class="elklabel" transform="translate(-1, 10) translate(0, 0)" opacity="1">gitlab_root_password</text></g><g id="sprotty_36" transform="translate(-16, 1327.2857142857142)" opacity="1"><rect class="elkport" x="0" y="0" width="16" height="9" /><text id="sprotty_37" class="elklabel" transform="translate(-1, 10) translate(0, 0)" opacity="1">gitlab_runners_registration_token</text></g><g id="sprotty_39" transform="translate(-16, 1387.2857142857142)" opacity="1"><rect class="elkport" x="0" y="0" width="16" height="9" /><text id="sprotty_40" class="elklabel" transform="translate(-1, 10) translate(0, 0)" opacity="1">image</text></g><g id="sprotty_42" transform="translate(-16, 1447.2857142857142)" opacity="1"><rect class="elkport" x="0" y="0" width="16" height="9" /><text id="sprotty_43" class="elklabel" transform="translate(-1, 10) translate(0, 0)" opacity="1">ports</text></g><g id="sprotty_45" transform="translate(-16, 1507.2857142857142)" opacity="1"><rect class="elkport" x="0" y="0" width="16" height="9" /><text id="sprotty_46" class="elklabel" transform="translate(-1, 10) translate(0, 0)" opacity="1">replicas</text></g><g id="sprotty_48" transform="translate(-16, 1567.2857142857142)" opacity="1"><rect class="elkport" x="0" y="0" width="16" height="9" /><text id="sprotty_49" class="elklabel" transform="translate(-1, 10) translate(0, 0)" opacity="1">storage</text></g><g id="sprotty_51" transform="translate(-16, 1627.2857142857142)" opacity="1"><rect class="elkport" x="0" y="0" width="16" height="9" /><text id="sprotty_52" class="elklabel" transform="translate(-1, 10) translate(0, 0)" opacity="1">storage_class_name</text></g><g id="sprotty_54" transform="translate(-16, 95.28571428571428)" opacity="1"><rect class="elkport" x="0" y="0" width="16" height="9" /><text id="sprotty_55" class="elklabel" transform="translate(-1, 10) translate(0, 0)" opacity="1">volume_claim_template_name</text></g><g id="sprotty_136" transform="translate(-16, 501.7857142857143)" opacity="1"><rect class="elkport" x="0" y="0" width="16" height="9" /><text id="sprotty_137" class="elklabel" transform="translate(-1, 10) translate(0, 0)" opacity="1">name</text></g><g id="sprotty_139" transform="translate(-16, 561.7857142857142)" opacity="1"><rect class="elkport" x="0" y="0" width="16" height="9" /><text id="sprotty_140" class="elklabel" transform="translate(-1, 10) translate(0, 0)" opacity="1">namespace</text></g><g id="sprotty_177" transform="translate(-16, 1687.2857142857142)" opacity="1"><rect class="elkport" x="0" y="0" width="16" height="9" /><text id="sprotty_178" class="elklabel" transform="translate(-1, 10) translate(0, 0)" opacity="1">overrides</text></g><g id="sprotty_180" transform="translate(2918, 1747.2857142857142)" opacity="1"><rect class="elkport" x="0" y="0" width="16" height="9" /><text id="sprotty_181" class="elklabel" transform="translate(17, 10) translate(0, 0)" opacity="1">gitlab_external_url</text></g><g id="sprotty_183" transform="translate(2918, 1807.2857142857142)" opacity="1"><rect class="elkport" x="0" y="0" width="16" height="9" /><text id="sprotty_184" class="elklabel" transform="translate(17, 10) translate(0, 0)" opacity="1">gitlab_runners_registration_token</text></g><g id="sprotty_186" transform="translate(2918, 181)" opacity="1"><rect class="elkport" x="0" y="0" width="16" height="9" /><text id="sprotty_187" class="elklabel" transform="translate(17, 10) translate(0, 0)" opacity="1">name</text></g><g id="sprotty_189" transform="translate(2918, 241)" opacity="1"><rect class="elkport" x="0" y="0" width="16" height="9" /><text id="sprotty_190" class="elklabel" transform="translate(17, 10) translate(0, 0)" opacity="1">port</text></g><g id="sprotty_192" transform="translate(2918, 301)" opacity="1"><rect class="elkport" x="0" y="0" width="16" height="9" /><text id="sprotty_193" class="elklabel" transform="translate(17, 10) translate(0, 0)" opacity="1">service</text></g><g id="sprotty_195" transform="translate(2918, 361)" opacity="1"><rect class="elkport" x="0" y="0" width="16" height="9" /><text id="sprotty_196" class="elklabel" transform="translate(17, 10) translate(0, 0)" opacity="1">statefulset</text></g><text id="sprotty_4" class="elklabel" transform="translate(0, -21) translate(0, 0)" opacity="1">modules/modules/gitlab</text><g id="sprotty_9" class="sprotty-edge" opacity="1"><path class="elkedge" d="M 0,285.7857142857143 L 200,285.7857142857143 L 200,195.78571428571428 L 442,195.78571428571428" /><path class="edge arrow" d="M 0,0 L 8,-3 L 8,3 Z" transform="rotate(180 442 195.78571428571428) translate(442 195.78571428571428)" /></g><g id="sprotty_12" class="sprotty-edge" opacity="1"><path class="elkedge" d="M 0,225.78571428571428 L 150,225.78571428571428 L 150,180.78571428571428 L 442,180.78571428571428" /><path class="edge arrow" d="M 0,0 L 8,-3 L 8,3 Z" transform="rotate(180 442 180.78571428571428) translate(442 180.78571428571428)" /></g><g id="sprotty_15" class="sprotty-edge" opacity="1"><path class="elkedge" d="M 0,165.78571428571428 L 442,165.78571428571428" /><path class="edge arrow" d="M 0,0 L 8,-3 L 8,3 Z" transform="rotate(180 442 165.78571428571428) translate(442 165.78571428571428)" /></g><g id="sprotty_18" class="sprotty-edge" opacity="1"><path class="elkedge" d="M 642,180.78571428571428 L 1234,180.78571428571428 L 1234,104.07142857142857 L 1834,104.07142857142857" /><path class="edge arrow" d="M 0,0 L 8,-3 L 8,3 Z" transform="rotate(180 1834 104.07142857142857) translate(1834 104.07142857142857)" /></g><g id="sprotty_23" class="sprotty-edge" opacity="1"><path class="elkedge" d="M 1183,386.2857142857143 L 1284,386.2857142857143 L 1284,108.35714285714286 L 1834,108.35714285714286" /><path class="edge arrow" d="M 0,0 L 8,-3 L 8,3 Z" transform="rotate(180 1834 108.35714285714286) translate(1834 108.35714285714286)" /></g><g id="sprotty_26" class="sprotty-edge" opacity="1"><path class="elkedge" d="M 0,1091.7857142857142 L 1334,1091.7857142857142 L 1334,112.64285714285714 L 1834,112.64285714285714" /><path class="edge arrow" d="M 0,0 L 8,-3 L 8,3 Z" transform="rotate(180 1834 112.64285714285714) translate(1834 112.64285714285714)" /></g><g id="sprotty_29" class="sprotty-edge" opacity="1"><path class="elkedge" d="M 0,1151.7857142857142 L 1384,1151.7857142857142 L 1384,116.92857142857142 L 1834,116.92857142857142" /><path class="edge arrow" d="M 0,0 L 8,-3 L 8,3 Z" transform="rotate(180 1834 116.92857142857142) translate(1834 116.92857142857142)" /></g><g id="sprotty_32" class="sprotty-edge" opacity="1"><path class="elkedge" d="M 0,1211.7857142857142 L 1434,1211.7857142857142 L 1434,121.21428571428571 L 1834,121.21428571428571" /><path class="edge arrow" d="M 0,0 L 8,-3 L 8,3 Z" transform="rotate(180 1834 121.21428571428571) translate(1834 121.21428571428571)" /></g><g id="sprotty_35" class="sprotty-edge" opacity="1"><path class="elkedge" d="M 0,1271.7857142857142 L 1484,1271.7857142857142 L 1484,125.5 L 1834,125.5" /><path class="edge arrow" d="M 0,0 L 8,-3 L 8,3 Z" transform="rotate(180 1834 125.5) translate(1834 125.5)" /></g><g id="sprotty_38" class="sprotty-edge" opacity="1"><path class="elkedge" d="M 0,1331.7857142857142 L 1534,1331.7857142857142 L 1534,129.78571428571428 L 1834,129.78571428571428" /><path class="edge arrow" d="M 0,0 L 8,-3 L 8,3 Z" transform="rotate(180 1834 129.78571428571428) translate(1834 129.78571428571428)" /></g><g id="sprotty_41" class="sprotty-edge" opacity="1"><path class="elkedge" d="M 0,1391.7857142857142 L 1584,1391.7857142857142 L 1584,134.07142857142856 L 1834,134.07142857142856" /><path class="edge arrow" d="M 0,0 L 8,-3 L 8,3 Z" transform="rotate(180 1834 134.07142857142856) translate(1834 134.07142857142856)" /></g><g id="sprotty_44" class="sprotty-edge" opacity="1"><path class="elkedge" d="M 0,1451.7857142857142 L 1634,1451.7857142857142 L 1634,138.35714285714283 L 1834,138.35714285714283" /><path class="edge arrow" d="M 0,0 L 8,-3 L 8,3 Z" transform="rotate(180 1834 138.35714285714283) translate(1834 138.35714285714283)" /></g><g id="sprotty_47" class="sprotty-edge" opacity="1"><path class="elkedge" d="M 0,1511.7857142857142 L 1684,1511.7857142857142 L 1684,142.64285714285714 L 1834,142.64285714285714" /><path class="edge arrow" d="M 0,0 L 8,-3 L 8,3 Z" transform="rotate(180 1834 142.64285714285714) translate(1834 142.64285714285714)" /></g><g id="sprotty_50" class="sprotty-edge" opacity="1"><path class="elkedge" d="M 0,1571.7857142857142 L 1734,1571.7857142857142 L 1734,146.92857142857142 L 1834,146.92857142857142" /><path class="edge arrow" d="M 0,0 L 8,-3 L 8,3 Z" transform="rotate(180 1834 146.92857142857142) translate(1834 146.92857142857142)" /></g><g id="sprotty_53" class="sprotty-edge" opacity="1"><path class="elkedge" d="M 0,1631.7857142857142 L 1784,1631.7857142857142 L 1784,151.2142857142857 L 1834,151.2142857142857" /><path class="edge arrow" d="M 0,0 L 8,-3 L 8,3 Z" transform="rotate(180 1834 151.2142857142857) translate(1834 151.2142857142857)" /></g><g id="sprotty_56" class="sprotty-edge" opacity="1"><path class="elkedge" d="M 0,99.78571428571428 L 1834,99.78571428571428" /><path class="edge arrow" d="M 0,0 L 8,-3 L 8,3 Z" transform="rotate(180 1834 99.78571428571428) translate(1834 99.78571428571428)" /></g><g id="sprotty_61" class="sprotty-edge" opacity="1"><path class="elkedge" d="M 617,411.7857142857143 L 567,411.7857142857143" /><path class="edge arrow" d="M 0,0 L 8,-3 L 8,3 Z" transform="rotate(0 567 411.7857142857143) translate(567 411.7857142857143)" /></g><g id="sprotty_66" class="sprotty-edge" opacity="1"><path class="elkedge" d="M 567,499.7857142857143 L 867,433.7857142857143" /><path class="edge arrow" d="M 0,0 L 8,-3 L 8,3 Z" transform="rotate(167.59258147259925 867 433.7857142857143) translate(867 433.7857142857143)" /></g><g id="sprotty_71" class="sprotty-edge" opacity="1"><path class="elkedge" d="M 867,521.7857142857142 L 817,521.7857142857142" /><path class="edge arrow" d="M 0,0 L 8,-3 L 8,3 Z" transform="rotate(0 817 521.7857142857142) translate(817 521.7857142857142)" /></g><g id="sprotty_74" class="sprotty-edge" opacity="1"><path class="elkedge" d="M 267,388.65252651278854 L 617,492.2005614472863" /><path class="edge arrow" d="M 0,0 L 8,-3 L 8,3 Z" transform="rotate(-163.5190681178552 617 492.2005614472863) translate(617 492.2005614472863)" /></g><g id="sprotty_79" class="sprotty-edge" opacity="1"><path class="elkedge" d="M 617,631.7857142857142 L 567,631.7857142857142" /><path class="edge arrow" d="M 0,0 L 8,-3 L 8,3 Z" transform="rotate(0 567 631.7857142857142) translate(567 631.7857142857142)" /></g><g id="sprotty_84" class="sprotty-edge" opacity="1"><path class="elkedge" d="M 567,719.7857142857142 L 867,653.7857142857142" /><path class="edge arrow" d="M 0,0 L 8,-3 L 8,3 Z" transform="rotate(167.59258147259925 867 653.7857142857142) translate(867 653.7857142857142)" /></g><g id="sprotty_87" class="sprotty-edge" opacity="1"><path class="elkedge" d="M 267,448.3817594834544 L 867,605.5851493139628" /><path class="edge arrow" d="M 0,0 L 8,-3 L 8,3 Z" transform="rotate(-165.31819760293902 867 605.5851493139628) translate(867 605.5851493139628)" /></g><g id="sprotty_92" class="sprotty-edge" opacity="1"><path class="elkedge" d="M 267,510.3992514036182 L 658.656050955414,711.7857142857142" /><path class="edge arrow" d="M 0,0 L 8,-3 L 8,3 Z" transform="rotate(-152.78812859608504 658.656050955414 711.7857142857142) translate(658.656050955414 711.7857142857142)" /></g><g id="sprotty_95" class="sprotty-edge" opacity="1"><path class="elkedge" d="M 267,569.3512164691203 L 638.7094017094017,711.7857142857142" /><path class="edge arrow" d="M 0,0 L 8,-3 L 8,3 Z" transform="rotate(-159.03377842411962 638.7094017094017 711.7857142857142) translate(638.7094017094017 711.7857142857142)" /></g><g id="sprotty_98" class="sprotty-edge" opacity="1"><path class="elkedge" d="M 817,741.7857142857142 L 867,741.7857142857142" /><path class="edge arrow" d="M 0,0 L 8,-3 L 8,3 Z" transform="rotate(180 867 741.7857142857142) translate(867 741.7857142857142)" /></g><g id="sprotty_101" class="sprotty-edge" opacity="1"><path class="elkedge" d="M 261.01074113856066,390.7857142857143 L 453.5950590762621,821.7857142857142" /><path class="edge arrow" d="M 0,0 L 8,-3 L 8,3 Z" transform="rotate(-114.07658974879241 453.5950590762621 821.7857142857142) translate(453.5950590762621 821.7857142857142)" /></g><g id="sprotty_104" class="sprotty-edge" opacity="1"><path class="elkedge" d="M 717,821.7857142857142 L 717,441.7857142857143" /><path class="edge arrow" d="M 0,0 L 8,-3 L 8,3 Z" transform="rotate(90 717 441.7857142857143) translate(717 441.7857142857143)" /></g><g id="sprotty_107" class="sprotty-edge" opacity="1"><path class="elkedge" d="M 267,622.5389893948845 L 652.9440559440559,441.7857142857143" /><path class="edge arrow" d="M 0,0 L 8,-3 L 8,3 Z" transform="rotate(154.90439887692173 652.9440559440559 441.7857142857143) translate(652.9440559440559 441.7857142857143)" /></g><g id="sprotty_108" class="sprotty-edge" opacity="1"><path class="elkedge" d="M 967,711.7857142857142 L 967,551.7857142857142" /><path class="edge arrow" d="M 0,0 L 8,-3 L 8,3 Z" transform="rotate(90 967 551.7857142857142) translate(967 551.7857142857142)" /></g><g id="sprotty_111" class="sprotty-edge" opacity="1"><path class="elkedge" d="M 967,821.7857142857142 L 967,551.7857142857142" /><path class="edge arrow" d="M 0,0 L 8,-3 L 8,3 Z" transform="rotate(90 967 551.7857142857142) translate(967 551.7857142857142)" /></g><g id="sprotty_112" class="sprotty-edge" opacity="1"><path class="elkedge" d="M 682.909090909091,711.7857142857142 L 501.0909090909091,551.7857142857142" /><path class="edge arrow" d="M 0,0 L 8,-3 L 8,3 Z" transform="rotate(41.34777721969366 501.0909090909091 551.7857142857142) translate(501.0909090909091 551.7857142857142)" /></g><g id="sprotty_113" class="sprotty-edge" opacity="1"><path class="elkedge" d="M 467,821.7857142857142 L 467,551.7857142857142" /><path class="edge arrow" d="M 0,0 L 8,-3 L 8,3 Z" transform="rotate(90 467 551.7857142857142) translate(467 551.7857142857142)" /></g><g id="sprotty_114" class="sprotty-edge" opacity="1"><path class="elkedge" d="M 267,622.2664835164835 L 407.2870813397129,551.7857142857142" /><path class="edge arrow" d="M 0,0 L 8,-3 L 8,3 Z" transform="rotate(153.3248706115522 407.2870813397129 551.7857142857142) translate(407.2870813397129 551.7857142857142)" /></g><g id="sprotty_117" class="sprotty-edge" opacity="1"><path class="elkedge" d="M 467,931.7857142857142 L 467,771.7857142857142" /><path class="edge arrow" d="M 0,0 L 8,-3 L 8,3 Z" transform="rotate(90 467 771.7857142857142) translate(467 771.7857142857142)" /></g><g id="sprotty_118" class="sprotty-edge" opacity="1"><path class="elkedge" d="M 867,829.7857142857142 L 567,763.7857142857142" /><path class="edge arrow" d="M 0,0 L 8,-3 L 8,3 Z" transform="rotate(12.407418527400743 567 763.7857142857142) translate(567 763.7857142857142)" /></g><g id="sprotty_119" class="sprotty-edge" opacity="1"><path class="elkedge" d="M 717,821.7857142857142 L 717,661.7857142857142" /><path class="edge arrow" d="M 0,0 L 8,-3 L 8,3 Z" transform="rotate(90 717 661.7857142857142) translate(717 661.7857142857142)" /></g><g id="sprotty_122" class="sprotty-edge" opacity="1"><path class="elkedge" d="M 717,931.7857142857142 L 717,661.7857142857142" /><path class="edge arrow" d="M 0,0 L 8,-3 L 8,3 Z" transform="rotate(90 717 661.7857142857142) translate(717 661.7857142857142)" /></g><g id="sprotty_123" class="sprotty-edge" opacity="1"><path class="elkedge" d="M 267,626.38178415471 L 617,630.5848409232689" /><path class="edge arrow" d="M 0,0 L 8,-3 L 8,3 Z" transform="rotate(-179.3119833176395 617 630.5848409232689) translate(617 630.5848409232689)" /></g><g id="sprotty_126" class="sprotty-edge" opacity="1"><path class="elkedge" d="M 265.9945115257958,510.7857142857143 L 920.3699231613612,931.7857142857142" /><path class="edge arrow" d="M 0,0 L 8,-3 L 8,3 Z" transform="rotate(-147.24432774527776 920.3699231613612 931.7857142857142) translate(920.3699231613612 931.7857142857142)" /></g><g id="sprotty_127" class="sprotty-edge" opacity="1"><path class="elkedge" d="M 898.8181818181819,931.7857142857142 L 785.1818181818181,881.7857142857142" /><path class="edge arrow" d="M 0,0 L 8,-3 L 8,3 Z" transform="rotate(23.74949449286674 785.1818181818181 881.7857142857142) translate(785.1818181818181 881.7857142857142)" /></g><g id="sprotty_128" class="sprotty-edge" opacity="1"><path class="elkedge" d="M 266.2189141856392,570.7857142857142 L 668.8739054290718,821.7857142857142" /><path class="edge arrow" d="M 0,0 L 8,-3 L 8,3 Z" transform="rotate(-148.0621360923082 668.8739054290718 821.7857142857142) translate(668.8739054290718 821.7857142857142)" /></g><g id="sprotty_129" class="sprotty-edge" opacity="1"><path class="elkedge" d="M 261.05488474204174,510.7857142857143 L 453.3007683863886,931.7857142857142" /><path class="edge arrow" d="M 0,0 L 8,-3 L 8,3 Z" transform="rotate(-114.54338541936511 453.3007683863886 931.7857142857142) translate(453.3007683863886 931.7857142857142)" /></g><g id="sprotty_130" class="sprotty-edge" opacity="1"><path class="elkedge" d="M 262.99806013579047,450.7857142857143 L 690.3462657613967,931.7857142857142" /><path class="edge arrow" d="M 0,0 L 8,-3 L 8,3 Z" transform="rotate(-131.61973894434882 690.3462657613967 931.7857142857142) translate(690.3462657613967 931.7857142857142)" /></g><g id="sprotty_131" class="sprotty-edge" opacity="1"><path class="elkedge" d="M 501.0909090909091,441.7857142857143 L 932.9090909090909,821.7857142857142" /><path class="edge arrow" d="M 0,0 L 8,-3 L 8,3 Z" transform="rotate(-138.65222278030637 932.9090909090909 821.7857142857142) translate(932.9090909090909 821.7857142857142)" /></g><g id="sprotty_134" class="sprotty-edge" opacity="1"><path class="elkedge" d="M 567,416.65859564164646 L 1167,445.8958837772397" /><path class="edge arrow" d="M 0,0 L 8,-3 L 8,3 Z" transform="rotate(-177.21025132948532 1167 445.8958837772397) translate(1167 445.8958837772397)" /></g><g id="sprotty_135" class="sprotty-edge" opacity="1"><path class="elkedge" d="M 567,408.18401937046 L 1167,386.5738498789346" /><path class="edge arrow" d="M 0,0 L 8,-3 L 8,3 Z" transform="rotate(177.9372724518615 1167 386.5738498789346) translate(1167 386.5738498789346)" /></g><g id="sprotty_138" class="sprotty-edge" opacity="1"><path class="elkedge" d="M 0,506.2857142857143 L 251,506.2857142857142" /><path class="edge arrow" d="M 0,0 L 8,-3 L 8,3 Z" transform="rotate(180 251 506.2857142857142) translate(251 506.2857142857142)" /></g><g id="sprotty_141" class="sprotty-edge" opacity="1"><path class="elkedge" d="M 0,566.2857142857142 L 251,566.2857142857142" /><path class="edge arrow" d="M 0,0 L 8,-3 L 8,3 Z" transform="rotate(180 251 566.2857142857142) translate(251 566.2857142857142)" /></g><g id="sprotty_148" class="sprotty-edge" opacity="1"><path class="elkedge" d="M 2451,231 L 2451,181" /><path class="edge arrow" d="M 0,0 L 8,-3 L 8,3 Z" transform="rotate(90 2451 181) translate(2451 181)" /></g><g id="sprotty_153" class="sprotty-edge" opacity="1"><path class="elkedge" d="M 2451,451 L 2451,401" /><path class="edge arrow" d="M 0,0 L 8,-3 L 8,3 Z" transform="rotate(90 2451 401) translate(2451 401)" /></g><g id="sprotty_156" class="sprotty-edge" opacity="1"><path class="elkedge" d="M 2451,561 L 2451,291" /><path class="edge arrow" d="M 0,0 L 8,-3 L 8,3 Z" transform="rotate(90 2451 291) translate(2451 291)" /></g><g id="sprotty_159" class="sprotty-edge" opacity="1"><path class="elkedge" d="M 2451,671 L 2451,511" /><path class="edge arrow" d="M 0,0 L 8,-3 L 8,3 Z" transform="rotate(90 2451 511) translate(2451 511)" /></g><g id="sprotty_162" class="sprotty-edge" opacity="1"><path class="elkedge" d="M 2244.6264118158124,130 L 2440.157254561251,671" /><path class="edge arrow" d="M 0,0 L 8,-3 L 8,3 Z" transform="rotate(-109.87111491399165 2440.157254561251 671) translate(2440.157254561251 671)" /></g><g id="sprotty_163" class="sprotty-edge" opacity="1"><path class="elkedge" d="M 2451,671 L 2451,621" /><path class="edge arrow" d="M 0,0 L 8,-3 L 8,3 Z" transform="rotate(90 2451 621) translate(2451 621)" /></g><g id="sprotty_166" class="sprotty-edge" opacity="1"><path class="elkedge" d="M 2461.842745438749,671 L 2657.3735881841876,130" /><path class="edge arrow" d="M 0,0 L 8,-3 L 8,3 Z" transform="rotate(109.87111491399165 2657.3735881841876 130) translate(2657.3735881841876 130)" /></g><g id="sprotty_169" class="sprotty-edge" opacity="1"><path class="elkedge" d="M 2484.6388140161725,341 L 2653.954177897574,190" /><path class="edge arrow" d="M 0,0 L 8,-3 L 8,3 Z" transform="rotate(138.27256122803203 2653.954177897574 190) translate(2653.954177897574 190)" /></g><g id="sprotty_172" class="sprotty-edge" opacity="1"><path class="elkedge" d="M 2500.7211155378486,341 L 2651.5418326693225,250" /><path class="edge arrow" d="M 0,0 L 8,-3 L 8,3 Z" transform="rotate(148.89467282183264 2651.5418326693225 250) translate(2651.5418326693225 250)" /></g><g id="sprotty_175" class="sprotty-edge" opacity="1"><path class="elkedge" d="M 2491.3883495145633,181 L 2652.9417475728155,301" /><path class="edge arrow" d="M 0,0 L 8,-3 L 8,3 Z" transform="rotate(-143.39546107211743 2652.9417475728155 301) translate(2652.9417475728155 301)" /></g><g id="sprotty_176" class="sprotty-edge" opacity="1"><path class="elkedge" d="M 2034,125.5 L 2235,125.5" /><path class="edge arrow" d="M 0,0 L 8,-3 L 8,3 Z" transform="rotate(180 2235 125.5) translate(2235 125.5)" /></g><g id="sprotty_179" class="sprotty-edge" opacity="1"><path class="elkedge" d="M 0,1691.7857142857142 L 2084,1691.7857142857142 L 2084,125.5 L 2235,125.5" /><path class="edge arrow" d="M 0,0 L 8,-3 L 8,3 Z" transform="rotate(180 2235 125.5) translate(2235 125.5)" /><g id="sprotty_179_j0" transform="translate(2084, 125.5)" opacity="1"><circle class="elkjunction" r="2" /></g></g><g id="sprotty_182" class="sprotty-edge" opacity="1"><path class="elkedge" d="M 0,289.7829876326809 L 2918,1747.7884409387477" /><path class="edge arrow" d="M 0,0 L 8,-3 L 8,3 Z" transform="rotate(-153.45057352379268 2918 1747.7884409387477) translate(2918 1747.7884409387477)" /></g><g id="sprotty_185" class="sprotty-edge" opacity="1"><path class="elkedge" d="M 0,1333.0945077417468 L 2918,1810.4769208296816" /><path class="edge arrow" d="M 0,0 L 8,-3 L 8,3 Z" transform="rotate(-170.70876620703012 2918 1810.4769208296816) translate(2918 1810.4769208296816)" /></g><g id="sprotty_188" class="sprotty-edge" opacity="1"><path class="elkedge" d="M 2667,185.5 L 2918,185.5" /><path class="edge arrow" d="M 0,0 L 8,-3 L 8,3 Z" transform="rotate(180 2918 185.5) translate(2918 185.5)" /></g><g id="sprotty_191" class="sprotty-edge" opacity="1"><path class="elkedge" d="M 2667,245.5 L 2918,245.5" /><path class="edge arrow" d="M 0,0 L 8,-3 L 8,3 Z" transform="rotate(180 2918 245.5) translate(2918 245.5)" /></g><g id="sprotty_194" class="sprotty-edge" opacity="1"><path class="elkedge" d="M 2667,245.5 L 2768,245.5 L 2768,305.5 L 2918,305.5" /><path class="edge arrow" d="M 0,0 L 8,-3 L 8,3 Z" transform="rotate(180 2918 305.5) translate(2918 305.5)" /><g id="sprotty_194_j0" transform="translate(2768, 245.5)" opacity="1"><circle class="elkjunction" r="2" /></g></g><g id="sprotty_197" class="sprotty-edge" opacity="1"><path class="elkedge" d="M 2667,305.5 L 2718,305.5 L 2718,365.5 L 2918,365.5" /><path class="edge arrow" d="M 0,0 L 8,-3 L 8,3 Z" transform="rotate(180 2918 365.5) translate(2918 365.5)" /></g></g></g></svg>
