<svg id="sprotty_1" class="sprotty-graph sprotty" tabindex="1002" xmlns="http://www.w3.org/2000/svg" viewBox="0 0 1084 1926.5"><style>
.elknode {
    stroke: #448;
    stroke-width: 2;
    fill: #ddf;
    fill-opacity: 0.5;
}

.elkport {
    stroke: #448;
    stroke-width: 1;
    fill: #66c;
}

.elkedge {
    fill: none;
    stroke: #88f;
    stroke-width: 8;
    stroke-opacity: 0.3;
    pointer-events: stroke;
    stroke-linejoin: round;
}

.elkedge:hover {
    stroke: #448;
    stroke-width: 8;
    stroke-opacity: 1;
    stroke-dasharray: 16px;
    stroke-dashoffset: 32px;
    animation: stroke 0.5s linear infinite;
}

@keyframes stroke {
    to {
        stroke-dashoffset: 0;
    }
}

.elkedge.arrow {
    fill: #336;
}

.elklabel {
    stroke-width: 0;
    stroke: #000;
    fill: #000;
    font-family: sans-serif;
    font-size: 10pt;
    dominant-baseline: hanging;
}

.elklabel:hover {
    font-size: 24pt;
}

.elkjunction {
    stroke: none;
    fill: #224;
}

.selected &gt; rect {
    stroke-width: 3;
}

.mouseover {
    stroke: #88f;
}
/*
 * Copyright (C) 2017 TypeFox and others.
 *
 * Licensed under the Apache License, Version 2.0 (the &quot;License&quot;); you may not use this file except in compliance with the License.
 * You may obtain a copy of the License at http://www.apache.org/licenses/LICENSE-2.0
 */

.sprotty {
    padding: 0px;
    font-family: &quot;Helvetica Neue&quot;, Helvetica, Arial, sans-serif;
}

.sprotty-hidden {
    display: block;
    position: absolute;
    width: 0px;
    height: 0px;
}

.sprotty-popup {
    font-family: &quot;Helvetica Neue&quot;, Helvetica, Arial, sans-serif;
    position: absolute;
    background: white;
    border-radius: 5px;
    border: 1px solid;
    max-width: 400px;
    min-width: 100px;
}

.sprotty-popup &gt; div {
    margin: 10px;
}

.sprotty-popup-closed {
    display: none;
}
</style><g transform="scale(1) translate(0,0)"><g id="sprotty_3" transform="translate(117, 71)" opacity="1"><rect class="elknode" x="0" y="0" rx="10" width="850" height="1805.5" /><g id="sprotty_5" transform="translate(550, 1490)" opacity="1"><rect class="elknode" x="0" y="0" rx="10" width="200" height="60" /><text id="sprotty_6" class="elklabel" transform="translate(5, 22) translate(0, 0)" opacity="1">k8s_apps_v1_deployment.nginx-ingress-controller</text></g><g id="sprotty_22" transform="translate(550, 850)" opacity="1"><rect class="elknode" x="0" y="0" rx="10" width="200" height="60" /><text id="sprotty_23" class="elklabel" transform="translate(5, 22) translate(0, 0)" opacity="1">k8s_core_v1_config_map.nginx-configuration</text></g><g id="sprotty_26" transform="translate(550, 370)" opacity="1"><rect class="elknode" x="0" y="0" rx="10" width="200" height="60" /><text id="sprotty_27" class="elklabel" transform="translate(5, 22) translate(0, 0)" opacity="1">k8s_core_v1_config_map.tcp-services</text></g><g id="sprotty_33" transform="translate(550, 210)" opacity="1"><rect class="elknode" x="0" y="0" rx="10" width="200" height="60" /><text id="sprotty_34" class="elklabel" transform="translate(5, 22) translate(0, 0)" opacity="1">k8s_core_v1_config_map.udp-services</text></g><g id="sprotty_40" transform="translate(550, 50)" opacity="1"><rect class="elknode" x="0" y="0" rx="10" width="200" height="60" /><text id="sprotty_41" class="elklabel" transform="translate(5, 22) translate(0, 0)" opacity="1">k8s_core_v1_service.ingress-nginx</text></g><g id="sprotty_53" transform="translate(550, 1170)" opacity="1"><rect class="elknode" x="0" y="0" rx="10" width="200" height="60" /><text id="sprotty_54" class="elklabel" transform="translate(5, 22) translate(0, 0)" opacity="1">k8s_core_v1_service_account.nginx-ingress-serviceaccount</text></g><g id="sprotty_57" transform="translate(550, 690)" opacity="1"><rect class="elknode" x="0" y="0" rx="10" width="200" height="60" /><text id="sprotty_58" class="elklabel" transform="translate(5, 22) translate(0, 0)" opacity="1">k8s_rbac_authorization_k8s_io_v1beta1_cluster_role.nginx-ingress-clusterrole</text></g><g id="sprotty_61" transform="translate(550, 530)" opacity="1"><rect class="elknode" x="0" y="0" rx="10" width="200" height="60" /><text id="sprotty_62" class="elklabel" transform="translate(5, 22) translate(0, 0)" opacity="1">k8s_rbac_authorization_k8s_io_v1beta1_cluster_role_binding.nginx-ingress-clusterrole-nisa-binding</text></g><g id="sprotty_65" transform="translate(550, 1330)" opacity="1"><rect class="elknode" x="0" y="0" rx="10" width="200" height="60" /><text id="sprotty_66" class="elklabel" transform="translate(5, 22) translate(0, 0)" opacity="1">k8s_rbac_authorization_k8s_io_v1beta1_role.nginx-ingress-role</text></g><g id="sprotty_70" transform="translate(550, 1010)" opacity="1"><rect class="elknode" x="0" y="0" rx="10" width="200" height="60" /><text id="sprotty_71" class="elklabel" transform="translate(5, 22) translate(0, 0)" opacity="1">k8s_rbac_authorization_k8s_io_v1beta1_role_binding.nginx-ingress-role-nisa-binding</text></g><g id="sprotty_7" transform="translate(-16, 1685.5)" opacity="1"><rect class="elkport" x="0" y="0" width="16" height="9" /><text id="sprotty_8" class="elklabel" transform="translate(-1, 10) translate(0, 0)" opacity="1">extra_args</text></g><g id="sprotty_10" transform="translate(-16, 1625.5)" opacity="1"><rect class="elkport" x="0" y="0" width="16" height="9" /><text id="sprotty_11" class="elklabel" transform="translate(-1, 10) translate(0, 0)" opacity="1">ingress_class</text></g><g id="sprotty_13" transform="translate(-16, 705.5)" opacity="1"><rect class="elkport" x="0" y="0" width="16" height="9" /><text id="sprotty_14" class="elklabel" transform="translate(-1, 10) translate(0, 0)" opacity="1">name</text></g><g id="sprotty_16" transform="translate(-16, 1565.5)" opacity="1"><rect class="elkport" x="0" y="0" width="16" height="9" /><text id="sprotty_17" class="elklabel" transform="translate(-1, 10) translate(0, 0)" opacity="1">namespace</text></g><g id="sprotty_19" transform="translate(-16, 1505.5)" opacity="1"><rect class="elkport" x="0" y="0" width="16" height="9" /><text id="sprotty_20" class="elklabel" transform="translate(-1, 10) translate(0, 0)" opacity="1">service_type</text></g><g id="sprotty_30" transform="translate(-16, 380.5)" opacity="1"><rect class="elkport" x="0" y="0" width="16" height="9" /><text id="sprotty_31" class="elklabel" transform="translate(-1, 10) translate(0, 0)" opacity="1">tcp_services_data</text></g><g id="sprotty_37" transform="translate(-16, 220.5)" opacity="1"><rect class="elkport" x="0" y="0" width="16" height="9" /><text id="sprotty_38" class="elklabel" transform="translate(-1, 10) translate(0, 0)" opacity="1">udp_services_data</text></g><g id="sprotty_42" transform="translate(-16, 53)" opacity="1"><rect class="elkport" x="0" y="0" width="16" height="9" /><text id="sprotty_43" class="elklabel" transform="translate(-1, 10) translate(0, 0)" opacity="1">load_balancer_ip</text></g><g id="sprotty_47" transform="translate(-16, 113)" opacity="1"><rect class="elkport" x="0" y="0" width="16" height="9" /><text id="sprotty_48" class="elklabel" transform="translate(-1, 10) translate(0, 0)" opacity="1">ports</text></g><g id="sprotty_74" transform="translate(850, 1515.5)" opacity="1"><rect class="elkport" x="0" y="0" width="16" height="9" /><text id="sprotty_75" class="elklabel" transform="translate(17, 10) translate(0, 0)" opacity="1">deployment</text></g><g id="sprotty_77" transform="translate(850, 1745.5)" opacity="1"><rect class="elkport" x="0" y="0" width="16" height="9" /><text id="sprotty_78" class="elklabel" transform="translate(17, 10) translate(0, 0)" opacity="1">ingress_class</text></g><g id="sprotty_80" transform="translate(850, 75.5)" opacity="1"><rect class="elkport" x="0" y="0" width="16" height="9" /><text id="sprotty_81" class="elklabel" transform="translate(17, 10) translate(0, 0)" opacity="1">service</text></g><text id="sprotty_4" class="elklabel" transform="translate(0, -21) translate(0, 0)" opacity="1">modules/modules/kubernetes/ingress-nginx</text><g id="sprotty_9" class="sprotty-edge" opacity="1"><path class="elkedge" d="M 0,1690 L 500,1690 L 500,1540 L 550,1540" /><path class="edge arrow" d="M 0,0 L 8,-3 L 8,3 Z" transform="rotate(180 550 1540) translate(550 1540)" /></g><g id="sprotty_12" class="sprotty-edge" opacity="1"><path class="elkedge" d="M 0,1630 L 450,1630 L 450,1530 L 550,1530" /><path class="edge arrow" d="M 0,0 L 8,-3 L 8,3 Z" transform="rotate(180 550 1530) translate(550 1530)" /><g id="sprotty_12_j0" transform="translate(450, 1530)" opacity="1"><circle class="elkjunction" r="2" /></g></g><g id="sprotty_15" class="sprotty-edge" opacity="1"><path class="elkedge" d="M 0,710 L 350,710 L 350,1500 L 550,1500" /><path class="edge arrow" d="M 0,0 L 8,-3 L 8,3 Z" transform="rotate(180 550 1500) translate(550 1500)" /><g id="sprotty_15_j0" transform="translate(350, 710)" opacity="1"><circle class="elkjunction" r="2" /></g></g><g id="sprotty_18" class="sprotty-edge" opacity="1"><path class="elkedge" d="M 0,1570 L 400,1570 L 400,1520 L 550,1520" /><path class="edge arrow" d="M 0,0 L 8,-3 L 8,3 Z" transform="rotate(180 550 1520) translate(550 1520)" /><g id="sprotty_18_j0" transform="translate(400, 1520)" opacity="1"><circle class="elkjunction" r="2" /></g></g><g id="sprotty_21" class="sprotty-edge" opacity="1"><path class="elkedge" d="M 0,1510 L 550,1510" /><path class="edge arrow" d="M 0,0 L 8,-3 L 8,3 Z" transform="rotate(180 550 1510) translate(550 1510)" /></g><g id="sprotty_24" class="sprotty-edge" opacity="1"><path class="elkedge" d="M 0,710 L 350,710 L 350,870 L 550,870" /><path class="edge arrow" d="M 0,0 L 8,-3 L 8,3 Z" transform="rotate(180 550 870) translate(550 870)" /><g id="sprotty_24_j0" transform="translate(350, 870)" opacity="1"><circle class="elkjunction" r="2" /></g></g><g id="sprotty_25" class="sprotty-edge" opacity="1"><path class="elkedge" d="M 0,1570 L 400,1570 L 400,890 L 550,890" /><path class="edge arrow" d="M 0,0 L 8,-3 L 8,3 Z" transform="rotate(180 550 890) translate(550 890)" /><g id="sprotty_25_j0" transform="translate(400, 890)" opacity="1"><circle class="elkjunction" r="2" /></g></g><g id="sprotty_28" class="sprotty-edge" opacity="1"><path class="elkedge" d="M 0,710 L 350,710 L 350,400 L 550,400" /><path class="edge arrow" d="M 0,0 L 8,-3 L 8,3 Z" transform="rotate(180 550 400) translate(550 400)" /><g id="sprotty_28_j0" transform="translate(350, 400)" opacity="1"><circle class="elkjunction" r="2" /></g></g><g id="sprotty_29" class="sprotty-edge" opacity="1"><path class="elkedge" d="M 0,1570 L 400,1570 L 400,415 L 550,415" /><path class="edge arrow" d="M 0,0 L 8,-3 L 8,3 Z" transform="rotate(180 550 415) translate(550 415)" /><g id="sprotty_29_j0" transform="translate(400, 415)" opacity="1"><circle class="elkjunction" r="2" /></g></g><g id="sprotty_32" class="sprotty-edge" opacity="1"><path class="elkedge" d="M 0,385 L 550,385" /><path class="edge arrow" d="M 0,0 L 8,-3 L 8,3 Z" transform="rotate(180 550 385) translate(550 385)" /></g><g id="sprotty_35" class="sprotty-edge" opacity="1"><path class="elkedge" d="M 0,710 L 350,710 L 350,240 L 550,240" /><path class="edge arrow" d="M 0,0 L 8,-3 L 8,3 Z" transform="rotate(180 550 240) translate(550 240)" /><g id="sprotty_35_j0" transform="translate(350, 240)" opacity="1"><circle class="elkjunction" r="2" /></g></g><g id="sprotty_36" class="sprotty-edge" opacity="1"><path class="elkedge" d="M 0,1570 L 400,1570 L 400,255 L 550,255" /><path class="edge arrow" d="M 0,0 L 8,-3 L 8,3 Z" transform="rotate(180 550 255) translate(550 255)" /><g id="sprotty_36_j0" transform="translate(400, 255)" opacity="1"><circle class="elkjunction" r="2" /></g></g><g id="sprotty_39" class="sprotty-edge" opacity="1"><path class="elkedge" d="M 0,225 L 550,225" /><path class="edge arrow" d="M 0,0 L 8,-3 L 8,3 Z" transform="rotate(180 550 225) translate(550 225)" /></g><g id="sprotty_44" class="sprotty-edge" opacity="1"><path class="elkedge" d="M 0,57.5 L 550,57.5" /><path class="edge arrow" d="M 0,0 L 8,-3 L 8,3 Z" transform="rotate(180 550 57.5) translate(550 57.5)" /></g><g id="sprotty_45" class="sprotty-edge" opacity="1"><path class="elkedge" d="M 0,710 L 350,710 L 350,87.5 L 550,87.5" /><path class="edge arrow" d="M 0,0 L 8,-3 L 8,3 Z" transform="rotate(180 550 87.5) translate(550 87.5)" /></g><g id="sprotty_46" class="sprotty-edge" opacity="1"><path class="elkedge" d="M 0,1570 L 400,1570 L 400,102.5 L 550,102.5" /><path class="edge arrow" d="M 0,0 L 8,-3 L 8,3 Z" transform="rotate(180 550 102.5) translate(550 102.5)" /></g><g id="sprotty_49" class="sprotty-edge" opacity="1"><path class="elkedge" d="M 0,117.5 L 150,117.5 L 150,65 L 550,65" /><path class="edge arrow" d="M 0,0 L 8,-3 L 8,3 Z" transform="rotate(180 550 65) translate(550 65)" /></g><g id="sprotty_50" class="sprotty-edge" opacity="1"><path class="elkedge" d="M 0,1510 L 300,1510 L 300,95 L 550,95" /><path class="edge arrow" d="M 0,0 L 8,-3 L 8,3 Z" transform="rotate(180 550 95) translate(550 95)" /><g id="sprotty_50_j0" transform="translate(300, 1510)" opacity="1"><circle class="elkjunction" r="2" /></g></g><g id="sprotty_51" class="sprotty-edge" opacity="1"><path class="elkedge" d="M 0,385 L 250,385 L 250,80 L 550,80" /><path class="edge arrow" d="M 0,0 L 8,-3 L 8,3 Z" transform="rotate(180 550 80) translate(550 80)" /><g id="sprotty_51_j0" transform="translate(250, 385)" opacity="1"><circle class="elkjunction" r="2" /></g></g><g id="sprotty_52" class="sprotty-edge" opacity="1"><path class="elkedge" d="M 0,225 L 200,225 L 200,72.5 L 550,72.5" /><path class="edge arrow" d="M 0,0 L 8,-3 L 8,3 Z" transform="rotate(180 550 72.5) translate(550 72.5)" /><g id="sprotty_52_j0" transform="translate(200, 225)" opacity="1"><circle class="elkjunction" r="2" /></g></g><g id="sprotty_55" class="sprotty-edge" opacity="1"><path class="elkedge" d="M 0,710 L 350,710 L 350,1190 L 550,1190" /><path class="edge arrow" d="M 0,0 L 8,-3 L 8,3 Z" transform="rotate(180 550 1190) translate(550 1190)" /><g id="sprotty_55_j0" transform="translate(350, 1190)" opacity="1"><circle class="elkjunction" r="2" /></g></g><g id="sprotty_56" class="sprotty-edge" opacity="1"><path class="elkedge" d="M 0,1570 L 400,1570 L 400,1210 L 550,1210" /><path class="edge arrow" d="M 0,0 L 8,-3 L 8,3 Z" transform="rotate(180 550 1210) translate(550 1210)" /><g id="sprotty_56_j0" transform="translate(400, 1210)" opacity="1"><circle class="elkjunction" r="2" /></g></g><g id="sprotty_59" class="sprotty-edge" opacity="1"><path class="elkedge" d="M 0,710 L 550,710" /><path class="edge arrow" d="M 0,0 L 8,-3 L 8,3 Z" transform="rotate(180 550 710) translate(550 710)" /></g><g id="sprotty_60" class="sprotty-edge" opacity="1"><path class="elkedge" d="M 0,1570 L 400,1570 L 400,730 L 550,730" /><path class="edge arrow" d="M 0,0 L 8,-3 L 8,3 Z" transform="rotate(180 550 730) translate(550 730)" /><g id="sprotty_60_j0" transform="translate(400, 730)" opacity="1"><circle class="elkjunction" r="2" /></g></g><g id="sprotty_63" class="sprotty-edge" opacity="1"><path class="elkedge" d="M 0,710 L 350,710 L 350,550 L 550,550" /><path class="edge arrow" d="M 0,0 L 8,-3 L 8,3 Z" transform="rotate(180 550 550) translate(550 550)" /><g id="sprotty_63_j0" transform="translate(350, 550)" opacity="1"><circle class="elkjunction" r="2" /></g></g><g id="sprotty_64" class="sprotty-edge" opacity="1"><path class="elkedge" d="M 0,1570 L 400,1570 L 400,570 L 550,570" /><path class="edge arrow" d="M 0,0 L 8,-3 L 8,3 Z" transform="rotate(180 550 570) translate(550 570)" /><g id="sprotty_64_j0" transform="translate(400, 570)" opacity="1"><circle class="elkjunction" r="2" /></g></g><g id="sprotty_67" class="sprotty-edge" opacity="1"><path class="elkedge" d="M 0,1630 L 450,1630 L 450,1375 L 550,1375" /><path class="edge arrow" d="M 0,0 L 8,-3 L 8,3 Z" transform="rotate(180 550 1375) translate(550 1375)" /></g><g id="sprotty_68" class="sprotty-edge" opacity="1"><path class="elkedge" d="M 0,710 L 350,710 L 350,1345 L 550,1345" /><path class="edge arrow" d="M 0,0 L 8,-3 L 8,3 Z" transform="rotate(180 550 1345) translate(550 1345)" /><g id="sprotty_68_j0" transform="translate(350, 1345)" opacity="1"><circle class="elkjunction" r="2" /></g></g><g id="sprotty_69" class="sprotty-edge" opacity="1"><path class="elkedge" d="M 0,1570 L 400,1570 L 400,1360 L 550,1360" /><path class="edge arrow" d="M 0,0 L 8,-3 L 8,3 Z" transform="rotate(180 550 1360) translate(550 1360)" /><g id="sprotty_69_j0" transform="translate(400, 1360)" opacity="1"><circle class="elkjunction" r="2" /></g></g><g id="sprotty_72" class="sprotty-edge" opacity="1"><path class="elkedge" d="M 0,710 L 350,710 L 350,1030 L 550,1030" /><path class="edge arrow" d="M 0,0 L 8,-3 L 8,3 Z" transform="rotate(180 550 1030) translate(550 1030)" /><g id="sprotty_72_j0" transform="translate(350, 1030)" opacity="1"><circle class="elkjunction" r="2" /></g></g><g id="sprotty_73" class="sprotty-edge" opacity="1"><path class="elkedge" d="M 0,1570 L 400,1570 L 400,1050 L 550,1050" /><path class="edge arrow" d="M 0,0 L 8,-3 L 8,3 Z" transform="rotate(180 550 1050) translate(550 1050)" /><g id="sprotty_73_j0" transform="translate(400, 1050)" opacity="1"><circle class="elkjunction" r="2" /></g></g><g id="sprotty_76" class="sprotty-edge" opacity="1"><path class="elkedge" d="M 750,1520 L 850,1520" /><path class="edge arrow" d="M 0,0 L 8,-3 L 8,3 Z" transform="rotate(180 850 1520) translate(850 1520)" /></g><g id="sprotty_79" class="sprotty-edge" opacity="1"><path class="elkedge" d="M 0,1631.108545034642 L 850,1748.891454965358" /><path class="edge arrow" d="M 0,0 L 8,-3 L 8,3 Z" transform="rotate(-172.11086844558812 850 1748.891454965358) translate(850 1748.891454965358)" /></g><g id="sprotty_82" class="sprotty-edge" opacity="1"><path class="elkedge" d="M 750,80 L 850,80" /><path class="edge arrow" d="M 0,0 L 8,-3 L 8,3 Z" transform="rotate(180 850 80) translate(850 80)" /></g></g></g></svg>
