<svg id="sprotty_1" class="sprotty-graph sprotty" tabindex="1002" xmlns="http://www.w3.org/2000/svg" viewBox="0 0 1134 2218"><style>
.elknode {
    stroke: #448;
    stroke-width: 2;
    fill: #ddf;
    fill-opacity: 0.5;
}

.elkport {
    stroke: #448;
    stroke-width: 1;
    fill: #66c;
}

.elkedge {
    fill: none;
    stroke: #88f;
    stroke-width: 8;
    stroke-opacity: 0.3;
    pointer-events: stroke;
    stroke-linejoin: round;
}

.elkedge:hover {
    stroke: #448;
    stroke-width: 8;
    stroke-opacity: 1;
    stroke-dasharray: 16px;
    stroke-dashoffset: 32px;
    animation: stroke 0.5s linear infinite;
}

@keyframes stroke {
    to {
        stroke-dashoffset: 0;
    }
}

.elkedge.arrow {
    fill: #336;
}

.elklabel {
    stroke-width: 0;
    stroke: #000;
    fill: #000;
    font-family: sans-serif;
    font-size: 10pt;
    dominant-baseline: hanging;
}

.elklabel:hover {
    font-size: 24pt;
}

.elkjunction {
    stroke: none;
    fill: #224;
}

.selected &gt; rect {
    stroke-width: 3;
}

.mouseover {
    stroke: #88f;
}
/*
 * Copyright (C) 2017 TypeFox and others.
 *
 * Licensed under the Apache License, Version 2.0 (the &quot;License&quot;); you may not use this file except in compliance with the License.
 * You may obtain a copy of the License at http://www.apache.org/licenses/LICENSE-2.0
 */

.sprotty {
    padding: 0px;
    font-family: &quot;Helvetica Neue&quot;, Helvetica, Arial, sans-serif;
}

.sprotty-hidden {
    display: block;
    position: absolute;
    width: 0px;
    height: 0px;
}

.sprotty-popup {
    font-family: &quot;Helvetica Neue&quot;, Helvetica, Arial, sans-serif;
    position: absolute;
    background: white;
    border-radius: 5px;
    border: 1px solid;
    max-width: 400px;
    min-width: 100px;
}

.sprotty-popup &gt; div {
    margin: 10px;
}

.sprotty-popup-closed {
    display: none;
}
</style><g transform="scale(1) translate(0,0)"><g id="sprotty_3" transform="translate(117, 71)" opacity="1"><rect class="elknode" x="0" y="0" rx="10" width="900" height="2097" /><g id="sprotty_5" transform="translate(600, 1927)" opacity="1"><rect class="elknode" x="0" y="0" rx="10" width="200" height="60" /><text id="sprotty_6" class="elklabel" transform="translate(5, 22) translate(0, 0)" opacity="1">k8s_apps_v1_deployment.nginx_ingress_controller</text></g><g id="sprotty_28" transform="translate(600, 1594.5)" opacity="1"><rect class="elknode" x="0" y="0" rx="10" width="200" height="60" /><text id="sprotty_29" class="elklabel" transform="translate(5, 22) translate(0, 0)" opacity="1">k8s_core_v1_config_map.nginx_configuration</text></g><g id="sprotty_32" transform="translate(600, 474.5)" opacity="1"><rect class="elknode" x="0" y="0" rx="10" width="200" height="60" /><text id="sprotty_33" class="elklabel" transform="translate(5, 22) translate(0, 0)" opacity="1">k8s_core_v1_config_map.tcp_services</text></g><g id="sprotty_39" transform="translate(600, 794.5)" opacity="1"><rect class="elknode" x="0" y="0" rx="10" width="200" height="60" /><text id="sprotty_40" class="elklabel" transform="translate(5, 22) translate(0, 0)" opacity="1">k8s_core_v1_config_map.udp_services</text></g><g id="sprotty_43" transform="translate(600, 634.5)" opacity="1"><rect class="elknode" x="0" y="0" rx="10" width="200" height="60" /><text id="sprotty_44" class="elklabel" transform="translate(5, 22) translate(0, 0)" opacity="1">k8s_core_v1_limit_range.ingress_nginx</text></g><g id="sprotty_47" transform="translate(600, 314.5)" opacity="1"><rect class="elknode" x="0" y="0" rx="10" width="200" height="60" /><text id="sprotty_48" class="elklabel" transform="translate(5, 22) translate(0, 0)" opacity="1">k8s_core_v1_service.ingress_nginx</text></g><g id="sprotty_65" transform="translate(600, 1274.5)" opacity="1"><rect class="elknode" x="0" y="0" rx="10" width="200" height="60" /><text id="sprotty_66" class="elklabel" transform="translate(5, 22) translate(0, 0)" opacity="1">k8s_core_v1_service_account.nginx_ingress_serviceaccount</text></g><g id="sprotty_69" transform="translate(600, 954.5)" opacity="1"><rect class="elknode" x="0" y="0" rx="10" width="200" height="60" /><text id="sprotty_70" class="elklabel" transform="translate(5, 22) translate(0, 0)" opacity="1">k8s_rbac_authorization_k8s_io_v1beta1_cluster_role.nginx_ingress_clusterrole</text></g><g id="sprotty_73" transform="translate(600, 1114.5)" opacity="1"><rect class="elknode" x="0" y="0" rx="10" width="200" height="60" /><text id="sprotty_74" class="elklabel" transform="translate(5, 22) translate(0, 0)" opacity="1">k8s_rbac_authorization_k8s_io_v1beta1_cluster_role_binding.nginx_ingress_clusterrole_nisa_binding</text></g><g id="sprotty_77" transform="translate(600, 1754.5)" opacity="1"><rect class="elknode" x="0" y="0" rx="10" width="200" height="60" /><text id="sprotty_78" class="elklabel" transform="translate(5, 22) translate(0, 0)" opacity="1">k8s_rbac_authorization_k8s_io_v1beta1_role.nginx_ingress_role</text></g><g id="sprotty_82" transform="translate(600, 1434.5)" opacity="1"><rect class="elknode" x="0" y="0" rx="10" width="200" height="60" /><text id="sprotty_83" class="elklabel" transform="translate(5, 22) translate(0, 0)" opacity="1">k8s_rbac_authorization_k8s_io_v1beta1_role_binding.nginx_ingress_role_nisa_binding</text></g><g id="sprotty_7" transform="translate(-16, 1975)" opacity="1"><rect class="elkport" x="0" y="0" width="16" height="9" /><text id="sprotty_8" class="elklabel" transform="translate(-1, 10) translate(0, 0)" opacity="1">container_ports</text></g><g id="sprotty_10" transform="translate(-16, 1855)" opacity="1"><rect class="elkport" x="0" y="0" width="16" height="9" /><text id="sprotty_11" class="elklabel" transform="translate(-1, 10) translate(0, 0)" opacity="1">extra_args</text></g><g id="sprotty_13" transform="translate(-16, 1795)" opacity="1"><rect class="elkport" x="0" y="0" width="16" height="9" /><text id="sprotty_14" class="elklabel" transform="translate(-1, 10) translate(0, 0)" opacity="1">ingress_class</text></g><g id="sprotty_16" transform="translate(-16, 1150)" opacity="1"><rect class="elkport" x="0" y="0" width="16" height="9" /><text id="sprotty_17" class="elklabel" transform="translate(-1, 10) translate(0, 0)" opacity="1">name</text></g><g id="sprotty_19" transform="translate(-16, 1090)" opacity="1"><rect class="elkport" x="0" y="0" width="16" height="9" /><text id="sprotty_20" class="elklabel" transform="translate(-1, 10) translate(0, 0)" opacity="1">namespace</text></g><g id="sprotty_22" transform="translate(-16, 1915)" opacity="1"><rect class="elkport" x="0" y="0" width="16" height="9" /><text id="sprotty_23" class="elklabel" transform="translate(-1, 10) translate(0, 0)" opacity="1">node_selector</text></g><g id="sprotty_25" transform="translate(-16, 350)" opacity="1"><rect class="elkport" x="0" y="0" width="16" height="9" /><text id="sprotty_26" class="elklabel" transform="translate(-1, 10) translate(0, 0)" opacity="1">service_type</text></g><g id="sprotty_36" transform="translate(-16, 290)" opacity="1"><rect class="elkport" x="0" y="0" width="16" height="9" /><text id="sprotty_37" class="elklabel" transform="translate(-1, 10) translate(0, 0)" opacity="1">tcp_services_data</text></g><g id="sprotty_49" transform="translate(-16, 230)" opacity="1"><rect class="elkport" x="0" y="0" width="16" height="9" /><text id="sprotty_50" class="elklabel" transform="translate(-1, 10) translate(0, 0)" opacity="1">external_traffic_policy</text></g><g id="sprotty_52" transform="translate(-16, 110)" opacity="1"><rect class="elkport" x="0" y="0" width="16" height="9" /><text id="sprotty_53" class="elklabel" transform="translate(-1, 10) translate(0, 0)" opacity="1">load_balancer_ip</text></g><g id="sprotty_57" transform="translate(-16, 50)" opacity="1"><rect class="elkport" x="0" y="0" width="16" height="9" /><text id="sprotty_58" class="elklabel" transform="translate(-1, 10) translate(0, 0)" opacity="1">ports</text></g><g id="sprotty_62" transform="translate(-16, 170)" opacity="1"><rect class="elkport" x="0" y="0" width="16" height="9" /><text id="sprotty_63" class="elklabel" transform="translate(-1, 10) translate(0, 0)" opacity="1">udp_services_data</text></g><g id="sprotty_86" transform="translate(900, 1952.5)" opacity="1"><rect class="elkport" x="0" y="0" width="16" height="9" /><text id="sprotty_87" class="elklabel" transform="translate(17, 10) translate(0, 0)" opacity="1">deployment</text></g><g id="sprotty_89" transform="translate(900, 2037)" opacity="1"><rect class="elkport" x="0" y="0" width="16" height="9" /><text id="sprotty_90" class="elklabel" transform="translate(17, 10) translate(0, 0)" opacity="1">ingress_class</text></g><g id="sprotty_92" transform="translate(900, 340)" opacity="1"><rect class="elkport" x="0" y="0" width="16" height="9" /><text id="sprotty_93" class="elklabel" transform="translate(17, 10) translate(0, 0)" opacity="1">service</text></g><text id="sprotty_4" class="elklabel" transform="translate(0, -21) translate(0, 0)" opacity="1">modules/kubernetes/ingress-nginx</text><g id="sprotty_9" class="sprotty-edge" opacity="1"><path class="elkedge" d="M 0,1979.5 L 600,1979.5" /><path class="edge arrow" d="M 0,0 L 8,-3 L 8,3 Z" transform="rotate(180 600 1979.5) translate(600 1979.5)" /></g><g id="sprotty_12" class="sprotty-edge" opacity="1"><path class="elkedge" d="M 0,1859.5 L 200,1859.5 L 200,1964.5 L 600,1964.5" /><path class="edge arrow" d="M 0,0 L 8,-3 L 8,3 Z" transform="rotate(180 600 1964.5) translate(600 1964.5)" /></g><g id="sprotty_15" class="sprotty-edge" opacity="1"><path class="elkedge" d="M 0,1799.5 L 250,1799.5 L 250,1957 L 600,1957" /><path class="edge arrow" d="M 0,0 L 8,-3 L 8,3 Z" transform="rotate(180 600 1957) translate(600 1957)" /><g id="sprotty_15_j0" transform="translate(250, 1799.5)" opacity="1"><circle class="elkjunction" r="2" /></g></g><g id="sprotty_18" class="sprotty-edge" opacity="1"><path class="elkedge" d="M 0,1154.5 L 400,1154.5 L 400,1949.5 L 600,1949.5" /><path class="edge arrow" d="M 0,0 L 8,-3 L 8,3 Z" transform="rotate(180 600 1949.5) translate(600 1949.5)" /><g id="sprotty_18_j0" transform="translate(400, 1154.5)" opacity="1"><circle class="elkjunction" r="2" /></g></g><g id="sprotty_21" class="sprotty-edge" opacity="1"><path class="elkedge" d="M 0,1094.5 L 450,1094.5 L 450,1942 L 600,1942" /><path class="edge arrow" d="M 0,0 L 8,-3 L 8,3 Z" transform="rotate(180 600 1942) translate(600 1942)" /><g id="sprotty_21_j0" transform="translate(450, 1094.5)" opacity="1"><circle class="elkjunction" r="2" /></g></g><g id="sprotty_24" class="sprotty-edge" opacity="1"><path class="elkedge" d="M 0,1919.5 L 150,1919.5 L 150,1972 L 600,1972" /><path class="edge arrow" d="M 0,0 L 8,-3 L 8,3 Z" transform="rotate(180 600 1972) translate(600 1972)" /></g><g id="sprotty_27" class="sprotty-edge" opacity="1"><path class="elkedge" d="M 0,354.5 L 300,354.5 L 300,1934.5 L 600,1934.5" /><path class="edge arrow" d="M 0,0 L 8,-3 L 8,3 Z" transform="rotate(180 600 1934.5) translate(600 1934.5)" /><g id="sprotty_27_j0" transform="translate(300, 354.5)" opacity="1"><circle class="elkjunction" r="2" /></g></g><g id="sprotty_30" class="sprotty-edge" opacity="1"><path class="elkedge" d="M 0,1154.5 L 400,1154.5 L 400,1634.5 L 600,1634.5" /><path class="edge arrow" d="M 0,0 L 8,-3 L 8,3 Z" transform="rotate(180 600 1634.5) translate(600 1634.5)" /><g id="sprotty_30_j0" transform="translate(400, 1634.5)" opacity="1"><circle class="elkjunction" r="2" /></g></g><g id="sprotty_31" class="sprotty-edge" opacity="1"><path class="elkedge" d="M 0,1094.5 L 450,1094.5 L 450,1614.5 L 600,1614.5" /><path class="edge arrow" d="M 0,0 L 8,-3 L 8,3 Z" transform="rotate(180 600 1614.5) translate(600 1614.5)" /><g id="sprotty_31_j0" transform="translate(450, 1614.5)" opacity="1"><circle class="elkjunction" r="2" /></g></g><g id="sprotty_34" class="sprotty-edge" opacity="1"><path class="elkedge" d="M 0,1154.5 L 400,1154.5 L 400,519.5 L 600,519.5" /><path class="edge arrow" d="M 0,0 L 8,-3 L 8,3 Z" transform="rotate(180 600 519.5) translate(600 519.5)" /><g id="sprotty_34_j0" transform="translate(400, 519.5)" opacity="1"><circle class="elkjunction" r="2" /></g></g><g id="sprotty_35" class="sprotty-edge" opacity="1"><path class="elkedge" d="M 0,1094.5 L 450,1094.5 L 450,504.5 L 600,504.5" /><path class="edge arrow" d="M 0,0 L 8,-3 L 8,3 Z" transform="rotate(180 600 504.5) translate(600 504.5)" /><g id="sprotty_35_j0" transform="translate(450, 504.5)" opacity="1"><circle class="elkjunction" r="2" /></g></g><g id="sprotty_38" class="sprotty-edge" opacity="1"><path class="elkedge" d="M 0,294.5 L 350,294.5 L 350,489.5 L 600,489.5" /><path class="edge arrow" d="M 0,0 L 8,-3 L 8,3 Z" transform="rotate(180 600 489.5) translate(600 489.5)" /></g><g id="sprotty_41" class="sprotty-edge" opacity="1"><path class="elkedge" d="M 0,1154.5 L 400,1154.5 L 400,834.5 L 600,834.5" /><path class="edge arrow" d="M 0,0 L 8,-3 L 8,3 Z" transform="rotate(180 600 834.5) translate(600 834.5)" /><g id="sprotty_41_j0" transform="translate(400, 834.5)" opacity="1"><circle class="elkjunction" r="2" /></g></g><g id="sprotty_42" class="sprotty-edge" opacity="1"><path class="elkedge" d="M 0,1094.5 L 450,1094.5 L 450,814.5 L 600,814.5" /><path class="edge arrow" d="M 0,0 L 8,-3 L 8,3 Z" transform="rotate(180 600 814.5) translate(600 814.5)" /><g id="sprotty_42_j0" transform="translate(450, 814.5)" opacity="1"><circle class="elkjunction" r="2" /></g></g><g id="sprotty_45" class="sprotty-edge" opacity="1"><path class="elkedge" d="M 0,1154.5 L 400,1154.5 L 400,674.5 L 600,674.5" /><path class="edge arrow" d="M 0,0 L 8,-3 L 8,3 Z" transform="rotate(180 600 674.5) translate(600 674.5)" /><g id="sprotty_45_j0" transform="translate(400, 674.5)" opacity="1"><circle class="elkjunction" r="2" /></g></g><g id="sprotty_46" class="sprotty-edge" opacity="1"><path class="elkedge" d="M 0,1094.5 L 450,1094.5 L 450,654.5 L 600,654.5" /><path class="edge arrow" d="M 0,0 L 8,-3 L 8,3 Z" transform="rotate(180 600 654.5) translate(600 654.5)" /><g id="sprotty_46_j0" transform="translate(450, 654.5)" opacity="1"><circle class="elkjunction" r="2" /></g></g><g id="sprotty_51" class="sprotty-edge" opacity="1"><path class="elkedge" d="M 0,234.5 L 400,234.5 L 400,341.16666666666674 L 600,341.16666666666663" /><path class="edge arrow" d="M 0,0 L 8,-3 L 8,3 Z" transform="rotate(179.99999999999997 600 341.16666666666663) translate(600 341.16666666666663)" /></g><g id="sprotty_54" class="sprotty-edge" opacity="1"><path class="elkedge" d="M 0,114.5 L 500,114.5 L 500,327.83333333333326 L 600,327.8333333333333" /><path class="edge arrow" d="M 0,0 L 8,-3 L 8,3 Z" transform="rotate(-179.99999999999997 600 327.8333333333333) translate(600 327.8333333333333)" /></g><g id="sprotty_55" class="sprotty-edge" opacity="1"><path class="elkedge" d="M 0,1154.5 L 400,1154.5 L 400,367.83333333333326 L 600,367.8333333333333" /><path class="edge arrow" d="M 0,0 L 8,-3 L 8,3 Z" transform="rotate(-180 600 367.8333333333333) translate(600 367.8333333333333)" /></g><g id="sprotty_56" class="sprotty-edge" opacity="1"><path class="elkedge" d="M 0,1094.5 L 450,1094.5 L 450,361.16666666666674 L 600,361.16666666666663" /><path class="edge arrow" d="M 0,0 L 8,-3 L 8,3 Z" transform="rotate(179.99999999999997 600 361.16666666666663) translate(600 361.16666666666663)" /></g><g id="sprotty_59" class="sprotty-edge" opacity="1"><path class="elkedge" d="M 0,54.5 L 550,54.5 L 550,321.16666666666674 L 600,321.1666666666667" /><path class="edge arrow" d="M 0,0 L 8,-3 L 8,3 Z" transform="rotate(179.99999999999994 600 321.1666666666667) translate(600 321.1666666666667)" /></g><g id="sprotty_60" class="sprotty-edge" opacity="1"><path class="elkedge" d="M 0,354.5 L 600,354.5" /><path class="edge arrow" d="M 0,0 L 8,-3 L 8,3 Z" transform="rotate(180 600 354.5) translate(600 354.5)" /></g><g id="sprotty_61" class="sprotty-edge" opacity="1"><path class="elkedge" d="M 0,294.5 L 350,294.5 L 350,347.83333333333326 L 600,347.8333333333333" /><path class="edge arrow" d="M 0,0 L 8,-3 L 8,3 Z" transform="rotate(-180 600 347.8333333333333) translate(600 347.8333333333333)" /><g id="sprotty_61_j0" transform="translate(350, 347.83333333333326)" opacity="1"><circle class="elkjunction" r="2" /></g></g><g id="sprotty_64" class="sprotty-edge" opacity="1"><path class="elkedge" d="M 0,174.5 L 450,174.5 L 450,334.5 L 600,334.5" /><path class="edge arrow" d="M 0,0 L 8,-3 L 8,3 Z" transform="rotate(180 600 334.5) translate(600 334.5)" /></g><g id="sprotty_67" class="sprotty-edge" opacity="1"><path class="elkedge" d="M 0,1154.5 L 400,1154.5 L 400,1314.5 L 600,1314.5" /><path class="edge arrow" d="M 0,0 L 8,-3 L 8,3 Z" transform="rotate(180 600 1314.5) translate(600 1314.5)" /><g id="sprotty_67_j0" transform="translate(400, 1314.5)" opacity="1"><circle class="elkjunction" r="2" /></g></g><g id="sprotty_68" class="sprotty-edge" opacity="1"><path class="elkedge" d="M 0,1094.5 L 450,1094.5 L 450,1294.5 L 600,1294.5" /><path class="edge arrow" d="M 0,0 L 8,-3 L 8,3 Z" transform="rotate(180 600 1294.5) translate(600 1294.5)" /><g id="sprotty_68_j0" transform="translate(450, 1294.5)" opacity="1"><circle class="elkjunction" r="2" /></g></g><g id="sprotty_71" class="sprotty-edge" opacity="1"><path class="elkedge" d="M 0,1154.5 L 400,1154.5 L 400,994.5 L 600,994.5" /><path class="edge arrow" d="M 0,0 L 8,-3 L 8,3 Z" transform="rotate(180 600 994.5) translate(600 994.5)" /><g id="sprotty_71_j0" transform="translate(400, 994.5)" opacity="1"><circle class="elkjunction" r="2" /></g></g><g id="sprotty_72" class="sprotty-edge" opacity="1"><path class="elkedge" d="M 0,1094.5 L 450,1094.5 L 450,974.5 L 600,974.5" /><path class="edge arrow" d="M 0,0 L 8,-3 L 8,3 Z" transform="rotate(180 600 974.5) translate(600 974.5)" /><g id="sprotty_72_j0" transform="translate(450, 974.5)" opacity="1"><circle class="elkjunction" r="2" /></g></g><g id="sprotty_75" class="sprotty-edge" opacity="1"><path class="elkedge" d="M 0,1154.5 L 600,1154.5" /><path class="edge arrow" d="M 0,0 L 8,-3 L 8,3 Z" transform="rotate(180 600 1154.5) translate(600 1154.5)" /></g><g id="sprotty_76" class="sprotty-edge" opacity="1"><path class="elkedge" d="M 0,1094.5 L 450,1094.5 L 450,1134.5 L 600,1134.5" /><path class="edge arrow" d="M 0,0 L 8,-3 L 8,3 Z" transform="rotate(180 600 1134.5) translate(600 1134.5)" /><g id="sprotty_76_j0" transform="translate(450, 1134.5)" opacity="1"><circle class="elkjunction" r="2" /></g></g><g id="sprotty_79" class="sprotty-edge" opacity="1"><path class="elkedge" d="M 0,1799.5 L 600,1799.5" /><path class="edge arrow" d="M 0,0 L 8,-3 L 8,3 Z" transform="rotate(180 600 1799.5) translate(600 1799.5)" /></g><g id="sprotty_80" class="sprotty-edge" opacity="1"><path class="elkedge" d="M 0,1154.5 L 400,1154.5 L 400,1784.5 L 600,1784.5" /><path class="edge arrow" d="M 0,0 L 8,-3 L 8,3 Z" transform="rotate(180 600 1784.5) translate(600 1784.5)" /><g id="sprotty_80_j0" transform="translate(400, 1784.5)" opacity="1"><circle class="elkjunction" r="2" /></g></g><g id="sprotty_81" class="sprotty-edge" opacity="1"><path class="elkedge" d="M 0,1094.5 L 450,1094.5 L 450,1769.5 L 600,1769.5" /><path class="edge arrow" d="M 0,0 L 8,-3 L 8,3 Z" transform="rotate(180 600 1769.5) translate(600 1769.5)" /><g id="sprotty_81_j0" transform="translate(450, 1769.5)" opacity="1"><circle class="elkjunction" r="2" /></g></g><g id="sprotty_84" class="sprotty-edge" opacity="1"><path class="elkedge" d="M 0,1154.5 L 400,1154.5 L 400,1474.5 L 600,1474.5" /><path class="edge arrow" d="M 0,0 L 8,-3 L 8,3 Z" transform="rotate(180 600 1474.5) translate(600 1474.5)" /><g id="sprotty_84_j0" transform="translate(400, 1474.5)" opacity="1"><circle class="elkjunction" r="2" /></g></g><g id="sprotty_85" class="sprotty-edge" opacity="1"><path class="elkedge" d="M 0,1094.5 L 450,1094.5 L 450,1454.5 L 600,1454.5" /><path class="edge arrow" d="M 0,0 L 8,-3 L 8,3 Z" transform="rotate(180 600 1454.5) translate(600 1454.5)" /><g id="sprotty_85_j0" transform="translate(450, 1454.5)" opacity="1"><circle class="elkjunction" r="2" /></g></g><g id="sprotty_88" class="sprotty-edge" opacity="1"><path class="elkedge" d="M 800,1957 L 900,1957" /><path class="edge arrow" d="M 0,0 L 8,-3 L 8,3 Z" transform="rotate(180 900 1957) translate(900 1957)" /></g><g id="sprotty_91" class="sprotty-edge" opacity="1"><path class="elkedge" d="M 0,1801.613537117904 L 900,2039.386462882096" /><path class="edge arrow" d="M 0,0 L 8,-3 L 8,3 Z" transform="rotate(-165.20103135554783 900 2039.386462882096) translate(900 2039.386462882096)" /></g><g id="sprotty_94" class="sprotty-edge" opacity="1"><path class="elkedge" d="M 800,344.5 L 900,344.5" /><path class="edge arrow" d="M 0,0 L 8,-3 L 8,3 Z" transform="rotate(180 900 344.5) translate(900 344.5)" /></g></g></g></svg>
