<svg id="sprotty_1" class="sprotty-graph sprotty" tabindex="1002" xmlns="http://www.w3.org/2000/svg" viewBox="0 0 1768 1126.5"><style>
.elknode {
    stroke: #448;
    stroke-width: 2;
    fill: #ddf;
    fill-opacity: 0.5;
}

.elkport {
    stroke: #448;
    stroke-width: 1;
    fill: #66c;
}

.elkedge {
    fill: none;
    stroke: #88f;
    stroke-width: 8;
    stroke-opacity: 0.3;
    pointer-events: stroke;
    stroke-linejoin: round;
}

.elkedge:hover {
    stroke: #448;
    stroke-width: 8;
    stroke-opacity: 1;
    stroke-dasharray: 16px;
    stroke-dashoffset: 32px;
    animation: stroke 0.5s linear infinite;
}

@keyframes stroke {
    to {
        stroke-dashoffset: 0;
    }
}

.elkedge.arrow {
    fill: #336;
}

.elklabel {
    stroke-width: 0;
    stroke: #000;
    fill: #000;
    font-family: sans-serif;
    font-size: 10pt;
    dominant-baseline: hanging;
}

.elklabel:hover {
    font-size: 24pt;
}

.elkjunction {
    stroke: none;
    fill: #224;
}

.selected &gt; rect {
    stroke-width: 3;
}

.mouseover {
    stroke: #88f;
}
/*
 * Copyright (C) 2017 TypeFox and others.
 *
 * Licensed under the Apache License, Version 2.0 (the &quot;License&quot;); you may not use this file except in compliance with the License.
 * You may obtain a copy of the License at http://www.apache.org/licenses/LICENSE-2.0
 */

.sprotty {
    padding: 0px;
    font-family: &quot;Helvetica Neue&quot;, Helvetica, Arial, sans-serif;
}

.sprotty-hidden {
    display: block;
    position: absolute;
    width: 0px;
    height: 0px;
}

.sprotty-popup {
    font-family: &quot;Helvetica Neue&quot;, Helvetica, Arial, sans-serif;
    position: absolute;
    background: white;
    border-radius: 5px;
    border: 1px solid;
    max-width: 400px;
    min-width: 100px;
}

.sprotty-popup &gt; div {
    margin: 10px;
}

.sprotty-popup-closed {
    display: none;
}
</style><g transform="scale(1) translate(0,0)"><g id="sprotty_3" transform="translate(117, 71)" opacity="1"><rect class="elknode" x="0" y="0" rx="10" width="1534" height="1005.5" /><g id="sprotty_5" transform="translate(600, 50)" opacity="1"><rect class="elknode" x="0" y="0" rx="10" width="200" height="60" /><text id="sprotty_6" class="elklabel" transform="translate(5, 22) translate(0, 0)" opacity="1">k8s_core_v1_config_map.this</text></g><g id="sprotty_19" transform="translate(600, 210)" opacity="1"><rect class="elknode" x="0" y="0" rx="10" width="200" height="60" /><text id="sprotty_20" class="elklabel" transform="translate(5, 22) translate(0, 0)" opacity="1">local.parameters</text></g><g id="sprotty_41" transform="translate(1017, 185.5)" opacity="1"><rect class="elknode" x="0" y="0" rx="10" width="400" height="710" /><g id="sprotty_43" transform="translate(100, 50)" opacity="1"><rect class="elknode" x="0" y="0" rx="10" width="200" height="60" /><text id="sprotty_44" class="elklabel" transform="translate(5, 22) translate(0, 0)" opacity="1">k8s_apps_v1_stateful_set.this</text></g><g id="sprotty_45" transform="translate(100, 160)" opacity="1"><rect class="elknode" x="0" y="0" rx="10" width="200" height="60" /><text id="sprotty_46" class="elklabel" transform="translate(5, 22) translate(0, 0)" opacity="1">local.k8s_apps_v1_stateful_set_parameters</text></g><g id="sprotty_48" transform="translate(100, 270)" opacity="1"><rect class="elknode" x="0" y="0" rx="10" width="200" height="60" /><text id="sprotty_49" class="elklabel" transform="translate(5, 22) translate(0, 0)" opacity="1">k8s_core_v1_service.this</text></g><g id="sprotty_50" transform="translate(100, 380)" opacity="1"><rect class="elknode" x="0" y="0" rx="10" width="200" height="60" /><text id="sprotty_51" class="elklabel" transform="translate(5, 22) translate(0, 0)" opacity="1">local.k8s_core_v1_service_parameters</text></g><g id="sprotty_53" transform="translate(100, 490)" opacity="1"><rect class="elknode" x="0" y="0" rx="10" width="200" height="60" /><text id="sprotty_54" class="elklabel" transform="translate(5, 22) translate(0, 0)" opacity="1">local.selector</text></g><g id="sprotty_56" transform="translate(100, 600)" opacity="1"><rect class="elknode" x="0" y="0" rx="10" width="200" height="60" /><text id="sprotty_57" class="elklabel" transform="translate(5, 22) translate(0, 0)" opacity="1">local.labels</text></g><g id="sprotty_59" transform="translate(-16, 50)" opacity="1"><rect class="elkport" x="0" y="0" width="16" height="9" /><text id="sprotty_60" class="elklabel" transform="translate(-1, 10) translate(0, 0)" opacity="1">parameters</text></g><g id="sprotty_63" transform="translate(400, 50)" opacity="1"><rect class="elkport" x="0" y="0" width="16" height="9" /><text id="sprotty_64" class="elklabel" transform="translate(17, 10) translate(0, 0)" opacity="1">labels</text></g><g id="sprotty_66" transform="translate(400, 110)" opacity="1"><rect class="elkport" x="0" y="0" width="16" height="9" /><text id="sprotty_67" class="elklabel" transform="translate(17, 10) translate(0, 0)" opacity="1">name</text></g><g id="sprotty_69" transform="translate(400, 170)" opacity="1"><rect class="elkport" x="0" y="0" width="16" height="9" /><text id="sprotty_70" class="elklabel" transform="translate(17, 10) translate(0, 0)" opacity="1">service</text></g><g id="sprotty_72" transform="translate(400, 230)" opacity="1"><rect class="elkport" x="0" y="0" width="16" height="9" /><text id="sprotty_73" class="elklabel" transform="translate(17, 10) translate(0, 0)" opacity="1">statefulset</text></g><text id="sprotty_42" class="elklabel" transform="translate(0, -21) translate(0, 0)" opacity="1">statefulset-service</text></g><g id="sprotty_7" transform="translate(-16, 212.16666666666666)" opacity="1"><rect class="elkport" x="0" y="0" width="16" height="9" /><text id="sprotty_8" class="elklabel" transform="translate(-1, 10) translate(0, 0)" opacity="1">name</text></g><g id="sprotty_10" transform="translate(-16, 387)" opacity="1"><rect class="elkport" x="0" y="0" width="16" height="9" /><text id="sprotty_11" class="elklabel" transform="translate(-1, 10) translate(0, 0)" opacity="1">namespace</text></g><g id="sprotty_13" transform="translate(-16, 327)" opacity="1"><rect class="elkport" x="0" y="0" width="16" height="9" /><text id="sprotty_14" class="elklabel" transform="translate(-1, 10) translate(0, 0)" opacity="1">priorities</text></g><g id="sprotty_16" transform="translate(-16, 57.5)" opacity="1"><rect class="elkport" x="0" y="0" width="16" height="9" /><text id="sprotty_17" class="elklabel" transform="translate(-1, 10) translate(0, 0)" opacity="1">servers</text></g><g id="sprotty_21" transform="translate(-16, 687)" opacity="1"><rect class="elkport" x="0" y="0" width="16" height="9" /><text id="sprotty_22" class="elklabel" transform="translate(-1, 10) translate(0, 0)" opacity="1">annotations</text></g><g id="sprotty_24" transform="translate(-16, 627)" opacity="1"><rect class="elkport" x="0" y="0" width="16" height="9" /><text id="sprotty_25" class="elklabel" transform="translate(-1, 10) translate(0, 0)" opacity="1">image</text></g><g id="sprotty_29" transform="translate(-16, 507)" opacity="1"><rect class="elkport" x="0" y="0" width="16" height="9" /><text id="sprotty_30" class="elklabel" transform="translate(-1, 10) translate(0, 0)" opacity="1">ports</text></g><g id="sprotty_32" transform="translate(-16, 447)" opacity="1"><rect class="elkport" x="0" y="0" width="16" height="9" /><text id="sprotty_33" class="elklabel" transform="translate(-1, 10) translate(0, 0)" opacity="1">storage</text></g><g id="sprotty_35" transform="translate(-16, 747)" opacity="1"><rect class="elkport" x="0" y="0" width="16" height="9" /><text id="sprotty_36" class="elklabel" transform="translate(-1, 10) translate(0, 0)" opacity="1">storage_class_name</text></g><g id="sprotty_38" transform="translate(-16, 567)" opacity="1"><rect class="elkport" x="0" y="0" width="16" height="9" /><text id="sprotty_39" class="elklabel" transform="translate(-1, 10) translate(0, 0)" opacity="1">volume_claim_template_name</text></g><g id="sprotty_76" transform="translate(-16, 807)" opacity="1"><rect class="elkport" x="0" y="0" width="16" height="9" /><text id="sprotty_77" class="elklabel" transform="translate(-1, 10) translate(0, 0)" opacity="1">overrides</text></g><g id="sprotty_79" transform="translate(1534, 295.5)" opacity="1"><rect class="elkport" x="0" y="0" width="16" height="9" /><text id="sprotty_80" class="elklabel" transform="translate(17, 10) translate(0, 0)" opacity="1">name</text></g><g id="sprotty_82" transform="translate(1534, 945.5)" opacity="1"><rect class="elkport" x="0" y="0" width="16" height="9" /><text id="sprotty_83" class="elklabel" transform="translate(17, 10) translate(0, 0)" opacity="1">ports</text></g><g id="sprotty_85" transform="translate(1534, 355.5)" opacity="1"><rect class="elkport" x="0" y="0" width="16" height="9" /><text id="sprotty_86" class="elklabel" transform="translate(17, 10) translate(0, 0)" opacity="1">service</text></g><g id="sprotty_88" transform="translate(1534, 415.5)" opacity="1"><rect class="elkport" x="0" y="0" width="16" height="9" /><text id="sprotty_89" class="elklabel" transform="translate(17, 10) translate(0, 0)" opacity="1">statefulset</text></g><text id="sprotty_4" class="elklabel" transform="translate(0, -21) translate(0, 0)" opacity="1">modules/bungeecord</text><g id="sprotty_9" class="sprotty-edge" opacity="1"><path class="elkedge" d="M 0,216.66666666666666 L 150,216.66666666666666 L 150,74 L 600,74" /><path class="edge arrow" d="M 0,0 L 8,-3 L 8,3 Z" transform="rotate(180 600 74) translate(600 74)" /><g id="sprotty_9_j0" transform="translate(150, 216.66666666666666)" opacity="1"><circle class="elkjunction" r="2" /></g></g><g id="sprotty_12" class="sprotty-edge" opacity="1"><path class="elkedge" d="M 0,391.5 L 250,391.5 L 250,98 L 600,98" /><path class="edge arrow" d="M 0,0 L 8,-3 L 8,3 Z" transform="rotate(180 600 98) translate(600 98)" /></g><g id="sprotty_15" class="sprotty-edge" opacity="1"><path class="elkedge" d="M 0,331.5 L 200,331.5 L 200,86 L 600,86" /><path class="edge arrow" d="M 0,0 L 8,-3 L 8,3 Z" transform="rotate(180 600 86) translate(600 86)" /></g><g id="sprotty_18" class="sprotty-edge" opacity="1"><path class="elkedge" d="M 0,62 L 600,62" /><path class="edge arrow" d="M 0,0 L 8,-3 L 8,3 Z" transform="rotate(180 600 62) translate(600 62)" /></g><g id="sprotty_23" class="sprotty-edge" opacity="1"><path class="elkedge" d="M 0,691.5 L 500,691.5 L 500,256.66666666666663 L 600,256.66666666666663" /><path class="edge arrow" d="M 0,0 L 8,-3 L 8,3 Z" transform="rotate(180 600 256.66666666666663) translate(600 256.66666666666663)" /></g><g id="sprotty_26" class="sprotty-edge" opacity="1"><path class="elkedge" d="M 0,631.5 L 450,631.5 L 450,250 L 600,250" /><path class="edge arrow" d="M 0,0 L 8,-3 L 8,3 Z" transform="rotate(180 600 250) translate(600 250)" /></g><g id="sprotty_27" class="sprotty-edge" opacity="1"><path class="elkedge" d="M 0,216.66666666666666 L 600,216.66666666666666" /><path class="edge arrow" d="M 0,0 L 8,-3 L 8,3 Z" transform="rotate(180 600 216.66666666666666) translate(600 216.66666666666666)" /></g><g id="sprotty_28" class="sprotty-edge" opacity="1"><path class="elkedge" d="M 0,391.5 L 250,391.5 L 250,223.33333333333331 L 600,223.33333333333331" /><path class="edge arrow" d="M 0,0 L 8,-3 L 8,3 Z" transform="rotate(180 600 223.33333333333331) translate(600 223.33333333333331)" /><g id="sprotty_28_j0" transform="translate(250, 223.33333333333331)" opacity="1"><circle class="elkjunction" r="2" /></g></g><g id="sprotty_31" class="sprotty-edge" opacity="1"><path class="elkedge" d="M 0,511.5 L 350,511.5 L 350,236.66666666666666 L 600,236.66666666666666" /><path class="edge arrow" d="M 0,0 L 8,-3 L 8,3 Z" transform="rotate(180 600 236.66666666666666) translate(600 236.66666666666666)" /></g><g id="sprotty_34" class="sprotty-edge" opacity="1"><path class="elkedge" d="M 0,451.5 L 300,451.5 L 300,230 L 600,230" /><path class="edge arrow" d="M 0,0 L 8,-3 L 8,3 Z" transform="rotate(180 600 230) translate(600 230)" /></g><g id="sprotty_37" class="sprotty-edge" opacity="1"><path class="elkedge" d="M 0,751.5 L 550,751.5 L 550,263.3333333333333 L 600,263.3333333333333" /><path class="edge arrow" d="M 0,0 L 8,-3 L 8,3 Z" transform="rotate(180 600 263.3333333333333) translate(600 263.3333333333333)" /></g><g id="sprotty_40" class="sprotty-edge" opacity="1"><path class="elkedge" d="M 0,571.5 L 400,571.5 L 400,243.33333333333331 L 600,243.33333333333331" /><path class="edge arrow" d="M 0,0 L 8,-3 L 8,3 Z" transform="rotate(180 600 243.33333333333331) translate(600 243.33333333333331)" /></g><g id="sprotty_47" class="sprotty-edge" opacity="1"><path class="elkedge" d="M 1217,345.5 L 1217,295.5" /><path class="edge arrow" d="M 0,0 L 8,-3 L 8,3 Z" transform="rotate(90 1217 295.5) translate(1217 295.5)" /></g><g id="sprotty_52" class="sprotty-edge" opacity="1"><path class="elkedge" d="M 1217,565.5 L 1217,515.5" /><path class="edge arrow" d="M 0,0 L 8,-3 L 8,3 Z" transform="rotate(90 1217 515.5) translate(1217 515.5)" /></g><g id="sprotty_55" class="sprotty-edge" opacity="1"><path class="elkedge" d="M 1217,675.5 L 1217,405.5" /><path class="edge arrow" d="M 0,0 L 8,-3 L 8,3 Z" transform="rotate(90 1217 405.5) translate(1217 405.5)" /></g><g id="sprotty_58" class="sprotty-edge" opacity="1"><path class="elkedge" d="M 1217,785.5 L 1217,625.5" /><path class="edge arrow" d="M 0,0 L 8,-3 L 8,3 Z" transform="rotate(90 1217 625.5) translate(1217 625.5)" /></g><g id="sprotty_61" class="sprotty-edge" opacity="1"><path class="elkedge" d="M 1010.6264118158124,244.5 L 1206.1572545612512,785.5" /><path class="edge arrow" d="M 0,0 L 8,-3 L 8,3 Z" transform="rotate(-109.87111491399165 1206.1572545612512 785.5) translate(1206.1572545612512 785.5)" /></g><g id="sprotty_62" class="sprotty-edge" opacity="1"><path class="elkedge" d="M 1217,785.5 L 1217,735.5" /><path class="edge arrow" d="M 0,0 L 8,-3 L 8,3 Z" transform="rotate(90 1217 735.5) translate(1217 735.5)" /></g><g id="sprotty_65" class="sprotty-edge" opacity="1"><path class="elkedge" d="M 1227.8427454387488,785.5 L 1423.3735881841876,244.5" /><path class="edge arrow" d="M 0,0 L 8,-3 L 8,3 Z" transform="rotate(109.87111491399165 1423.3735881841876 244.5) translate(1423.3735881841876 244.5)" /></g><g id="sprotty_68" class="sprotty-edge" opacity="1"><path class="elkedge" d="M 1250.6388140161725,455.5 L 1419.954177897574,304.5" /><path class="edge arrow" d="M 0,0 L 8,-3 L 8,3 Z" transform="rotate(138.27256122803203 1419.954177897574 304.5) translate(1419.954177897574 304.5)" /></g><g id="sprotty_71" class="sprotty-edge" opacity="1"><path class="elkedge" d="M 1266.7211155378486,455.5 L 1417.5418326693227,364.5" /><path class="edge arrow" d="M 0,0 L 8,-3 L 8,3 Z" transform="rotate(148.89467282183267 1417.5418326693227 364.5) translate(1417.5418326693227 364.5)" /></g><g id="sprotty_74" class="sprotty-edge" opacity="1"><path class="elkedge" d="M 1257.388349514563,295.5 L 1418.9417475728155,415.5" /><path class="edge arrow" d="M 0,0 L 8,-3 L 8,3 Z" transform="rotate(-143.39546107211748 1418.9417475728155 415.5) translate(1418.9417475728155 415.5)" /></g><g id="sprotty_75" class="sprotty-edge" opacity="1"><path class="elkedge" d="M 800,240 L 1001,240" /><path class="edge arrow" d="M 0,0 L 8,-3 L 8,3 Z" transform="rotate(180 1001 240) translate(1001 240)" /></g><g id="sprotty_78" class="sprotty-edge" opacity="1"><path class="elkedge" d="M 0,811.5 L 850,811.5 L 850,240 L 1001,240" /><path class="edge arrow" d="M 0,0 L 8,-3 L 8,3 Z" transform="rotate(180 1001 240) translate(1001 240)" /><g id="sprotty_78_j0" transform="translate(850, 240)" opacity="1"><circle class="elkjunction" r="2" /></g></g><g id="sprotty_81" class="sprotty-edge" opacity="1"><path class="elkedge" d="M 1433,300 L 1534,300" /><path class="edge arrow" d="M 0,0 L 8,-3 L 8,3 Z" transform="rotate(180 1534 300) translate(1534 300)" /></g><g id="sprotty_84" class="sprotty-edge" opacity="1"><path class="elkedge" d="M 0,513.7632258064516 L 1534,947.7367741935484" /><path class="edge arrow" d="M 0,0 L 8,-3 L 8,3 Z" transform="rotate(-164.2036206706543 1534 947.7367741935484) translate(1534 947.7367741935484)" /></g><g id="sprotty_87" class="sprotty-edge" opacity="1"><path class="elkedge" d="M 1433,360 L 1534,360" /><path class="edge arrow" d="M 0,0 L 8,-3 L 8,3 Z" transform="rotate(180 1534 360) translate(1534 360)" /></g><g id="sprotty_90" class="sprotty-edge" opacity="1"><path class="elkedge" d="M 1433,420 L 1534,420" /><path class="edge arrow" d="M 0,0 L 8,-3 L 8,3 Z" transform="rotate(180 1534 420) translate(1534 420)" /></g></g></g></svg>
