<svg id="sprotty_1" class="sprotty-graph sprotty" tabindex="1002" xmlns="http://www.w3.org/2000/svg" viewBox="0 0 1885 1603"><style>
.elknode {
    stroke: #448;
    stroke-width: 2;
    fill: #ddf;
    fill-opacity: 0.5;
}

.elkport {
    stroke: #448;
    stroke-width: 1;
    fill: #66c;
}

.elkedge {
    fill: none;
    stroke: #88f;
    stroke-width: 8;
    stroke-opacity: 0.3;
    pointer-events: stroke;
    stroke-linejoin: round;
}

.elkedge:hover {
    stroke: #448;
    stroke-width: 8;
    stroke-opacity: 1;
    stroke-dasharray: 16px;
    stroke-dashoffset: 32px;
    animation: stroke 0.5s linear infinite;
}

@keyframes stroke {
    to {
        stroke-dashoffset: 0;
    }
}

.elkedge.arrow {
    fill: #336;
}

.elklabel {
    stroke-width: 0;
    stroke: #000;
    fill: #000;
    font-family: sans-serif;
    font-size: 10pt;
    dominant-baseline: hanging;
}

.elklabel:hover {
    font-size: 24pt;
}

.elkjunction {
    stroke: none;
    fill: #224;
}

.selected &gt; rect {
    stroke-width: 3;
}

.mouseover {
    stroke: #88f;
}
/*
 * Copyright (C) 2017 TypeFox and others.
 *
 * Licensed under the Apache License, Version 2.0 (the &quot;License&quot;); you may not use this file except in compliance with the License.
 * You may obtain a copy of the License at http://www.apache.org/licenses/LICENSE-2.0
 */

.sprotty {
    padding: 0px;
    font-family: &quot;Helvetica Neue&quot;, Helvetica, Arial, sans-serif;
}

.sprotty-hidden {
    display: block;
    position: absolute;
    width: 0px;
    height: 0px;
}

.sprotty-popup {
    font-family: &quot;Helvetica Neue&quot;, Helvetica, Arial, sans-serif;
    position: absolute;
    background: white;
    border-radius: 5px;
    border: 1px solid;
    max-width: 400px;
    min-width: 100px;
}

.sprotty-popup &gt; div {
    margin: 10px;
}

.sprotty-popup-closed {
    display: none;
}
</style><g transform="scale(1) translate(0,0)"><g id="sprotty_3" transform="translate(117, 71)" opacity="1"><rect class="elknode" x="0" y="0" rx="10" width="1668" height="1482" /><g id="sprotty_5" transform="translate(100, 345.5)" opacity="1"><rect class="elknode" x="0" y="0" rx="10" width="200" height="60" /><text id="sprotty_6" class="elklabel" transform="translate(5, 22) translate(0, 0)" opacity="1">k8s_core_v1_namespace.this</text></g><g id="sprotty_10" transform="translate(517, 131)" opacity="1"><rect class="elknode" x="0" y="0" rx="10" width="400" height="1250" /><g id="sprotty_12" transform="translate(100, 50)" opacity="1"><rect class="elknode" x="0" y="0" rx="10" width="200" height="60" /><text id="sprotty_13" class="elklabel" transform="translate(5, 22) translate(0, 0)" opacity="1">k8s_apps_v1_deployment.this</text></g><g id="sprotty_14" transform="translate(100, 160)" opacity="1"><rect class="elknode" x="0" y="0" rx="10" width="200" height="60" /><text id="sprotty_15" class="elklabel" transform="translate(5, 22) translate(0, 0)" opacity="1">local.labels</text></g><g id="sprotty_47" transform="translate(100, 270)" opacity="1"><rect class="elknode" x="0" y="0" rx="10" width="200" height="60" /><text id="sprotty_48" class="elklabel" transform="translate(5, 22) translate(0, 0)" opacity="1">k8s_core_v1_service.this</text></g><g id="sprotty_17" transform="translate(-16, 50)" opacity="1"><rect class="elkport" x="0" y="0" width="16" height="9" /><text id="sprotty_18" class="elklabel" transform="translate(-1, 10) translate(0, 0)" opacity="1">annotations</text></g><g id="sprotty_20" transform="translate(-16, 110)" opacity="1"><rect class="elkport" x="0" y="0" width="16" height="9" /><text id="sprotty_21" class="elklabel" transform="translate(-1, 10) translate(0, 0)" opacity="1">dns_policy</text></g><g id="sprotty_23" transform="translate(-16, 170)" opacity="1"><rect class="elkport" x="0" y="0" width="16" height="9" /><text id="sprotty_24" class="elklabel" transform="translate(-1, 10) translate(0, 0)" opacity="1">image</text></g><g id="sprotty_26" transform="translate(-16, 230)" opacity="1"><rect class="elkport" x="0" y="0" width="16" height="9" /><text id="sprotty_27" class="elklabel" transform="translate(-1, 10) translate(0, 0)" opacity="1">namespace</text></g><g id="sprotty_29" transform="translate(-16, 290)" opacity="1"><rect class="elkport" x="0" y="0" width="16" height="9" /><text id="sprotty_30" class="elklabel" transform="translate(-1, 10) translate(0, 0)" opacity="1">node_selector</text></g><g id="sprotty_32" transform="translate(-16, 350)" opacity="1"><rect class="elkport" x="0" y="0" width="16" height="9" /><text id="sprotty_33" class="elklabel" transform="translate(-1, 10) translate(0, 0)" opacity="1">priority_class_name</text></g><g id="sprotty_35" transform="translate(-16, 410)" opacity="1"><rect class="elkport" x="0" y="0" width="16" height="9" /><text id="sprotty_36" class="elklabel" transform="translate(-1, 10) translate(0, 0)" opacity="1">replicas</text></g><g id="sprotty_38" transform="translate(-16, 470)" opacity="1"><rect class="elkport" x="0" y="0" width="16" height="9" /><text id="sprotty_39" class="elklabel" transform="translate(-1, 10) translate(0, 0)" opacity="1">restart_policy</text></g><g id="sprotty_41" transform="translate(-16, 530)" opacity="1"><rect class="elkport" x="0" y="0" width="16" height="9" /><text id="sprotty_42" class="elklabel" transform="translate(-1, 10) translate(0, 0)" opacity="1">scheduler_name</text></g><g id="sprotty_44" transform="translate(-16, 590)" opacity="1"><rect class="elkport" x="0" y="0" width="16" height="9" /><text id="sprotty_45" class="elklabel" transform="translate(-1, 10) translate(0, 0)" opacity="1">termination_grace_period_seconds</text></g><g id="sprotty_52" transform="translate(-16, 650)" opacity="1"><rect class="elkport" x="0" y="0" width="16" height="9" /><text id="sprotty_53" class="elklabel" transform="translate(-1, 10) translate(0, 0)" opacity="1">port_namenode_http</text></g><g id="sprotty_55" transform="translate(-16, 710)" opacity="1"><rect class="elkport" x="0" y="0" width="16" height="9" /><text id="sprotty_56" class="elklabel" transform="translate(-1, 10) translate(0, 0)" opacity="1">port_namenode_ipc</text></g><g id="sprotty_58" transform="translate(-16, 770)" opacity="1"><rect class="elkport" x="0" y="0" width="16" height="9" /><text id="sprotty_59" class="elklabel" transform="translate(-1, 10) translate(0, 0)" opacity="1">port_resourcemanager_http</text></g><g id="sprotty_61" transform="translate(-16, 830)" opacity="1"><rect class="elkport" x="0" y="0" width="16" height="9" /><text id="sprotty_62" class="elklabel" transform="translate(-1, 10) translate(0, 0)" opacity="1">port_resourcemanager_ipc_0</text></g><g id="sprotty_64" transform="translate(-16, 890)" opacity="1"><rect class="elkport" x="0" y="0" width="16" height="9" /><text id="sprotty_65" class="elklabel" transform="translate(-1, 10) translate(0, 0)" opacity="1">port_resourcemanager_ipc_1</text></g><g id="sprotty_67" transform="translate(-16, 950)" opacity="1"><rect class="elkport" x="0" y="0" width="16" height="9" /><text id="sprotty_68" class="elklabel" transform="translate(-1, 10) translate(0, 0)" opacity="1">port_resourcemanager_ipc_2</text></g><g id="sprotty_70" transform="translate(-16, 1010)" opacity="1"><rect class="elkport" x="0" y="0" width="16" height="9" /><text id="sprotty_71" class="elklabel" transform="translate(-1, 10) translate(0, 0)" opacity="1">port_resourcemanager_ipc_3</text></g><g id="sprotty_73" transform="translate(-16, 1070)" opacity="1"><rect class="elkport" x="0" y="0" width="16" height="9" /><text id="sprotty_74" class="elklabel" transform="translate(-1, 10) translate(0, 0)" opacity="1">service_type</text></g><g id="sprotty_76" transform="translate(-16, 1130)" opacity="1"><rect class="elkport" x="0" y="0" width="16" height="9" /><text id="sprotty_77" class="elklabel" transform="translate(-1, 10) translate(0, 0)" opacity="1">session_affinity</text></g><g id="sprotty_79" transform="translate(-16, 1190)" opacity="1"><rect class="elkport" x="0" y="0" width="16" height="9" /><text id="sprotty_80" class="elklabel" transform="translate(-1, 10) translate(0, 0)" opacity="1">name</text></g><g id="sprotty_82" transform="translate(400, 50)" opacity="1"><rect class="elkport" x="0" y="0" width="16" height="9" /><text id="sprotty_83" class="elklabel" transform="translate(17, 10) translate(0, 0)" opacity="1">cluster_ip</text></g><g id="sprotty_85" transform="translate(400, 110)" opacity="1"><rect class="elkport" x="0" y="0" width="16" height="9" /><text id="sprotty_86" class="elklabel" transform="translate(17, 10) translate(0, 0)" opacity="1">deployment_uid</text></g><g id="sprotty_88" transform="translate(400, 170)" opacity="1"><rect class="elkport" x="0" y="0" width="16" height="9" /><text id="sprotty_89" class="elklabel" transform="translate(17, 10) translate(0, 0)" opacity="1">name</text></g><g id="sprotty_91" transform="translate(400, 230)" opacity="1"><rect class="elkport" x="0" y="0" width="16" height="9" /><text id="sprotty_92" class="elklabel" transform="translate(17, 10) translate(0, 0)" opacity="1">port</text></g><text id="sprotty_11" class="elklabel" transform="translate(0, -21) translate(0, 0)" opacity="1">master</text></g><g id="sprotty_95" transform="translate(1151, 71)" opacity="1"><rect class="elknode" x="0" y="0" rx="10" width="400" height="1190" /><g id="sprotty_97" transform="translate(100, 50)" opacity="1"><rect class="elknode" x="0" y="0" rx="10" width="200" height="60" /><text id="sprotty_98" class="elklabel" transform="translate(5, 22) translate(0, 0)" opacity="1">k8s_apps_v1_deployment.this</text></g><g id="sprotty_99" transform="translate(100, 160)" opacity="1"><rect class="elknode" x="0" y="0" rx="10" width="200" height="60" /><text id="sprotty_100" class="elklabel" transform="translate(5, 22) translate(0, 0)" opacity="1">local.labels</text></g><g id="sprotty_138" transform="translate(100, 270)" opacity="1"><rect class="elknode" x="0" y="0" rx="10" width="200" height="60" /><text id="sprotty_139" class="elklabel" transform="translate(5, 22) translate(0, 0)" opacity="1">k8s_core_v1_service.this</text></g><g id="sprotty_102" transform="translate(-16, 50)" opacity="1"><rect class="elkport" x="0" y="0" width="16" height="9" /><text id="sprotty_103" class="elklabel" transform="translate(-1, 10) translate(0, 0)" opacity="1">annotations</text></g><g id="sprotty_105" transform="translate(-16, 110)" opacity="1"><rect class="elkport" x="0" y="0" width="16" height="9" /><text id="sprotty_106" class="elklabel" transform="translate(-1, 10) translate(0, 0)" opacity="1">dns_policy</text></g><g id="sprotty_108" transform="translate(-16, 170)" opacity="1"><rect class="elkport" x="0" y="0" width="16" height="9" /><text id="sprotty_109" class="elklabel" transform="translate(-1, 10) translate(0, 0)" opacity="1">image</text></g><g id="sprotty_111" transform="translate(-16, 230)" opacity="1"><rect class="elkport" x="0" y="0" width="16" height="9" /><text id="sprotty_112" class="elklabel" transform="translate(-1, 10) translate(0, 0)" opacity="1">namenode</text></g><g id="sprotty_114" transform="translate(-16, 290)" opacity="1"><rect class="elkport" x="0" y="0" width="16" height="9" /><text id="sprotty_115" class="elklabel" transform="translate(-1, 10) translate(0, 0)" opacity="1">namespace</text></g><g id="sprotty_117" transform="translate(-16, 350)" opacity="1"><rect class="elkport" x="0" y="0" width="16" height="9" /><text id="sprotty_118" class="elklabel" transform="translate(-1, 10) translate(0, 0)" opacity="1">node_selector</text></g><g id="sprotty_120" transform="translate(-16, 410)" opacity="1"><rect class="elkport" x="0" y="0" width="16" height="9" /><text id="sprotty_121" class="elklabel" transform="translate(-1, 10) translate(0, 0)" opacity="1">priority_class_name</text></g><g id="sprotty_123" transform="translate(-16, 470)" opacity="1"><rect class="elkport" x="0" y="0" width="16" height="9" /><text id="sprotty_124" class="elklabel" transform="translate(-1, 10) translate(0, 0)" opacity="1">replicas</text></g><g id="sprotty_126" transform="translate(-16, 530)" opacity="1"><rect class="elkport" x="0" y="0" width="16" height="9" /><text id="sprotty_127" class="elklabel" transform="translate(-1, 10) translate(0, 0)" opacity="1">resourcemanager</text></g><g id="sprotty_129" transform="translate(-16, 590)" opacity="1"><rect class="elkport" x="0" y="0" width="16" height="9" /><text id="sprotty_130" class="elklabel" transform="translate(-1, 10) translate(0, 0)" opacity="1">restart_policy</text></g><g id="sprotty_132" transform="translate(-16, 650)" opacity="1"><rect class="elkport" x="0" y="0" width="16" height="9" /><text id="sprotty_133" class="elklabel" transform="translate(-1, 10) translate(0, 0)" opacity="1">scheduler_name</text></g><g id="sprotty_135" transform="translate(-16, 710)" opacity="1"><rect class="elkport" x="0" y="0" width="16" height="9" /><text id="sprotty_136" class="elklabel" transform="translate(-1, 10) translate(0, 0)" opacity="1">termination_grace_period_seconds</text></g><g id="sprotty_143" transform="translate(-16, 770)" opacity="1"><rect class="elkport" x="0" y="0" width="16" height="9" /><text id="sprotty_144" class="elklabel" transform="translate(-1, 10) translate(0, 0)" opacity="1">port_datanode_http</text></g><g id="sprotty_146" transform="translate(-16, 830)" opacity="1"><rect class="elkport" x="0" y="0" width="16" height="9" /><text id="sprotty_147" class="elklabel" transform="translate(-1, 10) translate(0, 0)" opacity="1">port_datanode_ipc</text></g><g id="sprotty_149" transform="translate(-16, 890)" opacity="1"><rect class="elkport" x="0" y="0" width="16" height="9" /><text id="sprotty_150" class="elklabel" transform="translate(-1, 10) translate(0, 0)" opacity="1">port_datanode_stream</text></g><g id="sprotty_152" transform="translate(-16, 950)" opacity="1"><rect class="elkport" x="0" y="0" width="16" height="9" /><text id="sprotty_153" class="elklabel" transform="translate(-1, 10) translate(0, 0)" opacity="1">port_resourcenode_http</text></g><g id="sprotty_155" transform="translate(-16, 1010)" opacity="1"><rect class="elkport" x="0" y="0" width="16" height="9" /><text id="sprotty_156" class="elklabel" transform="translate(-1, 10) translate(0, 0)" opacity="1">service_type</text></g><g id="sprotty_158" transform="translate(-16, 1070)" opacity="1"><rect class="elkport" x="0" y="0" width="16" height="9" /><text id="sprotty_159" class="elklabel" transform="translate(-1, 10) translate(0, 0)" opacity="1">session_affinity</text></g><g id="sprotty_161" transform="translate(-16, 1130)" opacity="1"><rect class="elkport" x="0" y="0" width="16" height="9" /><text id="sprotty_162" class="elklabel" transform="translate(-1, 10) translate(0, 0)" opacity="1">name</text></g><g id="sprotty_164" transform="translate(400, 50)" opacity="1"><rect class="elkport" x="0" y="0" width="16" height="9" /><text id="sprotty_165" class="elklabel" transform="translate(17, 10) translate(0, 0)" opacity="1">cluster_ip</text></g><g id="sprotty_167" transform="translate(400, 110)" opacity="1"><rect class="elkport" x="0" y="0" width="16" height="9" /><text id="sprotty_168" class="elklabel" transform="translate(17, 10) translate(0, 0)" opacity="1">deployment_uid</text></g><g id="sprotty_170" transform="translate(400, 170)" opacity="1"><rect class="elkport" x="0" y="0" width="16" height="9" /><text id="sprotty_171" class="elklabel" transform="translate(17, 10) translate(0, 0)" opacity="1">name</text></g><g id="sprotty_173" transform="translate(400, 230)" opacity="1"><rect class="elkport" x="0" y="0" width="16" height="9" /><text id="sprotty_174" class="elklabel" transform="translate(17, 10) translate(0, 0)" opacity="1">port</text></g><text id="sprotty_96" class="elklabel" transform="translate(0, -21) translate(0, 0)" opacity="1">nodes</text></g><g id="sprotty_7" transform="translate(-16, 371)" opacity="1"><rect class="elkport" x="0" y="0" width="16" height="9" /><text id="sprotty_8" class="elklabel" transform="translate(-1, 10) translate(0, 0)" opacity="1">namespace</text></g><text id="sprotty_4" class="elklabel" transform="translate(0, -21) translate(0, 0)" opacity="1">examples/hadoop</text><g id="sprotty_9" class="sprotty-edge" opacity="1"><path class="elkedge" d="M 0,375.5 L 100,375.5" /><path class="edge arrow" d="M 0,0 L 8,-3 L 8,3 Z" transform="rotate(180 100 375.5) translate(100 375.5)" /></g><g id="sprotty_16" class="sprotty-edge" opacity="1"><path class="elkedge" d="M 717,291 L 717,241" /><path class="edge arrow" d="M 0,0 L 8,-3 L 8,3 Z" transform="rotate(90 717 241) translate(717 241)" /></g><g id="sprotty_19" class="sprotty-edge" opacity="1"><path class="elkedge" d="M 517,186.48076923076923 L 617,198.7403846153846" /><path class="edge arrow" d="M 0,0 L 8,-3 L 8,3 Z" transform="rotate(-173.01063484366153 617 198.7403846153846) translate(617 198.7403846153846)" /></g><g id="sprotty_22" class="sprotty-edge" opacity="1"><path class="elkedge" d="M 517,244.1730769230769 L 617,227.58653846153845" /><path class="edge arrow" d="M 0,0 L 8,-3 L 8,3 Z" transform="rotate(170.58235285466571 617 227.58653846153845) translate(617 227.58653846153845)" /></g><g id="sprotty_25" class="sprotty-edge" opacity="1"><path class="elkedge" d="M 517,301.86538461538464 L 650.968253968254,241" /><path class="edge arrow" d="M 0,0 L 8,-3 L 8,3 Z" transform="rotate(155.5664230096372 650.968253968254 241) translate(650.968253968254 241)" /></g><g id="sprotty_28" class="sprotty-edge" opacity="1"><path class="elkedge" d="M 515.0582524271845,361 L 676.6116504854369,241" /><path class="edge arrow" d="M 0,0 L 8,-3 L 8,3 Z" transform="rotate(143.39546107211748 676.6116504854369 241) translate(676.6116504854369 241)" /></g><g id="sprotty_31" class="sprotty-edge" opacity="1"><path class="elkedge" d="M 513.3636363636364,421 L 687.9090909090909,241" /><path class="edge arrow" d="M 0,0 L 8,-3 L 8,3 Z" transform="rotate(134.11859600341785 687.9090909090909 241) translate(687.9090909090909 241)" /></g><g id="sprotty_34" class="sprotty-edge" opacity="1"><path class="elkedge" d="M 512.4098360655738,481 L 694.2677595628415,241" /><path class="edge arrow" d="M 0,0 L 8,-3 L 8,3 Z" transform="rotate(127.1527142373108 694.2677595628415 241) translate(694.2677595628415 241)" /></g><g id="sprotty_37" class="sprotty-edge" opacity="1"><path class="elkedge" d="M 511.7982062780269,541 L 698.3452914798206,241" /><path class="edge arrow" d="M 0,0 L 8,-3 L 8,3 Z" transform="rotate(121.8743247375575 698.3452914798206 241) translate(698.3452914798206 241)" /></g><g id="sprotty_40" class="sprotty-edge" opacity="1"><path class="elkedge" d="M 511.3726235741445,601 L 701.1825095057034,241" /><path class="edge arrow" d="M 0,0 L 8,-3 L 8,3 Z" transform="rotate(117.80042566034113 701.1825095057034 241) translate(701.1825095057034 241)" /></g><g id="sprotty_43" class="sprotty-edge" opacity="1"><path class="elkedge" d="M 511.05940594059405,661 L 703.2706270627062,241" /><path class="edge arrow" d="M 0,0 L 8,-3 L 8,3 Z" transform="rotate(114.59100050152601 703.2706270627062 241) translate(703.2706270627062 241)" /></g><g id="sprotty_46" class="sprotty-edge" opacity="1"><path class="elkedge" d="M 510.81924198250726,721 L 704.871720116618,241" /><path class="edge arrow" d="M 0,0 L 8,-3 L 8,3 Z" transform="rotate(112.01230148180701 704.871720116618 241) translate(704.871720116618 241)" /></g><g id="sprotty_49" class="sprotty-edge" opacity="1"><path class="elkedge" d="M 717,351 L 717,401" /><path class="edge arrow" d="M 0,0 L 8,-3 L 8,3 Z" transform="rotate(-90 717 401) translate(717 401)" /></g><g id="sprotty_50" class="sprotty-edge" opacity="1"><path class="elkedge" d="M 512.8126272912424,190 L 691.5824847250509,401" /><path class="edge arrow" d="M 0,0 L 8,-3 L 8,3 Z" transform="rotate(-130.27295566323374 691.5824847250509 401) translate(691.5824847250509 401)" /></g><g id="sprotty_51" class="sprotty-edge" opacity="1"><path class="elkedge" d="M 517,368.0192307692308 L 621.7328244274809,401" /><path class="edge arrow" d="M 0,0 L 8,-3 L 8,3 Z" transform="rotate(-162.52058471831904 621.7328244274809 401) translate(621.7328244274809 401)" /></g><g id="sprotty_54" class="sprotty-edge" opacity="1"><path class="elkedge" d="M 511.64033850493655,781 L 699.3977433004231,461" /><path class="edge arrow" d="M 0,0 L 8,-3 L 8,3 Z" transform="rotate(120.40193401416768 699.3977433004231 461) translate(699.3977433004231 461)" /></g><g id="sprotty_57" class="sprotty-edge" opacity="1"><path class="elkedge" d="M 511.2581423401689,841 L 701.9457177322074,461" /><path class="edge arrow" d="M 0,0 L 8,-3 L 8,3 Z" transform="rotate(116.64792833168704 701.9457177322074 461) translate(701.9457177322074 461)" /></g><g id="sprotty_60" class="sprotty-edge" opacity="1"><path class="elkedge" d="M 510.972602739726,901 L 703.8493150684932,461" /><path class="edge arrow" d="M 0,0 L 8,-3 L 8,3 Z" transform="rotate(113.67053848472048 703.8493150684932 461) translate(703.8493150684932 461)" /></g><g id="sprotty_63" class="sprotty-edge" opacity="1"><path class="elkedge" d="M 510.7511693171188,961 L 705.3255378858746,461" /><path class="edge arrow" d="M 0,0 L 8,-3 L 8,3 Z" transform="rotate(111.26343675623956 705.3255378858746 461) translate(705.3255378858746 461)" /></g><g id="sprotty_66" class="sprotty-edge" opacity="1"><path class="elkedge" d="M 510.5744322960471,1021 L 706.5037846930194,461" /><path class="edge arrow" d="M 0,0 L 8,-3 L 8,3 Z" transform="rotate(109.2836065616953 706.5037846930194 461) translate(706.5037846930194 461)" /></g><g id="sprotty_69" class="sprotty-edge" opacity="1"><path class="elkedge" d="M 510.4300993124522,1081 L 707.4660045836516,461" /><path class="edge arrow" d="M 0,0 L 8,-3 L 8,3 Z" transform="rotate(107.630248674381 707.4660045836516 461) translate(707.4660045836516 461)" /></g><g id="sprotty_72" class="sprotty-edge" opacity="1"><path class="elkedge" d="M 510.31000699790064,1141 L 708.2666200139959,461" /><path class="edge arrow" d="M 0,0 L 8,-3 L 8,3 Z" transform="rotate(106.2309470294223 708.2666200139959 461) translate(708.2666200139959 461)" /></g><g id="sprotty_75" class="sprotty-edge" opacity="1"><path class="elkedge" d="M 510.20852162685605,1201 L 708.9431891542931,461" /><path class="edge arrow" d="M 0,0 L 8,-3 L 8,3 Z" transform="rotate(105.03266669315379 708.9431891542931 461) translate(708.9431891542931 461)" /></g><g id="sprotty_78" class="sprotty-edge" opacity="1"><path class="elkedge" d="M 510.1216297183943,1261 L 709.5224685440384,461" /><path class="edge arrow" d="M 0,0 L 8,-3 L 8,3 Z" transform="rotate(103.99584881901217 709.5224685440384 461) translate(709.5224685440384 461)" /></g><g id="sprotty_81" class="sprotty-edge" opacity="1"><path class="elkedge" d="M 509.9318068690891,1321 L 710.7879542060726,351" /><path class="edge arrow" d="M 0,0 L 8,-3 L 8,3 Z" transform="rotate(101.69879949276817 710.7879542060726 351) translate(710.7879542060726 351)" /></g><g id="sprotty_84" class="sprotty-edge" opacity="1"><path class="elkedge" d="M 742.4175152749491,401 L 921.1873727087577,190" /><path class="edge arrow" d="M 0,0 L 8,-3 L 8,3 Z" transform="rotate(130.27295566323377 921.1873727087577 190) translate(921.1873727087577 190)" /></g><g id="sprotty_87" class="sprotty-edge" opacity="1"><path class="elkedge" d="M 817,227.58653846153845 L 917,244.1730769230769" /><path class="edge arrow" d="M 0,0 L 8,-3 L 8,3 Z" transform="rotate(-170.58235285466571 917 244.1730769230769) translate(917 244.1730769230769)" /></g><g id="sprotty_90" class="sprotty-edge" opacity="1"><path class="elkedge" d="M 766.7211155378486,401 L 917.5418326693227,310" /><path class="edge arrow" d="M 0,0 L 8,-3 L 8,3 Z" transform="rotate(148.89467282183267 917.5418326693227 310) translate(917.5418326693227 310)" /></g><g id="sprotty_93" class="sprotty-edge" opacity="1"><path class="elkedge" d="M 812.2671755725191,401 L 917,368.0192307692308" /><path class="edge arrow" d="M 0,0 L 8,-3 L 8,3 Z" transform="rotate(162.52058471831904 917 368.0192307692308) translate(917 368.0192307692308)" /></g><g id="sprotty_94" class="sprotty-edge" opacity="1"><path class="elkedge" d="M 300,365.5 L 501,365.5" /><path class="edge arrow" d="M 0,0 L 8,-3 L 8,3 Z" transform="rotate(180 501 365.5) translate(501 365.5)" /></g><g id="sprotty_101" class="sprotty-edge" opacity="1"><path class="elkedge" d="M 1351,231 L 1351,181" /><path class="edge arrow" d="M 0,0 L 8,-3 L 8,3 Z" transform="rotate(90 1351 181) translate(1351 181)" /></g><g id="sprotty_104" class="sprotty-edge" opacity="1"><path class="elkedge" d="M 1151,126.48076923076923 L 1251,138.7403846153846" /><path class="edge arrow" d="M 0,0 L 8,-3 L 8,3 Z" transform="rotate(-173.01063484366153 1251 138.7403846153846) translate(1251 138.7403846153846)" /></g><g id="sprotty_107" class="sprotty-edge" opacity="1"><path class="elkedge" d="M 1151,184.1730769230769 L 1251,167.58653846153845" /><path class="edge arrow" d="M 0,0 L 8,-3 L 8,3 Z" transform="rotate(170.58235285466571 1251 167.58653846153845) translate(1251 167.58653846153845)" /></g><g id="sprotty_110" class="sprotty-edge" opacity="1"><path class="elkedge" d="M 1151,241.8653846153846 L 1284.968253968254,181" /><path class="edge arrow" d="M 0,0 L 8,-3 L 8,3 Z" transform="rotate(155.5664230096372 1284.968253968254 181) translate(1284.968253968254 181)" /></g><g id="sprotty_113" class="sprotty-edge" opacity="1"><path class="elkedge" d="M 1149.0582524271845,301 L 1310.611650485437,181" /><path class="edge arrow" d="M 0,0 L 8,-3 L 8,3 Z" transform="rotate(143.39546107211748 1310.611650485437 181) translate(1310.611650485437 181)" /></g><g id="sprotty_116" class="sprotty-edge" opacity="1"><path class="elkedge" d="M 1147.3636363636363,361 L 1321.909090909091,181" /><path class="edge arrow" d="M 0,0 L 8,-3 L 8,3 Z" transform="rotate(134.1185960034179 1321.909090909091 181) translate(1321.909090909091 181)" /></g><g id="sprotty_119" class="sprotty-edge" opacity="1"><path class="elkedge" d="M 1146.4098360655737,421 L 1328.2677595628415,181" /><path class="edge arrow" d="M 0,0 L 8,-3 L 8,3 Z" transform="rotate(127.15271423731083 1328.2677595628415 181) translate(1328.2677595628415 181)" /></g><g id="sprotty_122" class="sprotty-edge" opacity="1"><path class="elkedge" d="M 1145.798206278027,481 L 1332.3452914798206,181" /><path class="edge arrow" d="M 0,0 L 8,-3 L 8,3 Z" transform="rotate(121.87432473755749 1332.3452914798206 181) translate(1332.3452914798206 181)" /></g><g id="sprotty_125" class="sprotty-edge" opacity="1"><path class="elkedge" d="M 1145.3726235741444,541 L 1335.1825095057034,181" /><path class="edge arrow" d="M 0,0 L 8,-3 L 8,3 Z" transform="rotate(117.80042566034118 1335.1825095057034 181) translate(1335.1825095057034 181)" /></g><g id="sprotty_128" class="sprotty-edge" opacity="1"><path class="elkedge" d="M 1145.0594059405942,601 L 1337.2706270627064,181" /><path class="edge arrow" d="M 0,0 L 8,-3 L 8,3 Z" transform="rotate(114.59100050152601 1337.2706270627064 181) translate(1337.2706270627064 181)" /></g><g id="sprotty_131" class="sprotty-edge" opacity="1"><path class="elkedge" d="M 1144.8192419825073,661 L 1338.871720116618,181" /><path class="edge arrow" d="M 0,0 L 8,-3 L 8,3 Z" transform="rotate(112.01230148180701 1338.871720116618 181) translate(1338.871720116618 181)" /></g><g id="sprotty_134" class="sprotty-edge" opacity="1"><path class="elkedge" d="M 1144.6292428198433,721 L 1340.1383812010445,181" /><path class="edge arrow" d="M 0,0 L 8,-3 L 8,3 Z" transform="rotate(109.90298942454936 1340.1383812010445 181) translate(1340.1383812010445 181)" /></g><g id="sprotty_137" class="sprotty-edge" opacity="1"><path class="elkedge" d="M 1144.4751773049645,781 L 1341.1654846335698,181" /><path class="edge arrow" d="M 0,0 L 8,-3 L 8,3 Z" transform="rotate(108.15003254253324 1341.1654846335698 181) translate(1341.1654846335698 181)" /></g><g id="sprotty_140" class="sprotty-edge" opacity="1"><path class="elkedge" d="M 1351,291 L 1351,341" /><path class="edge arrow" d="M 0,0 L 8,-3 L 8,3 Z" transform="rotate(-90 1351 341) translate(1351 341)" /></g><g id="sprotty_141" class="sprotty-edge" opacity="1"><path class="elkedge" d="M 1146.8126272912423,130 L 1325.582484725051,341" /><path class="edge arrow" d="M 0,0 L 8,-3 L 8,3 Z" transform="rotate(-130.27295566323377 1325.582484725051 341) translate(1325.582484725051 341)" /></g><g id="sprotty_142" class="sprotty-edge" opacity="1"><path class="elkedge" d="M 1151,365.71153846153845 L 1251,368.3557692307692" /><path class="edge arrow" d="M 0,0 L 8,-3 L 8,3 Z" transform="rotate(-178.4853203219877 1251 368.3557692307692) translate(1251 368.3557692307692)" /></g><g id="sprotty_145" class="sprotty-edge" opacity="1"><path class="elkedge" d="M 1144.972602739726,841 L 1337.849315068493,401" /><path class="edge arrow" d="M 0,0 L 8,-3 L 8,3 Z" transform="rotate(113.67053848472045 1337.849315068493 401) translate(1337.849315068493 401)" /></g><g id="sprotty_148" class="sprotty-edge" opacity="1"><path class="elkedge" d="M 1144.7511693171189,901 L 1339.3255378858746,401" /><path class="edge arrow" d="M 0,0 L 8,-3 L 8,3 Z" transform="rotate(111.26343675623956 1339.3255378858746 401) translate(1339.3255378858746 401)" /></g><g id="sprotty_151" class="sprotty-edge" opacity="1"><path class="elkedge" d="M 1144.574432296047,961 L 1340.5037846930193,401" /><path class="edge arrow" d="M 0,0 L 8,-3 L 8,3 Z" transform="rotate(109.2836065616953 1340.5037846930193 401) translate(1340.5037846930193 401)" /></g><g id="sprotty_154" class="sprotty-edge" opacity="1"><path class="elkedge" d="M 1144.4300993124523,1021 L 1341.4660045836517,401" /><path class="edge arrow" d="M 0,0 L 8,-3 L 8,3 Z" transform="rotate(107.63024867438101 1341.4660045836517 401) translate(1341.4660045836517 401)" /></g><g id="sprotty_157" class="sprotty-edge" opacity="1"><path class="elkedge" d="M 1144.3100069979007,1081 L 1342.2666200139959,401" /><path class="edge arrow" d="M 0,0 L 8,-3 L 8,3 Z" transform="rotate(106.2309470294223 1342.2666200139959 401) translate(1342.2666200139959 401)" /></g><g id="sprotty_160" class="sprotty-edge" opacity="1"><path class="elkedge" d="M 1144.208521626856,1141 L 1342.9431891542931,401" /><path class="edge arrow" d="M 0,0 L 8,-3 L 8,3 Z" transform="rotate(105.03266669315379 1342.9431891542931 401) translate(1342.9431891542931 401)" /></g><g id="sprotty_163" class="sprotty-edge" opacity="1"><path class="elkedge" d="M 1143.9910005293807,1201 L 1344.3933298041293,291" /><path class="edge arrow" d="M 0,0 L 8,-3 L 8,3 Z" transform="rotate(102.41956898638867 1344.3933298041293 291) translate(1344.3933298041293 291)" /></g><g id="sprotty_166" class="sprotty-edge" opacity="1"><path class="elkedge" d="M 1376.417515274949,341 L 1555.1873727087577,130" /><path class="edge arrow" d="M 0,0 L 8,-3 L 8,3 Z" transform="rotate(130.27295566323377 1555.1873727087577 130) translate(1555.1873727087577 130)" /></g><g id="sprotty_169" class="sprotty-edge" opacity="1"><path class="elkedge" d="M 1451,167.58653846153845 L 1551,184.1730769230769" /><path class="edge arrow" d="M 0,0 L 8,-3 L 8,3 Z" transform="rotate(-170.58235285466571 1551 184.1730769230769) translate(1551 184.1730769230769)" /></g><g id="sprotty_172" class="sprotty-edge" opacity="1"><path class="elkedge" d="M 1400.7211155378486,341 L 1551.5418326693227,250" /><path class="edge arrow" d="M 0,0 L 8,-3 L 8,3 Z" transform="rotate(148.89467282183267 1551.5418326693227 250) translate(1551.5418326693227 250)" /></g><g id="sprotty_175" class="sprotty-edge" opacity="1"><path class="elkedge" d="M 1446.2671755725191,341 L 1551,308.0192307692308" /><path class="edge arrow" d="M 0,0 L 8,-3 L 8,3 Z" transform="rotate(162.52058471831904 1551 308.0192307692308) translate(1551 308.0192307692308)" /></g><g id="sprotty_176" class="sprotty-edge" opacity="1"><path class="elkedge" d="M 933,305.5 L 1135,305.5" /><path class="edge arrow" d="M 0,0 L 8,-3 L 8,3 Z" transform="rotate(180 1135 305.5) translate(1135 305.5)" /></g><g id="sprotty_177" class="sprotty-edge" opacity="1"><path class="elkedge" d="M 300,385.5 L 350,385.5 L 350,1431 L 984,1431 L 984,365.5 L 1135,365.5" /><path class="edge arrow" d="M 0,0 L 8,-3 L 8,3 Z" transform="rotate(180 1135 365.5) translate(1135 365.5)" /></g><g id="sprotty_178" class="sprotty-edge" opacity="1"><path class="elkedge" d="M 933,305.5 L 1034,305.5 L 1034,605.5 L 1135,605.5" /><path class="edge arrow" d="M 0,0 L 8,-3 L 8,3 Z" transform="rotate(180 1135 605.5) translate(1135 605.5)" /><g id="sprotty_178_j0" transform="translate(1034, 305.5)" opacity="1"><circle class="elkjunction" r="2" /></g></g></g></g></svg>
