<svg id="sprotty_1" class="sprotty-graph sprotty" tabindex="1002" xmlns="http://www.w3.org/2000/svg" viewBox="0 0 2469 1343"><style>
.elknode {
    stroke: #448;
    stroke-width: 2;
    fill: #ddf;
    fill-opacity: 0.5;
}

.elkport {
    stroke: #448;
    stroke-width: 1;
    fill: #66c;
}

.elkedge {
    fill: none;
    stroke: #88f;
    stroke-width: 8;
    stroke-opacity: 0.3;
    pointer-events: stroke;
    stroke-linejoin: round;
}

.elkedge:hover {
    stroke: #448;
    stroke-width: 8;
    stroke-opacity: 1;
    stroke-dasharray: 16px;
    stroke-dashoffset: 32px;
    animation: stroke 0.5s linear infinite;
}

@keyframes stroke {
    to {
        stroke-dashoffset: 0;
    }
}

.elkedge.arrow {
    fill: #336;
}

.elklabel {
    stroke-width: 0;
    stroke: #000;
    fill: #000;
    font-family: sans-serif;
    font-size: 10pt;
    dominant-baseline: hanging;
}

.elklabel:hover {
    font-size: 24pt;
}

.elkjunction {
    stroke: none;
    fill: #224;
}

.selected &gt; rect {
    stroke-width: 3;
}

.mouseover {
    stroke: #88f;
}
/*
 * Copyright (C) 2017 TypeFox and others.
 *
 * Licensed under the Apache License, Version 2.0 (the &quot;License&quot;); you may not use this file except in compliance with the License.
 * You may obtain a copy of the License at http://www.apache.org/licenses/LICENSE-2.0
 */

.sprotty {
    padding: 0px;
    font-family: &quot;Helvetica Neue&quot;, Helvetica, Arial, sans-serif;
}

.sprotty-hidden {
    display: block;
    position: absolute;
    width: 0px;
    height: 0px;
}

.sprotty-popup {
    font-family: &quot;Helvetica Neue&quot;, Helvetica, Arial, sans-serif;
    position: absolute;
    background: white;
    border-radius: 5px;
    border: 1px solid;
    max-width: 400px;
    min-width: 100px;
}

.sprotty-popup &gt; div {
    margin: 10px;
}

.sprotty-popup-closed {
    display: none;
}
</style><g transform="scale(1) translate(0,0)"><g id="sprotty_3" transform="translate(117, 71)" opacity="1"><rect class="elknode" x="0" y="0" rx="10" width="2252" height="1222" /><g id="sprotty_5" transform="translate(517, 1112)" opacity="1"><rect class="elknode" x="0" y="0" rx="10" width="200" height="60" /><text id="sprotty_6" class="elklabel" transform="translate(5, 22) translate(0, 0)" opacity="1">k8s_cert_manager_io_v1alpha2_certificate.this</text></g><g id="sprotty_7" transform="translate(100, 1112)" opacity="1"><rect class="elknode" x="0" y="0" rx="10" width="200" height="60" /><text id="sprotty_8" class="elklabel" transform="translate(5, 22) translate(0, 0)" opacity="1">k8s_core_v1_namespace.this</text></g><g id="sprotty_16" transform="translate(517, 71)" opacity="1"><rect class="elknode" x="0" y="0" rx="10" width="1618" height="941" /><g id="sprotty_18" transform="translate(100, 50)" opacity="1"><rect class="elknode" x="0" y="0" rx="10" width="200" height="60" /><text id="sprotty_19" class="elklabel" transform="translate(5, 22) translate(0, 0)" opacity="1">data.template_file.config</text></g><g id="sprotty_35" transform="translate(350, 50)" opacity="1"><rect class="elknode" x="0" y="0" rx="10" width="200" height="60" /><text id="sprotty_36" class="elklabel" transform="translate(5, 22) translate(0, 0)" opacity="1">k8s_core_v1_config_map.this</text></g><g id="sprotty_38" transform="translate(600, 50)" opacity="1"><rect class="elknode" x="0" y="0" rx="10" width="200" height="60" /><text id="sprotty_39" class="elklabel" transform="translate(5, 22) translate(0, 0)" opacity="1">local.parameters</text></g><g id="sprotty_41" transform="translate(117, 181)" opacity="1"><rect class="elknode" x="0" y="0" rx="10" width="900" height="710" /><g id="sprotty_105" transform="translate(100, 50)" opacity="1"><rect class="elknode" x="0" y="0" rx="10" width="200" height="60" /><text id="sprotty_106" class="elklabel" transform="translate(5, 22) translate(0, 0)" opacity="1">k8s_core_v1_service_account.this</text></g><g id="sprotty_107" transform="translate(350, 50)" opacity="1"><rect class="elknode" x="0" y="0" rx="10" width="200" height="60" /><text id="sprotty_108" class="elklabel" transform="translate(5, 22) translate(0, 0)" opacity="1">local.k8s_core_v1_service_account_parameters</text></g><g id="sprotty_110" transform="translate(600, 50)" opacity="1"><rect class="elknode" x="0" y="0" rx="10" width="200" height="60" /><text id="sprotty_111" class="elklabel" transform="translate(5, 22) translate(0, 0)" opacity="1">k8s_rbac_authorization_k8s_io_v1_cluster_role.this</text></g><g id="sprotty_112" transform="translate(100, 160)" opacity="1"><rect class="elknode" x="0" y="0" rx="10" width="200" height="60" /><text id="sprotty_113" class="elklabel" transform="translate(5, 22) translate(0, 0)" opacity="1">local.k8s_rbac_authorization_k8s_io_v1_cluster_role_parameters</text></g><g id="sprotty_115" transform="translate(350, 160)" opacity="1"><rect class="elknode" x="0" y="0" rx="10" width="200" height="60" /><text id="sprotty_116" class="elklabel" transform="translate(5, 22) translate(0, 0)" opacity="1">k8s_rbac_authorization_k8s_io_v1_cluster_role_binding.this</text></g><g id="sprotty_117" transform="translate(600, 160)" opacity="1"><rect class="elknode" x="0" y="0" rx="10" width="200" height="60" /><text id="sprotty_118" class="elklabel" transform="translate(5, 22) translate(0, 0)" opacity="1">local.k8s_rbac_authorization_k8s_io_v1_cluster_role_binding_parameters</text></g><g id="sprotty_123" transform="translate(100, 270)" opacity="1"><rect class="elknode" x="0" y="0" rx="10" width="200" height="60" /><text id="sprotty_124" class="elklabel" transform="translate(5, 22) translate(0, 0)" opacity="1">k8s_rbac_authorization_k8s_io_v1_role.this</text></g><g id="sprotty_125" transform="translate(350, 270)" opacity="1"><rect class="elknode" x="0" y="0" rx="10" width="200" height="60" /><text id="sprotty_126" class="elklabel" transform="translate(5, 22) translate(0, 0)" opacity="1">local.k8s_rbac_authorization_k8s_io_v1_role_parameters</text></g><g id="sprotty_128" transform="translate(600, 270)" opacity="1"><rect class="elknode" x="0" y="0" rx="10" width="200" height="60" /><text id="sprotty_129" class="elklabel" transform="translate(5, 22) translate(0, 0)" opacity="1">k8s_rbac_authorization_k8s_io_v1_role_binding.this</text></g><g id="sprotty_130" transform="translate(100, 380)" opacity="1"><rect class="elknode" x="0" y="0" rx="10" width="200" height="60" /><text id="sprotty_131" class="elklabel" transform="translate(5, 22) translate(0, 0)" opacity="1">local.k8s_rbac_authorization_k8s_io_v1_role_binding_parameters</text></g><g id="sprotty_136" transform="translate(350, 380)" opacity="1"><rect class="elknode" x="0" y="0" rx="10" width="200" height="60" /><text id="sprotty_137" class="elklabel" transform="translate(5, 22) translate(0, 0)" opacity="1">local.cluster_role_parameters</text></g><g id="sprotty_144" transform="translate(600, 380)" opacity="1"><rect class="elknode" x="0" y="0" rx="10" width="200" height="60" /><text id="sprotty_145" class="elklabel" transform="translate(5, 22) translate(0, 0)" opacity="1">local.cluster_role_ref</text></g><g id="sprotty_147" transform="translate(100, 490)" opacity="1"><rect class="elknode" x="0" y="0" rx="10" width="200" height="60" /><text id="sprotty_148" class="elklabel" transform="translate(5, 22) translate(0, 0)" opacity="1">local.cluster_role_rules</text></g><g id="sprotty_150" transform="translate(350, 490)" opacity="1"><rect class="elknode" x="0" y="0" rx="10" width="200" height="60" /><text id="sprotty_151" class="elklabel" transform="translate(5, 22) translate(0, 0)" opacity="1">local.parameters</text></g><g id="sprotty_157" transform="translate(600, 490)" opacity="1"><rect class="elknode" x="0" y="0" rx="10" width="200" height="60" /><text id="sprotty_158" class="elklabel" transform="translate(5, 22) translate(0, 0)" opacity="1">local.subjects</text></g><g id="sprotty_163" transform="translate(100, 600)" opacity="1"><rect class="elknode" x="0" y="0" rx="10" width="200" height="60" /><text id="sprotty_164" class="elklabel" transform="translate(5, 22) translate(0, 0)" opacity="1">local.role_ref</text></g><g id="sprotty_168" transform="translate(350, 600)" opacity="1"><rect class="elknode" x="0" y="0" rx="10" width="200" height="60" /><text id="sprotty_169" class="elklabel" transform="translate(5, 22) translate(0, 0)" opacity="1">local.role_rules</text></g><g id="sprotty_172" transform="translate(600, 600)" opacity="1"><rect class="elknode" x="0" y="0" rx="10" width="200" height="60" /><text id="sprotty_173" class="elklabel" transform="translate(5, 22) translate(0, 0)" opacity="1">local.labels</text></g><g id="sprotty_43" transform="translate(900, 50)" opacity="1"><rect class="elkport" x="0" y="0" width="16" height="9" /><text id="sprotty_44" class="elklabel" transform="translate(17, -1) translate(0, 0)" opacity="1">service_account</text></g><g id="sprotty_120" transform="translate(-16, 50)" opacity="1"><rect class="elkport" x="0" y="0" width="16" height="9" /><text id="sprotty_121" class="elklabel" transform="translate(-1, 10) translate(0, 0)" opacity="1">cluster_role_rules</text></g><g id="sprotty_133" transform="translate(-16, 110)" opacity="1"><rect class="elkport" x="0" y="0" width="16" height="9" /><text id="sprotty_134" class="elklabel" transform="translate(-1, 10) translate(0, 0)" opacity="1">role_rules</text></g><g id="sprotty_138" transform="translate(-16, 170)" opacity="1"><rect class="elkport" x="0" y="0" width="16" height="9" /><text id="sprotty_139" class="elklabel" transform="translate(-1, 10) translate(0, 0)" opacity="1">name</text></g><g id="sprotty_141" transform="translate(-16, 230)" opacity="1"><rect class="elkport" x="0" y="0" width="16" height="9" /><text id="sprotty_142" class="elklabel" transform="translate(-1, 10) translate(0, 0)" opacity="1">namespace</text></g><g id="sprotty_153" transform="translate(-16, 290)" opacity="1"><rect class="elkport" x="0" y="0" width="16" height="9" /><text id="sprotty_154" class="elklabel" transform="translate(-1, 10) translate(0, 0)" opacity="1">overrides</text></g><g id="sprotty_180" transform="translate(900, 110)" opacity="1"><rect class="elkport" x="0" y="0" width="16" height="9" /><text id="sprotty_181" class="elklabel" transform="translate(17, 10) translate(0, 0)" opacity="1">name</text></g><text id="sprotty_42" class="elklabel" transform="translate(0, -21) translate(0, 0)" opacity="1">rbac</text></g><g id="sprotty_64" transform="translate(1101, 181)" opacity="1"><rect class="elknode" x="0" y="0" rx="10" width="400" height="710" /><g id="sprotty_66" transform="translate(100, 50)" opacity="1"><rect class="elknode" x="0" y="0" rx="10" width="200" height="60" /><text id="sprotty_67" class="elklabel" transform="translate(5, 22) translate(0, 0)" opacity="1">k8s_apps_v1_deployment.this</text></g><g id="sprotty_68" transform="translate(100, 160)" opacity="1"><rect class="elknode" x="0" y="0" rx="10" width="200" height="60" /><text id="sprotty_69" class="elklabel" transform="translate(5, 22) translate(0, 0)" opacity="1">local.k8s_apps_v1_deployment_parameters</text></g><g id="sprotty_71" transform="translate(100, 270)" opacity="1"><rect class="elknode" x="0" y="0" rx="10" width="200" height="60" /><text id="sprotty_72" class="elklabel" transform="translate(5, 22) translate(0, 0)" opacity="1">k8s_core_v1_service.this</text></g><g id="sprotty_73" transform="translate(100, 380)" opacity="1"><rect class="elknode" x="0" y="0" rx="10" width="200" height="60" /><text id="sprotty_74" class="elklabel" transform="translate(5, 22) translate(0, 0)" opacity="1">local.k8s_core_v1_service_parameters</text></g><g id="sprotty_79" transform="translate(100, 490)" opacity="1"><rect class="elknode" x="0" y="0" rx="10" width="200" height="60" /><text id="sprotty_80" class="elklabel" transform="translate(5, 22) translate(0, 0)" opacity="1">local.selector</text></g><g id="sprotty_82" transform="translate(100, 600)" opacity="1"><rect class="elknode" x="0" y="0" rx="10" width="200" height="60" /><text id="sprotty_83" class="elklabel" transform="translate(5, 22) translate(0, 0)" opacity="1">local.labels</text></g><g id="sprotty_76" transform="translate(-16, 50)" opacity="1"><rect class="elkport" x="0" y="0" width="16" height="9" /><text id="sprotty_77" class="elklabel" transform="translate(-1, -1) translate(0, 0)" opacity="1">enable_service</text></g><g id="sprotty_85" transform="translate(-16, 110)" opacity="1"><rect class="elkport" x="0" y="0" width="16" height="9" /><text id="sprotty_86" class="elklabel" transform="translate(-1, 10) translate(0, 0)" opacity="1">parameters</text></g><g id="sprotty_89" transform="translate(400, 50)" opacity="1"><rect class="elkport" x="0" y="0" width="16" height="9" /><text id="sprotty_90" class="elklabel" transform="translate(17, 10) translate(0, 0)" opacity="1">deployment</text></g><g id="sprotty_92" transform="translate(400, 110)" opacity="1"><rect class="elkport" x="0" y="0" width="16" height="9" /><text id="sprotty_93" class="elklabel" transform="translate(17, 10) translate(0, 0)" opacity="1">labels</text></g><g id="sprotty_95" transform="translate(400, 170)" opacity="1"><rect class="elkport" x="0" y="0" width="16" height="9" /><text id="sprotty_96" class="elklabel" transform="translate(17, 10) translate(0, 0)" opacity="1">name</text></g><g id="sprotty_98" transform="translate(400, 230)" opacity="1"><rect class="elkport" x="0" y="0" width="16" height="9" /><text id="sprotty_99" class="elklabel" transform="translate(17, 10) translate(0, 0)" opacity="1">service</text></g><text id="sprotty_65" class="elklabel" transform="translate(0, -21) translate(0, 0)" opacity="1">deployment-service</text></g><g id="sprotty_20" transform="translate(-16, 50)" opacity="1"><rect class="elkport" x="0" y="0" width="16" height="9" /><text id="sprotty_21" class="elklabel" transform="translate(-1, 10) translate(0, 0)" opacity="1">check_existing</text></g><g id="sprotty_23" transform="translate(-16, 110)" opacity="1"><rect class="elkport" x="0" y="0" width="16" height="9" /><text id="sprotty_24" class="elklabel" transform="translate(-1, 10) translate(0, 0)" opacity="1">log_level</text></g><g id="sprotty_26" transform="translate(-16, 170)" opacity="1"><rect class="elkport" x="0" y="0" width="16" height="9" /><text id="sprotty_27" class="elklabel" transform="translate(-1, 10) translate(0, 0)" opacity="1">name</text></g><g id="sprotty_29" transform="translate(-16, 230)" opacity="1"><rect class="elkport" x="0" y="0" width="16" height="9" /><text id="sprotty_30" class="elklabel" transform="translate(-1, 10) translate(0, 0)" opacity="1">namespace</text></g><g id="sprotty_32" transform="translate(-16, 290)" opacity="1"><rect class="elkport" x="0" y="0" width="16" height="9" /><text id="sprotty_33" class="elklabel" transform="translate(-1, 10) translate(0, 0)" opacity="1">rules</text></g><g id="sprotty_46" transform="translate(-16, 350)" opacity="1"><rect class="elkport" x="0" y="0" width="16" height="9" /><text id="sprotty_47" class="elklabel" transform="translate(-1, 10) translate(0, 0)" opacity="1">annotations</text></g><g id="sprotty_49" transform="translate(-16, 410)" opacity="1"><rect class="elkport" x="0" y="0" width="16" height="9" /><text id="sprotty_50" class="elklabel" transform="translate(-1, 10) translate(0, 0)" opacity="1">env</text></g><g id="sprotty_52" transform="translate(-16, 470)" opacity="1"><rect class="elkport" x="0" y="0" width="16" height="9" /><text id="sprotty_53" class="elklabel" transform="translate(-1, 10) translate(0, 0)" opacity="1">image</text></g><g id="sprotty_55" transform="translate(-16, 530)" opacity="1"><rect class="elkport" x="0" y="0" width="16" height="9" /><text id="sprotty_56" class="elklabel" transform="translate(-1, 10) translate(0, 0)" opacity="1">ports</text></g><g id="sprotty_58" transform="translate(-16, 590)" opacity="1"><rect class="elkport" x="0" y="0" width="16" height="9" /><text id="sprotty_59" class="elklabel" transform="translate(-1, 10) translate(0, 0)" opacity="1">replicas</text></g><g id="sprotty_61" transform="translate(-16, 650)" opacity="1"><rect class="elkport" x="0" y="0" width="16" height="9" /><text id="sprotty_62" class="elklabel" transform="translate(-1, 10) translate(0, 0)" opacity="1">secret_name</text></g><g id="sprotty_102" transform="translate(-16, 710)" opacity="1"><rect class="elkport" x="0" y="0" width="16" height="9" /><text id="sprotty_103" class="elklabel" transform="translate(-1, 10) translate(0, 0)" opacity="1">overrides</text></g><g id="sprotty_184" transform="translate(-16, 770)" opacity="1"><rect class="elkport" x="0" y="0" width="16" height="9" /><text id="sprotty_185" class="elklabel" transform="translate(-1, 10) translate(0, 0)" opacity="1">rbac_cluster_role_rules</text></g><g id="sprotty_189" transform="translate(1618, 50)" opacity="1"><rect class="elkport" x="0" y="0" width="16" height="9" /><text id="sprotty_190" class="elklabel" transform="translate(17, 10) translate(0, 0)" opacity="1">deployment</text></g><g id="sprotty_192" transform="translate(1618, 110)" opacity="1"><rect class="elkport" x="0" y="0" width="16" height="9" /><text id="sprotty_193" class="elklabel" transform="translate(17, 10) translate(0, 0)" opacity="1">name</text></g><g id="sprotty_195" transform="translate(1618, 170)" opacity="1"><rect class="elkport" x="0" y="0" width="16" height="9" /><text id="sprotty_196" class="elklabel" transform="translate(17, 10) translate(0, 0)" opacity="1">service</text></g><text id="sprotty_17" class="elklabel" transform="translate(0, -21) translate(0, 0)" opacity="1">kube-griffiti</text></g><g id="sprotty_10" transform="translate(-16, 241)" opacity="1"><rect class="elkport" x="0" y="0" width="16" height="9" /><text id="sprotty_11" class="elklabel" transform="translate(-1, -1) translate(0, 0)" opacity="1">name</text></g><g id="sprotty_13" transform="translate(-16, 1137.5)" opacity="1"><rect class="elkport" x="0" y="0" width="16" height="9" /><text id="sprotty_14" class="elklabel" transform="translate(-1, 10) translate(0, 0)" opacity="1">namespace</text></g><text id="sprotty_4" class="elklabel" transform="translate(0, -21) translate(0, 0)" opacity="1">examples/kube-griffiti</text><g id="sprotty_9" class="sprotty-edge" opacity="1"><path class="elkedge" d="M 300,1152 L 517,1152" /><path class="edge arrow" d="M 0,0 L 8,-3 L 8,3 Z" transform="rotate(180 517 1152) translate(517 1152)" /></g><g id="sprotty_12" class="sprotty-edge" opacity="1"><path class="elkedge" d="M 0,245.5 L 400,245.5 L 400,1132 L 517,1132" /><path class="edge arrow" d="M 0,0 L 8,-3 L 8,3 Z" transform="rotate(180 517 1132) translate(517 1132)" /></g><g id="sprotty_15" class="sprotty-edge" opacity="1"><path class="elkedge" d="M 0,1142 L 100,1142" /><path class="edge arrow" d="M 0,0 L 8,-3 L 8,3 Z" transform="rotate(180 100 1142) translate(100 1142)" /></g><g id="sprotty_22" class="sprotty-edge" opacity="1"><path class="elkedge" d="M 517,126.48076923076923 L 617,138.7403846153846" /><path class="edge arrow" d="M 0,0 L 8,-3 L 8,3 Z" transform="rotate(-173.01063484366153 617 138.7403846153846) translate(617 138.7403846153846)" /></g><g id="sprotty_25" class="sprotty-edge" opacity="1"><path class="elkedge" d="M 517,184.1730769230769 L 617,167.58653846153845" /><path class="edge arrow" d="M 0,0 L 8,-3 L 8,3 Z" transform="rotate(170.58235285466571 617 167.58653846153845) translate(617 167.58653846153845)" /></g><g id="sprotty_28" class="sprotty-edge" opacity="1"><path class="elkedge" d="M 517,241.8653846153846 L 650.968253968254,181" /><path class="edge arrow" d="M 0,0 L 8,-3 L 8,3 Z" transform="rotate(155.5664230096372 650.968253968254 181) translate(650.968253968254 181)" /></g><g id="sprotty_31" class="sprotty-edge" opacity="1"><path class="elkedge" d="M 515.0582524271845,301 L 676.6116504854369,181" /><path class="edge arrow" d="M 0,0 L 8,-3 L 8,3 Z" transform="rotate(143.39546107211748 676.6116504854369 181) translate(676.6116504854369 181)" /></g><g id="sprotty_34" class="sprotty-edge" opacity="1"><path class="elkedge" d="M 513.3636363636364,361 L 687.9090909090909,181" /><path class="edge arrow" d="M 0,0 L 8,-3 L 8,3 Z" transform="rotate(134.11859600341785 687.9090909090909 181) translate(687.9090909090909 181)" /></g><g id="sprotty_37" class="sprotty-edge" opacity="1"><path class="elkedge" d="M 817,151 L 867,151" /><path class="edge arrow" d="M 0,0 L 8,-3 L 8,3 Z" transform="rotate(180 867 151) translate(867 151)" /></g><g id="sprotty_40" class="sprotty-edge" opacity="1"><path class="elkedge" d="M 1067,151 L 1117,151" /><path class="edge arrow" d="M 0,0 L 8,-3 L 8,3 Z" transform="rotate(180 1117 151) translate(1117 151)" /></g><g id="sprotty_45" class="sprotty-edge" opacity="1"><path class="elkedge" d="M 1534,302.6723076923077 L 1279.700964630225,181" /><path class="edge arrow" d="M 0,0 L 8,-3 L 8,3 Z" transform="rotate(25.569321621500535 1279.700964630225 181) translate(1279.700964630225 181)" /></g><g id="sprotty_48" class="sprotty-edge" opacity="1"><path class="elkedge" d="M 517,422.39830508474574 L 1139.622950819672,181" /><path class="edge arrow" d="M 0,0 L 8,-3 L 8,3 Z" transform="rotate(158.80809709032337 1139.622950819672 181) translate(1139.622950819672 181)" /></g><g id="sprotty_51" class="sprotty-edge" opacity="1"><path class="elkedge" d="M 517,481.72033898305085 L 1153.5022421524664,181" /><path class="edge arrow" d="M 0,0 L 8,-3 L 8,3 Z" transform="rotate(154.71125033264113 1153.5022421524664 181) translate(1153.5022421524664 181)" /></g><g id="sprotty_54" class="sprotty-edge" opacity="1"><path class="elkedge" d="M 517,541.042372881356 L 1163.1596958174905,181" /><path class="edge arrow" d="M 0,0 L 8,-3 L 8,3 Z" transform="rotate(150.87329986552595 1163.1596958174905 181) translate(1163.1596958174905 181)" /></g><g id="sprotty_57" class="sprotty-edge" opacity="1"><path class="elkedge" d="M 516.009900990099,601 L 1170.2673267326732,181" /><path class="edge arrow" d="M 0,0 L 8,-3 L 8,3 Z" transform="rotate(147.30160014778943 1170.2673267326732 181) translate(1170.2673267326732 181)" /></g><g id="sprotty_60" class="sprotty-edge" opacity="1"><path class="elkedge" d="M 515.1924198250729,661 L 1175.7172011661808,181" /><path class="edge arrow" d="M 0,0 L 8,-3 L 8,3 Z" transform="rotate(143.99428580470885 1175.7172011661808 181) translate(1175.7172011661808 181)" /></g><g id="sprotty_63" class="sprotty-edge" opacity="1"><path class="elkedge" d="M 514.5456919060052,721 L 1180.0287206266319,181" /><path class="edge arrow" d="M 0,0 L 8,-3 L 8,3 Z" transform="rotate(140.94271969280103 1180.0287206266319 181) translate(1180.0287206266319 181)" /></g><g id="sprotty_70" class="sprotty-edge" opacity="1"><path class="elkedge" d="M 1818,412 L 1818,362" /><path class="edge arrow" d="M 0,0 L 8,-3 L 8,3 Z" transform="rotate(90 1818 362) translate(1818 362)" /></g><g id="sprotty_75" class="sprotty-edge" opacity="1"><path class="elkedge" d="M 1818,632 L 1818,582" /><path class="edge arrow" d="M 0,0 L 8,-3 L 8,3 Z" transform="rotate(90 1818 582) translate(1818 582)" /></g><g id="sprotty_78" class="sprotty-edge" opacity="1"><path class="elkedge" d="M 1613.8126272912423,311 L 1792.582484725051,522" /><path class="edge arrow" d="M 0,0 L 8,-3 L 8,3 Z" transform="rotate(-130.27295566323377 1792.582484725051 522) translate(1792.582484725051 522)" /></g><g id="sprotty_81" class="sprotty-edge" opacity="1"><path class="elkedge" d="M 1818,742 L 1818,472" /><path class="edge arrow" d="M 0,0 L 8,-3 L 8,3 Z" transform="rotate(90 1818 472) translate(1818 472)" /></g><g id="sprotty_84" class="sprotty-edge" opacity="1"><path class="elkedge" d="M 1818,852 L 1818,692" /><path class="edge arrow" d="M 0,0 L 8,-3 L 8,3 Z" transform="rotate(90 1818 692) translate(1818 692)" /></g><g id="sprotty_87" class="sprotty-edge" opacity="1"><path class="elkedge" d="M 1611.815712900097,371 L 1805.8952473326867,852" /><path class="edge arrow" d="M 0,0 L 8,-3 L 8,3 Z" transform="rotate(-111.9736695371 1805.8952473326867 852) translate(1805.8952473326867 852)" /></g><g id="sprotty_88" class="sprotty-edge" opacity="1"><path class="elkedge" d="M 1818,852 L 1818,802" /><path class="edge arrow" d="M 0,0 L 8,-3 L 8,3 Z" transform="rotate(90 1818 802) translate(1818 802)" /></g><g id="sprotty_91" class="sprotty-edge" opacity="1"><path class="elkedge" d="M 1918,319.74038461538464 L 2018,307.4807692307692" /><path class="edge arrow" d="M 0,0 L 8,-3 L 8,3 Z" transform="rotate(173.0106348436615 2018 307.4807692307692) translate(2018 307.4807692307692)" /></g><g id="sprotty_94" class="sprotty-edge" opacity="1"><path class="elkedge" d="M 1830.1047526673133,852 L 2024.184287099903,371" /><path class="edge arrow" d="M 0,0 L 8,-3 L 8,3 Z" transform="rotate(111.9736695371 2024.184287099903 371) translate(2024.184287099903 371)" /></g><g id="sprotty_97" class="sprotty-edge" opacity="1"><path class="elkedge" d="M 1884.031746031746,362 L 2018,422.86538461538464" /><path class="edge arrow" d="M 0,0 L 8,-3 L 8,3 Z" transform="rotate(-155.5664230096372 2018 422.86538461538464) translate(2018 422.86538461538464)" /></g><g id="sprotty_100" class="sprotty-edge" opacity="1"><path class="elkedge" d="M 1913.2671755725191,522 L 2018,489.0192307692308" /><path class="edge arrow" d="M 0,0 L 8,-3 L 8,3 Z" transform="rotate(162.52058471831904 2018 489.0192307692308) translate(2018 489.0192307692308)" /></g><g id="sprotty_101" class="sprotty-edge" opacity="1"><path class="elkedge" d="M 1271.709976798144,181 L 1602,362.11323155216286" /><path class="edge arrow" d="M 0,0 L 8,-3 L 8,3 Z" transform="rotate(-151.2620125453578 1602 362.11323155216286) translate(1602 362.11323155216286)" /></g><g id="sprotty_104" class="sprotty-edge" opacity="1"><path class="elkedge" d="M 517,782.4554950045414 L 1602,369.5445049954587" /><path class="edge arrow" d="M 0,0 L 8,-3 L 8,3 Z" transform="rotate(159.16502074997143 1602 369.5445049954587) translate(1602 369.5445049954587)" /></g><g id="sprotty_109" class="sprotty-edge" opacity="1"><path class="elkedge" d="M 984,332 L 934,332" /><path class="edge arrow" d="M 0,0 L 8,-3 L 8,3 Z" transform="rotate(0 934 332) translate(934 332)" /></g><g id="sprotty_114" class="sprotty-edge" opacity="1"><path class="elkedge" d="M 934,420 L 1234,354" /><path class="edge arrow" d="M 0,0 L 8,-3 L 8,3 Z" transform="rotate(167.59258147259925 1234 354) translate(1234 354)" /></g><g id="sprotty_119" class="sprotty-edge" opacity="1"><path class="elkedge" d="M 1234,442 L 1184,442" /><path class="edge arrow" d="M 0,0 L 8,-3 L 8,3 Z" transform="rotate(0 1184 442) translate(1184 442)" /></g><g id="sprotty_122" class="sprotty-edge" opacity="1"><path class="elkedge" d="M 634,308.8668122270742 L 984,412.4148471615721" /><path class="edge arrow" d="M 0,0 L 8,-3 L 8,3 Z" transform="rotate(-163.51906811785517 984 412.4148471615721) translate(984 412.4148471615721)" /></g><g id="sprotty_127" class="sprotty-edge" opacity="1"><path class="elkedge" d="M 984,552 L 934,552" /><path class="edge arrow" d="M 0,0 L 8,-3 L 8,3 Z" transform="rotate(0 934 552) translate(934 552)" /></g><g id="sprotty_132" class="sprotty-edge" opacity="1"><path class="elkedge" d="M 934,640 L 1234,574" /><path class="edge arrow" d="M 0,0 L 8,-3 L 8,3 Z" transform="rotate(167.59258147259925 1234 574) translate(1234 574)" /></g><g id="sprotty_135" class="sprotty-edge" opacity="1"><path class="elkedge" d="M 634,368.5960451977401 L 1234,525.7994350282486" /><path class="edge arrow" d="M 0,0 L 8,-3 L 8,3 Z" transform="rotate(-165.31819760293897 1234 525.7994350282486) translate(1234 525.7994350282486)" /></g><g id="sprotty_140" class="sprotty-edge" opacity="1"><path class="elkedge" d="M 634,430.6135371179039 L 1025.656050955414,632" /><path class="edge arrow" d="M 0,0 L 8,-3 L 8,3 Z" transform="rotate(-152.78812859608504 1025.656050955414 632) translate(1025.656050955414 632)" /></g><g id="sprotty_143" class="sprotty-edge" opacity="1"><path class="elkedge" d="M 634,489.5655021834061 L 1005.7094017094017,632" /><path class="edge arrow" d="M 0,0 L 8,-3 L 8,3 Z" transform="rotate(-159.03377842411962 1005.7094017094017 632) translate(1005.7094017094017 632)" /></g><g id="sprotty_146" class="sprotty-edge" opacity="1"><path class="elkedge" d="M 1184,662 L 1234,662" /><path class="edge arrow" d="M 0,0 L 8,-3 L 8,3 Z" transform="rotate(180 1234 662) translate(1234 662)" /></g><g id="sprotty_149" class="sprotty-edge" opacity="1"><path class="elkedge" d="M 628.0107411385607,311 L 820.595059076262,742" /><path class="edge arrow" d="M 0,0 L 8,-3 L 8,3 Z" transform="rotate(-114.0765897487924 820.595059076262 742) translate(820.595059076262 742)" /></g><g id="sprotty_152" class="sprotty-edge" opacity="1"><path class="elkedge" d="M 1084,742 L 1084,362" /><path class="edge arrow" d="M 0,0 L 8,-3 L 8,3 Z" transform="rotate(90 1084 362) translate(1084 362)" /></g><g id="sprotty_155" class="sprotty-edge" opacity="1"><path class="elkedge" d="M 634,542.7532751091703 L 1019.9440559440559,362" /><path class="edge arrow" d="M 0,0 L 8,-3 L 8,3 Z" transform="rotate(154.90439887692173 1019.9440559440559 362) translate(1019.9440559440559 362)" /></g><g id="sprotty_156" class="sprotty-edge" opacity="1"><path class="elkedge" d="M 1334,632 L 1334,472" /><path class="edge arrow" d="M 0,0 L 8,-3 L 8,3 Z" transform="rotate(90 1334 472) translate(1334 472)" /></g><g id="sprotty_159" class="sprotty-edge" opacity="1"><path class="elkedge" d="M 1334,742 L 1334,472" /><path class="edge arrow" d="M 0,0 L 8,-3 L 8,3 Z" transform="rotate(90 1334 472) translate(1334 472)" /></g><g id="sprotty_160" class="sprotty-edge" opacity="1"><path class="elkedge" d="M 1049.909090909091,632 L 868.0909090909091,472" /><path class="edge arrow" d="M 0,0 L 8,-3 L 8,3 Z" transform="rotate(41.34777721969366 868.0909090909091 472) translate(868.0909090909091 472)" /></g><g id="sprotty_161" class="sprotty-edge" opacity="1"><path class="elkedge" d="M 834,742 L 834,472" /><path class="edge arrow" d="M 0,0 L 8,-3 L 8,3 Z" transform="rotate(90 834 472) translate(834 472)" /></g><g id="sprotty_162" class="sprotty-edge" opacity="1"><path class="elkedge" d="M 634,542.4807692307693 L 774.2870813397129,472" /><path class="edge arrow" d="M 0,0 L 8,-3 L 8,3 Z" transform="rotate(153.3248706115522 774.2870813397129 472) translate(774.2870813397129 472)" /></g><g id="sprotty_165" class="sprotty-edge" opacity="1"><path class="elkedge" d="M 834,852 L 834,692" /><path class="edge arrow" d="M 0,0 L 8,-3 L 8,3 Z" transform="rotate(90 834 692) translate(834 692)" /></g><g id="sprotty_166" class="sprotty-edge" opacity="1"><path class="elkedge" d="M 1234,750 L 934,684" /><path class="edge arrow" d="M 0,0 L 8,-3 L 8,3 Z" transform="rotate(12.407418527400743 934 684) translate(934 684)" /></g><g id="sprotty_167" class="sprotty-edge" opacity="1"><path class="elkedge" d="M 1084,742 L 1084,582" /><path class="edge arrow" d="M 0,0 L 8,-3 L 8,3 Z" transform="rotate(90 1084 582) translate(1084 582)" /></g><g id="sprotty_170" class="sprotty-edge" opacity="1"><path class="elkedge" d="M 1084,852 L 1084,582" /><path class="edge arrow" d="M 0,0 L 8,-3 L 8,3 Z" transform="rotate(90 1084 582) translate(1084 582)" /></g><g id="sprotty_171" class="sprotty-edge" opacity="1"><path class="elkedge" d="M 634,546.5960698689956 L 984,550.7991266375545" /><path class="edge arrow" d="M 0,0 L 8,-3 L 8,3 Z" transform="rotate(-179.3119833176395 984 550.7991266375545) translate(984 550.7991266375545)" /></g><g id="sprotty_174" class="sprotty-edge" opacity="1"><path class="elkedge" d="M 632.9945115257958,431 L 1287.3699231613612,852" /><path class="edge arrow" d="M 0,0 L 8,-3 L 8,3 Z" transform="rotate(-147.24432774527776 1287.3699231613612 852) translate(1287.3699231613612 852)" /></g><g id="sprotty_175" class="sprotty-edge" opacity="1"><path class="elkedge" d="M 1265.818181818182,852 L 1152.181818181818,802" /><path class="edge arrow" d="M 0,0 L 8,-3 L 8,3 Z" transform="rotate(23.749494492866702 1152.181818181818 802) translate(1152.181818181818 802)" /></g><g id="sprotty_176" class="sprotty-edge" opacity="1"><path class="elkedge" d="M 633.2189141856393,491 L 1035.8739054290718,742" /><path class="edge arrow" d="M 0,0 L 8,-3 L 8,3 Z" transform="rotate(-148.0621360923082 1035.8739054290718 742) translate(1035.8739054290718 742)" /></g><g id="sprotty_177" class="sprotty-edge" opacity="1"><path class="elkedge" d="M 628.0548847420417,431 L 820.3007683863887,852" /><path class="edge arrow" d="M 0,0 L 8,-3 L 8,3 Z" transform="rotate(-114.54338541936511 820.3007683863887 852) translate(820.3007683863887 852)" /></g><g id="sprotty_178" class="sprotty-edge" opacity="1"><path class="elkedge" d="M 629.9980601357905,371 L 1057.3462657613968,852" /><path class="edge arrow" d="M 0,0 L 8,-3 L 8,3 Z" transform="rotate(-131.61973894434882 1057.3462657613968 852) translate(1057.3462657613968 852)" /></g><g id="sprotty_179" class="sprotty-edge" opacity="1"><path class="elkedge" d="M 868.0909090909091,362 L 1299.909090909091,742" /><path class="edge arrow" d="M 0,0 L 8,-3 L 8,3 Z" transform="rotate(-138.65222278030637 1299.909090909091 742) translate(1299.909090909091 742)" /></g><g id="sprotty_182" class="sprotty-edge" opacity="1"><path class="elkedge" d="M 934,336.87288135593224 L 1534,366.1101694915254" /><path class="edge arrow" d="M 0,0 L 8,-3 L 8,3 Z" transform="rotate(-177.21025132948532 1534 366.1101694915254) translate(1534 366.1101694915254)" /></g><g id="sprotty_183" class="sprotty-edge" opacity="1"><path class="elkedge" d="M 934,328.39830508474574 L 1534,306.7881355932203" /><path class="edge arrow" d="M 0,0 L 8,-3 L 8,3 Z" transform="rotate(177.9372724518615 1534 306.7881355932203) translate(1534 306.7881355932203)" /></g><g id="sprotty_186" class="sprotty-edge" opacity="1"><path class="elkedge" d="M 509.9768089053803,841 L 625.0231910946196,311" /><path class="edge arrow" d="M 0,0 L 8,-3 L 8,3 Z" transform="rotate(102.24711981395005 625.0231910946196 311) translate(625.0231910946196 311)" /></g><g id="sprotty_187" class="sprotty-edge" opacity="1"><path class="elkedge" d="M 511.9088397790055,250 L 623.0911602209944,422" /><path class="edge arrow" d="M 0,0 L 8,-3 L 8,3 Z" transform="rotate(-122.87898454741425 623.0911602209944 422) translate(623.0911602209944 422)" /></g><g id="sprotty_188" class="sprotty-edge" opacity="1"><path class="elkedge" d="M 511.9088397790055,310 L 623.0911602209944,482" /><path class="edge arrow" d="M 0,0 L 8,-3 L 8,3 Z" transform="rotate(-122.87898454741425 623.0911602209944 482) translate(623.0911602209944 482)" /></g><g id="sprotty_191" class="sprotty-edge" opacity="1"><path class="elkedge" d="M 2028.9088397790056,302 L 2140.0911602209944,130" /><path class="edge arrow" d="M 0,0 L 8,-3 L 8,3 Z" transform="rotate(122.8789845474142 2140.0911602209944 130) translate(2140.0911602209944 130)" /></g><g id="sprotty_194" class="sprotty-edge" opacity="1"><path class="elkedge" d="M 2028.1846473029045,422 L 2140.8153526970955,190" /><path class="edge arrow" d="M 0,0 L 8,-3 L 8,3 Z" transform="rotate(115.89551494909038 2140.8153526970955 190) translate(2140.8153526970955 190)" /></g><g id="sprotty_197" class="sprotty-edge" opacity="1"><path class="elkedge" d="M 2028.1846473029045,482 L 2140.8153526970955,250" /><path class="edge arrow" d="M 0,0 L 8,-3 L 8,3 Z" transform="rotate(115.89551494909038 2140.8153526970955 250) translate(2140.8153526970955 250)" /></g><g id="sprotty_198" class="sprotty-edge" opacity="1"><path class="elkedge" d="M 0,245.5 L 501,245.5" /><path class="edge arrow" d="M 0,0 L 8,-3 L 8,3 Z" transform="rotate(180 501 245.5) translate(501 245.5)" /></g><g id="sprotty_199" class="sprotty-edge" opacity="1"><path class="elkedge" d="M 300,1132 L 350,1132 L 350,305.5 L 501,305.5" /><path class="edge arrow" d="M 0,0 L 8,-3 L 8,3 Z" transform="rotate(180 501 305.5) translate(501 305.5)" /></g><g id="sprotty_200" class="sprotty-edge" opacity="1"><path class="elkedge" d="M 0,245.5 L 400,245.5 L 400,725.5 L 501,725.5" /><path class="edge arrow" d="M 0,0 L 8,-3 L 8,3 Z" transform="rotate(180 501 725.5) translate(501 725.5)" /><g id="sprotty_200_j0" transform="translate(400, 245.5)" opacity="1"><circle class="elkjunction" r="2" /></g><g id="sprotty_200_j1" transform="translate(400, 725.5)" opacity="1"><circle class="elkjunction" r="2" /></g></g></g></g></svg>
