<svg id="sprotty_1" class="sprotty-graph sprotty" tabindex="1002" xmlns="http://www.w3.org/2000/svg" viewBox="0 0 4503 1891.7142857142858"><style>
.elknode {
    stroke: #448;
    stroke-width: 2;
    fill: #ddf;
    fill-opacity: 0.5;
}

.elkport {
    stroke: #448;
    stroke-width: 1;
    fill: #66c;
}

.elkedge {
    fill: none;
    stroke: #88f;
    stroke-width: 8;
    stroke-opacity: 0.3;
    pointer-events: stroke;
    stroke-linejoin: round;
}

.elkedge:hover {
    stroke: #448;
    stroke-width: 8;
    stroke-opacity: 1;
    stroke-dasharray: 16px;
    stroke-dashoffset: 32px;
    animation: stroke 0.5s linear infinite;
}

@keyframes stroke {
    to {
        stroke-dashoffset: 0;
    }
}

.elkedge.arrow {
    fill: #336;
}

.elklabel {
    stroke-width: 0;
    stroke: #000;
    fill: #000;
    font-family: sans-serif;
    font-size: 10pt;
    dominant-baseline: hanging;
}

.elklabel:hover {
    font-size: 24pt;
}

.elkjunction {
    stroke: none;
    fill: #224;
}

.selected &gt; rect {
    stroke-width: 3;
}

.mouseover {
    stroke: #88f;
}
/*
 * Copyright (C) 2017 TypeFox and others.
 *
 * Licensed under the Apache License, Version 2.0 (the &quot;License&quot;); you may not use this file except in compliance with the License.
 * You may obtain a copy of the License at http://www.apache.org/licenses/LICENSE-2.0
 */

.sprotty {
    padding: 0px;
    font-family: &quot;Helvetica Neue&quot;, Helvetica, Arial, sans-serif;
}

.sprotty-hidden {
    display: block;
    position: absolute;
    width: 0px;
    height: 0px;
}

.sprotty-popup {
    font-family: &quot;Helvetica Neue&quot;, Helvetica, Arial, sans-serif;
    position: absolute;
    background: white;
    border-radius: 5px;
    border: 1px solid;
    max-width: 400px;
    min-width: 100px;
}

.sprotty-popup &gt; div {
    margin: 10px;
}

.sprotty-popup-closed {
    display: none;
}
</style><g transform="scale(1) translate(0,0)"><g id="sprotty_3" transform="translate(117, 71)" opacity="1"><rect class="elknode" x="0" y="0" rx="10" width="4286" height="1770.7142857142858" /><g id="sprotty_5" transform="translate(100, 1518.2142857142858)" opacity="1"><rect class="elknode" x="0" y="0" rx="10" width="200" height="60" /><text id="sprotty_6" class="elklabel" transform="translate(5, 22) translate(0, 0)" opacity="1">k8s_core_v1_namespace.this</text></g><g id="sprotty_10" transform="translate(1495, 1605.2142857142858)" opacity="1"><rect class="elknode" x="0" y="0" rx="10" width="200" height="60" /><text id="sprotty_11" class="elklabel" transform="translate(5, 22) translate(0, 0)" opacity="1">k8s_core_v1_persistent_volume_claim.this</text></g><g id="sprotty_16" transform="translate(3986, 1497.2142857142858)" opacity="1"><rect class="elknode" x="0" y="0" rx="10" width="200" height="60" /><text id="sprotty_17" class="elklabel" transform="translate(5, 22) translate(0, 0)" opacity="1">k8s_networking_k8s_io_v1beta1_ingress.this</text></g><g id="sprotty_19" transform="translate(2885, 652.2142857142858)" opacity="1"><rect class="elknode" x="0" y="0" rx="10" width="884" height="830" /><g id="sprotty_27" transform="translate(100, 50)" opacity="1"><rect class="elknode" x="0" y="0" rx="10" width="200" height="60" /><text id="sprotty_28" class="elklabel" transform="translate(5, 22) translate(0, 0)" opacity="1">local.parameters</text></g><g id="sprotty_65" transform="translate(350, 50)" opacity="1"><rect class="elknode" x="0" y="0" rx="10" width="200" height="60" /><text id="sprotty_66" class="elklabel" transform="translate(5, 22) translate(0, 0)" opacity="1">module.deployment-service</text></g><g id="sprotty_70" transform="translate(117, 181)" opacity="1"><rect class="elknode" x="0" y="0" rx="10" width="650" height="490" /><g id="sprotty_72" transform="translate(100, 50)" opacity="1"><rect class="elknode" x="0" y="0" rx="10" width="200" height="60" /><text id="sprotty_73" class="elklabel" transform="translate(5, 22) translate(0, 0)" opacity="1">k8s_apps_v1_deployment.this</text></g><g id="sprotty_74" transform="translate(350, 50)" opacity="1"><rect class="elknode" x="0" y="0" rx="10" width="200" height="60" /><text id="sprotty_75" class="elklabel" transform="translate(5, 22) translate(0, 0)" opacity="1">local.k8s_apps_v1_deployment_parameters</text></g><g id="sprotty_77" transform="translate(100, 160)" opacity="1"><rect class="elknode" x="0" y="0" rx="10" width="200" height="60" /><text id="sprotty_78" class="elklabel" transform="translate(5, 22) translate(0, 0)" opacity="1">k8s_core_v1_service.this</text></g><g id="sprotty_79" transform="translate(350, 160)" opacity="1"><rect class="elknode" x="0" y="0" rx="10" width="200" height="60" /><text id="sprotty_80" class="elklabel" transform="translate(5, 22) translate(0, 0)" opacity="1">local.enable_service</text></g><g id="sprotty_82" transform="translate(100, 270)" opacity="1"><rect class="elknode" x="0" y="0" rx="10" width="200" height="60" /><text id="sprotty_83" class="elklabel" transform="translate(5, 22) translate(0, 0)" opacity="1">local.k8s_core_v1_service_parameters</text></g><g id="sprotty_88" transform="translate(350, 270)" opacity="1"><rect class="elknode" x="0" y="0" rx="10" width="200" height="60" /><text id="sprotty_89" class="elklabel" transform="translate(5, 22) translate(0, 0)" opacity="1">local.podAnnotations</text></g><g id="sprotty_91" transform="translate(100, 380)" opacity="1"><rect class="elknode" x="0" y="0" rx="10" width="200" height="60" /><text id="sprotty_92" class="elklabel" transform="translate(5, 22) translate(0, 0)" opacity="1">local.selector</text></g><g id="sprotty_94" transform="translate(350, 380)" opacity="1"><rect class="elknode" x="0" y="0" rx="10" width="200" height="60" /><text id="sprotty_95" class="elklabel" transform="translate(5, 22) translate(0, 0)" opacity="1">local.labels</text></g><g id="sprotty_85" transform="translate(-16, 50)" opacity="1"><rect class="elkport" x="0" y="0" width="16" height="9" /><text id="sprotty_86" class="elklabel" transform="translate(-1, -1) translate(0, 0)" opacity="1">parameters</text></g><g id="sprotty_99" transform="translate(-16, 110)" opacity="1"><rect class="elkport" x="0" y="0" width="16" height="9" /><text id="sprotty_100" class="elklabel" transform="translate(-1, 10) translate(0, 0)" opacity="1">podAnnotations</text></g><g id="sprotty_103" transform="translate(650, 50)" opacity="1"><rect class="elkport" x="0" y="0" width="16" height="9" /><text id="sprotty_104" class="elklabel" transform="translate(17, 10) translate(0, 0)" opacity="1">deployment</text></g><g id="sprotty_106" transform="translate(650, 110)" opacity="1"><rect class="elkport" x="0" y="0" width="16" height="9" /><text id="sprotty_107" class="elklabel" transform="translate(17, 10) translate(0, 0)" opacity="1">labels</text></g><g id="sprotty_109" transform="translate(650, 170)" opacity="1"><rect class="elkport" x="0" y="0" width="16" height="9" /><text id="sprotty_110" class="elklabel" transform="translate(17, 10) translate(0, 0)" opacity="1">name</text></g><g id="sprotty_112" transform="translate(650, 230)" opacity="1"><rect class="elkport" x="0" y="0" width="16" height="9" /><text id="sprotty_113" class="elklabel" transform="translate(17, 10) translate(0, 0)" opacity="1">service</text></g><text id="sprotty_71" class="elklabel" transform="translate(0, -21) translate(0, 0)" opacity="1">deployment-service</text></g><g id="sprotty_21" transform="translate(884, 50)" opacity="1"><rect class="elkport" x="0" y="0" width="16" height="9" /><text id="sprotty_22" class="elklabel" transform="translate(17, 10) translate(0, 0)" opacity="1">name</text></g><g id="sprotty_24" transform="translate(884, 110)" opacity="1"><rect class="elkport" x="0" y="0" width="16" height="9" /><text id="sprotty_25" class="elklabel" transform="translate(17, 10) translate(0, 0)" opacity="1">ports</text></g><g id="sprotty_29" transform="translate(-16, 50)" opacity="1"><rect class="elkport" x="0" y="0" width="16" height="9" /><text id="sprotty_30" class="elklabel" transform="translate(-1, 10) translate(0, 0)" opacity="1">MATOMO_DATABASE_DBNAME</text></g><g id="sprotty_32" transform="translate(-16, 110)" opacity="1"><rect class="elkport" x="0" y="0" width="16" height="9" /><text id="sprotty_33" class="elklabel" transform="translate(-1, 10) translate(0, 0)" opacity="1">MATOMO_DATABASE_HOST</text></g><g id="sprotty_35" transform="translate(-16, 170)" opacity="1"><rect class="elkport" x="0" y="0" width="16" height="9" /><text id="sprotty_36" class="elklabel" transform="translate(-1, 10) translate(0, 0)" opacity="1">MATOMO_DATABASE_PASSWORD</text></g><g id="sprotty_38" transform="translate(-16, 230)" opacity="1"><rect class="elkport" x="0" y="0" width="16" height="9" /><text id="sprotty_39" class="elklabel" transform="translate(-1, 10) translate(0, 0)" opacity="1">MATOMO_DATABASE_USERNAME</text></g><g id="sprotty_41" transform="translate(-16, 290)" opacity="1"><rect class="elkport" x="0" y="0" width="16" height="9" /><text id="sprotty_42" class="elklabel" transform="translate(-1, 10) translate(0, 0)" opacity="1">annotations</text></g><g id="sprotty_44" transform="translate(-16, 350)" opacity="1"><rect class="elkport" x="0" y="0" width="16" height="9" /><text id="sprotty_45" class="elklabel" transform="translate(-1, 10) translate(0, 0)" opacity="1">env</text></g><g id="sprotty_47" transform="translate(-16, 410)" opacity="1"><rect class="elkport" x="0" y="0" width="16" height="9" /><text id="sprotty_48" class="elklabel" transform="translate(-1, 10) translate(0, 0)" opacity="1">image</text></g><g id="sprotty_50" transform="translate(-16, 470)" opacity="1"><rect class="elkport" x="0" y="0" width="16" height="9" /><text id="sprotty_51" class="elklabel" transform="translate(-1, 10) translate(0, 0)" opacity="1">name</text></g><g id="sprotty_53" transform="translate(-16, 530)" opacity="1"><rect class="elkport" x="0" y="0" width="16" height="9" /><text id="sprotty_54" class="elklabel" transform="translate(-1, 10) translate(0, 0)" opacity="1">namespace</text></g><g id="sprotty_56" transform="translate(-16, 590)" opacity="1"><rect class="elkport" x="0" y="0" width="16" height="9" /><text id="sprotty_57" class="elklabel" transform="translate(-1, 10) translate(0, 0)" opacity="1">ports</text></g><g id="sprotty_59" transform="translate(-16, 650)" opacity="1"><rect class="elkport" x="0" y="0" width="16" height="9" /><text id="sprotty_60" class="elklabel" transform="translate(-1, 10) translate(0, 0)" opacity="1">pvc_name</text></g><g id="sprotty_62" transform="translate(-16, 710)" opacity="1"><rect class="elkport" x="0" y="0" width="16" height="9" /><text id="sprotty_63" class="elklabel" transform="translate(-1, 10) translate(0, 0)" opacity="1">replicas</text></g><g id="sprotty_117" transform="translate(-16, 770)" opacity="1"><rect class="elkport" x="0" y="0" width="16" height="9" /><text id="sprotty_118" class="elklabel" transform="translate(-1, 10) translate(0, 0)" opacity="1">overrides</text></g><g id="sprotty_121" transform="translate(884, 170)" opacity="1"><rect class="elkport" x="0" y="0" width="16" height="9" /><text id="sprotty_122" class="elklabel" transform="translate(17, 10) translate(0, 0)" opacity="1">deployment</text></g><g id="sprotty_126" transform="translate(884, 230)" opacity="1"><rect class="elkport" x="0" y="0" width="16" height="9" /><text id="sprotty_127" class="elklabel" transform="translate(17, 10) translate(0, 0)" opacity="1">service</text></g><text id="sprotty_20" class="elklabel" transform="translate(0, -21) translate(0, 0)" opacity="1">matomo</text></g><g id="sprotty_67" transform="translate(1951, 1371)" opacity="1"><rect class="elknode" x="0" y="0" rx="10" width="200" height="60" /><text id="sprotty_68" class="elklabel" transform="translate(5, 22) translate(0, 0)" opacity="1">module.matomo</text></g><g id="sprotty_131" transform="translate(1267, 71)" opacity="1"><rect class="elknode" x="0" y="0" rx="10" width="884" height="1190" /><g id="sprotty_150" transform="translate(100, 50)" opacity="1"><rect class="elknode" x="0" y="0" rx="10" width="200" height="60" /><text id="sprotty_151" class="elklabel" transform="translate(5, 22) translate(0, 0)" opacity="1">local.parameters</text></g><g id="sprotty_203" transform="translate(350, 50)" opacity="1"><rect class="elknode" x="0" y="0" rx="10" width="200" height="60" /><text id="sprotty_204" class="elklabel" transform="translate(5, 22) translate(0, 0)" opacity="1">module.statefulset-service</text></g><g id="sprotty_208" transform="translate(117, 181)" opacity="1"><rect class="elknode" x="0" y="0" rx="10" width="650" height="490" /><g id="sprotty_210" transform="translate(100, 50)" opacity="1"><rect class="elknode" x="0" y="0" rx="10" width="200" height="60" /><text id="sprotty_211" class="elklabel" transform="translate(5, 22) translate(0, 0)" opacity="1">k8s_apps_v1_stateful_set.this</text></g><g id="sprotty_212" transform="translate(350, 50)" opacity="1"><rect class="elknode" x="0" y="0" rx="10" width="200" height="60" /><text id="sprotty_213" class="elklabel" transform="translate(5, 22) translate(0, 0)" opacity="1">local.k8s_apps_v1_stateful_set_parameters</text></g><g id="sprotty_215" transform="translate(100, 160)" opacity="1"><rect class="elknode" x="0" y="0" rx="10" width="200" height="60" /><text id="sprotty_216" class="elklabel" transform="translate(5, 22) translate(0, 0)" opacity="1">k8s_core_v1_service.this</text></g><g id="sprotty_217" transform="translate(350, 160)" opacity="1"><rect class="elknode" x="0" y="0" rx="10" width="200" height="60" /><text id="sprotty_218" class="elklabel" transform="translate(5, 22) translate(0, 0)" opacity="1">local.enable_service</text></g><g id="sprotty_220" transform="translate(100, 270)" opacity="1"><rect class="elknode" x="0" y="0" rx="10" width="200" height="60" /><text id="sprotty_221" class="elklabel" transform="translate(5, 22) translate(0, 0)" opacity="1">local.k8s_core_v1_service_parameters</text></g><g id="sprotty_226" transform="translate(350, 270)" opacity="1"><rect class="elknode" x="0" y="0" rx="10" width="200" height="60" /><text id="sprotty_227" class="elklabel" transform="translate(5, 22) translate(0, 0)" opacity="1">local.podAnnotations</text></g><g id="sprotty_229" transform="translate(100, 380)" opacity="1"><rect class="elknode" x="0" y="0" rx="10" width="200" height="60" /><text id="sprotty_230" class="elklabel" transform="translate(5, 22) translate(0, 0)" opacity="1">local.selector</text></g><g id="sprotty_232" transform="translate(350, 380)" opacity="1"><rect class="elknode" x="0" y="0" rx="10" width="200" height="60" /><text id="sprotty_233" class="elklabel" transform="translate(5, 22) translate(0, 0)" opacity="1">local.labels</text></g><g id="sprotty_223" transform="translate(-16, 50)" opacity="1"><rect class="elkport" x="0" y="0" width="16" height="9" /><text id="sprotty_224" class="elklabel" transform="translate(-1, -1) translate(0, 0)" opacity="1">parameters</text></g><g id="sprotty_237" transform="translate(-16, 110)" opacity="1"><rect class="elkport" x="0" y="0" width="16" height="9" /><text id="sprotty_238" class="elklabel" transform="translate(-1, 10) translate(0, 0)" opacity="1">podAnnotations</text></g><g id="sprotty_241" transform="translate(650, 50)" opacity="1"><rect class="elkport" x="0" y="0" width="16" height="9" /><text id="sprotty_242" class="elklabel" transform="translate(17, 10) translate(0, 0)" opacity="1">labels</text></g><g id="sprotty_244" transform="translate(650, 110)" opacity="1"><rect class="elkport" x="0" y="0" width="16" height="9" /><text id="sprotty_245" class="elklabel" transform="translate(17, 10) translate(0, 0)" opacity="1">name</text></g><g id="sprotty_247" transform="translate(650, 170)" opacity="1"><rect class="elkport" x="0" y="0" width="16" height="9" /><text id="sprotty_248" class="elklabel" transform="translate(17, 10) translate(0, 0)" opacity="1">service</text></g><g id="sprotty_250" transform="translate(650, 230)" opacity="1"><rect class="elkport" x="0" y="0" width="16" height="9" /><text id="sprotty_251" class="elklabel" transform="translate(17, 10) translate(0, 0)" opacity="1">statefulset</text></g><text id="sprotty_209" class="elklabel" transform="translate(0, -21) translate(0, 0)" opacity="1">statefulset-service</text></g><g id="sprotty_133" transform="translate(884, 50)" opacity="1"><rect class="elkport" x="0" y="0" width="16" height="9" /><text id="sprotty_134" class="elklabel" transform="translate(17, 10) translate(0, 0)" opacity="1">name</text></g><g id="sprotty_152" transform="translate(-16, 50)" opacity="1"><rect class="elkport" x="0" y="0" width="16" height="9" /><text id="sprotty_153" class="elklabel" transform="translate(-1, 10) translate(0, 0)" opacity="1">MYSQL_DATABASE</text></g><g id="sprotty_155" transform="translate(-16, 110)" opacity="1"><rect class="elkport" x="0" y="0" width="16" height="9" /><text id="sprotty_156" class="elklabel" transform="translate(-1, 10) translate(0, 0)" opacity="1">MYSQL_PASSWORD</text></g><g id="sprotty_158" transform="translate(-16, 170)" opacity="1"><rect class="elkport" x="0" y="0" width="16" height="9" /><text id="sprotty_159" class="elklabel" transform="translate(-1, 10) translate(0, 0)" opacity="1">MYSQL_ROOT_HOST</text></g><g id="sprotty_161" transform="translate(-16, 230)" opacity="1"><rect class="elkport" x="0" y="0" width="16" height="9" /><text id="sprotty_162" class="elklabel" transform="translate(-1, 10) translate(0, 0)" opacity="1">MYSQL_ROOT_PASSWORD</text></g><g id="sprotty_164" transform="translate(-16, 290)" opacity="1"><rect class="elkport" x="0" y="0" width="16" height="9" /><text id="sprotty_165" class="elklabel" transform="translate(-1, 10) translate(0, 0)" opacity="1">MYSQL_USER</text></g><g id="sprotty_167" transform="translate(-16, 350)" opacity="1"><rect class="elkport" x="0" y="0" width="16" height="9" /><text id="sprotty_168" class="elklabel" transform="translate(-1, 10) translate(0, 0)" opacity="1">TZ</text></g><g id="sprotty_170" transform="translate(-16, 410)" opacity="1"><rect class="elkport" x="0" y="0" width="16" height="9" /><text id="sprotty_171" class="elklabel" transform="translate(-1, 10) translate(0, 0)" opacity="1">annotations</text></g><g id="sprotty_173" transform="translate(-16, 470)" opacity="1"><rect class="elkport" x="0" y="0" width="16" height="9" /><text id="sprotty_174" class="elklabel" transform="translate(-1, 10) translate(0, 0)" opacity="1">args</text></g><g id="sprotty_176" transform="translate(-16, 530)" opacity="1"><rect class="elkport" x="0" y="0" width="16" height="9" /><text id="sprotty_177" class="elklabel" transform="translate(-1, 10) translate(0, 0)" opacity="1">env</text></g><g id="sprotty_179" transform="translate(-16, 590)" opacity="1"><rect class="elkport" x="0" y="0" width="16" height="9" /><text id="sprotty_180" class="elklabel" transform="translate(-1, 10) translate(0, 0)" opacity="1">image</text></g><g id="sprotty_182" transform="translate(-16, 650)" opacity="1"><rect class="elkport" x="0" y="0" width="16" height="9" /><text id="sprotty_183" class="elklabel" transform="translate(-1, 10) translate(0, 0)" opacity="1">name</text></g><g id="sprotty_185" transform="translate(-16, 710)" opacity="1"><rect class="elkport" x="0" y="0" width="16" height="9" /><text id="sprotty_186" class="elklabel" transform="translate(-1, 10) translate(0, 0)" opacity="1">namespace</text></g><g id="sprotty_188" transform="translate(-16, 770)" opacity="1"><rect class="elkport" x="0" y="0" width="16" height="9" /><text id="sprotty_189" class="elklabel" transform="translate(-1, 10) translate(0, 0)" opacity="1">ports</text></g><g id="sprotty_191" transform="translate(-16, 830)" opacity="1"><rect class="elkport" x="0" y="0" width="16" height="9" /><text id="sprotty_192" class="elklabel" transform="translate(-1, 10) translate(0, 0)" opacity="1">replicas</text></g><g id="sprotty_194" transform="translate(-16, 890)" opacity="1"><rect class="elkport" x="0" y="0" width="16" height="9" /><text id="sprotty_195" class="elklabel" transform="translate(-1, 10) translate(0, 0)" opacity="1">storage</text></g><g id="sprotty_197" transform="translate(-16, 950)" opacity="1"><rect class="elkport" x="0" y="0" width="16" height="9" /><text id="sprotty_198" class="elklabel" transform="translate(-1, 10) translate(0, 0)" opacity="1">storage_class</text></g><g id="sprotty_200" transform="translate(-16, 1010)" opacity="1"><rect class="elkport" x="0" y="0" width="16" height="9" /><text id="sprotty_201" class="elklabel" transform="translate(-1, 10) translate(0, 0)" opacity="1">volume_claim_template_name</text></g><g id="sprotty_255" transform="translate(-16, 1070)" opacity="1"><rect class="elkport" x="0" y="0" width="16" height="9" /><text id="sprotty_256" class="elklabel" transform="translate(-1, 10) translate(0, 0)" opacity="1">overrides</text></g><g id="sprotty_260" transform="translate(884, 110)" opacity="1"><rect class="elkport" x="0" y="0" width="16" height="9" /><text id="sprotty_261" class="elklabel" transform="translate(17, 10) translate(0, 0)" opacity="1">ports</text></g><g id="sprotty_263" transform="translate(884, 170)" opacity="1"><rect class="elkport" x="0" y="0" width="16" height="9" /><text id="sprotty_264" class="elklabel" transform="translate(17, 10) translate(0, 0)" opacity="1">service</text></g><g id="sprotty_266" transform="translate(884, 230)" opacity="1"><rect class="elkport" x="0" y="0" width="16" height="9" /><text id="sprotty_267" class="elklabel" transform="translate(17, 10) translate(0, 0)" opacity="1">statefulset</text></g><g id="sprotty_277" transform="translate(-16, 1130)" opacity="1"><rect class="elkport" x="0" y="0" width="16" height="9" /><text id="sprotty_278" class="elklabel" transform="translate(-1, 10) translate(0, 0)" opacity="1">default</text></g><text id="sprotty_132" class="elklabel" transform="translate(0, -21) translate(0, 0)" opacity="1">mysql</text></g><g id="sprotty_205" transform="translate(100, 1148.5)" opacity="1"><rect class="elknode" x="0" y="0" rx="10" width="200" height="60" /><text id="sprotty_206" class="elklabel" transform="translate(5, 22) translate(0, 0)" opacity="1">module.mysql</text></g><g id="sprotty_7" transform="translate(-16, 1543.7142857142858)" opacity="1"><rect class="elkport" x="0" y="0" width="16" height="9" /><text id="sprotty_8" class="elklabel" transform="translate(-1, -1) translate(0, 0)" opacity="1">namespace</text></g><g id="sprotty_13" transform="translate(-16, 1710.7142857142858)" opacity="1"><rect class="elkport" x="0" y="0" width="16" height="9" /><text id="sprotty_14" class="elklabel" transform="translate(-1, 10) translate(0, 0)" opacity="1">name</text></g><text id="sprotty_4" class="elklabel" transform="translate(0, -21) translate(0, 0)" opacity="1">examples/matomo</text><g id="sprotty_9" class="sprotty-edge" opacity="1"><path class="elkedge" d="M 0,1548.2142857142858 L 100,1548.2142857142858" /><path class="edge arrow" d="M 0,0 L 8,-3 L 8,3 Z" transform="rotate(180 100 1548.2142857142858) translate(100 1548.2142857142858)" /></g><g id="sprotty_12" class="sprotty-edge" opacity="1"><path class="elkedge" d="M 300,1566.2142857142858 L 350,1566.2142857142858 L 350,1625.2142857142858 L 1495,1625.2142857142858" /><path class="edge arrow" d="M 0,0 L 8,-3 L 8,3 Z" transform="rotate(180 1495 1625.2142857142858) translate(1495 1625.2142857142858)" /></g><g id="sprotty_15" class="sprotty-edge" opacity="1"><path class="elkedge" d="M 0,1715.2142857142858 L 350,1715.2142857142858 L 350,1645.2142857142858 L 1495,1645.2142857142858" /><path class="edge arrow" d="M 0,0 L 8,-3 L 8,3 Z" transform="rotate(180 1495 1645.2142857142858) translate(1495 1645.2142857142858)" /><g id="sprotty_15_j0" transform="translate(350, 1715.2142857142858)" opacity="1"><circle class="elkjunction" r="2" /></g></g><g id="sprotty_18" class="sprotty-edge" opacity="1"><path class="elkedge" d="M 300,1542.2142857142858 L 3986,1542.2142857142858" /><path class="edge arrow" d="M 0,0 L 8,-3 L 8,3 Z" transform="rotate(180 3986 1542.2142857142858) translate(3986 1542.2142857142858)" /></g><g id="sprotty_23" class="sprotty-edge" opacity="1"><path class="elkedge" d="M 3785,706.7142857142858 L 3886,706.7142857142858 L 3886,1512.2142857142858 L 3986,1512.2142857142858" /><path class="edge arrow" d="M 0,0 L 8,-3 L 8,3 Z" transform="rotate(180 3986 1512.2142857142858) translate(3986 1512.2142857142858)" /></g><g id="sprotty_26" class="sprotty-edge" opacity="1"><path class="elkedge" d="M 3785,766.7142857142858 L 3836,766.7142857142858 L 3836,1527.2142857142858 L 3986,1527.2142857142858" /><path class="edge arrow" d="M 0,0 L 8,-3 L 8,3 Z" transform="rotate(180 3986 1527.2142857142858) translate(3986 1527.2142857142858)" /><g id="sprotty_26_j0" transform="translate(3836, 1527.2142857142858)" opacity="1"><circle class="elkjunction" r="2" /></g></g><g id="sprotty_31" class="sprotty-edge" opacity="1"><path class="elkedge" d="M 2885,707.6950549450551 L 2985,719.9546703296704" /><path class="edge arrow" d="M 0,0 L 8,-3 L 8,3 Z" transform="rotate(-173.01063484366153 2985 719.9546703296704) translate(2985 719.9546703296704)" /></g><g id="sprotty_34" class="sprotty-edge" opacity="1"><path class="elkedge" d="M 2885,765.3873626373627 L 2985,748.8008241758242" /><path class="edge arrow" d="M 0,0 L 8,-3 L 8,3 Z" transform="rotate(170.58235285466571 2985 748.8008241758242) translate(2985 748.8008241758242)" /></g><g id="sprotty_37" class="sprotty-edge" opacity="1"><path class="elkedge" d="M 2885,823.0796703296704 L 3018.968253968254,762.2142857142858" /><path class="edge arrow" d="M 0,0 L 8,-3 L 8,3 Z" transform="rotate(155.5664230096372 3018.968253968254 762.2142857142858) translate(3018.968253968254 762.2142857142858)" /></g><g id="sprotty_40" class="sprotty-edge" opacity="1"><path class="elkedge" d="M 2883.0582524271845,882.2142857142858 L 3044.6116504854367,762.2142857142858" /><path class="edge arrow" d="M 0,0 L 8,-3 L 8,3 Z" transform="rotate(143.39546107211743 3044.6116504854367 762.2142857142858) translate(3044.6116504854367 762.2142857142858)" /></g><g id="sprotty_43" class="sprotty-edge" opacity="1"><path class="elkedge" d="M 2881.3636363636365,942.2142857142858 L 3055.909090909091,762.2142857142858" /><path class="edge arrow" d="M 0,0 L 8,-3 L 8,3 Z" transform="rotate(134.11859600341785 3055.909090909091 762.2142857142858) translate(3055.909090909091 762.2142857142858)" /></g><g id="sprotty_46" class="sprotty-edge" opacity="1"><path class="elkedge" d="M 2880.409836065574,1002.2142857142858 L 3062.2677595628415,762.2142857142858" /><path class="edge arrow" d="M 0,0 L 8,-3 L 8,3 Z" transform="rotate(127.15271423731078 3062.2677595628415 762.2142857142858) translate(3062.2677595628415 762.2142857142858)" /></g><g id="sprotty_49" class="sprotty-edge" opacity="1"><path class="elkedge" d="M 2879.798206278027,1062.2142857142858 L 3066.345291479821,762.2142857142858" /><path class="edge arrow" d="M 0,0 L 8,-3 L 8,3 Z" transform="rotate(121.8743247375575 3066.345291479821 762.2142857142858) translate(3066.345291479821 762.2142857142858)" /></g><g id="sprotty_52" class="sprotty-edge" opacity="1"><path class="elkedge" d="M 2879.3726235741447,1122.2142857142858 L 3069.1825095057034,762.2142857142858" /><path class="edge arrow" d="M 0,0 L 8,-3 L 8,3 Z" transform="rotate(117.80042566034113 3069.1825095057034 762.2142857142858) translate(3069.1825095057034 762.2142857142858)" /></g><g id="sprotty_55" class="sprotty-edge" opacity="1"><path class="elkedge" d="M 2879.059405940594,1182.2142857142858 L 3071.2706270627064,762.2142857142858" /><path class="edge arrow" d="M 0,0 L 8,-3 L 8,3 Z" transform="rotate(114.59100050152603 3071.2706270627064 762.2142857142858) translate(3071.2706270627064 762.2142857142858)" /></g><g id="sprotty_58" class="sprotty-edge" opacity="1"><path class="elkedge" d="M 2878.8192419825073,1242.2142857142858 L 3072.8717201166182,762.2142857142858" /><path class="edge arrow" d="M 0,0 L 8,-3 L 8,3 Z" transform="rotate(112.01230148180704 3072.8717201166182 762.2142857142858) translate(3072.8717201166182 762.2142857142858)" /></g><g id="sprotty_61" class="sprotty-edge" opacity="1"><path class="elkedge" d="M 2878.6292428198435,1302.2142857142858 L 3074.1383812010445,762.2142857142858" /><path class="edge arrow" d="M 0,0 L 8,-3 L 8,3 Z" transform="rotate(109.90298942454935 3074.1383812010445 762.2142857142858) translate(3074.1383812010445 762.2142857142858)" /></g><g id="sprotty_64" class="sprotty-edge" opacity="1"><path class="elkedge" d="M 2878.4751773049647,1362.2142857142858 L 3075.1654846335696,762.2142857142858" /><path class="edge arrow" d="M 0,0 L 8,-3 L 8,3 Z" transform="rotate(108.15003254253318 3075.1654846335696 762.2142857142858) translate(3075.1654846335696 762.2142857142858)" /></g><g id="sprotty_69" class="sprotty-edge" opacity="1"><path class="elkedge" d="M 2108.5969240628006,1371 L 3277.4030759371994,762.2142857142858" /><path class="edge arrow" d="M 0,0 L 8,-3 L 8,3 Z" transform="rotate(152.48674377976295 3277.4030759371994 762.2142857142858) translate(3277.4030759371994 762.2142857142858)" /></g><g id="sprotty_76" class="sprotty-edge" opacity="1"><path class="elkedge" d="M 3352,913.2142857142858 L 3302,913.2142857142858" /><path class="edge arrow" d="M 0,0 L 8,-3 L 8,3 Z" transform="rotate(0 3302 913.2142857142858) translate(3302 913.2142857142858)" /></g><g id="sprotty_81" class="sprotty-edge" opacity="1"><path class="elkedge" d="M 3352,1023.2142857142858 L 3302,1023.2142857142858" /><path class="edge arrow" d="M 0,0 L 8,-3 L 8,3 Z" transform="rotate(0 3302 1023.2142857142858) translate(3302 1023.2142857142858)" /></g><g id="sprotty_84" class="sprotty-edge" opacity="1"><path class="elkedge" d="M 3202,1103.2142857142858 L 3202,1053.2142857142858" /><path class="edge arrow" d="M 0,0 L 8,-3 L 8,3 Z" transform="rotate(90 3202 1053.2142857142858) translate(3202 1053.2142857142858)" /></g><g id="sprotty_87" class="sprotty-edge" opacity="1"><path class="elkedge" d="M 3002,890.08109794136 L 3352,993.6291328758579" /><path class="edge arrow" d="M 0,0 L 8,-3 L 8,3 Z" transform="rotate(-163.51906811785517 3352 993.6291328758579) translate(3352 993.6291328758579)" /></g><g id="sprotty_90" class="sprotty-edge" opacity="1"><path class="elkedge" d="M 3452,1103.2142857142858 L 3452,943.2142857142858" /><path class="edge arrow" d="M 0,0 L 8,-3 L 8,3 Z" transform="rotate(90 3452 943.2142857142858) translate(3452 943.2142857142858)" /></g><g id="sprotty_93" class="sprotty-edge" opacity="1"><path class="elkedge" d="M 3224.727272727273,1213.2142857142858 L 3429.272727272727,943.2142857142858" /><path class="edge arrow" d="M 0,0 L 8,-3 L 8,3 Z" transform="rotate(127.14668669802171 3429.272727272727 943.2142857142858) translate(3429.272727272727 943.2142857142858)" /></g><g id="sprotty_96" class="sprotty-edge" opacity="1"><path class="elkedge" d="M 3383.818181818182,1213.2142857142858 L 3270.181818181818,1163.2142857142858" /><path class="edge arrow" d="M 0,0 L 8,-3 L 8,3 Z" transform="rotate(23.749494492866702 3270.181818181818 1163.2142857142858) translate(3270.181818181818 1163.2142857142858)" /></g><g id="sprotty_97" class="sprotty-edge" opacity="1"><path class="elkedge" d="M 2999.7974683544303,892.2142857142858 L 3413.350210970464,1213.2142857142858" /><path class="edge arrow" d="M 0,0 L 8,-3 L 8,3 Z" transform="rotate(-142.18135436369792 3413.350210970464 1213.2142857142858) translate(3413.350210970464 1213.2142857142858)" /></g><g id="sprotty_98" class="sprotty-edge" opacity="1"><path class="elkedge" d="M 3002,892.0024953212727 L 3396.032586558045,1103.2142857142858" /><path class="edge arrow" d="M 0,0 L 8,-3 L 8,3 Z" transform="rotate(-151.80752547398862 3396.032586558045 1103.2142857142858) translate(3396.032586558045 1103.2142857142858)" /></g><g id="sprotty_101" class="sprotty-edge" opacity="1"><path class="elkedge" d="M 3002,950.9544603867748 L 3377.929919137466,1103.2142857142858" /><path class="edge arrow" d="M 0,0 L 8,-3 L 8,3 Z" transform="rotate(-157.95097782580274 3377.929919137466 1103.2142857142858) translate(3377.929919137466 1103.2142857142858)" /></g><g id="sprotty_102" class="sprotty-edge" opacity="1"><path class="elkedge" d="M 3352,1243.2142857142858 L 3302,1243.2142857142858" /><path class="edge arrow" d="M 0,0 L 8,-3 L 8,3 Z" transform="rotate(0 3302 1243.2142857142858) translate(3302 1243.2142857142858)" /></g><g id="sprotty_105" class="sprotty-edge" opacity="1"><path class="elkedge" d="M 3302,907.6466001247661 L 3652,888.1597005614474" /><path class="edge arrow" d="M 0,0 L 8,-3 L 8,3 Z" transform="rotate(176.81324131380964 3652 888.1597005614474) translate(3652 888.1597005614474)" /></g><g id="sprotty_108" class="sprotty-edge" opacity="1"><path class="elkedge" d="M 3473.1167512690354,1213.2142857142858 L 3656.8324873096444,952.2142857142858" /><path class="edge arrow" d="M 0,0 L 8,-3 L 8,3 Z" transform="rotate(125.14139675071024 3656.8324873096444 952.2142857142858) translate(3656.8324873096444 952.2142857142858)" /></g><g id="sprotty_111" class="sprotty-edge" opacity="1"><path class="elkedge" d="M 3302,933.8474734872116 L 3652,1006.0636306924517" /><path class="edge arrow" d="M 0,0 L 8,-3 L 8,3 Z" transform="rotate(-168.34165965728076 3652 1006.0636306924517) translate(3652 1006.0636306924517)" /></g><g id="sprotty_114" class="sprotty-edge" opacity="1"><path class="elkedge" d="M 3302,1032.9304429195258 L 3652,1066.9369931378665" /><path class="edge arrow" d="M 0,0 L 8,-3 L 8,3 Z" transform="rotate(-174.45047144714007 3652 1066.9369931378665) translate(3652 1066.9369931378665)" /></g><g id="sprotty_115" class="sprotty-edge" opacity="1"><path class="elkedge" d="M 3067.443729903537,762.2142857142858 L 2996.6334405144694,883.2142857142858" /><path class="edge arrow" d="M 0,0 L 8,-3 L 8,3 Z" transform="rotate(-59.66344493891035 2996.6334405144694 883.2142857142858) translate(2996.6334405144694 883.2142857142858)" /></g><g id="sprotty_116" class="sprotty-edge" opacity="1"><path class="elkedge" d="M 3269.2122186495176,762.2142857142858 L 3002,884.0661918726436" /><path class="edge arrow" d="M 0,0 L 8,-3 L 8,3 Z" transform="rotate(-24.513542200616612 3002 884.0661918726436) translate(3002 884.0661918726436)" /></g><g id="sprotty_119" class="sprotty-edge" opacity="1"><path class="elkedge" d="M 2877.9768089053805,1422.2142857142858 L 2993.0231910946195,892.2142857142858" /><path class="edge arrow" d="M 0,0 L 8,-3 L 8,3 Z" transform="rotate(102.24711981395002 2993.0231910946195 892.2142857142858) translate(2993.0231910946195 892.2142857142858)" /></g><g id="sprotty_120" class="sprotty-edge" opacity="1"><path class="elkedge" d="M 3287.5290023201856,762.2142857142858 L 3001.120649651972,943.2142857142858" /><path class="edge arrow" d="M 0,0 L 8,-3 L 8,3 Z" transform="rotate(-32.29144568745698 3001.120649651972 943.2142857142858) translate(3001.120649651972 943.2142857142858)" /></g><g id="sprotty_123" class="sprotty-edge" opacity="1"><path class="elkedge" d="M 3668,883.5433455433456 L 3769,830.885225885226" /><path class="edge arrow" d="M 0,0 L 8,-3 L 8,3 Z" transform="rotate(152.46392689184287 3769 830.885225885226) translate(3769 830.885225885226)" /></g><g id="sprotty_124" class="sprotty-edge" opacity="1"><path class="elkedge" d="M 2869,1126.7142857142858 L 2668,1126.7142857142858 L 2668,581.2142857142858 L 3886,581.2142857142858 L 3886,706.7142857142858 L 3785,706.7142857142858" /><path class="edge arrow" d="M 0,0 L 8,-3 L 8,3 Z" transform="rotate(0 3785 706.7142857142858) translate(3785 706.7142857142858)" /><g id="sprotty_124_j0" transform="translate(3886, 706.7142857142858)" opacity="1"><circle class="elkjunction" r="2" /></g></g><g id="sprotty_125" class="sprotty-edge" opacity="1"><path class="elkedge" d="M 2869,1246.7142857142858 L 2768,1246.7142857142858 L 2768,1532.2142857142858 L 3836,1532.2142857142858 L 3836,766.7142857142858 L 3785,766.7142857142858" /><path class="edge arrow" d="M 0,0 L 8,-3 L 8,3 Z" transform="rotate(0 3785 766.7142857142858) translate(3785 766.7142857142858)" /></g><g id="sprotty_128" class="sprotty-edge" opacity="1"><path class="elkedge" d="M 3662.9088397790056,1063.2142857142858 L 3774.0911602209944,891.2142857142858" /><path class="edge arrow" d="M 0,0 L 8,-3 L 8,3 Z" transform="rotate(122.8789845474142 3774.0911602209944 891.2142857142858) translate(3774.0911602209944 891.2142857142858)" /></g><g id="sprotty_129" class="sprotty-edge" opacity="1"><path class="elkedge" d="M 2151,1375.2857142857142 L 2268,1375.2857142857144 L 2268,706.7142857142858 L 2869,706.7142857142858" /><path class="edge arrow" d="M 0,0 L 8,-3 L 8,3 Z" transform="rotate(180 2869 706.7142857142858) translate(2869 706.7142857142858)" /></g><g id="sprotty_130" class="sprotty-edge" opacity="1"><path class="elkedge" d="M 2151,1379.5714285714287 L 2318,1379.5714285714287 L 2318,766.7142857142858 L 2869,766.7142857142858" /><path class="edge arrow" d="M 0,0 L 8,-3 L 8,3 Z" transform="rotate(180 2869 766.7142857142858) translate(2869 766.7142857142858)" /></g><g id="sprotty_135" class="sprotty-edge" opacity="1"><path class="elkedge" d="M 2167,125.5 L 2318,125.5 L 2318,766.7142857142858 L 2869,766.7142857142858" /><path class="edge arrow" d="M 0,0 L 8,-3 L 8,3 Z" transform="rotate(180 2869 766.7142857142858) translate(2869 766.7142857142858)" /><g id="sprotty_135_j0" transform="translate(2318, 766.7142857142858)" opacity="1"><circle class="elkjunction" r="2" /></g></g><g id="sprotty_136" class="sprotty-edge" opacity="1"><path class="elkedge" d="M 2151,1383.857142857143 L 2368,1383.857142857143 L 2368,826.7142857142858 L 2869,826.7142857142858" /><path class="edge arrow" d="M 0,0 L 8,-3 L 8,3 Z" transform="rotate(180 2869 826.7142857142858) translate(2869 826.7142857142858)" /></g><g id="sprotty_137" class="sprotty-edge" opacity="1"><path class="elkedge" d="M 2151,1388.142857142857 L 2418,1388.1428571428573 L 2418,886.7142857142858 L 2869,886.7142857142858" /><path class="edge arrow" d="M 0,0 L 8,-3 L 8,3 Z" transform="rotate(180 2869 886.7142857142858) translate(2869 886.7142857142858)" /></g><g id="sprotty_138" class="sprotty-edge" opacity="1"><path class="elkedge" d="M 2151,1392.4285714285713 L 2468,1392.4285714285716 L 2468,946.7142857142858 L 2869,946.7142857142858" /><path class="edge arrow" d="M 0,0 L 8,-3 L 8,3 Z" transform="rotate(180 2869 946.7142857142858) translate(2869 946.7142857142858)" /></g><g id="sprotty_139" class="sprotty-edge" opacity="1"><path class="elkedge" d="M 2151,1396.7142857142858 L 2518,1396.7142857142858 L 2518,1006.7142857142858 L 2869,1006.7142857142858" /><path class="edge arrow" d="M 0,0 L 8,-3 L 8,3 Z" transform="rotate(180 2869 1006.7142857142858) translate(2869 1006.7142857142858)" /></g><g id="sprotty_140" class="sprotty-edge" opacity="1"><path class="elkedge" d="M 2151,1401 L 2568,1401 L 2568,1066.7142857142858 L 2869,1066.7142857142858" /><path class="edge arrow" d="M 0,0 L 8,-3 L 8,3 Z" transform="rotate(180 2869 1066.7142857142858) translate(2869 1066.7142857142858)" /></g><g id="sprotty_141" class="sprotty-edge" opacity="1"><path class="elkedge" d="M 2151,1405.2857142857142 L 2668,1405.2857142857144 L 2668,1126.7142857142858 L 2869,1126.7142857142858" /><path class="edge arrow" d="M 0,0 L 8,-3 L 8,3 Z" transform="rotate(180 2869 1126.7142857142858) translate(2869 1126.7142857142858)" /><g id="sprotty_141_j0" transform="translate(2668, 1405.2857142857144)" opacity="1"><circle class="elkjunction" r="2" /></g><g id="sprotty_141_j1" transform="translate(2668, 1126.7142857142858)" opacity="1"><circle class="elkjunction" r="2" /></g></g><g id="sprotty_142" class="sprotty-edge" opacity="1"><path class="elkedge" d="M 0,1715.2142857142858 L 2668,1715.2142857142858 L 2668,1126.7142857142858 L 2869,1126.7142857142858" /><path class="edge arrow" d="M 0,0 L 8,-3 L 8,3 Z" transform="rotate(180 2869 1126.7142857142858) translate(2869 1126.7142857142858)" /></g><g id="sprotty_143" class="sprotty-edge" opacity="1"><path class="elkedge" d="M 300,1554.2142857142858 L 2618,1554.2142857142858 L 2618,1186.7142857142858 L 2869,1186.7142857142858" /><path class="edge arrow" d="M 0,0 L 8,-3 L 8,3 Z" transform="rotate(180 2869 1186.7142857142858) translate(2869 1186.7142857142858)" /></g><g id="sprotty_144" class="sprotty-edge" opacity="1"><path class="elkedge" d="M 2151,1409.5714285714287 L 2618,1409.5714285714287 L 2618,1186.7142857142858 L 2869,1186.7142857142858" /><path class="edge arrow" d="M 0,0 L 8,-3 L 8,3 Z" transform="rotate(180 2869 1186.7142857142858) translate(2869 1186.7142857142858)" /><g id="sprotty_144_j0" transform="translate(2618, 1409.5714285714287)" opacity="1"><circle class="elkjunction" r="2" /></g></g><g id="sprotty_145" class="sprotty-edge" opacity="1"><path class="elkedge" d="M 2151,1426.7142857142858 L 2869,1426.7142857142858" /><path class="edge arrow" d="M 0,0 L 8,-3 L 8,3 Z" transform="rotate(180 2869 1426.7142857142858) translate(2869 1426.7142857142858)" /></g><g id="sprotty_146" class="sprotty-edge" opacity="1"><path class="elkedge" d="M 2151,1413.857142857143 L 2768,1413.857142857143 L 2768,1246.7142857142858 L 2869,1246.7142857142858" /><path class="edge arrow" d="M 0,0 L 8,-3 L 8,3 Z" transform="rotate(180 2869 1246.7142857142858) translate(2869 1246.7142857142858)" /><g id="sprotty_146_j0" transform="translate(2768, 1413.857142857143)" opacity="1"><circle class="elkjunction" r="2" /></g></g><g id="sprotty_147" class="sprotty-edge" opacity="1"><path class="elkedge" d="M 1695,1635.2142857142858 L 2718,1635.2142857142858 L 2718,1306.7142857142858 L 2869,1306.7142857142858" /><path class="edge arrow" d="M 0,0 L 8,-3 L 8,3 Z" transform="rotate(180 2869 1306.7142857142858) translate(2869 1306.7142857142858)" /></g><g id="sprotty_148" class="sprotty-edge" opacity="1"><path class="elkedge" d="M 2151,1418.142857142857 L 2718,1418.1428571428573 L 2718,1306.7142857142858 L 2869,1306.7142857142858" /><path class="edge arrow" d="M 0,0 L 8,-3 L 8,3 Z" transform="rotate(180 2869 1306.7142857142858) translate(2869 1306.7142857142858)" /><g id="sprotty_148_j0" transform="translate(2718, 1418.1428571428573)" opacity="1"><circle class="elkjunction" r="2" /></g></g><g id="sprotty_149" class="sprotty-edge" opacity="1"><path class="elkedge" d="M 2151,1422.4285714285713 L 2818,1422.4285714285716 L 2818,1366.7142857142858 L 2869,1366.7142857142858" /><path class="edge arrow" d="M 0,0 L 8,-3 L 8,3 Z" transform="rotate(180 2869 1366.7142857142858) translate(2869 1366.7142857142858)" /></g><g id="sprotty_154" class="sprotty-edge" opacity="1"><path class="elkedge" d="M 1267,126.48076923076923 L 1367,138.7403846153846" /><path class="edge arrow" d="M 0,0 L 8,-3 L 8,3 Z" transform="rotate(-173.01063484366153 1367 138.7403846153846) translate(1367 138.7403846153846)" /></g><g id="sprotty_157" class="sprotty-edge" opacity="1"><path class="elkedge" d="M 1267,184.1730769230769 L 1367,167.58653846153845" /><path class="edge arrow" d="M 0,0 L 8,-3 L 8,3 Z" transform="rotate(170.58235285466571 1367 167.58653846153845) translate(1367 167.58653846153845)" /></g><g id="sprotty_160" class="sprotty-edge" opacity="1"><path class="elkedge" d="M 1267,241.8653846153846 L 1400.968253968254,181" /><path class="edge arrow" d="M 0,0 L 8,-3 L 8,3 Z" transform="rotate(155.5664230096372 1400.968253968254 181) translate(1400.968253968254 181)" /></g><g id="sprotty_163" class="sprotty-edge" opacity="1"><path class="elkedge" d="M 1265.0582524271845,301 L 1426.611650485437,181" /><path class="edge arrow" d="M 0,0 L 8,-3 L 8,3 Z" transform="rotate(143.39546107211748 1426.611650485437 181) translate(1426.611650485437 181)" /></g><g id="sprotty_166" class="sprotty-edge" opacity="1"><path class="elkedge" d="M 1263.3636363636363,361 L 1437.909090909091,181" /><path class="edge arrow" d="M 0,0 L 8,-3 L 8,3 Z" transform="rotate(134.1185960034179 1437.909090909091 181) translate(1437.909090909091 181)" /></g><g id="sprotty_169" class="sprotty-edge" opacity="1"><path class="elkedge" d="M 1262.4098360655737,421 L 1444.2677595628415,181" /><path class="edge arrow" d="M 0,0 L 8,-3 L 8,3 Z" transform="rotate(127.15271423731083 1444.2677595628415 181) translate(1444.2677595628415 181)" /></g><g id="sprotty_172" class="sprotty-edge" opacity="1"><path class="elkedge" d="M 1261.798206278027,481 L 1448.3452914798206,181" /><path class="edge arrow" d="M 0,0 L 8,-3 L 8,3 Z" transform="rotate(121.87432473755749 1448.3452914798206 181) translate(1448.3452914798206 181)" /></g><g id="sprotty_175" class="sprotty-edge" opacity="1"><path class="elkedge" d="M 1261.3726235741444,541 L 1451.1825095057034,181" /><path class="edge arrow" d="M 0,0 L 8,-3 L 8,3 Z" transform="rotate(117.80042566034118 1451.1825095057034 181) translate(1451.1825095057034 181)" /></g><g id="sprotty_178" class="sprotty-edge" opacity="1"><path class="elkedge" d="M 1261.0594059405942,601 L 1453.2706270627064,181" /><path class="edge arrow" d="M 0,0 L 8,-3 L 8,3 Z" transform="rotate(114.59100050152601 1453.2706270627064 181) translate(1453.2706270627064 181)" /></g><g id="sprotty_181" class="sprotty-edge" opacity="1"><path class="elkedge" d="M 1260.8192419825073,661 L 1454.871720116618,181" /><path class="edge arrow" d="M 0,0 L 8,-3 L 8,3 Z" transform="rotate(112.01230148180701 1454.871720116618 181) translate(1454.871720116618 181)" /></g><g id="sprotty_184" class="sprotty-edge" opacity="1"><path class="elkedge" d="M 1260.6292428198433,721 L 1456.1383812010445,181" /><path class="edge arrow" d="M 0,0 L 8,-3 L 8,3 Z" transform="rotate(109.90298942454936 1456.1383812010445 181) translate(1456.1383812010445 181)" /></g><g id="sprotty_187" class="sprotty-edge" opacity="1"><path class="elkedge" d="M 1260.4751773049645,781 L 1457.1654846335698,181" /><path class="edge arrow" d="M 0,0 L 8,-3 L 8,3 Z" transform="rotate(108.15003254253324 1457.1654846335698 181) translate(1457.1654846335698 181)" /></g><g id="sprotty_190" class="sprotty-edge" opacity="1"><path class="elkedge" d="M 1260.3477321814255,841 L 1458.0151187904967,181" /><path class="edge arrow" d="M 0,0 L 8,-3 L 8,3 Z" transform="rotate(106.6727499528465 1458.0151187904967 181) translate(1458.0151187904967 181)" /></g><g id="sprotty_193" class="sprotty-edge" opacity="1"><path class="elkedge" d="M 1260.2405566600398,901 L 1458.7296222664015,181" /><path class="edge arrow" d="M 0,0 L 8,-3 L 8,3 Z" transform="rotate(105.41242727826862 1458.7296222664015 181) translate(1458.7296222664015 181)" /></g><g id="sprotty_196" class="sprotty-edge" opacity="1"><path class="elkedge" d="M 1260.1491712707182,961 L 1459.3388581952117,181" /><path class="edge arrow" d="M 0,0 L 8,-3 L 8,3 Z" transform="rotate(104.3255301445682 1459.3388581952117 181) translate(1459.3388581952117 181)" /></g><g id="sprotty_199" class="sprotty-edge" opacity="1"><path class="elkedge" d="M 1260.0703259005145,1021 L 1459.8644939965695,181" /><path class="edge arrow" d="M 0,0 L 8,-3 L 8,3 Z" transform="rotate(103.37921057793176 1459.8644939965695 181) translate(1459.8644939965695 181)" /></g><g id="sprotty_202" class="sprotty-edge" opacity="1"><path class="elkedge" d="M 1260.0016051364366,1081 L 1460.322632423756,181" /><path class="edge arrow" d="M 0,0 L 8,-3 L 8,3 Z" transform="rotate(102.54828171718644 1460.322632423756 181) translate(1460.322632423756 181)" /></g><g id="sprotty_207" class="sprotty-edge" opacity="1"><path class="elkedge" d="M 244.2919708029197,1148.5 L 1672.7080291970804,181" /><path class="edge arrow" d="M 0,0 L 8,-3 L 8,3 Z" transform="rotate(145.88928527762428 1672.7080291970804 181) translate(1672.7080291970804 181)" /></g><g id="sprotty_214" class="sprotty-edge" opacity="1"><path class="elkedge" d="M 1734,332 L 1684,332" /><path class="edge arrow" d="M 0,0 L 8,-3 L 8,3 Z" transform="rotate(0 1684 332) translate(1684 332)" /></g><g id="sprotty_219" class="sprotty-edge" opacity="1"><path class="elkedge" d="M 1734,442 L 1684,442" /><path class="edge arrow" d="M 0,0 L 8,-3 L 8,3 Z" transform="rotate(0 1684 442) translate(1684 442)" /></g><g id="sprotty_222" class="sprotty-edge" opacity="1"><path class="elkedge" d="M 1584,522 L 1584,472" /><path class="edge arrow" d="M 0,0 L 8,-3 L 8,3 Z" transform="rotate(90 1584 472) translate(1584 472)" /></g><g id="sprotty_225" class="sprotty-edge" opacity="1"><path class="elkedge" d="M 1384,308.8668122270742 L 1734,412.4148471615721" /><path class="edge arrow" d="M 0,0 L 8,-3 L 8,3 Z" transform="rotate(-163.51906811785517 1734 412.4148471615721) translate(1734 412.4148471615721)" /></g><g id="sprotty_228" class="sprotty-edge" opacity="1"><path class="elkedge" d="M 1834,522 L 1834,362" /><path class="edge arrow" d="M 0,0 L 8,-3 L 8,3 Z" transform="rotate(90 1834 362) translate(1834 362)" /></g><g id="sprotty_231" class="sprotty-edge" opacity="1"><path class="elkedge" d="M 1606.7272727272727,632 L 1811.2727272727273,362" /><path class="edge arrow" d="M 0,0 L 8,-3 L 8,3 Z" transform="rotate(127.14668669802178 1811.2727272727273 362) translate(1811.2727272727273 362)" /></g><g id="sprotty_234" class="sprotty-edge" opacity="1"><path class="elkedge" d="M 1765.8181818181818,632 L 1652.1818181818182,582" /><path class="edge arrow" d="M 0,0 L 8,-3 L 8,3 Z" transform="rotate(23.749494492866788 1652.1818181818182 582) translate(1652.1818181818182 582)" /></g><g id="sprotty_235" class="sprotty-edge" opacity="1"><path class="elkedge" d="M 1381.7974683544303,311 L 1795.350210970464,632" /><path class="edge arrow" d="M 0,0 L 8,-3 L 8,3 Z" transform="rotate(-142.18135436369792 1795.350210970464 632) translate(1795.350210970464 632)" /></g><g id="sprotty_236" class="sprotty-edge" opacity="1"><path class="elkedge" d="M 1384,310.7882096069869 L 1778.0325865580448,522" /><path class="edge arrow" d="M 0,0 L 8,-3 L 8,3 Z" transform="rotate(-151.80752547398862 1778.0325865580448 522) translate(1778.0325865580448 522)" /></g><g id="sprotty_239" class="sprotty-edge" opacity="1"><path class="elkedge" d="M 1384,369.74017467248905 L 1759.9299191374662,522" /><path class="edge arrow" d="M 0,0 L 8,-3 L 8,3 Z" transform="rotate(-157.95097782580274 1759.9299191374662 522) translate(1759.9299191374662 522)" /></g><g id="sprotty_240" class="sprotty-edge" opacity="1"><path class="elkedge" d="M 1734,662 L 1684,662" /><path class="edge arrow" d="M 0,0 L 8,-3 L 8,3 Z" transform="rotate(0 1684 662) translate(1684 662)" /></g><g id="sprotty_243" class="sprotty-edge" opacity="1"><path class="elkedge" d="M 1851.5527426160338,632 L 2039.367088607595,311" /><path class="edge arrow" d="M 0,0 L 8,-3 L 8,3 Z" transform="rotate(120.3315364470422 2039.367088607595 311) translate(2039.367088607595 311)" /></g><g id="sprotty_246" class="sprotty-edge" opacity="1"><path class="elkedge" d="M 1684,339.53275109170306 L 2034,365.8973799126637" /><path class="edge arrow" d="M 0,0 L 8,-3 L 8,3 Z" transform="rotate(-175.69218709699993 2034 365.8973799126637) translate(2034 365.8973799126637)" /></g><g id="sprotty_249" class="sprotty-edge" opacity="1"><path class="elkedge" d="M 1684,438.61572052401743 L 2034,426.77074235807856" /><path class="edge arrow" d="M 0,0 L 8,-3 L 8,3 Z" transform="rotate(178.0616904718802 2034 426.77074235807856) translate(2034 426.77074235807856)" /></g><g id="sprotty_252" class="sprotty-edge" opacity="1"><path class="elkedge" d="M 1672.9320388349515,362 L 2034,483.8013100436681" /><path class="edge arrow" d="M 0,0 L 8,-3 L 8,3 Z" transform="rotate(-161.35888472155233 2034 483.8013100436681) translate(2034 483.8013100436681)" /></g><g id="sprotty_253" class="sprotty-edge" opacity="1"><path class="elkedge" d="M 1449.443729903537,181 L 1378.6334405144694,302" /><path class="edge arrow" d="M 0,0 L 8,-3 L 8,3 Z" transform="rotate(-59.66344493891042 1378.6334405144694 302) translate(1378.6334405144694 302)" /></g><g id="sprotty_254" class="sprotty-edge" opacity="1"><path class="elkedge" d="M 1651.2122186495176,181 L 1384,302.8519061583578" /><path class="edge arrow" d="M 0,0 L 8,-3 L 8,3 Z" transform="rotate(-24.513542200616612 1384 302.8519061583578) translate(1384 302.8519061583578)" /></g><g id="sprotty_257" class="sprotty-edge" opacity="1"><path class="elkedge" d="M 1259.6275327771157,1141 L 1375.3724672228843,311" /><path class="edge arrow" d="M 0,0 L 8,-3 L 8,3 Z" transform="rotate(97.93879829205653 1375.3724672228843 311) translate(1375.3724672228843 311)" /></g><g id="sprotty_258" class="sprotty-edge" opacity="1"><path class="elkedge" d="M 1669.5290023201856,181 L 1383.1206496519721,362" /><path class="edge arrow" d="M 0,0 L 8,-3 L 8,3 Z" transform="rotate(-32.29144568745698 1383.1206496519721 362) translate(1383.1206496519721 362)" /></g><g id="sprotty_259" class="sprotty-edge" opacity="1"><path class="elkedge" d="M 1251,725.5 L 900,725.5 L 900,1321 L 2318,1321 L 2318,125.5 L 2167,125.5" /><path class="edge arrow" d="M 0,0 L 8,-3 L 8,3 Z" transform="rotate(0 2167 125.5) translate(2167 125.5)" /><g id="sprotty_259_j0" transform="translate(2318, 1321)" opacity="1"><circle class="elkjunction" r="2" /></g></g><g id="sprotty_262" class="sprotty-edge" opacity="1"><path class="elkedge" d="M 1251,845.5 L 950,845.5 L 950,1311 L 2218,1311 L 2218,185.5 L 2167,185.5" /><path class="edge arrow" d="M 0,0 L 8,-3 L 8,3 Z" transform="rotate(0 2167 185.5) translate(2167 185.5)" /></g><g id="sprotty_265" class="sprotty-edge" opacity="1"><path class="elkedge" d="M 2044.9088397790056,422 L 2156.0911602209944,250" /><path class="edge arrow" d="M 0,0 L 8,-3 L 8,3 Z" transform="rotate(122.8789845474142 2156.0911602209944 250) translate(2156.0911602209944 250)" /></g><g id="sprotty_268" class="sprotty-edge" opacity="1"><path class="elkedge" d="M 2044.9088397790056,482 L 2156.0911602209944,310" /><path class="edge arrow" d="M 0,0 L 8,-3 L 8,3 Z" transform="rotate(122.8789845474142 2156.0911602209944 310) translate(2156.0911602209944 310)" /></g><g id="sprotty_269" class="sprotty-edge" opacity="1"><path class="elkedge" d="M 300,1151.5 L 350,1151.5 L 350,125.5 L 1251,125.5" /><path class="edge arrow" d="M 0,0 L 8,-3 L 8,3 Z" transform="rotate(180 1251 125.5) translate(1251 125.5)" /></g><g id="sprotty_270" class="sprotty-edge" opacity="1"><path class="elkedge" d="M 300,1154.5 L 400,1154.5 L 400,185.5 L 1251,185.5" /><path class="edge arrow" d="M 0,0 L 8,-3 L 8,3 Z" transform="rotate(180 1251 185.5) translate(1251 185.5)" /></g><g id="sprotty_271" class="sprotty-edge" opacity="1"><path class="elkedge" d="M 300,1157.5 L 450,1157.5 L 450,245.5 L 1251,245.5" /><path class="edge arrow" d="M 0,0 L 8,-3 L 8,3 Z" transform="rotate(180 1251 245.5) translate(1251 245.5)" /></g><g id="sprotty_272" class="sprotty-edge" opacity="1"><path class="elkedge" d="M 300,1160.5 L 500,1160.5 L 500,305.5 L 1251,305.5" /><path class="edge arrow" d="M 0,0 L 8,-3 L 8,3 Z" transform="rotate(180 1251 305.5) translate(1251 305.5)" /></g><g id="sprotty_273" class="sprotty-edge" opacity="1"><path class="elkedge" d="M 300,1163.5 L 550,1163.5 L 550,365.5 L 1251,365.5" /><path class="edge arrow" d="M 0,0 L 8,-3 L 8,3 Z" transform="rotate(180 1251 365.5) translate(1251 365.5)" /></g><g id="sprotty_274" class="sprotty-edge" opacity="1"><path class="elkedge" d="M 300,1166.5 L 600,1166.5 L 600,425.5 L 1251,425.5" /><path class="edge arrow" d="M 0,0 L 8,-3 L 8,3 Z" transform="rotate(180 1251 425.5) translate(1251 425.5)" /></g><g id="sprotty_275" class="sprotty-edge" opacity="1"><path class="elkedge" d="M 300,1169.5 L 650,1169.5 L 650,485.5 L 1251,485.5" /><path class="edge arrow" d="M 0,0 L 8,-3 L 8,3 Z" transform="rotate(180 1251 485.5) translate(1251 485.5)" /></g><g id="sprotty_276" class="sprotty-edge" opacity="1"><path class="elkedge" d="M 300,1172.5 L 700,1172.5 L 700,545.5 L 1251,545.5" /><path class="edge arrow" d="M 0,0 L 8,-3 L 8,3 Z" transform="rotate(180 1251 545.5) translate(1251 545.5)" /></g><g id="sprotty_279" class="sprotty-edge" opacity="1"><path class="elkedge" d="M 300,1205.5 L 1251,1205.5" /><path class="edge arrow" d="M 0,0 L 8,-3 L 8,3 Z" transform="rotate(180 1251 1205.5) translate(1251 1205.5)" /></g><g id="sprotty_280" class="sprotty-edge" opacity="1"><path class="elkedge" d="M 300,1175.5 L 750,1175.5 L 750,605.5 L 1251,605.5" /><path class="edge arrow" d="M 0,0 L 8,-3 L 8,3 Z" transform="rotate(180 1251 605.5) translate(1251 605.5)" /></g><g id="sprotty_281" class="sprotty-edge" opacity="1"><path class="elkedge" d="M 300,1178.5 L 800,1178.5 L 800,665.5 L 1251,665.5" /><path class="edge arrow" d="M 0,0 L 8,-3 L 8,3 Z" transform="rotate(180 1251 665.5) translate(1251 665.5)" /></g><g id="sprotty_282" class="sprotty-edge" opacity="1"><path class="elkedge" d="M 300,1181.5 L 900,1181.5 L 900,725.5 L 1251,725.5" /><path class="edge arrow" d="M 0,0 L 8,-3 L 8,3 Z" transform="rotate(180 1251 725.5) translate(1251 725.5)" /><g id="sprotty_282_j0" transform="translate(900, 1181.5)" opacity="1"><circle class="elkjunction" r="2" /></g></g><g id="sprotty_283" class="sprotty-edge" opacity="1"><path class="elkedge" d="M 300,1530.2142857142858 L 850,1530.2142857142858 L 850,785.5 L 1251,785.5" /><path class="edge arrow" d="M 0,0 L 8,-3 L 8,3 Z" transform="rotate(180 1251 785.5) translate(1251 785.5)" /></g><g id="sprotty_284" class="sprotty-edge" opacity="1"><path class="elkedge" d="M 300,1184.5 L 850,1184.5 L 850,785.5 L 1251,785.5" /><path class="edge arrow" d="M 0,0 L 8,-3 L 8,3 Z" transform="rotate(180 1251 785.5) translate(1251 785.5)" /><g id="sprotty_284_j0" transform="translate(850, 1184.5)" opacity="1"><circle class="elkjunction" r="2" /></g></g><g id="sprotty_285" class="sprotty-edge" opacity="1"><path class="elkedge" d="M 300,1202.5 L 1200,1202.5 L 1200,1145.5 L 1251,1145.5" /><path class="edge arrow" d="M 0,0 L 8,-3 L 8,3 Z" transform="rotate(180 1251 1145.5) translate(1251 1145.5)" /></g><g id="sprotty_286" class="sprotty-edge" opacity="1"><path class="elkedge" d="M 300,1187.5 L 950,1187.5 L 950,845.5 L 1251,845.5" /><path class="edge arrow" d="M 0,0 L 8,-3 L 8,3 Z" transform="rotate(180 1251 845.5) translate(1251 845.5)" /><g id="sprotty_286_j0" transform="translate(950, 1187.5)" opacity="1"><circle class="elkjunction" r="2" /></g></g><g id="sprotty_287" class="sprotty-edge" opacity="1"><path class="elkedge" d="M 300,1190.5 L 1000,1190.5 L 1000,905.5 L 1251,905.5" /><path class="edge arrow" d="M 0,0 L 8,-3 L 8,3 Z" transform="rotate(180 1251 905.5) translate(1251 905.5)" /></g><g id="sprotty_288" class="sprotty-edge" opacity="1"><path class="elkedge" d="M 300,1193.5 L 1050,1193.5 L 1050,965.5 L 1251,965.5" /><path class="edge arrow" d="M 0,0 L 8,-3 L 8,3 Z" transform="rotate(180 1251 965.5) translate(1251 965.5)" /></g><g id="sprotty_289" class="sprotty-edge" opacity="1"><path class="elkedge" d="M 300,1196.5 L 1100,1196.5 L 1100,1025.5 L 1251,1025.5" /><path class="edge arrow" d="M 0,0 L 8,-3 L 8,3 Z" transform="rotate(180 1251 1025.5) translate(1251 1025.5)" /></g><g id="sprotty_290" class="sprotty-edge" opacity="1"><path class="elkedge" d="M 300,1199.5 L 1150,1199.5 L 1150,1085.5 L 1251,1085.5" /><path class="edge arrow" d="M 0,0 L 8,-3 L 8,3 Z" transform="rotate(180 1251 1085.5) translate(1251 1085.5)" /></g></g></g></svg>
